%TF.GenerationSoftware,KiCad,Pcbnew,8.0.3*%
%TF.CreationDate,2024-06-20T00:16:02-06:00*%
%TF.ProjectId,dc32-front,64633332-2d66-4726-9f6e-742e6b696361,1.0*%
%TF.SameCoordinates,PX7bb10a0PY836a940*%
%TF.FileFunction,Profile,NP*%
%FSLAX46Y46*%
G04 Gerber Fmt 4.6, Leading zero omitted, Abs format (unit mm)*
G04 Created by KiCad (PCBNEW 8.0.3) date 2024-06-20 00:16:02*
%MOMM*%
%LPD*%
G01*
G04 APERTURE LIST*
%TA.AperFunction,Profile*%
%ADD10C,0.100000*%
%TD*%
%TA.AperFunction,Profile*%
%ADD11C,0.150000*%
%TD*%
G04 APERTURE END LIST*
D10*
X2000000Y0D02*
X98000000Y0D01*
X6603122Y5000000D02*
G75*
G02*
X3396878Y5000000I-1603122J0D01*
G01*
X3396878Y5000000D02*
G75*
G02*
X6603122Y5000000I1603122J0D01*
G01*
X0Y98000000D02*
G75*
G02*
X2000000Y100000000I2000000J0D01*
G01*
X100000000Y2000000D02*
G75*
G02*
X98000000Y0I-2000000J0D01*
G01*
X6600000Y95000000D02*
G75*
G02*
X3400000Y95000000I-1600000J0D01*
G01*
X3400000Y95000000D02*
G75*
G02*
X6600000Y95000000I1600000J0D01*
G01*
X98000000Y100000000D02*
G75*
G02*
X100000000Y98000000I0J-2000000D01*
G01*
X98000000Y100000000D02*
X2000000Y100000000D01*
X96600000Y5000000D02*
G75*
G02*
X93400000Y5000000I-1600000J0D01*
G01*
X93400000Y5000000D02*
G75*
G02*
X96600000Y5000000I1600000J0D01*
G01*
X2000000Y0D02*
G75*
G02*
X0Y2000000I0J2000000D01*
G01*
X24700000Y63500000D02*
G75*
G02*
X22700000Y63500000I-1000000J0D01*
G01*
X22700000Y63500000D02*
G75*
G02*
X24700000Y63500000I1000000J0D01*
G01*
X51000000Y84500000D02*
G75*
G02*
X49000000Y84500000I-1000000J0D01*
G01*
X49000000Y84500000D02*
G75*
G02*
X51000000Y84500000I1000000J0D01*
G01*
X100000000Y2000000D02*
X100000000Y98000000D01*
X0Y98000000D02*
X0Y2000000D01*
X26500000Y81000000D02*
X73500000Y81000000D01*
X73500000Y39500000D01*
X26500000Y39500000D01*
X26500000Y81000000D01*
D11*
X83750000Y27400000D02*
G75*
G02*
X66250000Y27400000I-8750000J0D01*
G01*
X66250000Y27400000D02*
G75*
G02*
X83750000Y27400000I8750000J0D01*
G01*
D10*
X77300000Y63500000D02*
G75*
G02*
X75300000Y63500000I-1000000J0D01*
G01*
X75300000Y63500000D02*
G75*
G02*
X77300000Y63500000I1000000J0D01*
G01*
X96603122Y95000000D02*
G75*
G02*
X93396878Y95000000I-1603122J0D01*
G01*
X93396878Y95000000D02*
G75*
G02*
X96603122Y95000000I1603122J0D01*
G01*
M02*
