%TF.GenerationSoftware,KiCad,Pcbnew,8.0.3*%
%TF.CreationDate,2024-06-20T00:24:59-06:00*%
%TF.ProjectId,dc32,64633332-2e6b-4696-9361-645f70636258,1.0*%
%TF.SameCoordinates,PX7bb10a0PY836a940*%
%TF.FileFunction,AssemblyDrawing,Top*%
%FSLAX46Y46*%
G04 Gerber Fmt 4.6, Leading zero omitted, Abs format (unit mm)*
G04 Created by KiCad (PCBNEW 8.0.3) date 2024-06-20 00:24:59*
%MOMM*%
%LPD*%
G01*
G04 APERTURE LIST*
%ADD10C,0.150000*%
%ADD11C,0.060000*%
%ADD12C,0.080000*%
%ADD13C,0.090000*%
%ADD14C,0.110000*%
%ADD15C,0.100000*%
%ADD16C,0.127000*%
%ADD17C,0.200000*%
%ADD18C,0.120000*%
G04 APERTURE END LIST*
D10*
X7419047Y7168991D02*
X7085714Y7168991D01*
X7085714Y6645181D02*
X7085714Y7645181D01*
X7085714Y7645181D02*
X7561904Y7645181D01*
X7942857Y6645181D02*
X7942857Y7311848D01*
X7942857Y7645181D02*
X7895238Y7597562D01*
X7895238Y7597562D02*
X7942857Y7549943D01*
X7942857Y7549943D02*
X7990476Y7597562D01*
X7990476Y7597562D02*
X7942857Y7645181D01*
X7942857Y7645181D02*
X7942857Y7549943D01*
X8847618Y6645181D02*
X8847618Y7645181D01*
X8847618Y6692800D02*
X8752380Y6645181D01*
X8752380Y6645181D02*
X8561904Y6645181D01*
X8561904Y6645181D02*
X8466666Y6692800D01*
X8466666Y6692800D02*
X8419047Y6740420D01*
X8419047Y6740420D02*
X8371428Y6835658D01*
X8371428Y6835658D02*
X8371428Y7121372D01*
X8371428Y7121372D02*
X8419047Y7216610D01*
X8419047Y7216610D02*
X8466666Y7264229D01*
X8466666Y7264229D02*
X8561904Y7311848D01*
X8561904Y7311848D02*
X8752380Y7311848D01*
X8752380Y7311848D02*
X8847618Y7264229D01*
X9752380Y7311848D02*
X9752380Y6645181D01*
X9323809Y7311848D02*
X9323809Y6788039D01*
X9323809Y6788039D02*
X9371428Y6692800D01*
X9371428Y6692800D02*
X9466666Y6645181D01*
X9466666Y6645181D02*
X9609523Y6645181D01*
X9609523Y6645181D02*
X9704761Y6692800D01*
X9704761Y6692800D02*
X9752380Y6740420D01*
X10657142Y6692800D02*
X10561904Y6645181D01*
X10561904Y6645181D02*
X10371428Y6645181D01*
X10371428Y6645181D02*
X10276190Y6692800D01*
X10276190Y6692800D02*
X10228571Y6740420D01*
X10228571Y6740420D02*
X10180952Y6835658D01*
X10180952Y6835658D02*
X10180952Y7121372D01*
X10180952Y7121372D02*
X10228571Y7216610D01*
X10228571Y7216610D02*
X10276190Y7264229D01*
X10276190Y7264229D02*
X10371428Y7311848D01*
X10371428Y7311848D02*
X10561904Y7311848D01*
X10561904Y7311848D02*
X10657142Y7264229D01*
X11085714Y6645181D02*
X11085714Y7311848D01*
X11085714Y7645181D02*
X11038095Y7597562D01*
X11038095Y7597562D02*
X11085714Y7549943D01*
X11085714Y7549943D02*
X11133333Y7597562D01*
X11133333Y7597562D02*
X11085714Y7645181D01*
X11085714Y7645181D02*
X11085714Y7549943D01*
X11990475Y6645181D02*
X11990475Y7168991D01*
X11990475Y7168991D02*
X11942856Y7264229D01*
X11942856Y7264229D02*
X11847618Y7311848D01*
X11847618Y7311848D02*
X11657142Y7311848D01*
X11657142Y7311848D02*
X11561904Y7264229D01*
X11990475Y6692800D02*
X11895237Y6645181D01*
X11895237Y6645181D02*
X11657142Y6645181D01*
X11657142Y6645181D02*
X11561904Y6692800D01*
X11561904Y6692800D02*
X11514285Y6788039D01*
X11514285Y6788039D02*
X11514285Y6883277D01*
X11514285Y6883277D02*
X11561904Y6978515D01*
X11561904Y6978515D02*
X11657142Y7026134D01*
X11657142Y7026134D02*
X11895237Y7026134D01*
X11895237Y7026134D02*
X11990475Y7073753D01*
X12609523Y6645181D02*
X12514285Y6692800D01*
X12514285Y6692800D02*
X12466666Y6788039D01*
X12466666Y6788039D02*
X12466666Y7645181D01*
D11*
X9371429Y9127597D02*
X9238096Y9127597D01*
X9238096Y8918073D02*
X9238096Y9318073D01*
X9238096Y9318073D02*
X9428572Y9318073D01*
X9580953Y8918073D02*
X9580953Y9318073D01*
X9771429Y8918073D02*
X9771429Y9318073D01*
X9771429Y9318073D02*
X9866667Y9318073D01*
X9866667Y9318073D02*
X9923810Y9299025D01*
X9923810Y9299025D02*
X9961905Y9260930D01*
X9961905Y9260930D02*
X9980952Y9222835D01*
X9980952Y9222835D02*
X10000000Y9146644D01*
X10000000Y9146644D02*
X10000000Y9089501D01*
X10000000Y9089501D02*
X9980952Y9013311D01*
X9980952Y9013311D02*
X9961905Y8975216D01*
X9961905Y8975216D02*
X9923810Y8937120D01*
X9923810Y8937120D02*
X9866667Y8918073D01*
X9866667Y8918073D02*
X9771429Y8918073D01*
X10133333Y9318073D02*
X10380952Y9318073D01*
X10380952Y9318073D02*
X10247619Y9165692D01*
X10247619Y9165692D02*
X10304762Y9165692D01*
X10304762Y9165692D02*
X10342857Y9146644D01*
X10342857Y9146644D02*
X10361905Y9127597D01*
X10361905Y9127597D02*
X10380952Y9089501D01*
X10380952Y9089501D02*
X10380952Y8994263D01*
X10380952Y8994263D02*
X10361905Y8956168D01*
X10361905Y8956168D02*
X10342857Y8937120D01*
X10342857Y8937120D02*
X10304762Y8918073D01*
X10304762Y8918073D02*
X10190476Y8918073D01*
X10190476Y8918073D02*
X10152381Y8937120D01*
X10152381Y8937120D02*
X10133333Y8956168D01*
D10*
X100072619Y40707077D02*
X101072619Y40945172D01*
X101072619Y40945172D02*
X100358333Y41135648D01*
X100358333Y41135648D02*
X101072619Y41326124D01*
X101072619Y41326124D02*
X100072619Y41564219D01*
X101025000Y41897553D02*
X101072619Y42040410D01*
X101072619Y42040410D02*
X101072619Y42278505D01*
X101072619Y42278505D02*
X101025000Y42373743D01*
X101025000Y42373743D02*
X100977380Y42421362D01*
X100977380Y42421362D02*
X100882142Y42468981D01*
X100882142Y42468981D02*
X100786904Y42468981D01*
X100786904Y42468981D02*
X100691666Y42421362D01*
X100691666Y42421362D02*
X100644047Y42373743D01*
X100644047Y42373743D02*
X100596428Y42278505D01*
X100596428Y42278505D02*
X100548809Y42088029D01*
X100548809Y42088029D02*
X100501190Y41992791D01*
X100501190Y41992791D02*
X100453571Y41945172D01*
X100453571Y41945172D02*
X100358333Y41897553D01*
X100358333Y41897553D02*
X100263095Y41897553D01*
X100263095Y41897553D02*
X100167857Y41945172D01*
X100167857Y41945172D02*
X100120238Y41992791D01*
X100120238Y41992791D02*
X100072619Y42088029D01*
X100072619Y42088029D02*
X100072619Y42326124D01*
X100072619Y42326124D02*
X100120238Y42468981D01*
X100167857Y42849934D02*
X100120238Y42897553D01*
X100120238Y42897553D02*
X100072619Y42992791D01*
X100072619Y42992791D02*
X100072619Y43230886D01*
X100072619Y43230886D02*
X100120238Y43326124D01*
X100120238Y43326124D02*
X100167857Y43373743D01*
X100167857Y43373743D02*
X100263095Y43421362D01*
X100263095Y43421362D02*
X100358333Y43421362D01*
X100358333Y43421362D02*
X100501190Y43373743D01*
X100501190Y43373743D02*
X101072619Y42802315D01*
X101072619Y42802315D02*
X101072619Y43421362D01*
X100501190Y43992791D02*
X100453571Y43897553D01*
X100453571Y43897553D02*
X100405952Y43849934D01*
X100405952Y43849934D02*
X100310714Y43802315D01*
X100310714Y43802315D02*
X100263095Y43802315D01*
X100263095Y43802315D02*
X100167857Y43849934D01*
X100167857Y43849934D02*
X100120238Y43897553D01*
X100120238Y43897553D02*
X100072619Y43992791D01*
X100072619Y43992791D02*
X100072619Y44183267D01*
X100072619Y44183267D02*
X100120238Y44278505D01*
X100120238Y44278505D02*
X100167857Y44326124D01*
X100167857Y44326124D02*
X100263095Y44373743D01*
X100263095Y44373743D02*
X100310714Y44373743D01*
X100310714Y44373743D02*
X100405952Y44326124D01*
X100405952Y44326124D02*
X100453571Y44278505D01*
X100453571Y44278505D02*
X100501190Y44183267D01*
X100501190Y44183267D02*
X100501190Y43992791D01*
X100501190Y43992791D02*
X100548809Y43897553D01*
X100548809Y43897553D02*
X100596428Y43849934D01*
X100596428Y43849934D02*
X100691666Y43802315D01*
X100691666Y43802315D02*
X100882142Y43802315D01*
X100882142Y43802315D02*
X100977380Y43849934D01*
X100977380Y43849934D02*
X101025000Y43897553D01*
X101025000Y43897553D02*
X101072619Y43992791D01*
X101072619Y43992791D02*
X101072619Y44183267D01*
X101072619Y44183267D02*
X101025000Y44278505D01*
X101025000Y44278505D02*
X100977380Y44326124D01*
X100977380Y44326124D02*
X100882142Y44373743D01*
X100882142Y44373743D02*
X100691666Y44373743D01*
X100691666Y44373743D02*
X100596428Y44326124D01*
X100596428Y44326124D02*
X100548809Y44278505D01*
X100548809Y44278505D02*
X100501190Y44183267D01*
X101072619Y45326124D02*
X101072619Y44754696D01*
X101072619Y45040410D02*
X100072619Y45040410D01*
X100072619Y45040410D02*
X100215476Y44945172D01*
X100215476Y44945172D02*
X100310714Y44849934D01*
X100310714Y44849934D02*
X100358333Y44754696D01*
X100167857Y45707077D02*
X100120238Y45754696D01*
X100120238Y45754696D02*
X100072619Y45849934D01*
X100072619Y45849934D02*
X100072619Y46088029D01*
X100072619Y46088029D02*
X100120238Y46183267D01*
X100120238Y46183267D02*
X100167857Y46230886D01*
X100167857Y46230886D02*
X100263095Y46278505D01*
X100263095Y46278505D02*
X100358333Y46278505D01*
X100358333Y46278505D02*
X100501190Y46230886D01*
X100501190Y46230886D02*
X101072619Y45659458D01*
X101072619Y45659458D02*
X101072619Y46278505D01*
X100548809Y47040410D02*
X100596428Y47183267D01*
X100596428Y47183267D02*
X100644047Y47230886D01*
X100644047Y47230886D02*
X100739285Y47278505D01*
X100739285Y47278505D02*
X100882142Y47278505D01*
X100882142Y47278505D02*
X100977380Y47230886D01*
X100977380Y47230886D02*
X101025000Y47183267D01*
X101025000Y47183267D02*
X101072619Y47088029D01*
X101072619Y47088029D02*
X101072619Y46707077D01*
X101072619Y46707077D02*
X100072619Y46707077D01*
X100072619Y46707077D02*
X100072619Y47040410D01*
X100072619Y47040410D02*
X100120238Y47135648D01*
X100120238Y47135648D02*
X100167857Y47183267D01*
X100167857Y47183267D02*
X100263095Y47230886D01*
X100263095Y47230886D02*
X100358333Y47230886D01*
X100358333Y47230886D02*
X100453571Y47183267D01*
X100453571Y47183267D02*
X100501190Y47135648D01*
X100501190Y47135648D02*
X100548809Y47040410D01*
X100548809Y47040410D02*
X100548809Y46707077D01*
X14932143Y59655181D02*
X15027381Y59655181D01*
X15027381Y59655181D02*
X15122619Y59607562D01*
X15122619Y59607562D02*
X15170238Y59559943D01*
X15170238Y59559943D02*
X15217857Y59464705D01*
X15217857Y59464705D02*
X15265476Y59274229D01*
X15265476Y59274229D02*
X15265476Y59036134D01*
X15265476Y59036134D02*
X15217857Y58845658D01*
X15217857Y58845658D02*
X15170238Y58750420D01*
X15170238Y58750420D02*
X15122619Y58702800D01*
X15122619Y58702800D02*
X15027381Y58655181D01*
X15027381Y58655181D02*
X14932143Y58655181D01*
X14932143Y58655181D02*
X14836905Y58702800D01*
X14836905Y58702800D02*
X14789286Y58750420D01*
X14789286Y58750420D02*
X14741667Y58845658D01*
X14741667Y58845658D02*
X14694048Y59036134D01*
X14694048Y59036134D02*
X14694048Y59274229D01*
X14694048Y59274229D02*
X14741667Y59464705D01*
X14741667Y59464705D02*
X14789286Y59559943D01*
X14789286Y59559943D02*
X14836905Y59607562D01*
X14836905Y59607562D02*
X14932143Y59655181D01*
X15694048Y58750420D02*
X15741667Y58702800D01*
X15741667Y58702800D02*
X15694048Y58655181D01*
X15694048Y58655181D02*
X15646429Y58702800D01*
X15646429Y58702800D02*
X15694048Y58750420D01*
X15694048Y58750420D02*
X15694048Y58655181D01*
X16694047Y58655181D02*
X16122619Y58655181D01*
X16408333Y58655181D02*
X16408333Y59655181D01*
X16408333Y59655181D02*
X16313095Y59512324D01*
X16313095Y59512324D02*
X16217857Y59417086D01*
X16217857Y59417086D02*
X16122619Y59369467D01*
X17551190Y59321848D02*
X17551190Y58655181D01*
X17122619Y59321848D02*
X17122619Y58798039D01*
X17122619Y58798039D02*
X17170238Y58702800D01*
X17170238Y58702800D02*
X17265476Y58655181D01*
X17265476Y58655181D02*
X17408333Y58655181D01*
X17408333Y58655181D02*
X17503571Y58702800D01*
X17503571Y58702800D02*
X17551190Y58750420D01*
X18360714Y59178991D02*
X18027381Y59178991D01*
X18027381Y58655181D02*
X18027381Y59655181D01*
X18027381Y59655181D02*
X18503571Y59655181D01*
D11*
X16508333Y60396168D02*
X16489285Y60377120D01*
X16489285Y60377120D02*
X16432143Y60358073D01*
X16432143Y60358073D02*
X16394047Y60358073D01*
X16394047Y60358073D02*
X16336904Y60377120D01*
X16336904Y60377120D02*
X16298809Y60415216D01*
X16298809Y60415216D02*
X16279762Y60453311D01*
X16279762Y60453311D02*
X16260714Y60529501D01*
X16260714Y60529501D02*
X16260714Y60586644D01*
X16260714Y60586644D02*
X16279762Y60662835D01*
X16279762Y60662835D02*
X16298809Y60700930D01*
X16298809Y60700930D02*
X16336904Y60739025D01*
X16336904Y60739025D02*
X16394047Y60758073D01*
X16394047Y60758073D02*
X16432143Y60758073D01*
X16432143Y60758073D02*
X16489285Y60739025D01*
X16489285Y60739025D02*
X16508333Y60719978D01*
X16870238Y60758073D02*
X16679762Y60758073D01*
X16679762Y60758073D02*
X16660714Y60567597D01*
X16660714Y60567597D02*
X16679762Y60586644D01*
X16679762Y60586644D02*
X16717857Y60605692D01*
X16717857Y60605692D02*
X16813095Y60605692D01*
X16813095Y60605692D02*
X16851190Y60586644D01*
X16851190Y60586644D02*
X16870238Y60567597D01*
X16870238Y60567597D02*
X16889285Y60529501D01*
X16889285Y60529501D02*
X16889285Y60434263D01*
X16889285Y60434263D02*
X16870238Y60396168D01*
X16870238Y60396168D02*
X16851190Y60377120D01*
X16851190Y60377120D02*
X16813095Y60358073D01*
X16813095Y60358073D02*
X16717857Y60358073D01*
X16717857Y60358073D02*
X16679762Y60377120D01*
X16679762Y60377120D02*
X16660714Y60396168D01*
D10*
X76650595Y77507681D02*
X77222023Y77507681D01*
X76936309Y76507681D02*
X76936309Y77507681D01*
X77555357Y76507681D02*
X77555357Y77507681D01*
X77555357Y77507681D02*
X77936309Y77507681D01*
X77936309Y77507681D02*
X78031547Y77460062D01*
X78031547Y77460062D02*
X78079166Y77412443D01*
X78079166Y77412443D02*
X78126785Y77317205D01*
X78126785Y77317205D02*
X78126785Y77174348D01*
X78126785Y77174348D02*
X78079166Y77079110D01*
X78079166Y77079110D02*
X78031547Y77031491D01*
X78031547Y77031491D02*
X77936309Y76983872D01*
X77936309Y76983872D02*
X77555357Y76983872D01*
X78460119Y77507681D02*
X79079166Y77507681D01*
X79079166Y77507681D02*
X78745833Y77126729D01*
X78745833Y77126729D02*
X78888690Y77126729D01*
X78888690Y77126729D02*
X78983928Y77079110D01*
X78983928Y77079110D02*
X79031547Y77031491D01*
X79031547Y77031491D02*
X79079166Y76936253D01*
X79079166Y76936253D02*
X79079166Y76698158D01*
X79079166Y76698158D02*
X79031547Y76602920D01*
X79031547Y76602920D02*
X78983928Y76555300D01*
X78983928Y76555300D02*
X78888690Y76507681D01*
X78888690Y76507681D02*
X78602976Y76507681D01*
X78602976Y76507681D02*
X78507738Y76555300D01*
X78507738Y76555300D02*
X78460119Y76602920D01*
X100072619Y67987077D02*
X101072619Y68225172D01*
X101072619Y68225172D02*
X100358333Y68415648D01*
X100358333Y68415648D02*
X101072619Y68606124D01*
X101072619Y68606124D02*
X100072619Y68844219D01*
X101025000Y69177553D02*
X101072619Y69320410D01*
X101072619Y69320410D02*
X101072619Y69558505D01*
X101072619Y69558505D02*
X101025000Y69653743D01*
X101025000Y69653743D02*
X100977380Y69701362D01*
X100977380Y69701362D02*
X100882142Y69748981D01*
X100882142Y69748981D02*
X100786904Y69748981D01*
X100786904Y69748981D02*
X100691666Y69701362D01*
X100691666Y69701362D02*
X100644047Y69653743D01*
X100644047Y69653743D02*
X100596428Y69558505D01*
X100596428Y69558505D02*
X100548809Y69368029D01*
X100548809Y69368029D02*
X100501190Y69272791D01*
X100501190Y69272791D02*
X100453571Y69225172D01*
X100453571Y69225172D02*
X100358333Y69177553D01*
X100358333Y69177553D02*
X100263095Y69177553D01*
X100263095Y69177553D02*
X100167857Y69225172D01*
X100167857Y69225172D02*
X100120238Y69272791D01*
X100120238Y69272791D02*
X100072619Y69368029D01*
X100072619Y69368029D02*
X100072619Y69606124D01*
X100072619Y69606124D02*
X100120238Y69748981D01*
X100167857Y70129934D02*
X100120238Y70177553D01*
X100120238Y70177553D02*
X100072619Y70272791D01*
X100072619Y70272791D02*
X100072619Y70510886D01*
X100072619Y70510886D02*
X100120238Y70606124D01*
X100120238Y70606124D02*
X100167857Y70653743D01*
X100167857Y70653743D02*
X100263095Y70701362D01*
X100263095Y70701362D02*
X100358333Y70701362D01*
X100358333Y70701362D02*
X100501190Y70653743D01*
X100501190Y70653743D02*
X101072619Y70082315D01*
X101072619Y70082315D02*
X101072619Y70701362D01*
X100501190Y71272791D02*
X100453571Y71177553D01*
X100453571Y71177553D02*
X100405952Y71129934D01*
X100405952Y71129934D02*
X100310714Y71082315D01*
X100310714Y71082315D02*
X100263095Y71082315D01*
X100263095Y71082315D02*
X100167857Y71129934D01*
X100167857Y71129934D02*
X100120238Y71177553D01*
X100120238Y71177553D02*
X100072619Y71272791D01*
X100072619Y71272791D02*
X100072619Y71463267D01*
X100072619Y71463267D02*
X100120238Y71558505D01*
X100120238Y71558505D02*
X100167857Y71606124D01*
X100167857Y71606124D02*
X100263095Y71653743D01*
X100263095Y71653743D02*
X100310714Y71653743D01*
X100310714Y71653743D02*
X100405952Y71606124D01*
X100405952Y71606124D02*
X100453571Y71558505D01*
X100453571Y71558505D02*
X100501190Y71463267D01*
X100501190Y71463267D02*
X100501190Y71272791D01*
X100501190Y71272791D02*
X100548809Y71177553D01*
X100548809Y71177553D02*
X100596428Y71129934D01*
X100596428Y71129934D02*
X100691666Y71082315D01*
X100691666Y71082315D02*
X100882142Y71082315D01*
X100882142Y71082315D02*
X100977380Y71129934D01*
X100977380Y71129934D02*
X101025000Y71177553D01*
X101025000Y71177553D02*
X101072619Y71272791D01*
X101072619Y71272791D02*
X101072619Y71463267D01*
X101072619Y71463267D02*
X101025000Y71558505D01*
X101025000Y71558505D02*
X100977380Y71606124D01*
X100977380Y71606124D02*
X100882142Y71653743D01*
X100882142Y71653743D02*
X100691666Y71653743D01*
X100691666Y71653743D02*
X100596428Y71606124D01*
X100596428Y71606124D02*
X100548809Y71558505D01*
X100548809Y71558505D02*
X100501190Y71463267D01*
X101072619Y72606124D02*
X101072619Y72034696D01*
X101072619Y72320410D02*
X100072619Y72320410D01*
X100072619Y72320410D02*
X100215476Y72225172D01*
X100215476Y72225172D02*
X100310714Y72129934D01*
X100310714Y72129934D02*
X100358333Y72034696D01*
X100167857Y72987077D02*
X100120238Y73034696D01*
X100120238Y73034696D02*
X100072619Y73129934D01*
X100072619Y73129934D02*
X100072619Y73368029D01*
X100072619Y73368029D02*
X100120238Y73463267D01*
X100120238Y73463267D02*
X100167857Y73510886D01*
X100167857Y73510886D02*
X100263095Y73558505D01*
X100263095Y73558505D02*
X100358333Y73558505D01*
X100358333Y73558505D02*
X100501190Y73510886D01*
X100501190Y73510886D02*
X101072619Y72939458D01*
X101072619Y72939458D02*
X101072619Y73558505D01*
X100548809Y74320410D02*
X100596428Y74463267D01*
X100596428Y74463267D02*
X100644047Y74510886D01*
X100644047Y74510886D02*
X100739285Y74558505D01*
X100739285Y74558505D02*
X100882142Y74558505D01*
X100882142Y74558505D02*
X100977380Y74510886D01*
X100977380Y74510886D02*
X101025000Y74463267D01*
X101025000Y74463267D02*
X101072619Y74368029D01*
X101072619Y74368029D02*
X101072619Y73987077D01*
X101072619Y73987077D02*
X100072619Y73987077D01*
X100072619Y73987077D02*
X100072619Y74320410D01*
X100072619Y74320410D02*
X100120238Y74415648D01*
X100120238Y74415648D02*
X100167857Y74463267D01*
X100167857Y74463267D02*
X100263095Y74510886D01*
X100263095Y74510886D02*
X100358333Y74510886D01*
X100358333Y74510886D02*
X100453571Y74463267D01*
X100453571Y74463267D02*
X100501190Y74415648D01*
X100501190Y74415648D02*
X100548809Y74320410D01*
X100548809Y74320410D02*
X100548809Y73987077D01*
X63690475Y93745181D02*
X63690475Y94745181D01*
X63690475Y94745181D02*
X63928570Y94745181D01*
X63928570Y94745181D02*
X64071427Y94697562D01*
X64071427Y94697562D02*
X64166665Y94602324D01*
X64166665Y94602324D02*
X64214284Y94507086D01*
X64214284Y94507086D02*
X64261903Y94316610D01*
X64261903Y94316610D02*
X64261903Y94173753D01*
X64261903Y94173753D02*
X64214284Y93983277D01*
X64214284Y93983277D02*
X64166665Y93888039D01*
X64166665Y93888039D02*
X64071427Y93792800D01*
X64071427Y93792800D02*
X63928570Y93745181D01*
X63928570Y93745181D02*
X63690475Y93745181D01*
X64452380Y93649943D02*
X65214284Y93649943D01*
X65404761Y93792800D02*
X65547618Y93745181D01*
X65547618Y93745181D02*
X65785713Y93745181D01*
X65785713Y93745181D02*
X65880951Y93792800D01*
X65880951Y93792800D02*
X65928570Y93840420D01*
X65928570Y93840420D02*
X65976189Y93935658D01*
X65976189Y93935658D02*
X65976189Y94030896D01*
X65976189Y94030896D02*
X65928570Y94126134D01*
X65928570Y94126134D02*
X65880951Y94173753D01*
X65880951Y94173753D02*
X65785713Y94221372D01*
X65785713Y94221372D02*
X65595237Y94268991D01*
X65595237Y94268991D02*
X65499999Y94316610D01*
X65499999Y94316610D02*
X65452380Y94364229D01*
X65452380Y94364229D02*
X65404761Y94459467D01*
X65404761Y94459467D02*
X65404761Y94554705D01*
X65404761Y94554705D02*
X65452380Y94649943D01*
X65452380Y94649943D02*
X65499999Y94697562D01*
X65499999Y94697562D02*
X65595237Y94745181D01*
X65595237Y94745181D02*
X65833332Y94745181D01*
X65833332Y94745181D02*
X65976189Y94697562D01*
X66833332Y93792800D02*
X66738094Y93745181D01*
X66738094Y93745181D02*
X66547618Y93745181D01*
X66547618Y93745181D02*
X66452380Y93792800D01*
X66452380Y93792800D02*
X66404761Y93840420D01*
X66404761Y93840420D02*
X66357142Y93935658D01*
X66357142Y93935658D02*
X66357142Y94221372D01*
X66357142Y94221372D02*
X66404761Y94316610D01*
X66404761Y94316610D02*
X66452380Y94364229D01*
X66452380Y94364229D02*
X66547618Y94411848D01*
X66547618Y94411848D02*
X66738094Y94411848D01*
X66738094Y94411848D02*
X66833332Y94364229D01*
X67261904Y93745181D02*
X67261904Y94745181D01*
X67690475Y93745181D02*
X67690475Y94268991D01*
X67690475Y94268991D02*
X67642856Y94364229D01*
X67642856Y94364229D02*
X67547618Y94411848D01*
X67547618Y94411848D02*
X67404761Y94411848D01*
X67404761Y94411848D02*
X67309523Y94364229D01*
X67309523Y94364229D02*
X67261904Y94316610D01*
X68309523Y93745181D02*
X68214285Y93792800D01*
X68214285Y93792800D02*
X68166666Y93840420D01*
X68166666Y93840420D02*
X68119047Y93935658D01*
X68119047Y93935658D02*
X68119047Y94221372D01*
X68119047Y94221372D02*
X68166666Y94316610D01*
X68166666Y94316610D02*
X68214285Y94364229D01*
X68214285Y94364229D02*
X68309523Y94411848D01*
X68309523Y94411848D02*
X68452380Y94411848D01*
X68452380Y94411848D02*
X68547618Y94364229D01*
X68547618Y94364229D02*
X68595237Y94316610D01*
X68595237Y94316610D02*
X68642856Y94221372D01*
X68642856Y94221372D02*
X68642856Y93935658D01*
X68642856Y93935658D02*
X68595237Y93840420D01*
X68595237Y93840420D02*
X68547618Y93792800D01*
X68547618Y93792800D02*
X68452380Y93745181D01*
X68452380Y93745181D02*
X68309523Y93745181D01*
X68928571Y94411848D02*
X69309523Y94411848D01*
X69071428Y94745181D02*
X69071428Y93888039D01*
X69071428Y93888039D02*
X69119047Y93792800D01*
X69119047Y93792800D02*
X69214285Y93745181D01*
X69214285Y93745181D02*
X69309523Y93745181D01*
X69500000Y94411848D02*
X69880952Y94411848D01*
X69642857Y94745181D02*
X69642857Y93888039D01*
X69642857Y93888039D02*
X69690476Y93792800D01*
X69690476Y93792800D02*
X69785714Y93745181D01*
X69785714Y93745181D02*
X69880952Y93745181D01*
X70214286Y93745181D02*
X70214286Y94745181D01*
X70309524Y94126134D02*
X70595238Y93745181D01*
X70595238Y94411848D02*
X70214286Y94030896D01*
X70928572Y94411848D02*
X71166667Y93745181D01*
X71404762Y94411848D02*
X71166667Y93745181D01*
X71166667Y93745181D02*
X71071429Y93507086D01*
X71071429Y93507086D02*
X71023810Y93459467D01*
X71023810Y93459467D02*
X70928572Y93411848D01*
X66285714Y96445181D02*
X66285714Y97445181D01*
X66285714Y97445181D02*
X66523809Y97445181D01*
X66523809Y97445181D02*
X66666666Y97397562D01*
X66666666Y97397562D02*
X66761904Y97302324D01*
X66761904Y97302324D02*
X66809523Y97207086D01*
X66809523Y97207086D02*
X66857142Y97016610D01*
X66857142Y97016610D02*
X66857142Y96873753D01*
X66857142Y96873753D02*
X66809523Y96683277D01*
X66809523Y96683277D02*
X66761904Y96588039D01*
X66761904Y96588039D02*
X66666666Y96492800D01*
X66666666Y96492800D02*
X66523809Y96445181D01*
X66523809Y96445181D02*
X66285714Y96445181D01*
X67809523Y96445181D02*
X67238095Y96445181D01*
X67523809Y96445181D02*
X67523809Y97445181D01*
X67523809Y97445181D02*
X67428571Y97302324D01*
X67428571Y97302324D02*
X67333333Y97207086D01*
X67333333Y97207086D02*
X67238095Y97159467D01*
X68285714Y96445181D02*
X68476190Y96445181D01*
X68476190Y96445181D02*
X68571428Y96492800D01*
X68571428Y96492800D02*
X68619047Y96540420D01*
X68619047Y96540420D02*
X68714285Y96683277D01*
X68714285Y96683277D02*
X68761904Y96873753D01*
X68761904Y96873753D02*
X68761904Y97254705D01*
X68761904Y97254705D02*
X68714285Y97349943D01*
X68714285Y97349943D02*
X68666666Y97397562D01*
X68666666Y97397562D02*
X68571428Y97445181D01*
X68571428Y97445181D02*
X68380952Y97445181D01*
X68380952Y97445181D02*
X68285714Y97397562D01*
X68285714Y97397562D02*
X68238095Y97349943D01*
X68238095Y97349943D02*
X68190476Y97254705D01*
X68190476Y97254705D02*
X68190476Y97016610D01*
X68190476Y97016610D02*
X68238095Y96921372D01*
X68238095Y96921372D02*
X68285714Y96873753D01*
X68285714Y96873753D02*
X68380952Y96826134D01*
X68380952Y96826134D02*
X68571428Y96826134D01*
X68571428Y96826134D02*
X68666666Y96873753D01*
X68666666Y96873753D02*
X68714285Y96921372D01*
X68714285Y96921372D02*
X68761904Y97016610D01*
X81557143Y85129943D02*
X81604762Y85177562D01*
X81604762Y85177562D02*
X81700000Y85225181D01*
X81700000Y85225181D02*
X81938095Y85225181D01*
X81938095Y85225181D02*
X82033333Y85177562D01*
X82033333Y85177562D02*
X82080952Y85129943D01*
X82080952Y85129943D02*
X82128571Y85034705D01*
X82128571Y85034705D02*
X82128571Y84939467D01*
X82128571Y84939467D02*
X82080952Y84796610D01*
X82080952Y84796610D02*
X81509524Y84225181D01*
X81509524Y84225181D02*
X82128571Y84225181D01*
X82509524Y85129943D02*
X82557143Y85177562D01*
X82557143Y85177562D02*
X82652381Y85225181D01*
X82652381Y85225181D02*
X82890476Y85225181D01*
X82890476Y85225181D02*
X82985714Y85177562D01*
X82985714Y85177562D02*
X83033333Y85129943D01*
X83033333Y85129943D02*
X83080952Y85034705D01*
X83080952Y85034705D02*
X83080952Y84939467D01*
X83080952Y84939467D02*
X83033333Y84796610D01*
X83033333Y84796610D02*
X82461905Y84225181D01*
X82461905Y84225181D02*
X83080952Y84225181D01*
X83938095Y84891848D02*
X83938095Y84225181D01*
X83509524Y84891848D02*
X83509524Y84368039D01*
X83509524Y84368039D02*
X83557143Y84272800D01*
X83557143Y84272800D02*
X83652381Y84225181D01*
X83652381Y84225181D02*
X83795238Y84225181D01*
X83795238Y84225181D02*
X83890476Y84272800D01*
X83890476Y84272800D02*
X83938095Y84320420D01*
X84747619Y84748991D02*
X84414286Y84748991D01*
X84414286Y84225181D02*
X84414286Y85225181D01*
X84414286Y85225181D02*
X84890476Y85225181D01*
D12*
X83116666Y82820470D02*
X83092857Y82796660D01*
X83092857Y82796660D02*
X83021428Y82772851D01*
X83021428Y82772851D02*
X82973809Y82772851D01*
X82973809Y82772851D02*
X82902381Y82796660D01*
X82902381Y82796660D02*
X82854762Y82844280D01*
X82854762Y82844280D02*
X82830952Y82891899D01*
X82830952Y82891899D02*
X82807143Y82987137D01*
X82807143Y82987137D02*
X82807143Y83058565D01*
X82807143Y83058565D02*
X82830952Y83153803D01*
X82830952Y83153803D02*
X82854762Y83201422D01*
X82854762Y83201422D02*
X82902381Y83249041D01*
X82902381Y83249041D02*
X82973809Y83272851D01*
X82973809Y83272851D02*
X83021428Y83272851D01*
X83021428Y83272851D02*
X83092857Y83249041D01*
X83092857Y83249041D02*
X83116666Y83225232D01*
X83592857Y82772851D02*
X83307143Y82772851D01*
X83450000Y82772851D02*
X83450000Y83272851D01*
X83450000Y83272851D02*
X83402381Y83201422D01*
X83402381Y83201422D02*
X83354762Y83153803D01*
X83354762Y83153803D02*
X83307143Y83129994D01*
D10*
X100072619Y54347077D02*
X101072619Y54585172D01*
X101072619Y54585172D02*
X100358333Y54775648D01*
X100358333Y54775648D02*
X101072619Y54966124D01*
X101072619Y54966124D02*
X100072619Y55204219D01*
X101025000Y55537553D02*
X101072619Y55680410D01*
X101072619Y55680410D02*
X101072619Y55918505D01*
X101072619Y55918505D02*
X101025000Y56013743D01*
X101025000Y56013743D02*
X100977380Y56061362D01*
X100977380Y56061362D02*
X100882142Y56108981D01*
X100882142Y56108981D02*
X100786904Y56108981D01*
X100786904Y56108981D02*
X100691666Y56061362D01*
X100691666Y56061362D02*
X100644047Y56013743D01*
X100644047Y56013743D02*
X100596428Y55918505D01*
X100596428Y55918505D02*
X100548809Y55728029D01*
X100548809Y55728029D02*
X100501190Y55632791D01*
X100501190Y55632791D02*
X100453571Y55585172D01*
X100453571Y55585172D02*
X100358333Y55537553D01*
X100358333Y55537553D02*
X100263095Y55537553D01*
X100263095Y55537553D02*
X100167857Y55585172D01*
X100167857Y55585172D02*
X100120238Y55632791D01*
X100120238Y55632791D02*
X100072619Y55728029D01*
X100072619Y55728029D02*
X100072619Y55966124D01*
X100072619Y55966124D02*
X100120238Y56108981D01*
X100167857Y56489934D02*
X100120238Y56537553D01*
X100120238Y56537553D02*
X100072619Y56632791D01*
X100072619Y56632791D02*
X100072619Y56870886D01*
X100072619Y56870886D02*
X100120238Y56966124D01*
X100120238Y56966124D02*
X100167857Y57013743D01*
X100167857Y57013743D02*
X100263095Y57061362D01*
X100263095Y57061362D02*
X100358333Y57061362D01*
X100358333Y57061362D02*
X100501190Y57013743D01*
X100501190Y57013743D02*
X101072619Y56442315D01*
X101072619Y56442315D02*
X101072619Y57061362D01*
X100501190Y57632791D02*
X100453571Y57537553D01*
X100453571Y57537553D02*
X100405952Y57489934D01*
X100405952Y57489934D02*
X100310714Y57442315D01*
X100310714Y57442315D02*
X100263095Y57442315D01*
X100263095Y57442315D02*
X100167857Y57489934D01*
X100167857Y57489934D02*
X100120238Y57537553D01*
X100120238Y57537553D02*
X100072619Y57632791D01*
X100072619Y57632791D02*
X100072619Y57823267D01*
X100072619Y57823267D02*
X100120238Y57918505D01*
X100120238Y57918505D02*
X100167857Y57966124D01*
X100167857Y57966124D02*
X100263095Y58013743D01*
X100263095Y58013743D02*
X100310714Y58013743D01*
X100310714Y58013743D02*
X100405952Y57966124D01*
X100405952Y57966124D02*
X100453571Y57918505D01*
X100453571Y57918505D02*
X100501190Y57823267D01*
X100501190Y57823267D02*
X100501190Y57632791D01*
X100501190Y57632791D02*
X100548809Y57537553D01*
X100548809Y57537553D02*
X100596428Y57489934D01*
X100596428Y57489934D02*
X100691666Y57442315D01*
X100691666Y57442315D02*
X100882142Y57442315D01*
X100882142Y57442315D02*
X100977380Y57489934D01*
X100977380Y57489934D02*
X101025000Y57537553D01*
X101025000Y57537553D02*
X101072619Y57632791D01*
X101072619Y57632791D02*
X101072619Y57823267D01*
X101072619Y57823267D02*
X101025000Y57918505D01*
X101025000Y57918505D02*
X100977380Y57966124D01*
X100977380Y57966124D02*
X100882142Y58013743D01*
X100882142Y58013743D02*
X100691666Y58013743D01*
X100691666Y58013743D02*
X100596428Y57966124D01*
X100596428Y57966124D02*
X100548809Y57918505D01*
X100548809Y57918505D02*
X100501190Y57823267D01*
X101072619Y58966124D02*
X101072619Y58394696D01*
X101072619Y58680410D02*
X100072619Y58680410D01*
X100072619Y58680410D02*
X100215476Y58585172D01*
X100215476Y58585172D02*
X100310714Y58489934D01*
X100310714Y58489934D02*
X100358333Y58394696D01*
X100167857Y59347077D02*
X100120238Y59394696D01*
X100120238Y59394696D02*
X100072619Y59489934D01*
X100072619Y59489934D02*
X100072619Y59728029D01*
X100072619Y59728029D02*
X100120238Y59823267D01*
X100120238Y59823267D02*
X100167857Y59870886D01*
X100167857Y59870886D02*
X100263095Y59918505D01*
X100263095Y59918505D02*
X100358333Y59918505D01*
X100358333Y59918505D02*
X100501190Y59870886D01*
X100501190Y59870886D02*
X101072619Y59299458D01*
X101072619Y59299458D02*
X101072619Y59918505D01*
X100548809Y60680410D02*
X100596428Y60823267D01*
X100596428Y60823267D02*
X100644047Y60870886D01*
X100644047Y60870886D02*
X100739285Y60918505D01*
X100739285Y60918505D02*
X100882142Y60918505D01*
X100882142Y60918505D02*
X100977380Y60870886D01*
X100977380Y60870886D02*
X101025000Y60823267D01*
X101025000Y60823267D02*
X101072619Y60728029D01*
X101072619Y60728029D02*
X101072619Y60347077D01*
X101072619Y60347077D02*
X100072619Y60347077D01*
X100072619Y60347077D02*
X100072619Y60680410D01*
X100072619Y60680410D02*
X100120238Y60775648D01*
X100120238Y60775648D02*
X100167857Y60823267D01*
X100167857Y60823267D02*
X100263095Y60870886D01*
X100263095Y60870886D02*
X100358333Y60870886D01*
X100358333Y60870886D02*
X100453571Y60823267D01*
X100453571Y60823267D02*
X100501190Y60775648D01*
X100501190Y60775648D02*
X100548809Y60680410D01*
X100548809Y60680410D02*
X100548809Y60347077D01*
X100072619Y81627077D02*
X101072619Y81865172D01*
X101072619Y81865172D02*
X100358333Y82055648D01*
X100358333Y82055648D02*
X101072619Y82246124D01*
X101072619Y82246124D02*
X100072619Y82484219D01*
X101025000Y82817553D02*
X101072619Y82960410D01*
X101072619Y82960410D02*
X101072619Y83198505D01*
X101072619Y83198505D02*
X101025000Y83293743D01*
X101025000Y83293743D02*
X100977380Y83341362D01*
X100977380Y83341362D02*
X100882142Y83388981D01*
X100882142Y83388981D02*
X100786904Y83388981D01*
X100786904Y83388981D02*
X100691666Y83341362D01*
X100691666Y83341362D02*
X100644047Y83293743D01*
X100644047Y83293743D02*
X100596428Y83198505D01*
X100596428Y83198505D02*
X100548809Y83008029D01*
X100548809Y83008029D02*
X100501190Y82912791D01*
X100501190Y82912791D02*
X100453571Y82865172D01*
X100453571Y82865172D02*
X100358333Y82817553D01*
X100358333Y82817553D02*
X100263095Y82817553D01*
X100263095Y82817553D02*
X100167857Y82865172D01*
X100167857Y82865172D02*
X100120238Y82912791D01*
X100120238Y82912791D02*
X100072619Y83008029D01*
X100072619Y83008029D02*
X100072619Y83246124D01*
X100072619Y83246124D02*
X100120238Y83388981D01*
X100167857Y83769934D02*
X100120238Y83817553D01*
X100120238Y83817553D02*
X100072619Y83912791D01*
X100072619Y83912791D02*
X100072619Y84150886D01*
X100072619Y84150886D02*
X100120238Y84246124D01*
X100120238Y84246124D02*
X100167857Y84293743D01*
X100167857Y84293743D02*
X100263095Y84341362D01*
X100263095Y84341362D02*
X100358333Y84341362D01*
X100358333Y84341362D02*
X100501190Y84293743D01*
X100501190Y84293743D02*
X101072619Y83722315D01*
X101072619Y83722315D02*
X101072619Y84341362D01*
X100501190Y84912791D02*
X100453571Y84817553D01*
X100453571Y84817553D02*
X100405952Y84769934D01*
X100405952Y84769934D02*
X100310714Y84722315D01*
X100310714Y84722315D02*
X100263095Y84722315D01*
X100263095Y84722315D02*
X100167857Y84769934D01*
X100167857Y84769934D02*
X100120238Y84817553D01*
X100120238Y84817553D02*
X100072619Y84912791D01*
X100072619Y84912791D02*
X100072619Y85103267D01*
X100072619Y85103267D02*
X100120238Y85198505D01*
X100120238Y85198505D02*
X100167857Y85246124D01*
X100167857Y85246124D02*
X100263095Y85293743D01*
X100263095Y85293743D02*
X100310714Y85293743D01*
X100310714Y85293743D02*
X100405952Y85246124D01*
X100405952Y85246124D02*
X100453571Y85198505D01*
X100453571Y85198505D02*
X100501190Y85103267D01*
X100501190Y85103267D02*
X100501190Y84912791D01*
X100501190Y84912791D02*
X100548809Y84817553D01*
X100548809Y84817553D02*
X100596428Y84769934D01*
X100596428Y84769934D02*
X100691666Y84722315D01*
X100691666Y84722315D02*
X100882142Y84722315D01*
X100882142Y84722315D02*
X100977380Y84769934D01*
X100977380Y84769934D02*
X101025000Y84817553D01*
X101025000Y84817553D02*
X101072619Y84912791D01*
X101072619Y84912791D02*
X101072619Y85103267D01*
X101072619Y85103267D02*
X101025000Y85198505D01*
X101025000Y85198505D02*
X100977380Y85246124D01*
X100977380Y85246124D02*
X100882142Y85293743D01*
X100882142Y85293743D02*
X100691666Y85293743D01*
X100691666Y85293743D02*
X100596428Y85246124D01*
X100596428Y85246124D02*
X100548809Y85198505D01*
X100548809Y85198505D02*
X100501190Y85103267D01*
X101072619Y86246124D02*
X101072619Y85674696D01*
X101072619Y85960410D02*
X100072619Y85960410D01*
X100072619Y85960410D02*
X100215476Y85865172D01*
X100215476Y85865172D02*
X100310714Y85769934D01*
X100310714Y85769934D02*
X100358333Y85674696D01*
X100167857Y86627077D02*
X100120238Y86674696D01*
X100120238Y86674696D02*
X100072619Y86769934D01*
X100072619Y86769934D02*
X100072619Y87008029D01*
X100072619Y87008029D02*
X100120238Y87103267D01*
X100120238Y87103267D02*
X100167857Y87150886D01*
X100167857Y87150886D02*
X100263095Y87198505D01*
X100263095Y87198505D02*
X100358333Y87198505D01*
X100358333Y87198505D02*
X100501190Y87150886D01*
X100501190Y87150886D02*
X101072619Y86579458D01*
X101072619Y86579458D02*
X101072619Y87198505D01*
X100548809Y87960410D02*
X100596428Y88103267D01*
X100596428Y88103267D02*
X100644047Y88150886D01*
X100644047Y88150886D02*
X100739285Y88198505D01*
X100739285Y88198505D02*
X100882142Y88198505D01*
X100882142Y88198505D02*
X100977380Y88150886D01*
X100977380Y88150886D02*
X101025000Y88103267D01*
X101025000Y88103267D02*
X101072619Y88008029D01*
X101072619Y88008029D02*
X101072619Y87627077D01*
X101072619Y87627077D02*
X100072619Y87627077D01*
X100072619Y87627077D02*
X100072619Y87960410D01*
X100072619Y87960410D02*
X100120238Y88055648D01*
X100120238Y88055648D02*
X100167857Y88103267D01*
X100167857Y88103267D02*
X100263095Y88150886D01*
X100263095Y88150886D02*
X100358333Y88150886D01*
X100358333Y88150886D02*
X100453571Y88103267D01*
X100453571Y88103267D02*
X100501190Y88055648D01*
X100501190Y88055648D02*
X100548809Y87960410D01*
X100548809Y87960410D02*
X100548809Y87627077D01*
X13602076Y27381D02*
X13840171Y-972619D01*
X13840171Y-972619D02*
X14030647Y-258333D01*
X14030647Y-258333D02*
X14221123Y-972619D01*
X14221123Y-972619D02*
X14459219Y27381D01*
X14792552Y-925000D02*
X14935409Y-972619D01*
X14935409Y-972619D02*
X15173504Y-972619D01*
X15173504Y-972619D02*
X15268742Y-925000D01*
X15268742Y-925000D02*
X15316361Y-877380D01*
X15316361Y-877380D02*
X15363980Y-782142D01*
X15363980Y-782142D02*
X15363980Y-686904D01*
X15363980Y-686904D02*
X15316361Y-591666D01*
X15316361Y-591666D02*
X15268742Y-544047D01*
X15268742Y-544047D02*
X15173504Y-496428D01*
X15173504Y-496428D02*
X14983028Y-448809D01*
X14983028Y-448809D02*
X14887790Y-401190D01*
X14887790Y-401190D02*
X14840171Y-353571D01*
X14840171Y-353571D02*
X14792552Y-258333D01*
X14792552Y-258333D02*
X14792552Y-163095D01*
X14792552Y-163095D02*
X14840171Y-67857D01*
X14840171Y-67857D02*
X14887790Y-20238D01*
X14887790Y-20238D02*
X14983028Y27381D01*
X14983028Y27381D02*
X15221123Y27381D01*
X15221123Y27381D02*
X15363980Y-20238D01*
X15744933Y-67857D02*
X15792552Y-20238D01*
X15792552Y-20238D02*
X15887790Y27381D01*
X15887790Y27381D02*
X16125885Y27381D01*
X16125885Y27381D02*
X16221123Y-20238D01*
X16221123Y-20238D02*
X16268742Y-67857D01*
X16268742Y-67857D02*
X16316361Y-163095D01*
X16316361Y-163095D02*
X16316361Y-258333D01*
X16316361Y-258333D02*
X16268742Y-401190D01*
X16268742Y-401190D02*
X15697314Y-972619D01*
X15697314Y-972619D02*
X16316361Y-972619D01*
X16887790Y-401190D02*
X16792552Y-353571D01*
X16792552Y-353571D02*
X16744933Y-305952D01*
X16744933Y-305952D02*
X16697314Y-210714D01*
X16697314Y-210714D02*
X16697314Y-163095D01*
X16697314Y-163095D02*
X16744933Y-67857D01*
X16744933Y-67857D02*
X16792552Y-20238D01*
X16792552Y-20238D02*
X16887790Y27381D01*
X16887790Y27381D02*
X17078266Y27381D01*
X17078266Y27381D02*
X17173504Y-20238D01*
X17173504Y-20238D02*
X17221123Y-67857D01*
X17221123Y-67857D02*
X17268742Y-163095D01*
X17268742Y-163095D02*
X17268742Y-210714D01*
X17268742Y-210714D02*
X17221123Y-305952D01*
X17221123Y-305952D02*
X17173504Y-353571D01*
X17173504Y-353571D02*
X17078266Y-401190D01*
X17078266Y-401190D02*
X16887790Y-401190D01*
X16887790Y-401190D02*
X16792552Y-448809D01*
X16792552Y-448809D02*
X16744933Y-496428D01*
X16744933Y-496428D02*
X16697314Y-591666D01*
X16697314Y-591666D02*
X16697314Y-782142D01*
X16697314Y-782142D02*
X16744933Y-877380D01*
X16744933Y-877380D02*
X16792552Y-925000D01*
X16792552Y-925000D02*
X16887790Y-972619D01*
X16887790Y-972619D02*
X17078266Y-972619D01*
X17078266Y-972619D02*
X17173504Y-925000D01*
X17173504Y-925000D02*
X17221123Y-877380D01*
X17221123Y-877380D02*
X17268742Y-782142D01*
X17268742Y-782142D02*
X17268742Y-591666D01*
X17268742Y-591666D02*
X17221123Y-496428D01*
X17221123Y-496428D02*
X17173504Y-448809D01*
X17173504Y-448809D02*
X17078266Y-401190D01*
X18221123Y-972619D02*
X17649695Y-972619D01*
X17935409Y-972619D02*
X17935409Y27381D01*
X17935409Y27381D02*
X17840171Y-115476D01*
X17840171Y-115476D02*
X17744933Y-210714D01*
X17744933Y-210714D02*
X17649695Y-258333D01*
X18602076Y-67857D02*
X18649695Y-20238D01*
X18649695Y-20238D02*
X18744933Y27381D01*
X18744933Y27381D02*
X18983028Y27381D01*
X18983028Y27381D02*
X19078266Y-20238D01*
X19078266Y-20238D02*
X19125885Y-67857D01*
X19125885Y-67857D02*
X19173504Y-163095D01*
X19173504Y-163095D02*
X19173504Y-258333D01*
X19173504Y-258333D02*
X19125885Y-401190D01*
X19125885Y-401190D02*
X18554457Y-972619D01*
X18554457Y-972619D02*
X19173504Y-972619D01*
X19935409Y-448809D02*
X20078266Y-496428D01*
X20078266Y-496428D02*
X20125885Y-544047D01*
X20125885Y-544047D02*
X20173504Y-639285D01*
X20173504Y-639285D02*
X20173504Y-782142D01*
X20173504Y-782142D02*
X20125885Y-877380D01*
X20125885Y-877380D02*
X20078266Y-925000D01*
X20078266Y-925000D02*
X19983028Y-972619D01*
X19983028Y-972619D02*
X19602076Y-972619D01*
X19602076Y-972619D02*
X19602076Y27381D01*
X19602076Y27381D02*
X19935409Y27381D01*
X19935409Y27381D02*
X20030647Y-20238D01*
X20030647Y-20238D02*
X20078266Y-67857D01*
X20078266Y-67857D02*
X20125885Y-163095D01*
X20125885Y-163095D02*
X20125885Y-258333D01*
X20125885Y-258333D02*
X20078266Y-353571D01*
X20078266Y-353571D02*
X20030647Y-401190D01*
X20030647Y-401190D02*
X19935409Y-448809D01*
X19935409Y-448809D02*
X19602076Y-448809D01*
X46361904Y29690420D02*
X46314285Y29642800D01*
X46314285Y29642800D02*
X46171428Y29595181D01*
X46171428Y29595181D02*
X46076190Y29595181D01*
X46076190Y29595181D02*
X45933333Y29642800D01*
X45933333Y29642800D02*
X45838095Y29738039D01*
X45838095Y29738039D02*
X45790476Y29833277D01*
X45790476Y29833277D02*
X45742857Y30023753D01*
X45742857Y30023753D02*
X45742857Y30166610D01*
X45742857Y30166610D02*
X45790476Y30357086D01*
X45790476Y30357086D02*
X45838095Y30452324D01*
X45838095Y30452324D02*
X45933333Y30547562D01*
X45933333Y30547562D02*
X46076190Y30595181D01*
X46076190Y30595181D02*
X46171428Y30595181D01*
X46171428Y30595181D02*
X46314285Y30547562D01*
X46314285Y30547562D02*
X46361904Y30499943D01*
X46933333Y29595181D02*
X46838095Y29642800D01*
X46838095Y29642800D02*
X46790476Y29690420D01*
X46790476Y29690420D02*
X46742857Y29785658D01*
X46742857Y29785658D02*
X46742857Y30071372D01*
X46742857Y30071372D02*
X46790476Y30166610D01*
X46790476Y30166610D02*
X46838095Y30214229D01*
X46838095Y30214229D02*
X46933333Y30261848D01*
X46933333Y30261848D02*
X47076190Y30261848D01*
X47076190Y30261848D02*
X47171428Y30214229D01*
X47171428Y30214229D02*
X47219047Y30166610D01*
X47219047Y30166610D02*
X47266666Y30071372D01*
X47266666Y30071372D02*
X47266666Y29785658D01*
X47266666Y29785658D02*
X47219047Y29690420D01*
X47219047Y29690420D02*
X47171428Y29642800D01*
X47171428Y29642800D02*
X47076190Y29595181D01*
X47076190Y29595181D02*
X46933333Y29595181D01*
X47695238Y30261848D02*
X47695238Y29595181D01*
X47695238Y30166610D02*
X47742857Y30214229D01*
X47742857Y30214229D02*
X47838095Y30261848D01*
X47838095Y30261848D02*
X47980952Y30261848D01*
X47980952Y30261848D02*
X48076190Y30214229D01*
X48076190Y30214229D02*
X48123809Y30118991D01*
X48123809Y30118991D02*
X48123809Y29595181D01*
X48600000Y30261848D02*
X48600000Y29595181D01*
X48600000Y30166610D02*
X48647619Y30214229D01*
X48647619Y30214229D02*
X48742857Y30261848D01*
X48742857Y30261848D02*
X48885714Y30261848D01*
X48885714Y30261848D02*
X48980952Y30214229D01*
X48980952Y30214229D02*
X49028571Y30118991D01*
X49028571Y30118991D02*
X49028571Y29595181D01*
X49266667Y29499943D02*
X50028571Y29499943D01*
X50457143Y30595181D02*
X50552381Y30595181D01*
X50552381Y30595181D02*
X50647619Y30547562D01*
X50647619Y30547562D02*
X50695238Y30499943D01*
X50695238Y30499943D02*
X50742857Y30404705D01*
X50742857Y30404705D02*
X50790476Y30214229D01*
X50790476Y30214229D02*
X50790476Y29976134D01*
X50790476Y29976134D02*
X50742857Y29785658D01*
X50742857Y29785658D02*
X50695238Y29690420D01*
X50695238Y29690420D02*
X50647619Y29642800D01*
X50647619Y29642800D02*
X50552381Y29595181D01*
X50552381Y29595181D02*
X50457143Y29595181D01*
X50457143Y29595181D02*
X50361905Y29642800D01*
X50361905Y29642800D02*
X50314286Y29690420D01*
X50314286Y29690420D02*
X50266667Y29785658D01*
X50266667Y29785658D02*
X50219048Y29976134D01*
X50219048Y29976134D02*
X50219048Y30214229D01*
X50219048Y30214229D02*
X50266667Y30404705D01*
X50266667Y30404705D02*
X50314286Y30499943D01*
X50314286Y30499943D02*
X50361905Y30547562D01*
X50361905Y30547562D02*
X50457143Y30595181D01*
X51742857Y29595181D02*
X51171429Y29595181D01*
X51457143Y29595181D02*
X51457143Y30595181D01*
X51457143Y30595181D02*
X51361905Y30452324D01*
X51361905Y30452324D02*
X51266667Y30357086D01*
X51266667Y30357086D02*
X51171429Y30309467D01*
X52076191Y29595181D02*
X52600000Y30261848D01*
X52076191Y30261848D02*
X52600000Y29595181D01*
X53457143Y30595181D02*
X52980953Y30595181D01*
X52980953Y30595181D02*
X52933334Y30118991D01*
X52933334Y30118991D02*
X52980953Y30166610D01*
X52980953Y30166610D02*
X53076191Y30214229D01*
X53076191Y30214229D02*
X53314286Y30214229D01*
X53314286Y30214229D02*
X53409524Y30166610D01*
X53409524Y30166610D02*
X53457143Y30118991D01*
X53457143Y30118991D02*
X53504762Y30023753D01*
X53504762Y30023753D02*
X53504762Y29785658D01*
X53504762Y29785658D02*
X53457143Y29690420D01*
X53457143Y29690420D02*
X53409524Y29642800D01*
X53409524Y29642800D02*
X53314286Y29595181D01*
X53314286Y29595181D02*
X53076191Y29595181D01*
X53076191Y29595181D02*
X52980953Y29642800D01*
X52980953Y29642800D02*
X52933334Y29690420D01*
X54123810Y30595181D02*
X54219048Y30595181D01*
X54219048Y30595181D02*
X54314286Y30547562D01*
X54314286Y30547562D02*
X54361905Y30499943D01*
X54361905Y30499943D02*
X54409524Y30404705D01*
X54409524Y30404705D02*
X54457143Y30214229D01*
X54457143Y30214229D02*
X54457143Y29976134D01*
X54457143Y29976134D02*
X54409524Y29785658D01*
X54409524Y29785658D02*
X54361905Y29690420D01*
X54361905Y29690420D02*
X54314286Y29642800D01*
X54314286Y29642800D02*
X54219048Y29595181D01*
X54219048Y29595181D02*
X54123810Y29595181D01*
X54123810Y29595181D02*
X54028572Y29642800D01*
X54028572Y29642800D02*
X53980953Y29690420D01*
X53980953Y29690420D02*
X53933334Y29785658D01*
X53933334Y29785658D02*
X53885715Y29976134D01*
X53885715Y29976134D02*
X53885715Y30214229D01*
X53885715Y30214229D02*
X53933334Y30404705D01*
X53933334Y30404705D02*
X53980953Y30499943D01*
X53980953Y30499943D02*
X54028572Y30547562D01*
X54028572Y30547562D02*
X54123810Y30595181D01*
X49766666Y28695181D02*
X49766666Y27980896D01*
X49766666Y27980896D02*
X49719047Y27838039D01*
X49719047Y27838039D02*
X49623809Y27742800D01*
X49623809Y27742800D02*
X49480952Y27695181D01*
X49480952Y27695181D02*
X49385714Y27695181D01*
X50195238Y28599943D02*
X50242857Y28647562D01*
X50242857Y28647562D02*
X50338095Y28695181D01*
X50338095Y28695181D02*
X50576190Y28695181D01*
X50576190Y28695181D02*
X50671428Y28647562D01*
X50671428Y28647562D02*
X50719047Y28599943D01*
X50719047Y28599943D02*
X50766666Y28504705D01*
X50766666Y28504705D02*
X50766666Y28409467D01*
X50766666Y28409467D02*
X50719047Y28266610D01*
X50719047Y28266610D02*
X50147619Y27695181D01*
X50147619Y27695181D02*
X50766666Y27695181D01*
X21974819Y64993572D02*
X21974819Y64422144D01*
X21974819Y64707858D02*
X20974819Y64707858D01*
X20974819Y64707858D02*
X21117676Y64612620D01*
X21117676Y64612620D02*
X21212914Y64517382D01*
X21212914Y64517382D02*
X21260533Y64422144D01*
X20974819Y65612620D02*
X20974819Y65707858D01*
X20974819Y65707858D02*
X21022438Y65803096D01*
X21022438Y65803096D02*
X21070057Y65850715D01*
X21070057Y65850715D02*
X21165295Y65898334D01*
X21165295Y65898334D02*
X21355771Y65945953D01*
X21355771Y65945953D02*
X21593866Y65945953D01*
X21593866Y65945953D02*
X21784342Y65898334D01*
X21784342Y65898334D02*
X21879580Y65850715D01*
X21879580Y65850715D02*
X21927200Y65803096D01*
X21927200Y65803096D02*
X21974819Y65707858D01*
X21974819Y65707858D02*
X21974819Y65612620D01*
X21974819Y65612620D02*
X21927200Y65517382D01*
X21927200Y65517382D02*
X21879580Y65469763D01*
X21879580Y65469763D02*
X21784342Y65422144D01*
X21784342Y65422144D02*
X21593866Y65374525D01*
X21593866Y65374525D02*
X21355771Y65374525D01*
X21355771Y65374525D02*
X21165295Y65422144D01*
X21165295Y65422144D02*
X21070057Y65469763D01*
X21070057Y65469763D02*
X21022438Y65517382D01*
X21022438Y65517382D02*
X20974819Y65612620D01*
X20974819Y66565001D02*
X20974819Y66660239D01*
X20974819Y66660239D02*
X21022438Y66755477D01*
X21022438Y66755477D02*
X21070057Y66803096D01*
X21070057Y66803096D02*
X21165295Y66850715D01*
X21165295Y66850715D02*
X21355771Y66898334D01*
X21355771Y66898334D02*
X21593866Y66898334D01*
X21593866Y66898334D02*
X21784342Y66850715D01*
X21784342Y66850715D02*
X21879580Y66803096D01*
X21879580Y66803096D02*
X21927200Y66755477D01*
X21927200Y66755477D02*
X21974819Y66660239D01*
X21974819Y66660239D02*
X21974819Y66565001D01*
X21974819Y66565001D02*
X21927200Y66469763D01*
X21927200Y66469763D02*
X21879580Y66422144D01*
X21879580Y66422144D02*
X21784342Y66374525D01*
X21784342Y66374525D02*
X21593866Y66326906D01*
X21593866Y66326906D02*
X21355771Y66326906D01*
X21355771Y66326906D02*
X21165295Y66374525D01*
X21165295Y66374525D02*
X21070057Y66422144D01*
X21070057Y66422144D02*
X21022438Y66469763D01*
X21022438Y66469763D02*
X20974819Y66565001D01*
X21974819Y67326906D02*
X20974819Y67326906D01*
X21593866Y67422144D02*
X21974819Y67707858D01*
X21308152Y67707858D02*
X21689104Y67326906D01*
D11*
X23131927Y65998334D02*
X22941451Y65865001D01*
X23131927Y65769763D02*
X22731927Y65769763D01*
X22731927Y65769763D02*
X22731927Y65922144D01*
X22731927Y65922144D02*
X22750975Y65960239D01*
X22750975Y65960239D02*
X22770022Y65979286D01*
X22770022Y65979286D02*
X22808118Y65998334D01*
X22808118Y65998334D02*
X22865260Y65998334D01*
X22865260Y65998334D02*
X22903356Y65979286D01*
X22903356Y65979286D02*
X22922403Y65960239D01*
X22922403Y65960239D02*
X22941451Y65922144D01*
X22941451Y65922144D02*
X22941451Y65769763D01*
X22731927Y66131667D02*
X22731927Y66379286D01*
X22731927Y66379286D02*
X22884308Y66245953D01*
X22884308Y66245953D02*
X22884308Y66303096D01*
X22884308Y66303096D02*
X22903356Y66341191D01*
X22903356Y66341191D02*
X22922403Y66360239D01*
X22922403Y66360239D02*
X22960499Y66379286D01*
X22960499Y66379286D02*
X23055737Y66379286D01*
X23055737Y66379286D02*
X23093832Y66360239D01*
X23093832Y66360239D02*
X23112880Y66341191D01*
X23112880Y66341191D02*
X23131927Y66303096D01*
X23131927Y66303096D02*
X23131927Y66188810D01*
X23131927Y66188810D02*
X23112880Y66150715D01*
X23112880Y66150715D02*
X23093832Y66131667D01*
D10*
X-1062981Y11078877D02*
X-62981Y11316972D01*
X-62981Y11316972D02*
X-777267Y11507448D01*
X-777267Y11507448D02*
X-62981Y11697924D01*
X-62981Y11697924D02*
X-1062981Y11936019D01*
X-110600Y12269353D02*
X-62981Y12412210D01*
X-62981Y12412210D02*
X-62981Y12650305D01*
X-62981Y12650305D02*
X-110600Y12745543D01*
X-110600Y12745543D02*
X-158220Y12793162D01*
X-158220Y12793162D02*
X-253458Y12840781D01*
X-253458Y12840781D02*
X-348696Y12840781D01*
X-348696Y12840781D02*
X-443934Y12793162D01*
X-443934Y12793162D02*
X-491553Y12745543D01*
X-491553Y12745543D02*
X-539172Y12650305D01*
X-539172Y12650305D02*
X-586791Y12459829D01*
X-586791Y12459829D02*
X-634410Y12364591D01*
X-634410Y12364591D02*
X-682029Y12316972D01*
X-682029Y12316972D02*
X-777267Y12269353D01*
X-777267Y12269353D02*
X-872505Y12269353D01*
X-872505Y12269353D02*
X-967743Y12316972D01*
X-967743Y12316972D02*
X-1015362Y12364591D01*
X-1015362Y12364591D02*
X-1062981Y12459829D01*
X-1062981Y12459829D02*
X-1062981Y12697924D01*
X-1062981Y12697924D02*
X-1015362Y12840781D01*
X-967743Y13221734D02*
X-1015362Y13269353D01*
X-1015362Y13269353D02*
X-1062981Y13364591D01*
X-1062981Y13364591D02*
X-1062981Y13602686D01*
X-1062981Y13602686D02*
X-1015362Y13697924D01*
X-1015362Y13697924D02*
X-967743Y13745543D01*
X-967743Y13745543D02*
X-872505Y13793162D01*
X-872505Y13793162D02*
X-777267Y13793162D01*
X-777267Y13793162D02*
X-634410Y13745543D01*
X-634410Y13745543D02*
X-62981Y13174115D01*
X-62981Y13174115D02*
X-62981Y13793162D01*
X-634410Y14364591D02*
X-682029Y14269353D01*
X-682029Y14269353D02*
X-729648Y14221734D01*
X-729648Y14221734D02*
X-824886Y14174115D01*
X-824886Y14174115D02*
X-872505Y14174115D01*
X-872505Y14174115D02*
X-967743Y14221734D01*
X-967743Y14221734D02*
X-1015362Y14269353D01*
X-1015362Y14269353D02*
X-1062981Y14364591D01*
X-1062981Y14364591D02*
X-1062981Y14555067D01*
X-1062981Y14555067D02*
X-1015362Y14650305D01*
X-1015362Y14650305D02*
X-967743Y14697924D01*
X-967743Y14697924D02*
X-872505Y14745543D01*
X-872505Y14745543D02*
X-824886Y14745543D01*
X-824886Y14745543D02*
X-729648Y14697924D01*
X-729648Y14697924D02*
X-682029Y14650305D01*
X-682029Y14650305D02*
X-634410Y14555067D01*
X-634410Y14555067D02*
X-634410Y14364591D01*
X-634410Y14364591D02*
X-586791Y14269353D01*
X-586791Y14269353D02*
X-539172Y14221734D01*
X-539172Y14221734D02*
X-443934Y14174115D01*
X-443934Y14174115D02*
X-253458Y14174115D01*
X-253458Y14174115D02*
X-158220Y14221734D01*
X-158220Y14221734D02*
X-110600Y14269353D01*
X-110600Y14269353D02*
X-62981Y14364591D01*
X-62981Y14364591D02*
X-62981Y14555067D01*
X-62981Y14555067D02*
X-110600Y14650305D01*
X-110600Y14650305D02*
X-158220Y14697924D01*
X-158220Y14697924D02*
X-253458Y14745543D01*
X-253458Y14745543D02*
X-443934Y14745543D01*
X-443934Y14745543D02*
X-539172Y14697924D01*
X-539172Y14697924D02*
X-586791Y14650305D01*
X-586791Y14650305D02*
X-634410Y14555067D01*
X-62981Y15697924D02*
X-62981Y15126496D01*
X-62981Y15412210D02*
X-1062981Y15412210D01*
X-1062981Y15412210D02*
X-920124Y15316972D01*
X-920124Y15316972D02*
X-824886Y15221734D01*
X-824886Y15221734D02*
X-777267Y15126496D01*
X-967743Y16078877D02*
X-1015362Y16126496D01*
X-1015362Y16126496D02*
X-1062981Y16221734D01*
X-1062981Y16221734D02*
X-1062981Y16459829D01*
X-1062981Y16459829D02*
X-1015362Y16555067D01*
X-1015362Y16555067D02*
X-967743Y16602686D01*
X-967743Y16602686D02*
X-872505Y16650305D01*
X-872505Y16650305D02*
X-777267Y16650305D01*
X-777267Y16650305D02*
X-634410Y16602686D01*
X-634410Y16602686D02*
X-62981Y16031258D01*
X-62981Y16031258D02*
X-62981Y16650305D01*
X-586791Y17412210D02*
X-539172Y17555067D01*
X-539172Y17555067D02*
X-491553Y17602686D01*
X-491553Y17602686D02*
X-396315Y17650305D01*
X-396315Y17650305D02*
X-253458Y17650305D01*
X-253458Y17650305D02*
X-158220Y17602686D01*
X-158220Y17602686D02*
X-110600Y17555067D01*
X-110600Y17555067D02*
X-62981Y17459829D01*
X-62981Y17459829D02*
X-62981Y17078877D01*
X-62981Y17078877D02*
X-1062981Y17078877D01*
X-1062981Y17078877D02*
X-1062981Y17412210D01*
X-1062981Y17412210D02*
X-1015362Y17507448D01*
X-1015362Y17507448D02*
X-967743Y17555067D01*
X-967743Y17555067D02*
X-872505Y17602686D01*
X-872505Y17602686D02*
X-777267Y17602686D01*
X-777267Y17602686D02*
X-682029Y17555067D01*
X-682029Y17555067D02*
X-634410Y17507448D01*
X-634410Y17507448D02*
X-586791Y17412210D01*
X-586791Y17412210D02*
X-586791Y17078877D01*
X-1062981Y51998877D02*
X-62981Y52236972D01*
X-62981Y52236972D02*
X-777267Y52427448D01*
X-777267Y52427448D02*
X-62981Y52617924D01*
X-62981Y52617924D02*
X-1062981Y52856019D01*
X-110600Y53189353D02*
X-62981Y53332210D01*
X-62981Y53332210D02*
X-62981Y53570305D01*
X-62981Y53570305D02*
X-110600Y53665543D01*
X-110600Y53665543D02*
X-158220Y53713162D01*
X-158220Y53713162D02*
X-253458Y53760781D01*
X-253458Y53760781D02*
X-348696Y53760781D01*
X-348696Y53760781D02*
X-443934Y53713162D01*
X-443934Y53713162D02*
X-491553Y53665543D01*
X-491553Y53665543D02*
X-539172Y53570305D01*
X-539172Y53570305D02*
X-586791Y53379829D01*
X-586791Y53379829D02*
X-634410Y53284591D01*
X-634410Y53284591D02*
X-682029Y53236972D01*
X-682029Y53236972D02*
X-777267Y53189353D01*
X-777267Y53189353D02*
X-872505Y53189353D01*
X-872505Y53189353D02*
X-967743Y53236972D01*
X-967743Y53236972D02*
X-1015362Y53284591D01*
X-1015362Y53284591D02*
X-1062981Y53379829D01*
X-1062981Y53379829D02*
X-1062981Y53617924D01*
X-1062981Y53617924D02*
X-1015362Y53760781D01*
X-967743Y54141734D02*
X-1015362Y54189353D01*
X-1015362Y54189353D02*
X-1062981Y54284591D01*
X-1062981Y54284591D02*
X-1062981Y54522686D01*
X-1062981Y54522686D02*
X-1015362Y54617924D01*
X-1015362Y54617924D02*
X-967743Y54665543D01*
X-967743Y54665543D02*
X-872505Y54713162D01*
X-872505Y54713162D02*
X-777267Y54713162D01*
X-777267Y54713162D02*
X-634410Y54665543D01*
X-634410Y54665543D02*
X-62981Y54094115D01*
X-62981Y54094115D02*
X-62981Y54713162D01*
X-634410Y55284591D02*
X-682029Y55189353D01*
X-682029Y55189353D02*
X-729648Y55141734D01*
X-729648Y55141734D02*
X-824886Y55094115D01*
X-824886Y55094115D02*
X-872505Y55094115D01*
X-872505Y55094115D02*
X-967743Y55141734D01*
X-967743Y55141734D02*
X-1015362Y55189353D01*
X-1015362Y55189353D02*
X-1062981Y55284591D01*
X-1062981Y55284591D02*
X-1062981Y55475067D01*
X-1062981Y55475067D02*
X-1015362Y55570305D01*
X-1015362Y55570305D02*
X-967743Y55617924D01*
X-967743Y55617924D02*
X-872505Y55665543D01*
X-872505Y55665543D02*
X-824886Y55665543D01*
X-824886Y55665543D02*
X-729648Y55617924D01*
X-729648Y55617924D02*
X-682029Y55570305D01*
X-682029Y55570305D02*
X-634410Y55475067D01*
X-634410Y55475067D02*
X-634410Y55284591D01*
X-634410Y55284591D02*
X-586791Y55189353D01*
X-586791Y55189353D02*
X-539172Y55141734D01*
X-539172Y55141734D02*
X-443934Y55094115D01*
X-443934Y55094115D02*
X-253458Y55094115D01*
X-253458Y55094115D02*
X-158220Y55141734D01*
X-158220Y55141734D02*
X-110600Y55189353D01*
X-110600Y55189353D02*
X-62981Y55284591D01*
X-62981Y55284591D02*
X-62981Y55475067D01*
X-62981Y55475067D02*
X-110600Y55570305D01*
X-110600Y55570305D02*
X-158220Y55617924D01*
X-158220Y55617924D02*
X-253458Y55665543D01*
X-253458Y55665543D02*
X-443934Y55665543D01*
X-443934Y55665543D02*
X-539172Y55617924D01*
X-539172Y55617924D02*
X-586791Y55570305D01*
X-586791Y55570305D02*
X-634410Y55475067D01*
X-62981Y56617924D02*
X-62981Y56046496D01*
X-62981Y56332210D02*
X-1062981Y56332210D01*
X-1062981Y56332210D02*
X-920124Y56236972D01*
X-920124Y56236972D02*
X-824886Y56141734D01*
X-824886Y56141734D02*
X-777267Y56046496D01*
X-967743Y56998877D02*
X-1015362Y57046496D01*
X-1015362Y57046496D02*
X-1062981Y57141734D01*
X-1062981Y57141734D02*
X-1062981Y57379829D01*
X-1062981Y57379829D02*
X-1015362Y57475067D01*
X-1015362Y57475067D02*
X-967743Y57522686D01*
X-967743Y57522686D02*
X-872505Y57570305D01*
X-872505Y57570305D02*
X-777267Y57570305D01*
X-777267Y57570305D02*
X-634410Y57522686D01*
X-634410Y57522686D02*
X-62981Y56951258D01*
X-62981Y56951258D02*
X-62981Y57570305D01*
X-586791Y58332210D02*
X-539172Y58475067D01*
X-539172Y58475067D02*
X-491553Y58522686D01*
X-491553Y58522686D02*
X-396315Y58570305D01*
X-396315Y58570305D02*
X-253458Y58570305D01*
X-253458Y58570305D02*
X-158220Y58522686D01*
X-158220Y58522686D02*
X-110600Y58475067D01*
X-110600Y58475067D02*
X-62981Y58379829D01*
X-62981Y58379829D02*
X-62981Y57998877D01*
X-62981Y57998877D02*
X-1062981Y57998877D01*
X-1062981Y57998877D02*
X-1062981Y58332210D01*
X-1062981Y58332210D02*
X-1015362Y58427448D01*
X-1015362Y58427448D02*
X-967743Y58475067D01*
X-967743Y58475067D02*
X-872505Y58522686D01*
X-872505Y58522686D02*
X-777267Y58522686D01*
X-777267Y58522686D02*
X-682029Y58475067D01*
X-682029Y58475067D02*
X-634410Y58427448D01*
X-634410Y58427448D02*
X-586791Y58332210D01*
X-586791Y58332210D02*
X-586791Y57998877D01*
X68162076Y27381D02*
X68400171Y-972619D01*
X68400171Y-972619D02*
X68590647Y-258333D01*
X68590647Y-258333D02*
X68781123Y-972619D01*
X68781123Y-972619D02*
X69019219Y27381D01*
X69352552Y-925000D02*
X69495409Y-972619D01*
X69495409Y-972619D02*
X69733504Y-972619D01*
X69733504Y-972619D02*
X69828742Y-925000D01*
X69828742Y-925000D02*
X69876361Y-877380D01*
X69876361Y-877380D02*
X69923980Y-782142D01*
X69923980Y-782142D02*
X69923980Y-686904D01*
X69923980Y-686904D02*
X69876361Y-591666D01*
X69876361Y-591666D02*
X69828742Y-544047D01*
X69828742Y-544047D02*
X69733504Y-496428D01*
X69733504Y-496428D02*
X69543028Y-448809D01*
X69543028Y-448809D02*
X69447790Y-401190D01*
X69447790Y-401190D02*
X69400171Y-353571D01*
X69400171Y-353571D02*
X69352552Y-258333D01*
X69352552Y-258333D02*
X69352552Y-163095D01*
X69352552Y-163095D02*
X69400171Y-67857D01*
X69400171Y-67857D02*
X69447790Y-20238D01*
X69447790Y-20238D02*
X69543028Y27381D01*
X69543028Y27381D02*
X69781123Y27381D01*
X69781123Y27381D02*
X69923980Y-20238D01*
X70304933Y-67857D02*
X70352552Y-20238D01*
X70352552Y-20238D02*
X70447790Y27381D01*
X70447790Y27381D02*
X70685885Y27381D01*
X70685885Y27381D02*
X70781123Y-20238D01*
X70781123Y-20238D02*
X70828742Y-67857D01*
X70828742Y-67857D02*
X70876361Y-163095D01*
X70876361Y-163095D02*
X70876361Y-258333D01*
X70876361Y-258333D02*
X70828742Y-401190D01*
X70828742Y-401190D02*
X70257314Y-972619D01*
X70257314Y-972619D02*
X70876361Y-972619D01*
X71447790Y-401190D02*
X71352552Y-353571D01*
X71352552Y-353571D02*
X71304933Y-305952D01*
X71304933Y-305952D02*
X71257314Y-210714D01*
X71257314Y-210714D02*
X71257314Y-163095D01*
X71257314Y-163095D02*
X71304933Y-67857D01*
X71304933Y-67857D02*
X71352552Y-20238D01*
X71352552Y-20238D02*
X71447790Y27381D01*
X71447790Y27381D02*
X71638266Y27381D01*
X71638266Y27381D02*
X71733504Y-20238D01*
X71733504Y-20238D02*
X71781123Y-67857D01*
X71781123Y-67857D02*
X71828742Y-163095D01*
X71828742Y-163095D02*
X71828742Y-210714D01*
X71828742Y-210714D02*
X71781123Y-305952D01*
X71781123Y-305952D02*
X71733504Y-353571D01*
X71733504Y-353571D02*
X71638266Y-401190D01*
X71638266Y-401190D02*
X71447790Y-401190D01*
X71447790Y-401190D02*
X71352552Y-448809D01*
X71352552Y-448809D02*
X71304933Y-496428D01*
X71304933Y-496428D02*
X71257314Y-591666D01*
X71257314Y-591666D02*
X71257314Y-782142D01*
X71257314Y-782142D02*
X71304933Y-877380D01*
X71304933Y-877380D02*
X71352552Y-925000D01*
X71352552Y-925000D02*
X71447790Y-972619D01*
X71447790Y-972619D02*
X71638266Y-972619D01*
X71638266Y-972619D02*
X71733504Y-925000D01*
X71733504Y-925000D02*
X71781123Y-877380D01*
X71781123Y-877380D02*
X71828742Y-782142D01*
X71828742Y-782142D02*
X71828742Y-591666D01*
X71828742Y-591666D02*
X71781123Y-496428D01*
X71781123Y-496428D02*
X71733504Y-448809D01*
X71733504Y-448809D02*
X71638266Y-401190D01*
X72781123Y-972619D02*
X72209695Y-972619D01*
X72495409Y-972619D02*
X72495409Y27381D01*
X72495409Y27381D02*
X72400171Y-115476D01*
X72400171Y-115476D02*
X72304933Y-210714D01*
X72304933Y-210714D02*
X72209695Y-258333D01*
X73162076Y-67857D02*
X73209695Y-20238D01*
X73209695Y-20238D02*
X73304933Y27381D01*
X73304933Y27381D02*
X73543028Y27381D01*
X73543028Y27381D02*
X73638266Y-20238D01*
X73638266Y-20238D02*
X73685885Y-67857D01*
X73685885Y-67857D02*
X73733504Y-163095D01*
X73733504Y-163095D02*
X73733504Y-258333D01*
X73733504Y-258333D02*
X73685885Y-401190D01*
X73685885Y-401190D02*
X73114457Y-972619D01*
X73114457Y-972619D02*
X73733504Y-972619D01*
X74495409Y-448809D02*
X74638266Y-496428D01*
X74638266Y-496428D02*
X74685885Y-544047D01*
X74685885Y-544047D02*
X74733504Y-639285D01*
X74733504Y-639285D02*
X74733504Y-782142D01*
X74733504Y-782142D02*
X74685885Y-877380D01*
X74685885Y-877380D02*
X74638266Y-925000D01*
X74638266Y-925000D02*
X74543028Y-972619D01*
X74543028Y-972619D02*
X74162076Y-972619D01*
X74162076Y-972619D02*
X74162076Y27381D01*
X74162076Y27381D02*
X74495409Y27381D01*
X74495409Y27381D02*
X74590647Y-20238D01*
X74590647Y-20238D02*
X74638266Y-67857D01*
X74638266Y-67857D02*
X74685885Y-163095D01*
X74685885Y-163095D02*
X74685885Y-258333D01*
X74685885Y-258333D02*
X74638266Y-353571D01*
X74638266Y-353571D02*
X74590647Y-401190D01*
X74590647Y-401190D02*
X74495409Y-448809D01*
X74495409Y-448809D02*
X74162076Y-448809D01*
X73304762Y94392800D02*
X73447619Y94345181D01*
X73447619Y94345181D02*
X73685714Y94345181D01*
X73685714Y94345181D02*
X73780952Y94392800D01*
X73780952Y94392800D02*
X73828571Y94440420D01*
X73828571Y94440420D02*
X73876190Y94535658D01*
X73876190Y94535658D02*
X73876190Y94630896D01*
X73876190Y94630896D02*
X73828571Y94726134D01*
X73828571Y94726134D02*
X73780952Y94773753D01*
X73780952Y94773753D02*
X73685714Y94821372D01*
X73685714Y94821372D02*
X73495238Y94868991D01*
X73495238Y94868991D02*
X73400000Y94916610D01*
X73400000Y94916610D02*
X73352381Y94964229D01*
X73352381Y94964229D02*
X73304762Y95059467D01*
X73304762Y95059467D02*
X73304762Y95154705D01*
X73304762Y95154705D02*
X73352381Y95249943D01*
X73352381Y95249943D02*
X73400000Y95297562D01*
X73400000Y95297562D02*
X73495238Y95345181D01*
X73495238Y95345181D02*
X73733333Y95345181D01*
X73733333Y95345181D02*
X73876190Y95297562D01*
X74209524Y95345181D02*
X74447619Y94345181D01*
X74447619Y94345181D02*
X74638095Y95059467D01*
X74638095Y95059467D02*
X74828571Y94345181D01*
X74828571Y94345181D02*
X75066667Y95345181D01*
X75209524Y94249943D02*
X75971428Y94249943D01*
X76161905Y94392800D02*
X76304762Y94345181D01*
X76304762Y94345181D02*
X76542857Y94345181D01*
X76542857Y94345181D02*
X76638095Y94392800D01*
X76638095Y94392800D02*
X76685714Y94440420D01*
X76685714Y94440420D02*
X76733333Y94535658D01*
X76733333Y94535658D02*
X76733333Y94630896D01*
X76733333Y94630896D02*
X76685714Y94726134D01*
X76685714Y94726134D02*
X76638095Y94773753D01*
X76638095Y94773753D02*
X76542857Y94821372D01*
X76542857Y94821372D02*
X76352381Y94868991D01*
X76352381Y94868991D02*
X76257143Y94916610D01*
X76257143Y94916610D02*
X76209524Y94964229D01*
X76209524Y94964229D02*
X76161905Y95059467D01*
X76161905Y95059467D02*
X76161905Y95154705D01*
X76161905Y95154705D02*
X76209524Y95249943D01*
X76209524Y95249943D02*
X76257143Y95297562D01*
X76257143Y95297562D02*
X76352381Y95345181D01*
X76352381Y95345181D02*
X76590476Y95345181D01*
X76590476Y95345181D02*
X76733333Y95297562D01*
X77161905Y94345181D02*
X77161905Y95345181D01*
X77161905Y95345181D02*
X77542857Y95345181D01*
X77542857Y95345181D02*
X77638095Y95297562D01*
X77638095Y95297562D02*
X77685714Y95249943D01*
X77685714Y95249943D02*
X77733333Y95154705D01*
X77733333Y95154705D02*
X77733333Y95011848D01*
X77733333Y95011848D02*
X77685714Y94916610D01*
X77685714Y94916610D02*
X77638095Y94868991D01*
X77638095Y94868991D02*
X77542857Y94821372D01*
X77542857Y94821372D02*
X77161905Y94821372D01*
X78161905Y94345181D02*
X78161905Y95345181D01*
X78161905Y95345181D02*
X78400000Y95345181D01*
X78400000Y95345181D02*
X78542857Y95297562D01*
X78542857Y95297562D02*
X78638095Y95202324D01*
X78638095Y95202324D02*
X78685714Y95107086D01*
X78685714Y95107086D02*
X78733333Y94916610D01*
X78733333Y94916610D02*
X78733333Y94773753D01*
X78733333Y94773753D02*
X78685714Y94583277D01*
X78685714Y94583277D02*
X78638095Y94488039D01*
X78638095Y94488039D02*
X78542857Y94392800D01*
X78542857Y94392800D02*
X78400000Y94345181D01*
X78400000Y94345181D02*
X78161905Y94345181D01*
X79019048Y95345181D02*
X79590476Y95345181D01*
X79304762Y94345181D02*
X79304762Y95345181D01*
X75066667Y97292800D02*
X75209524Y97245181D01*
X75209524Y97245181D02*
X75447619Y97245181D01*
X75447619Y97245181D02*
X75542857Y97292800D01*
X75542857Y97292800D02*
X75590476Y97340420D01*
X75590476Y97340420D02*
X75638095Y97435658D01*
X75638095Y97435658D02*
X75638095Y97530896D01*
X75638095Y97530896D02*
X75590476Y97626134D01*
X75590476Y97626134D02*
X75542857Y97673753D01*
X75542857Y97673753D02*
X75447619Y97721372D01*
X75447619Y97721372D02*
X75257143Y97768991D01*
X75257143Y97768991D02*
X75161905Y97816610D01*
X75161905Y97816610D02*
X75114286Y97864229D01*
X75114286Y97864229D02*
X75066667Y97959467D01*
X75066667Y97959467D02*
X75066667Y98054705D01*
X75066667Y98054705D02*
X75114286Y98149943D01*
X75114286Y98149943D02*
X75161905Y98197562D01*
X75161905Y98197562D02*
X75257143Y98245181D01*
X75257143Y98245181D02*
X75495238Y98245181D01*
X75495238Y98245181D02*
X75638095Y98197562D01*
X75971429Y98245181D02*
X76209524Y97245181D01*
X76209524Y97245181D02*
X76400000Y97959467D01*
X76400000Y97959467D02*
X76590476Y97245181D01*
X76590476Y97245181D02*
X76828572Y98245181D01*
X77733333Y97245181D02*
X77161905Y97245181D01*
X77447619Y97245181D02*
X77447619Y98245181D01*
X77447619Y98245181D02*
X77352381Y98102324D01*
X77352381Y98102324D02*
X77257143Y98007086D01*
X77257143Y98007086D02*
X77161905Y97959467D01*
X88119047Y7168991D02*
X87785714Y7168991D01*
X87785714Y6645181D02*
X87785714Y7645181D01*
X87785714Y7645181D02*
X88261904Y7645181D01*
X88642857Y6645181D02*
X88642857Y7311848D01*
X88642857Y7645181D02*
X88595238Y7597562D01*
X88595238Y7597562D02*
X88642857Y7549943D01*
X88642857Y7549943D02*
X88690476Y7597562D01*
X88690476Y7597562D02*
X88642857Y7645181D01*
X88642857Y7645181D02*
X88642857Y7549943D01*
X89547618Y6645181D02*
X89547618Y7645181D01*
X89547618Y6692800D02*
X89452380Y6645181D01*
X89452380Y6645181D02*
X89261904Y6645181D01*
X89261904Y6645181D02*
X89166666Y6692800D01*
X89166666Y6692800D02*
X89119047Y6740420D01*
X89119047Y6740420D02*
X89071428Y6835658D01*
X89071428Y6835658D02*
X89071428Y7121372D01*
X89071428Y7121372D02*
X89119047Y7216610D01*
X89119047Y7216610D02*
X89166666Y7264229D01*
X89166666Y7264229D02*
X89261904Y7311848D01*
X89261904Y7311848D02*
X89452380Y7311848D01*
X89452380Y7311848D02*
X89547618Y7264229D01*
X90452380Y7311848D02*
X90452380Y6645181D01*
X90023809Y7311848D02*
X90023809Y6788039D01*
X90023809Y6788039D02*
X90071428Y6692800D01*
X90071428Y6692800D02*
X90166666Y6645181D01*
X90166666Y6645181D02*
X90309523Y6645181D01*
X90309523Y6645181D02*
X90404761Y6692800D01*
X90404761Y6692800D02*
X90452380Y6740420D01*
X91357142Y6692800D02*
X91261904Y6645181D01*
X91261904Y6645181D02*
X91071428Y6645181D01*
X91071428Y6645181D02*
X90976190Y6692800D01*
X90976190Y6692800D02*
X90928571Y6740420D01*
X90928571Y6740420D02*
X90880952Y6835658D01*
X90880952Y6835658D02*
X90880952Y7121372D01*
X90880952Y7121372D02*
X90928571Y7216610D01*
X90928571Y7216610D02*
X90976190Y7264229D01*
X90976190Y7264229D02*
X91071428Y7311848D01*
X91071428Y7311848D02*
X91261904Y7311848D01*
X91261904Y7311848D02*
X91357142Y7264229D01*
X91785714Y6645181D02*
X91785714Y7311848D01*
X91785714Y7645181D02*
X91738095Y7597562D01*
X91738095Y7597562D02*
X91785714Y7549943D01*
X91785714Y7549943D02*
X91833333Y7597562D01*
X91833333Y7597562D02*
X91785714Y7645181D01*
X91785714Y7645181D02*
X91785714Y7549943D01*
X92690475Y6645181D02*
X92690475Y7168991D01*
X92690475Y7168991D02*
X92642856Y7264229D01*
X92642856Y7264229D02*
X92547618Y7311848D01*
X92547618Y7311848D02*
X92357142Y7311848D01*
X92357142Y7311848D02*
X92261904Y7264229D01*
X92690475Y6692800D02*
X92595237Y6645181D01*
X92595237Y6645181D02*
X92357142Y6645181D01*
X92357142Y6645181D02*
X92261904Y6692800D01*
X92261904Y6692800D02*
X92214285Y6788039D01*
X92214285Y6788039D02*
X92214285Y6883277D01*
X92214285Y6883277D02*
X92261904Y6978515D01*
X92261904Y6978515D02*
X92357142Y7026134D01*
X92357142Y7026134D02*
X92595237Y7026134D01*
X92595237Y7026134D02*
X92690475Y7073753D01*
X93309523Y6645181D02*
X93214285Y6692800D01*
X93214285Y6692800D02*
X93166666Y6788039D01*
X93166666Y6788039D02*
X93166666Y7645181D01*
D11*
X90071429Y9127597D02*
X89938096Y9127597D01*
X89938096Y8918073D02*
X89938096Y9318073D01*
X89938096Y9318073D02*
X90128572Y9318073D01*
X90280953Y8918073D02*
X90280953Y9318073D01*
X90471429Y8918073D02*
X90471429Y9318073D01*
X90471429Y9318073D02*
X90566667Y9318073D01*
X90566667Y9318073D02*
X90623810Y9299025D01*
X90623810Y9299025D02*
X90661905Y9260930D01*
X90661905Y9260930D02*
X90680952Y9222835D01*
X90680952Y9222835D02*
X90700000Y9146644D01*
X90700000Y9146644D02*
X90700000Y9089501D01*
X90700000Y9089501D02*
X90680952Y9013311D01*
X90680952Y9013311D02*
X90661905Y8975216D01*
X90661905Y8975216D02*
X90623810Y8937120D01*
X90623810Y8937120D02*
X90566667Y8918073D01*
X90566667Y8918073D02*
X90471429Y8918073D01*
X91042857Y9184740D02*
X91042857Y8918073D01*
X90947619Y9337120D02*
X90852381Y9051406D01*
X90852381Y9051406D02*
X91100000Y9051406D01*
D10*
X-1062981Y38358877D02*
X-62981Y38596972D01*
X-62981Y38596972D02*
X-777267Y38787448D01*
X-777267Y38787448D02*
X-62981Y38977924D01*
X-62981Y38977924D02*
X-1062981Y39216019D01*
X-110600Y39549353D02*
X-62981Y39692210D01*
X-62981Y39692210D02*
X-62981Y39930305D01*
X-62981Y39930305D02*
X-110600Y40025543D01*
X-110600Y40025543D02*
X-158220Y40073162D01*
X-158220Y40073162D02*
X-253458Y40120781D01*
X-253458Y40120781D02*
X-348696Y40120781D01*
X-348696Y40120781D02*
X-443934Y40073162D01*
X-443934Y40073162D02*
X-491553Y40025543D01*
X-491553Y40025543D02*
X-539172Y39930305D01*
X-539172Y39930305D02*
X-586791Y39739829D01*
X-586791Y39739829D02*
X-634410Y39644591D01*
X-634410Y39644591D02*
X-682029Y39596972D01*
X-682029Y39596972D02*
X-777267Y39549353D01*
X-777267Y39549353D02*
X-872505Y39549353D01*
X-872505Y39549353D02*
X-967743Y39596972D01*
X-967743Y39596972D02*
X-1015362Y39644591D01*
X-1015362Y39644591D02*
X-1062981Y39739829D01*
X-1062981Y39739829D02*
X-1062981Y39977924D01*
X-1062981Y39977924D02*
X-1015362Y40120781D01*
X-967743Y40501734D02*
X-1015362Y40549353D01*
X-1015362Y40549353D02*
X-1062981Y40644591D01*
X-1062981Y40644591D02*
X-1062981Y40882686D01*
X-1062981Y40882686D02*
X-1015362Y40977924D01*
X-1015362Y40977924D02*
X-967743Y41025543D01*
X-967743Y41025543D02*
X-872505Y41073162D01*
X-872505Y41073162D02*
X-777267Y41073162D01*
X-777267Y41073162D02*
X-634410Y41025543D01*
X-634410Y41025543D02*
X-62981Y40454115D01*
X-62981Y40454115D02*
X-62981Y41073162D01*
X-634410Y41644591D02*
X-682029Y41549353D01*
X-682029Y41549353D02*
X-729648Y41501734D01*
X-729648Y41501734D02*
X-824886Y41454115D01*
X-824886Y41454115D02*
X-872505Y41454115D01*
X-872505Y41454115D02*
X-967743Y41501734D01*
X-967743Y41501734D02*
X-1015362Y41549353D01*
X-1015362Y41549353D02*
X-1062981Y41644591D01*
X-1062981Y41644591D02*
X-1062981Y41835067D01*
X-1062981Y41835067D02*
X-1015362Y41930305D01*
X-1015362Y41930305D02*
X-967743Y41977924D01*
X-967743Y41977924D02*
X-872505Y42025543D01*
X-872505Y42025543D02*
X-824886Y42025543D01*
X-824886Y42025543D02*
X-729648Y41977924D01*
X-729648Y41977924D02*
X-682029Y41930305D01*
X-682029Y41930305D02*
X-634410Y41835067D01*
X-634410Y41835067D02*
X-634410Y41644591D01*
X-634410Y41644591D02*
X-586791Y41549353D01*
X-586791Y41549353D02*
X-539172Y41501734D01*
X-539172Y41501734D02*
X-443934Y41454115D01*
X-443934Y41454115D02*
X-253458Y41454115D01*
X-253458Y41454115D02*
X-158220Y41501734D01*
X-158220Y41501734D02*
X-110600Y41549353D01*
X-110600Y41549353D02*
X-62981Y41644591D01*
X-62981Y41644591D02*
X-62981Y41835067D01*
X-62981Y41835067D02*
X-110600Y41930305D01*
X-110600Y41930305D02*
X-158220Y41977924D01*
X-158220Y41977924D02*
X-253458Y42025543D01*
X-253458Y42025543D02*
X-443934Y42025543D01*
X-443934Y42025543D02*
X-539172Y41977924D01*
X-539172Y41977924D02*
X-586791Y41930305D01*
X-586791Y41930305D02*
X-634410Y41835067D01*
X-62981Y42977924D02*
X-62981Y42406496D01*
X-62981Y42692210D02*
X-1062981Y42692210D01*
X-1062981Y42692210D02*
X-920124Y42596972D01*
X-920124Y42596972D02*
X-824886Y42501734D01*
X-824886Y42501734D02*
X-777267Y42406496D01*
X-967743Y43358877D02*
X-1015362Y43406496D01*
X-1015362Y43406496D02*
X-1062981Y43501734D01*
X-1062981Y43501734D02*
X-1062981Y43739829D01*
X-1062981Y43739829D02*
X-1015362Y43835067D01*
X-1015362Y43835067D02*
X-967743Y43882686D01*
X-967743Y43882686D02*
X-872505Y43930305D01*
X-872505Y43930305D02*
X-777267Y43930305D01*
X-777267Y43930305D02*
X-634410Y43882686D01*
X-634410Y43882686D02*
X-62981Y43311258D01*
X-62981Y43311258D02*
X-62981Y43930305D01*
X-586791Y44692210D02*
X-539172Y44835067D01*
X-539172Y44835067D02*
X-491553Y44882686D01*
X-491553Y44882686D02*
X-396315Y44930305D01*
X-396315Y44930305D02*
X-253458Y44930305D01*
X-253458Y44930305D02*
X-158220Y44882686D01*
X-158220Y44882686D02*
X-110600Y44835067D01*
X-110600Y44835067D02*
X-62981Y44739829D01*
X-62981Y44739829D02*
X-62981Y44358877D01*
X-62981Y44358877D02*
X-1062981Y44358877D01*
X-1062981Y44358877D02*
X-1062981Y44692210D01*
X-1062981Y44692210D02*
X-1015362Y44787448D01*
X-1015362Y44787448D02*
X-967743Y44835067D01*
X-967743Y44835067D02*
X-872505Y44882686D01*
X-872505Y44882686D02*
X-777267Y44882686D01*
X-777267Y44882686D02*
X-682029Y44835067D01*
X-682029Y44835067D02*
X-634410Y44787448D01*
X-634410Y44787448D02*
X-586791Y44692210D01*
X-586791Y44692210D02*
X-586791Y44358877D01*
X69790475Y30588991D02*
X69457142Y30588991D01*
X69457142Y30065181D02*
X69457142Y31065181D01*
X69457142Y31065181D02*
X69933332Y31065181D01*
X70742856Y30731848D02*
X70742856Y30065181D01*
X70314285Y30731848D02*
X70314285Y30208039D01*
X70314285Y30208039D02*
X70361904Y30112800D01*
X70361904Y30112800D02*
X70457142Y30065181D01*
X70457142Y30065181D02*
X70599999Y30065181D01*
X70599999Y30065181D02*
X70695237Y30112800D01*
X70695237Y30112800D02*
X70742856Y30160420D01*
X71219047Y30731848D02*
X71219047Y30065181D01*
X71219047Y30636610D02*
X71266666Y30684229D01*
X71266666Y30684229D02*
X71361904Y30731848D01*
X71361904Y30731848D02*
X71504761Y30731848D01*
X71504761Y30731848D02*
X71599999Y30684229D01*
X71599999Y30684229D02*
X71647618Y30588991D01*
X71647618Y30588991D02*
X71647618Y30065181D01*
X72552380Y30112800D02*
X72457142Y30065181D01*
X72457142Y30065181D02*
X72266666Y30065181D01*
X72266666Y30065181D02*
X72171428Y30112800D01*
X72171428Y30112800D02*
X72123809Y30160420D01*
X72123809Y30160420D02*
X72076190Y30255658D01*
X72076190Y30255658D02*
X72076190Y30541372D01*
X72076190Y30541372D02*
X72123809Y30636610D01*
X72123809Y30636610D02*
X72171428Y30684229D01*
X72171428Y30684229D02*
X72266666Y30731848D01*
X72266666Y30731848D02*
X72457142Y30731848D01*
X72457142Y30731848D02*
X72552380Y30684229D01*
X72838095Y30731848D02*
X73219047Y30731848D01*
X72980952Y31065181D02*
X72980952Y30208039D01*
X72980952Y30208039D02*
X73028571Y30112800D01*
X73028571Y30112800D02*
X73123809Y30065181D01*
X73123809Y30065181D02*
X73219047Y30065181D01*
X73552381Y30065181D02*
X73552381Y30731848D01*
X73552381Y31065181D02*
X73504762Y31017562D01*
X73504762Y31017562D02*
X73552381Y30969943D01*
X73552381Y30969943D02*
X73600000Y31017562D01*
X73600000Y31017562D02*
X73552381Y31065181D01*
X73552381Y31065181D02*
X73552381Y30969943D01*
X74171428Y30065181D02*
X74076190Y30112800D01*
X74076190Y30112800D02*
X74028571Y30160420D01*
X74028571Y30160420D02*
X73980952Y30255658D01*
X73980952Y30255658D02*
X73980952Y30541372D01*
X73980952Y30541372D02*
X74028571Y30636610D01*
X74028571Y30636610D02*
X74076190Y30684229D01*
X74076190Y30684229D02*
X74171428Y30731848D01*
X74171428Y30731848D02*
X74314285Y30731848D01*
X74314285Y30731848D02*
X74409523Y30684229D01*
X74409523Y30684229D02*
X74457142Y30636610D01*
X74457142Y30636610D02*
X74504761Y30541372D01*
X74504761Y30541372D02*
X74504761Y30255658D01*
X74504761Y30255658D02*
X74457142Y30160420D01*
X74457142Y30160420D02*
X74409523Y30112800D01*
X74409523Y30112800D02*
X74314285Y30065181D01*
X74314285Y30065181D02*
X74171428Y30065181D01*
X74933333Y30731848D02*
X74933333Y30065181D01*
X74933333Y30636610D02*
X74980952Y30684229D01*
X74980952Y30684229D02*
X75076190Y30731848D01*
X75076190Y30731848D02*
X75219047Y30731848D01*
X75219047Y30731848D02*
X75314285Y30684229D01*
X75314285Y30684229D02*
X75361904Y30588991D01*
X75361904Y30588991D02*
X75361904Y30065181D01*
X76552381Y30112800D02*
X76695238Y30065181D01*
X76695238Y30065181D02*
X76933333Y30065181D01*
X76933333Y30065181D02*
X77028571Y30112800D01*
X77028571Y30112800D02*
X77076190Y30160420D01*
X77076190Y30160420D02*
X77123809Y30255658D01*
X77123809Y30255658D02*
X77123809Y30350896D01*
X77123809Y30350896D02*
X77076190Y30446134D01*
X77076190Y30446134D02*
X77028571Y30493753D01*
X77028571Y30493753D02*
X76933333Y30541372D01*
X76933333Y30541372D02*
X76742857Y30588991D01*
X76742857Y30588991D02*
X76647619Y30636610D01*
X76647619Y30636610D02*
X76600000Y30684229D01*
X76600000Y30684229D02*
X76552381Y30779467D01*
X76552381Y30779467D02*
X76552381Y30874705D01*
X76552381Y30874705D02*
X76600000Y30969943D01*
X76600000Y30969943D02*
X76647619Y31017562D01*
X76647619Y31017562D02*
X76742857Y31065181D01*
X76742857Y31065181D02*
X76980952Y31065181D01*
X76980952Y31065181D02*
X77123809Y31017562D01*
X77933333Y30112800D02*
X77838095Y30065181D01*
X77838095Y30065181D02*
X77647619Y30065181D01*
X77647619Y30065181D02*
X77552381Y30112800D01*
X77552381Y30112800D02*
X77504762Y30208039D01*
X77504762Y30208039D02*
X77504762Y30588991D01*
X77504762Y30588991D02*
X77552381Y30684229D01*
X77552381Y30684229D02*
X77647619Y30731848D01*
X77647619Y30731848D02*
X77838095Y30731848D01*
X77838095Y30731848D02*
X77933333Y30684229D01*
X77933333Y30684229D02*
X77980952Y30588991D01*
X77980952Y30588991D02*
X77980952Y30493753D01*
X77980952Y30493753D02*
X77504762Y30398515D01*
X78552381Y30065181D02*
X78457143Y30112800D01*
X78457143Y30112800D02*
X78409524Y30208039D01*
X78409524Y30208039D02*
X78409524Y31065181D01*
X79314286Y30112800D02*
X79219048Y30065181D01*
X79219048Y30065181D02*
X79028572Y30065181D01*
X79028572Y30065181D02*
X78933334Y30112800D01*
X78933334Y30112800D02*
X78885715Y30208039D01*
X78885715Y30208039D02*
X78885715Y30588991D01*
X78885715Y30588991D02*
X78933334Y30684229D01*
X78933334Y30684229D02*
X79028572Y30731848D01*
X79028572Y30731848D02*
X79219048Y30731848D01*
X79219048Y30731848D02*
X79314286Y30684229D01*
X79314286Y30684229D02*
X79361905Y30588991D01*
X79361905Y30588991D02*
X79361905Y30493753D01*
X79361905Y30493753D02*
X78885715Y30398515D01*
X80219048Y30112800D02*
X80123810Y30065181D01*
X80123810Y30065181D02*
X79933334Y30065181D01*
X79933334Y30065181D02*
X79838096Y30112800D01*
X79838096Y30112800D02*
X79790477Y30160420D01*
X79790477Y30160420D02*
X79742858Y30255658D01*
X79742858Y30255658D02*
X79742858Y30541372D01*
X79742858Y30541372D02*
X79790477Y30636610D01*
X79790477Y30636610D02*
X79838096Y30684229D01*
X79838096Y30684229D02*
X79933334Y30731848D01*
X79933334Y30731848D02*
X80123810Y30731848D01*
X80123810Y30731848D02*
X80219048Y30684229D01*
X80504763Y30731848D02*
X80885715Y30731848D01*
X80647620Y31065181D02*
X80647620Y30208039D01*
X80647620Y30208039D02*
X80695239Y30112800D01*
X80695239Y30112800D02*
X80790477Y30065181D01*
X80790477Y30065181D02*
X80885715Y30065181D01*
X60065476Y18615181D02*
X60684523Y18615181D01*
X60684523Y18615181D02*
X60351190Y18234229D01*
X60351190Y18234229D02*
X60494047Y18234229D01*
X60494047Y18234229D02*
X60589285Y18186610D01*
X60589285Y18186610D02*
X60636904Y18138991D01*
X60636904Y18138991D02*
X60684523Y18043753D01*
X60684523Y18043753D02*
X60684523Y17805658D01*
X60684523Y17805658D02*
X60636904Y17710420D01*
X60636904Y17710420D02*
X60589285Y17662800D01*
X60589285Y17662800D02*
X60494047Y17615181D01*
X60494047Y17615181D02*
X60208333Y17615181D01*
X60208333Y17615181D02*
X60113095Y17662800D01*
X60113095Y17662800D02*
X60065476Y17710420D01*
X61017857Y18615181D02*
X61636904Y18615181D01*
X61636904Y18615181D02*
X61303571Y18234229D01*
X61303571Y18234229D02*
X61446428Y18234229D01*
X61446428Y18234229D02*
X61541666Y18186610D01*
X61541666Y18186610D02*
X61589285Y18138991D01*
X61589285Y18138991D02*
X61636904Y18043753D01*
X61636904Y18043753D02*
X61636904Y17805658D01*
X61636904Y17805658D02*
X61589285Y17710420D01*
X61589285Y17710420D02*
X61541666Y17662800D01*
X61541666Y17662800D02*
X61446428Y17615181D01*
X61446428Y17615181D02*
X61160714Y17615181D01*
X61160714Y17615181D02*
X61065476Y17662800D01*
X61065476Y17662800D02*
X61017857Y17710420D01*
X62636904Y17615181D02*
X62303571Y18091372D01*
X62065476Y17615181D02*
X62065476Y18615181D01*
X62065476Y18615181D02*
X62446428Y18615181D01*
X62446428Y18615181D02*
X62541666Y18567562D01*
X62541666Y18567562D02*
X62589285Y18519943D01*
X62589285Y18519943D02*
X62636904Y18424705D01*
X62636904Y18424705D02*
X62636904Y18281848D01*
X62636904Y18281848D02*
X62589285Y18186610D01*
X62589285Y18186610D02*
X62541666Y18138991D01*
X62541666Y18138991D02*
X62446428Y18091372D01*
X62446428Y18091372D02*
X62065476Y18091372D01*
D11*
X61308333Y19318073D02*
X61175000Y19508549D01*
X61079762Y19318073D02*
X61079762Y19718073D01*
X61079762Y19718073D02*
X61232143Y19718073D01*
X61232143Y19718073D02*
X61270238Y19699025D01*
X61270238Y19699025D02*
X61289285Y19679978D01*
X61289285Y19679978D02*
X61308333Y19641882D01*
X61308333Y19641882D02*
X61308333Y19584740D01*
X61308333Y19584740D02*
X61289285Y19546644D01*
X61289285Y19546644D02*
X61270238Y19527597D01*
X61270238Y19527597D02*
X61232143Y19508549D01*
X61232143Y19508549D02*
X61079762Y19508549D01*
X61460714Y19679978D02*
X61479762Y19699025D01*
X61479762Y19699025D02*
X61517857Y19718073D01*
X61517857Y19718073D02*
X61613095Y19718073D01*
X61613095Y19718073D02*
X61651190Y19699025D01*
X61651190Y19699025D02*
X61670238Y19679978D01*
X61670238Y19679978D02*
X61689285Y19641882D01*
X61689285Y19641882D02*
X61689285Y19603787D01*
X61689285Y19603787D02*
X61670238Y19546644D01*
X61670238Y19546644D02*
X61441666Y19318073D01*
X61441666Y19318073D02*
X61689285Y19318073D01*
D10*
X7719047Y89468991D02*
X7385714Y89468991D01*
X7385714Y88945181D02*
X7385714Y89945181D01*
X7385714Y89945181D02*
X7861904Y89945181D01*
X8242857Y88945181D02*
X8242857Y89611848D01*
X8242857Y89945181D02*
X8195238Y89897562D01*
X8195238Y89897562D02*
X8242857Y89849943D01*
X8242857Y89849943D02*
X8290476Y89897562D01*
X8290476Y89897562D02*
X8242857Y89945181D01*
X8242857Y89945181D02*
X8242857Y89849943D01*
X9147618Y88945181D02*
X9147618Y89945181D01*
X9147618Y88992800D02*
X9052380Y88945181D01*
X9052380Y88945181D02*
X8861904Y88945181D01*
X8861904Y88945181D02*
X8766666Y88992800D01*
X8766666Y88992800D02*
X8719047Y89040420D01*
X8719047Y89040420D02*
X8671428Y89135658D01*
X8671428Y89135658D02*
X8671428Y89421372D01*
X8671428Y89421372D02*
X8719047Y89516610D01*
X8719047Y89516610D02*
X8766666Y89564229D01*
X8766666Y89564229D02*
X8861904Y89611848D01*
X8861904Y89611848D02*
X9052380Y89611848D01*
X9052380Y89611848D02*
X9147618Y89564229D01*
X10052380Y89611848D02*
X10052380Y88945181D01*
X9623809Y89611848D02*
X9623809Y89088039D01*
X9623809Y89088039D02*
X9671428Y88992800D01*
X9671428Y88992800D02*
X9766666Y88945181D01*
X9766666Y88945181D02*
X9909523Y88945181D01*
X9909523Y88945181D02*
X10004761Y88992800D01*
X10004761Y88992800D02*
X10052380Y89040420D01*
X10957142Y88992800D02*
X10861904Y88945181D01*
X10861904Y88945181D02*
X10671428Y88945181D01*
X10671428Y88945181D02*
X10576190Y88992800D01*
X10576190Y88992800D02*
X10528571Y89040420D01*
X10528571Y89040420D02*
X10480952Y89135658D01*
X10480952Y89135658D02*
X10480952Y89421372D01*
X10480952Y89421372D02*
X10528571Y89516610D01*
X10528571Y89516610D02*
X10576190Y89564229D01*
X10576190Y89564229D02*
X10671428Y89611848D01*
X10671428Y89611848D02*
X10861904Y89611848D01*
X10861904Y89611848D02*
X10957142Y89564229D01*
X11385714Y88945181D02*
X11385714Y89611848D01*
X11385714Y89945181D02*
X11338095Y89897562D01*
X11338095Y89897562D02*
X11385714Y89849943D01*
X11385714Y89849943D02*
X11433333Y89897562D01*
X11433333Y89897562D02*
X11385714Y89945181D01*
X11385714Y89945181D02*
X11385714Y89849943D01*
X12290475Y88945181D02*
X12290475Y89468991D01*
X12290475Y89468991D02*
X12242856Y89564229D01*
X12242856Y89564229D02*
X12147618Y89611848D01*
X12147618Y89611848D02*
X11957142Y89611848D01*
X11957142Y89611848D02*
X11861904Y89564229D01*
X12290475Y88992800D02*
X12195237Y88945181D01*
X12195237Y88945181D02*
X11957142Y88945181D01*
X11957142Y88945181D02*
X11861904Y88992800D01*
X11861904Y88992800D02*
X11814285Y89088039D01*
X11814285Y89088039D02*
X11814285Y89183277D01*
X11814285Y89183277D02*
X11861904Y89278515D01*
X11861904Y89278515D02*
X11957142Y89326134D01*
X11957142Y89326134D02*
X12195237Y89326134D01*
X12195237Y89326134D02*
X12290475Y89373753D01*
X12909523Y88945181D02*
X12814285Y88992800D01*
X12814285Y88992800D02*
X12766666Y89088039D01*
X12766666Y89088039D02*
X12766666Y89945181D01*
D11*
X9671429Y91427597D02*
X9538096Y91427597D01*
X9538096Y91218073D02*
X9538096Y91618073D01*
X9538096Y91618073D02*
X9728572Y91618073D01*
X9880953Y91218073D02*
X9880953Y91618073D01*
X10071429Y91218073D02*
X10071429Y91618073D01*
X10071429Y91618073D02*
X10166667Y91618073D01*
X10166667Y91618073D02*
X10223810Y91599025D01*
X10223810Y91599025D02*
X10261905Y91560930D01*
X10261905Y91560930D02*
X10280952Y91522835D01*
X10280952Y91522835D02*
X10300000Y91446644D01*
X10300000Y91446644D02*
X10300000Y91389501D01*
X10300000Y91389501D02*
X10280952Y91313311D01*
X10280952Y91313311D02*
X10261905Y91275216D01*
X10261905Y91275216D02*
X10223810Y91237120D01*
X10223810Y91237120D02*
X10166667Y91218073D01*
X10166667Y91218073D02*
X10071429Y91218073D01*
X10680952Y91218073D02*
X10452381Y91218073D01*
X10566667Y91218073D02*
X10566667Y91618073D01*
X10566667Y91618073D02*
X10528571Y91560930D01*
X10528571Y91560930D02*
X10490476Y91522835D01*
X10490476Y91522835D02*
X10452381Y91503787D01*
D10*
X54522076Y27381D02*
X54760171Y-972619D01*
X54760171Y-972619D02*
X54950647Y-258333D01*
X54950647Y-258333D02*
X55141123Y-972619D01*
X55141123Y-972619D02*
X55379219Y27381D01*
X55712552Y-925000D02*
X55855409Y-972619D01*
X55855409Y-972619D02*
X56093504Y-972619D01*
X56093504Y-972619D02*
X56188742Y-925000D01*
X56188742Y-925000D02*
X56236361Y-877380D01*
X56236361Y-877380D02*
X56283980Y-782142D01*
X56283980Y-782142D02*
X56283980Y-686904D01*
X56283980Y-686904D02*
X56236361Y-591666D01*
X56236361Y-591666D02*
X56188742Y-544047D01*
X56188742Y-544047D02*
X56093504Y-496428D01*
X56093504Y-496428D02*
X55903028Y-448809D01*
X55903028Y-448809D02*
X55807790Y-401190D01*
X55807790Y-401190D02*
X55760171Y-353571D01*
X55760171Y-353571D02*
X55712552Y-258333D01*
X55712552Y-258333D02*
X55712552Y-163095D01*
X55712552Y-163095D02*
X55760171Y-67857D01*
X55760171Y-67857D02*
X55807790Y-20238D01*
X55807790Y-20238D02*
X55903028Y27381D01*
X55903028Y27381D02*
X56141123Y27381D01*
X56141123Y27381D02*
X56283980Y-20238D01*
X56664933Y-67857D02*
X56712552Y-20238D01*
X56712552Y-20238D02*
X56807790Y27381D01*
X56807790Y27381D02*
X57045885Y27381D01*
X57045885Y27381D02*
X57141123Y-20238D01*
X57141123Y-20238D02*
X57188742Y-67857D01*
X57188742Y-67857D02*
X57236361Y-163095D01*
X57236361Y-163095D02*
X57236361Y-258333D01*
X57236361Y-258333D02*
X57188742Y-401190D01*
X57188742Y-401190D02*
X56617314Y-972619D01*
X56617314Y-972619D02*
X57236361Y-972619D01*
X57807790Y-401190D02*
X57712552Y-353571D01*
X57712552Y-353571D02*
X57664933Y-305952D01*
X57664933Y-305952D02*
X57617314Y-210714D01*
X57617314Y-210714D02*
X57617314Y-163095D01*
X57617314Y-163095D02*
X57664933Y-67857D01*
X57664933Y-67857D02*
X57712552Y-20238D01*
X57712552Y-20238D02*
X57807790Y27381D01*
X57807790Y27381D02*
X57998266Y27381D01*
X57998266Y27381D02*
X58093504Y-20238D01*
X58093504Y-20238D02*
X58141123Y-67857D01*
X58141123Y-67857D02*
X58188742Y-163095D01*
X58188742Y-163095D02*
X58188742Y-210714D01*
X58188742Y-210714D02*
X58141123Y-305952D01*
X58141123Y-305952D02*
X58093504Y-353571D01*
X58093504Y-353571D02*
X57998266Y-401190D01*
X57998266Y-401190D02*
X57807790Y-401190D01*
X57807790Y-401190D02*
X57712552Y-448809D01*
X57712552Y-448809D02*
X57664933Y-496428D01*
X57664933Y-496428D02*
X57617314Y-591666D01*
X57617314Y-591666D02*
X57617314Y-782142D01*
X57617314Y-782142D02*
X57664933Y-877380D01*
X57664933Y-877380D02*
X57712552Y-925000D01*
X57712552Y-925000D02*
X57807790Y-972619D01*
X57807790Y-972619D02*
X57998266Y-972619D01*
X57998266Y-972619D02*
X58093504Y-925000D01*
X58093504Y-925000D02*
X58141123Y-877380D01*
X58141123Y-877380D02*
X58188742Y-782142D01*
X58188742Y-782142D02*
X58188742Y-591666D01*
X58188742Y-591666D02*
X58141123Y-496428D01*
X58141123Y-496428D02*
X58093504Y-448809D01*
X58093504Y-448809D02*
X57998266Y-401190D01*
X59141123Y-972619D02*
X58569695Y-972619D01*
X58855409Y-972619D02*
X58855409Y27381D01*
X58855409Y27381D02*
X58760171Y-115476D01*
X58760171Y-115476D02*
X58664933Y-210714D01*
X58664933Y-210714D02*
X58569695Y-258333D01*
X59522076Y-67857D02*
X59569695Y-20238D01*
X59569695Y-20238D02*
X59664933Y27381D01*
X59664933Y27381D02*
X59903028Y27381D01*
X59903028Y27381D02*
X59998266Y-20238D01*
X59998266Y-20238D02*
X60045885Y-67857D01*
X60045885Y-67857D02*
X60093504Y-163095D01*
X60093504Y-163095D02*
X60093504Y-258333D01*
X60093504Y-258333D02*
X60045885Y-401190D01*
X60045885Y-401190D02*
X59474457Y-972619D01*
X59474457Y-972619D02*
X60093504Y-972619D01*
X60855409Y-448809D02*
X60998266Y-496428D01*
X60998266Y-496428D02*
X61045885Y-544047D01*
X61045885Y-544047D02*
X61093504Y-639285D01*
X61093504Y-639285D02*
X61093504Y-782142D01*
X61093504Y-782142D02*
X61045885Y-877380D01*
X61045885Y-877380D02*
X60998266Y-925000D01*
X60998266Y-925000D02*
X60903028Y-972619D01*
X60903028Y-972619D02*
X60522076Y-972619D01*
X60522076Y-972619D02*
X60522076Y27381D01*
X60522076Y27381D02*
X60855409Y27381D01*
X60855409Y27381D02*
X60950647Y-20238D01*
X60950647Y-20238D02*
X60998266Y-67857D01*
X60998266Y-67857D02*
X61045885Y-163095D01*
X61045885Y-163095D02*
X61045885Y-258333D01*
X61045885Y-258333D02*
X60998266Y-353571D01*
X60998266Y-353571D02*
X60950647Y-401190D01*
X60950647Y-401190D02*
X60855409Y-448809D01*
X60855409Y-448809D02*
X60522076Y-448809D01*
X84604819Y85634524D02*
X84604819Y85063096D01*
X84604819Y85348810D02*
X83604819Y85348810D01*
X83604819Y85348810D02*
X83747676Y85253572D01*
X83747676Y85253572D02*
X83842914Y85158334D01*
X83842914Y85158334D02*
X83890533Y85063096D01*
X83938152Y86491667D02*
X84604819Y86491667D01*
X83938152Y86063096D02*
X84461961Y86063096D01*
X84461961Y86063096D02*
X84557200Y86110715D01*
X84557200Y86110715D02*
X84604819Y86205953D01*
X84604819Y86205953D02*
X84604819Y86348810D01*
X84604819Y86348810D02*
X84557200Y86444048D01*
X84557200Y86444048D02*
X84509580Y86491667D01*
X84604819Y86967858D02*
X83604819Y86967858D01*
X84081009Y86967858D02*
X84081009Y87539286D01*
X84604819Y87539286D02*
X83604819Y87539286D01*
D13*
X86482143Y86221668D02*
X86482143Y85926430D01*
X86482143Y85926430D02*
X85862143Y85926430D01*
X86482143Y86753096D02*
X86482143Y86398811D01*
X86482143Y86575954D02*
X85862143Y86575954D01*
X85862143Y86575954D02*
X85950715Y86516906D01*
X85950715Y86516906D02*
X86009762Y86457858D01*
X86009762Y86457858D02*
X86039286Y86398811D01*
D10*
X81802076Y27381D02*
X82040171Y-972619D01*
X82040171Y-972619D02*
X82230647Y-258333D01*
X82230647Y-258333D02*
X82421123Y-972619D01*
X82421123Y-972619D02*
X82659219Y27381D01*
X82992552Y-925000D02*
X83135409Y-972619D01*
X83135409Y-972619D02*
X83373504Y-972619D01*
X83373504Y-972619D02*
X83468742Y-925000D01*
X83468742Y-925000D02*
X83516361Y-877380D01*
X83516361Y-877380D02*
X83563980Y-782142D01*
X83563980Y-782142D02*
X83563980Y-686904D01*
X83563980Y-686904D02*
X83516361Y-591666D01*
X83516361Y-591666D02*
X83468742Y-544047D01*
X83468742Y-544047D02*
X83373504Y-496428D01*
X83373504Y-496428D02*
X83183028Y-448809D01*
X83183028Y-448809D02*
X83087790Y-401190D01*
X83087790Y-401190D02*
X83040171Y-353571D01*
X83040171Y-353571D02*
X82992552Y-258333D01*
X82992552Y-258333D02*
X82992552Y-163095D01*
X82992552Y-163095D02*
X83040171Y-67857D01*
X83040171Y-67857D02*
X83087790Y-20238D01*
X83087790Y-20238D02*
X83183028Y27381D01*
X83183028Y27381D02*
X83421123Y27381D01*
X83421123Y27381D02*
X83563980Y-20238D01*
X83944933Y-67857D02*
X83992552Y-20238D01*
X83992552Y-20238D02*
X84087790Y27381D01*
X84087790Y27381D02*
X84325885Y27381D01*
X84325885Y27381D02*
X84421123Y-20238D01*
X84421123Y-20238D02*
X84468742Y-67857D01*
X84468742Y-67857D02*
X84516361Y-163095D01*
X84516361Y-163095D02*
X84516361Y-258333D01*
X84516361Y-258333D02*
X84468742Y-401190D01*
X84468742Y-401190D02*
X83897314Y-972619D01*
X83897314Y-972619D02*
X84516361Y-972619D01*
X85087790Y-401190D02*
X84992552Y-353571D01*
X84992552Y-353571D02*
X84944933Y-305952D01*
X84944933Y-305952D02*
X84897314Y-210714D01*
X84897314Y-210714D02*
X84897314Y-163095D01*
X84897314Y-163095D02*
X84944933Y-67857D01*
X84944933Y-67857D02*
X84992552Y-20238D01*
X84992552Y-20238D02*
X85087790Y27381D01*
X85087790Y27381D02*
X85278266Y27381D01*
X85278266Y27381D02*
X85373504Y-20238D01*
X85373504Y-20238D02*
X85421123Y-67857D01*
X85421123Y-67857D02*
X85468742Y-163095D01*
X85468742Y-163095D02*
X85468742Y-210714D01*
X85468742Y-210714D02*
X85421123Y-305952D01*
X85421123Y-305952D02*
X85373504Y-353571D01*
X85373504Y-353571D02*
X85278266Y-401190D01*
X85278266Y-401190D02*
X85087790Y-401190D01*
X85087790Y-401190D02*
X84992552Y-448809D01*
X84992552Y-448809D02*
X84944933Y-496428D01*
X84944933Y-496428D02*
X84897314Y-591666D01*
X84897314Y-591666D02*
X84897314Y-782142D01*
X84897314Y-782142D02*
X84944933Y-877380D01*
X84944933Y-877380D02*
X84992552Y-925000D01*
X84992552Y-925000D02*
X85087790Y-972619D01*
X85087790Y-972619D02*
X85278266Y-972619D01*
X85278266Y-972619D02*
X85373504Y-925000D01*
X85373504Y-925000D02*
X85421123Y-877380D01*
X85421123Y-877380D02*
X85468742Y-782142D01*
X85468742Y-782142D02*
X85468742Y-591666D01*
X85468742Y-591666D02*
X85421123Y-496428D01*
X85421123Y-496428D02*
X85373504Y-448809D01*
X85373504Y-448809D02*
X85278266Y-401190D01*
X86421123Y-972619D02*
X85849695Y-972619D01*
X86135409Y-972619D02*
X86135409Y27381D01*
X86135409Y27381D02*
X86040171Y-115476D01*
X86040171Y-115476D02*
X85944933Y-210714D01*
X85944933Y-210714D02*
X85849695Y-258333D01*
X86802076Y-67857D02*
X86849695Y-20238D01*
X86849695Y-20238D02*
X86944933Y27381D01*
X86944933Y27381D02*
X87183028Y27381D01*
X87183028Y27381D02*
X87278266Y-20238D01*
X87278266Y-20238D02*
X87325885Y-67857D01*
X87325885Y-67857D02*
X87373504Y-163095D01*
X87373504Y-163095D02*
X87373504Y-258333D01*
X87373504Y-258333D02*
X87325885Y-401190D01*
X87325885Y-401190D02*
X86754457Y-972619D01*
X86754457Y-972619D02*
X87373504Y-972619D01*
X88135409Y-448809D02*
X88278266Y-496428D01*
X88278266Y-496428D02*
X88325885Y-544047D01*
X88325885Y-544047D02*
X88373504Y-639285D01*
X88373504Y-639285D02*
X88373504Y-782142D01*
X88373504Y-782142D02*
X88325885Y-877380D01*
X88325885Y-877380D02*
X88278266Y-925000D01*
X88278266Y-925000D02*
X88183028Y-972619D01*
X88183028Y-972619D02*
X87802076Y-972619D01*
X87802076Y-972619D02*
X87802076Y27381D01*
X87802076Y27381D02*
X88135409Y27381D01*
X88135409Y27381D02*
X88230647Y-20238D01*
X88230647Y-20238D02*
X88278266Y-67857D01*
X88278266Y-67857D02*
X88325885Y-163095D01*
X88325885Y-163095D02*
X88325885Y-258333D01*
X88325885Y-258333D02*
X88278266Y-353571D01*
X88278266Y-353571D02*
X88230647Y-401190D01*
X88230647Y-401190D02*
X88135409Y-448809D01*
X88135409Y-448809D02*
X87802076Y-448809D01*
X84307200Y53241944D02*
X84354819Y53384801D01*
X84354819Y53384801D02*
X84354819Y53622896D01*
X84354819Y53622896D02*
X84307200Y53718134D01*
X84307200Y53718134D02*
X84259580Y53765753D01*
X84259580Y53765753D02*
X84164342Y53813372D01*
X84164342Y53813372D02*
X84069104Y53813372D01*
X84069104Y53813372D02*
X83973866Y53765753D01*
X83973866Y53765753D02*
X83926247Y53718134D01*
X83926247Y53718134D02*
X83878628Y53622896D01*
X83878628Y53622896D02*
X83831009Y53432420D01*
X83831009Y53432420D02*
X83783390Y53337182D01*
X83783390Y53337182D02*
X83735771Y53289563D01*
X83735771Y53289563D02*
X83640533Y53241944D01*
X83640533Y53241944D02*
X83545295Y53241944D01*
X83545295Y53241944D02*
X83450057Y53289563D01*
X83450057Y53289563D02*
X83402438Y53337182D01*
X83402438Y53337182D02*
X83354819Y53432420D01*
X83354819Y53432420D02*
X83354819Y53670515D01*
X83354819Y53670515D02*
X83402438Y53813372D01*
X83688152Y54241944D02*
X84688152Y54241944D01*
X83735771Y54241944D02*
X83688152Y54337182D01*
X83688152Y54337182D02*
X83688152Y54527658D01*
X83688152Y54527658D02*
X83735771Y54622896D01*
X83735771Y54622896D02*
X83783390Y54670515D01*
X83783390Y54670515D02*
X83878628Y54718134D01*
X83878628Y54718134D02*
X84164342Y54718134D01*
X84164342Y54718134D02*
X84259580Y54670515D01*
X84259580Y54670515D02*
X84307200Y54622896D01*
X84307200Y54622896D02*
X84354819Y54527658D01*
X84354819Y54527658D02*
X84354819Y54337182D01*
X84354819Y54337182D02*
X84307200Y54241944D01*
X84307200Y55527658D02*
X84354819Y55432420D01*
X84354819Y55432420D02*
X84354819Y55241944D01*
X84354819Y55241944D02*
X84307200Y55146706D01*
X84307200Y55146706D02*
X84211961Y55099087D01*
X84211961Y55099087D02*
X83831009Y55099087D01*
X83831009Y55099087D02*
X83735771Y55146706D01*
X83735771Y55146706D02*
X83688152Y55241944D01*
X83688152Y55241944D02*
X83688152Y55432420D01*
X83688152Y55432420D02*
X83735771Y55527658D01*
X83735771Y55527658D02*
X83831009Y55575277D01*
X83831009Y55575277D02*
X83926247Y55575277D01*
X83926247Y55575277D02*
X84021485Y55099087D01*
X84354819Y56432420D02*
X83831009Y56432420D01*
X83831009Y56432420D02*
X83735771Y56384801D01*
X83735771Y56384801D02*
X83688152Y56289563D01*
X83688152Y56289563D02*
X83688152Y56099087D01*
X83688152Y56099087D02*
X83735771Y56003849D01*
X84307200Y56432420D02*
X84354819Y56337182D01*
X84354819Y56337182D02*
X84354819Y56099087D01*
X84354819Y56099087D02*
X84307200Y56003849D01*
X84307200Y56003849D02*
X84211961Y55956230D01*
X84211961Y55956230D02*
X84116723Y55956230D01*
X84116723Y55956230D02*
X84021485Y56003849D01*
X84021485Y56003849D02*
X83973866Y56099087D01*
X83973866Y56099087D02*
X83973866Y56337182D01*
X83973866Y56337182D02*
X83926247Y56432420D01*
X84354819Y56908611D02*
X83354819Y56908611D01*
X83973866Y57003849D02*
X84354819Y57289563D01*
X83688152Y57289563D02*
X84069104Y56908611D01*
X84307200Y58099087D02*
X84354819Y58003849D01*
X84354819Y58003849D02*
X84354819Y57813373D01*
X84354819Y57813373D02*
X84307200Y57718135D01*
X84307200Y57718135D02*
X84211961Y57670516D01*
X84211961Y57670516D02*
X83831009Y57670516D01*
X83831009Y57670516D02*
X83735771Y57718135D01*
X83735771Y57718135D02*
X83688152Y57813373D01*
X83688152Y57813373D02*
X83688152Y58003849D01*
X83688152Y58003849D02*
X83735771Y58099087D01*
X83735771Y58099087D02*
X83831009Y58146706D01*
X83831009Y58146706D02*
X83926247Y58146706D01*
X83926247Y58146706D02*
X84021485Y57670516D01*
X84354819Y58575278D02*
X83688152Y58575278D01*
X83878628Y58575278D02*
X83783390Y58622897D01*
X83783390Y58622897D02*
X83735771Y58670516D01*
X83735771Y58670516D02*
X83688152Y58765754D01*
X83688152Y58765754D02*
X83688152Y58860992D01*
X15250000Y62677705D02*
X15250000Y63477705D01*
X15630952Y62677705D02*
X15630952Y63477705D01*
X15630952Y63477705D02*
X16088095Y62677705D01*
X16088095Y62677705D02*
X16088095Y63477705D01*
X16469047Y62677705D02*
X16469047Y63477705D01*
X16469047Y63477705D02*
X16735713Y62906277D01*
X16735713Y62906277D02*
X17002380Y63477705D01*
X17002380Y63477705D02*
X17002380Y62677705D01*
X17383333Y62677705D02*
X17383333Y63477705D01*
X17383333Y63477705D02*
X17688095Y63477705D01*
X17688095Y63477705D02*
X17764285Y63439610D01*
X17764285Y63439610D02*
X17802380Y63401515D01*
X17802380Y63401515D02*
X17840476Y63325324D01*
X17840476Y63325324D02*
X17840476Y63211039D01*
X17840476Y63211039D02*
X17802380Y63134848D01*
X17802380Y63134848D02*
X17764285Y63096753D01*
X17764285Y63096753D02*
X17688095Y63058658D01*
X17688095Y63058658D02*
X17383333Y63058658D01*
X18526190Y63211039D02*
X18526190Y62677705D01*
X18335714Y63515800D02*
X18145237Y62944372D01*
X18145237Y62944372D02*
X18640476Y62944372D01*
X19288095Y63211039D02*
X19288095Y62677705D01*
X19097619Y63515800D02*
X18907142Y62944372D01*
X18907142Y62944372D02*
X19402381Y62944372D01*
X20050000Y63211039D02*
X20050000Y62677705D01*
X19859524Y63515800D02*
X19669047Y62944372D01*
X19669047Y62944372D02*
X20164286Y62944372D01*
X20888095Y62677705D02*
X20430952Y62677705D01*
X20659524Y62677705D02*
X20659524Y63477705D01*
X20659524Y63477705D02*
X20583333Y63363420D01*
X20583333Y63363420D02*
X20507143Y63287229D01*
X20507143Y63287229D02*
X20430952Y63249134D01*
X40182143Y18615181D02*
X40277381Y18615181D01*
X40277381Y18615181D02*
X40372619Y18567562D01*
X40372619Y18567562D02*
X40420238Y18519943D01*
X40420238Y18519943D02*
X40467857Y18424705D01*
X40467857Y18424705D02*
X40515476Y18234229D01*
X40515476Y18234229D02*
X40515476Y17996134D01*
X40515476Y17996134D02*
X40467857Y17805658D01*
X40467857Y17805658D02*
X40420238Y17710420D01*
X40420238Y17710420D02*
X40372619Y17662800D01*
X40372619Y17662800D02*
X40277381Y17615181D01*
X40277381Y17615181D02*
X40182143Y17615181D01*
X40182143Y17615181D02*
X40086905Y17662800D01*
X40086905Y17662800D02*
X40039286Y17710420D01*
X40039286Y17710420D02*
X39991667Y17805658D01*
X39991667Y17805658D02*
X39944048Y17996134D01*
X39944048Y17996134D02*
X39944048Y18234229D01*
X39944048Y18234229D02*
X39991667Y18424705D01*
X39991667Y18424705D02*
X40039286Y18519943D01*
X40039286Y18519943D02*
X40086905Y18567562D01*
X40086905Y18567562D02*
X40182143Y18615181D01*
X40944048Y17710420D02*
X40991667Y17662800D01*
X40991667Y17662800D02*
X40944048Y17615181D01*
X40944048Y17615181D02*
X40896429Y17662800D01*
X40896429Y17662800D02*
X40944048Y17710420D01*
X40944048Y17710420D02*
X40944048Y17615181D01*
X41944047Y17615181D02*
X41372619Y17615181D01*
X41658333Y17615181D02*
X41658333Y18615181D01*
X41658333Y18615181D02*
X41563095Y18472324D01*
X41563095Y18472324D02*
X41467857Y18377086D01*
X41467857Y18377086D02*
X41372619Y18329467D01*
X42801190Y18281848D02*
X42801190Y17615181D01*
X42372619Y18281848D02*
X42372619Y17758039D01*
X42372619Y17758039D02*
X42420238Y17662800D01*
X42420238Y17662800D02*
X42515476Y17615181D01*
X42515476Y17615181D02*
X42658333Y17615181D01*
X42658333Y17615181D02*
X42753571Y17662800D01*
X42753571Y17662800D02*
X42801190Y17710420D01*
X43610714Y18138991D02*
X43277381Y18138991D01*
X43277381Y17615181D02*
X43277381Y18615181D01*
X43277381Y18615181D02*
X43753571Y18615181D01*
D11*
X41758333Y19356168D02*
X41739285Y19337120D01*
X41739285Y19337120D02*
X41682143Y19318073D01*
X41682143Y19318073D02*
X41644047Y19318073D01*
X41644047Y19318073D02*
X41586904Y19337120D01*
X41586904Y19337120D02*
X41548809Y19375216D01*
X41548809Y19375216D02*
X41529762Y19413311D01*
X41529762Y19413311D02*
X41510714Y19489501D01*
X41510714Y19489501D02*
X41510714Y19546644D01*
X41510714Y19546644D02*
X41529762Y19622835D01*
X41529762Y19622835D02*
X41548809Y19660930D01*
X41548809Y19660930D02*
X41586904Y19699025D01*
X41586904Y19699025D02*
X41644047Y19718073D01*
X41644047Y19718073D02*
X41682143Y19718073D01*
X41682143Y19718073D02*
X41739285Y19699025D01*
X41739285Y19699025D02*
X41758333Y19679978D01*
X42101190Y19584740D02*
X42101190Y19318073D01*
X42005952Y19737120D02*
X41910714Y19451406D01*
X41910714Y19451406D02*
X42158333Y19451406D01*
D10*
X80653571Y87515181D02*
X80082143Y87515181D01*
X80367857Y87515181D02*
X80367857Y88515181D01*
X80367857Y88515181D02*
X80272619Y88372324D01*
X80272619Y88372324D02*
X80177381Y88277086D01*
X80177381Y88277086D02*
X80082143Y88229467D01*
X81272619Y88515181D02*
X81367857Y88515181D01*
X81367857Y88515181D02*
X81463095Y88467562D01*
X81463095Y88467562D02*
X81510714Y88419943D01*
X81510714Y88419943D02*
X81558333Y88324705D01*
X81558333Y88324705D02*
X81605952Y88134229D01*
X81605952Y88134229D02*
X81605952Y87896134D01*
X81605952Y87896134D02*
X81558333Y87705658D01*
X81558333Y87705658D02*
X81510714Y87610420D01*
X81510714Y87610420D02*
X81463095Y87562800D01*
X81463095Y87562800D02*
X81367857Y87515181D01*
X81367857Y87515181D02*
X81272619Y87515181D01*
X81272619Y87515181D02*
X81177381Y87562800D01*
X81177381Y87562800D02*
X81129762Y87610420D01*
X81129762Y87610420D02*
X81082143Y87705658D01*
X81082143Y87705658D02*
X81034524Y87896134D01*
X81034524Y87896134D02*
X81034524Y88134229D01*
X81034524Y88134229D02*
X81082143Y88324705D01*
X81082143Y88324705D02*
X81129762Y88419943D01*
X81129762Y88419943D02*
X81177381Y88467562D01*
X81177381Y88467562D02*
X81272619Y88515181D01*
X82463095Y88181848D02*
X82463095Y87515181D01*
X82034524Y88181848D02*
X82034524Y87658039D01*
X82034524Y87658039D02*
X82082143Y87562800D01*
X82082143Y87562800D02*
X82177381Y87515181D01*
X82177381Y87515181D02*
X82320238Y87515181D01*
X82320238Y87515181D02*
X82415476Y87562800D01*
X82415476Y87562800D02*
X82463095Y87610420D01*
X83272619Y88038991D02*
X82939286Y88038991D01*
X82939286Y87515181D02*
X82939286Y88515181D01*
X82939286Y88515181D02*
X83415476Y88515181D01*
D11*
X81658333Y89256168D02*
X81639285Y89237120D01*
X81639285Y89237120D02*
X81582143Y89218073D01*
X81582143Y89218073D02*
X81544047Y89218073D01*
X81544047Y89218073D02*
X81486904Y89237120D01*
X81486904Y89237120D02*
X81448809Y89275216D01*
X81448809Y89275216D02*
X81429762Y89313311D01*
X81429762Y89313311D02*
X81410714Y89389501D01*
X81410714Y89389501D02*
X81410714Y89446644D01*
X81410714Y89446644D02*
X81429762Y89522835D01*
X81429762Y89522835D02*
X81448809Y89560930D01*
X81448809Y89560930D02*
X81486904Y89599025D01*
X81486904Y89599025D02*
X81544047Y89618073D01*
X81544047Y89618073D02*
X81582143Y89618073D01*
X81582143Y89618073D02*
X81639285Y89599025D01*
X81639285Y89599025D02*
X81658333Y89579978D01*
X81810714Y89579978D02*
X81829762Y89599025D01*
X81829762Y89599025D02*
X81867857Y89618073D01*
X81867857Y89618073D02*
X81963095Y89618073D01*
X81963095Y89618073D02*
X82001190Y89599025D01*
X82001190Y89599025D02*
X82020238Y89579978D01*
X82020238Y89579978D02*
X82039285Y89541882D01*
X82039285Y89541882D02*
X82039285Y89503787D01*
X82039285Y89503787D02*
X82020238Y89446644D01*
X82020238Y89446644D02*
X81791666Y89218073D01*
X81791666Y89218073D02*
X82039285Y89218073D01*
D10*
X40882076Y27381D02*
X41120171Y-972619D01*
X41120171Y-972619D02*
X41310647Y-258333D01*
X41310647Y-258333D02*
X41501123Y-972619D01*
X41501123Y-972619D02*
X41739219Y27381D01*
X42072552Y-925000D02*
X42215409Y-972619D01*
X42215409Y-972619D02*
X42453504Y-972619D01*
X42453504Y-972619D02*
X42548742Y-925000D01*
X42548742Y-925000D02*
X42596361Y-877380D01*
X42596361Y-877380D02*
X42643980Y-782142D01*
X42643980Y-782142D02*
X42643980Y-686904D01*
X42643980Y-686904D02*
X42596361Y-591666D01*
X42596361Y-591666D02*
X42548742Y-544047D01*
X42548742Y-544047D02*
X42453504Y-496428D01*
X42453504Y-496428D02*
X42263028Y-448809D01*
X42263028Y-448809D02*
X42167790Y-401190D01*
X42167790Y-401190D02*
X42120171Y-353571D01*
X42120171Y-353571D02*
X42072552Y-258333D01*
X42072552Y-258333D02*
X42072552Y-163095D01*
X42072552Y-163095D02*
X42120171Y-67857D01*
X42120171Y-67857D02*
X42167790Y-20238D01*
X42167790Y-20238D02*
X42263028Y27381D01*
X42263028Y27381D02*
X42501123Y27381D01*
X42501123Y27381D02*
X42643980Y-20238D01*
X43024933Y-67857D02*
X43072552Y-20238D01*
X43072552Y-20238D02*
X43167790Y27381D01*
X43167790Y27381D02*
X43405885Y27381D01*
X43405885Y27381D02*
X43501123Y-20238D01*
X43501123Y-20238D02*
X43548742Y-67857D01*
X43548742Y-67857D02*
X43596361Y-163095D01*
X43596361Y-163095D02*
X43596361Y-258333D01*
X43596361Y-258333D02*
X43548742Y-401190D01*
X43548742Y-401190D02*
X42977314Y-972619D01*
X42977314Y-972619D02*
X43596361Y-972619D01*
X44167790Y-401190D02*
X44072552Y-353571D01*
X44072552Y-353571D02*
X44024933Y-305952D01*
X44024933Y-305952D02*
X43977314Y-210714D01*
X43977314Y-210714D02*
X43977314Y-163095D01*
X43977314Y-163095D02*
X44024933Y-67857D01*
X44024933Y-67857D02*
X44072552Y-20238D01*
X44072552Y-20238D02*
X44167790Y27381D01*
X44167790Y27381D02*
X44358266Y27381D01*
X44358266Y27381D02*
X44453504Y-20238D01*
X44453504Y-20238D02*
X44501123Y-67857D01*
X44501123Y-67857D02*
X44548742Y-163095D01*
X44548742Y-163095D02*
X44548742Y-210714D01*
X44548742Y-210714D02*
X44501123Y-305952D01*
X44501123Y-305952D02*
X44453504Y-353571D01*
X44453504Y-353571D02*
X44358266Y-401190D01*
X44358266Y-401190D02*
X44167790Y-401190D01*
X44167790Y-401190D02*
X44072552Y-448809D01*
X44072552Y-448809D02*
X44024933Y-496428D01*
X44024933Y-496428D02*
X43977314Y-591666D01*
X43977314Y-591666D02*
X43977314Y-782142D01*
X43977314Y-782142D02*
X44024933Y-877380D01*
X44024933Y-877380D02*
X44072552Y-925000D01*
X44072552Y-925000D02*
X44167790Y-972619D01*
X44167790Y-972619D02*
X44358266Y-972619D01*
X44358266Y-972619D02*
X44453504Y-925000D01*
X44453504Y-925000D02*
X44501123Y-877380D01*
X44501123Y-877380D02*
X44548742Y-782142D01*
X44548742Y-782142D02*
X44548742Y-591666D01*
X44548742Y-591666D02*
X44501123Y-496428D01*
X44501123Y-496428D02*
X44453504Y-448809D01*
X44453504Y-448809D02*
X44358266Y-401190D01*
X45501123Y-972619D02*
X44929695Y-972619D01*
X45215409Y-972619D02*
X45215409Y27381D01*
X45215409Y27381D02*
X45120171Y-115476D01*
X45120171Y-115476D02*
X45024933Y-210714D01*
X45024933Y-210714D02*
X44929695Y-258333D01*
X45882076Y-67857D02*
X45929695Y-20238D01*
X45929695Y-20238D02*
X46024933Y27381D01*
X46024933Y27381D02*
X46263028Y27381D01*
X46263028Y27381D02*
X46358266Y-20238D01*
X46358266Y-20238D02*
X46405885Y-67857D01*
X46405885Y-67857D02*
X46453504Y-163095D01*
X46453504Y-163095D02*
X46453504Y-258333D01*
X46453504Y-258333D02*
X46405885Y-401190D01*
X46405885Y-401190D02*
X45834457Y-972619D01*
X45834457Y-972619D02*
X46453504Y-972619D01*
X47215409Y-448809D02*
X47358266Y-496428D01*
X47358266Y-496428D02*
X47405885Y-544047D01*
X47405885Y-544047D02*
X47453504Y-639285D01*
X47453504Y-639285D02*
X47453504Y-782142D01*
X47453504Y-782142D02*
X47405885Y-877380D01*
X47405885Y-877380D02*
X47358266Y-925000D01*
X47358266Y-925000D02*
X47263028Y-972619D01*
X47263028Y-972619D02*
X46882076Y-972619D01*
X46882076Y-972619D02*
X46882076Y27381D01*
X46882076Y27381D02*
X47215409Y27381D01*
X47215409Y27381D02*
X47310647Y-20238D01*
X47310647Y-20238D02*
X47358266Y-67857D01*
X47358266Y-67857D02*
X47405885Y-163095D01*
X47405885Y-163095D02*
X47405885Y-258333D01*
X47405885Y-258333D02*
X47358266Y-353571D01*
X47358266Y-353571D02*
X47310647Y-401190D01*
X47310647Y-401190D02*
X47215409Y-448809D01*
X47215409Y-448809D02*
X46882076Y-448809D01*
X100072619Y27067077D02*
X101072619Y27305172D01*
X101072619Y27305172D02*
X100358333Y27495648D01*
X100358333Y27495648D02*
X101072619Y27686124D01*
X101072619Y27686124D02*
X100072619Y27924219D01*
X101025000Y28257553D02*
X101072619Y28400410D01*
X101072619Y28400410D02*
X101072619Y28638505D01*
X101072619Y28638505D02*
X101025000Y28733743D01*
X101025000Y28733743D02*
X100977380Y28781362D01*
X100977380Y28781362D02*
X100882142Y28828981D01*
X100882142Y28828981D02*
X100786904Y28828981D01*
X100786904Y28828981D02*
X100691666Y28781362D01*
X100691666Y28781362D02*
X100644047Y28733743D01*
X100644047Y28733743D02*
X100596428Y28638505D01*
X100596428Y28638505D02*
X100548809Y28448029D01*
X100548809Y28448029D02*
X100501190Y28352791D01*
X100501190Y28352791D02*
X100453571Y28305172D01*
X100453571Y28305172D02*
X100358333Y28257553D01*
X100358333Y28257553D02*
X100263095Y28257553D01*
X100263095Y28257553D02*
X100167857Y28305172D01*
X100167857Y28305172D02*
X100120238Y28352791D01*
X100120238Y28352791D02*
X100072619Y28448029D01*
X100072619Y28448029D02*
X100072619Y28686124D01*
X100072619Y28686124D02*
X100120238Y28828981D01*
X100167857Y29209934D02*
X100120238Y29257553D01*
X100120238Y29257553D02*
X100072619Y29352791D01*
X100072619Y29352791D02*
X100072619Y29590886D01*
X100072619Y29590886D02*
X100120238Y29686124D01*
X100120238Y29686124D02*
X100167857Y29733743D01*
X100167857Y29733743D02*
X100263095Y29781362D01*
X100263095Y29781362D02*
X100358333Y29781362D01*
X100358333Y29781362D02*
X100501190Y29733743D01*
X100501190Y29733743D02*
X101072619Y29162315D01*
X101072619Y29162315D02*
X101072619Y29781362D01*
X100501190Y30352791D02*
X100453571Y30257553D01*
X100453571Y30257553D02*
X100405952Y30209934D01*
X100405952Y30209934D02*
X100310714Y30162315D01*
X100310714Y30162315D02*
X100263095Y30162315D01*
X100263095Y30162315D02*
X100167857Y30209934D01*
X100167857Y30209934D02*
X100120238Y30257553D01*
X100120238Y30257553D02*
X100072619Y30352791D01*
X100072619Y30352791D02*
X100072619Y30543267D01*
X100072619Y30543267D02*
X100120238Y30638505D01*
X100120238Y30638505D02*
X100167857Y30686124D01*
X100167857Y30686124D02*
X100263095Y30733743D01*
X100263095Y30733743D02*
X100310714Y30733743D01*
X100310714Y30733743D02*
X100405952Y30686124D01*
X100405952Y30686124D02*
X100453571Y30638505D01*
X100453571Y30638505D02*
X100501190Y30543267D01*
X100501190Y30543267D02*
X100501190Y30352791D01*
X100501190Y30352791D02*
X100548809Y30257553D01*
X100548809Y30257553D02*
X100596428Y30209934D01*
X100596428Y30209934D02*
X100691666Y30162315D01*
X100691666Y30162315D02*
X100882142Y30162315D01*
X100882142Y30162315D02*
X100977380Y30209934D01*
X100977380Y30209934D02*
X101025000Y30257553D01*
X101025000Y30257553D02*
X101072619Y30352791D01*
X101072619Y30352791D02*
X101072619Y30543267D01*
X101072619Y30543267D02*
X101025000Y30638505D01*
X101025000Y30638505D02*
X100977380Y30686124D01*
X100977380Y30686124D02*
X100882142Y30733743D01*
X100882142Y30733743D02*
X100691666Y30733743D01*
X100691666Y30733743D02*
X100596428Y30686124D01*
X100596428Y30686124D02*
X100548809Y30638505D01*
X100548809Y30638505D02*
X100501190Y30543267D01*
X101072619Y31686124D02*
X101072619Y31114696D01*
X101072619Y31400410D02*
X100072619Y31400410D01*
X100072619Y31400410D02*
X100215476Y31305172D01*
X100215476Y31305172D02*
X100310714Y31209934D01*
X100310714Y31209934D02*
X100358333Y31114696D01*
X100167857Y32067077D02*
X100120238Y32114696D01*
X100120238Y32114696D02*
X100072619Y32209934D01*
X100072619Y32209934D02*
X100072619Y32448029D01*
X100072619Y32448029D02*
X100120238Y32543267D01*
X100120238Y32543267D02*
X100167857Y32590886D01*
X100167857Y32590886D02*
X100263095Y32638505D01*
X100263095Y32638505D02*
X100358333Y32638505D01*
X100358333Y32638505D02*
X100501190Y32590886D01*
X100501190Y32590886D02*
X101072619Y32019458D01*
X101072619Y32019458D02*
X101072619Y32638505D01*
X100548809Y33400410D02*
X100596428Y33543267D01*
X100596428Y33543267D02*
X100644047Y33590886D01*
X100644047Y33590886D02*
X100739285Y33638505D01*
X100739285Y33638505D02*
X100882142Y33638505D01*
X100882142Y33638505D02*
X100977380Y33590886D01*
X100977380Y33590886D02*
X101025000Y33543267D01*
X101025000Y33543267D02*
X101072619Y33448029D01*
X101072619Y33448029D02*
X101072619Y33067077D01*
X101072619Y33067077D02*
X100072619Y33067077D01*
X100072619Y33067077D02*
X100072619Y33400410D01*
X100072619Y33400410D02*
X100120238Y33495648D01*
X100120238Y33495648D02*
X100167857Y33543267D01*
X100167857Y33543267D02*
X100263095Y33590886D01*
X100263095Y33590886D02*
X100358333Y33590886D01*
X100358333Y33590886D02*
X100453571Y33543267D01*
X100453571Y33543267D02*
X100501190Y33495648D01*
X100501190Y33495648D02*
X100548809Y33400410D01*
X100548809Y33400410D02*
X100548809Y33067077D01*
X-1062981Y79278877D02*
X-62981Y79516972D01*
X-62981Y79516972D02*
X-777267Y79707448D01*
X-777267Y79707448D02*
X-62981Y79897924D01*
X-62981Y79897924D02*
X-1062981Y80136019D01*
X-110600Y80469353D02*
X-62981Y80612210D01*
X-62981Y80612210D02*
X-62981Y80850305D01*
X-62981Y80850305D02*
X-110600Y80945543D01*
X-110600Y80945543D02*
X-158220Y80993162D01*
X-158220Y80993162D02*
X-253458Y81040781D01*
X-253458Y81040781D02*
X-348696Y81040781D01*
X-348696Y81040781D02*
X-443934Y80993162D01*
X-443934Y80993162D02*
X-491553Y80945543D01*
X-491553Y80945543D02*
X-539172Y80850305D01*
X-539172Y80850305D02*
X-586791Y80659829D01*
X-586791Y80659829D02*
X-634410Y80564591D01*
X-634410Y80564591D02*
X-682029Y80516972D01*
X-682029Y80516972D02*
X-777267Y80469353D01*
X-777267Y80469353D02*
X-872505Y80469353D01*
X-872505Y80469353D02*
X-967743Y80516972D01*
X-967743Y80516972D02*
X-1015362Y80564591D01*
X-1015362Y80564591D02*
X-1062981Y80659829D01*
X-1062981Y80659829D02*
X-1062981Y80897924D01*
X-1062981Y80897924D02*
X-1015362Y81040781D01*
X-967743Y81421734D02*
X-1015362Y81469353D01*
X-1015362Y81469353D02*
X-1062981Y81564591D01*
X-1062981Y81564591D02*
X-1062981Y81802686D01*
X-1062981Y81802686D02*
X-1015362Y81897924D01*
X-1015362Y81897924D02*
X-967743Y81945543D01*
X-967743Y81945543D02*
X-872505Y81993162D01*
X-872505Y81993162D02*
X-777267Y81993162D01*
X-777267Y81993162D02*
X-634410Y81945543D01*
X-634410Y81945543D02*
X-62981Y81374115D01*
X-62981Y81374115D02*
X-62981Y81993162D01*
X-634410Y82564591D02*
X-682029Y82469353D01*
X-682029Y82469353D02*
X-729648Y82421734D01*
X-729648Y82421734D02*
X-824886Y82374115D01*
X-824886Y82374115D02*
X-872505Y82374115D01*
X-872505Y82374115D02*
X-967743Y82421734D01*
X-967743Y82421734D02*
X-1015362Y82469353D01*
X-1015362Y82469353D02*
X-1062981Y82564591D01*
X-1062981Y82564591D02*
X-1062981Y82755067D01*
X-1062981Y82755067D02*
X-1015362Y82850305D01*
X-1015362Y82850305D02*
X-967743Y82897924D01*
X-967743Y82897924D02*
X-872505Y82945543D01*
X-872505Y82945543D02*
X-824886Y82945543D01*
X-824886Y82945543D02*
X-729648Y82897924D01*
X-729648Y82897924D02*
X-682029Y82850305D01*
X-682029Y82850305D02*
X-634410Y82755067D01*
X-634410Y82755067D02*
X-634410Y82564591D01*
X-634410Y82564591D02*
X-586791Y82469353D01*
X-586791Y82469353D02*
X-539172Y82421734D01*
X-539172Y82421734D02*
X-443934Y82374115D01*
X-443934Y82374115D02*
X-253458Y82374115D01*
X-253458Y82374115D02*
X-158220Y82421734D01*
X-158220Y82421734D02*
X-110600Y82469353D01*
X-110600Y82469353D02*
X-62981Y82564591D01*
X-62981Y82564591D02*
X-62981Y82755067D01*
X-62981Y82755067D02*
X-110600Y82850305D01*
X-110600Y82850305D02*
X-158220Y82897924D01*
X-158220Y82897924D02*
X-253458Y82945543D01*
X-253458Y82945543D02*
X-443934Y82945543D01*
X-443934Y82945543D02*
X-539172Y82897924D01*
X-539172Y82897924D02*
X-586791Y82850305D01*
X-586791Y82850305D02*
X-634410Y82755067D01*
X-62981Y83897924D02*
X-62981Y83326496D01*
X-62981Y83612210D02*
X-1062981Y83612210D01*
X-1062981Y83612210D02*
X-920124Y83516972D01*
X-920124Y83516972D02*
X-824886Y83421734D01*
X-824886Y83421734D02*
X-777267Y83326496D01*
X-967743Y84278877D02*
X-1015362Y84326496D01*
X-1015362Y84326496D02*
X-1062981Y84421734D01*
X-1062981Y84421734D02*
X-1062981Y84659829D01*
X-1062981Y84659829D02*
X-1015362Y84755067D01*
X-1015362Y84755067D02*
X-967743Y84802686D01*
X-967743Y84802686D02*
X-872505Y84850305D01*
X-872505Y84850305D02*
X-777267Y84850305D01*
X-777267Y84850305D02*
X-634410Y84802686D01*
X-634410Y84802686D02*
X-62981Y84231258D01*
X-62981Y84231258D02*
X-62981Y84850305D01*
X-586791Y85612210D02*
X-539172Y85755067D01*
X-539172Y85755067D02*
X-491553Y85802686D01*
X-491553Y85802686D02*
X-396315Y85850305D01*
X-396315Y85850305D02*
X-253458Y85850305D01*
X-253458Y85850305D02*
X-158220Y85802686D01*
X-158220Y85802686D02*
X-110600Y85755067D01*
X-110600Y85755067D02*
X-62981Y85659829D01*
X-62981Y85659829D02*
X-62981Y85278877D01*
X-62981Y85278877D02*
X-1062981Y85278877D01*
X-1062981Y85278877D02*
X-1062981Y85612210D01*
X-1062981Y85612210D02*
X-1015362Y85707448D01*
X-1015362Y85707448D02*
X-967743Y85755067D01*
X-967743Y85755067D02*
X-872505Y85802686D01*
X-872505Y85802686D02*
X-777267Y85802686D01*
X-777267Y85802686D02*
X-682029Y85755067D01*
X-682029Y85755067D02*
X-634410Y85707448D01*
X-634410Y85707448D02*
X-586791Y85612210D01*
X-586791Y85612210D02*
X-586791Y85278877D01*
X81101785Y72287681D02*
X80530357Y72287681D01*
X80816071Y72287681D02*
X80816071Y73287681D01*
X80816071Y73287681D02*
X80720833Y73144824D01*
X80720833Y73144824D02*
X80625595Y73049586D01*
X80625595Y73049586D02*
X80530357Y73001967D01*
X81530357Y72287681D02*
X81530357Y73287681D01*
X81530357Y73287681D02*
X81863690Y72573396D01*
X81863690Y72573396D02*
X82197023Y73287681D01*
X82197023Y73287681D02*
X82197023Y72287681D01*
D11*
X81320833Y71130573D02*
X81187500Y71321049D01*
X81092262Y71130573D02*
X81092262Y71530573D01*
X81092262Y71530573D02*
X81244643Y71530573D01*
X81244643Y71530573D02*
X81282738Y71511525D01*
X81282738Y71511525D02*
X81301785Y71492478D01*
X81301785Y71492478D02*
X81320833Y71454382D01*
X81320833Y71454382D02*
X81320833Y71397240D01*
X81320833Y71397240D02*
X81301785Y71359144D01*
X81301785Y71359144D02*
X81282738Y71340097D01*
X81282738Y71340097D02*
X81244643Y71321049D01*
X81244643Y71321049D02*
X81092262Y71321049D01*
X81663690Y71397240D02*
X81663690Y71130573D01*
X81568452Y71549620D02*
X81473214Y71263906D01*
X81473214Y71263906D02*
X81720833Y71263906D01*
D10*
X77481547Y83542800D02*
X77624404Y83495181D01*
X77624404Y83495181D02*
X77862499Y83495181D01*
X77862499Y83495181D02*
X77957737Y83542800D01*
X77957737Y83542800D02*
X78005356Y83590420D01*
X78005356Y83590420D02*
X78052975Y83685658D01*
X78052975Y83685658D02*
X78052975Y83780896D01*
X78052975Y83780896D02*
X78005356Y83876134D01*
X78005356Y83876134D02*
X77957737Y83923753D01*
X77957737Y83923753D02*
X77862499Y83971372D01*
X77862499Y83971372D02*
X77672023Y84018991D01*
X77672023Y84018991D02*
X77576785Y84066610D01*
X77576785Y84066610D02*
X77529166Y84114229D01*
X77529166Y84114229D02*
X77481547Y84209467D01*
X77481547Y84209467D02*
X77481547Y84304705D01*
X77481547Y84304705D02*
X77529166Y84399943D01*
X77529166Y84399943D02*
X77576785Y84447562D01*
X77576785Y84447562D02*
X77672023Y84495181D01*
X77672023Y84495181D02*
X77910118Y84495181D01*
X77910118Y84495181D02*
X78052975Y84447562D01*
X79052975Y83590420D02*
X79005356Y83542800D01*
X79005356Y83542800D02*
X78862499Y83495181D01*
X78862499Y83495181D02*
X78767261Y83495181D01*
X78767261Y83495181D02*
X78624404Y83542800D01*
X78624404Y83542800D02*
X78529166Y83638039D01*
X78529166Y83638039D02*
X78481547Y83733277D01*
X78481547Y83733277D02*
X78433928Y83923753D01*
X78433928Y83923753D02*
X78433928Y84066610D01*
X78433928Y84066610D02*
X78481547Y84257086D01*
X78481547Y84257086D02*
X78529166Y84352324D01*
X78529166Y84352324D02*
X78624404Y84447562D01*
X78624404Y84447562D02*
X78767261Y84495181D01*
X78767261Y84495181D02*
X78862499Y84495181D01*
X78862499Y84495181D02*
X79005356Y84447562D01*
X79005356Y84447562D02*
X79052975Y84399943D01*
X80005356Y83495181D02*
X79433928Y83495181D01*
X79719642Y83495181D02*
X79719642Y84495181D01*
X79719642Y84495181D02*
X79624404Y84352324D01*
X79624404Y84352324D02*
X79529166Y84257086D01*
X79529166Y84257086D02*
X79433928Y84209467D01*
X80576785Y84066610D02*
X80481547Y84114229D01*
X80481547Y84114229D02*
X80433928Y84161848D01*
X80433928Y84161848D02*
X80386309Y84257086D01*
X80386309Y84257086D02*
X80386309Y84304705D01*
X80386309Y84304705D02*
X80433928Y84399943D01*
X80433928Y84399943D02*
X80481547Y84447562D01*
X80481547Y84447562D02*
X80576785Y84495181D01*
X80576785Y84495181D02*
X80767261Y84495181D01*
X80767261Y84495181D02*
X80862499Y84447562D01*
X80862499Y84447562D02*
X80910118Y84399943D01*
X80910118Y84399943D02*
X80957737Y84304705D01*
X80957737Y84304705D02*
X80957737Y84257086D01*
X80957737Y84257086D02*
X80910118Y84161848D01*
X80910118Y84161848D02*
X80862499Y84114229D01*
X80862499Y84114229D02*
X80767261Y84066610D01*
X80767261Y84066610D02*
X80576785Y84066610D01*
X80576785Y84066610D02*
X80481547Y84018991D01*
X80481547Y84018991D02*
X80433928Y83971372D01*
X80433928Y83971372D02*
X80386309Y83876134D01*
X80386309Y83876134D02*
X80386309Y83685658D01*
X80386309Y83685658D02*
X80433928Y83590420D01*
X80433928Y83590420D02*
X80481547Y83542800D01*
X80481547Y83542800D02*
X80576785Y83495181D01*
X80576785Y83495181D02*
X80767261Y83495181D01*
X80767261Y83495181D02*
X80862499Y83542800D01*
X80862499Y83542800D02*
X80910118Y83590420D01*
X80910118Y83590420D02*
X80957737Y83685658D01*
X80957737Y83685658D02*
X80957737Y83876134D01*
X80957737Y83876134D02*
X80910118Y83971372D01*
X80910118Y83971372D02*
X80862499Y84018991D01*
X80862499Y84018991D02*
X80767261Y84066610D01*
X81433928Y83495181D02*
X81624404Y83495181D01*
X81624404Y83495181D02*
X81719642Y83542800D01*
X81719642Y83542800D02*
X81767261Y83590420D01*
X81767261Y83590420D02*
X81862499Y83733277D01*
X81862499Y83733277D02*
X81910118Y83923753D01*
X81910118Y83923753D02*
X81910118Y84304705D01*
X81910118Y84304705D02*
X81862499Y84399943D01*
X81862499Y84399943D02*
X81814880Y84447562D01*
X81814880Y84447562D02*
X81719642Y84495181D01*
X81719642Y84495181D02*
X81529166Y84495181D01*
X81529166Y84495181D02*
X81433928Y84447562D01*
X81433928Y84447562D02*
X81386309Y84399943D01*
X81386309Y84399943D02*
X81338690Y84304705D01*
X81338690Y84304705D02*
X81338690Y84066610D01*
X81338690Y84066610D02*
X81386309Y83971372D01*
X81386309Y83971372D02*
X81433928Y83923753D01*
X81433928Y83923753D02*
X81529166Y83876134D01*
X81529166Y83876134D02*
X81719642Y83876134D01*
X81719642Y83876134D02*
X81814880Y83923753D01*
X81814880Y83923753D02*
X81862499Y83971372D01*
X81862499Y83971372D02*
X81910118Y84066610D01*
X82243452Y84495181D02*
X82910118Y84495181D01*
X82910118Y84495181D02*
X82243452Y83495181D01*
X82243452Y83495181D02*
X82910118Y83495181D01*
X83291071Y84495181D02*
X83291071Y83685658D01*
X83291071Y83685658D02*
X83338690Y83590420D01*
X83338690Y83590420D02*
X83386309Y83542800D01*
X83386309Y83542800D02*
X83481547Y83495181D01*
X83481547Y83495181D02*
X83672023Y83495181D01*
X83672023Y83495181D02*
X83767261Y83542800D01*
X83767261Y83542800D02*
X83814880Y83590420D01*
X83814880Y83590420D02*
X83862499Y83685658D01*
X83862499Y83685658D02*
X83862499Y84495181D01*
X84814880Y83495181D02*
X84338690Y83495181D01*
X84338690Y83495181D02*
X84338690Y84495181D01*
X85005357Y84495181D02*
X85576785Y84495181D01*
X85291071Y83495181D02*
X85291071Y84495181D01*
X86481547Y83495181D02*
X86148214Y83971372D01*
X85910119Y83495181D02*
X85910119Y84495181D01*
X85910119Y84495181D02*
X86291071Y84495181D01*
X86291071Y84495181D02*
X86386309Y84447562D01*
X86386309Y84447562D02*
X86433928Y84399943D01*
X86433928Y84399943D02*
X86481547Y84304705D01*
X86481547Y84304705D02*
X86481547Y84161848D01*
X86481547Y84161848D02*
X86433928Y84066610D01*
X86433928Y84066610D02*
X86386309Y84018991D01*
X86386309Y84018991D02*
X86291071Y83971372D01*
X86291071Y83971372D02*
X85910119Y83971372D01*
X86767262Y84495181D02*
X87338690Y84495181D01*
X87052976Y83495181D02*
X87052976Y84495181D01*
D11*
X82057738Y86568073D02*
X82057738Y86244263D01*
X82057738Y86244263D02*
X82076785Y86206168D01*
X82076785Y86206168D02*
X82095833Y86187120D01*
X82095833Y86187120D02*
X82133928Y86168073D01*
X82133928Y86168073D02*
X82210119Y86168073D01*
X82210119Y86168073D02*
X82248214Y86187120D01*
X82248214Y86187120D02*
X82267261Y86206168D01*
X82267261Y86206168D02*
X82286309Y86244263D01*
X82286309Y86244263D02*
X82286309Y86568073D01*
X82686309Y86168073D02*
X82457738Y86168073D01*
X82572024Y86168073D02*
X82572024Y86568073D01*
X82572024Y86568073D02*
X82533928Y86510930D01*
X82533928Y86510930D02*
X82495833Y86472835D01*
X82495833Y86472835D02*
X82457738Y86453787D01*
D10*
X87650595Y77907681D02*
X88222023Y77907681D01*
X87936309Y76907681D02*
X87936309Y77907681D01*
X88555357Y76907681D02*
X88555357Y77907681D01*
X88555357Y77907681D02*
X88936309Y77907681D01*
X88936309Y77907681D02*
X89031547Y77860062D01*
X89031547Y77860062D02*
X89079166Y77812443D01*
X89079166Y77812443D02*
X89126785Y77717205D01*
X89126785Y77717205D02*
X89126785Y77574348D01*
X89126785Y77574348D02*
X89079166Y77479110D01*
X89079166Y77479110D02*
X89031547Y77431491D01*
X89031547Y77431491D02*
X88936309Y77383872D01*
X88936309Y77383872D02*
X88555357Y77383872D01*
X89983928Y77574348D02*
X89983928Y76907681D01*
X89745833Y77955300D02*
X89507738Y77241015D01*
X89507738Y77241015D02*
X90126785Y77241015D01*
X100072619Y13427077D02*
X101072619Y13665172D01*
X101072619Y13665172D02*
X100358333Y13855648D01*
X100358333Y13855648D02*
X101072619Y14046124D01*
X101072619Y14046124D02*
X100072619Y14284219D01*
X101025000Y14617553D02*
X101072619Y14760410D01*
X101072619Y14760410D02*
X101072619Y14998505D01*
X101072619Y14998505D02*
X101025000Y15093743D01*
X101025000Y15093743D02*
X100977380Y15141362D01*
X100977380Y15141362D02*
X100882142Y15188981D01*
X100882142Y15188981D02*
X100786904Y15188981D01*
X100786904Y15188981D02*
X100691666Y15141362D01*
X100691666Y15141362D02*
X100644047Y15093743D01*
X100644047Y15093743D02*
X100596428Y14998505D01*
X100596428Y14998505D02*
X100548809Y14808029D01*
X100548809Y14808029D02*
X100501190Y14712791D01*
X100501190Y14712791D02*
X100453571Y14665172D01*
X100453571Y14665172D02*
X100358333Y14617553D01*
X100358333Y14617553D02*
X100263095Y14617553D01*
X100263095Y14617553D02*
X100167857Y14665172D01*
X100167857Y14665172D02*
X100120238Y14712791D01*
X100120238Y14712791D02*
X100072619Y14808029D01*
X100072619Y14808029D02*
X100072619Y15046124D01*
X100072619Y15046124D02*
X100120238Y15188981D01*
X100167857Y15569934D02*
X100120238Y15617553D01*
X100120238Y15617553D02*
X100072619Y15712791D01*
X100072619Y15712791D02*
X100072619Y15950886D01*
X100072619Y15950886D02*
X100120238Y16046124D01*
X100120238Y16046124D02*
X100167857Y16093743D01*
X100167857Y16093743D02*
X100263095Y16141362D01*
X100263095Y16141362D02*
X100358333Y16141362D01*
X100358333Y16141362D02*
X100501190Y16093743D01*
X100501190Y16093743D02*
X101072619Y15522315D01*
X101072619Y15522315D02*
X101072619Y16141362D01*
X100501190Y16712791D02*
X100453571Y16617553D01*
X100453571Y16617553D02*
X100405952Y16569934D01*
X100405952Y16569934D02*
X100310714Y16522315D01*
X100310714Y16522315D02*
X100263095Y16522315D01*
X100263095Y16522315D02*
X100167857Y16569934D01*
X100167857Y16569934D02*
X100120238Y16617553D01*
X100120238Y16617553D02*
X100072619Y16712791D01*
X100072619Y16712791D02*
X100072619Y16903267D01*
X100072619Y16903267D02*
X100120238Y16998505D01*
X100120238Y16998505D02*
X100167857Y17046124D01*
X100167857Y17046124D02*
X100263095Y17093743D01*
X100263095Y17093743D02*
X100310714Y17093743D01*
X100310714Y17093743D02*
X100405952Y17046124D01*
X100405952Y17046124D02*
X100453571Y16998505D01*
X100453571Y16998505D02*
X100501190Y16903267D01*
X100501190Y16903267D02*
X100501190Y16712791D01*
X100501190Y16712791D02*
X100548809Y16617553D01*
X100548809Y16617553D02*
X100596428Y16569934D01*
X100596428Y16569934D02*
X100691666Y16522315D01*
X100691666Y16522315D02*
X100882142Y16522315D01*
X100882142Y16522315D02*
X100977380Y16569934D01*
X100977380Y16569934D02*
X101025000Y16617553D01*
X101025000Y16617553D02*
X101072619Y16712791D01*
X101072619Y16712791D02*
X101072619Y16903267D01*
X101072619Y16903267D02*
X101025000Y16998505D01*
X101025000Y16998505D02*
X100977380Y17046124D01*
X100977380Y17046124D02*
X100882142Y17093743D01*
X100882142Y17093743D02*
X100691666Y17093743D01*
X100691666Y17093743D02*
X100596428Y17046124D01*
X100596428Y17046124D02*
X100548809Y16998505D01*
X100548809Y16998505D02*
X100501190Y16903267D01*
X101072619Y18046124D02*
X101072619Y17474696D01*
X101072619Y17760410D02*
X100072619Y17760410D01*
X100072619Y17760410D02*
X100215476Y17665172D01*
X100215476Y17665172D02*
X100310714Y17569934D01*
X100310714Y17569934D02*
X100358333Y17474696D01*
X100167857Y18427077D02*
X100120238Y18474696D01*
X100120238Y18474696D02*
X100072619Y18569934D01*
X100072619Y18569934D02*
X100072619Y18808029D01*
X100072619Y18808029D02*
X100120238Y18903267D01*
X100120238Y18903267D02*
X100167857Y18950886D01*
X100167857Y18950886D02*
X100263095Y18998505D01*
X100263095Y18998505D02*
X100358333Y18998505D01*
X100358333Y18998505D02*
X100501190Y18950886D01*
X100501190Y18950886D02*
X101072619Y18379458D01*
X101072619Y18379458D02*
X101072619Y18998505D01*
X100548809Y19760410D02*
X100596428Y19903267D01*
X100596428Y19903267D02*
X100644047Y19950886D01*
X100644047Y19950886D02*
X100739285Y19998505D01*
X100739285Y19998505D02*
X100882142Y19998505D01*
X100882142Y19998505D02*
X100977380Y19950886D01*
X100977380Y19950886D02*
X101025000Y19903267D01*
X101025000Y19903267D02*
X101072619Y19808029D01*
X101072619Y19808029D02*
X101072619Y19427077D01*
X101072619Y19427077D02*
X100072619Y19427077D01*
X100072619Y19427077D02*
X100072619Y19760410D01*
X100072619Y19760410D02*
X100120238Y19855648D01*
X100120238Y19855648D02*
X100167857Y19903267D01*
X100167857Y19903267D02*
X100263095Y19950886D01*
X100263095Y19950886D02*
X100358333Y19950886D01*
X100358333Y19950886D02*
X100453571Y19903267D01*
X100453571Y19903267D02*
X100501190Y19855648D01*
X100501190Y19855648D02*
X100548809Y19760410D01*
X100548809Y19760410D02*
X100548809Y19427077D01*
X87650595Y74007681D02*
X88222023Y74007681D01*
X87936309Y73007681D02*
X87936309Y74007681D01*
X88555357Y73007681D02*
X88555357Y74007681D01*
X88555357Y74007681D02*
X88936309Y74007681D01*
X88936309Y74007681D02*
X89031547Y73960062D01*
X89031547Y73960062D02*
X89079166Y73912443D01*
X89079166Y73912443D02*
X89126785Y73817205D01*
X89126785Y73817205D02*
X89126785Y73674348D01*
X89126785Y73674348D02*
X89079166Y73579110D01*
X89079166Y73579110D02*
X89031547Y73531491D01*
X89031547Y73531491D02*
X88936309Y73483872D01*
X88936309Y73483872D02*
X88555357Y73483872D01*
X90031547Y74007681D02*
X89555357Y74007681D01*
X89555357Y74007681D02*
X89507738Y73531491D01*
X89507738Y73531491D02*
X89555357Y73579110D01*
X89555357Y73579110D02*
X89650595Y73626729D01*
X89650595Y73626729D02*
X89888690Y73626729D01*
X89888690Y73626729D02*
X89983928Y73579110D01*
X89983928Y73579110D02*
X90031547Y73531491D01*
X90031547Y73531491D02*
X90079166Y73436253D01*
X90079166Y73436253D02*
X90079166Y73198158D01*
X90079166Y73198158D02*
X90031547Y73102920D01*
X90031547Y73102920D02*
X89983928Y73055300D01*
X89983928Y73055300D02*
X89888690Y73007681D01*
X89888690Y73007681D02*
X89650595Y73007681D01*
X89650595Y73007681D02*
X89555357Y73055300D01*
X89555357Y73055300D02*
X89507738Y73102920D01*
X78291071Y71795181D02*
X78291071Y72795181D01*
X78291071Y72795181D02*
X78624404Y72080896D01*
X78624404Y72080896D02*
X78957737Y72795181D01*
X78957737Y72795181D02*
X78957737Y71795181D01*
X79386309Y72080896D02*
X79862499Y72080896D01*
X79291071Y71795181D02*
X79624404Y72795181D01*
X79624404Y72795181D02*
X79957737Y71795181D01*
X80195833Y72795181D02*
X80862499Y71795181D01*
X80862499Y72795181D02*
X80195833Y71795181D01*
X81291071Y71795181D02*
X81481547Y71795181D01*
X81481547Y71795181D02*
X81576785Y71842800D01*
X81576785Y71842800D02*
X81624404Y71890420D01*
X81624404Y71890420D02*
X81719642Y72033277D01*
X81719642Y72033277D02*
X81767261Y72223753D01*
X81767261Y72223753D02*
X81767261Y72604705D01*
X81767261Y72604705D02*
X81719642Y72699943D01*
X81719642Y72699943D02*
X81672023Y72747562D01*
X81672023Y72747562D02*
X81576785Y72795181D01*
X81576785Y72795181D02*
X81386309Y72795181D01*
X81386309Y72795181D02*
X81291071Y72747562D01*
X81291071Y72747562D02*
X81243452Y72699943D01*
X81243452Y72699943D02*
X81195833Y72604705D01*
X81195833Y72604705D02*
X81195833Y72366610D01*
X81195833Y72366610D02*
X81243452Y72271372D01*
X81243452Y72271372D02*
X81291071Y72223753D01*
X81291071Y72223753D02*
X81386309Y72176134D01*
X81386309Y72176134D02*
X81576785Y72176134D01*
X81576785Y72176134D02*
X81672023Y72223753D01*
X81672023Y72223753D02*
X81719642Y72271372D01*
X81719642Y72271372D02*
X81767261Y72366610D01*
X82338690Y72366610D02*
X82243452Y72414229D01*
X82243452Y72414229D02*
X82195833Y72461848D01*
X82195833Y72461848D02*
X82148214Y72557086D01*
X82148214Y72557086D02*
X82148214Y72604705D01*
X82148214Y72604705D02*
X82195833Y72699943D01*
X82195833Y72699943D02*
X82243452Y72747562D01*
X82243452Y72747562D02*
X82338690Y72795181D01*
X82338690Y72795181D02*
X82529166Y72795181D01*
X82529166Y72795181D02*
X82624404Y72747562D01*
X82624404Y72747562D02*
X82672023Y72699943D01*
X82672023Y72699943D02*
X82719642Y72604705D01*
X82719642Y72604705D02*
X82719642Y72557086D01*
X82719642Y72557086D02*
X82672023Y72461848D01*
X82672023Y72461848D02*
X82624404Y72414229D01*
X82624404Y72414229D02*
X82529166Y72366610D01*
X82529166Y72366610D02*
X82338690Y72366610D01*
X82338690Y72366610D02*
X82243452Y72318991D01*
X82243452Y72318991D02*
X82195833Y72271372D01*
X82195833Y72271372D02*
X82148214Y72176134D01*
X82148214Y72176134D02*
X82148214Y71985658D01*
X82148214Y71985658D02*
X82195833Y71890420D01*
X82195833Y71890420D02*
X82243452Y71842800D01*
X82243452Y71842800D02*
X82338690Y71795181D01*
X82338690Y71795181D02*
X82529166Y71795181D01*
X82529166Y71795181D02*
X82624404Y71842800D01*
X82624404Y71842800D02*
X82672023Y71890420D01*
X82672023Y71890420D02*
X82719642Y71985658D01*
X82719642Y71985658D02*
X82719642Y72176134D01*
X82719642Y72176134D02*
X82672023Y72271372D01*
X82672023Y72271372D02*
X82624404Y72318991D01*
X82624404Y72318991D02*
X82529166Y72366610D01*
X83052976Y72795181D02*
X83672023Y72795181D01*
X83672023Y72795181D02*
X83338690Y72414229D01*
X83338690Y72414229D02*
X83481547Y72414229D01*
X83481547Y72414229D02*
X83576785Y72366610D01*
X83576785Y72366610D02*
X83624404Y72318991D01*
X83624404Y72318991D02*
X83672023Y72223753D01*
X83672023Y72223753D02*
X83672023Y71985658D01*
X83672023Y71985658D02*
X83624404Y71890420D01*
X83624404Y71890420D02*
X83576785Y71842800D01*
X83576785Y71842800D02*
X83481547Y71795181D01*
X83481547Y71795181D02*
X83195833Y71795181D01*
X83195833Y71795181D02*
X83100595Y71842800D01*
X83100595Y71842800D02*
X83052976Y71890420D01*
X84576785Y72795181D02*
X84100595Y72795181D01*
X84100595Y72795181D02*
X84052976Y72318991D01*
X84052976Y72318991D02*
X84100595Y72366610D01*
X84100595Y72366610D02*
X84195833Y72414229D01*
X84195833Y72414229D02*
X84433928Y72414229D01*
X84433928Y72414229D02*
X84529166Y72366610D01*
X84529166Y72366610D02*
X84576785Y72318991D01*
X84576785Y72318991D02*
X84624404Y72223753D01*
X84624404Y72223753D02*
X84624404Y71985658D01*
X84624404Y71985658D02*
X84576785Y71890420D01*
X84576785Y71890420D02*
X84529166Y71842800D01*
X84529166Y71842800D02*
X84433928Y71795181D01*
X84433928Y71795181D02*
X84195833Y71795181D01*
X84195833Y71795181D02*
X84100595Y71842800D01*
X84100595Y71842800D02*
X84052976Y71890420D01*
X84957738Y72795181D02*
X85624404Y72795181D01*
X85624404Y72795181D02*
X85195833Y71795181D01*
X85957738Y72080896D02*
X86433928Y72080896D01*
X85862500Y71795181D02*
X86195833Y72795181D01*
X86195833Y72795181D02*
X86529166Y71795181D01*
X87576785Y72842800D02*
X86719643Y71557086D01*
X88243452Y72318991D02*
X88386309Y72271372D01*
X88386309Y72271372D02*
X88433928Y72223753D01*
X88433928Y72223753D02*
X88481547Y72128515D01*
X88481547Y72128515D02*
X88481547Y71985658D01*
X88481547Y71985658D02*
X88433928Y71890420D01*
X88433928Y71890420D02*
X88386309Y71842800D01*
X88386309Y71842800D02*
X88291071Y71795181D01*
X88291071Y71795181D02*
X87910119Y71795181D01*
X87910119Y71795181D02*
X87910119Y72795181D01*
X87910119Y72795181D02*
X88243452Y72795181D01*
X88243452Y72795181D02*
X88338690Y72747562D01*
X88338690Y72747562D02*
X88386309Y72699943D01*
X88386309Y72699943D02*
X88433928Y72604705D01*
X88433928Y72604705D02*
X88433928Y72509467D01*
X88433928Y72509467D02*
X88386309Y72414229D01*
X88386309Y72414229D02*
X88338690Y72366610D01*
X88338690Y72366610D02*
X88243452Y72318991D01*
X88243452Y72318991D02*
X87910119Y72318991D01*
D14*
X82791071Y75458756D02*
X82791071Y74851613D01*
X82791071Y74851613D02*
X82826785Y74780185D01*
X82826785Y74780185D02*
X82862500Y74744470D01*
X82862500Y74744470D02*
X82933928Y74708756D01*
X82933928Y74708756D02*
X83076785Y74708756D01*
X83076785Y74708756D02*
X83148214Y74744470D01*
X83148214Y74744470D02*
X83183928Y74780185D01*
X83183928Y74780185D02*
X83219642Y74851613D01*
X83219642Y74851613D02*
X83219642Y75458756D01*
X83898214Y75208756D02*
X83898214Y74708756D01*
X83719642Y75494470D02*
X83541071Y74958756D01*
X83541071Y74958756D02*
X84005356Y74958756D01*
D10*
X87719047Y89368991D02*
X87385714Y89368991D01*
X87385714Y88845181D02*
X87385714Y89845181D01*
X87385714Y89845181D02*
X87861904Y89845181D01*
X88242857Y88845181D02*
X88242857Y89511848D01*
X88242857Y89845181D02*
X88195238Y89797562D01*
X88195238Y89797562D02*
X88242857Y89749943D01*
X88242857Y89749943D02*
X88290476Y89797562D01*
X88290476Y89797562D02*
X88242857Y89845181D01*
X88242857Y89845181D02*
X88242857Y89749943D01*
X89147618Y88845181D02*
X89147618Y89845181D01*
X89147618Y88892800D02*
X89052380Y88845181D01*
X89052380Y88845181D02*
X88861904Y88845181D01*
X88861904Y88845181D02*
X88766666Y88892800D01*
X88766666Y88892800D02*
X88719047Y88940420D01*
X88719047Y88940420D02*
X88671428Y89035658D01*
X88671428Y89035658D02*
X88671428Y89321372D01*
X88671428Y89321372D02*
X88719047Y89416610D01*
X88719047Y89416610D02*
X88766666Y89464229D01*
X88766666Y89464229D02*
X88861904Y89511848D01*
X88861904Y89511848D02*
X89052380Y89511848D01*
X89052380Y89511848D02*
X89147618Y89464229D01*
X90052380Y89511848D02*
X90052380Y88845181D01*
X89623809Y89511848D02*
X89623809Y88988039D01*
X89623809Y88988039D02*
X89671428Y88892800D01*
X89671428Y88892800D02*
X89766666Y88845181D01*
X89766666Y88845181D02*
X89909523Y88845181D01*
X89909523Y88845181D02*
X90004761Y88892800D01*
X90004761Y88892800D02*
X90052380Y88940420D01*
X90957142Y88892800D02*
X90861904Y88845181D01*
X90861904Y88845181D02*
X90671428Y88845181D01*
X90671428Y88845181D02*
X90576190Y88892800D01*
X90576190Y88892800D02*
X90528571Y88940420D01*
X90528571Y88940420D02*
X90480952Y89035658D01*
X90480952Y89035658D02*
X90480952Y89321372D01*
X90480952Y89321372D02*
X90528571Y89416610D01*
X90528571Y89416610D02*
X90576190Y89464229D01*
X90576190Y89464229D02*
X90671428Y89511848D01*
X90671428Y89511848D02*
X90861904Y89511848D01*
X90861904Y89511848D02*
X90957142Y89464229D01*
X91385714Y88845181D02*
X91385714Y89511848D01*
X91385714Y89845181D02*
X91338095Y89797562D01*
X91338095Y89797562D02*
X91385714Y89749943D01*
X91385714Y89749943D02*
X91433333Y89797562D01*
X91433333Y89797562D02*
X91385714Y89845181D01*
X91385714Y89845181D02*
X91385714Y89749943D01*
X92290475Y88845181D02*
X92290475Y89368991D01*
X92290475Y89368991D02*
X92242856Y89464229D01*
X92242856Y89464229D02*
X92147618Y89511848D01*
X92147618Y89511848D02*
X91957142Y89511848D01*
X91957142Y89511848D02*
X91861904Y89464229D01*
X92290475Y88892800D02*
X92195237Y88845181D01*
X92195237Y88845181D02*
X91957142Y88845181D01*
X91957142Y88845181D02*
X91861904Y88892800D01*
X91861904Y88892800D02*
X91814285Y88988039D01*
X91814285Y88988039D02*
X91814285Y89083277D01*
X91814285Y89083277D02*
X91861904Y89178515D01*
X91861904Y89178515D02*
X91957142Y89226134D01*
X91957142Y89226134D02*
X92195237Y89226134D01*
X92195237Y89226134D02*
X92290475Y89273753D01*
X92909523Y88845181D02*
X92814285Y88892800D01*
X92814285Y88892800D02*
X92766666Y88988039D01*
X92766666Y88988039D02*
X92766666Y89845181D01*
D11*
X89671429Y91327597D02*
X89538096Y91327597D01*
X89538096Y91118073D02*
X89538096Y91518073D01*
X89538096Y91518073D02*
X89728572Y91518073D01*
X89880953Y91118073D02*
X89880953Y91518073D01*
X90071429Y91118073D02*
X90071429Y91518073D01*
X90071429Y91518073D02*
X90166667Y91518073D01*
X90166667Y91518073D02*
X90223810Y91499025D01*
X90223810Y91499025D02*
X90261905Y91460930D01*
X90261905Y91460930D02*
X90280952Y91422835D01*
X90280952Y91422835D02*
X90300000Y91346644D01*
X90300000Y91346644D02*
X90300000Y91289501D01*
X90300000Y91289501D02*
X90280952Y91213311D01*
X90280952Y91213311D02*
X90261905Y91175216D01*
X90261905Y91175216D02*
X90223810Y91137120D01*
X90223810Y91137120D02*
X90166667Y91118073D01*
X90166667Y91118073D02*
X90071429Y91118073D01*
X90452381Y91479978D02*
X90471429Y91499025D01*
X90471429Y91499025D02*
X90509524Y91518073D01*
X90509524Y91518073D02*
X90604762Y91518073D01*
X90604762Y91518073D02*
X90642857Y91499025D01*
X90642857Y91499025D02*
X90661905Y91479978D01*
X90661905Y91479978D02*
X90680952Y91441882D01*
X90680952Y91441882D02*
X90680952Y91403787D01*
X90680952Y91403787D02*
X90661905Y91346644D01*
X90661905Y91346644D02*
X90433333Y91118073D01*
X90433333Y91118073D02*
X90680952Y91118073D01*
D10*
X40753571Y16015181D02*
X40182143Y16015181D01*
X40467857Y16015181D02*
X40467857Y17015181D01*
X40467857Y17015181D02*
X40372619Y16872324D01*
X40372619Y16872324D02*
X40277381Y16777086D01*
X40277381Y16777086D02*
X40182143Y16729467D01*
X41372619Y17015181D02*
X41467857Y17015181D01*
X41467857Y17015181D02*
X41563095Y16967562D01*
X41563095Y16967562D02*
X41610714Y16919943D01*
X41610714Y16919943D02*
X41658333Y16824705D01*
X41658333Y16824705D02*
X41705952Y16634229D01*
X41705952Y16634229D02*
X41705952Y16396134D01*
X41705952Y16396134D02*
X41658333Y16205658D01*
X41658333Y16205658D02*
X41610714Y16110420D01*
X41610714Y16110420D02*
X41563095Y16062800D01*
X41563095Y16062800D02*
X41467857Y16015181D01*
X41467857Y16015181D02*
X41372619Y16015181D01*
X41372619Y16015181D02*
X41277381Y16062800D01*
X41277381Y16062800D02*
X41229762Y16110420D01*
X41229762Y16110420D02*
X41182143Y16205658D01*
X41182143Y16205658D02*
X41134524Y16396134D01*
X41134524Y16396134D02*
X41134524Y16634229D01*
X41134524Y16634229D02*
X41182143Y16824705D01*
X41182143Y16824705D02*
X41229762Y16919943D01*
X41229762Y16919943D02*
X41277381Y16967562D01*
X41277381Y16967562D02*
X41372619Y17015181D01*
X42563095Y16681848D02*
X42563095Y16015181D01*
X42134524Y16681848D02*
X42134524Y16158039D01*
X42134524Y16158039D02*
X42182143Y16062800D01*
X42182143Y16062800D02*
X42277381Y16015181D01*
X42277381Y16015181D02*
X42420238Y16015181D01*
X42420238Y16015181D02*
X42515476Y16062800D01*
X42515476Y16062800D02*
X42563095Y16110420D01*
X43372619Y16538991D02*
X43039286Y16538991D01*
X43039286Y16015181D02*
X43039286Y17015181D01*
X43039286Y17015181D02*
X43515476Y17015181D01*
D11*
X41758333Y17756168D02*
X41739285Y17737120D01*
X41739285Y17737120D02*
X41682143Y17718073D01*
X41682143Y17718073D02*
X41644047Y17718073D01*
X41644047Y17718073D02*
X41586904Y17737120D01*
X41586904Y17737120D02*
X41548809Y17775216D01*
X41548809Y17775216D02*
X41529762Y17813311D01*
X41529762Y17813311D02*
X41510714Y17889501D01*
X41510714Y17889501D02*
X41510714Y17946644D01*
X41510714Y17946644D02*
X41529762Y18022835D01*
X41529762Y18022835D02*
X41548809Y18060930D01*
X41548809Y18060930D02*
X41586904Y18099025D01*
X41586904Y18099025D02*
X41644047Y18118073D01*
X41644047Y18118073D02*
X41682143Y18118073D01*
X41682143Y18118073D02*
X41739285Y18099025D01*
X41739285Y18099025D02*
X41758333Y18079978D01*
X42101190Y18118073D02*
X42025000Y18118073D01*
X42025000Y18118073D02*
X41986904Y18099025D01*
X41986904Y18099025D02*
X41967857Y18079978D01*
X41967857Y18079978D02*
X41929762Y18022835D01*
X41929762Y18022835D02*
X41910714Y17946644D01*
X41910714Y17946644D02*
X41910714Y17794263D01*
X41910714Y17794263D02*
X41929762Y17756168D01*
X41929762Y17756168D02*
X41948809Y17737120D01*
X41948809Y17737120D02*
X41986904Y17718073D01*
X41986904Y17718073D02*
X42063095Y17718073D01*
X42063095Y17718073D02*
X42101190Y17737120D01*
X42101190Y17737120D02*
X42120238Y17756168D01*
X42120238Y17756168D02*
X42139285Y17794263D01*
X42139285Y17794263D02*
X42139285Y17889501D01*
X42139285Y17889501D02*
X42120238Y17927597D01*
X42120238Y17927597D02*
X42101190Y17946644D01*
X42101190Y17946644D02*
X42063095Y17965692D01*
X42063095Y17965692D02*
X41986904Y17965692D01*
X41986904Y17965692D02*
X41948809Y17946644D01*
X41948809Y17946644D02*
X41929762Y17927597D01*
X41929762Y17927597D02*
X41910714Y17889501D01*
D10*
X-1062981Y65638877D02*
X-62981Y65876972D01*
X-62981Y65876972D02*
X-777267Y66067448D01*
X-777267Y66067448D02*
X-62981Y66257924D01*
X-62981Y66257924D02*
X-1062981Y66496019D01*
X-110600Y66829353D02*
X-62981Y66972210D01*
X-62981Y66972210D02*
X-62981Y67210305D01*
X-62981Y67210305D02*
X-110600Y67305543D01*
X-110600Y67305543D02*
X-158220Y67353162D01*
X-158220Y67353162D02*
X-253458Y67400781D01*
X-253458Y67400781D02*
X-348696Y67400781D01*
X-348696Y67400781D02*
X-443934Y67353162D01*
X-443934Y67353162D02*
X-491553Y67305543D01*
X-491553Y67305543D02*
X-539172Y67210305D01*
X-539172Y67210305D02*
X-586791Y67019829D01*
X-586791Y67019829D02*
X-634410Y66924591D01*
X-634410Y66924591D02*
X-682029Y66876972D01*
X-682029Y66876972D02*
X-777267Y66829353D01*
X-777267Y66829353D02*
X-872505Y66829353D01*
X-872505Y66829353D02*
X-967743Y66876972D01*
X-967743Y66876972D02*
X-1015362Y66924591D01*
X-1015362Y66924591D02*
X-1062981Y67019829D01*
X-1062981Y67019829D02*
X-1062981Y67257924D01*
X-1062981Y67257924D02*
X-1015362Y67400781D01*
X-967743Y67781734D02*
X-1015362Y67829353D01*
X-1015362Y67829353D02*
X-1062981Y67924591D01*
X-1062981Y67924591D02*
X-1062981Y68162686D01*
X-1062981Y68162686D02*
X-1015362Y68257924D01*
X-1015362Y68257924D02*
X-967743Y68305543D01*
X-967743Y68305543D02*
X-872505Y68353162D01*
X-872505Y68353162D02*
X-777267Y68353162D01*
X-777267Y68353162D02*
X-634410Y68305543D01*
X-634410Y68305543D02*
X-62981Y67734115D01*
X-62981Y67734115D02*
X-62981Y68353162D01*
X-634410Y68924591D02*
X-682029Y68829353D01*
X-682029Y68829353D02*
X-729648Y68781734D01*
X-729648Y68781734D02*
X-824886Y68734115D01*
X-824886Y68734115D02*
X-872505Y68734115D01*
X-872505Y68734115D02*
X-967743Y68781734D01*
X-967743Y68781734D02*
X-1015362Y68829353D01*
X-1015362Y68829353D02*
X-1062981Y68924591D01*
X-1062981Y68924591D02*
X-1062981Y69115067D01*
X-1062981Y69115067D02*
X-1015362Y69210305D01*
X-1015362Y69210305D02*
X-967743Y69257924D01*
X-967743Y69257924D02*
X-872505Y69305543D01*
X-872505Y69305543D02*
X-824886Y69305543D01*
X-824886Y69305543D02*
X-729648Y69257924D01*
X-729648Y69257924D02*
X-682029Y69210305D01*
X-682029Y69210305D02*
X-634410Y69115067D01*
X-634410Y69115067D02*
X-634410Y68924591D01*
X-634410Y68924591D02*
X-586791Y68829353D01*
X-586791Y68829353D02*
X-539172Y68781734D01*
X-539172Y68781734D02*
X-443934Y68734115D01*
X-443934Y68734115D02*
X-253458Y68734115D01*
X-253458Y68734115D02*
X-158220Y68781734D01*
X-158220Y68781734D02*
X-110600Y68829353D01*
X-110600Y68829353D02*
X-62981Y68924591D01*
X-62981Y68924591D02*
X-62981Y69115067D01*
X-62981Y69115067D02*
X-110600Y69210305D01*
X-110600Y69210305D02*
X-158220Y69257924D01*
X-158220Y69257924D02*
X-253458Y69305543D01*
X-253458Y69305543D02*
X-443934Y69305543D01*
X-443934Y69305543D02*
X-539172Y69257924D01*
X-539172Y69257924D02*
X-586791Y69210305D01*
X-586791Y69210305D02*
X-634410Y69115067D01*
X-62981Y70257924D02*
X-62981Y69686496D01*
X-62981Y69972210D02*
X-1062981Y69972210D01*
X-1062981Y69972210D02*
X-920124Y69876972D01*
X-920124Y69876972D02*
X-824886Y69781734D01*
X-824886Y69781734D02*
X-777267Y69686496D01*
X-967743Y70638877D02*
X-1015362Y70686496D01*
X-1015362Y70686496D02*
X-1062981Y70781734D01*
X-1062981Y70781734D02*
X-1062981Y71019829D01*
X-1062981Y71019829D02*
X-1015362Y71115067D01*
X-1015362Y71115067D02*
X-967743Y71162686D01*
X-967743Y71162686D02*
X-872505Y71210305D01*
X-872505Y71210305D02*
X-777267Y71210305D01*
X-777267Y71210305D02*
X-634410Y71162686D01*
X-634410Y71162686D02*
X-62981Y70591258D01*
X-62981Y70591258D02*
X-62981Y71210305D01*
X-586791Y71972210D02*
X-539172Y72115067D01*
X-539172Y72115067D02*
X-491553Y72162686D01*
X-491553Y72162686D02*
X-396315Y72210305D01*
X-396315Y72210305D02*
X-253458Y72210305D01*
X-253458Y72210305D02*
X-158220Y72162686D01*
X-158220Y72162686D02*
X-110600Y72115067D01*
X-110600Y72115067D02*
X-62981Y72019829D01*
X-62981Y72019829D02*
X-62981Y71638877D01*
X-62981Y71638877D02*
X-1062981Y71638877D01*
X-1062981Y71638877D02*
X-1062981Y71972210D01*
X-1062981Y71972210D02*
X-1015362Y72067448D01*
X-1015362Y72067448D02*
X-967743Y72115067D01*
X-967743Y72115067D02*
X-872505Y72162686D01*
X-872505Y72162686D02*
X-777267Y72162686D01*
X-777267Y72162686D02*
X-682029Y72115067D01*
X-682029Y72115067D02*
X-634410Y72067448D01*
X-634410Y72067448D02*
X-586791Y71972210D01*
X-586791Y71972210D02*
X-586791Y71638877D01*
X48529048Y71416181D02*
X48529048Y72416181D01*
X48529048Y72416181D02*
X48910000Y72416181D01*
X48910000Y72416181D02*
X49005238Y72368562D01*
X49005238Y72368562D02*
X49052857Y72320943D01*
X49052857Y72320943D02*
X49100476Y72225705D01*
X49100476Y72225705D02*
X49100476Y72082848D01*
X49100476Y72082848D02*
X49052857Y71987610D01*
X49052857Y71987610D02*
X49005238Y71939991D01*
X49005238Y71939991D02*
X48910000Y71892372D01*
X48910000Y71892372D02*
X48529048Y71892372D01*
X49529048Y71416181D02*
X49529048Y72082848D01*
X49529048Y72416181D02*
X49481429Y72368562D01*
X49481429Y72368562D02*
X49529048Y72320943D01*
X49529048Y72320943D02*
X49576667Y72368562D01*
X49576667Y72368562D02*
X49529048Y72416181D01*
X49529048Y72416181D02*
X49529048Y72320943D01*
X50433809Y71463800D02*
X50338571Y71416181D01*
X50338571Y71416181D02*
X50148095Y71416181D01*
X50148095Y71416181D02*
X50052857Y71463800D01*
X50052857Y71463800D02*
X50005238Y71511420D01*
X50005238Y71511420D02*
X49957619Y71606658D01*
X49957619Y71606658D02*
X49957619Y71892372D01*
X49957619Y71892372D02*
X50005238Y71987610D01*
X50005238Y71987610D02*
X50052857Y72035229D01*
X50052857Y72035229D02*
X50148095Y72082848D01*
X50148095Y72082848D02*
X50338571Y72082848D01*
X50338571Y72082848D02*
X50433809Y72035229D01*
X51005238Y71416181D02*
X50910000Y71463800D01*
X50910000Y71463800D02*
X50862381Y71511420D01*
X50862381Y71511420D02*
X50814762Y71606658D01*
X50814762Y71606658D02*
X50814762Y71892372D01*
X50814762Y71892372D02*
X50862381Y71987610D01*
X50862381Y71987610D02*
X50910000Y72035229D01*
X50910000Y72035229D02*
X51005238Y72082848D01*
X51005238Y72082848D02*
X51148095Y72082848D01*
X51148095Y72082848D02*
X51243333Y72035229D01*
X51243333Y72035229D02*
X51290952Y71987610D01*
X51290952Y71987610D02*
X51338571Y71892372D01*
X51338571Y71892372D02*
X51338571Y71606658D01*
X51338571Y71606658D02*
X51290952Y71511420D01*
X51290952Y71511420D02*
X51243333Y71463800D01*
X51243333Y71463800D02*
X51148095Y71416181D01*
X51148095Y71416181D02*
X51005238Y71416181D01*
X49148095Y74575181D02*
X49148095Y73765658D01*
X49148095Y73765658D02*
X49195714Y73670420D01*
X49195714Y73670420D02*
X49243333Y73622800D01*
X49243333Y73622800D02*
X49338571Y73575181D01*
X49338571Y73575181D02*
X49529047Y73575181D01*
X49529047Y73575181D02*
X49624285Y73622800D01*
X49624285Y73622800D02*
X49671904Y73670420D01*
X49671904Y73670420D02*
X49719523Y73765658D01*
X49719523Y73765658D02*
X49719523Y74575181D01*
X50100476Y74575181D02*
X50719523Y74575181D01*
X50719523Y74575181D02*
X50386190Y74194229D01*
X50386190Y74194229D02*
X50529047Y74194229D01*
X50529047Y74194229D02*
X50624285Y74146610D01*
X50624285Y74146610D02*
X50671904Y74098991D01*
X50671904Y74098991D02*
X50719523Y74003753D01*
X50719523Y74003753D02*
X50719523Y73765658D01*
X50719523Y73765658D02*
X50671904Y73670420D01*
X50671904Y73670420D02*
X50624285Y73622800D01*
X50624285Y73622800D02*
X50529047Y73575181D01*
X50529047Y73575181D02*
X50243333Y73575181D01*
X50243333Y73575181D02*
X50148095Y73622800D01*
X50148095Y73622800D02*
X50100476Y73670420D01*
X13634819Y64822144D02*
X13634819Y64917382D01*
X13634819Y64917382D02*
X13682438Y65012620D01*
X13682438Y65012620D02*
X13730057Y65060239D01*
X13730057Y65060239D02*
X13825295Y65107858D01*
X13825295Y65107858D02*
X14015771Y65155477D01*
X14015771Y65155477D02*
X14253866Y65155477D01*
X14253866Y65155477D02*
X14444342Y65107858D01*
X14444342Y65107858D02*
X14539580Y65060239D01*
X14539580Y65060239D02*
X14587200Y65012620D01*
X14587200Y65012620D02*
X14634819Y64917382D01*
X14634819Y64917382D02*
X14634819Y64822144D01*
X14634819Y64822144D02*
X14587200Y64726906D01*
X14587200Y64726906D02*
X14539580Y64679287D01*
X14539580Y64679287D02*
X14444342Y64631668D01*
X14444342Y64631668D02*
X14253866Y64584049D01*
X14253866Y64584049D02*
X14015771Y64584049D01*
X14015771Y64584049D02*
X13825295Y64631668D01*
X13825295Y64631668D02*
X13730057Y64679287D01*
X13730057Y64679287D02*
X13682438Y64726906D01*
X13682438Y64726906D02*
X13634819Y64822144D01*
X14539580Y65584049D02*
X14587200Y65631668D01*
X14587200Y65631668D02*
X14634819Y65584049D01*
X14634819Y65584049D02*
X14587200Y65536430D01*
X14587200Y65536430D02*
X14539580Y65584049D01*
X14539580Y65584049D02*
X14634819Y65584049D01*
X14634819Y66584048D02*
X14634819Y66012620D01*
X14634819Y66298334D02*
X13634819Y66298334D01*
X13634819Y66298334D02*
X13777676Y66203096D01*
X13777676Y66203096D02*
X13872914Y66107858D01*
X13872914Y66107858D02*
X13920533Y66012620D01*
X13968152Y67441191D02*
X14634819Y67441191D01*
X13968152Y67012620D02*
X14491961Y67012620D01*
X14491961Y67012620D02*
X14587200Y67060239D01*
X14587200Y67060239D02*
X14634819Y67155477D01*
X14634819Y67155477D02*
X14634819Y67298334D01*
X14634819Y67298334D02*
X14587200Y67393572D01*
X14587200Y67393572D02*
X14539580Y67441191D01*
X14111009Y68250715D02*
X14111009Y67917382D01*
X14634819Y67917382D02*
X13634819Y67917382D01*
X13634819Y67917382D02*
X13634819Y68393572D01*
D11*
X12893832Y66398334D02*
X12912880Y66379286D01*
X12912880Y66379286D02*
X12931927Y66322144D01*
X12931927Y66322144D02*
X12931927Y66284048D01*
X12931927Y66284048D02*
X12912880Y66226905D01*
X12912880Y66226905D02*
X12874784Y66188810D01*
X12874784Y66188810D02*
X12836689Y66169763D01*
X12836689Y66169763D02*
X12760499Y66150715D01*
X12760499Y66150715D02*
X12703356Y66150715D01*
X12703356Y66150715D02*
X12627165Y66169763D01*
X12627165Y66169763D02*
X12589070Y66188810D01*
X12589070Y66188810D02*
X12550975Y66226905D01*
X12550975Y66226905D02*
X12531927Y66284048D01*
X12531927Y66284048D02*
X12531927Y66322144D01*
X12531927Y66322144D02*
X12550975Y66379286D01*
X12550975Y66379286D02*
X12570022Y66398334D01*
X12531927Y66531667D02*
X12531927Y66779286D01*
X12531927Y66779286D02*
X12684308Y66645953D01*
X12684308Y66645953D02*
X12684308Y66703096D01*
X12684308Y66703096D02*
X12703356Y66741191D01*
X12703356Y66741191D02*
X12722403Y66760239D01*
X12722403Y66760239D02*
X12760499Y66779286D01*
X12760499Y66779286D02*
X12855737Y66779286D01*
X12855737Y66779286D02*
X12893832Y66760239D01*
X12893832Y66760239D02*
X12912880Y66741191D01*
X12912880Y66741191D02*
X12931927Y66703096D01*
X12931927Y66703096D02*
X12931927Y66588810D01*
X12931927Y66588810D02*
X12912880Y66550715D01*
X12912880Y66550715D02*
X12893832Y66531667D01*
D10*
X7684523Y83315181D02*
X7113095Y83315181D01*
X7398809Y83315181D02*
X7398809Y84315181D01*
X7398809Y84315181D02*
X7303571Y84172324D01*
X7303571Y84172324D02*
X7208333Y84077086D01*
X7208333Y84077086D02*
X7113095Y84029467D01*
X8303571Y84315181D02*
X8398809Y84315181D01*
X8398809Y84315181D02*
X8494047Y84267562D01*
X8494047Y84267562D02*
X8541666Y84219943D01*
X8541666Y84219943D02*
X8589285Y84124705D01*
X8589285Y84124705D02*
X8636904Y83934229D01*
X8636904Y83934229D02*
X8636904Y83696134D01*
X8636904Y83696134D02*
X8589285Y83505658D01*
X8589285Y83505658D02*
X8541666Y83410420D01*
X8541666Y83410420D02*
X8494047Y83362800D01*
X8494047Y83362800D02*
X8398809Y83315181D01*
X8398809Y83315181D02*
X8303571Y83315181D01*
X8303571Y83315181D02*
X8208333Y83362800D01*
X8208333Y83362800D02*
X8160714Y83410420D01*
X8160714Y83410420D02*
X8113095Y83505658D01*
X8113095Y83505658D02*
X8065476Y83696134D01*
X8065476Y83696134D02*
X8065476Y83934229D01*
X8065476Y83934229D02*
X8113095Y84124705D01*
X8113095Y84124705D02*
X8160714Y84219943D01*
X8160714Y84219943D02*
X8208333Y84267562D01*
X8208333Y84267562D02*
X8303571Y84315181D01*
X9636904Y83315181D02*
X9303571Y83791372D01*
X9065476Y83315181D02*
X9065476Y84315181D01*
X9065476Y84315181D02*
X9446428Y84315181D01*
X9446428Y84315181D02*
X9541666Y84267562D01*
X9541666Y84267562D02*
X9589285Y84219943D01*
X9589285Y84219943D02*
X9636904Y84124705D01*
X9636904Y84124705D02*
X9636904Y83981848D01*
X9636904Y83981848D02*
X9589285Y83886610D01*
X9589285Y83886610D02*
X9541666Y83838991D01*
X9541666Y83838991D02*
X9446428Y83791372D01*
X9446428Y83791372D02*
X9065476Y83791372D01*
D11*
X8308333Y85018073D02*
X8175000Y85208549D01*
X8079762Y85018073D02*
X8079762Y85418073D01*
X8079762Y85418073D02*
X8232143Y85418073D01*
X8232143Y85418073D02*
X8270238Y85399025D01*
X8270238Y85399025D02*
X8289285Y85379978D01*
X8289285Y85379978D02*
X8308333Y85341882D01*
X8308333Y85341882D02*
X8308333Y85284740D01*
X8308333Y85284740D02*
X8289285Y85246644D01*
X8289285Y85246644D02*
X8270238Y85227597D01*
X8270238Y85227597D02*
X8232143Y85208549D01*
X8232143Y85208549D02*
X8079762Y85208549D01*
X8689285Y85018073D02*
X8460714Y85018073D01*
X8575000Y85018073D02*
X8575000Y85418073D01*
X8575000Y85418073D02*
X8536904Y85360930D01*
X8536904Y85360930D02*
X8498809Y85322835D01*
X8498809Y85322835D02*
X8460714Y85303787D01*
D10*
X-1062981Y24718877D02*
X-62981Y24956972D01*
X-62981Y24956972D02*
X-777267Y25147448D01*
X-777267Y25147448D02*
X-62981Y25337924D01*
X-62981Y25337924D02*
X-1062981Y25576019D01*
X-110600Y25909353D02*
X-62981Y26052210D01*
X-62981Y26052210D02*
X-62981Y26290305D01*
X-62981Y26290305D02*
X-110600Y26385543D01*
X-110600Y26385543D02*
X-158220Y26433162D01*
X-158220Y26433162D02*
X-253458Y26480781D01*
X-253458Y26480781D02*
X-348696Y26480781D01*
X-348696Y26480781D02*
X-443934Y26433162D01*
X-443934Y26433162D02*
X-491553Y26385543D01*
X-491553Y26385543D02*
X-539172Y26290305D01*
X-539172Y26290305D02*
X-586791Y26099829D01*
X-586791Y26099829D02*
X-634410Y26004591D01*
X-634410Y26004591D02*
X-682029Y25956972D01*
X-682029Y25956972D02*
X-777267Y25909353D01*
X-777267Y25909353D02*
X-872505Y25909353D01*
X-872505Y25909353D02*
X-967743Y25956972D01*
X-967743Y25956972D02*
X-1015362Y26004591D01*
X-1015362Y26004591D02*
X-1062981Y26099829D01*
X-1062981Y26099829D02*
X-1062981Y26337924D01*
X-1062981Y26337924D02*
X-1015362Y26480781D01*
X-967743Y26861734D02*
X-1015362Y26909353D01*
X-1015362Y26909353D02*
X-1062981Y27004591D01*
X-1062981Y27004591D02*
X-1062981Y27242686D01*
X-1062981Y27242686D02*
X-1015362Y27337924D01*
X-1015362Y27337924D02*
X-967743Y27385543D01*
X-967743Y27385543D02*
X-872505Y27433162D01*
X-872505Y27433162D02*
X-777267Y27433162D01*
X-777267Y27433162D02*
X-634410Y27385543D01*
X-634410Y27385543D02*
X-62981Y26814115D01*
X-62981Y26814115D02*
X-62981Y27433162D01*
X-634410Y28004591D02*
X-682029Y27909353D01*
X-682029Y27909353D02*
X-729648Y27861734D01*
X-729648Y27861734D02*
X-824886Y27814115D01*
X-824886Y27814115D02*
X-872505Y27814115D01*
X-872505Y27814115D02*
X-967743Y27861734D01*
X-967743Y27861734D02*
X-1015362Y27909353D01*
X-1015362Y27909353D02*
X-1062981Y28004591D01*
X-1062981Y28004591D02*
X-1062981Y28195067D01*
X-1062981Y28195067D02*
X-1015362Y28290305D01*
X-1015362Y28290305D02*
X-967743Y28337924D01*
X-967743Y28337924D02*
X-872505Y28385543D01*
X-872505Y28385543D02*
X-824886Y28385543D01*
X-824886Y28385543D02*
X-729648Y28337924D01*
X-729648Y28337924D02*
X-682029Y28290305D01*
X-682029Y28290305D02*
X-634410Y28195067D01*
X-634410Y28195067D02*
X-634410Y28004591D01*
X-634410Y28004591D02*
X-586791Y27909353D01*
X-586791Y27909353D02*
X-539172Y27861734D01*
X-539172Y27861734D02*
X-443934Y27814115D01*
X-443934Y27814115D02*
X-253458Y27814115D01*
X-253458Y27814115D02*
X-158220Y27861734D01*
X-158220Y27861734D02*
X-110600Y27909353D01*
X-110600Y27909353D02*
X-62981Y28004591D01*
X-62981Y28004591D02*
X-62981Y28195067D01*
X-62981Y28195067D02*
X-110600Y28290305D01*
X-110600Y28290305D02*
X-158220Y28337924D01*
X-158220Y28337924D02*
X-253458Y28385543D01*
X-253458Y28385543D02*
X-443934Y28385543D01*
X-443934Y28385543D02*
X-539172Y28337924D01*
X-539172Y28337924D02*
X-586791Y28290305D01*
X-586791Y28290305D02*
X-634410Y28195067D01*
X-62981Y29337924D02*
X-62981Y28766496D01*
X-62981Y29052210D02*
X-1062981Y29052210D01*
X-1062981Y29052210D02*
X-920124Y28956972D01*
X-920124Y28956972D02*
X-824886Y28861734D01*
X-824886Y28861734D02*
X-777267Y28766496D01*
X-967743Y29718877D02*
X-1015362Y29766496D01*
X-1015362Y29766496D02*
X-1062981Y29861734D01*
X-1062981Y29861734D02*
X-1062981Y30099829D01*
X-1062981Y30099829D02*
X-1015362Y30195067D01*
X-1015362Y30195067D02*
X-967743Y30242686D01*
X-967743Y30242686D02*
X-872505Y30290305D01*
X-872505Y30290305D02*
X-777267Y30290305D01*
X-777267Y30290305D02*
X-634410Y30242686D01*
X-634410Y30242686D02*
X-62981Y29671258D01*
X-62981Y29671258D02*
X-62981Y30290305D01*
X-586791Y31052210D02*
X-539172Y31195067D01*
X-539172Y31195067D02*
X-491553Y31242686D01*
X-491553Y31242686D02*
X-396315Y31290305D01*
X-396315Y31290305D02*
X-253458Y31290305D01*
X-253458Y31290305D02*
X-158220Y31242686D01*
X-158220Y31242686D02*
X-110600Y31195067D01*
X-110600Y31195067D02*
X-62981Y31099829D01*
X-62981Y31099829D02*
X-62981Y30718877D01*
X-62981Y30718877D02*
X-1062981Y30718877D01*
X-1062981Y30718877D02*
X-1062981Y31052210D01*
X-1062981Y31052210D02*
X-1015362Y31147448D01*
X-1015362Y31147448D02*
X-967743Y31195067D01*
X-967743Y31195067D02*
X-872505Y31242686D01*
X-872505Y31242686D02*
X-777267Y31242686D01*
X-777267Y31242686D02*
X-682029Y31195067D01*
X-682029Y31195067D02*
X-634410Y31147448D01*
X-634410Y31147448D02*
X-586791Y31052210D01*
X-586791Y31052210D02*
X-586791Y30718877D01*
X27242076Y27381D02*
X27480171Y-972619D01*
X27480171Y-972619D02*
X27670647Y-258333D01*
X27670647Y-258333D02*
X27861123Y-972619D01*
X27861123Y-972619D02*
X28099219Y27381D01*
X28432552Y-925000D02*
X28575409Y-972619D01*
X28575409Y-972619D02*
X28813504Y-972619D01*
X28813504Y-972619D02*
X28908742Y-925000D01*
X28908742Y-925000D02*
X28956361Y-877380D01*
X28956361Y-877380D02*
X29003980Y-782142D01*
X29003980Y-782142D02*
X29003980Y-686904D01*
X29003980Y-686904D02*
X28956361Y-591666D01*
X28956361Y-591666D02*
X28908742Y-544047D01*
X28908742Y-544047D02*
X28813504Y-496428D01*
X28813504Y-496428D02*
X28623028Y-448809D01*
X28623028Y-448809D02*
X28527790Y-401190D01*
X28527790Y-401190D02*
X28480171Y-353571D01*
X28480171Y-353571D02*
X28432552Y-258333D01*
X28432552Y-258333D02*
X28432552Y-163095D01*
X28432552Y-163095D02*
X28480171Y-67857D01*
X28480171Y-67857D02*
X28527790Y-20238D01*
X28527790Y-20238D02*
X28623028Y27381D01*
X28623028Y27381D02*
X28861123Y27381D01*
X28861123Y27381D02*
X29003980Y-20238D01*
X29384933Y-67857D02*
X29432552Y-20238D01*
X29432552Y-20238D02*
X29527790Y27381D01*
X29527790Y27381D02*
X29765885Y27381D01*
X29765885Y27381D02*
X29861123Y-20238D01*
X29861123Y-20238D02*
X29908742Y-67857D01*
X29908742Y-67857D02*
X29956361Y-163095D01*
X29956361Y-163095D02*
X29956361Y-258333D01*
X29956361Y-258333D02*
X29908742Y-401190D01*
X29908742Y-401190D02*
X29337314Y-972619D01*
X29337314Y-972619D02*
X29956361Y-972619D01*
X30527790Y-401190D02*
X30432552Y-353571D01*
X30432552Y-353571D02*
X30384933Y-305952D01*
X30384933Y-305952D02*
X30337314Y-210714D01*
X30337314Y-210714D02*
X30337314Y-163095D01*
X30337314Y-163095D02*
X30384933Y-67857D01*
X30384933Y-67857D02*
X30432552Y-20238D01*
X30432552Y-20238D02*
X30527790Y27381D01*
X30527790Y27381D02*
X30718266Y27381D01*
X30718266Y27381D02*
X30813504Y-20238D01*
X30813504Y-20238D02*
X30861123Y-67857D01*
X30861123Y-67857D02*
X30908742Y-163095D01*
X30908742Y-163095D02*
X30908742Y-210714D01*
X30908742Y-210714D02*
X30861123Y-305952D01*
X30861123Y-305952D02*
X30813504Y-353571D01*
X30813504Y-353571D02*
X30718266Y-401190D01*
X30718266Y-401190D02*
X30527790Y-401190D01*
X30527790Y-401190D02*
X30432552Y-448809D01*
X30432552Y-448809D02*
X30384933Y-496428D01*
X30384933Y-496428D02*
X30337314Y-591666D01*
X30337314Y-591666D02*
X30337314Y-782142D01*
X30337314Y-782142D02*
X30384933Y-877380D01*
X30384933Y-877380D02*
X30432552Y-925000D01*
X30432552Y-925000D02*
X30527790Y-972619D01*
X30527790Y-972619D02*
X30718266Y-972619D01*
X30718266Y-972619D02*
X30813504Y-925000D01*
X30813504Y-925000D02*
X30861123Y-877380D01*
X30861123Y-877380D02*
X30908742Y-782142D01*
X30908742Y-782142D02*
X30908742Y-591666D01*
X30908742Y-591666D02*
X30861123Y-496428D01*
X30861123Y-496428D02*
X30813504Y-448809D01*
X30813504Y-448809D02*
X30718266Y-401190D01*
X31861123Y-972619D02*
X31289695Y-972619D01*
X31575409Y-972619D02*
X31575409Y27381D01*
X31575409Y27381D02*
X31480171Y-115476D01*
X31480171Y-115476D02*
X31384933Y-210714D01*
X31384933Y-210714D02*
X31289695Y-258333D01*
X32242076Y-67857D02*
X32289695Y-20238D01*
X32289695Y-20238D02*
X32384933Y27381D01*
X32384933Y27381D02*
X32623028Y27381D01*
X32623028Y27381D02*
X32718266Y-20238D01*
X32718266Y-20238D02*
X32765885Y-67857D01*
X32765885Y-67857D02*
X32813504Y-163095D01*
X32813504Y-163095D02*
X32813504Y-258333D01*
X32813504Y-258333D02*
X32765885Y-401190D01*
X32765885Y-401190D02*
X32194457Y-972619D01*
X32194457Y-972619D02*
X32813504Y-972619D01*
X33575409Y-448809D02*
X33718266Y-496428D01*
X33718266Y-496428D02*
X33765885Y-544047D01*
X33765885Y-544047D02*
X33813504Y-639285D01*
X33813504Y-639285D02*
X33813504Y-782142D01*
X33813504Y-782142D02*
X33765885Y-877380D01*
X33765885Y-877380D02*
X33718266Y-925000D01*
X33718266Y-925000D02*
X33623028Y-972619D01*
X33623028Y-972619D02*
X33242076Y-972619D01*
X33242076Y-972619D02*
X33242076Y27381D01*
X33242076Y27381D02*
X33575409Y27381D01*
X33575409Y27381D02*
X33670647Y-20238D01*
X33670647Y-20238D02*
X33718266Y-67857D01*
X33718266Y-67857D02*
X33765885Y-163095D01*
X33765885Y-163095D02*
X33765885Y-258333D01*
X33765885Y-258333D02*
X33718266Y-353571D01*
X33718266Y-353571D02*
X33670647Y-401190D01*
X33670647Y-401190D02*
X33575409Y-448809D01*
X33575409Y-448809D02*
X33242076Y-448809D01*
D15*
%TO.C,FID3*%
X10800000Y9100000D02*
G75*
G02*
X8800000Y9100000I-1000000J0D01*
G01*
X8800000Y9100000D02*
G75*
G02*
X10800000Y9100000I1000000J0D01*
G01*
%TO.C,C5*%
X15775000Y60940000D02*
X17375000Y60940000D01*
X15775000Y60140000D02*
X15775000Y60940000D01*
X17375000Y60940000D02*
X17375000Y60140000D01*
X17375000Y60140000D02*
X15775000Y60140000D01*
%TO.C,D19*%
X66850000Y96050000D02*
X68150000Y96050000D01*
X66850000Y95150000D02*
X66850000Y96050000D01*
X67300000Y95600000D02*
X67150000Y95600000D01*
X67300000Y95600000D02*
X67600000Y95400000D01*
X67300000Y95400000D02*
X67300000Y95800000D01*
X67600000Y95800000D02*
X67300000Y95600000D01*
X67600000Y95600000D02*
X67750000Y95600000D01*
X67600000Y95400000D02*
X67600000Y95800000D01*
X68150000Y96050000D02*
X68150000Y95150000D01*
X68150000Y95150000D02*
X66850000Y95150000D01*
%TO.C,C1*%
X82200000Y83625000D02*
X84200000Y83625000D01*
X82200000Y82375000D02*
X82200000Y83625000D01*
X84200000Y83625000D02*
X84200000Y82375000D01*
X84200000Y82375000D02*
X82200000Y82375000D01*
%TO.C,J2*%
X36050000Y27850000D02*
X36650000Y27850000D01*
X36050000Y23250000D02*
X36050000Y27850000D01*
X36150000Y28850000D02*
X50100000Y28850000D01*
X36150000Y28150000D02*
X36150000Y28850000D01*
X36650000Y28150000D02*
X36150000Y28150000D01*
X36650000Y27850000D02*
X36650000Y28150000D01*
X50100000Y23250000D02*
X36050000Y23250000D01*
X50100000Y23250000D02*
X64150000Y23250000D01*
X62350000Y23957107D02*
X61850000Y23250000D01*
X62850000Y23250000D02*
X62350000Y23957107D01*
X63550000Y28150000D02*
X64050000Y28150000D01*
X63550000Y27850000D02*
X63550000Y28150000D01*
X64050000Y28850000D02*
X50100000Y28850000D01*
X64050000Y28150000D02*
X64050000Y28850000D01*
X64150000Y27850000D02*
X63550000Y27850000D01*
X64150000Y23250000D02*
X64150000Y27850000D01*
%TO.C,R3*%
X22537500Y66865000D02*
X23362500Y66865000D01*
X22537500Y65265000D02*
X22537500Y66865000D01*
X23362500Y66865000D02*
X23362500Y65265000D01*
X23362500Y65265000D02*
X22537500Y65265000D01*
%TO.C,SW1*%
X71900000Y99500000D02*
X80800000Y99500000D01*
X71900000Y95900000D02*
X71900000Y99500000D01*
X73600000Y99800000D02*
X73600000Y99500000D01*
X73600000Y99500000D02*
X73600000Y99500000D01*
X74200000Y99800000D02*
X73600000Y99800000D01*
X74200000Y99500000D02*
X74200000Y99800000D01*
X76100000Y99800000D02*
X76700000Y99800000D01*
X76100000Y99500000D02*
X76100000Y99800000D01*
X76700000Y99800000D02*
X76700000Y99500000D01*
X76700000Y99500000D02*
X76700000Y99500000D01*
X76900000Y101500000D02*
X78400000Y101500000D01*
X76900000Y99500000D02*
X76900000Y101500000D01*
X77900000Y99500000D02*
X77900000Y99500000D01*
X78400000Y101500000D02*
X78400000Y99500000D01*
X78400000Y99500000D02*
X78400000Y99500000D01*
X78600000Y99800000D02*
X79200000Y99800000D01*
X78600000Y99500000D02*
X78600000Y99800000D01*
X79200000Y99800000D02*
X79200000Y99500000D01*
X79200000Y99500000D02*
X79200000Y99500000D01*
X80800000Y99500000D02*
X80900000Y99500000D01*
X80900000Y99500000D02*
X80900000Y99500000D01*
X80900000Y99500000D02*
X80900000Y99500000D01*
X80900000Y95900000D02*
X71900000Y95900000D01*
X80900000Y95900000D02*
X80900000Y99500000D01*
%TO.C,FID4*%
X91500000Y9100000D02*
G75*
G02*
X89500000Y9100000I-1000000J0D01*
G01*
X89500000Y9100000D02*
G75*
G02*
X91500000Y9100000I1000000J0D01*
G01*
%TO.C,R2*%
X60575000Y19912500D02*
X62175000Y19912500D01*
X60575000Y19087500D02*
X60575000Y19912500D01*
X62175000Y19912500D02*
X62175000Y19087500D01*
X62175000Y19087500D02*
X60575000Y19087500D01*
%TO.C,FID1*%
X11100000Y91400000D02*
G75*
G02*
X9100000Y91400000I-1000000J0D01*
G01*
X9100000Y91400000D02*
G75*
G02*
X11100000Y91400000I1000000J0D01*
G01*
%TO.C,L1*%
X85200000Y87575000D02*
X87200000Y87575000D01*
X85200000Y85075000D02*
X85200000Y87575000D01*
X87200000Y87575000D02*
X87200000Y85075000D01*
X87200000Y85075000D02*
X85200000Y85075000D01*
D16*
%TO.C,U2*%
X15320000Y67750000D02*
X15320000Y63990000D01*
X20040000Y67750000D02*
X15320000Y67750000D01*
X20040000Y67750000D02*
X20040000Y63990000D01*
X20040000Y63990000D02*
X15320000Y63990000D01*
D17*
X19650000Y68270000D02*
G75*
G02*
X19450000Y68270000I-100000J0D01*
G01*
X19450000Y68270000D02*
G75*
G02*
X19650000Y68270000I100000J0D01*
G01*
D15*
%TO.C,C4*%
X41025000Y19900000D02*
X42625000Y19900000D01*
X41025000Y19100000D02*
X41025000Y19900000D01*
X42625000Y19900000D02*
X42625000Y19100000D01*
X42625000Y19100000D02*
X41025000Y19100000D01*
%TO.C,C2*%
X80925000Y89800000D02*
X82525000Y89800000D01*
X80925000Y89000000D02*
X80925000Y89800000D01*
X82525000Y89800000D02*
X82525000Y89000000D01*
X82525000Y89000000D02*
X80925000Y89000000D01*
%TO.C,R4*%
X80587500Y71725000D02*
X82187500Y71725000D01*
X80587500Y70900000D02*
X80587500Y71725000D01*
X82187500Y71725000D02*
X82187500Y70900000D01*
X82187500Y70900000D02*
X80587500Y70900000D01*
%TO.C,U1*%
X81562500Y87400000D02*
X81962500Y87800000D01*
X81562500Y84900000D02*
X81562500Y87400000D01*
X81962500Y87800000D02*
X83162500Y87800000D01*
X83162500Y87800000D02*
X83162500Y84900000D01*
X83162500Y84900000D02*
X81562500Y84900000D01*
%TO.C,U4*%
X81862500Y75800000D02*
X82612500Y76550000D01*
X81862500Y73550000D02*
X81862500Y75800000D01*
X82612500Y76550000D02*
X84862500Y76550000D01*
X84862500Y76550000D02*
X84862500Y73550000D01*
X84862500Y73550000D02*
X81862500Y73550000D01*
%TO.C,FID2*%
X91100000Y91300000D02*
G75*
G02*
X89100000Y91300000I-1000000J0D01*
G01*
X89100000Y91300000D02*
G75*
G02*
X91100000Y91300000I1000000J0D01*
G01*
%TO.C,C6*%
X41025000Y18300000D02*
X42625000Y18300000D01*
X41025000Y17500000D02*
X41025000Y18300000D01*
X42625000Y18300000D02*
X42625000Y17500000D01*
X42625000Y17500000D02*
X41025000Y17500000D01*
D18*
%TO.C,U3*%
X39410000Y99530000D02*
X60410000Y99530000D01*
X39410000Y98230000D02*
X40710000Y99530000D01*
X39410000Y48530000D02*
X39410000Y99530000D01*
X60410000Y99530000D02*
X60410000Y48530000D01*
X60410000Y48530000D02*
X39410000Y48530000D01*
D15*
%TO.C,C3*%
X12350000Y67265000D02*
X13150000Y67265000D01*
X12350000Y65665000D02*
X12350000Y67265000D01*
X13150000Y67265000D02*
X13150000Y65665000D01*
X13150000Y65665000D02*
X12350000Y65665000D01*
%TO.C,R1*%
X7575000Y85612500D02*
X9175000Y85612500D01*
X7575000Y84787500D02*
X7575000Y85612500D01*
X9175000Y85612500D02*
X9175000Y84787500D01*
X9175000Y84787500D02*
X7575000Y84787500D01*
%TD*%
M02*
