%TF.GenerationSoftware,KiCad,Pcbnew,8.0.3*%
%TF.CreationDate,2024-07-01T01:23:48-06:00*%
%TF.ProjectId,dc32,64633332-2e6b-4696-9361-645f70636258,1.0*%
%TF.SameCoordinates,PX7bb10a0PY836a940*%
%TF.FileFunction,Soldermask,Bot*%
%TF.FilePolarity,Negative*%
%FSLAX46Y46*%
G04 Gerber Fmt 4.6, Leading zero omitted, Abs format (unit mm)*
G04 Created by KiCad (PCBNEW 8.0.3) date 2024-07-01 01:23:48*
%MOMM*%
%LPD*%
G01*
G04 APERTURE LIST*
%ADD10O,1.800000X1.800000*%
%ADD11O,1.500000X1.500000*%
%ADD12C,1.200000*%
%ADD13C,0.900000*%
%ADD14O,3.200000X3.500000*%
%ADD15C,1.800000*%
%ADD16C,1.500000*%
%ADD17C,0.750000*%
%ADD18R,1.500000X1.500000*%
%ADD19C,0.800000*%
%ADD20C,6.400000*%
G04 APERTURE END LIST*
D10*
%TO.C,U3*%
X47185000Y98030000D03*
D11*
X47485000Y95000000D03*
X52335000Y95000000D03*
D10*
X52635000Y98030000D03*
%TD*%
D12*
%TO.C,J1*%
X28030000Y93600000D03*
X20050000Y93600000D03*
%TD*%
D13*
%TO.C,SW1*%
X79800000Y97700000D03*
X73000000Y97700000D03*
%TD*%
D14*
%TO.C,SW2*%
X69400000Y27400000D03*
X80600000Y27400000D03*
D15*
X72500000Y19900000D03*
X77500000Y19900000D03*
X75000000Y19900000D03*
X72500000Y34400000D03*
X77500000Y34400000D03*
%TD*%
D16*
%TO.C,REF\u002A\u002A*%
X81400000Y50807696D03*
X87400000Y50807696D03*
X84400000Y52003848D03*
X82400000Y52539746D03*
X86400000Y52539746D03*
X79203848Y53003848D03*
X89596152Y53003848D03*
X80935898Y54003848D03*
X87864102Y54003848D03*
X83400000Y54271797D03*
X85400000Y54271797D03*
X80400000Y56003848D03*
X82400000Y56003848D03*
X84400000Y56003848D03*
X86400000Y56003848D03*
X88400000Y56003848D03*
X83400000Y57735899D03*
X85400000Y57735899D03*
X80935898Y58003848D03*
X87864102Y58003848D03*
X79203848Y59003848D03*
X89596152Y59003848D03*
X82400000Y59467950D03*
X86400000Y59467950D03*
X84400000Y60003848D03*
X81400000Y61200000D03*
X87400000Y61200000D03*
%TD*%
D17*
%TO.C,U2*%
X16390000Y65870000D03*
%TD*%
D18*
%TO.C,TP1*%
X68300000Y57300000D03*
%TD*%
D19*
%TO.C,H4*%
X7400000Y5000000D03*
X6697056Y3302944D03*
X6697056Y6697056D03*
X5000000Y2600000D03*
D20*
X5000000Y5000000D03*
D19*
X5000000Y7400000D03*
X3302944Y3302944D03*
X3302944Y6697056D03*
X2600000Y5000000D03*
%TD*%
%TO.C,H1*%
X97400000Y95000000D03*
X96697056Y93302944D03*
X96697056Y96697056D03*
X95000000Y92600000D03*
D20*
X95000000Y95000000D03*
D19*
X95000000Y97400000D03*
X93302944Y93302944D03*
X93302944Y96697056D03*
X92600000Y95000000D03*
%TD*%
%TO.C,H3*%
X97400000Y5000000D03*
X96697056Y3302944D03*
X96697056Y6697056D03*
X95000000Y2600000D03*
D20*
X95000000Y5000000D03*
D19*
X95000000Y7400000D03*
X93302944Y3302944D03*
X93302944Y6697056D03*
X92600000Y5000000D03*
%TD*%
D18*
%TO.C,TP2*%
X73200000Y57300000D03*
%TD*%
D19*
%TO.C,H2*%
X7400000Y95000000D03*
X6697056Y93302944D03*
X6697056Y96697056D03*
X5000000Y92600000D03*
D20*
X5000000Y95000000D03*
D19*
X5000000Y97400000D03*
X3302944Y93302944D03*
X3302944Y96697056D03*
X2600000Y95000000D03*
%TD*%
M02*
