%TF.GenerationSoftware,KiCad,Pcbnew,8.0.3*%
%TF.CreationDate,2024-06-20T00:16:15-06:00*%
%TF.ProjectId,dc32-front,64633332-2d66-4726-9f6e-742e6b696361,1.0*%
%TF.SameCoordinates,PX7bb10a0PY836a940*%
%TF.FileFunction,Drillmap*%
%TF.FilePolarity,Positive*%
%FSLAX45Y45*%
G04 Gerber Fmt 4.5, Leading zero omitted, Abs format (unit mm)*
G04 Created by KiCad (PCBNEW 8.0.3) date 2024-06-20 00:16:15*
%MOMM*%
%LPD*%
G01*
G04 APERTURE LIST*
%ADD10C,0.100000*%
%ADD11C,0.150000*%
%ADD12C,0.200000*%
G04 APERTURE END LIST*
D10*
X200000Y0D02*
X9800000Y0D01*
X660312Y500000D02*
G75*
G02*
X339688Y500000I-160312J0D01*
G01*
X339688Y500000D02*
G75*
G02*
X660312Y500000I160312J0D01*
G01*
X0Y9800000D02*
G75*
G02*
X200000Y10000000I200000J0D01*
G01*
X10000000Y200000D02*
G75*
G02*
X9800000Y0I-200000J0D01*
G01*
X660000Y9500000D02*
G75*
G02*
X340000Y9500000I-160000J0D01*
G01*
X340000Y9500000D02*
G75*
G02*
X660000Y9500000I160000J0D01*
G01*
X9800000Y10000000D02*
G75*
G02*
X10000000Y9800000I0J-200000D01*
G01*
X9800000Y10000000D02*
X200000Y10000000D01*
X9660000Y500000D02*
G75*
G02*
X9340000Y500000I-160000J0D01*
G01*
X9340000Y500000D02*
G75*
G02*
X9660000Y500000I160000J0D01*
G01*
X200000Y0D02*
G75*
G02*
X0Y200000I0J200000D01*
G01*
X2470000Y6350000D02*
G75*
G02*
X2270000Y6350000I-100000J0D01*
G01*
X2270000Y6350000D02*
G75*
G02*
X2470000Y6350000I100000J0D01*
G01*
X5100000Y8450000D02*
G75*
G02*
X4900000Y8450000I-100000J0D01*
G01*
X4900000Y8450000D02*
G75*
G02*
X5100000Y8450000I100000J0D01*
G01*
X10000000Y200000D02*
X10000000Y9800000D01*
X0Y9800000D02*
X0Y200000D01*
X2650000Y8100000D02*
X7350000Y8100000D01*
X7350000Y3950000D01*
X2650000Y3950000D01*
X2650000Y8100000D01*
D11*
X8375000Y2740000D02*
G75*
G02*
X6625000Y2740000I-875000J0D01*
G01*
X6625000Y2740000D02*
G75*
G02*
X8375000Y2740000I875000J0D01*
G01*
D10*
X7730000Y6350000D02*
G75*
G02*
X7530000Y6350000I-100000J0D01*
G01*
X7530000Y6350000D02*
G75*
G02*
X7730000Y6350000I100000J0D01*
G01*
X9660312Y9500000D02*
G75*
G02*
X9339688Y9500000I-160312J0D01*
G01*
X9339688Y9500000D02*
G75*
G02*
X9660312Y9500000I160312J0D01*
G01*
D12*
D10*
X2102000Y9724000D02*
X2202000Y9624000D01*
X2202000Y9724000D02*
X2102000Y9624000D01*
X2102000Y9470000D02*
X2202000Y9370000D01*
X2202000Y9470000D02*
X2102000Y9370000D01*
X2356000Y9724000D02*
X2456000Y9624000D01*
X2456000Y9724000D02*
X2356000Y9624000D01*
X2356000Y9470000D02*
X2456000Y9370000D01*
X2456000Y9470000D02*
X2356000Y9370000D01*
X2610000Y9724000D02*
X2710000Y9624000D01*
X2710000Y9724000D02*
X2610000Y9624000D01*
X2610000Y9470000D02*
X2710000Y9370000D01*
X2710000Y9470000D02*
X2610000Y9370000D01*
X7300000Y9724000D02*
X7400000Y9624000D01*
X7400000Y9724000D02*
X7300000Y9624000D01*
X7300000Y9470000D02*
X7400000Y9370000D01*
X7400000Y9470000D02*
X7300000Y9370000D01*
X7554000Y9724000D02*
X7654000Y9624000D01*
X7654000Y9724000D02*
X7554000Y9624000D01*
X7554000Y9470000D02*
X7654000Y9370000D01*
X7654000Y9470000D02*
X7554000Y9370000D01*
X7808000Y9724000D02*
X7908000Y9624000D01*
X7908000Y9724000D02*
X7808000Y9624000D01*
X7808000Y9470000D02*
X7908000Y9370000D01*
X7908000Y9470000D02*
X7808000Y9370000D01*
D12*
X255777Y-316484D02*
X255777Y-116484D01*
X255777Y-116484D02*
X303396Y-116484D01*
X303396Y-116484D02*
X331967Y-126008D01*
X331967Y-126008D02*
X351015Y-145055D01*
X351015Y-145055D02*
X360539Y-164103D01*
X360539Y-164103D02*
X370062Y-202198D01*
X370062Y-202198D02*
X370062Y-230769D01*
X370062Y-230769D02*
X360539Y-268865D01*
X360539Y-268865D02*
X351015Y-287912D01*
X351015Y-287912D02*
X331967Y-306960D01*
X331967Y-306960D02*
X303396Y-316484D01*
X303396Y-316484D02*
X255777Y-316484D01*
X455777Y-316484D02*
X455777Y-183150D01*
X455777Y-221246D02*
X465301Y-202198D01*
X465301Y-202198D02*
X474824Y-192674D01*
X474824Y-192674D02*
X493872Y-183150D01*
X493872Y-183150D02*
X512920Y-183150D01*
X579586Y-316484D02*
X579586Y-183150D01*
X579586Y-116484D02*
X570063Y-126008D01*
X570063Y-126008D02*
X579586Y-135531D01*
X579586Y-135531D02*
X589110Y-126008D01*
X589110Y-126008D02*
X579586Y-116484D01*
X579586Y-116484D02*
X579586Y-135531D01*
X703396Y-316484D02*
X684348Y-306960D01*
X684348Y-306960D02*
X674824Y-287912D01*
X674824Y-287912D02*
X674824Y-116484D01*
X808158Y-316484D02*
X789110Y-306960D01*
X789110Y-306960D02*
X779586Y-287912D01*
X779586Y-287912D02*
X779586Y-116484D01*
X1036729Y-316484D02*
X1036729Y-116484D01*
X1036729Y-116484D02*
X1103396Y-259341D01*
X1103396Y-259341D02*
X1170063Y-116484D01*
X1170063Y-116484D02*
X1170063Y-316484D01*
X1351015Y-316484D02*
X1351015Y-211722D01*
X1351015Y-211722D02*
X1341491Y-192674D01*
X1341491Y-192674D02*
X1322444Y-183150D01*
X1322444Y-183150D02*
X1284348Y-183150D01*
X1284348Y-183150D02*
X1265301Y-192674D01*
X1351015Y-306960D02*
X1331967Y-316484D01*
X1331967Y-316484D02*
X1284348Y-316484D01*
X1284348Y-316484D02*
X1265301Y-306960D01*
X1265301Y-306960D02*
X1255777Y-287912D01*
X1255777Y-287912D02*
X1255777Y-268865D01*
X1255777Y-268865D02*
X1265301Y-249817D01*
X1265301Y-249817D02*
X1284348Y-240293D01*
X1284348Y-240293D02*
X1331967Y-240293D01*
X1331967Y-240293D02*
X1351015Y-230769D01*
X1446253Y-183150D02*
X1446253Y-383150D01*
X1446253Y-192674D02*
X1465301Y-183150D01*
X1465301Y-183150D02*
X1503396Y-183150D01*
X1503396Y-183150D02*
X1522443Y-192674D01*
X1522443Y-192674D02*
X1531967Y-202198D01*
X1531967Y-202198D02*
X1541491Y-221246D01*
X1541491Y-221246D02*
X1541491Y-278389D01*
X1541491Y-278389D02*
X1531967Y-297436D01*
X1531967Y-297436D02*
X1522443Y-306960D01*
X1522443Y-306960D02*
X1503396Y-316484D01*
X1503396Y-316484D02*
X1465301Y-316484D01*
X1465301Y-316484D02*
X1446253Y-306960D01*
X1627205Y-297436D02*
X1636729Y-306960D01*
X1636729Y-306960D02*
X1627205Y-316484D01*
X1627205Y-316484D02*
X1617682Y-306960D01*
X1617682Y-306960D02*
X1627205Y-297436D01*
X1627205Y-297436D02*
X1627205Y-316484D01*
X1627205Y-192674D02*
X1636729Y-202198D01*
X1636729Y-202198D02*
X1627205Y-211722D01*
X1627205Y-211722D02*
X1617682Y-202198D01*
X1617682Y-202198D02*
X1627205Y-192674D01*
X1627205Y-192674D02*
X1627205Y-211722D01*
D10*
X-105000Y-595000D02*
X-5000Y-695000D01*
X-5000Y-595000D02*
X-105000Y-695000D01*
D12*
X360539Y-736484D02*
X246253Y-736484D01*
X303396Y-736484D02*
X303396Y-536484D01*
X303396Y-536484D02*
X284348Y-565055D01*
X284348Y-565055D02*
X265301Y-584103D01*
X265301Y-584103D02*
X246253Y-593627D01*
X446253Y-717436D02*
X455777Y-726960D01*
X455777Y-726960D02*
X446253Y-736484D01*
X446253Y-736484D02*
X436729Y-726960D01*
X436729Y-726960D02*
X446253Y-717436D01*
X446253Y-717436D02*
X446253Y-736484D01*
X579586Y-536484D02*
X598634Y-536484D01*
X598634Y-536484D02*
X617682Y-546008D01*
X617682Y-546008D02*
X627205Y-555531D01*
X627205Y-555531D02*
X636729Y-574579D01*
X636729Y-574579D02*
X646253Y-612674D01*
X646253Y-612674D02*
X646253Y-660293D01*
X646253Y-660293D02*
X636729Y-698389D01*
X636729Y-698389D02*
X627205Y-717436D01*
X627205Y-717436D02*
X617682Y-726960D01*
X617682Y-726960D02*
X598634Y-736484D01*
X598634Y-736484D02*
X579586Y-736484D01*
X579586Y-736484D02*
X560539Y-726960D01*
X560539Y-726960D02*
X551015Y-717436D01*
X551015Y-717436D02*
X541491Y-698389D01*
X541491Y-698389D02*
X531967Y-660293D01*
X531967Y-660293D02*
X531967Y-612674D01*
X531967Y-612674D02*
X541491Y-574579D01*
X541491Y-574579D02*
X551015Y-555531D01*
X551015Y-555531D02*
X560539Y-546008D01*
X560539Y-546008D02*
X579586Y-536484D01*
X770062Y-536484D02*
X789110Y-536484D01*
X789110Y-536484D02*
X808158Y-546008D01*
X808158Y-546008D02*
X817682Y-555531D01*
X817682Y-555531D02*
X827205Y-574579D01*
X827205Y-574579D02*
X836729Y-612674D01*
X836729Y-612674D02*
X836729Y-660293D01*
X836729Y-660293D02*
X827205Y-698389D01*
X827205Y-698389D02*
X817682Y-717436D01*
X817682Y-717436D02*
X808158Y-726960D01*
X808158Y-726960D02*
X789110Y-736484D01*
X789110Y-736484D02*
X770062Y-736484D01*
X770062Y-736484D02*
X751015Y-726960D01*
X751015Y-726960D02*
X741491Y-717436D01*
X741491Y-717436D02*
X731967Y-698389D01*
X731967Y-698389D02*
X722443Y-660293D01*
X722443Y-660293D02*
X722443Y-612674D01*
X722443Y-612674D02*
X731967Y-574579D01*
X731967Y-574579D02*
X741491Y-555531D01*
X741491Y-555531D02*
X751015Y-546008D01*
X751015Y-546008D02*
X770062Y-536484D01*
X960539Y-536484D02*
X979586Y-536484D01*
X979586Y-536484D02*
X998634Y-546008D01*
X998634Y-546008D02*
X1008158Y-555531D01*
X1008158Y-555531D02*
X1017682Y-574579D01*
X1017682Y-574579D02*
X1027205Y-612674D01*
X1027205Y-612674D02*
X1027205Y-660293D01*
X1027205Y-660293D02*
X1017682Y-698389D01*
X1017682Y-698389D02*
X1008158Y-717436D01*
X1008158Y-717436D02*
X998634Y-726960D01*
X998634Y-726960D02*
X979586Y-736484D01*
X979586Y-736484D02*
X960539Y-736484D01*
X960539Y-736484D02*
X941491Y-726960D01*
X941491Y-726960D02*
X931967Y-717436D01*
X931967Y-717436D02*
X922443Y-698389D01*
X922443Y-698389D02*
X912920Y-660293D01*
X912920Y-660293D02*
X912920Y-612674D01*
X912920Y-612674D02*
X922443Y-574579D01*
X922443Y-574579D02*
X931967Y-555531D01*
X931967Y-555531D02*
X941491Y-546008D01*
X941491Y-546008D02*
X960539Y-536484D01*
X1112920Y-736484D02*
X1112920Y-603150D01*
X1112920Y-622198D02*
X1122444Y-612674D01*
X1122444Y-612674D02*
X1141491Y-603150D01*
X1141491Y-603150D02*
X1170063Y-603150D01*
X1170063Y-603150D02*
X1189110Y-612674D01*
X1189110Y-612674D02*
X1198634Y-631722D01*
X1198634Y-631722D02*
X1198634Y-736484D01*
X1198634Y-631722D02*
X1208158Y-612674D01*
X1208158Y-612674D02*
X1227205Y-603150D01*
X1227205Y-603150D02*
X1255777Y-603150D01*
X1255777Y-603150D02*
X1274825Y-612674D01*
X1274825Y-612674D02*
X1284348Y-631722D01*
X1284348Y-631722D02*
X1284348Y-736484D01*
X1379586Y-736484D02*
X1379586Y-603150D01*
X1379586Y-622198D02*
X1389110Y-612674D01*
X1389110Y-612674D02*
X1408158Y-603150D01*
X1408158Y-603150D02*
X1436729Y-603150D01*
X1436729Y-603150D02*
X1455777Y-612674D01*
X1455777Y-612674D02*
X1465301Y-631722D01*
X1465301Y-631722D02*
X1465301Y-736484D01*
X1465301Y-631722D02*
X1474824Y-612674D01*
X1474824Y-612674D02*
X1493872Y-603150D01*
X1493872Y-603150D02*
X1522443Y-603150D01*
X1522443Y-603150D02*
X1541491Y-612674D01*
X1541491Y-612674D02*
X1551015Y-631722D01*
X1551015Y-631722D02*
X1551015Y-736484D01*
X1941491Y-526960D02*
X1770063Y-784103D01*
X2198634Y-536484D02*
X2217682Y-536484D01*
X2217682Y-536484D02*
X2236729Y-546008D01*
X2236729Y-546008D02*
X2246253Y-555531D01*
X2246253Y-555531D02*
X2255777Y-574579D01*
X2255777Y-574579D02*
X2265301Y-612674D01*
X2265301Y-612674D02*
X2265301Y-660293D01*
X2265301Y-660293D02*
X2255777Y-698389D01*
X2255777Y-698389D02*
X2246253Y-717436D01*
X2246253Y-717436D02*
X2236729Y-726960D01*
X2236729Y-726960D02*
X2217682Y-736484D01*
X2217682Y-736484D02*
X2198634Y-736484D01*
X2198634Y-736484D02*
X2179587Y-726960D01*
X2179587Y-726960D02*
X2170063Y-717436D01*
X2170063Y-717436D02*
X2160539Y-698389D01*
X2160539Y-698389D02*
X2151015Y-660293D01*
X2151015Y-660293D02*
X2151015Y-612674D01*
X2151015Y-612674D02*
X2160539Y-574579D01*
X2160539Y-574579D02*
X2170063Y-555531D01*
X2170063Y-555531D02*
X2179587Y-546008D01*
X2179587Y-546008D02*
X2198634Y-536484D01*
X2351015Y-717436D02*
X2360539Y-726960D01*
X2360539Y-726960D02*
X2351015Y-736484D01*
X2351015Y-736484D02*
X2341491Y-726960D01*
X2341491Y-726960D02*
X2351015Y-717436D01*
X2351015Y-717436D02*
X2351015Y-736484D01*
X2484348Y-536484D02*
X2503396Y-536484D01*
X2503396Y-536484D02*
X2522444Y-546008D01*
X2522444Y-546008D02*
X2531968Y-555531D01*
X2531968Y-555531D02*
X2541491Y-574579D01*
X2541491Y-574579D02*
X2551015Y-612674D01*
X2551015Y-612674D02*
X2551015Y-660293D01*
X2551015Y-660293D02*
X2541491Y-698389D01*
X2541491Y-698389D02*
X2531968Y-717436D01*
X2531968Y-717436D02*
X2522444Y-726960D01*
X2522444Y-726960D02*
X2503396Y-736484D01*
X2503396Y-736484D02*
X2484348Y-736484D01*
X2484348Y-736484D02*
X2465301Y-726960D01*
X2465301Y-726960D02*
X2455777Y-717436D01*
X2455777Y-717436D02*
X2446253Y-698389D01*
X2446253Y-698389D02*
X2436729Y-660293D01*
X2436729Y-660293D02*
X2436729Y-612674D01*
X2436729Y-612674D02*
X2446253Y-574579D01*
X2446253Y-574579D02*
X2455777Y-555531D01*
X2455777Y-555531D02*
X2465301Y-546008D01*
X2465301Y-546008D02*
X2484348Y-536484D01*
X2617682Y-536484D02*
X2741491Y-536484D01*
X2741491Y-536484D02*
X2674825Y-612674D01*
X2674825Y-612674D02*
X2703396Y-612674D01*
X2703396Y-612674D02*
X2722444Y-622198D01*
X2722444Y-622198D02*
X2731968Y-631722D01*
X2731968Y-631722D02*
X2741491Y-650770D01*
X2741491Y-650770D02*
X2741491Y-698389D01*
X2741491Y-698389D02*
X2731968Y-717436D01*
X2731968Y-717436D02*
X2722444Y-726960D01*
X2722444Y-726960D02*
X2703396Y-736484D01*
X2703396Y-736484D02*
X2646253Y-736484D01*
X2646253Y-736484D02*
X2627206Y-726960D01*
X2627206Y-726960D02*
X2617682Y-717436D01*
X2836729Y-736484D02*
X2874825Y-736484D01*
X2874825Y-736484D02*
X2893872Y-726960D01*
X2893872Y-726960D02*
X2903396Y-717436D01*
X2903396Y-717436D02*
X2922444Y-688865D01*
X2922444Y-688865D02*
X2931967Y-650770D01*
X2931967Y-650770D02*
X2931967Y-574579D01*
X2931967Y-574579D02*
X2922444Y-555531D01*
X2922444Y-555531D02*
X2912920Y-546008D01*
X2912920Y-546008D02*
X2893872Y-536484D01*
X2893872Y-536484D02*
X2855777Y-536484D01*
X2855777Y-536484D02*
X2836729Y-546008D01*
X2836729Y-546008D02*
X2827206Y-555531D01*
X2827206Y-555531D02*
X2817682Y-574579D01*
X2817682Y-574579D02*
X2817682Y-622198D01*
X2817682Y-622198D02*
X2827206Y-641246D01*
X2827206Y-641246D02*
X2836729Y-650770D01*
X2836729Y-650770D02*
X2855777Y-660293D01*
X2855777Y-660293D02*
X2893872Y-660293D01*
X2893872Y-660293D02*
X2912920Y-650770D01*
X2912920Y-650770D02*
X2922444Y-641246D01*
X2922444Y-641246D02*
X2931967Y-622198D01*
X3103396Y-603150D02*
X3103396Y-736484D01*
X3055777Y-526960D02*
X3008158Y-669817D01*
X3008158Y-669817D02*
X3131967Y-669817D01*
X3198634Y-536484D02*
X3198634Y-574579D01*
X3274825Y-536484D02*
X3274825Y-574579D01*
X3570063Y-812674D02*
X3560539Y-803150D01*
X3560539Y-803150D02*
X3541491Y-774579D01*
X3541491Y-774579D02*
X3531968Y-755531D01*
X3531968Y-755531D02*
X3522444Y-726960D01*
X3522444Y-726960D02*
X3512920Y-679341D01*
X3512920Y-679341D02*
X3512920Y-641246D01*
X3512920Y-641246D02*
X3522444Y-593627D01*
X3522444Y-593627D02*
X3531968Y-565055D01*
X3531968Y-565055D02*
X3541491Y-546008D01*
X3541491Y-546008D02*
X3560539Y-517436D01*
X3560539Y-517436D02*
X3570063Y-507912D01*
X3751015Y-736484D02*
X3636729Y-736484D01*
X3693872Y-736484D02*
X3693872Y-536484D01*
X3693872Y-536484D02*
X3674825Y-565055D01*
X3674825Y-565055D02*
X3655777Y-584103D01*
X3655777Y-584103D02*
X3636729Y-593627D01*
X3827206Y-555531D02*
X3836729Y-546008D01*
X3836729Y-546008D02*
X3855777Y-536484D01*
X3855777Y-536484D02*
X3903396Y-536484D01*
X3903396Y-536484D02*
X3922444Y-546008D01*
X3922444Y-546008D02*
X3931968Y-555531D01*
X3931968Y-555531D02*
X3941491Y-574579D01*
X3941491Y-574579D02*
X3941491Y-593627D01*
X3941491Y-593627D02*
X3931968Y-622198D01*
X3931968Y-622198D02*
X3817682Y-736484D01*
X3817682Y-736484D02*
X3941491Y-736484D01*
X4179587Y-736484D02*
X4179587Y-536484D01*
X4265301Y-736484D02*
X4265301Y-631722D01*
X4265301Y-631722D02*
X4255777Y-612674D01*
X4255777Y-612674D02*
X4236730Y-603150D01*
X4236730Y-603150D02*
X4208158Y-603150D01*
X4208158Y-603150D02*
X4189110Y-612674D01*
X4189110Y-612674D02*
X4179587Y-622198D01*
X4389111Y-736484D02*
X4370063Y-726960D01*
X4370063Y-726960D02*
X4360539Y-717436D01*
X4360539Y-717436D02*
X4351015Y-698389D01*
X4351015Y-698389D02*
X4351015Y-641246D01*
X4351015Y-641246D02*
X4360539Y-622198D01*
X4360539Y-622198D02*
X4370063Y-612674D01*
X4370063Y-612674D02*
X4389111Y-603150D01*
X4389111Y-603150D02*
X4417682Y-603150D01*
X4417682Y-603150D02*
X4436730Y-612674D01*
X4436730Y-612674D02*
X4446253Y-622198D01*
X4446253Y-622198D02*
X4455777Y-641246D01*
X4455777Y-641246D02*
X4455777Y-698389D01*
X4455777Y-698389D02*
X4446253Y-717436D01*
X4446253Y-717436D02*
X4436730Y-726960D01*
X4436730Y-726960D02*
X4417682Y-736484D01*
X4417682Y-736484D02*
X4389111Y-736484D01*
X4570063Y-736484D02*
X4551015Y-726960D01*
X4551015Y-726960D02*
X4541492Y-707912D01*
X4541492Y-707912D02*
X4541492Y-536484D01*
X4722444Y-726960D02*
X4703396Y-736484D01*
X4703396Y-736484D02*
X4665301Y-736484D01*
X4665301Y-736484D02*
X4646253Y-726960D01*
X4646253Y-726960D02*
X4636730Y-707912D01*
X4636730Y-707912D02*
X4636730Y-631722D01*
X4636730Y-631722D02*
X4646253Y-612674D01*
X4646253Y-612674D02*
X4665301Y-603150D01*
X4665301Y-603150D02*
X4703396Y-603150D01*
X4703396Y-603150D02*
X4722444Y-612674D01*
X4722444Y-612674D02*
X4731968Y-631722D01*
X4731968Y-631722D02*
X4731968Y-650770D01*
X4731968Y-650770D02*
X4636730Y-669817D01*
X4808158Y-726960D02*
X4827206Y-736484D01*
X4827206Y-736484D02*
X4865301Y-736484D01*
X4865301Y-736484D02*
X4884349Y-726960D01*
X4884349Y-726960D02*
X4893873Y-707912D01*
X4893873Y-707912D02*
X4893873Y-698389D01*
X4893873Y-698389D02*
X4884349Y-679341D01*
X4884349Y-679341D02*
X4865301Y-669817D01*
X4865301Y-669817D02*
X4836730Y-669817D01*
X4836730Y-669817D02*
X4817682Y-660293D01*
X4817682Y-660293D02*
X4808158Y-641246D01*
X4808158Y-641246D02*
X4808158Y-631722D01*
X4808158Y-631722D02*
X4817682Y-612674D01*
X4817682Y-612674D02*
X4836730Y-603150D01*
X4836730Y-603150D02*
X4865301Y-603150D01*
X4865301Y-603150D02*
X4884349Y-612674D01*
X4960539Y-812674D02*
X4970063Y-803150D01*
X4970063Y-803150D02*
X4989111Y-774579D01*
X4989111Y-774579D02*
X4998634Y-755531D01*
X4998634Y-755531D02*
X5008158Y-726960D01*
X5008158Y-726960D02*
X5017682Y-679341D01*
X5017682Y-679341D02*
X5017682Y-641246D01*
X5017682Y-641246D02*
X5008158Y-593627D01*
X5008158Y-593627D02*
X4998634Y-565055D01*
X4998634Y-565055D02*
X4989111Y-546008D01*
X4989111Y-546008D02*
X4970063Y-517436D01*
X4970063Y-517436D02*
X4960539Y-507912D01*
M02*
