%TF.GenerationSoftware,KiCad,Pcbnew,8.0.3*%
%TF.CreationDate,2024-06-20T00:15:16-06:00*%
%TF.ProjectId,dc32,64633332-2e6b-4696-9361-645f70636258,1.0*%
%TF.SameCoordinates,PX7bb10a0PY836a940*%
%TF.FileFunction,Drillmap*%
%TF.FilePolarity,Positive*%
%FSLAX45Y45*%
G04 Gerber Fmt 4.5, Leading zero omitted, Abs format (unit mm)*
G04 Created by KiCad (PCBNEW 8.0.3) date 2024-06-20 00:15:16*
%MOMM*%
%LPD*%
G01*
G04 APERTURE LIST*
%ADD10C,0.100000*%
%ADD11C,0.200000*%
%ADD12C,0.320000*%
G04 APERTURE END LIST*
D10*
X200000Y0D02*
X9800000Y0D01*
X8346297Y10122184D02*
G75*
G02*
X8198862Y10000289I-150147J31496D01*
G01*
X-460Y9800000D02*
G75*
G02*
X175642Y9998975I200460J0D01*
G01*
X8198862Y10000285D02*
X1850098Y10001935D01*
X10000000Y200000D02*
G75*
G02*
X9800000Y0I-200000J0D01*
G01*
X1200000Y10350000D02*
G75*
G02*
X800000Y10350000I-200000J0D01*
G01*
X800000Y10350000D02*
G75*
G02*
X1200000Y10350000I200000J0D01*
G01*
X290240Y10110927D02*
G75*
G02*
X1708475Y10118860I709760J-110927D01*
G01*
X290240Y10110927D02*
G75*
G02*
X175641Y9998980I-145380J34193D01*
G01*
X9871998Y9986591D02*
G75*
G02*
X10000000Y9800000I-71998J-186591D01*
G01*
X9871998Y9986591D02*
G75*
G02*
X9757400Y10098543I30782J146139D01*
G01*
X200000Y0D02*
G75*
G02*
X0Y200000I0J200000D01*
G01*
X10000000Y200000D02*
X10000000Y9800000D01*
X0Y9800000D02*
X0Y200000D01*
X1850098Y10001935D02*
G75*
G02*
X1708474Y10118859I2602J147385D01*
G01*
X9250000Y10350000D02*
G75*
G02*
X8850000Y10350000I-200000J0D01*
G01*
X8850000Y10350000D02*
G75*
G02*
X9250000Y10350000I200000J0D01*
G01*
X8346297Y10122184D02*
G75*
G02*
X9757401Y10098543I703703J-122184D01*
G01*
D11*
D10*
X340000Y8070000D02*
X380000Y8030000D01*
X380000Y8070000D02*
X340000Y8030000D01*
X340000Y6710000D02*
X380000Y6670000D01*
X380000Y6710000D02*
X340000Y6670000D01*
X340000Y5340000D02*
X380000Y5300000D01*
X380000Y5340000D02*
X340000Y5300000D01*
X340000Y3980000D02*
X380000Y3940000D01*
X380000Y3980000D02*
X340000Y3940000D01*
X340000Y2610000D02*
X380000Y2570000D01*
X380000Y2610000D02*
X340000Y2570000D01*
X470000Y1380000D02*
X510000Y1340000D01*
X510000Y1380000D02*
X470000Y1340000D01*
X580000Y8420000D02*
X620000Y8380000D01*
X620000Y8420000D02*
X580000Y8380000D01*
X1250000Y8420000D02*
X1290000Y8380000D01*
X1290000Y8420000D02*
X1250000Y8380000D01*
X1400000Y6590000D02*
X1440000Y6550000D01*
X1440000Y6590000D02*
X1400000Y6550000D01*
X1600000Y8870000D02*
X1640000Y8830000D01*
X1640000Y8870000D02*
X1600000Y8830000D01*
X1710000Y9580000D02*
X1750000Y9540000D01*
X1750000Y9580000D02*
X1710000Y9540000D01*
X1880000Y390000D02*
X1920000Y350000D01*
X1920000Y390000D02*
X1880000Y350000D01*
X1920000Y9580000D02*
X1960000Y9540000D01*
X1960000Y9580000D02*
X1920000Y9540000D01*
X2130000Y6480000D02*
X2170000Y6440000D01*
X2170000Y6480000D02*
X2130000Y6440000D01*
X2180000Y8020000D02*
X2220000Y7980000D01*
X2220000Y8020000D02*
X2180000Y7980000D01*
X2400000Y8610000D02*
X2440000Y8570000D01*
X2440000Y8610000D02*
X2400000Y8570000D01*
X2620000Y8610000D02*
X2660000Y8570000D01*
X2660000Y8610000D02*
X2620000Y8570000D01*
X3060000Y9120000D02*
X3100000Y9080000D01*
X3100000Y9120000D02*
X3060000Y9080000D01*
X3060000Y8600000D02*
X3100000Y8560000D01*
X3100000Y8600000D02*
X3060000Y8560000D01*
X3260000Y390000D02*
X3300000Y350000D01*
X3300000Y390000D02*
X3260000Y350000D01*
X3490000Y5520000D02*
X3530000Y5480000D01*
X3530000Y5520000D02*
X3490000Y5480000D01*
X3500000Y9330000D02*
X3540000Y9290000D01*
X3540000Y9330000D02*
X3500000Y9290000D01*
X3500000Y6790000D02*
X3540000Y6750000D01*
X3540000Y6790000D02*
X3500000Y6750000D01*
X3520000Y8310000D02*
X3560000Y8270000D01*
X3560000Y8310000D02*
X3520000Y8270000D01*
X3520000Y8020000D02*
X3560000Y7980000D01*
X3560000Y8020000D02*
X3520000Y7980000D01*
X3810000Y2030000D02*
X3850000Y1990000D01*
X3850000Y2030000D02*
X3810000Y1990000D01*
X4270000Y6280000D02*
X4310000Y6240000D01*
X4310000Y6280000D02*
X4270000Y6240000D01*
X4370000Y7040000D02*
X4410000Y7000000D01*
X4410000Y7040000D02*
X4370000Y7000000D01*
X4560000Y7040000D02*
X4600000Y7000000D01*
X4600000Y7040000D02*
X4560000Y7000000D01*
X4560000Y6280000D02*
X4600000Y6240000D01*
X4600000Y6280000D02*
X4560000Y6240000D01*
X4630000Y380000D02*
X4670000Y340000D01*
X4670000Y380000D02*
X4630000Y340000D01*
X5200000Y2010000D02*
X5240000Y1970000D01*
X5240000Y2010000D02*
X5200000Y1970000D01*
X5280000Y8650000D02*
X5320000Y8610000D01*
X5320000Y8650000D02*
X5280000Y8610000D01*
X5300000Y8350000D02*
X5340000Y8310000D01*
X5340000Y8350000D02*
X5300000Y8310000D01*
X5540000Y8550000D02*
X5580000Y8510000D01*
X5580000Y8550000D02*
X5540000Y8510000D01*
X5980000Y380000D02*
X6020000Y340000D01*
X6020000Y380000D02*
X5980000Y340000D01*
X6120000Y2110000D02*
X6160000Y2070000D01*
X6160000Y2110000D02*
X6120000Y2070000D01*
X6520000Y9350000D02*
X6560000Y9310000D01*
X6560000Y9350000D02*
X6520000Y9310000D01*
X6520000Y8060000D02*
X6560000Y8020000D01*
X6560000Y8060000D02*
X6520000Y8020000D01*
X6520000Y6790000D02*
X6560000Y6750000D01*
X6560000Y6790000D02*
X6520000Y6750000D01*
X6520000Y5520000D02*
X6560000Y5480000D01*
X6560000Y5520000D02*
X6520000Y5480000D01*
X7340000Y380000D02*
X7380000Y340000D01*
X7380000Y380000D02*
X7340000Y340000D01*
X7440000Y8820000D02*
X7480000Y8780000D01*
X7480000Y8820000D02*
X7440000Y8780000D01*
X7620000Y8120000D02*
X7660000Y8080000D01*
X7660000Y8120000D02*
X7620000Y8080000D01*
X7960000Y7440000D02*
X8000000Y7400000D01*
X8000000Y7440000D02*
X7960000Y7400000D01*
X7980000Y8320000D02*
X8020000Y8280000D01*
X8020000Y8320000D02*
X7980000Y8280000D01*
X7980000Y8180000D02*
X8020000Y8140000D01*
X8020000Y8180000D02*
X7980000Y8140000D01*
X7980000Y8040000D02*
X8020000Y8000000D01*
X8020000Y8040000D02*
X7980000Y8000000D01*
X8220000Y8660000D02*
X8260000Y8620000D01*
X8260000Y8660000D02*
X8220000Y8620000D01*
X8570000Y500000D02*
X8610000Y460000D01*
X8610000Y500000D02*
X8570000Y460000D01*
X8620000Y7630000D02*
X8660000Y7590000D01*
X8660000Y7630000D02*
X8620000Y7590000D01*
X9205000Y8735000D02*
X9245000Y8695000D01*
X9245000Y8735000D02*
X9205000Y8695000D01*
X9640000Y8720000D02*
X9680000Y8680000D01*
X9680000Y8720000D02*
X9640000Y8680000D01*
X9640000Y7360000D02*
X9680000Y7320000D01*
X9680000Y7360000D02*
X9640000Y7320000D01*
X9640000Y6000000D02*
X9680000Y5960000D01*
X9680000Y6000000D02*
X9640000Y5960000D01*
X9640000Y4630000D02*
X9680000Y4590000D01*
X9680000Y4630000D02*
X9640000Y4590000D01*
X9640000Y3270000D02*
X9680000Y3230000D01*
X9680000Y3270000D02*
X9640000Y3230000D01*
X9640000Y1900000D02*
X9680000Y1860000D01*
X9680000Y1900000D02*
X9640000Y1860000D01*
X285000Y9500000D02*
G75*
G02*
X235000Y9500000I-25000J0D01*
G01*
X235000Y9500000D02*
G75*
G02*
X285000Y9500000I25000J0D01*
G01*
X285000Y500000D02*
G75*
G02*
X235000Y500000I-25000J0D01*
G01*
X235000Y500000D02*
G75*
G02*
X285000Y500000I25000J0D01*
G01*
X355294Y9669706D02*
G75*
G02*
X305294Y9669706I-25000J0D01*
G01*
X305294Y9669706D02*
G75*
G02*
X355294Y9669706I25000J0D01*
G01*
X355294Y9330294D02*
G75*
G02*
X305294Y9330294I-25000J0D01*
G01*
X305294Y9330294D02*
G75*
G02*
X355294Y9330294I25000J0D01*
G01*
X355294Y669706D02*
G75*
G02*
X305294Y669706I-25000J0D01*
G01*
X305294Y669706D02*
G75*
G02*
X355294Y669706I25000J0D01*
G01*
X355294Y330294D02*
G75*
G02*
X305294Y330294I-25000J0D01*
G01*
X305294Y330294D02*
G75*
G02*
X355294Y330294I25000J0D01*
G01*
X525000Y9740000D02*
G75*
G02*
X475000Y9740000I-25000J0D01*
G01*
X475000Y9740000D02*
G75*
G02*
X525000Y9740000I25000J0D01*
G01*
X525000Y9260000D02*
G75*
G02*
X475000Y9260000I-25000J0D01*
G01*
X475000Y9260000D02*
G75*
G02*
X525000Y9260000I25000J0D01*
G01*
X525000Y740000D02*
G75*
G02*
X475000Y740000I-25000J0D01*
G01*
X475000Y740000D02*
G75*
G02*
X525000Y740000I25000J0D01*
G01*
X525000Y260000D02*
G75*
G02*
X475000Y260000I-25000J0D01*
G01*
X475000Y260000D02*
G75*
G02*
X525000Y260000I25000J0D01*
G01*
X694706Y9669706D02*
G75*
G02*
X644706Y9669706I-25000J0D01*
G01*
X644706Y9669706D02*
G75*
G02*
X694706Y9669706I25000J0D01*
G01*
X694706Y9330294D02*
G75*
G02*
X644706Y9330294I-25000J0D01*
G01*
X644706Y9330294D02*
G75*
G02*
X694706Y9330294I25000J0D01*
G01*
X694706Y669706D02*
G75*
G02*
X644706Y669706I-25000J0D01*
G01*
X644706Y669706D02*
G75*
G02*
X694706Y669706I25000J0D01*
G01*
X694706Y330294D02*
G75*
G02*
X644706Y330294I-25000J0D01*
G01*
X644706Y330294D02*
G75*
G02*
X694706Y330294I25000J0D01*
G01*
X765000Y9500000D02*
G75*
G02*
X715000Y9500000I-25000J0D01*
G01*
X715000Y9500000D02*
G75*
G02*
X765000Y9500000I25000J0D01*
G01*
X765000Y500000D02*
G75*
G02*
X715000Y500000I-25000J0D01*
G01*
X715000Y500000D02*
G75*
G02*
X765000Y500000I25000J0D01*
G01*
X9285000Y9500000D02*
G75*
G02*
X9235000Y9500000I-25000J0D01*
G01*
X9235000Y9500000D02*
G75*
G02*
X9285000Y9500000I25000J0D01*
G01*
X9285000Y500000D02*
G75*
G02*
X9235000Y500000I-25000J0D01*
G01*
X9235000Y500000D02*
G75*
G02*
X9285000Y500000I25000J0D01*
G01*
X9355294Y9669706D02*
G75*
G02*
X9305294Y9669706I-25000J0D01*
G01*
X9305294Y9669706D02*
G75*
G02*
X9355294Y9669706I25000J0D01*
G01*
X9355294Y9330294D02*
G75*
G02*
X9305294Y9330294I-25000J0D01*
G01*
X9305294Y9330294D02*
G75*
G02*
X9355294Y9330294I25000J0D01*
G01*
X9355294Y669706D02*
G75*
G02*
X9305294Y669706I-25000J0D01*
G01*
X9305294Y669706D02*
G75*
G02*
X9355294Y669706I25000J0D01*
G01*
X9355294Y330294D02*
G75*
G02*
X9305294Y330294I-25000J0D01*
G01*
X9305294Y330294D02*
G75*
G02*
X9355294Y330294I25000J0D01*
G01*
X9525000Y9740000D02*
G75*
G02*
X9475000Y9740000I-25000J0D01*
G01*
X9475000Y9740000D02*
G75*
G02*
X9525000Y9740000I25000J0D01*
G01*
X9525000Y9260000D02*
G75*
G02*
X9475000Y9260000I-25000J0D01*
G01*
X9475000Y9260000D02*
G75*
G02*
X9525000Y9260000I25000J0D01*
G01*
X9525000Y740000D02*
G75*
G02*
X9475000Y740000I-25000J0D01*
G01*
X9475000Y740000D02*
G75*
G02*
X9525000Y740000I25000J0D01*
G01*
X9525000Y260000D02*
G75*
G02*
X9475000Y260000I-25000J0D01*
G01*
X9475000Y260000D02*
G75*
G02*
X9525000Y260000I25000J0D01*
G01*
X9694706Y9669706D02*
G75*
G02*
X9644706Y9669706I-25000J0D01*
G01*
X9644706Y9669706D02*
G75*
G02*
X9694706Y9669706I25000J0D01*
G01*
X9694706Y9330294D02*
G75*
G02*
X9644706Y9330294I-25000J0D01*
G01*
X9644706Y9330294D02*
G75*
G02*
X9694706Y9330294I25000J0D01*
G01*
X9694706Y669706D02*
G75*
G02*
X9644706Y669706I-25000J0D01*
G01*
X9644706Y669706D02*
G75*
G02*
X9694706Y669706I25000J0D01*
G01*
X9694706Y330294D02*
G75*
G02*
X9644706Y330294I-25000J0D01*
G01*
X9644706Y330294D02*
G75*
G02*
X9694706Y330294I25000J0D01*
G01*
X9765000Y9500000D02*
G75*
G02*
X9715000Y9500000I-25000J0D01*
G01*
X9715000Y9500000D02*
G75*
G02*
X9765000Y9500000I25000J0D01*
G01*
X9765000Y500000D02*
G75*
G02*
X9715000Y500000I-25000J0D01*
G01*
X9715000Y500000D02*
G75*
G02*
X9765000Y500000I25000J0D01*
G01*
X7250000Y3490000D02*
X7250000Y3390000D01*
X7200000Y3440000D02*
X7300000Y3440000D01*
X7250000Y2040000D02*
X7250000Y1940000D01*
X7200000Y1990000D02*
X7300000Y1990000D01*
X7500000Y2040000D02*
X7500000Y1940000D01*
X7450000Y1990000D02*
X7550000Y1990000D01*
X7750000Y3490000D02*
X7750000Y3390000D01*
X7700000Y3440000D02*
X7800000Y3440000D01*
X7750000Y2040000D02*
X7750000Y1940000D01*
X7700000Y1990000D02*
X7800000Y1990000D01*
D11*
X7010711Y2669289D02*
X7010711Y2810711D01*
X6869289Y2810711D01*
X6869289Y2669289D01*
X7010711Y2669289D01*
D10*
X6840000Y2765000D02*
X6840000Y2715000D01*
X7040000Y2715000D02*
G75*
G02*
X6840000Y2715000I-100000J0D01*
G01*
X7040000Y2715000D02*
X7040000Y2765000D01*
X7040000Y2765000D02*
G75*
G03*
X6840000Y2765000I-100000J0D01*
G01*
D11*
X8130711Y2669289D02*
X8130711Y2810711D01*
X7989289Y2810711D01*
X7989289Y2669289D01*
X8130711Y2669289D01*
D10*
X7960000Y2765000D02*
X7960000Y2715000D01*
X8160000Y2715000D02*
G75*
G02*
X7960000Y2715000I-100000J0D01*
G01*
X8160000Y2715000D02*
X8160000Y2765000D01*
X8160000Y2765000D02*
G75*
G03*
X7960000Y2765000I-100000J0D01*
G01*
D12*
X500000Y9340000D02*
X660000Y9500000D01*
X500000Y9660000D01*
X340000Y9500000D01*
X500000Y9340000D01*
X500000Y340000D02*
X660000Y500000D01*
X500000Y660000D01*
X340000Y500000D01*
X500000Y340000D01*
X9500000Y9340000D02*
X9660000Y9500000D01*
X9500000Y9660000D01*
X9340000Y9500000D01*
X9500000Y9340000D01*
X9500000Y340000D02*
X9660000Y500000D01*
X9500000Y660000D01*
X9340000Y500000D01*
X9500000Y340000D01*
D11*
X255317Y-316484D02*
X255317Y-116484D01*
X255317Y-116484D02*
X302936Y-116484D01*
X302936Y-116484D02*
X331507Y-126008D01*
X331507Y-126008D02*
X350555Y-145055D01*
X350555Y-145055D02*
X360079Y-164103D01*
X360079Y-164103D02*
X369602Y-202198D01*
X369602Y-202198D02*
X369602Y-230769D01*
X369602Y-230769D02*
X360079Y-268865D01*
X360079Y-268865D02*
X350555Y-287912D01*
X350555Y-287912D02*
X331507Y-306960D01*
X331507Y-306960D02*
X302936Y-316484D01*
X302936Y-316484D02*
X255317Y-316484D01*
X455317Y-316484D02*
X455317Y-183150D01*
X455317Y-221246D02*
X464840Y-202198D01*
X464840Y-202198D02*
X474364Y-192674D01*
X474364Y-192674D02*
X493412Y-183150D01*
X493412Y-183150D02*
X512460Y-183150D01*
X579126Y-316484D02*
X579126Y-183150D01*
X579126Y-116484D02*
X569602Y-126008D01*
X569602Y-126008D02*
X579126Y-135531D01*
X579126Y-135531D02*
X588650Y-126008D01*
X588650Y-126008D02*
X579126Y-116484D01*
X579126Y-116484D02*
X579126Y-135531D01*
X702936Y-316484D02*
X683888Y-306960D01*
X683888Y-306960D02*
X674364Y-287912D01*
X674364Y-287912D02*
X674364Y-116484D01*
X807698Y-316484D02*
X788650Y-306960D01*
X788650Y-306960D02*
X779126Y-287912D01*
X779126Y-287912D02*
X779126Y-116484D01*
X1036269Y-316484D02*
X1036269Y-116484D01*
X1036269Y-116484D02*
X1102936Y-259341D01*
X1102936Y-259341D02*
X1169602Y-116484D01*
X1169602Y-116484D02*
X1169602Y-316484D01*
X1350555Y-316484D02*
X1350555Y-211722D01*
X1350555Y-211722D02*
X1341031Y-192674D01*
X1341031Y-192674D02*
X1321983Y-183150D01*
X1321983Y-183150D02*
X1283888Y-183150D01*
X1283888Y-183150D02*
X1264841Y-192674D01*
X1350555Y-306960D02*
X1331507Y-316484D01*
X1331507Y-316484D02*
X1283888Y-316484D01*
X1283888Y-316484D02*
X1264841Y-306960D01*
X1264841Y-306960D02*
X1255317Y-287912D01*
X1255317Y-287912D02*
X1255317Y-268865D01*
X1255317Y-268865D02*
X1264841Y-249817D01*
X1264841Y-249817D02*
X1283888Y-240293D01*
X1283888Y-240293D02*
X1331507Y-240293D01*
X1331507Y-240293D02*
X1350555Y-230769D01*
X1445793Y-183150D02*
X1445793Y-383150D01*
X1445793Y-192674D02*
X1464840Y-183150D01*
X1464840Y-183150D02*
X1502936Y-183150D01*
X1502936Y-183150D02*
X1521983Y-192674D01*
X1521983Y-192674D02*
X1531507Y-202198D01*
X1531507Y-202198D02*
X1541031Y-221246D01*
X1541031Y-221246D02*
X1541031Y-278389D01*
X1541031Y-278389D02*
X1531507Y-297436D01*
X1531507Y-297436D02*
X1521983Y-306960D01*
X1521983Y-306960D02*
X1502936Y-316484D01*
X1502936Y-316484D02*
X1464840Y-316484D01*
X1464840Y-316484D02*
X1445793Y-306960D01*
X1626745Y-297436D02*
X1636269Y-306960D01*
X1636269Y-306960D02*
X1626745Y-316484D01*
X1626745Y-316484D02*
X1617221Y-306960D01*
X1617221Y-306960D02*
X1626745Y-297436D01*
X1626745Y-297436D02*
X1626745Y-316484D01*
X1626745Y-192674D02*
X1636269Y-202198D01*
X1636269Y-202198D02*
X1626745Y-211722D01*
X1626745Y-211722D02*
X1617221Y-202198D01*
X1617221Y-202198D02*
X1626745Y-192674D01*
X1626745Y-192674D02*
X1626745Y-211722D01*
D10*
X-45460Y-625000D02*
X-5460Y-665000D01*
X-5460Y-625000D02*
X-45460Y-665000D01*
D11*
X293412Y-536484D02*
X312460Y-536484D01*
X312460Y-536484D02*
X331507Y-546008D01*
X331507Y-546008D02*
X341031Y-555531D01*
X341031Y-555531D02*
X350555Y-574579D01*
X350555Y-574579D02*
X360079Y-612674D01*
X360079Y-612674D02*
X360079Y-660293D01*
X360079Y-660293D02*
X350555Y-698389D01*
X350555Y-698389D02*
X341031Y-717436D01*
X341031Y-717436D02*
X331507Y-726960D01*
X331507Y-726960D02*
X312460Y-736484D01*
X312460Y-736484D02*
X293412Y-736484D01*
X293412Y-736484D02*
X274364Y-726960D01*
X274364Y-726960D02*
X264841Y-717436D01*
X264841Y-717436D02*
X255317Y-698389D01*
X255317Y-698389D02*
X245793Y-660293D01*
X245793Y-660293D02*
X245793Y-612674D01*
X245793Y-612674D02*
X255317Y-574579D01*
X255317Y-574579D02*
X264841Y-555531D01*
X264841Y-555531D02*
X274364Y-546008D01*
X274364Y-546008D02*
X293412Y-536484D01*
X445793Y-717436D02*
X455317Y-726960D01*
X455317Y-726960D02*
X445793Y-736484D01*
X445793Y-736484D02*
X436269Y-726960D01*
X436269Y-726960D02*
X445793Y-717436D01*
X445793Y-717436D02*
X445793Y-736484D01*
X626745Y-603150D02*
X626745Y-736484D01*
X579126Y-526960D02*
X531507Y-669817D01*
X531507Y-669817D02*
X655317Y-669817D01*
X769602Y-536484D02*
X788650Y-536484D01*
X788650Y-536484D02*
X807698Y-546008D01*
X807698Y-546008D02*
X817221Y-555531D01*
X817221Y-555531D02*
X826745Y-574579D01*
X826745Y-574579D02*
X836269Y-612674D01*
X836269Y-612674D02*
X836269Y-660293D01*
X836269Y-660293D02*
X826745Y-698389D01*
X826745Y-698389D02*
X817221Y-717436D01*
X817221Y-717436D02*
X807698Y-726960D01*
X807698Y-726960D02*
X788650Y-736484D01*
X788650Y-736484D02*
X769602Y-736484D01*
X769602Y-736484D02*
X750555Y-726960D01*
X750555Y-726960D02*
X741031Y-717436D01*
X741031Y-717436D02*
X731507Y-698389D01*
X731507Y-698389D02*
X721983Y-660293D01*
X721983Y-660293D02*
X721983Y-612674D01*
X721983Y-612674D02*
X731507Y-574579D01*
X731507Y-574579D02*
X741031Y-555531D01*
X741031Y-555531D02*
X750555Y-546008D01*
X750555Y-546008D02*
X769602Y-536484D01*
X960079Y-536484D02*
X979126Y-536484D01*
X979126Y-536484D02*
X998174Y-546008D01*
X998174Y-546008D02*
X1007698Y-555531D01*
X1007698Y-555531D02*
X1017221Y-574579D01*
X1017221Y-574579D02*
X1026745Y-612674D01*
X1026745Y-612674D02*
X1026745Y-660293D01*
X1026745Y-660293D02*
X1017221Y-698389D01*
X1017221Y-698389D02*
X1007698Y-717436D01*
X1007698Y-717436D02*
X998174Y-726960D01*
X998174Y-726960D02*
X979126Y-736484D01*
X979126Y-736484D02*
X960079Y-736484D01*
X960079Y-736484D02*
X941031Y-726960D01*
X941031Y-726960D02*
X931507Y-717436D01*
X931507Y-717436D02*
X921983Y-698389D01*
X921983Y-698389D02*
X912460Y-660293D01*
X912460Y-660293D02*
X912460Y-612674D01*
X912460Y-612674D02*
X921983Y-574579D01*
X921983Y-574579D02*
X931507Y-555531D01*
X931507Y-555531D02*
X941031Y-546008D01*
X941031Y-546008D02*
X960079Y-536484D01*
X1112460Y-736484D02*
X1112460Y-603150D01*
X1112460Y-622198D02*
X1121983Y-612674D01*
X1121983Y-612674D02*
X1141031Y-603150D01*
X1141031Y-603150D02*
X1169603Y-603150D01*
X1169603Y-603150D02*
X1188650Y-612674D01*
X1188650Y-612674D02*
X1198174Y-631722D01*
X1198174Y-631722D02*
X1198174Y-736484D01*
X1198174Y-631722D02*
X1207698Y-612674D01*
X1207698Y-612674D02*
X1226745Y-603150D01*
X1226745Y-603150D02*
X1255317Y-603150D01*
X1255317Y-603150D02*
X1274364Y-612674D01*
X1274364Y-612674D02*
X1283888Y-631722D01*
X1283888Y-631722D02*
X1283888Y-736484D01*
X1379126Y-736484D02*
X1379126Y-603150D01*
X1379126Y-622198D02*
X1388650Y-612674D01*
X1388650Y-612674D02*
X1407698Y-603150D01*
X1407698Y-603150D02*
X1436269Y-603150D01*
X1436269Y-603150D02*
X1455317Y-612674D01*
X1455317Y-612674D02*
X1464841Y-631722D01*
X1464841Y-631722D02*
X1464841Y-736484D01*
X1464841Y-631722D02*
X1474364Y-612674D01*
X1474364Y-612674D02*
X1493412Y-603150D01*
X1493412Y-603150D02*
X1521983Y-603150D01*
X1521983Y-603150D02*
X1541031Y-612674D01*
X1541031Y-612674D02*
X1550555Y-631722D01*
X1550555Y-631722D02*
X1550555Y-736484D01*
X1941031Y-526960D02*
X1769603Y-784103D01*
X2198174Y-536484D02*
X2217222Y-536484D01*
X2217222Y-536484D02*
X2236269Y-546008D01*
X2236269Y-546008D02*
X2245793Y-555531D01*
X2245793Y-555531D02*
X2255317Y-574579D01*
X2255317Y-574579D02*
X2264841Y-612674D01*
X2264841Y-612674D02*
X2264841Y-660293D01*
X2264841Y-660293D02*
X2255317Y-698389D01*
X2255317Y-698389D02*
X2245793Y-717436D01*
X2245793Y-717436D02*
X2236269Y-726960D01*
X2236269Y-726960D02*
X2217222Y-736484D01*
X2217222Y-736484D02*
X2198174Y-736484D01*
X2198174Y-736484D02*
X2179126Y-726960D01*
X2179126Y-726960D02*
X2169603Y-717436D01*
X2169603Y-717436D02*
X2160079Y-698389D01*
X2160079Y-698389D02*
X2150555Y-660293D01*
X2150555Y-660293D02*
X2150555Y-612674D01*
X2150555Y-612674D02*
X2160079Y-574579D01*
X2160079Y-574579D02*
X2169603Y-555531D01*
X2169603Y-555531D02*
X2179126Y-546008D01*
X2179126Y-546008D02*
X2198174Y-536484D01*
X2350555Y-717436D02*
X2360079Y-726960D01*
X2360079Y-726960D02*
X2350555Y-736484D01*
X2350555Y-736484D02*
X2341031Y-726960D01*
X2341031Y-726960D02*
X2350555Y-717436D01*
X2350555Y-717436D02*
X2350555Y-736484D01*
X2483888Y-536484D02*
X2502936Y-536484D01*
X2502936Y-536484D02*
X2521984Y-546008D01*
X2521984Y-546008D02*
X2531507Y-555531D01*
X2531507Y-555531D02*
X2541031Y-574579D01*
X2541031Y-574579D02*
X2550555Y-612674D01*
X2550555Y-612674D02*
X2550555Y-660293D01*
X2550555Y-660293D02*
X2541031Y-698389D01*
X2541031Y-698389D02*
X2531507Y-717436D01*
X2531507Y-717436D02*
X2521984Y-726960D01*
X2521984Y-726960D02*
X2502936Y-736484D01*
X2502936Y-736484D02*
X2483888Y-736484D01*
X2483888Y-736484D02*
X2464841Y-726960D01*
X2464841Y-726960D02*
X2455317Y-717436D01*
X2455317Y-717436D02*
X2445793Y-698389D01*
X2445793Y-698389D02*
X2436269Y-660293D01*
X2436269Y-660293D02*
X2436269Y-612674D01*
X2436269Y-612674D02*
X2445793Y-574579D01*
X2445793Y-574579D02*
X2455317Y-555531D01*
X2455317Y-555531D02*
X2464841Y-546008D01*
X2464841Y-546008D02*
X2483888Y-536484D01*
X2741031Y-736484D02*
X2626746Y-736484D01*
X2683888Y-736484D02*
X2683888Y-536484D01*
X2683888Y-536484D02*
X2664841Y-565055D01*
X2664841Y-565055D02*
X2645793Y-584103D01*
X2645793Y-584103D02*
X2626746Y-593627D01*
X2921984Y-536484D02*
X2826745Y-536484D01*
X2826745Y-536484D02*
X2817222Y-631722D01*
X2817222Y-631722D02*
X2826745Y-622198D01*
X2826745Y-622198D02*
X2845793Y-612674D01*
X2845793Y-612674D02*
X2893412Y-612674D01*
X2893412Y-612674D02*
X2912460Y-622198D01*
X2912460Y-622198D02*
X2921984Y-631722D01*
X2921984Y-631722D02*
X2931507Y-650770D01*
X2931507Y-650770D02*
X2931507Y-698389D01*
X2931507Y-698389D02*
X2921984Y-717436D01*
X2921984Y-717436D02*
X2912460Y-726960D01*
X2912460Y-726960D02*
X2893412Y-736484D01*
X2893412Y-736484D02*
X2845793Y-736484D01*
X2845793Y-736484D02*
X2826745Y-726960D01*
X2826745Y-726960D02*
X2817222Y-717436D01*
X2998174Y-536484D02*
X3131507Y-536484D01*
X3131507Y-536484D02*
X3045793Y-736484D01*
X3198174Y-536484D02*
X3198174Y-574579D01*
X3274365Y-536484D02*
X3274365Y-574579D01*
X3569603Y-812674D02*
X3560079Y-803150D01*
X3560079Y-803150D02*
X3541031Y-774579D01*
X3541031Y-774579D02*
X3531507Y-755531D01*
X3531507Y-755531D02*
X3521984Y-726960D01*
X3521984Y-726960D02*
X3512460Y-679341D01*
X3512460Y-679341D02*
X3512460Y-641246D01*
X3512460Y-641246D02*
X3521984Y-593627D01*
X3521984Y-593627D02*
X3531507Y-565055D01*
X3531507Y-565055D02*
X3541031Y-546008D01*
X3541031Y-546008D02*
X3560079Y-517436D01*
X3560079Y-517436D02*
X3569603Y-507912D01*
X3741031Y-536484D02*
X3645793Y-536484D01*
X3645793Y-536484D02*
X3636269Y-631722D01*
X3636269Y-631722D02*
X3645793Y-622198D01*
X3645793Y-622198D02*
X3664841Y-612674D01*
X3664841Y-612674D02*
X3712460Y-612674D01*
X3712460Y-612674D02*
X3731507Y-622198D01*
X3731507Y-622198D02*
X3741031Y-631722D01*
X3741031Y-631722D02*
X3750555Y-650770D01*
X3750555Y-650770D02*
X3750555Y-698389D01*
X3750555Y-698389D02*
X3741031Y-717436D01*
X3741031Y-717436D02*
X3731507Y-726960D01*
X3731507Y-726960D02*
X3712460Y-736484D01*
X3712460Y-736484D02*
X3664841Y-736484D01*
X3664841Y-736484D02*
X3645793Y-726960D01*
X3645793Y-726960D02*
X3636269Y-717436D01*
X3864841Y-622198D02*
X3845793Y-612674D01*
X3845793Y-612674D02*
X3836269Y-603150D01*
X3836269Y-603150D02*
X3826746Y-584103D01*
X3826746Y-584103D02*
X3826746Y-574579D01*
X3826746Y-574579D02*
X3836269Y-555531D01*
X3836269Y-555531D02*
X3845793Y-546008D01*
X3845793Y-546008D02*
X3864841Y-536484D01*
X3864841Y-536484D02*
X3902936Y-536484D01*
X3902936Y-536484D02*
X3921984Y-546008D01*
X3921984Y-546008D02*
X3931507Y-555531D01*
X3931507Y-555531D02*
X3941031Y-574579D01*
X3941031Y-574579D02*
X3941031Y-584103D01*
X3941031Y-584103D02*
X3931507Y-603150D01*
X3931507Y-603150D02*
X3921984Y-612674D01*
X3921984Y-612674D02*
X3902936Y-622198D01*
X3902936Y-622198D02*
X3864841Y-622198D01*
X3864841Y-622198D02*
X3845793Y-631722D01*
X3845793Y-631722D02*
X3836269Y-641246D01*
X3836269Y-641246D02*
X3826746Y-660293D01*
X3826746Y-660293D02*
X3826746Y-698389D01*
X3826746Y-698389D02*
X3836269Y-717436D01*
X3836269Y-717436D02*
X3845793Y-726960D01*
X3845793Y-726960D02*
X3864841Y-736484D01*
X3864841Y-736484D02*
X3902936Y-736484D01*
X3902936Y-736484D02*
X3921984Y-726960D01*
X3921984Y-726960D02*
X3931507Y-717436D01*
X3931507Y-717436D02*
X3941031Y-698389D01*
X3941031Y-698389D02*
X3941031Y-660293D01*
X3941031Y-660293D02*
X3931507Y-641246D01*
X3931507Y-641246D02*
X3921984Y-631722D01*
X3921984Y-631722D02*
X3902936Y-622198D01*
X4179127Y-736484D02*
X4179127Y-536484D01*
X4264841Y-736484D02*
X4264841Y-631722D01*
X4264841Y-631722D02*
X4255317Y-612674D01*
X4255317Y-612674D02*
X4236270Y-603150D01*
X4236270Y-603150D02*
X4207698Y-603150D01*
X4207698Y-603150D02*
X4188650Y-612674D01*
X4188650Y-612674D02*
X4179127Y-622198D01*
X4388650Y-736484D02*
X4369603Y-726960D01*
X4369603Y-726960D02*
X4360079Y-717436D01*
X4360079Y-717436D02*
X4350555Y-698389D01*
X4350555Y-698389D02*
X4350555Y-641246D01*
X4350555Y-641246D02*
X4360079Y-622198D01*
X4360079Y-622198D02*
X4369603Y-612674D01*
X4369603Y-612674D02*
X4388650Y-603150D01*
X4388650Y-603150D02*
X4417222Y-603150D01*
X4417222Y-603150D02*
X4436270Y-612674D01*
X4436270Y-612674D02*
X4445793Y-622198D01*
X4445793Y-622198D02*
X4455317Y-641246D01*
X4455317Y-641246D02*
X4455317Y-698389D01*
X4455317Y-698389D02*
X4445793Y-717436D01*
X4445793Y-717436D02*
X4436270Y-726960D01*
X4436270Y-726960D02*
X4417222Y-736484D01*
X4417222Y-736484D02*
X4388650Y-736484D01*
X4569603Y-736484D02*
X4550555Y-726960D01*
X4550555Y-726960D02*
X4541031Y-707912D01*
X4541031Y-707912D02*
X4541031Y-536484D01*
X4721984Y-726960D02*
X4702936Y-736484D01*
X4702936Y-736484D02*
X4664841Y-736484D01*
X4664841Y-736484D02*
X4645793Y-726960D01*
X4645793Y-726960D02*
X4636270Y-707912D01*
X4636270Y-707912D02*
X4636270Y-631722D01*
X4636270Y-631722D02*
X4645793Y-612674D01*
X4645793Y-612674D02*
X4664841Y-603150D01*
X4664841Y-603150D02*
X4702936Y-603150D01*
X4702936Y-603150D02*
X4721984Y-612674D01*
X4721984Y-612674D02*
X4731508Y-631722D01*
X4731508Y-631722D02*
X4731508Y-650770D01*
X4731508Y-650770D02*
X4636270Y-669817D01*
X4807698Y-726960D02*
X4826746Y-736484D01*
X4826746Y-736484D02*
X4864841Y-736484D01*
X4864841Y-736484D02*
X4883889Y-726960D01*
X4883889Y-726960D02*
X4893412Y-707912D01*
X4893412Y-707912D02*
X4893412Y-698389D01*
X4893412Y-698389D02*
X4883889Y-679341D01*
X4883889Y-679341D02*
X4864841Y-669817D01*
X4864841Y-669817D02*
X4836270Y-669817D01*
X4836270Y-669817D02*
X4817222Y-660293D01*
X4817222Y-660293D02*
X4807698Y-641246D01*
X4807698Y-641246D02*
X4807698Y-631722D01*
X4807698Y-631722D02*
X4817222Y-612674D01*
X4817222Y-612674D02*
X4836270Y-603150D01*
X4836270Y-603150D02*
X4864841Y-603150D01*
X4864841Y-603150D02*
X4883889Y-612674D01*
X4960079Y-812674D02*
X4969603Y-803150D01*
X4969603Y-803150D02*
X4988651Y-774579D01*
X4988651Y-774579D02*
X4998174Y-755531D01*
X4998174Y-755531D02*
X5007698Y-726960D01*
X5007698Y-726960D02*
X5017222Y-679341D01*
X5017222Y-679341D02*
X5017222Y-641246D01*
X5017222Y-641246D02*
X5007698Y-593627D01*
X5007698Y-593627D02*
X4998174Y-565055D01*
X4998174Y-565055D02*
X4988651Y-546008D01*
X4988651Y-546008D02*
X4969603Y-517436D01*
X4969603Y-517436D02*
X4960079Y-507912D01*
D10*
X-5460Y-909000D02*
G75*
G02*
X-55460Y-909000I-25000J0D01*
G01*
X-55460Y-909000D02*
G75*
G02*
X-5460Y-909000I25000J0D01*
G01*
D11*
X293412Y-800484D02*
X312460Y-800484D01*
X312460Y-800484D02*
X331507Y-810008D01*
X331507Y-810008D02*
X341031Y-819531D01*
X341031Y-819531D02*
X350555Y-838579D01*
X350555Y-838579D02*
X360079Y-876674D01*
X360079Y-876674D02*
X360079Y-924293D01*
X360079Y-924293D02*
X350555Y-962388D01*
X350555Y-962388D02*
X341031Y-981436D01*
X341031Y-981436D02*
X331507Y-990960D01*
X331507Y-990960D02*
X312460Y-1000484D01*
X312460Y-1000484D02*
X293412Y-1000484D01*
X293412Y-1000484D02*
X274364Y-990960D01*
X274364Y-990960D02*
X264841Y-981436D01*
X264841Y-981436D02*
X255317Y-962388D01*
X255317Y-962388D02*
X245793Y-924293D01*
X245793Y-924293D02*
X245793Y-876674D01*
X245793Y-876674D02*
X255317Y-838579D01*
X255317Y-838579D02*
X264841Y-819531D01*
X264841Y-819531D02*
X274364Y-810008D01*
X274364Y-810008D02*
X293412Y-800484D01*
X445793Y-981436D02*
X455317Y-990960D01*
X455317Y-990960D02*
X445793Y-1000484D01*
X445793Y-1000484D02*
X436269Y-990960D01*
X436269Y-990960D02*
X445793Y-981436D01*
X445793Y-981436D02*
X445793Y-1000484D01*
X636269Y-800484D02*
X541031Y-800484D01*
X541031Y-800484D02*
X531507Y-895722D01*
X531507Y-895722D02*
X541031Y-886198D01*
X541031Y-886198D02*
X560079Y-876674D01*
X560079Y-876674D02*
X607698Y-876674D01*
X607698Y-876674D02*
X626745Y-886198D01*
X626745Y-886198D02*
X636269Y-895722D01*
X636269Y-895722D02*
X645793Y-914769D01*
X645793Y-914769D02*
X645793Y-962388D01*
X645793Y-962388D02*
X636269Y-981436D01*
X636269Y-981436D02*
X626745Y-990960D01*
X626745Y-990960D02*
X607698Y-1000484D01*
X607698Y-1000484D02*
X560079Y-1000484D01*
X560079Y-1000484D02*
X541031Y-990960D01*
X541031Y-990960D02*
X531507Y-981436D01*
X769602Y-800484D02*
X788650Y-800484D01*
X788650Y-800484D02*
X807698Y-810008D01*
X807698Y-810008D02*
X817221Y-819531D01*
X817221Y-819531D02*
X826745Y-838579D01*
X826745Y-838579D02*
X836269Y-876674D01*
X836269Y-876674D02*
X836269Y-924293D01*
X836269Y-924293D02*
X826745Y-962388D01*
X826745Y-962388D02*
X817221Y-981436D01*
X817221Y-981436D02*
X807698Y-990960D01*
X807698Y-990960D02*
X788650Y-1000484D01*
X788650Y-1000484D02*
X769602Y-1000484D01*
X769602Y-1000484D02*
X750555Y-990960D01*
X750555Y-990960D02*
X741031Y-981436D01*
X741031Y-981436D02*
X731507Y-962388D01*
X731507Y-962388D02*
X721983Y-924293D01*
X721983Y-924293D02*
X721983Y-876674D01*
X721983Y-876674D02*
X731507Y-838579D01*
X731507Y-838579D02*
X741031Y-819531D01*
X741031Y-819531D02*
X750555Y-810008D01*
X750555Y-810008D02*
X769602Y-800484D01*
X960079Y-800484D02*
X979126Y-800484D01*
X979126Y-800484D02*
X998174Y-810008D01*
X998174Y-810008D02*
X1007698Y-819531D01*
X1007698Y-819531D02*
X1017221Y-838579D01*
X1017221Y-838579D02*
X1026745Y-876674D01*
X1026745Y-876674D02*
X1026745Y-924293D01*
X1026745Y-924293D02*
X1017221Y-962388D01*
X1017221Y-962388D02*
X1007698Y-981436D01*
X1007698Y-981436D02*
X998174Y-990960D01*
X998174Y-990960D02*
X979126Y-1000484D01*
X979126Y-1000484D02*
X960079Y-1000484D01*
X960079Y-1000484D02*
X941031Y-990960D01*
X941031Y-990960D02*
X931507Y-981436D01*
X931507Y-981436D02*
X921983Y-962388D01*
X921983Y-962388D02*
X912460Y-924293D01*
X912460Y-924293D02*
X912460Y-876674D01*
X912460Y-876674D02*
X921983Y-838579D01*
X921983Y-838579D02*
X931507Y-819531D01*
X931507Y-819531D02*
X941031Y-810008D01*
X941031Y-810008D02*
X960079Y-800484D01*
X1112460Y-1000484D02*
X1112460Y-867150D01*
X1112460Y-886198D02*
X1121983Y-876674D01*
X1121983Y-876674D02*
X1141031Y-867150D01*
X1141031Y-867150D02*
X1169603Y-867150D01*
X1169603Y-867150D02*
X1188650Y-876674D01*
X1188650Y-876674D02*
X1198174Y-895722D01*
X1198174Y-895722D02*
X1198174Y-1000484D01*
X1198174Y-895722D02*
X1207698Y-876674D01*
X1207698Y-876674D02*
X1226745Y-867150D01*
X1226745Y-867150D02*
X1255317Y-867150D01*
X1255317Y-867150D02*
X1274364Y-876674D01*
X1274364Y-876674D02*
X1283888Y-895722D01*
X1283888Y-895722D02*
X1283888Y-1000484D01*
X1379126Y-1000484D02*
X1379126Y-867150D01*
X1379126Y-886198D02*
X1388650Y-876674D01*
X1388650Y-876674D02*
X1407698Y-867150D01*
X1407698Y-867150D02*
X1436269Y-867150D01*
X1436269Y-867150D02*
X1455317Y-876674D01*
X1455317Y-876674D02*
X1464841Y-895722D01*
X1464841Y-895722D02*
X1464841Y-1000484D01*
X1464841Y-895722D02*
X1474364Y-876674D01*
X1474364Y-876674D02*
X1493412Y-867150D01*
X1493412Y-867150D02*
X1521983Y-867150D01*
X1521983Y-867150D02*
X1541031Y-876674D01*
X1541031Y-876674D02*
X1550555Y-895722D01*
X1550555Y-895722D02*
X1550555Y-1000484D01*
X1941031Y-790960D02*
X1769603Y-1048103D01*
X2198174Y-800484D02*
X2217222Y-800484D01*
X2217222Y-800484D02*
X2236269Y-810008D01*
X2236269Y-810008D02*
X2245793Y-819531D01*
X2245793Y-819531D02*
X2255317Y-838579D01*
X2255317Y-838579D02*
X2264841Y-876674D01*
X2264841Y-876674D02*
X2264841Y-924293D01*
X2264841Y-924293D02*
X2255317Y-962388D01*
X2255317Y-962388D02*
X2245793Y-981436D01*
X2245793Y-981436D02*
X2236269Y-990960D01*
X2236269Y-990960D02*
X2217222Y-1000484D01*
X2217222Y-1000484D02*
X2198174Y-1000484D01*
X2198174Y-1000484D02*
X2179126Y-990960D01*
X2179126Y-990960D02*
X2169603Y-981436D01*
X2169603Y-981436D02*
X2160079Y-962388D01*
X2160079Y-962388D02*
X2150555Y-924293D01*
X2150555Y-924293D02*
X2150555Y-876674D01*
X2150555Y-876674D02*
X2160079Y-838579D01*
X2160079Y-838579D02*
X2169603Y-819531D01*
X2169603Y-819531D02*
X2179126Y-810008D01*
X2179126Y-810008D02*
X2198174Y-800484D01*
X2350555Y-981436D02*
X2360079Y-990960D01*
X2360079Y-990960D02*
X2350555Y-1000484D01*
X2350555Y-1000484D02*
X2341031Y-990960D01*
X2341031Y-990960D02*
X2350555Y-981436D01*
X2350555Y-981436D02*
X2350555Y-1000484D01*
X2483888Y-800484D02*
X2502936Y-800484D01*
X2502936Y-800484D02*
X2521984Y-810008D01*
X2521984Y-810008D02*
X2531507Y-819531D01*
X2531507Y-819531D02*
X2541031Y-838579D01*
X2541031Y-838579D02*
X2550555Y-876674D01*
X2550555Y-876674D02*
X2550555Y-924293D01*
X2550555Y-924293D02*
X2541031Y-962388D01*
X2541031Y-962388D02*
X2531507Y-981436D01*
X2531507Y-981436D02*
X2521984Y-990960D01*
X2521984Y-990960D02*
X2502936Y-1000484D01*
X2502936Y-1000484D02*
X2483888Y-1000484D01*
X2483888Y-1000484D02*
X2464841Y-990960D01*
X2464841Y-990960D02*
X2455317Y-981436D01*
X2455317Y-981436D02*
X2445793Y-962388D01*
X2445793Y-962388D02*
X2436269Y-924293D01*
X2436269Y-924293D02*
X2436269Y-876674D01*
X2436269Y-876674D02*
X2445793Y-838579D01*
X2445793Y-838579D02*
X2455317Y-819531D01*
X2455317Y-819531D02*
X2464841Y-810008D01*
X2464841Y-810008D02*
X2483888Y-800484D01*
X2741031Y-1000484D02*
X2626746Y-1000484D01*
X2683888Y-1000484D02*
X2683888Y-800484D01*
X2683888Y-800484D02*
X2664841Y-829055D01*
X2664841Y-829055D02*
X2645793Y-848103D01*
X2645793Y-848103D02*
X2626746Y-857627D01*
X2836269Y-1000484D02*
X2874364Y-1000484D01*
X2874364Y-1000484D02*
X2893412Y-990960D01*
X2893412Y-990960D02*
X2902936Y-981436D01*
X2902936Y-981436D02*
X2921984Y-952865D01*
X2921984Y-952865D02*
X2931507Y-914769D01*
X2931507Y-914769D02*
X2931507Y-838579D01*
X2931507Y-838579D02*
X2921984Y-819531D01*
X2921984Y-819531D02*
X2912460Y-810008D01*
X2912460Y-810008D02*
X2893412Y-800484D01*
X2893412Y-800484D02*
X2855317Y-800484D01*
X2855317Y-800484D02*
X2836269Y-810008D01*
X2836269Y-810008D02*
X2826745Y-819531D01*
X2826745Y-819531D02*
X2817222Y-838579D01*
X2817222Y-838579D02*
X2817222Y-886198D01*
X2817222Y-886198D02*
X2826745Y-905246D01*
X2826745Y-905246D02*
X2836269Y-914769D01*
X2836269Y-914769D02*
X2855317Y-924293D01*
X2855317Y-924293D02*
X2893412Y-924293D01*
X2893412Y-924293D02*
X2912460Y-914769D01*
X2912460Y-914769D02*
X2921984Y-905246D01*
X2921984Y-905246D02*
X2931507Y-886198D01*
X2998174Y-800484D02*
X3131507Y-800484D01*
X3131507Y-800484D02*
X3045793Y-1000484D01*
X3198174Y-800484D02*
X3198174Y-838579D01*
X3274365Y-800484D02*
X3274365Y-838579D01*
X3569603Y-1076674D02*
X3560079Y-1067150D01*
X3560079Y-1067150D02*
X3541031Y-1038579D01*
X3541031Y-1038579D02*
X3531507Y-1019531D01*
X3531507Y-1019531D02*
X3521984Y-990960D01*
X3521984Y-990960D02*
X3512460Y-943341D01*
X3512460Y-943341D02*
X3512460Y-905246D01*
X3512460Y-905246D02*
X3521984Y-857627D01*
X3521984Y-857627D02*
X3531507Y-829055D01*
X3531507Y-829055D02*
X3541031Y-810008D01*
X3541031Y-810008D02*
X3560079Y-781436D01*
X3560079Y-781436D02*
X3569603Y-771912D01*
X3626746Y-800484D02*
X3750555Y-800484D01*
X3750555Y-800484D02*
X3683888Y-876674D01*
X3683888Y-876674D02*
X3712460Y-876674D01*
X3712460Y-876674D02*
X3731507Y-886198D01*
X3731507Y-886198D02*
X3741031Y-895722D01*
X3741031Y-895722D02*
X3750555Y-914769D01*
X3750555Y-914769D02*
X3750555Y-962388D01*
X3750555Y-962388D02*
X3741031Y-981436D01*
X3741031Y-981436D02*
X3731507Y-990960D01*
X3731507Y-990960D02*
X3712460Y-1000484D01*
X3712460Y-1000484D02*
X3655317Y-1000484D01*
X3655317Y-1000484D02*
X3636269Y-990960D01*
X3636269Y-990960D02*
X3626746Y-981436D01*
X3826746Y-819531D02*
X3836269Y-810008D01*
X3836269Y-810008D02*
X3855317Y-800484D01*
X3855317Y-800484D02*
X3902936Y-800484D01*
X3902936Y-800484D02*
X3921984Y-810008D01*
X3921984Y-810008D02*
X3931507Y-819531D01*
X3931507Y-819531D02*
X3941031Y-838579D01*
X3941031Y-838579D02*
X3941031Y-857627D01*
X3941031Y-857627D02*
X3931507Y-886198D01*
X3931507Y-886198D02*
X3817222Y-1000484D01*
X3817222Y-1000484D02*
X3941031Y-1000484D01*
X4179127Y-1000484D02*
X4179127Y-800484D01*
X4264841Y-1000484D02*
X4264841Y-895722D01*
X4264841Y-895722D02*
X4255317Y-876674D01*
X4255317Y-876674D02*
X4236270Y-867150D01*
X4236270Y-867150D02*
X4207698Y-867150D01*
X4207698Y-867150D02*
X4188650Y-876674D01*
X4188650Y-876674D02*
X4179127Y-886198D01*
X4388650Y-1000484D02*
X4369603Y-990960D01*
X4369603Y-990960D02*
X4360079Y-981436D01*
X4360079Y-981436D02*
X4350555Y-962388D01*
X4350555Y-962388D02*
X4350555Y-905246D01*
X4350555Y-905246D02*
X4360079Y-886198D01*
X4360079Y-886198D02*
X4369603Y-876674D01*
X4369603Y-876674D02*
X4388650Y-867150D01*
X4388650Y-867150D02*
X4417222Y-867150D01*
X4417222Y-867150D02*
X4436270Y-876674D01*
X4436270Y-876674D02*
X4445793Y-886198D01*
X4445793Y-886198D02*
X4455317Y-905246D01*
X4455317Y-905246D02*
X4455317Y-962388D01*
X4455317Y-962388D02*
X4445793Y-981436D01*
X4445793Y-981436D02*
X4436270Y-990960D01*
X4436270Y-990960D02*
X4417222Y-1000484D01*
X4417222Y-1000484D02*
X4388650Y-1000484D01*
X4569603Y-1000484D02*
X4550555Y-990960D01*
X4550555Y-990960D02*
X4541031Y-971912D01*
X4541031Y-971912D02*
X4541031Y-800484D01*
X4721984Y-990960D02*
X4702936Y-1000484D01*
X4702936Y-1000484D02*
X4664841Y-1000484D01*
X4664841Y-1000484D02*
X4645793Y-990960D01*
X4645793Y-990960D02*
X4636270Y-971912D01*
X4636270Y-971912D02*
X4636270Y-895722D01*
X4636270Y-895722D02*
X4645793Y-876674D01*
X4645793Y-876674D02*
X4664841Y-867150D01*
X4664841Y-867150D02*
X4702936Y-867150D01*
X4702936Y-867150D02*
X4721984Y-876674D01*
X4721984Y-876674D02*
X4731508Y-895722D01*
X4731508Y-895722D02*
X4731508Y-914769D01*
X4731508Y-914769D02*
X4636270Y-933817D01*
X4807698Y-990960D02*
X4826746Y-1000484D01*
X4826746Y-1000484D02*
X4864841Y-1000484D01*
X4864841Y-1000484D02*
X4883889Y-990960D01*
X4883889Y-990960D02*
X4893412Y-971912D01*
X4893412Y-971912D02*
X4893412Y-962388D01*
X4893412Y-962388D02*
X4883889Y-943341D01*
X4883889Y-943341D02*
X4864841Y-933817D01*
X4864841Y-933817D02*
X4836270Y-933817D01*
X4836270Y-933817D02*
X4817222Y-924293D01*
X4817222Y-924293D02*
X4807698Y-905246D01*
X4807698Y-905246D02*
X4807698Y-895722D01*
X4807698Y-895722D02*
X4817222Y-876674D01*
X4817222Y-876674D02*
X4836270Y-867150D01*
X4836270Y-867150D02*
X4864841Y-867150D01*
X4864841Y-867150D02*
X4883889Y-876674D01*
X4960079Y-1076674D02*
X4969603Y-1067150D01*
X4969603Y-1067150D02*
X4988651Y-1038579D01*
X4988651Y-1038579D02*
X4998174Y-1019531D01*
X4998174Y-1019531D02*
X5007698Y-990960D01*
X5007698Y-990960D02*
X5017222Y-943341D01*
X5017222Y-943341D02*
X5017222Y-905246D01*
X5017222Y-905246D02*
X5007698Y-857627D01*
X5007698Y-857627D02*
X4998174Y-829055D01*
X4998174Y-829055D02*
X4988651Y-810008D01*
X4988651Y-810008D02*
X4969603Y-781436D01*
X4969603Y-781436D02*
X4960079Y-771912D01*
D10*
X-55460Y-1123000D02*
X-55460Y-1223000D01*
X-105460Y-1173000D02*
X-5460Y-1173000D01*
D11*
X360079Y-1264484D02*
X245793Y-1264484D01*
X302936Y-1264484D02*
X302936Y-1064484D01*
X302936Y-1064484D02*
X283888Y-1093055D01*
X283888Y-1093055D02*
X264841Y-1112103D01*
X264841Y-1112103D02*
X245793Y-1121627D01*
X445793Y-1245436D02*
X455317Y-1254960D01*
X455317Y-1254960D02*
X445793Y-1264484D01*
X445793Y-1264484D02*
X436269Y-1254960D01*
X436269Y-1254960D02*
X445793Y-1245436D01*
X445793Y-1245436D02*
X445793Y-1264484D01*
X579126Y-1064484D02*
X598174Y-1064484D01*
X598174Y-1064484D02*
X617222Y-1074008D01*
X617222Y-1074008D02*
X626745Y-1083531D01*
X626745Y-1083531D02*
X636269Y-1102579D01*
X636269Y-1102579D02*
X645793Y-1140674D01*
X645793Y-1140674D02*
X645793Y-1188293D01*
X645793Y-1188293D02*
X636269Y-1226389D01*
X636269Y-1226389D02*
X626745Y-1245436D01*
X626745Y-1245436D02*
X617222Y-1254960D01*
X617222Y-1254960D02*
X598174Y-1264484D01*
X598174Y-1264484D02*
X579126Y-1264484D01*
X579126Y-1264484D02*
X560079Y-1254960D01*
X560079Y-1254960D02*
X550555Y-1245436D01*
X550555Y-1245436D02*
X541031Y-1226389D01*
X541031Y-1226389D02*
X531507Y-1188293D01*
X531507Y-1188293D02*
X531507Y-1140674D01*
X531507Y-1140674D02*
X541031Y-1102579D01*
X541031Y-1102579D02*
X550555Y-1083531D01*
X550555Y-1083531D02*
X560079Y-1074008D01*
X560079Y-1074008D02*
X579126Y-1064484D01*
X769602Y-1064484D02*
X788650Y-1064484D01*
X788650Y-1064484D02*
X807698Y-1074008D01*
X807698Y-1074008D02*
X817221Y-1083531D01*
X817221Y-1083531D02*
X826745Y-1102579D01*
X826745Y-1102579D02*
X836269Y-1140674D01*
X836269Y-1140674D02*
X836269Y-1188293D01*
X836269Y-1188293D02*
X826745Y-1226389D01*
X826745Y-1226389D02*
X817221Y-1245436D01*
X817221Y-1245436D02*
X807698Y-1254960D01*
X807698Y-1254960D02*
X788650Y-1264484D01*
X788650Y-1264484D02*
X769602Y-1264484D01*
X769602Y-1264484D02*
X750555Y-1254960D01*
X750555Y-1254960D02*
X741031Y-1245436D01*
X741031Y-1245436D02*
X731507Y-1226389D01*
X731507Y-1226389D02*
X721983Y-1188293D01*
X721983Y-1188293D02*
X721983Y-1140674D01*
X721983Y-1140674D02*
X731507Y-1102579D01*
X731507Y-1102579D02*
X741031Y-1083531D01*
X741031Y-1083531D02*
X750555Y-1074008D01*
X750555Y-1074008D02*
X769602Y-1064484D01*
X960079Y-1064484D02*
X979126Y-1064484D01*
X979126Y-1064484D02*
X998174Y-1074008D01*
X998174Y-1074008D02*
X1007698Y-1083531D01*
X1007698Y-1083531D02*
X1017221Y-1102579D01*
X1017221Y-1102579D02*
X1026745Y-1140674D01*
X1026745Y-1140674D02*
X1026745Y-1188293D01*
X1026745Y-1188293D02*
X1017221Y-1226389D01*
X1017221Y-1226389D02*
X1007698Y-1245436D01*
X1007698Y-1245436D02*
X998174Y-1254960D01*
X998174Y-1254960D02*
X979126Y-1264484D01*
X979126Y-1264484D02*
X960079Y-1264484D01*
X960079Y-1264484D02*
X941031Y-1254960D01*
X941031Y-1254960D02*
X931507Y-1245436D01*
X931507Y-1245436D02*
X921983Y-1226389D01*
X921983Y-1226389D02*
X912460Y-1188293D01*
X912460Y-1188293D02*
X912460Y-1140674D01*
X912460Y-1140674D02*
X921983Y-1102579D01*
X921983Y-1102579D02*
X931507Y-1083531D01*
X931507Y-1083531D02*
X941031Y-1074008D01*
X941031Y-1074008D02*
X960079Y-1064484D01*
X1112460Y-1264484D02*
X1112460Y-1131150D01*
X1112460Y-1150198D02*
X1121983Y-1140674D01*
X1121983Y-1140674D02*
X1141031Y-1131150D01*
X1141031Y-1131150D02*
X1169603Y-1131150D01*
X1169603Y-1131150D02*
X1188650Y-1140674D01*
X1188650Y-1140674D02*
X1198174Y-1159722D01*
X1198174Y-1159722D02*
X1198174Y-1264484D01*
X1198174Y-1159722D02*
X1207698Y-1140674D01*
X1207698Y-1140674D02*
X1226745Y-1131150D01*
X1226745Y-1131150D02*
X1255317Y-1131150D01*
X1255317Y-1131150D02*
X1274364Y-1140674D01*
X1274364Y-1140674D02*
X1283888Y-1159722D01*
X1283888Y-1159722D02*
X1283888Y-1264484D01*
X1379126Y-1264484D02*
X1379126Y-1131150D01*
X1379126Y-1150198D02*
X1388650Y-1140674D01*
X1388650Y-1140674D02*
X1407698Y-1131150D01*
X1407698Y-1131150D02*
X1436269Y-1131150D01*
X1436269Y-1131150D02*
X1455317Y-1140674D01*
X1455317Y-1140674D02*
X1464841Y-1159722D01*
X1464841Y-1159722D02*
X1464841Y-1264484D01*
X1464841Y-1159722D02*
X1474364Y-1140674D01*
X1474364Y-1140674D02*
X1493412Y-1131150D01*
X1493412Y-1131150D02*
X1521983Y-1131150D01*
X1521983Y-1131150D02*
X1541031Y-1140674D01*
X1541031Y-1140674D02*
X1550555Y-1159722D01*
X1550555Y-1159722D02*
X1550555Y-1264484D01*
X1941031Y-1054960D02*
X1769603Y-1312103D01*
X2198174Y-1064484D02*
X2217222Y-1064484D01*
X2217222Y-1064484D02*
X2236269Y-1074008D01*
X2236269Y-1074008D02*
X2245793Y-1083531D01*
X2245793Y-1083531D02*
X2255317Y-1102579D01*
X2255317Y-1102579D02*
X2264841Y-1140674D01*
X2264841Y-1140674D02*
X2264841Y-1188293D01*
X2264841Y-1188293D02*
X2255317Y-1226389D01*
X2255317Y-1226389D02*
X2245793Y-1245436D01*
X2245793Y-1245436D02*
X2236269Y-1254960D01*
X2236269Y-1254960D02*
X2217222Y-1264484D01*
X2217222Y-1264484D02*
X2198174Y-1264484D01*
X2198174Y-1264484D02*
X2179126Y-1254960D01*
X2179126Y-1254960D02*
X2169603Y-1245436D01*
X2169603Y-1245436D02*
X2160079Y-1226389D01*
X2160079Y-1226389D02*
X2150555Y-1188293D01*
X2150555Y-1188293D02*
X2150555Y-1140674D01*
X2150555Y-1140674D02*
X2160079Y-1102579D01*
X2160079Y-1102579D02*
X2169603Y-1083531D01*
X2169603Y-1083531D02*
X2179126Y-1074008D01*
X2179126Y-1074008D02*
X2198174Y-1064484D01*
X2350555Y-1245436D02*
X2360079Y-1254960D01*
X2360079Y-1254960D02*
X2350555Y-1264484D01*
X2350555Y-1264484D02*
X2341031Y-1254960D01*
X2341031Y-1254960D02*
X2350555Y-1245436D01*
X2350555Y-1245436D02*
X2350555Y-1264484D01*
X2483888Y-1064484D02*
X2502936Y-1064484D01*
X2502936Y-1064484D02*
X2521984Y-1074008D01*
X2521984Y-1074008D02*
X2531507Y-1083531D01*
X2531507Y-1083531D02*
X2541031Y-1102579D01*
X2541031Y-1102579D02*
X2550555Y-1140674D01*
X2550555Y-1140674D02*
X2550555Y-1188293D01*
X2550555Y-1188293D02*
X2541031Y-1226389D01*
X2541031Y-1226389D02*
X2531507Y-1245436D01*
X2531507Y-1245436D02*
X2521984Y-1254960D01*
X2521984Y-1254960D02*
X2502936Y-1264484D01*
X2502936Y-1264484D02*
X2483888Y-1264484D01*
X2483888Y-1264484D02*
X2464841Y-1254960D01*
X2464841Y-1254960D02*
X2455317Y-1245436D01*
X2455317Y-1245436D02*
X2445793Y-1226389D01*
X2445793Y-1226389D02*
X2436269Y-1188293D01*
X2436269Y-1188293D02*
X2436269Y-1140674D01*
X2436269Y-1140674D02*
X2445793Y-1102579D01*
X2445793Y-1102579D02*
X2455317Y-1083531D01*
X2455317Y-1083531D02*
X2464841Y-1074008D01*
X2464841Y-1074008D02*
X2483888Y-1064484D01*
X2617222Y-1064484D02*
X2741031Y-1064484D01*
X2741031Y-1064484D02*
X2674365Y-1140674D01*
X2674365Y-1140674D02*
X2702936Y-1140674D01*
X2702936Y-1140674D02*
X2721984Y-1150198D01*
X2721984Y-1150198D02*
X2731507Y-1159722D01*
X2731507Y-1159722D02*
X2741031Y-1178770D01*
X2741031Y-1178770D02*
X2741031Y-1226389D01*
X2741031Y-1226389D02*
X2731507Y-1245436D01*
X2731507Y-1245436D02*
X2721984Y-1254960D01*
X2721984Y-1254960D02*
X2702936Y-1264484D01*
X2702936Y-1264484D02*
X2645793Y-1264484D01*
X2645793Y-1264484D02*
X2626746Y-1254960D01*
X2626746Y-1254960D02*
X2617222Y-1245436D01*
X2836269Y-1264484D02*
X2874364Y-1264484D01*
X2874364Y-1264484D02*
X2893412Y-1254960D01*
X2893412Y-1254960D02*
X2902936Y-1245436D01*
X2902936Y-1245436D02*
X2921984Y-1216865D01*
X2921984Y-1216865D02*
X2931507Y-1178770D01*
X2931507Y-1178770D02*
X2931507Y-1102579D01*
X2931507Y-1102579D02*
X2921984Y-1083531D01*
X2921984Y-1083531D02*
X2912460Y-1074008D01*
X2912460Y-1074008D02*
X2893412Y-1064484D01*
X2893412Y-1064484D02*
X2855317Y-1064484D01*
X2855317Y-1064484D02*
X2836269Y-1074008D01*
X2836269Y-1074008D02*
X2826745Y-1083531D01*
X2826745Y-1083531D02*
X2817222Y-1102579D01*
X2817222Y-1102579D02*
X2817222Y-1150198D01*
X2817222Y-1150198D02*
X2826745Y-1169246D01*
X2826745Y-1169246D02*
X2836269Y-1178770D01*
X2836269Y-1178770D02*
X2855317Y-1188293D01*
X2855317Y-1188293D02*
X2893412Y-1188293D01*
X2893412Y-1188293D02*
X2912460Y-1178770D01*
X2912460Y-1178770D02*
X2921984Y-1169246D01*
X2921984Y-1169246D02*
X2931507Y-1150198D01*
X3102936Y-1131150D02*
X3102936Y-1264484D01*
X3055317Y-1054960D02*
X3007698Y-1197817D01*
X3007698Y-1197817D02*
X3131507Y-1197817D01*
X3198174Y-1064484D02*
X3198174Y-1102579D01*
X3274365Y-1064484D02*
X3274365Y-1102579D01*
X3569603Y-1340674D02*
X3560079Y-1331150D01*
X3560079Y-1331150D02*
X3541031Y-1302579D01*
X3541031Y-1302579D02*
X3531507Y-1283531D01*
X3531507Y-1283531D02*
X3521984Y-1254960D01*
X3521984Y-1254960D02*
X3512460Y-1207341D01*
X3512460Y-1207341D02*
X3512460Y-1169246D01*
X3512460Y-1169246D02*
X3521984Y-1121627D01*
X3521984Y-1121627D02*
X3531507Y-1093055D01*
X3531507Y-1093055D02*
X3541031Y-1074008D01*
X3541031Y-1074008D02*
X3560079Y-1045436D01*
X3560079Y-1045436D02*
X3569603Y-1035912D01*
X3741031Y-1064484D02*
X3645793Y-1064484D01*
X3645793Y-1064484D02*
X3636269Y-1159722D01*
X3636269Y-1159722D02*
X3645793Y-1150198D01*
X3645793Y-1150198D02*
X3664841Y-1140674D01*
X3664841Y-1140674D02*
X3712460Y-1140674D01*
X3712460Y-1140674D02*
X3731507Y-1150198D01*
X3731507Y-1150198D02*
X3741031Y-1159722D01*
X3741031Y-1159722D02*
X3750555Y-1178770D01*
X3750555Y-1178770D02*
X3750555Y-1226389D01*
X3750555Y-1226389D02*
X3741031Y-1245436D01*
X3741031Y-1245436D02*
X3731507Y-1254960D01*
X3731507Y-1254960D02*
X3712460Y-1264484D01*
X3712460Y-1264484D02*
X3664841Y-1264484D01*
X3664841Y-1264484D02*
X3645793Y-1254960D01*
X3645793Y-1254960D02*
X3636269Y-1245436D01*
X3988650Y-1264484D02*
X3988650Y-1064484D01*
X4074365Y-1264484D02*
X4074365Y-1159722D01*
X4074365Y-1159722D02*
X4064841Y-1140674D01*
X4064841Y-1140674D02*
X4045793Y-1131150D01*
X4045793Y-1131150D02*
X4017222Y-1131150D01*
X4017222Y-1131150D02*
X3998174Y-1140674D01*
X3998174Y-1140674D02*
X3988650Y-1150198D01*
X4198174Y-1264484D02*
X4179127Y-1254960D01*
X4179127Y-1254960D02*
X4169603Y-1245436D01*
X4169603Y-1245436D02*
X4160079Y-1226389D01*
X4160079Y-1226389D02*
X4160079Y-1169246D01*
X4160079Y-1169246D02*
X4169603Y-1150198D01*
X4169603Y-1150198D02*
X4179127Y-1140674D01*
X4179127Y-1140674D02*
X4198174Y-1131150D01*
X4198174Y-1131150D02*
X4226746Y-1131150D01*
X4226746Y-1131150D02*
X4245793Y-1140674D01*
X4245793Y-1140674D02*
X4255317Y-1150198D01*
X4255317Y-1150198D02*
X4264841Y-1169246D01*
X4264841Y-1169246D02*
X4264841Y-1226389D01*
X4264841Y-1226389D02*
X4255317Y-1245436D01*
X4255317Y-1245436D02*
X4245793Y-1254960D01*
X4245793Y-1254960D02*
X4226746Y-1264484D01*
X4226746Y-1264484D02*
X4198174Y-1264484D01*
X4379127Y-1264484D02*
X4360079Y-1254960D01*
X4360079Y-1254960D02*
X4350555Y-1235912D01*
X4350555Y-1235912D02*
X4350555Y-1064484D01*
X4531508Y-1254960D02*
X4512460Y-1264484D01*
X4512460Y-1264484D02*
X4474365Y-1264484D01*
X4474365Y-1264484D02*
X4455317Y-1254960D01*
X4455317Y-1254960D02*
X4445793Y-1235912D01*
X4445793Y-1235912D02*
X4445793Y-1159722D01*
X4445793Y-1159722D02*
X4455317Y-1140674D01*
X4455317Y-1140674D02*
X4474365Y-1131150D01*
X4474365Y-1131150D02*
X4512460Y-1131150D01*
X4512460Y-1131150D02*
X4531508Y-1140674D01*
X4531508Y-1140674D02*
X4541031Y-1159722D01*
X4541031Y-1159722D02*
X4541031Y-1178770D01*
X4541031Y-1178770D02*
X4445793Y-1197817D01*
X4617222Y-1254960D02*
X4636270Y-1264484D01*
X4636270Y-1264484D02*
X4674365Y-1264484D01*
X4674365Y-1264484D02*
X4693412Y-1254960D01*
X4693412Y-1254960D02*
X4702936Y-1235912D01*
X4702936Y-1235912D02*
X4702936Y-1226389D01*
X4702936Y-1226389D02*
X4693412Y-1207341D01*
X4693412Y-1207341D02*
X4674365Y-1197817D01*
X4674365Y-1197817D02*
X4645793Y-1197817D01*
X4645793Y-1197817D02*
X4626746Y-1188293D01*
X4626746Y-1188293D02*
X4617222Y-1169246D01*
X4617222Y-1169246D02*
X4617222Y-1159722D01*
X4617222Y-1159722D02*
X4626746Y-1140674D01*
X4626746Y-1140674D02*
X4645793Y-1131150D01*
X4645793Y-1131150D02*
X4674365Y-1131150D01*
X4674365Y-1131150D02*
X4693412Y-1140674D01*
X4769603Y-1340674D02*
X4779127Y-1331150D01*
X4779127Y-1331150D02*
X4798174Y-1302579D01*
X4798174Y-1302579D02*
X4807698Y-1283531D01*
X4807698Y-1283531D02*
X4817222Y-1254960D01*
X4817222Y-1254960D02*
X4826746Y-1207341D01*
X4826746Y-1207341D02*
X4826746Y-1169246D01*
X4826746Y-1169246D02*
X4817222Y-1121627D01*
X4817222Y-1121627D02*
X4807698Y-1093055D01*
X4807698Y-1093055D02*
X4798174Y-1074008D01*
X4798174Y-1074008D02*
X4779127Y-1045436D01*
X4779127Y-1045436D02*
X4769603Y-1035912D01*
X-34749Y-1507711D02*
X-34749Y-1366289D01*
X-176171Y-1366289D01*
X-176171Y-1507711D01*
X-34749Y-1507711D01*
X245793Y-1347531D02*
X255317Y-1338008D01*
X255317Y-1338008D02*
X274364Y-1328484D01*
X274364Y-1328484D02*
X321983Y-1328484D01*
X321983Y-1328484D02*
X341031Y-1338008D01*
X341031Y-1338008D02*
X350555Y-1347531D01*
X350555Y-1347531D02*
X360079Y-1366579D01*
X360079Y-1366579D02*
X360079Y-1385627D01*
X360079Y-1385627D02*
X350555Y-1414198D01*
X350555Y-1414198D02*
X236269Y-1528484D01*
X236269Y-1528484D02*
X360079Y-1528484D01*
X445793Y-1509436D02*
X455317Y-1518960D01*
X455317Y-1518960D02*
X445793Y-1528484D01*
X445793Y-1528484D02*
X436269Y-1518960D01*
X436269Y-1518960D02*
X445793Y-1509436D01*
X445793Y-1509436D02*
X445793Y-1528484D01*
X579126Y-1328484D02*
X598174Y-1328484D01*
X598174Y-1328484D02*
X617222Y-1338008D01*
X617222Y-1338008D02*
X626745Y-1347531D01*
X626745Y-1347531D02*
X636269Y-1366579D01*
X636269Y-1366579D02*
X645793Y-1404674D01*
X645793Y-1404674D02*
X645793Y-1452293D01*
X645793Y-1452293D02*
X636269Y-1490388D01*
X636269Y-1490388D02*
X626745Y-1509436D01*
X626745Y-1509436D02*
X617222Y-1518960D01*
X617222Y-1518960D02*
X598174Y-1528484D01*
X598174Y-1528484D02*
X579126Y-1528484D01*
X579126Y-1528484D02*
X560079Y-1518960D01*
X560079Y-1518960D02*
X550555Y-1509436D01*
X550555Y-1509436D02*
X541031Y-1490388D01*
X541031Y-1490388D02*
X531507Y-1452293D01*
X531507Y-1452293D02*
X531507Y-1404674D01*
X531507Y-1404674D02*
X541031Y-1366579D01*
X541031Y-1366579D02*
X550555Y-1347531D01*
X550555Y-1347531D02*
X560079Y-1338008D01*
X560079Y-1338008D02*
X579126Y-1328484D01*
X769602Y-1328484D02*
X788650Y-1328484D01*
X788650Y-1328484D02*
X807698Y-1338008D01*
X807698Y-1338008D02*
X817221Y-1347531D01*
X817221Y-1347531D02*
X826745Y-1366579D01*
X826745Y-1366579D02*
X836269Y-1404674D01*
X836269Y-1404674D02*
X836269Y-1452293D01*
X836269Y-1452293D02*
X826745Y-1490388D01*
X826745Y-1490388D02*
X817221Y-1509436D01*
X817221Y-1509436D02*
X807698Y-1518960D01*
X807698Y-1518960D02*
X788650Y-1528484D01*
X788650Y-1528484D02*
X769602Y-1528484D01*
X769602Y-1528484D02*
X750555Y-1518960D01*
X750555Y-1518960D02*
X741031Y-1509436D01*
X741031Y-1509436D02*
X731507Y-1490388D01*
X731507Y-1490388D02*
X721983Y-1452293D01*
X721983Y-1452293D02*
X721983Y-1404674D01*
X721983Y-1404674D02*
X731507Y-1366579D01*
X731507Y-1366579D02*
X741031Y-1347531D01*
X741031Y-1347531D02*
X750555Y-1338008D01*
X750555Y-1338008D02*
X769602Y-1328484D01*
X960079Y-1328484D02*
X979126Y-1328484D01*
X979126Y-1328484D02*
X998174Y-1338008D01*
X998174Y-1338008D02*
X1007698Y-1347531D01*
X1007698Y-1347531D02*
X1017221Y-1366579D01*
X1017221Y-1366579D02*
X1026745Y-1404674D01*
X1026745Y-1404674D02*
X1026745Y-1452293D01*
X1026745Y-1452293D02*
X1017221Y-1490388D01*
X1017221Y-1490388D02*
X1007698Y-1509436D01*
X1007698Y-1509436D02*
X998174Y-1518960D01*
X998174Y-1518960D02*
X979126Y-1528484D01*
X979126Y-1528484D02*
X960079Y-1528484D01*
X960079Y-1528484D02*
X941031Y-1518960D01*
X941031Y-1518960D02*
X931507Y-1509436D01*
X931507Y-1509436D02*
X921983Y-1490388D01*
X921983Y-1490388D02*
X912460Y-1452293D01*
X912460Y-1452293D02*
X912460Y-1404674D01*
X912460Y-1404674D02*
X921983Y-1366579D01*
X921983Y-1366579D02*
X931507Y-1347531D01*
X931507Y-1347531D02*
X941031Y-1338008D01*
X941031Y-1338008D02*
X960079Y-1328484D01*
X1112460Y-1528484D02*
X1112460Y-1395150D01*
X1112460Y-1414198D02*
X1121983Y-1404674D01*
X1121983Y-1404674D02*
X1141031Y-1395150D01*
X1141031Y-1395150D02*
X1169603Y-1395150D01*
X1169603Y-1395150D02*
X1188650Y-1404674D01*
X1188650Y-1404674D02*
X1198174Y-1423722D01*
X1198174Y-1423722D02*
X1198174Y-1528484D01*
X1198174Y-1423722D02*
X1207698Y-1404674D01*
X1207698Y-1404674D02*
X1226745Y-1395150D01*
X1226745Y-1395150D02*
X1255317Y-1395150D01*
X1255317Y-1395150D02*
X1274364Y-1404674D01*
X1274364Y-1404674D02*
X1283888Y-1423722D01*
X1283888Y-1423722D02*
X1283888Y-1528484D01*
X1379126Y-1528484D02*
X1379126Y-1395150D01*
X1379126Y-1414198D02*
X1388650Y-1404674D01*
X1388650Y-1404674D02*
X1407698Y-1395150D01*
X1407698Y-1395150D02*
X1436269Y-1395150D01*
X1436269Y-1395150D02*
X1455317Y-1404674D01*
X1455317Y-1404674D02*
X1464841Y-1423722D01*
X1464841Y-1423722D02*
X1464841Y-1528484D01*
X1464841Y-1423722D02*
X1474364Y-1404674D01*
X1474364Y-1404674D02*
X1493412Y-1395150D01*
X1493412Y-1395150D02*
X1521983Y-1395150D01*
X1521983Y-1395150D02*
X1541031Y-1404674D01*
X1541031Y-1404674D02*
X1550555Y-1423722D01*
X1550555Y-1423722D02*
X1550555Y-1528484D01*
X1941031Y-1318960D02*
X1769603Y-1576103D01*
X2198174Y-1328484D02*
X2217222Y-1328484D01*
X2217222Y-1328484D02*
X2236269Y-1338008D01*
X2236269Y-1338008D02*
X2245793Y-1347531D01*
X2245793Y-1347531D02*
X2255317Y-1366579D01*
X2255317Y-1366579D02*
X2264841Y-1404674D01*
X2264841Y-1404674D02*
X2264841Y-1452293D01*
X2264841Y-1452293D02*
X2255317Y-1490388D01*
X2255317Y-1490388D02*
X2245793Y-1509436D01*
X2245793Y-1509436D02*
X2236269Y-1518960D01*
X2236269Y-1518960D02*
X2217222Y-1528484D01*
X2217222Y-1528484D02*
X2198174Y-1528484D01*
X2198174Y-1528484D02*
X2179126Y-1518960D01*
X2179126Y-1518960D02*
X2169603Y-1509436D01*
X2169603Y-1509436D02*
X2160079Y-1490388D01*
X2160079Y-1490388D02*
X2150555Y-1452293D01*
X2150555Y-1452293D02*
X2150555Y-1404674D01*
X2150555Y-1404674D02*
X2160079Y-1366579D01*
X2160079Y-1366579D02*
X2169603Y-1347531D01*
X2169603Y-1347531D02*
X2179126Y-1338008D01*
X2179126Y-1338008D02*
X2198174Y-1328484D01*
X2350555Y-1509436D02*
X2360079Y-1518960D01*
X2360079Y-1518960D02*
X2350555Y-1528484D01*
X2350555Y-1528484D02*
X2341031Y-1518960D01*
X2341031Y-1518960D02*
X2350555Y-1509436D01*
X2350555Y-1509436D02*
X2350555Y-1528484D01*
X2483888Y-1328484D02*
X2502936Y-1328484D01*
X2502936Y-1328484D02*
X2521984Y-1338008D01*
X2521984Y-1338008D02*
X2531507Y-1347531D01*
X2531507Y-1347531D02*
X2541031Y-1366579D01*
X2541031Y-1366579D02*
X2550555Y-1404674D01*
X2550555Y-1404674D02*
X2550555Y-1452293D01*
X2550555Y-1452293D02*
X2541031Y-1490388D01*
X2541031Y-1490388D02*
X2531507Y-1509436D01*
X2531507Y-1509436D02*
X2521984Y-1518960D01*
X2521984Y-1518960D02*
X2502936Y-1528484D01*
X2502936Y-1528484D02*
X2483888Y-1528484D01*
X2483888Y-1528484D02*
X2464841Y-1518960D01*
X2464841Y-1518960D02*
X2455317Y-1509436D01*
X2455317Y-1509436D02*
X2445793Y-1490388D01*
X2445793Y-1490388D02*
X2436269Y-1452293D01*
X2436269Y-1452293D02*
X2436269Y-1404674D01*
X2436269Y-1404674D02*
X2445793Y-1366579D01*
X2445793Y-1366579D02*
X2455317Y-1347531D01*
X2455317Y-1347531D02*
X2464841Y-1338008D01*
X2464841Y-1338008D02*
X2483888Y-1328484D01*
X2617222Y-1328484D02*
X2750555Y-1328484D01*
X2750555Y-1328484D02*
X2664841Y-1528484D01*
X2855317Y-1414198D02*
X2836269Y-1404674D01*
X2836269Y-1404674D02*
X2826745Y-1395150D01*
X2826745Y-1395150D02*
X2817222Y-1376103D01*
X2817222Y-1376103D02*
X2817222Y-1366579D01*
X2817222Y-1366579D02*
X2826745Y-1347531D01*
X2826745Y-1347531D02*
X2836269Y-1338008D01*
X2836269Y-1338008D02*
X2855317Y-1328484D01*
X2855317Y-1328484D02*
X2893412Y-1328484D01*
X2893412Y-1328484D02*
X2912460Y-1338008D01*
X2912460Y-1338008D02*
X2921984Y-1347531D01*
X2921984Y-1347531D02*
X2931507Y-1366579D01*
X2931507Y-1366579D02*
X2931507Y-1376103D01*
X2931507Y-1376103D02*
X2921984Y-1395150D01*
X2921984Y-1395150D02*
X2912460Y-1404674D01*
X2912460Y-1404674D02*
X2893412Y-1414198D01*
X2893412Y-1414198D02*
X2855317Y-1414198D01*
X2855317Y-1414198D02*
X2836269Y-1423722D01*
X2836269Y-1423722D02*
X2826745Y-1433246D01*
X2826745Y-1433246D02*
X2817222Y-1452293D01*
X2817222Y-1452293D02*
X2817222Y-1490388D01*
X2817222Y-1490388D02*
X2826745Y-1509436D01*
X2826745Y-1509436D02*
X2836269Y-1518960D01*
X2836269Y-1518960D02*
X2855317Y-1528484D01*
X2855317Y-1528484D02*
X2893412Y-1528484D01*
X2893412Y-1528484D02*
X2912460Y-1518960D01*
X2912460Y-1518960D02*
X2921984Y-1509436D01*
X2921984Y-1509436D02*
X2931507Y-1490388D01*
X2931507Y-1490388D02*
X2931507Y-1452293D01*
X2931507Y-1452293D02*
X2921984Y-1433246D01*
X2921984Y-1433246D02*
X2912460Y-1423722D01*
X2912460Y-1423722D02*
X2893412Y-1414198D01*
X2998174Y-1328484D02*
X3131507Y-1328484D01*
X3131507Y-1328484D02*
X3045793Y-1528484D01*
X3198174Y-1328484D02*
X3198174Y-1366579D01*
X3274365Y-1328484D02*
X3274365Y-1366579D01*
X3569603Y-1604674D02*
X3560079Y-1595150D01*
X3560079Y-1595150D02*
X3541031Y-1566579D01*
X3541031Y-1566579D02*
X3531507Y-1547531D01*
X3531507Y-1547531D02*
X3521984Y-1518960D01*
X3521984Y-1518960D02*
X3512460Y-1471341D01*
X3512460Y-1471341D02*
X3512460Y-1433246D01*
X3512460Y-1433246D02*
X3521984Y-1385627D01*
X3521984Y-1385627D02*
X3531507Y-1357055D01*
X3531507Y-1357055D02*
X3541031Y-1338008D01*
X3541031Y-1338008D02*
X3560079Y-1309436D01*
X3560079Y-1309436D02*
X3569603Y-1299912D01*
X3683888Y-1328484D02*
X3702936Y-1328484D01*
X3702936Y-1328484D02*
X3721984Y-1338008D01*
X3721984Y-1338008D02*
X3731507Y-1347531D01*
X3731507Y-1347531D02*
X3741031Y-1366579D01*
X3741031Y-1366579D02*
X3750555Y-1404674D01*
X3750555Y-1404674D02*
X3750555Y-1452293D01*
X3750555Y-1452293D02*
X3741031Y-1490388D01*
X3741031Y-1490388D02*
X3731507Y-1509436D01*
X3731507Y-1509436D02*
X3721984Y-1518960D01*
X3721984Y-1518960D02*
X3702936Y-1528484D01*
X3702936Y-1528484D02*
X3683888Y-1528484D01*
X3683888Y-1528484D02*
X3664841Y-1518960D01*
X3664841Y-1518960D02*
X3655317Y-1509436D01*
X3655317Y-1509436D02*
X3645793Y-1490388D01*
X3645793Y-1490388D02*
X3636269Y-1452293D01*
X3636269Y-1452293D02*
X3636269Y-1404674D01*
X3636269Y-1404674D02*
X3645793Y-1366579D01*
X3645793Y-1366579D02*
X3655317Y-1347531D01*
X3655317Y-1347531D02*
X3664841Y-1338008D01*
X3664841Y-1338008D02*
X3683888Y-1328484D01*
X3988650Y-1528484D02*
X3988650Y-1328484D01*
X4074365Y-1528484D02*
X4074365Y-1423722D01*
X4074365Y-1423722D02*
X4064841Y-1404674D01*
X4064841Y-1404674D02*
X4045793Y-1395150D01*
X4045793Y-1395150D02*
X4017222Y-1395150D01*
X4017222Y-1395150D02*
X3998174Y-1404674D01*
X3998174Y-1404674D02*
X3988650Y-1414198D01*
X4198174Y-1528484D02*
X4179127Y-1518960D01*
X4179127Y-1518960D02*
X4169603Y-1509436D01*
X4169603Y-1509436D02*
X4160079Y-1490388D01*
X4160079Y-1490388D02*
X4160079Y-1433246D01*
X4160079Y-1433246D02*
X4169603Y-1414198D01*
X4169603Y-1414198D02*
X4179127Y-1404674D01*
X4179127Y-1404674D02*
X4198174Y-1395150D01*
X4198174Y-1395150D02*
X4226746Y-1395150D01*
X4226746Y-1395150D02*
X4245793Y-1404674D01*
X4245793Y-1404674D02*
X4255317Y-1414198D01*
X4255317Y-1414198D02*
X4264841Y-1433246D01*
X4264841Y-1433246D02*
X4264841Y-1490388D01*
X4264841Y-1490388D02*
X4255317Y-1509436D01*
X4255317Y-1509436D02*
X4245793Y-1518960D01*
X4245793Y-1518960D02*
X4226746Y-1528484D01*
X4226746Y-1528484D02*
X4198174Y-1528484D01*
X4379127Y-1528484D02*
X4360079Y-1518960D01*
X4360079Y-1518960D02*
X4350555Y-1499912D01*
X4350555Y-1499912D02*
X4350555Y-1328484D01*
X4531508Y-1518960D02*
X4512460Y-1528484D01*
X4512460Y-1528484D02*
X4474365Y-1528484D01*
X4474365Y-1528484D02*
X4455317Y-1518960D01*
X4455317Y-1518960D02*
X4445793Y-1499912D01*
X4445793Y-1499912D02*
X4445793Y-1423722D01*
X4445793Y-1423722D02*
X4455317Y-1404674D01*
X4455317Y-1404674D02*
X4474365Y-1395150D01*
X4474365Y-1395150D02*
X4512460Y-1395150D01*
X4512460Y-1395150D02*
X4531508Y-1404674D01*
X4531508Y-1404674D02*
X4541031Y-1423722D01*
X4541031Y-1423722D02*
X4541031Y-1442769D01*
X4541031Y-1442769D02*
X4445793Y-1461817D01*
X4617222Y-1518960D02*
X4636270Y-1528484D01*
X4636270Y-1528484D02*
X4674365Y-1528484D01*
X4674365Y-1528484D02*
X4693412Y-1518960D01*
X4693412Y-1518960D02*
X4702936Y-1499912D01*
X4702936Y-1499912D02*
X4702936Y-1490388D01*
X4702936Y-1490388D02*
X4693412Y-1471341D01*
X4693412Y-1471341D02*
X4674365Y-1461817D01*
X4674365Y-1461817D02*
X4645793Y-1461817D01*
X4645793Y-1461817D02*
X4626746Y-1452293D01*
X4626746Y-1452293D02*
X4617222Y-1433246D01*
X4617222Y-1433246D02*
X4617222Y-1423722D01*
X4617222Y-1423722D02*
X4626746Y-1404674D01*
X4626746Y-1404674D02*
X4645793Y-1395150D01*
X4645793Y-1395150D02*
X4674365Y-1395150D01*
X4674365Y-1395150D02*
X4693412Y-1404674D01*
X4941032Y-1452293D02*
X5093413Y-1452293D01*
X5017222Y-1528484D02*
X5017222Y-1376103D01*
X5331508Y-1347531D02*
X5341032Y-1338008D01*
X5341032Y-1338008D02*
X5360079Y-1328484D01*
X5360079Y-1328484D02*
X5407698Y-1328484D01*
X5407698Y-1328484D02*
X5426746Y-1338008D01*
X5426746Y-1338008D02*
X5436270Y-1347531D01*
X5436270Y-1347531D02*
X5445793Y-1366579D01*
X5445793Y-1366579D02*
X5445793Y-1385627D01*
X5445793Y-1385627D02*
X5436270Y-1414198D01*
X5436270Y-1414198D02*
X5321984Y-1528484D01*
X5321984Y-1528484D02*
X5445793Y-1528484D01*
X5674365Y-1518960D02*
X5693412Y-1528484D01*
X5693412Y-1528484D02*
X5731508Y-1528484D01*
X5731508Y-1528484D02*
X5750555Y-1518960D01*
X5750555Y-1518960D02*
X5760079Y-1499912D01*
X5760079Y-1499912D02*
X5760079Y-1490388D01*
X5760079Y-1490388D02*
X5750555Y-1471341D01*
X5750555Y-1471341D02*
X5731508Y-1461817D01*
X5731508Y-1461817D02*
X5702936Y-1461817D01*
X5702936Y-1461817D02*
X5683889Y-1452293D01*
X5683889Y-1452293D02*
X5674365Y-1433246D01*
X5674365Y-1433246D02*
X5674365Y-1423722D01*
X5674365Y-1423722D02*
X5683889Y-1404674D01*
X5683889Y-1404674D02*
X5702936Y-1395150D01*
X5702936Y-1395150D02*
X5731508Y-1395150D01*
X5731508Y-1395150D02*
X5750555Y-1404674D01*
X5874365Y-1528484D02*
X5855317Y-1518960D01*
X5855317Y-1518960D02*
X5845793Y-1499912D01*
X5845793Y-1499912D02*
X5845793Y-1328484D01*
X5979127Y-1528484D02*
X5960079Y-1518960D01*
X5960079Y-1518960D02*
X5950555Y-1509436D01*
X5950555Y-1509436D02*
X5941032Y-1490388D01*
X5941032Y-1490388D02*
X5941032Y-1433246D01*
X5941032Y-1433246D02*
X5950555Y-1414198D01*
X5950555Y-1414198D02*
X5960079Y-1404674D01*
X5960079Y-1404674D02*
X5979127Y-1395150D01*
X5979127Y-1395150D02*
X6007698Y-1395150D01*
X6007698Y-1395150D02*
X6026746Y-1404674D01*
X6026746Y-1404674D02*
X6036270Y-1414198D01*
X6036270Y-1414198D02*
X6045793Y-1433246D01*
X6045793Y-1433246D02*
X6045793Y-1490388D01*
X6045793Y-1490388D02*
X6036270Y-1509436D01*
X6036270Y-1509436D02*
X6026746Y-1518960D01*
X6026746Y-1518960D02*
X6007698Y-1528484D01*
X6007698Y-1528484D02*
X5979127Y-1528484D01*
X6102936Y-1395150D02*
X6179127Y-1395150D01*
X6131508Y-1328484D02*
X6131508Y-1499912D01*
X6131508Y-1499912D02*
X6141032Y-1518960D01*
X6141032Y-1518960D02*
X6160079Y-1528484D01*
X6160079Y-1528484D02*
X6179127Y-1528484D01*
X6236270Y-1518960D02*
X6255317Y-1528484D01*
X6255317Y-1528484D02*
X6293412Y-1528484D01*
X6293412Y-1528484D02*
X6312460Y-1518960D01*
X6312460Y-1518960D02*
X6321984Y-1499912D01*
X6321984Y-1499912D02*
X6321984Y-1490388D01*
X6321984Y-1490388D02*
X6312460Y-1471341D01*
X6312460Y-1471341D02*
X6293412Y-1461817D01*
X6293412Y-1461817D02*
X6264841Y-1461817D01*
X6264841Y-1461817D02*
X6245793Y-1452293D01*
X6245793Y-1452293D02*
X6236270Y-1433246D01*
X6236270Y-1433246D02*
X6236270Y-1423722D01*
X6236270Y-1423722D02*
X6245793Y-1404674D01*
X6245793Y-1404674D02*
X6264841Y-1395150D01*
X6264841Y-1395150D02*
X6293412Y-1395150D01*
X6293412Y-1395150D02*
X6312460Y-1404674D01*
X6388651Y-1604674D02*
X6398174Y-1595150D01*
X6398174Y-1595150D02*
X6417222Y-1566579D01*
X6417222Y-1566579D02*
X6426746Y-1547531D01*
X6426746Y-1547531D02*
X6436270Y-1518960D01*
X6436270Y-1518960D02*
X6445793Y-1471341D01*
X6445793Y-1471341D02*
X6445793Y-1433246D01*
X6445793Y-1433246D02*
X6436270Y-1385627D01*
X6436270Y-1385627D02*
X6426746Y-1357055D01*
X6426746Y-1357055D02*
X6417222Y-1338008D01*
X6417222Y-1338008D02*
X6398174Y-1309436D01*
X6398174Y-1309436D02*
X6388651Y-1299912D01*
X-105460Y-1857000D02*
X-5460Y-1757000D01*
X-105460Y-1657000D01*
X-205460Y-1757000D01*
X-105460Y-1857000D01*
X236269Y-1648484D02*
X360079Y-1648484D01*
X360079Y-1648484D02*
X293412Y-1724674D01*
X293412Y-1724674D02*
X321983Y-1724674D01*
X321983Y-1724674D02*
X341031Y-1734198D01*
X341031Y-1734198D02*
X350555Y-1743722D01*
X350555Y-1743722D02*
X360079Y-1762769D01*
X360079Y-1762769D02*
X360079Y-1810388D01*
X360079Y-1810388D02*
X350555Y-1829436D01*
X350555Y-1829436D02*
X341031Y-1838960D01*
X341031Y-1838960D02*
X321983Y-1848484D01*
X321983Y-1848484D02*
X264841Y-1848484D01*
X264841Y-1848484D02*
X245793Y-1838960D01*
X245793Y-1838960D02*
X236269Y-1829436D01*
X445793Y-1829436D02*
X455317Y-1838960D01*
X455317Y-1838960D02*
X445793Y-1848484D01*
X445793Y-1848484D02*
X436269Y-1838960D01*
X436269Y-1838960D02*
X445793Y-1829436D01*
X445793Y-1829436D02*
X445793Y-1848484D01*
X531507Y-1667531D02*
X541031Y-1658008D01*
X541031Y-1658008D02*
X560079Y-1648484D01*
X560079Y-1648484D02*
X607698Y-1648484D01*
X607698Y-1648484D02*
X626745Y-1658008D01*
X626745Y-1658008D02*
X636269Y-1667531D01*
X636269Y-1667531D02*
X645793Y-1686579D01*
X645793Y-1686579D02*
X645793Y-1705627D01*
X645793Y-1705627D02*
X636269Y-1734198D01*
X636269Y-1734198D02*
X521983Y-1848484D01*
X521983Y-1848484D02*
X645793Y-1848484D01*
X769602Y-1648484D02*
X788650Y-1648484D01*
X788650Y-1648484D02*
X807698Y-1658008D01*
X807698Y-1658008D02*
X817221Y-1667531D01*
X817221Y-1667531D02*
X826745Y-1686579D01*
X826745Y-1686579D02*
X836269Y-1724674D01*
X836269Y-1724674D02*
X836269Y-1772293D01*
X836269Y-1772293D02*
X826745Y-1810388D01*
X826745Y-1810388D02*
X817221Y-1829436D01*
X817221Y-1829436D02*
X807698Y-1838960D01*
X807698Y-1838960D02*
X788650Y-1848484D01*
X788650Y-1848484D02*
X769602Y-1848484D01*
X769602Y-1848484D02*
X750555Y-1838960D01*
X750555Y-1838960D02*
X741031Y-1829436D01*
X741031Y-1829436D02*
X731507Y-1810388D01*
X731507Y-1810388D02*
X721983Y-1772293D01*
X721983Y-1772293D02*
X721983Y-1724674D01*
X721983Y-1724674D02*
X731507Y-1686579D01*
X731507Y-1686579D02*
X741031Y-1667531D01*
X741031Y-1667531D02*
X750555Y-1658008D01*
X750555Y-1658008D02*
X769602Y-1648484D01*
X960079Y-1648484D02*
X979126Y-1648484D01*
X979126Y-1648484D02*
X998174Y-1658008D01*
X998174Y-1658008D02*
X1007698Y-1667531D01*
X1007698Y-1667531D02*
X1017221Y-1686579D01*
X1017221Y-1686579D02*
X1026745Y-1724674D01*
X1026745Y-1724674D02*
X1026745Y-1772293D01*
X1026745Y-1772293D02*
X1017221Y-1810388D01*
X1017221Y-1810388D02*
X1007698Y-1829436D01*
X1007698Y-1829436D02*
X998174Y-1838960D01*
X998174Y-1838960D02*
X979126Y-1848484D01*
X979126Y-1848484D02*
X960079Y-1848484D01*
X960079Y-1848484D02*
X941031Y-1838960D01*
X941031Y-1838960D02*
X931507Y-1829436D01*
X931507Y-1829436D02*
X921983Y-1810388D01*
X921983Y-1810388D02*
X912460Y-1772293D01*
X912460Y-1772293D02*
X912460Y-1724674D01*
X912460Y-1724674D02*
X921983Y-1686579D01*
X921983Y-1686579D02*
X931507Y-1667531D01*
X931507Y-1667531D02*
X941031Y-1658008D01*
X941031Y-1658008D02*
X960079Y-1648484D01*
X1112460Y-1848484D02*
X1112460Y-1715150D01*
X1112460Y-1734198D02*
X1121983Y-1724674D01*
X1121983Y-1724674D02*
X1141031Y-1715150D01*
X1141031Y-1715150D02*
X1169603Y-1715150D01*
X1169603Y-1715150D02*
X1188650Y-1724674D01*
X1188650Y-1724674D02*
X1198174Y-1743722D01*
X1198174Y-1743722D02*
X1198174Y-1848484D01*
X1198174Y-1743722D02*
X1207698Y-1724674D01*
X1207698Y-1724674D02*
X1226745Y-1715150D01*
X1226745Y-1715150D02*
X1255317Y-1715150D01*
X1255317Y-1715150D02*
X1274364Y-1724674D01*
X1274364Y-1724674D02*
X1283888Y-1743722D01*
X1283888Y-1743722D02*
X1283888Y-1848484D01*
X1379126Y-1848484D02*
X1379126Y-1715150D01*
X1379126Y-1734198D02*
X1388650Y-1724674D01*
X1388650Y-1724674D02*
X1407698Y-1715150D01*
X1407698Y-1715150D02*
X1436269Y-1715150D01*
X1436269Y-1715150D02*
X1455317Y-1724674D01*
X1455317Y-1724674D02*
X1464841Y-1743722D01*
X1464841Y-1743722D02*
X1464841Y-1848484D01*
X1464841Y-1743722D02*
X1474364Y-1724674D01*
X1474364Y-1724674D02*
X1493412Y-1715150D01*
X1493412Y-1715150D02*
X1521983Y-1715150D01*
X1521983Y-1715150D02*
X1541031Y-1724674D01*
X1541031Y-1724674D02*
X1550555Y-1743722D01*
X1550555Y-1743722D02*
X1550555Y-1848484D01*
X1941031Y-1638960D02*
X1769603Y-1896103D01*
X2198174Y-1648484D02*
X2217222Y-1648484D01*
X2217222Y-1648484D02*
X2236269Y-1658008D01*
X2236269Y-1658008D02*
X2245793Y-1667531D01*
X2245793Y-1667531D02*
X2255317Y-1686579D01*
X2255317Y-1686579D02*
X2264841Y-1724674D01*
X2264841Y-1724674D02*
X2264841Y-1772293D01*
X2264841Y-1772293D02*
X2255317Y-1810388D01*
X2255317Y-1810388D02*
X2245793Y-1829436D01*
X2245793Y-1829436D02*
X2236269Y-1838960D01*
X2236269Y-1838960D02*
X2217222Y-1848484D01*
X2217222Y-1848484D02*
X2198174Y-1848484D01*
X2198174Y-1848484D02*
X2179126Y-1838960D01*
X2179126Y-1838960D02*
X2169603Y-1829436D01*
X2169603Y-1829436D02*
X2160079Y-1810388D01*
X2160079Y-1810388D02*
X2150555Y-1772293D01*
X2150555Y-1772293D02*
X2150555Y-1724674D01*
X2150555Y-1724674D02*
X2160079Y-1686579D01*
X2160079Y-1686579D02*
X2169603Y-1667531D01*
X2169603Y-1667531D02*
X2179126Y-1658008D01*
X2179126Y-1658008D02*
X2198174Y-1648484D01*
X2350555Y-1829436D02*
X2360079Y-1838960D01*
X2360079Y-1838960D02*
X2350555Y-1848484D01*
X2350555Y-1848484D02*
X2341031Y-1838960D01*
X2341031Y-1838960D02*
X2350555Y-1829436D01*
X2350555Y-1829436D02*
X2350555Y-1848484D01*
X2550555Y-1848484D02*
X2436269Y-1848484D01*
X2493412Y-1848484D02*
X2493412Y-1648484D01*
X2493412Y-1648484D02*
X2474365Y-1677055D01*
X2474365Y-1677055D02*
X2455317Y-1696103D01*
X2455317Y-1696103D02*
X2436269Y-1705627D01*
X2626746Y-1667531D02*
X2636269Y-1658008D01*
X2636269Y-1658008D02*
X2655317Y-1648484D01*
X2655317Y-1648484D02*
X2702936Y-1648484D01*
X2702936Y-1648484D02*
X2721984Y-1658008D01*
X2721984Y-1658008D02*
X2731507Y-1667531D01*
X2731507Y-1667531D02*
X2741031Y-1686579D01*
X2741031Y-1686579D02*
X2741031Y-1705627D01*
X2741031Y-1705627D02*
X2731507Y-1734198D01*
X2731507Y-1734198D02*
X2617222Y-1848484D01*
X2617222Y-1848484D02*
X2741031Y-1848484D01*
X2912460Y-1648484D02*
X2874364Y-1648484D01*
X2874364Y-1648484D02*
X2855317Y-1658008D01*
X2855317Y-1658008D02*
X2845793Y-1667531D01*
X2845793Y-1667531D02*
X2826745Y-1696103D01*
X2826745Y-1696103D02*
X2817222Y-1734198D01*
X2817222Y-1734198D02*
X2817222Y-1810388D01*
X2817222Y-1810388D02*
X2826745Y-1829436D01*
X2826745Y-1829436D02*
X2836269Y-1838960D01*
X2836269Y-1838960D02*
X2855317Y-1848484D01*
X2855317Y-1848484D02*
X2893412Y-1848484D01*
X2893412Y-1848484D02*
X2912460Y-1838960D01*
X2912460Y-1838960D02*
X2921984Y-1829436D01*
X2921984Y-1829436D02*
X2931507Y-1810388D01*
X2931507Y-1810388D02*
X2931507Y-1762769D01*
X2931507Y-1762769D02*
X2921984Y-1743722D01*
X2921984Y-1743722D02*
X2912460Y-1734198D01*
X2912460Y-1734198D02*
X2893412Y-1724674D01*
X2893412Y-1724674D02*
X2855317Y-1724674D01*
X2855317Y-1724674D02*
X2836269Y-1734198D01*
X2836269Y-1734198D02*
X2826745Y-1743722D01*
X2826745Y-1743722D02*
X2817222Y-1762769D01*
X3055317Y-1648484D02*
X3074365Y-1648484D01*
X3074365Y-1648484D02*
X3093412Y-1658008D01*
X3093412Y-1658008D02*
X3102936Y-1667531D01*
X3102936Y-1667531D02*
X3112460Y-1686579D01*
X3112460Y-1686579D02*
X3121984Y-1724674D01*
X3121984Y-1724674D02*
X3121984Y-1772293D01*
X3121984Y-1772293D02*
X3112460Y-1810388D01*
X3112460Y-1810388D02*
X3102936Y-1829436D01*
X3102936Y-1829436D02*
X3093412Y-1838960D01*
X3093412Y-1838960D02*
X3074365Y-1848484D01*
X3074365Y-1848484D02*
X3055317Y-1848484D01*
X3055317Y-1848484D02*
X3036269Y-1838960D01*
X3036269Y-1838960D02*
X3026745Y-1829436D01*
X3026745Y-1829436D02*
X3017222Y-1810388D01*
X3017222Y-1810388D02*
X3007698Y-1772293D01*
X3007698Y-1772293D02*
X3007698Y-1724674D01*
X3007698Y-1724674D02*
X3017222Y-1686579D01*
X3017222Y-1686579D02*
X3026745Y-1667531D01*
X3026745Y-1667531D02*
X3036269Y-1658008D01*
X3036269Y-1658008D02*
X3055317Y-1648484D01*
X3198174Y-1648484D02*
X3198174Y-1686579D01*
X3274365Y-1648484D02*
X3274365Y-1686579D01*
X3569603Y-1924674D02*
X3560079Y-1915150D01*
X3560079Y-1915150D02*
X3541031Y-1886579D01*
X3541031Y-1886579D02*
X3531507Y-1867531D01*
X3531507Y-1867531D02*
X3521984Y-1838960D01*
X3521984Y-1838960D02*
X3512460Y-1791341D01*
X3512460Y-1791341D02*
X3512460Y-1753246D01*
X3512460Y-1753246D02*
X3521984Y-1705627D01*
X3521984Y-1705627D02*
X3531507Y-1677055D01*
X3531507Y-1677055D02*
X3541031Y-1658008D01*
X3541031Y-1658008D02*
X3560079Y-1629436D01*
X3560079Y-1629436D02*
X3569603Y-1619912D01*
X3731507Y-1715150D02*
X3731507Y-1848484D01*
X3683888Y-1638960D02*
X3636269Y-1781817D01*
X3636269Y-1781817D02*
X3760079Y-1781817D01*
X3988650Y-1848484D02*
X3988650Y-1648484D01*
X4074365Y-1848484D02*
X4074365Y-1743722D01*
X4074365Y-1743722D02*
X4064841Y-1724674D01*
X4064841Y-1724674D02*
X4045793Y-1715150D01*
X4045793Y-1715150D02*
X4017222Y-1715150D01*
X4017222Y-1715150D02*
X3998174Y-1724674D01*
X3998174Y-1724674D02*
X3988650Y-1734198D01*
X4198174Y-1848484D02*
X4179127Y-1838960D01*
X4179127Y-1838960D02*
X4169603Y-1829436D01*
X4169603Y-1829436D02*
X4160079Y-1810388D01*
X4160079Y-1810388D02*
X4160079Y-1753246D01*
X4160079Y-1753246D02*
X4169603Y-1734198D01*
X4169603Y-1734198D02*
X4179127Y-1724674D01*
X4179127Y-1724674D02*
X4198174Y-1715150D01*
X4198174Y-1715150D02*
X4226746Y-1715150D01*
X4226746Y-1715150D02*
X4245793Y-1724674D01*
X4245793Y-1724674D02*
X4255317Y-1734198D01*
X4255317Y-1734198D02*
X4264841Y-1753246D01*
X4264841Y-1753246D02*
X4264841Y-1810388D01*
X4264841Y-1810388D02*
X4255317Y-1829436D01*
X4255317Y-1829436D02*
X4245793Y-1838960D01*
X4245793Y-1838960D02*
X4226746Y-1848484D01*
X4226746Y-1848484D02*
X4198174Y-1848484D01*
X4379127Y-1848484D02*
X4360079Y-1838960D01*
X4360079Y-1838960D02*
X4350555Y-1819912D01*
X4350555Y-1819912D02*
X4350555Y-1648484D01*
X4531508Y-1838960D02*
X4512460Y-1848484D01*
X4512460Y-1848484D02*
X4474365Y-1848484D01*
X4474365Y-1848484D02*
X4455317Y-1838960D01*
X4455317Y-1838960D02*
X4445793Y-1819912D01*
X4445793Y-1819912D02*
X4445793Y-1743722D01*
X4445793Y-1743722D02*
X4455317Y-1724674D01*
X4455317Y-1724674D02*
X4474365Y-1715150D01*
X4474365Y-1715150D02*
X4512460Y-1715150D01*
X4512460Y-1715150D02*
X4531508Y-1724674D01*
X4531508Y-1724674D02*
X4541031Y-1743722D01*
X4541031Y-1743722D02*
X4541031Y-1762769D01*
X4541031Y-1762769D02*
X4445793Y-1781817D01*
X4617222Y-1838960D02*
X4636270Y-1848484D01*
X4636270Y-1848484D02*
X4674365Y-1848484D01*
X4674365Y-1848484D02*
X4693412Y-1838960D01*
X4693412Y-1838960D02*
X4702936Y-1819912D01*
X4702936Y-1819912D02*
X4702936Y-1810388D01*
X4702936Y-1810388D02*
X4693412Y-1791341D01*
X4693412Y-1791341D02*
X4674365Y-1781817D01*
X4674365Y-1781817D02*
X4645793Y-1781817D01*
X4645793Y-1781817D02*
X4626746Y-1772293D01*
X4626746Y-1772293D02*
X4617222Y-1753246D01*
X4617222Y-1753246D02*
X4617222Y-1743722D01*
X4617222Y-1743722D02*
X4626746Y-1724674D01*
X4626746Y-1724674D02*
X4645793Y-1715150D01*
X4645793Y-1715150D02*
X4674365Y-1715150D01*
X4674365Y-1715150D02*
X4693412Y-1724674D01*
X4769603Y-1924674D02*
X4779127Y-1915150D01*
X4779127Y-1915150D02*
X4798174Y-1886579D01*
X4798174Y-1886579D02*
X4807698Y-1867531D01*
X4807698Y-1867531D02*
X4817222Y-1838960D01*
X4817222Y-1838960D02*
X4826746Y-1791341D01*
X4826746Y-1791341D02*
X4826746Y-1753246D01*
X4826746Y-1753246D02*
X4817222Y-1705627D01*
X4817222Y-1705627D02*
X4807698Y-1677055D01*
X4807698Y-1677055D02*
X4798174Y-1658008D01*
X4798174Y-1658008D02*
X4779127Y-1629436D01*
X4779127Y-1629436D02*
X4769603Y-1619912D01*
M02*
