%TF.GenerationSoftware,KiCad,Pcbnew,8.0.3*%
%TF.CreationDate,2024-07-01T01:23:48-06:00*%
%TF.ProjectId,dc32,64633332-2e6b-4696-9361-645f70636258,1.0*%
%TF.SameCoordinates,PX7bb10a0PY836a940*%
%TF.FileFunction,Copper,L1,Top*%
%TF.FilePolarity,Positive*%
%FSLAX46Y46*%
G04 Gerber Fmt 4.6, Leading zero omitted, Abs format (unit mm)*
G04 Created by KiCad (PCBNEW 8.0.3) date 2024-07-01 01:23:48*
%MOMM*%
%LPD*%
G01*
G04 APERTURE LIST*
G04 Aperture macros list*
%AMRoundRect*
0 Rectangle with rounded corners*
0 $1 Rounding radius*
0 $2 $3 $4 $5 $6 $7 $8 $9 X,Y pos of 4 corners*
0 Add a 4 corners polygon primitive as box body*
4,1,4,$2,$3,$4,$5,$6,$7,$8,$9,$2,$3,0*
0 Add four circle primitives for the rounded corners*
1,1,$1+$1,$2,$3*
1,1,$1+$1,$4,$5*
1,1,$1+$1,$6,$7*
1,1,$1+$1,$8,$9*
0 Add four rect primitives between the rounded corners*
20,1,$1+$1,$2,$3,$4,$5,0*
20,1,$1+$1,$4,$5,$6,$7,0*
20,1,$1+$1,$6,$7,$8,$9,0*
20,1,$1+$1,$8,$9,$2,$3,0*%
%AMFreePoly0*
4,1,9,0.275000,-0.800000,-0.275000,-0.800000,-0.275000,-0.400000,-0.725000,-0.400000,-0.725000,0.150000,-0.275000,0.150000,-0.275000,0.800000,0.275000,0.800000,0.275000,-0.800000,0.275000,-0.800000,$1*%
%AMFreePoly1*
4,1,9,0.275000,0.150000,0.725000,0.150000,0.725000,-0.400000,0.275000,-0.400000,0.275000,-0.800000,-0.275000,-0.800000,-0.275000,0.800000,0.275000,0.800000,0.275000,0.150000,0.275000,0.150000,$1*%
%AMFreePoly2*
4,1,369,0.672119,0.783999,0.672365,0.783987,0.713365,0.780987,0.713742,0.780945,0.753742,0.774945,0.753862,0.774925,0.793862,0.767925,0.794213,0.767851,0.834213,0.757851,0.834357,0.757812,0.873357,0.746812,0.873729,0.746692,0.911729,0.732692,0.911836,0.732651,0.949836,0.717651,0.950187,0.717496,0.987187,0.699496,0.987334,0.699422,1.023334,0.680422,1.023716,0.680198,
1.057716,0.658198,1.057802,0.658141,1.091802,0.635141,1.092078,0.634940,1.124078,0.609940,1.124213,0.609831,1.155213,0.583831,1.155412,0.583655,1.185412,0.555655,1.185655,0.555412,1.213655,0.525412,1.213831,0.525213,1.239831,0.494213,1.239940,0.494078,1.264940,0.462078,1.265141,0.461802,1.288141,0.427802,1.288198,0.427716,1.310198,0.393716,1.310422,0.393334,
1.329422,0.357334,1.329496,0.357187,1.347496,0.320187,1.347651,0.319836,1.362651,0.281836,1.362692,0.281729,1.376692,0.243729,1.376812,0.243357,1.387812,0.204357,1.387851,0.204213,1.397851,0.164213,1.397925,0.163862,1.404925,0.123862,1.404945,0.123742,1.410945,0.083742,1.410987,0.083365,1.413987,0.042365,1.413998,0.042128,1.414998,0.003128,1.415000,0.003000,
1.415000,0.002500,1.413861,-0.000250,1.415000,-0.003000,1.414998,-0.003128,1.413998,-0.042128,1.413987,-0.042365,1.410987,-0.083365,1.410945,-0.083742,1.404945,-0.123742,1.404925,-0.123862,1.397925,-0.163862,1.397851,-0.164213,1.387851,-0.204213,1.387812,-0.204357,1.376812,-0.243357,1.376692,-0.243729,1.362692,-0.281729,1.362651,-0.281836,1.347651,-0.319836,1.347496,-0.320187,
1.329496,-0.357187,1.329422,-0.357334,1.310422,-0.393334,1.310198,-0.393716,1.288198,-0.427716,1.288141,-0.427802,1.265141,-0.461802,1.264940,-0.462078,1.239940,-0.494078,1.239831,-0.494213,1.213831,-0.525213,1.213655,-0.525412,1.185655,-0.555412,1.185412,-0.555655,1.155412,-0.583655,1.155213,-0.583831,1.124213,-0.609831,1.124078,-0.609940,1.092078,-0.634940,1.091802,-0.635141,
1.057802,-0.658141,1.057716,-0.658198,1.023716,-0.680198,1.023334,-0.680422,0.987334,-0.699422,0.987187,-0.699496,0.950187,-0.717496,0.949836,-0.717651,0.911836,-0.732651,0.911729,-0.732692,0.873729,-0.746692,0.873357,-0.746812,0.834357,-0.757812,0.834213,-0.757851,0.794213,-0.767851,0.793862,-0.767925,0.753862,-0.774925,0.753742,-0.774945,0.713742,-0.780945,0.713365,-0.780987,
0.672365,-0.783987,0.672119,-0.783999,0.630119,-0.784999,0.629878,-0.784999,0.588878,-0.783999,0.588635,-0.783987,0.547635,-0.780987,0.547258,-0.780945,0.507258,-0.774945,0.507138,-0.774925,0.467138,-0.767925,0.466787,-0.767851,0.426787,-0.757851,0.426643,-0.757812,0.387643,-0.746812,0.387311,-0.746706,0.348311,-0.732706,0.348121,-0.732634,0.311121,-0.717634,0.310813,-0.717496,
0.273813,-0.699496,0.273572,-0.699371,0.237572,-0.679371,0.237428,-0.679287,0.202428,-0.658287,0.202141,-0.658102,0.169141,-0.635102,0.168981,-0.634985,0.135981,-0.609985,0.135787,-0.609831,0.104787,-0.583831,0.104588,-0.583655,0.074588,-0.555655,0.074345,-0.555412,0.046345,-0.525412,0.046169,-0.525213,0.020169,-0.494213,0.020015,-0.494019,-0.004985,-0.461019,-0.005102,-0.460859,
-0.028102,-0.427859,-0.028287,-0.427572,-0.049287,-0.392572,-0.049371,-0.392428,-0.069371,-0.356428,-0.069496,-0.356187,-0.087496,-0.319187,-0.087634,-0.318879,-0.102634,-0.281879,-0.102706,-0.281689,-0.116706,-0.242689,-0.116812,-0.242357,-0.127812,-0.203357,-0.127851,-0.203213,-0.137851,-0.163213,-0.137925,-0.162862,-0.144925,-0.122862,-0.144945,-0.122742,-0.150945,-0.082742,-0.150987,-0.082365,
-0.153987,-0.041365,-0.153999,-0.041122,-0.154999,-0.000122,-0.154999,0.000000,0.155004,0.000000,0.155992,-0.024702,0.157976,-0.049510,0.160951,-0.074303,0.164901,-0.098990,0.170829,-0.122702,0.177745,-0.146414,0.186682,-0.170244,0.195587,-0.193003,0.206459,-0.215734,0.218319,-0.237479,0.231161,-0.258224,0.246039,-0.279052,0.260909,-0.298879,0.276686,-0.317614,0.312385,-0.353313,
0.331120,-0.369090,0.350948,-0.383961,0.371776,-0.398838,0.392520,-0.411680,0.414265,-0.423540,0.436997,-0.434412,0.459756,-0.443318,0.483586,-0.452254,0.507298,-0.459170,0.531009,-0.465098,0.555697,-0.469048,0.580490,-0.472023,0.605298,-0.474007,0.630007,-0.474996,0.655698,-0.474008,0.680510,-0.472023,0.705303,-0.469048,0.729990,-0.465098,0.753702,-0.459170,0.777414,-0.452254,
0.801244,-0.443318,0.824003,-0.434412,0.846734,-0.423540,0.868479,-0.411680,0.889291,-0.398796,0.910052,-0.384956,0.929793,-0.369163,0.948679,-0.353259,0.966463,-0.336463,0.983259,-0.318679,0.999163,-0.299793,1.014956,-0.280052,1.028796,-0.259291,1.041680,-0.238479,1.053540,-0.216734,1.064412,-0.194003,1.073318,-0.171244,1.082254,-0.147414,1.089170,-0.123702,1.095098,-0.099990,
1.099048,-0.075303,1.102023,-0.050510,1.104009,-0.025685,1.105005,-0.002783,1.106262,-0.000082,1.105005,0.002783,1.104009,0.025685,1.102023,0.050510,1.099048,0.075303,1.095098,0.099990,1.089170,0.123702,1.082254,0.147414,1.073318,0.171244,1.064412,0.194003,1.053540,0.216734,1.041680,0.238479,1.028796,0.259291,1.014956,0.280052,0.999163,0.299793,0.983259,0.318679,
0.966463,0.336463,0.948679,0.353259,0.929793,0.369163,0.910052,0.384956,0.889291,0.398796,0.868479,0.411680,0.846734,0.423540,0.824003,0.434412,0.801244,0.443318,0.777414,0.452254,0.753702,0.459170,0.729990,0.465098,0.705303,0.469048,0.680510,0.472023,0.655698,0.474008,0.630007,0.474996,0.605298,0.474007,0.580490,0.472023,0.555697,0.469048,0.531009,0.465098,
0.507298,0.459170,0.483586,0.452254,0.459756,0.443318,0.436997,0.434412,0.414265,0.423540,0.392520,0.411680,0.371779,0.398840,0.350948,0.383961,0.331120,0.369090,0.312385,0.353313,0.276686,0.317614,0.260909,0.298879,0.246039,0.279052,0.231161,0.258224,0.218319,0.237479,0.206459,0.215734,0.195587,0.193003,0.186681,0.170244,0.186682,0.170244,0.177745,0.146414,
0.170829,0.122702,0.164901,0.098990,0.160951,0.074303,0.157976,0.049510,0.155992,0.024702,0.155004,0.000000,-0.154999,0.000000,-0.154999,0.000122,-0.153999,0.041122,-0.153987,0.041365,-0.150987,0.082365,-0.150945,0.082742,-0.144945,0.122742,-0.144925,0.122862,-0.137925,0.162862,-0.137851,0.163213,-0.127851,0.203213,-0.127812,0.203357,-0.116812,0.242357,-0.116706,0.242689,
-0.102706,0.281689,-0.102634,0.281879,-0.087634,0.318879,-0.087496,0.319187,-0.069496,0.356187,-0.069371,0.356428,-0.049371,0.392428,-0.049287,0.392572,-0.028287,0.427572,-0.028102,0.427859,-0.005102,0.460859,-0.004985,0.461019,0.020015,0.494019,0.020169,0.494213,0.046169,0.525213,0.046345,0.525412,0.074345,0.555412,0.074588,0.555655,0.104588,0.583655,0.104787,0.583831,
0.135787,0.609831,0.135981,0.609985,0.168981,0.634985,0.169141,0.635102,0.202141,0.658102,0.202428,0.658287,0.237428,0.679287,0.237572,0.679371,0.273572,0.699371,0.273813,0.699496,0.310813,0.717496,0.311121,0.717634,0.348121,0.732634,0.348311,0.732706,0.387311,0.746706,0.387643,0.746812,0.426643,0.757812,0.426787,0.757851,0.466787,0.767851,0.467138,0.767925,
0.507138,0.774925,0.507258,0.774945,0.547258,0.780945,0.547635,0.780987,0.588635,0.783987,0.588878,0.783999,0.629878,0.784999,0.630119,0.784999,0.672119,0.783999,0.672119,0.783999,$1*%
G04 Aperture macros list end*
%TA.AperFunction,SMDPad,CuDef*%
%ADD10R,3.500000X1.700000*%
%TD*%
%TA.AperFunction,SMDPad,CuDef*%
%ADD11R,1.700000X3.500000*%
%TD*%
%TA.AperFunction,SMDPad,CuDef*%
%ADD12C,1.000000*%
%TD*%
%TA.AperFunction,SMDPad,CuDef*%
%ADD13FreePoly0,90.000000*%
%TD*%
%TA.AperFunction,SMDPad,CuDef*%
%ADD14R,1.600000X0.700000*%
%TD*%
%TA.AperFunction,SMDPad,CuDef*%
%ADD15R,1.600000X0.450000*%
%TD*%
%TA.AperFunction,SMDPad,CuDef*%
%ADD16FreePoly1,90.000000*%
%TD*%
%TA.AperFunction,SMDPad,CuDef*%
%ADD17RoundRect,0.225000X-0.225000X-0.250000X0.225000X-0.250000X0.225000X0.250000X-0.225000X0.250000X0*%
%TD*%
%TA.AperFunction,WasherPad*%
%ADD18C,1.200000*%
%TD*%
%TA.AperFunction,SMDPad,CuDef*%
%ADD19R,0.700000X1.600000*%
%TD*%
%TA.AperFunction,SMDPad,CuDef*%
%ADD20R,1.200000X1.400000*%
%TD*%
%TA.AperFunction,SMDPad,CuDef*%
%ADD21R,1.200000X2.200000*%
%TD*%
%TA.AperFunction,SMDPad,CuDef*%
%ADD22R,1.600000X1.400000*%
%TD*%
%TA.AperFunction,SMDPad,CuDef*%
%ADD23R,1.500000X1.500000*%
%TD*%
%TA.AperFunction,SMDPad,CuDef*%
%ADD24RoundRect,0.150000X0.150000X0.200000X-0.150000X0.200000X-0.150000X-0.200000X0.150000X-0.200000X0*%
%TD*%
%TA.AperFunction,SMDPad,CuDef*%
%ADD25RoundRect,0.250000X0.250000X0.475000X-0.250000X0.475000X-0.250000X-0.475000X0.250000X-0.475000X0*%
%TD*%
%TA.AperFunction,SMDPad,CuDef*%
%ADD26FreePoly0,0.000000*%
%TD*%
%TA.AperFunction,SMDPad,CuDef*%
%ADD27R,0.450000X1.600000*%
%TD*%
%TA.AperFunction,SMDPad,CuDef*%
%ADD28FreePoly1,0.000000*%
%TD*%
%TA.AperFunction,SMDPad,CuDef*%
%ADD29R,0.300000X1.300000*%
%TD*%
%TA.AperFunction,SMDPad,CuDef*%
%ADD30R,1.800000X2.200000*%
%TD*%
%TA.AperFunction,SMDPad,CuDef*%
%ADD31RoundRect,0.200000X-0.275000X0.200000X-0.275000X-0.200000X0.275000X-0.200000X0.275000X0.200000X0*%
%TD*%
%TA.AperFunction,SMDPad,CuDef*%
%ADD32FreePoly0,270.000000*%
%TD*%
%TA.AperFunction,SMDPad,CuDef*%
%ADD33FreePoly1,270.000000*%
%TD*%
%TA.AperFunction,SMDPad,CuDef*%
%ADD34R,1.250000X2.500000*%
%TD*%
%TA.AperFunction,ComponentPad*%
%ADD35O,3.200000X3.500000*%
%TD*%
%TA.AperFunction,ComponentPad*%
%ADD36C,1.800000*%
%TD*%
%TA.AperFunction,SMDPad,CuDef*%
%ADD37RoundRect,0.200000X-0.200000X-0.275000X0.200000X-0.275000X0.200000X0.275000X-0.200000X0.275000X0*%
%TD*%
%TA.AperFunction,SMDPad,CuDef*%
%ADD38RoundRect,0.250000X-0.850000X0.375000X-0.850000X-0.375000X0.850000X-0.375000X0.850000X0.375000X0*%
%TD*%
%TA.AperFunction,SMDPad,CuDef*%
%ADD39R,0.400000X0.600000*%
%TD*%
%TA.AperFunction,SMDPad,CuDef*%
%ADD40FreePoly2,0.000000*%
%TD*%
%TA.AperFunction,SMDPad,CuDef*%
%ADD41RoundRect,0.200000X0.200000X0.275000X-0.200000X0.275000X-0.200000X-0.275000X0.200000X-0.275000X0*%
%TD*%
%TA.AperFunction,SMDPad,CuDef*%
%ADD42RoundRect,0.150000X-0.512500X-0.150000X0.512500X-0.150000X0.512500X0.150000X-0.512500X0.150000X0*%
%TD*%
%TA.AperFunction,SMDPad,CuDef*%
%ADD43RoundRect,0.062500X-0.350000X-0.062500X0.350000X-0.062500X0.350000X0.062500X-0.350000X0.062500X0*%
%TD*%
%TA.AperFunction,SMDPad,CuDef*%
%ADD44RoundRect,0.062500X-0.062500X-0.350000X0.062500X-0.350000X0.062500X0.350000X-0.062500X0.350000X0*%
%TD*%
%TA.AperFunction,HeatsinkPad*%
%ADD45R,1.230000X1.230000*%
%TD*%
%TA.AperFunction,SMDPad,CuDef*%
%ADD46RoundRect,0.225000X0.250000X-0.225000X0.250000X0.225000X-0.250000X0.225000X-0.250000X-0.225000X0*%
%TD*%
%TA.AperFunction,ComponentPad*%
%ADD47C,0.800000*%
%TD*%
%TA.AperFunction,ComponentPad*%
%ADD48C,6.400000*%
%TD*%
%TA.AperFunction,ViaPad*%
%ADD49C,0.800000*%
%TD*%
%TA.AperFunction,Conductor*%
%ADD50C,0.304800*%
%TD*%
%TA.AperFunction,Conductor*%
%ADD51C,0.203200*%
%TD*%
%TA.AperFunction,Conductor*%
%ADD52C,0.254000*%
%TD*%
%TA.AperFunction,Conductor*%
%ADD53C,0.525000*%
%TD*%
%TA.AperFunction,Conductor*%
%ADD54C,0.381000*%
%TD*%
G04 APERTURE END LIST*
D10*
%TO.P,U3,1,GPIO0*%
%TO.N,I2S_BCLK*%
X40120000Y98160000D03*
%TO.P,U3,2,GPIO1*%
%TO.N,I2S_LRCLK*%
X40120000Y95620000D03*
%TO.P,U3,3,GND*%
%TO.N,GND*%
X40120000Y93080000D03*
%TO.P,U3,4,GPIO2*%
%TO.N,I2S_DIN*%
X40120000Y90540000D03*
%TO.P,U3,5,GPIO3*%
%TO.N,I2S_DOUT*%
X40120000Y88000000D03*
%TO.P,U3,6,GPIO4*%
%TO.N,SPI0_MISO*%
X40120000Y85460000D03*
%TO.P,U3,7,GPIO5*%
%TO.N,SD_CS*%
X40120000Y82920000D03*
%TO.P,U3,8,GND*%
%TO.N,GND*%
X40120000Y80380000D03*
%TO.P,U3,9,GPIO6*%
%TO.N,SPI0_SCK*%
X40120000Y77840000D03*
%TO.P,U3,10,GPIO7*%
%TO.N,SPI0_MOSI*%
X40120000Y75300000D03*
%TO.P,U3,11,GPIO8*%
%TO.N,LCD_DC*%
X40120000Y72760000D03*
%TO.P,U3,12,GPIO9*%
%TO.N,LCD_RESET*%
X40120000Y70220000D03*
%TO.P,U3,13,GND*%
%TO.N,GND*%
X40120000Y67680000D03*
%TO.P,U3,14,GPIO10*%
%TO.N,SPI1_SCK*%
X40120000Y65140000D03*
%TO.P,U3,15,GPIO11*%
%TO.N,SPI1_MOSI*%
X40120000Y62600000D03*
%TO.P,U3,16,GPIO12*%
%TO.N,SPI1_MISO*%
X40120000Y60060000D03*
%TO.P,U3,17,GPIO13*%
%TO.N,LCD_CS*%
X40120000Y57520000D03*
%TO.P,U3,18,GND*%
%TO.N,GND*%
X40120000Y54980000D03*
%TO.P,U3,19,GPIO14*%
%TO.N,RGB*%
X40120000Y52440000D03*
%TO.P,U3,20,GPIO15*%
%TO.N,unconnected-(U3-GPIO15-Pad20)*%
X40120000Y49900000D03*
%TO.P,U3,21,GPIO16*%
%TO.N,ENC1_A*%
X59700000Y49900000D03*
%TO.P,U3,22,GPIO17*%
%TO.N,ENC1_B*%
X59700000Y52440000D03*
%TO.P,U3,23,GND*%
%TO.N,GND*%
X59700000Y54980000D03*
%TO.P,U3,24,GPIO18*%
%TO.N,unconnected-(U3-GPIO18-Pad24)*%
X59700000Y57520000D03*
%TO.P,U3,25,GPIO19*%
%TO.N,ENC1_SW*%
X59700000Y60060000D03*
%TO.P,U3,26,GPIO20*%
%TO.N,unconnected-(U3-GPIO20-Pad26)*%
X59700000Y62600000D03*
%TO.P,U3,27,GPIO21*%
%TO.N,unconnected-(U3-GPIO21-Pad27)*%
X59700000Y65140000D03*
%TO.P,U3,28,GND*%
%TO.N,GND*%
X59700000Y67680000D03*
%TO.P,U3,29,GPIO22*%
%TO.N,unconnected-(U3-GPIO22-Pad29)*%
X59700000Y70220000D03*
%TO.P,U3,30,RUN*%
%TO.N,unconnected-(U3-RUN-Pad30)*%
X59700000Y72760000D03*
%TO.P,U3,31,GPIO26_ADC0*%
%TO.N,unconnected-(U3-GPIO26_ADC0-Pad31)*%
X59700000Y75300000D03*
%TO.P,U3,32,GPIO27_ADC1*%
%TO.N,unconnected-(U3-GPIO27_ADC1-Pad32)*%
X59700000Y77840000D03*
%TO.P,U3,33,AGND*%
%TO.N,GND*%
X59700000Y80380000D03*
%TO.P,U3,34,GPIO28_ADC2*%
%TO.N,unconnected-(U3-GPIO28_ADC2-Pad34)*%
X59700000Y82920000D03*
%TO.P,U3,35,ADC_VREF*%
%TO.N,unconnected-(U3-ADC_VREF-Pad35)*%
X59700000Y85460000D03*
%TO.P,U3,36,3V3*%
%TO.N,+3V3*%
X59700000Y88000000D03*
%TO.P,U3,37,3V3_EN*%
%TO.N,unconnected-(U3-3V3_EN-Pad37)*%
X59700000Y90540000D03*
%TO.P,U3,38,GND*%
%TO.N,GND*%
X59700000Y93080000D03*
%TO.P,U3,39,VSYS*%
%TO.N,VCC*%
X59700000Y95620000D03*
%TO.P,U3,40,VBUS*%
%TO.N,unconnected-(U3-VBUS-Pad40)*%
X59700000Y98160000D03*
D11*
%TO.P,U3,41,SWCLK*%
%TO.N,unconnected-(U3-SWCLK-Pad41)*%
X47370000Y49230000D03*
%TO.P,U3,42,GND*%
%TO.N,unconnected-(U3-GND-Pad42)*%
X49910000Y49230000D03*
%TO.P,U3,43,SWDIO*%
%TO.N,unconnected-(U3-SWDIO-Pad43)*%
X52450000Y49230000D03*
%TD*%
D12*
%TO.P,FID3,*%
%TO.N,*%
X9800000Y9100000D03*
%TD*%
D13*
%TO.P,D15,1,DIN*%
%TO.N,Net-(D14-DOUT)*%
X97100000Y41375000D03*
D14*
%TO.P,D15,2,VDD*%
%TO.N,+3V3*%
X97100000Y42500000D03*
D15*
%TO.P,D15,3,DOUT*%
%TO.N,Net-(D15-DOUT)*%
X97100000Y43525000D03*
D16*
%TO.P,D15,4,VSS*%
%TO.N,GND*%
X97100000Y44525000D03*
%TD*%
D17*
%TO.P,C5,1*%
%TO.N,GND*%
X15800000Y60540000D03*
%TO.P,C5,2*%
%TO.N,+3V3*%
X17350000Y60540000D03*
%TD*%
D18*
%TO.P,J1,*%
%TO.N,*%
X28030000Y93600000D03*
X20050000Y93600000D03*
D19*
%TO.P,J1,1,NC*%
%TO.N,unconnected-(J1-NC-Pad1)*%
X20900000Y83100000D03*
%TO.P,J1,2,/CS*%
%TO.N,SD_CS*%
X22000000Y83100000D03*
%TO.P,J1,3,DI*%
%TO.N,SPI0_MOSI*%
X23100000Y83100000D03*
%TO.P,J1,4,VDD*%
%TO.N,+3V3*%
X24200000Y83100000D03*
%TO.P,J1,5,CLK*%
%TO.N,SPI0_SCK*%
X25300000Y83100000D03*
%TO.P,J1,6,VSS*%
%TO.N,GND*%
X26400000Y83100000D03*
%TO.P,J1,7,DO*%
%TO.N,SPI0_MISO*%
X27500000Y83100000D03*
%TO.P,J1,8,RSV*%
%TO.N,unconnected-(J1-RSV-Pad8)*%
X28600000Y83100000D03*
%TO.P,J1,9,Cd*%
%TO.N,unconnected-(J1-Cd-Pad9)*%
X29700000Y83100000D03*
D20*
%TO.P,J1,10,SHIELD*%
%TO.N,GND*%
X30850000Y83600000D03*
D21*
X30850000Y93200000D03*
D22*
X16250000Y83600000D03*
D21*
X15350000Y93200000D03*
%TD*%
D23*
%TO.P,TP3,1,1*%
%TO.N,Net-(U4-GAIN_SLOT)*%
X77912500Y75312500D03*
%TD*%
D13*
%TO.P,D17,1,DIN*%
%TO.N,Net-(D16-DOUT)*%
X97100000Y68655000D03*
D14*
%TO.P,D17,2,VDD*%
%TO.N,+3V3*%
X97100000Y69780000D03*
D15*
%TO.P,D17,3,DOUT*%
%TO.N,Net-(D17-DOUT)*%
X97100000Y70805000D03*
D16*
%TO.P,D17,4,VSS*%
%TO.N,GND*%
X97100000Y71805000D03*
%TD*%
D24*
%TO.P,D19,1,K*%
%TO.N,VCC*%
X66800000Y95600000D03*
%TO.P,D19,2,A*%
%TO.N,Net-(D19-A)*%
X68200000Y95600000D03*
%TD*%
D25*
%TO.P,C1,1*%
%TO.N,+3V3*%
X84150000Y83000000D03*
%TO.P,C1,2*%
%TO.N,GND*%
X82250000Y83000000D03*
%TD*%
D13*
%TO.P,D16,1,DIN*%
%TO.N,Net-(D15-DOUT)*%
X97100000Y55015000D03*
D14*
%TO.P,D16,2,VDD*%
%TO.N,+3V3*%
X97100000Y56140000D03*
D15*
%TO.P,D16,3,DOUT*%
%TO.N,Net-(D16-DOUT)*%
X97100000Y57165000D03*
D16*
%TO.P,D16,4,VSS*%
%TO.N,GND*%
X97100000Y58165000D03*
%TD*%
D13*
%TO.P,D18,1,DIN*%
%TO.N,Net-(D17-DOUT)*%
X97100000Y82295000D03*
D14*
%TO.P,D18,2,VDD*%
%TO.N,+3V3*%
X97100000Y83420000D03*
D15*
%TO.P,D18,3,DOUT*%
%TO.N,unconnected-(D18-DOUT-Pad3)*%
X97100000Y84445000D03*
D16*
%TO.P,D18,4,VSS*%
%TO.N,GND*%
X97100000Y85445000D03*
%TD*%
D26*
%TO.P,D7,1,DIN*%
%TO.N,Net-(D6-DOUT)*%
X14270000Y3000000D03*
D19*
%TO.P,D7,2,VDD*%
%TO.N,+3V3*%
X15395000Y3000000D03*
D27*
%TO.P,D7,3,DOUT*%
%TO.N,Net-(D7-DOUT)*%
X16420000Y3000000D03*
D28*
%TO.P,D7,4,VSS*%
%TO.N,GND*%
X17420000Y3000000D03*
%TD*%
D29*
%TO.P,J2,1,Pin_1*%
%TO.N,Net-(J2-Pin_1)*%
X62350000Y22600000D03*
%TO.P,J2,2,Pin_2*%
%TO.N,GND*%
X61850000Y22600000D03*
%TO.P,J2,3,Pin_3*%
%TO.N,unconnected-(J2-Pin_3-Pad3)*%
X61350000Y22600000D03*
%TO.P,J2,4,Pin_4*%
%TO.N,unconnected-(J2-Pin_4-Pad4)*%
X60850000Y22600000D03*
%TO.P,J2,5,Pin_5*%
%TO.N,unconnected-(J2-Pin_5-Pad5)*%
X60350000Y22600000D03*
%TO.P,J2,6,Pin_6*%
%TO.N,+3V3*%
X59850000Y22600000D03*
%TO.P,J2,7,Pin_7*%
X59350000Y22600000D03*
%TO.P,J2,8,Pin_8*%
X58850000Y22600000D03*
%TO.P,J2,9,Pin_9*%
X58350000Y22600000D03*
%TO.P,J2,10,Pin_10*%
%TO.N,LCD_RESET*%
X57850000Y22600000D03*
%TO.P,J2,11,Pin_11*%
%TO.N,GND*%
X57350000Y22600000D03*
%TO.P,J2,12,Pin_12*%
X56850000Y22600000D03*
%TO.P,J2,13,Pin_13*%
X56350000Y22600000D03*
%TO.P,J2,14,Pin_14*%
X55850000Y22600000D03*
%TO.P,J2,15,Pin_15*%
X55350000Y22600000D03*
%TO.P,J2,16,Pin_16*%
X54850000Y22600000D03*
%TO.P,J2,17,Pin_17*%
X54350000Y22600000D03*
%TO.P,J2,18,Pin_18*%
X53850000Y22600000D03*
%TO.P,J2,19,Pin_19*%
X53350000Y22600000D03*
%TO.P,J2,20,Pin_20*%
X52850000Y22600000D03*
%TO.P,J2,21,Pin_21*%
X52350000Y22600000D03*
%TO.P,J2,22,Pin_22*%
X51850000Y22600000D03*
%TO.P,J2,23,Pin_23*%
X51350000Y22600000D03*
%TO.P,J2,24,Pin_24*%
X50850000Y22600000D03*
%TO.P,J2,25,Pin_25*%
X50350000Y22600000D03*
%TO.P,J2,26,Pin_26*%
X49850000Y22600000D03*
%TO.P,J2,27,Pin_27*%
X49350000Y22600000D03*
%TO.P,J2,28,Pin_28*%
X48850000Y22600000D03*
%TO.P,J2,29,Pin_29*%
X48350000Y22600000D03*
%TO.P,J2,30,Pin_30*%
X47850000Y22600000D03*
%TO.P,J2,31,Pin_31*%
X47350000Y22600000D03*
%TO.P,J2,32,Pin_32*%
X46850000Y22600000D03*
%TO.P,J2,33,Pin_33*%
%TO.N,unconnected-(J2-Pin_33-Pad33)*%
X46350000Y22600000D03*
%TO.P,J2,34,Pin_34*%
%TO.N,SPI1_MOSI*%
X45850000Y22600000D03*
%TO.P,J2,35,Pin_35*%
%TO.N,+3V3*%
X45350000Y22600000D03*
%TO.P,J2,36,Pin_36*%
%TO.N,LCD_DC*%
X44850000Y22600000D03*
%TO.P,J2,37,Pin_37*%
%TO.N,SPI1_SCK*%
X44350000Y22600000D03*
%TO.P,J2,38,Pin_38*%
%TO.N,LCD_CS*%
X43850000Y22600000D03*
%TO.P,J2,39,Pin_39*%
%TO.N,unconnected-(J2-Pin_39-Pad39)*%
X43350000Y22600000D03*
%TO.P,J2,40,Pin_40*%
%TO.N,+3V3*%
X42850000Y22600000D03*
%TO.P,J2,41,Pin_41*%
X42350000Y22600000D03*
%TO.P,J2,42,Pin_42*%
X41850000Y22600000D03*
%TO.P,J2,43,Pin_43*%
%TO.N,GND*%
X41350000Y22600000D03*
%TO.P,J2,44,Pin_44*%
%TO.N,unconnected-(J2-Pin_44-Pad44)*%
X40850000Y22600000D03*
%TO.P,J2,45,Pin_45*%
%TO.N,unconnected-(J2-Pin_45-Pad45)*%
X40350000Y22600000D03*
%TO.P,J2,46,Pin_46*%
%TO.N,unconnected-(J2-Pin_46-Pad46)*%
X39850000Y22600000D03*
%TO.P,J2,47,Pin_47*%
%TO.N,unconnected-(J2-Pin_47-Pad47)*%
X39350000Y22600000D03*
%TO.P,J2,48,Pin_48*%
%TO.N,GND*%
X38850000Y22600000D03*
%TO.P,J2,49,Pin_49*%
X38350000Y22600000D03*
%TO.P,J2,50,Pin_50*%
X37850000Y22600000D03*
D30*
%TO.P,J2,MP*%
%TO.N,N/C*%
X64250000Y25850000D03*
X35950000Y25850000D03*
%TD*%
D31*
%TO.P,R3,1*%
%TO.N,I2S_DOUT*%
X22950000Y66890000D03*
%TO.P,R3,2*%
%TO.N,GND*%
X22950000Y65240000D03*
%TD*%
D32*
%TO.P,D6,1,DIN*%
%TO.N,Net-(D5-DOUT)*%
X3000000Y17030000D03*
D14*
%TO.P,D6,2,VDD*%
%TO.N,+3V3*%
X3000000Y15905000D03*
D15*
%TO.P,D6,3,DOUT*%
%TO.N,Net-(D6-DOUT)*%
X3000000Y14880000D03*
D33*
%TO.P,D6,4,VSS*%
%TO.N,GND*%
X3000000Y13880000D03*
%TD*%
D32*
%TO.P,D3,1,DIN*%
%TO.N,Net-(D2-DOUT)*%
X3000000Y57950000D03*
D14*
%TO.P,D3,2,VDD*%
%TO.N,+3V3*%
X3000000Y56825000D03*
D15*
%TO.P,D3,3,DOUT*%
%TO.N,Net-(D3-DOUT)*%
X3000000Y55800000D03*
D33*
%TO.P,D3,4,VSS*%
%TO.N,GND*%
X3000000Y54800000D03*
%TD*%
D26*
%TO.P,D11,1,DIN*%
%TO.N,Net-(D10-DOUT)*%
X68830000Y3000000D03*
D19*
%TO.P,D11,2,VDD*%
%TO.N,+3V3*%
X69955000Y3000000D03*
D27*
%TO.P,D11,3,DOUT*%
%TO.N,Net-(D11-DOUT)*%
X70980000Y3000000D03*
D28*
%TO.P,D11,4,VSS*%
%TO.N,GND*%
X71980000Y3000000D03*
%TD*%
D34*
%TO.P,SW1,1,A*%
%TO.N,unconnected-(SW1-A-Pad1)*%
X78900000Y94950000D03*
%TO.P,SW1,2,B*%
%TO.N,Net-(SW1-B)*%
X76400000Y94950000D03*
%TO.P,SW1,3,C*%
%TO.N,Net-(D19-A)*%
X73900000Y94950000D03*
%TD*%
D12*
%TO.P,FID4,*%
%TO.N,*%
X90500000Y9100000D03*
%TD*%
D32*
%TO.P,D4,1,DIN*%
%TO.N,Net-(D3-DOUT)*%
X3000000Y44310000D03*
D14*
%TO.P,D4,2,VDD*%
%TO.N,+3V3*%
X3000000Y43185000D03*
D15*
%TO.P,D4,3,DOUT*%
%TO.N,Net-(D4-DOUT)*%
X3000000Y42160000D03*
D33*
%TO.P,D4,4,VSS*%
%TO.N,GND*%
X3000000Y41160000D03*
%TD*%
D35*
%TO.P,SW2,1*%
%TO.N,N/C*%
X69400000Y27400000D03*
X80600000Y27400000D03*
D36*
%TO.P,SW2,A,A*%
%TO.N,ENC1_A*%
X72500000Y19900000D03*
%TO.P,SW2,B,B*%
%TO.N,ENC1_B*%
X77500000Y19900000D03*
%TO.P,SW2,C,C*%
%TO.N,GND*%
X75000000Y19900000D03*
%TO.P,SW2,S1,S1*%
%TO.N,ENC1_SW*%
X72500000Y34400000D03*
%TO.P,SW2,S2,S2*%
%TO.N,GND*%
X77500000Y34400000D03*
%TD*%
D37*
%TO.P,R2,1*%
%TO.N,+3V3*%
X60550000Y19500000D03*
%TO.P,R2,2*%
%TO.N,Net-(J2-Pin_1)*%
X62200000Y19500000D03*
%TD*%
D12*
%TO.P,FID1,*%
%TO.N,*%
X10100000Y91400000D03*
%TD*%
D26*
%TO.P,D10,1,DIN*%
%TO.N,Net-(D10-DIN)*%
X55190000Y3000000D03*
D19*
%TO.P,D10,2,VDD*%
%TO.N,+3V3*%
X56315000Y3000000D03*
D27*
%TO.P,D10,3,DOUT*%
%TO.N,Net-(D10-DOUT)*%
X57340000Y3000000D03*
D28*
%TO.P,D10,4,VSS*%
%TO.N,GND*%
X58340000Y3000000D03*
%TD*%
D38*
%TO.P,L1,1*%
%TO.N,Net-(U1-LX)*%
X86200000Y87400000D03*
%TO.P,L1,2*%
%TO.N,+3V3*%
X86200000Y85250000D03*
%TD*%
D26*
%TO.P,D12,1,DIN*%
%TO.N,Net-(D11-DOUT)*%
X82470000Y3000000D03*
D19*
%TO.P,D12,2,VDD*%
%TO.N,+3V3*%
X83595000Y3000000D03*
D27*
%TO.P,D12,3,DOUT*%
%TO.N,Net-(D12-DOUT)*%
X84620000Y3000000D03*
D28*
%TO.P,D12,4,VSS*%
%TO.N,GND*%
X85620000Y3000000D03*
%TD*%
D39*
%TO.P,U2,1,SCK*%
%TO.N,I2S_BCLK*%
X19550000Y67200000D03*
%TO.P,U2,2,SD*%
%TO.N,I2S_DOUT*%
X18500000Y67200000D03*
%TO.P,U2,3,WS*%
%TO.N,I2S_LRCLK*%
X17450000Y67200000D03*
%TO.P,U2,4,L/R*%
%TO.N,+3V3*%
X16400000Y67200000D03*
D40*
%TO.P,U2,5,GND*%
%TO.N,GND*%
X15760000Y65870000D03*
D39*
%TO.P,U2,6,GND*%
X16400000Y64540000D03*
%TO.P,U2,7,Vdd*%
%TO.N,+3V3*%
X17450000Y64540000D03*
%TO.P,U2,8,CHIPEN*%
X18500000Y64540000D03*
%TO.P,U2,9,GND*%
%TO.N,GND*%
X19550000Y64540000D03*
%TD*%
D17*
%TO.P,C4,1*%
%TO.N,GND*%
X41050000Y19500000D03*
%TO.P,C4,2*%
%TO.N,+3V3*%
X42600000Y19500000D03*
%TD*%
%TO.P,C2,1*%
%TO.N,VCC*%
X80950000Y89400000D03*
%TO.P,C2,2*%
%TO.N,GND*%
X82500000Y89400000D03*
%TD*%
D26*
%TO.P,D9,1,DIN*%
%TO.N,Net-(D8-DOUT)*%
X41550000Y3000000D03*
D19*
%TO.P,D9,2,VDD*%
%TO.N,+3V3*%
X42675000Y3000000D03*
D27*
%TO.P,D9,3,DOUT*%
%TO.N,Net-(D10-DIN)*%
X43700000Y3000000D03*
D28*
%TO.P,D9,4,VSS*%
%TO.N,GND*%
X44700000Y3000000D03*
%TD*%
D13*
%TO.P,D14,1,DIN*%
%TO.N,Net-(D13-DOUT)*%
X97100000Y27735000D03*
D14*
%TO.P,D14,2,VDD*%
%TO.N,+3V3*%
X97100000Y28860000D03*
D15*
%TO.P,D14,3,DOUT*%
%TO.N,Net-(D14-DOUT)*%
X97100000Y29885000D03*
D16*
%TO.P,D14,4,VSS*%
%TO.N,GND*%
X97100000Y30885000D03*
%TD*%
D32*
%TO.P,D1,1,DIN*%
%TO.N,Net-(D1-DIN)*%
X3000000Y85230000D03*
D14*
%TO.P,D1,2,VDD*%
%TO.N,+3V3*%
X3000000Y84105000D03*
D15*
%TO.P,D1,3,DOUT*%
%TO.N,Net-(D1-DOUT)*%
X3000000Y83080000D03*
D33*
%TO.P,D1,4,VSS*%
%TO.N,GND*%
X3000000Y82080000D03*
%TD*%
D41*
%TO.P,R4,1*%
%TO.N,+3V3*%
X82212500Y71312500D03*
%TO.P,R4,2*%
%TO.N,Net-(U4-~{SD_MODE})*%
X80562500Y71312500D03*
%TD*%
D42*
%TO.P,U1,1,Vin*%
%TO.N,VCC*%
X81225000Y87300000D03*
%TO.P,U1,2,GND*%
%TO.N,GND*%
X81225000Y86350000D03*
%TO.P,U1,3,EN*%
%TO.N,VCC*%
X81225000Y85400000D03*
%TO.P,U1,4,OUT*%
%TO.N,+3V3*%
X83500000Y85400000D03*
%TO.P,U1,5,LX*%
%TO.N,Net-(U1-LX)*%
X83500000Y87300000D03*
%TD*%
D23*
%TO.P,TP4,1,1*%
%TO.N,Net-(U4-OUTN)*%
X88912500Y75712500D03*
%TD*%
D13*
%TO.P,D13,1,DIN*%
%TO.N,Net-(D12-DOUT)*%
X97100000Y14095000D03*
D14*
%TO.P,D13,2,VDD*%
%TO.N,+3V3*%
X97100000Y15220000D03*
D15*
%TO.P,D13,3,DOUT*%
%TO.N,Net-(D13-DOUT)*%
X97100000Y16245000D03*
D16*
%TO.P,D13,4,VSS*%
%TO.N,GND*%
X97100000Y17245000D03*
%TD*%
D23*
%TO.P,TP5,1,1*%
%TO.N,Net-(U4-OUTP)*%
X88912500Y71812500D03*
%TD*%
D43*
%TO.P,U4,1,DIN*%
%TO.N,I2S_DIN*%
X81925000Y75800000D03*
%TO.P,U4,2,GAIN_SLOT*%
%TO.N,Net-(U4-GAIN_SLOT)*%
X81925000Y75300000D03*
%TO.P,U4,3,GND*%
%TO.N,GND*%
X81925000Y74800000D03*
%TO.P,U4,4,~{SD_MODE}*%
%TO.N,Net-(U4-~{SD_MODE})*%
X81925000Y74300000D03*
D44*
%TO.P,U4,5,NC*%
%TO.N,unconnected-(U4-NC-Pad5)*%
X82612500Y73612500D03*
%TO.P,U4,6,NC*%
%TO.N,unconnected-(U4-NC-Pad6)*%
X83112500Y73612500D03*
%TO.P,U4,7,Vdd*%
%TO.N,+3V3*%
X83612500Y73612500D03*
%TO.P,U4,8,Vdd*%
X84112500Y73612500D03*
D43*
%TO.P,U4,9,OUTP*%
%TO.N,Net-(U4-OUTP)*%
X84800000Y74300000D03*
%TO.P,U4,10,OUTN*%
%TO.N,Net-(U4-OUTN)*%
X84800000Y74800000D03*
%TO.P,U4,11,GND*%
%TO.N,GND*%
X84800000Y75300000D03*
%TO.P,U4,12,NC*%
%TO.N,unconnected-(U4-NC-Pad12)*%
X84800000Y75800000D03*
D44*
%TO.P,U4,13,NC*%
%TO.N,unconnected-(U4-NC-Pad13)*%
X84112500Y76487500D03*
%TO.P,U4,14,LRCLK*%
%TO.N,I2S_LRCLK*%
X83612500Y76487500D03*
%TO.P,U4,15*%
%TO.N,N/C*%
X83112500Y76487500D03*
%TO.P,U4,16,BCLK*%
%TO.N,I2S_BCLK*%
X82612500Y76487500D03*
D45*
%TO.P,U4,17*%
%TO.N,N/C*%
X83362500Y75050000D03*
%TD*%
D12*
%TO.P,FID2,*%
%TO.N,*%
X90100000Y91300000D03*
%TD*%
D17*
%TO.P,C6,1*%
%TO.N,GND*%
X41050000Y17900000D03*
%TO.P,C6,2*%
%TO.N,+3V3*%
X42600000Y17900000D03*
%TD*%
D32*
%TO.P,D2,1,DIN*%
%TO.N,Net-(D1-DOUT)*%
X3000000Y71590000D03*
D14*
%TO.P,D2,2,VDD*%
%TO.N,+3V3*%
X3000000Y70465000D03*
D15*
%TO.P,D2,3,DOUT*%
%TO.N,Net-(D2-DOUT)*%
X3000000Y69440000D03*
D33*
%TO.P,D2,4,VSS*%
%TO.N,GND*%
X3000000Y68440000D03*
%TD*%
D46*
%TO.P,C3,1*%
%TO.N,GND*%
X12750000Y65690000D03*
%TO.P,C3,2*%
%TO.N,+3V3*%
X12750000Y67240000D03*
%TD*%
D37*
%TO.P,R1,1*%
%TO.N,Net-(D1-DIN)*%
X7550000Y85200000D03*
%TO.P,R1,2*%
%TO.N,RGB*%
X9200000Y85200000D03*
%TD*%
D32*
%TO.P,D5,1,DIN*%
%TO.N,Net-(D4-DOUT)*%
X3000000Y30670000D03*
D14*
%TO.P,D5,2,VDD*%
%TO.N,+3V3*%
X3000000Y29545000D03*
D15*
%TO.P,D5,3,DOUT*%
%TO.N,Net-(D5-DOUT)*%
X3000000Y28520000D03*
D33*
%TO.P,D5,4,VSS*%
%TO.N,GND*%
X3000000Y27520000D03*
%TD*%
D26*
%TO.P,D8,1,DIN*%
%TO.N,Net-(D7-DOUT)*%
X27910000Y3000000D03*
D19*
%TO.P,D8,2,VDD*%
%TO.N,+3V3*%
X29035000Y3000000D03*
D27*
%TO.P,D8,3,DOUT*%
%TO.N,Net-(D8-DOUT)*%
X30060000Y3000000D03*
D28*
%TO.P,D8,4,VSS*%
%TO.N,GND*%
X31060000Y3000000D03*
%TD*%
D47*
%TO.P,H4,1,1*%
%TO.N,GND*%
X7400000Y5000000D03*
X6697056Y3302944D03*
X6697056Y6697056D03*
X5000000Y2600000D03*
D48*
X5000000Y5000000D03*
D47*
X5000000Y7400000D03*
X3302944Y3302944D03*
X3302944Y6697056D03*
X2600000Y5000000D03*
%TD*%
%TO.P,H1,1,1*%
%TO.N,+3V3*%
X97400000Y95000000D03*
X96697056Y93302944D03*
X96697056Y96697056D03*
X95000000Y92600000D03*
D48*
X95000000Y95000000D03*
D47*
X95000000Y97400000D03*
X93302944Y93302944D03*
X93302944Y96697056D03*
X92600000Y95000000D03*
%TD*%
%TO.P,H3,1,1*%
%TO.N,unconnected-(H3-Pad1)_4*%
X97400000Y5000000D03*
%TO.N,unconnected-(H3-Pad1)_0*%
X96697056Y3302944D03*
%TO.N,unconnected-(H3-Pad1)*%
X96697056Y6697056D03*
%TO.N,unconnected-(H3-Pad1)_6*%
X95000000Y2600000D03*
D48*
%TO.N,unconnected-(H3-Pad1)_2*%
X95000000Y5000000D03*
D47*
%TO.N,unconnected-(H3-Pad1)_5*%
X95000000Y7400000D03*
%TO.N,unconnected-(H3-Pad1)_3*%
X93302944Y3302944D03*
%TO.N,unconnected-(H3-Pad1)_1*%
X93302944Y6697056D03*
%TO.N,unconnected-(H3-Pad1)_7*%
X92600000Y5000000D03*
%TD*%
%TO.P,H2,1,1*%
%TO.N,unconnected-(H2-Pad1)*%
X7400000Y95000000D03*
%TO.N,unconnected-(H2-Pad1)_3*%
X6697056Y93302944D03*
%TO.N,unconnected-(H2-Pad1)_2*%
X6697056Y96697056D03*
%TO.N,unconnected-(H2-Pad1)_6*%
X5000000Y92600000D03*
D48*
%TO.N,unconnected-(H2-Pad1)_0*%
X5000000Y95000000D03*
D47*
%TO.N,unconnected-(H2-Pad1)_1*%
X5000000Y97400000D03*
%TO.N,unconnected-(H2-Pad1)_7*%
X3302944Y93302944D03*
%TO.N,unconnected-(H2-Pad1)_5*%
X3302944Y96697056D03*
%TO.N,unconnected-(H2-Pad1)_4*%
X2600000Y95000000D03*
%TD*%
D49*
%TO.N,+3V3*%
X24200000Y85900000D03*
X92250000Y87150000D03*
X12700000Y84000000D03*
X74600000Y88000000D03*
X6000000Y84000000D03*
%TO.N,GND*%
X61400000Y20900000D03*
X96600000Y73400000D03*
X35200000Y67700000D03*
X3600000Y39600000D03*
X65400000Y55000000D03*
X38300000Y20100000D03*
X86400000Y76100000D03*
X65400000Y93300000D03*
X35200000Y93100000D03*
X65400000Y80400000D03*
X19000000Y3700000D03*
X26400000Y85900000D03*
X96600000Y59800000D03*
X30800000Y85800000D03*
X65400000Y67700000D03*
X21500000Y64600000D03*
X30800000Y91000000D03*
X52200000Y19900000D03*
X82400000Y86400000D03*
X16200000Y88500000D03*
X79800000Y74200000D03*
X73600000Y3600000D03*
X3600000Y80500000D03*
X96600000Y87000000D03*
X32800000Y3700000D03*
X46500000Y3600000D03*
X35400000Y80000000D03*
X4900000Y13600000D03*
X85900000Y4800000D03*
X96600000Y32500000D03*
X60000000Y3600000D03*
X3600000Y25900000D03*
X3600000Y53200000D03*
X96600000Y46100000D03*
X14200000Y65700000D03*
X3600000Y66900000D03*
X96600000Y18800000D03*
X35100000Y55000000D03*
%TO.N,SD_CS*%
X35400000Y82900000D03*
X22000000Y80000000D03*
%TO.N,LCD_RESET*%
X45800000Y70200000D03*
X43900000Y70200000D03*
%TO.N,SPI1_MOSI*%
X42900000Y62600000D03*
X45800000Y62600000D03*
%TO.N,Net-(SW1-B)*%
X76400000Y81000000D03*
%TO.N,I2S_BCLK*%
X53000000Y86300000D03*
X80000000Y81600000D03*
%TO.N,I2S_LRCLK*%
X55600000Y85300000D03*
X17300000Y95600000D03*
X19400000Y95600000D03*
X80000000Y83000000D03*
%TO.N,I2S_DIN*%
X80000000Y80200000D03*
X53200000Y83300000D03*
%TD*%
D50*
%TO.N,+3V3*%
X1435000Y70465000D02*
X3000000Y70465000D01*
D51*
X59300000Y20500000D02*
X59800000Y20500000D01*
X84112500Y72412500D02*
X83612500Y71912500D01*
D50*
X1895200Y15905000D02*
X3000000Y15905000D01*
D52*
X6000000Y84000000D02*
X5300000Y84000000D01*
D50*
X97100000Y83420000D02*
X98180000Y83420000D01*
D51*
X42350000Y20700000D02*
X42350000Y19750000D01*
D52*
X11300000Y59400000D02*
X12200000Y58500000D01*
D50*
X98900000Y56600000D02*
X98900000Y70200000D01*
D53*
X90350000Y85250000D02*
X92180000Y83420000D01*
D50*
X3000000Y84105000D02*
X2005000Y84105000D01*
X16100000Y1000000D02*
X13400000Y1000000D01*
D51*
X83612500Y71912500D02*
X83612500Y73612500D01*
D52*
X12790000Y67200000D02*
X12750000Y67240000D01*
D53*
X90350000Y85250000D02*
X86200000Y85250000D01*
D50*
X55900000Y1000000D02*
X56315000Y1415000D01*
X41779800Y1000000D02*
X42675000Y1895200D01*
X86500000Y1000000D02*
X82699800Y1000000D01*
X98480000Y69780000D02*
X97100000Y69780000D01*
X56315000Y1415000D02*
X56315000Y3000000D01*
D52*
X17350000Y58950000D02*
X17350000Y60540000D01*
D50*
X86900000Y10400000D02*
X86900000Y1400000D01*
D53*
X95000000Y89900000D02*
X92250000Y87150000D01*
D50*
X1200000Y57700000D02*
X1200000Y44000000D01*
D53*
X84150000Y84750000D02*
X83500000Y85400000D01*
D50*
X86900000Y1400000D02*
X86500000Y1000000D01*
D51*
X42850000Y21200000D02*
X42350000Y20700000D01*
X58850000Y20550000D02*
X58800000Y20500000D01*
D52*
X17450000Y60640000D02*
X17350000Y60540000D01*
D50*
X1200000Y43880200D02*
X1895200Y43185000D01*
X1200000Y30240200D02*
X1200000Y16600200D01*
D51*
X41850000Y22600000D02*
X41850000Y21200000D01*
D50*
X1200000Y57520200D02*
X1895200Y56825000D01*
X12500000Y9500000D02*
X9700000Y12300000D01*
X89000000Y12500000D02*
X86900000Y10400000D01*
D51*
X83012500Y71312500D02*
X84545000Y69780000D01*
X59800000Y20500000D02*
X60300000Y20500000D01*
D52*
X58800000Y88000000D02*
X74600000Y88000000D01*
D51*
X58350000Y22600000D02*
X58350000Y20650000D01*
D50*
X41779800Y1000000D02*
X55900000Y1000000D01*
X28139800Y1000000D02*
X41779800Y1000000D01*
D51*
X60300000Y20500000D02*
X60550000Y20250000D01*
D50*
X98300000Y12500000D02*
X89000000Y12500000D01*
D51*
X58500000Y20500000D02*
X58800000Y20500000D01*
D50*
X55900000Y1000000D02*
X69059800Y1000000D01*
D51*
X42350000Y19750000D02*
X42600000Y19500000D01*
X59350000Y20550000D02*
X59300000Y20500000D01*
D50*
X69059800Y1000000D02*
X82699800Y1000000D01*
D52*
X18500000Y64540000D02*
X18500000Y63550000D01*
D51*
X84545000Y69780000D02*
X97100000Y69780000D01*
D50*
X1200000Y70700000D02*
X1200000Y57700000D01*
D53*
X84150000Y83000000D02*
X84150000Y84750000D01*
D51*
X83012500Y71312500D02*
X83612500Y71912500D01*
D50*
X98900000Y56600000D02*
X98440000Y56140000D01*
X56315000Y15265000D02*
X60550000Y19500000D01*
D52*
X17450000Y64540000D02*
X17450000Y62500000D01*
D51*
X60550000Y20250000D02*
X60550000Y19500000D01*
D50*
X1895200Y43185000D02*
X3000000Y43185000D01*
D53*
X92250000Y87150000D02*
X90350000Y85250000D01*
D50*
X98180000Y83420000D02*
X98900000Y82700000D01*
D52*
X5195000Y84105000D02*
X3000000Y84105000D01*
D50*
X1200000Y30240200D02*
X1895200Y29545000D01*
X83595000Y1895200D02*
X83595000Y3000000D01*
X1200000Y57700000D02*
X1200000Y57520200D01*
D51*
X58800000Y20500000D02*
X59300000Y20500000D01*
D52*
X12750000Y83950000D02*
X12700000Y84000000D01*
D50*
X98900000Y29555200D02*
X98900000Y42900000D01*
X98900000Y15915200D02*
X98900000Y29555200D01*
D52*
X12750000Y67240000D02*
X12750000Y83950000D01*
D50*
X1895200Y29545000D02*
X3000000Y29545000D01*
D51*
X42850000Y22600000D02*
X42850000Y21200000D01*
D52*
X16400000Y67200000D02*
X12790000Y67200000D01*
D50*
X12500000Y1900000D02*
X12500000Y9500000D01*
D51*
X42350000Y20700000D02*
X44900000Y20700000D01*
D50*
X98900000Y42900000D02*
X98500000Y42500000D01*
D51*
X58850000Y22600000D02*
X58850000Y20550000D01*
D52*
X11300000Y66900000D02*
X11300000Y59400000D01*
D50*
X69059800Y1000000D02*
X69955000Y1895200D01*
X98900000Y70200000D02*
X98480000Y69780000D01*
X98500000Y42500000D02*
X97100000Y42500000D01*
D52*
X12750000Y67240000D02*
X11640000Y67240000D01*
D53*
X92180000Y83420000D02*
X97100000Y83420000D01*
D51*
X59850000Y22600000D02*
X59850000Y20550000D01*
X59350000Y22600000D02*
X59350000Y20550000D01*
X45350000Y21150000D02*
X45350000Y22600000D01*
X84112500Y73612500D02*
X84112500Y72412500D01*
D50*
X98204800Y28860000D02*
X97100000Y28860000D01*
X98900000Y13100000D02*
X98300000Y12500000D01*
D52*
X16900000Y58500000D02*
X17350000Y58950000D01*
D50*
X98900000Y29555200D02*
X98204800Y28860000D01*
X1200000Y12900000D02*
X1200000Y16600200D01*
X98900000Y42900000D02*
X98900000Y56600000D01*
X29035000Y1895200D02*
X29035000Y3000000D01*
X42675000Y1895200D02*
X42675000Y3000000D01*
X15395000Y1705000D02*
X16100000Y1000000D01*
D51*
X82212500Y71312500D02*
X83012500Y71312500D01*
D50*
X16100000Y1000000D02*
X28139800Y1000000D01*
D51*
X58350000Y20650000D02*
X58500000Y20500000D01*
D52*
X17450000Y62500000D02*
X17450000Y60640000D01*
D50*
X98900000Y82700000D02*
X98900000Y70200000D01*
X98204800Y15220000D02*
X98900000Y15915200D01*
D53*
X95000000Y95000000D02*
X95000000Y89900000D01*
D51*
X44900000Y20700000D02*
X45350000Y21150000D01*
D53*
X86050000Y85400000D02*
X86200000Y85250000D01*
D50*
X1200000Y44000000D02*
X1200000Y30240200D01*
X1200000Y83300000D02*
X1200000Y70700000D01*
D52*
X24200000Y83100000D02*
X24200000Y85900000D01*
D50*
X28139800Y1000000D02*
X29035000Y1895200D01*
X42675000Y3000000D02*
X42675000Y17825000D01*
D51*
X59850000Y20550000D02*
X59800000Y20500000D01*
D52*
X18500000Y63550000D02*
X17450000Y62500000D01*
X11640000Y67240000D02*
X11300000Y66900000D01*
D50*
X1895200Y56825000D02*
X3000000Y56825000D01*
X98440000Y56140000D02*
X97100000Y56140000D01*
D53*
X83500000Y85400000D02*
X86050000Y85400000D01*
D52*
X12200000Y58500000D02*
X16900000Y58500000D01*
D51*
X42350000Y22600000D02*
X42350000Y20700000D01*
D50*
X56315000Y3000000D02*
X56315000Y15265000D01*
X97100000Y15220000D02*
X98204800Y15220000D01*
X98900000Y15915200D02*
X98900000Y13100000D01*
X1200000Y16600200D02*
X1895200Y15905000D01*
D51*
X42600000Y19500000D02*
X42600000Y17900000D01*
D52*
X5300000Y84000000D02*
X5195000Y84105000D01*
D50*
X1200000Y70700000D02*
X1435000Y70465000D01*
X1800000Y12300000D02*
X1200000Y12900000D01*
X9700000Y12300000D02*
X1800000Y12300000D01*
X42675000Y17825000D02*
X42600000Y17900000D01*
X15395000Y3000000D02*
X15395000Y1705000D01*
X82699800Y1000000D02*
X83595000Y1895200D01*
X2005000Y84105000D02*
X1200000Y83300000D01*
X1200000Y44000000D02*
X1200000Y43880200D01*
X13400000Y1000000D02*
X12500000Y1900000D01*
D51*
X41850000Y21200000D02*
X42350000Y20700000D01*
D50*
X69955000Y1895200D02*
X69955000Y3000000D01*
D51*
%TO.N,GND*%
X48300000Y20500000D02*
X48900000Y20500000D01*
X52900000Y20500000D02*
X53400000Y20500000D01*
X52850000Y20550000D02*
X52900000Y20500000D01*
D52*
X14200000Y65700000D02*
X14200000Y65540000D01*
D51*
X52350000Y22600000D02*
X52350000Y20550000D01*
X52200000Y20500000D02*
X52200000Y19900000D01*
D53*
X81225000Y86350000D02*
X82350000Y86350000D01*
D51*
X54400000Y20500000D02*
X54900000Y20500000D01*
D52*
X30850000Y93200000D02*
X30850000Y91050000D01*
D50*
X3000000Y41160000D02*
X3000000Y40200000D01*
D51*
X49850000Y22600000D02*
X49850000Y20550000D01*
X56350000Y22600000D02*
X56350000Y20550000D01*
X50850000Y22600000D02*
X50850000Y20550000D01*
X56850000Y20550000D02*
X56800000Y20500000D01*
D50*
X3000000Y27520000D02*
X3000000Y26500000D01*
X85620000Y4520000D02*
X85900000Y4800000D01*
D52*
X14190000Y65690000D02*
X14200000Y65700000D01*
D54*
X65380000Y67680000D02*
X65400000Y67700000D01*
D51*
X48350000Y22600000D02*
X48350000Y20550000D01*
X41050000Y19500000D02*
X41050000Y17900000D01*
X52200000Y20500000D02*
X52300000Y20500000D01*
D54*
X58800000Y93080000D02*
X65180000Y93080000D01*
X35120000Y54980000D02*
X35100000Y55000000D01*
D52*
X30850000Y85750000D02*
X30800000Y85800000D01*
D51*
X48900000Y20500000D02*
X49300000Y20500000D01*
D52*
X21560000Y64540000D02*
X22250000Y64540000D01*
D51*
X38350000Y22600000D02*
X38350000Y20150000D01*
D54*
X41020000Y54980000D02*
X35120000Y54980000D01*
X41020000Y67680000D02*
X35220000Y67680000D01*
D51*
X49800000Y20500000D02*
X50400000Y20500000D01*
X38850000Y22600000D02*
X38850000Y20650000D01*
X52850000Y22600000D02*
X52850000Y20550000D01*
D50*
X3000000Y81100000D02*
X3600000Y80500000D01*
X3000000Y13880000D02*
X4620000Y13880000D01*
X46500000Y3600000D02*
X45900000Y3000000D01*
D53*
X82375000Y89275000D02*
X82375000Y86425000D01*
D50*
X3000000Y54800000D02*
X3000000Y53800000D01*
D51*
X51850000Y22600000D02*
X51850000Y20550000D01*
X80400000Y74800000D02*
X79800000Y74200000D01*
X51400000Y20500000D02*
X51900000Y20500000D01*
D50*
X97100000Y85445000D02*
X97100000Y86500000D01*
D54*
X58800000Y67680000D02*
X65380000Y67680000D01*
D51*
X57350000Y20750000D02*
X57350000Y22600000D01*
D54*
X58800000Y80380000D02*
X65380000Y80380000D01*
D51*
X37850000Y20550000D02*
X38300000Y20100000D01*
D50*
X58340000Y3000000D02*
X59400000Y3000000D01*
X31060000Y3000000D02*
X32100000Y3000000D01*
D51*
X53850000Y22600000D02*
X53850000Y20550000D01*
D52*
X21440000Y64540000D02*
X21500000Y64600000D01*
D51*
X56350000Y20550000D02*
X56300000Y20500000D01*
D54*
X35780000Y80380000D02*
X35400000Y80000000D01*
D51*
X61850000Y21350000D02*
X61400000Y20900000D01*
X54900000Y20500000D02*
X55400000Y20500000D01*
D53*
X82500000Y89400000D02*
X82375000Y89275000D01*
D52*
X16250000Y92300000D02*
X15350000Y93200000D01*
D51*
X48850000Y20550000D02*
X48900000Y20500000D01*
X47850000Y22600000D02*
X47850000Y20550000D01*
X55850000Y22600000D02*
X55850000Y20550000D01*
X53350000Y20550000D02*
X53400000Y20500000D01*
D50*
X73000000Y3000000D02*
X73600000Y3600000D01*
D54*
X35220000Y93080000D02*
X35200000Y93100000D01*
D51*
X41350000Y19800000D02*
X41050000Y19500000D01*
D53*
X82250000Y83000000D02*
X82350000Y83100000D01*
D51*
X51350000Y20550000D02*
X51400000Y20500000D01*
X61850000Y22600000D02*
X61850000Y21350000D01*
X85600000Y75300000D02*
X86400000Y76100000D01*
X37850000Y22600000D02*
X37850000Y20550000D01*
D52*
X14200000Y65700000D02*
X14210000Y65690000D01*
X30850000Y91050000D02*
X30800000Y91000000D01*
X15638000Y65748000D02*
X15638000Y65870000D01*
D51*
X54850000Y20550000D02*
X54900000Y20500000D01*
D50*
X17420000Y3000000D02*
X18300000Y3000000D01*
X97100000Y18300000D02*
X96600000Y18800000D01*
X97100000Y32000000D02*
X96600000Y32500000D01*
D51*
X49350000Y20550000D02*
X49300000Y20500000D01*
D54*
X41020000Y93080000D02*
X35220000Y93080000D01*
D53*
X82350000Y83100000D02*
X82350000Y86350000D01*
D52*
X12750000Y65690000D02*
X14190000Y65690000D01*
D50*
X45900000Y3000000D02*
X44700000Y3000000D01*
D51*
X54350000Y20550000D02*
X54400000Y20500000D01*
D52*
X16200000Y88500000D02*
X16250000Y88550000D01*
D51*
X38900000Y19500000D02*
X38300000Y20100000D01*
X84800000Y75300000D02*
X85600000Y75300000D01*
D50*
X26400000Y83100000D02*
X26400000Y85900000D01*
D51*
X38350000Y20150000D02*
X38300000Y20100000D01*
X54850000Y22600000D02*
X54850000Y20550000D01*
X49350000Y22600000D02*
X49350000Y20550000D01*
D50*
X3000000Y67500000D02*
X3600000Y66900000D01*
D51*
X55850000Y20550000D02*
X55800000Y20500000D01*
X47800000Y20500000D02*
X48300000Y20500000D01*
X56850000Y22600000D02*
X56850000Y20550000D01*
D50*
X3000000Y40200000D02*
X3600000Y39600000D01*
D52*
X14200000Y65540000D02*
X15800000Y63940000D01*
X19550000Y64540000D02*
X21440000Y64540000D01*
D54*
X35220000Y67680000D02*
X35200000Y67700000D01*
D50*
X97100000Y44525000D02*
X97100000Y45600000D01*
D54*
X65380000Y80380000D02*
X65400000Y80400000D01*
D50*
X97100000Y17245000D02*
X97100000Y18300000D01*
D51*
X50350000Y20550000D02*
X50400000Y20500000D01*
D52*
X16250000Y88450000D02*
X16200000Y88500000D01*
X30850000Y83600000D02*
X30850000Y85750000D01*
D51*
X41050000Y19500000D02*
X38900000Y19500000D01*
X51350000Y22600000D02*
X51350000Y20550000D01*
D52*
X15590000Y65700000D02*
X15638000Y65748000D01*
X16250000Y88550000D02*
X16250000Y92300000D01*
D54*
X41020000Y80380000D02*
X35780000Y80380000D01*
D51*
X47400000Y20500000D02*
X47800000Y20500000D01*
D50*
X85620000Y3000000D02*
X85620000Y4520000D01*
D51*
X56300000Y20500000D02*
X56800000Y20500000D01*
D50*
X97100000Y30885000D02*
X97100000Y32000000D01*
D52*
X22250000Y64540000D02*
X22950000Y65240000D01*
D51*
X51900000Y20500000D02*
X52200000Y20500000D01*
D54*
X58800000Y54980000D02*
X65380000Y54980000D01*
D51*
X81925000Y74800000D02*
X80400000Y74800000D01*
X46850000Y22600000D02*
X46850000Y20750000D01*
X52300000Y20500000D02*
X52500000Y20500000D01*
X53900000Y20500000D02*
X54400000Y20500000D01*
X55350000Y20550000D02*
X55400000Y20500000D01*
D50*
X59400000Y3000000D02*
X60000000Y3600000D01*
X97100000Y72900000D02*
X96600000Y73400000D01*
D51*
X48350000Y20550000D02*
X48300000Y20500000D01*
D50*
X97100000Y86500000D02*
X96600000Y87000000D01*
D51*
X54350000Y22600000D02*
X54350000Y20550000D01*
D52*
X15800000Y60540000D02*
X15800000Y63940000D01*
X21500000Y64600000D02*
X21560000Y64540000D01*
D50*
X97100000Y59300000D02*
X96600000Y59800000D01*
D53*
X82375000Y86425000D02*
X82400000Y86400000D01*
D51*
X38850000Y20650000D02*
X38300000Y20100000D01*
X47350000Y22600000D02*
X47350000Y20550000D01*
X47850000Y20550000D02*
X47800000Y20500000D01*
D50*
X97100000Y58165000D02*
X97100000Y59300000D01*
D51*
X49850000Y20550000D02*
X49800000Y20500000D01*
D54*
X65380000Y54980000D02*
X65400000Y55000000D01*
D51*
X51850000Y20550000D02*
X51900000Y20500000D01*
D50*
X3000000Y53800000D02*
X3600000Y53200000D01*
D51*
X53350000Y22600000D02*
X53350000Y20550000D01*
X47350000Y20550000D02*
X47400000Y20500000D01*
X50850000Y20550000D02*
X50900000Y20500000D01*
X55400000Y20500000D02*
X55800000Y20500000D01*
X50400000Y20500000D02*
X50900000Y20500000D01*
X49300000Y20500000D02*
X49800000Y20500000D01*
D50*
X4620000Y13880000D02*
X4900000Y13600000D01*
X97100000Y45600000D02*
X96600000Y46100000D01*
D51*
X50350000Y22600000D02*
X50350000Y20550000D01*
X55800000Y20500000D02*
X56300000Y20500000D01*
D52*
X16250000Y83600000D02*
X16250000Y88450000D01*
D51*
X53400000Y20500000D02*
X53900000Y20500000D01*
D50*
X18300000Y3000000D02*
X19000000Y3700000D01*
D51*
X53850000Y20550000D02*
X53900000Y20500000D01*
D52*
X14200000Y65700000D02*
X15590000Y65700000D01*
D51*
X46850000Y20750000D02*
X47100000Y20500000D01*
X56800000Y20500000D02*
X57100000Y20500000D01*
X50900000Y20500000D02*
X51400000Y20500000D01*
X52500000Y20500000D02*
X52900000Y20500000D01*
X52350000Y20550000D02*
X52300000Y20500000D01*
X47100000Y20500000D02*
X47400000Y20500000D01*
D50*
X32100000Y3000000D02*
X32800000Y3700000D01*
D51*
X41350000Y22600000D02*
X41350000Y19800000D01*
D53*
X82350000Y86350000D02*
X82400000Y86400000D01*
D50*
X71980000Y3000000D02*
X73000000Y3000000D01*
X3000000Y68440000D02*
X3000000Y67500000D01*
X3000000Y26500000D02*
X3600000Y25900000D01*
X97100000Y71805000D02*
X97100000Y72900000D01*
D51*
X48850000Y22600000D02*
X48850000Y20550000D01*
D54*
X65180000Y93080000D02*
X65400000Y93300000D01*
D50*
X3000000Y82080000D02*
X3000000Y81100000D01*
D51*
X55350000Y22600000D02*
X55350000Y20550000D01*
D52*
X15800000Y63940000D02*
X16400000Y64540000D01*
D51*
X57100000Y20500000D02*
X57350000Y20750000D01*
D53*
%TO.N,VCC*%
X79600000Y85400000D02*
X79200000Y85800000D01*
X80950000Y98850000D02*
X80950000Y89400000D01*
X79200000Y85800000D02*
X79200000Y86800000D01*
X66800000Y95600000D02*
X58820000Y95600000D01*
X81225000Y89125000D02*
X80950000Y89400000D01*
X80700000Y99100000D02*
X80950000Y98850000D01*
X66800000Y97300000D02*
X68600000Y99100000D01*
X68600000Y99100000D02*
X80700000Y99100000D01*
X79200000Y86800000D02*
X79700000Y87300000D01*
X58820000Y95600000D02*
X58800000Y95620000D01*
X81225000Y87300000D02*
X81225000Y89125000D01*
X66800000Y95600000D02*
X66800000Y97300000D01*
X81225000Y85400000D02*
X79600000Y85400000D01*
X79700000Y87300000D02*
X81225000Y87300000D01*
D50*
%TO.N,Net-(D1-DOUT)*%
X4190000Y71590000D02*
X5300000Y72700000D01*
X5300000Y81884800D02*
X4104800Y83080000D01*
X5300000Y72700000D02*
X5300000Y81884800D01*
X3000000Y71590000D02*
X4190000Y71590000D01*
X4104800Y83080000D02*
X3000000Y83080000D01*
%TO.N,Net-(D1-DIN)*%
X7520000Y85230000D02*
X7550000Y85200000D01*
X3000000Y85230000D02*
X7520000Y85230000D01*
%TO.N,Net-(D2-DOUT)*%
X4104800Y69440000D02*
X3000000Y69440000D01*
X5300000Y68244800D02*
X4104800Y69440000D01*
X4150000Y57950000D02*
X5300000Y59100000D01*
X3000000Y57950000D02*
X4150000Y57950000D01*
X5300000Y59100000D02*
X5300000Y68244800D01*
%TO.N,Net-(D3-DOUT)*%
X3000000Y44310000D02*
X4410000Y44310000D01*
X4410000Y44310000D02*
X5300000Y45200000D01*
X5300000Y54604800D02*
X4104800Y55800000D01*
X5300000Y45200000D02*
X5300000Y54604800D01*
X4104800Y55800000D02*
X3000000Y55800000D01*
%TO.N,Net-(D4-DOUT)*%
X5300000Y40964800D02*
X4104800Y42160000D01*
X3000000Y30670000D02*
X4370000Y30670000D01*
X4370000Y30670000D02*
X5300000Y31600000D01*
X4104800Y42160000D02*
X3000000Y42160000D01*
X5300000Y31600000D02*
X5300000Y40964800D01*
%TO.N,Net-(D5-DOUT)*%
X4530000Y17030000D02*
X5300000Y17800000D01*
X5300000Y17800000D02*
X5300000Y27324800D01*
X5300000Y27324800D02*
X4104800Y28520000D01*
X3000000Y17030000D02*
X4530000Y17030000D01*
X4104800Y28520000D02*
X3000000Y28520000D01*
%TO.N,Net-(D6-DOUT)*%
X14270000Y10230000D02*
X14270000Y3000000D01*
X9620000Y14880000D02*
X14270000Y10230000D01*
X3000000Y14880000D02*
X9620000Y14880000D01*
%TO.N,Net-(D7-DOUT)*%
X16420000Y4104800D02*
X16420000Y3000000D01*
X27910000Y3000000D02*
X27910000Y3890000D01*
X17415200Y5100000D02*
X16420000Y4104800D01*
X26700000Y5100000D02*
X17415200Y5100000D01*
X27910000Y3890000D02*
X26700000Y5100000D01*
%TO.N,Net-(D8-DOUT)*%
X41550000Y3850000D02*
X40300000Y5100000D01*
X30060000Y4260000D02*
X30060000Y3000000D01*
X30900000Y5100000D02*
X30060000Y4260000D01*
X40300000Y5100000D02*
X30900000Y5100000D01*
X41550000Y3000000D02*
X41550000Y3850000D01*
%TO.N,Net-(D10-DIN)*%
X55190000Y4010000D02*
X54100000Y5100000D01*
X55190000Y3000000D02*
X55190000Y4010000D01*
X44695200Y5100000D02*
X43700000Y4104800D01*
X54100000Y5100000D02*
X44695200Y5100000D01*
X43700000Y4104800D02*
X43700000Y3000000D01*
%TO.N,Net-(D10-DOUT)*%
X57340000Y4104800D02*
X57340000Y3000000D01*
X68830000Y3000000D02*
X68830000Y4170000D01*
X67900000Y5100000D02*
X58335200Y5100000D01*
X58335200Y5100000D02*
X57340000Y4104800D01*
X68830000Y4170000D02*
X67900000Y5100000D01*
%TO.N,Net-(D11-DOUT)*%
X81800000Y5100000D02*
X71975200Y5100000D01*
X70980000Y4104800D02*
X70980000Y3000000D01*
X82470000Y3000000D02*
X82470000Y4430000D01*
X71975200Y5100000D02*
X70980000Y4104800D01*
X82470000Y4430000D02*
X81800000Y5100000D01*
%TO.N,Net-(D12-DOUT)*%
X84620000Y11080000D02*
X84620000Y3000000D01*
X87595000Y14095000D02*
X84600000Y11100000D01*
X84600000Y11100000D02*
X84620000Y11080000D01*
X97100000Y14095000D02*
X87595000Y14095000D01*
%TO.N,Net-(D13-DOUT)*%
X96135000Y27735000D02*
X95500000Y27100000D01*
X95500000Y16740200D02*
X95995200Y16245000D01*
X95500000Y27100000D02*
X95500000Y16740200D01*
X97100000Y27735000D02*
X96135000Y27735000D01*
X95995200Y16245000D02*
X97100000Y16245000D01*
%TO.N,Net-(D14-DOUT)*%
X95500000Y30380200D02*
X95995200Y29885000D01*
X95500000Y40600000D02*
X95500000Y30380200D01*
X97100000Y41375000D02*
X96275000Y41375000D01*
X96275000Y41375000D02*
X95500000Y40600000D01*
X95995200Y29885000D02*
X97100000Y29885000D01*
%TO.N,Net-(D15-DOUT)*%
X96115000Y55015000D02*
X95500000Y54400000D01*
X97100000Y55015000D02*
X96115000Y55015000D01*
X95500000Y44020200D02*
X95995200Y43525000D01*
X95500000Y54400000D02*
X95500000Y44020200D01*
X95995200Y43525000D02*
X97100000Y43525000D01*
%TO.N,Net-(D16-DOUT)*%
X96255000Y68655000D02*
X95500000Y67900000D01*
X95500000Y67900000D02*
X95500000Y57660200D01*
X95995200Y57165000D02*
X97100000Y57165000D01*
X95500000Y57660200D02*
X95995200Y57165000D01*
X97100000Y68655000D02*
X96255000Y68655000D01*
%TO.N,Net-(D17-DOUT)*%
X96095000Y70805000D02*
X97100000Y70805000D01*
X95500000Y71400000D02*
X96095000Y70805000D01*
X95500000Y81500000D02*
X95500000Y71400000D01*
X97100000Y82295000D02*
X96295000Y82295000D01*
X96295000Y82295000D02*
X95500000Y81500000D01*
D53*
%TO.N,Net-(D19-A)*%
X73250000Y95600000D02*
X73900000Y94950000D01*
X68200000Y95600000D02*
X73250000Y95600000D01*
D52*
%TO.N,SPI0_MISO*%
X34400000Y80800000D02*
X33700000Y80100000D01*
X27500000Y81000000D02*
X27500000Y83100000D01*
X34400000Y84700000D02*
X34400000Y80800000D01*
X35160000Y85460000D02*
X34400000Y84700000D01*
X41020000Y85460000D02*
X35160000Y85460000D01*
X28400000Y80100000D02*
X27500000Y81000000D01*
X33700000Y80100000D02*
X28400000Y80100000D01*
%TO.N,SPI0_SCK*%
X40980000Y77800000D02*
X41020000Y77840000D01*
X25300000Y80000000D02*
X27500000Y77800000D01*
X27500000Y77800000D02*
X40980000Y77800000D01*
X25300000Y83100000D02*
X25300000Y80000000D01*
%TO.N,SD_CS*%
X35420000Y82920000D02*
X35400000Y82900000D01*
X41020000Y82920000D02*
X35420000Y82920000D01*
X22000000Y83100000D02*
X22000000Y80000000D01*
%TO.N,SPI0_MOSI*%
X23100000Y78000000D02*
X25800000Y75300000D01*
X25800000Y75300000D02*
X41020000Y75300000D01*
X23100000Y83100000D02*
X23100000Y78000000D01*
D51*
%TO.N,LCD_RESET*%
X57850000Y23503200D02*
X54500000Y26853200D01*
X54500000Y68300000D02*
X52600000Y70200000D01*
X41040000Y70200000D02*
X41020000Y70220000D01*
X43900000Y70200000D02*
X41040000Y70200000D01*
X54500000Y52000000D02*
X54500000Y68300000D01*
X54500000Y26853200D02*
X54500000Y52000000D01*
X52600000Y70200000D02*
X45800000Y70200000D01*
X57850000Y22600000D02*
X57850000Y23503200D01*
%TO.N,SPI1_SCK*%
X41060000Y65100000D02*
X41020000Y65140000D01*
X44350000Y63750000D02*
X43000000Y65100000D01*
X43000000Y65100000D02*
X41060000Y65100000D01*
X44350000Y22600000D02*
X44350000Y63750000D01*
%TO.N,Net-(J2-Pin_1)*%
X62350000Y22600000D02*
X62350000Y19650000D01*
X62350000Y19650000D02*
X62200000Y19500000D01*
%TO.N,LCD_CS*%
X43850000Y22600000D02*
X43850000Y56450000D01*
X41040000Y57500000D02*
X41020000Y57520000D01*
X43850000Y56450000D02*
X42800000Y57500000D01*
X42800000Y57500000D02*
X41040000Y57500000D01*
%TO.N,LCD_DC*%
X44850000Y22600000D02*
X44850000Y71350000D01*
X44850000Y71350000D02*
X43500000Y72700000D01*
X43500000Y72700000D02*
X41080000Y72700000D01*
X41080000Y72700000D02*
X41020000Y72760000D01*
%TO.N,SPI1_MOSI*%
X45850000Y22600000D02*
X45850000Y62550000D01*
X42900000Y62600000D02*
X41020000Y62600000D01*
X45850000Y62550000D02*
X45800000Y62600000D01*
D53*
%TO.N,Net-(U1-LX)*%
X83500000Y87300000D02*
X86100000Y87300000D01*
X86100000Y87300000D02*
X86200000Y87400000D01*
D51*
%TO.N,RGB*%
X10560000Y52440000D02*
X9200000Y53800000D01*
X41020000Y52440000D02*
X10560000Y52440000D01*
X9200000Y53800000D02*
X9200000Y85200000D01*
D52*
%TO.N,I2S_DOUT*%
X19300000Y71500000D02*
X21190000Y69610000D01*
X19300000Y87300000D02*
X19300000Y71500000D01*
X41020000Y88000000D02*
X20000000Y88000000D01*
X20300000Y66000000D02*
X18900000Y66000000D01*
X21190000Y69610000D02*
X21190000Y66890000D01*
X18500000Y66400000D02*
X18500000Y67200000D01*
X21190000Y66890000D02*
X20300000Y66000000D01*
X22950000Y66890000D02*
X21190000Y66890000D01*
X20000000Y88000000D02*
X19300000Y87300000D01*
X18900000Y66000000D02*
X18500000Y66400000D01*
D51*
%TO.N,Net-(U4-~{SD_MODE})*%
X80562500Y73862500D02*
X80562500Y71312500D01*
X81000000Y74300000D02*
X80562500Y73862500D01*
X81925000Y74300000D02*
X81000000Y74300000D01*
D53*
%TO.N,Net-(SW1-B)*%
X76400000Y94950000D02*
X76400000Y81000000D01*
X76300000Y95050000D02*
X76400000Y94950000D01*
D51*
%TO.N,ENC1_B*%
X62700000Y38700000D02*
X77500000Y23900000D01*
X61560000Y52440000D02*
X62700000Y51300000D01*
X62700000Y51300000D02*
X62700000Y38700000D01*
X77500000Y23900000D02*
X77500000Y19900000D01*
X58800000Y52440000D02*
X61560000Y52440000D01*
%TO.N,ENC1_A*%
X72500000Y28300000D02*
X72500000Y19900000D01*
X58800000Y49900000D02*
X58800000Y42000000D01*
X58800000Y42000000D02*
X72500000Y28300000D01*
D52*
%TO.N,ENC1_SW*%
X68540000Y60060000D02*
X72500000Y56100000D01*
X58800000Y60060000D02*
X68540000Y60060000D01*
X72500000Y56100000D02*
X72500000Y34400000D01*
D51*
%TO.N,Net-(U4-GAIN_SLOT)*%
X77925000Y75300000D02*
X77912500Y75312500D01*
X81925000Y75300000D02*
X77925000Y75300000D01*
%TO.N,Net-(U4-OUTN)*%
X86400000Y74800000D02*
X87312500Y75712500D01*
X87312500Y75712500D02*
X88912500Y75712500D01*
X84800000Y74800000D02*
X86400000Y74800000D01*
%TO.N,Net-(U4-OUTP)*%
X86425000Y74300000D02*
X88912500Y71812500D01*
X84800000Y74300000D02*
X86425000Y74300000D01*
%TO.N,I2S_BCLK*%
X53000000Y86300000D02*
X53000000Y87460000D01*
D52*
X19560000Y98160000D02*
X18300000Y96900000D01*
X18300000Y71200000D02*
X19550000Y69950000D01*
D51*
X53000000Y87460000D02*
X42300000Y98160000D01*
D52*
X19550000Y69950000D02*
X19550000Y67200000D01*
X41020000Y98160000D02*
X19560000Y98160000D01*
D51*
X42300000Y98160000D02*
X41020000Y98160000D01*
X82612500Y76487500D02*
X82612500Y78987500D01*
X82612500Y78987500D02*
X80000000Y81600000D01*
D52*
X18300000Y96900000D02*
X18300000Y71200000D01*
D51*
%TO.N,I2S_LRCLK*%
X83612500Y79387500D02*
X80000000Y83000000D01*
X55600000Y85300000D02*
X52529789Y85300000D01*
D52*
X19420000Y95620000D02*
X19400000Y95600000D01*
X17450000Y95450000D02*
X17450000Y67200000D01*
D51*
X52529789Y85300000D02*
X42209789Y95620000D01*
D52*
X17300000Y95600000D02*
X17450000Y95450000D01*
D51*
X83612500Y76487500D02*
X83612500Y79387500D01*
X42209789Y95620000D02*
X41020000Y95620000D01*
D52*
X41020000Y95620000D02*
X19420000Y95620000D01*
D51*
%TO.N,I2S_DIN*%
X45960000Y90540000D02*
X53200000Y83300000D01*
X80700000Y75800000D02*
X80000000Y76500000D01*
X81925000Y75800000D02*
X80700000Y75800000D01*
X80000000Y76500000D02*
X80000000Y80200000D01*
X41020000Y90540000D02*
X45960000Y90540000D01*
%TD*%
M02*
