%TF.GenerationSoftware,KiCad,Pcbnew,8.0.3*%
%TF.CreationDate,2024-07-01T01:23:48-06:00*%
%TF.ProjectId,dc32,64633332-2e6b-4696-9361-645f70636258,1.0*%
%TF.SameCoordinates,PX7bb10a0PY836a940*%
%TF.FileFunction,Soldermask,Top*%
%TF.FilePolarity,Negative*%
%FSLAX46Y46*%
G04 Gerber Fmt 4.6, Leading zero omitted, Abs format (unit mm)*
G04 Created by KiCad (PCBNEW 8.0.3) date 2024-07-01 01:23:48*
%MOMM*%
%LPD*%
G01*
G04 APERTURE LIST*
G04 Aperture macros list*
%AMRoundRect*
0 Rectangle with rounded corners*
0 $1 Rounding radius*
0 $2 $3 $4 $5 $6 $7 $8 $9 X,Y pos of 4 corners*
0 Add a 4 corners polygon primitive as box body*
4,1,4,$2,$3,$4,$5,$6,$7,$8,$9,$2,$3,0*
0 Add four circle primitives for the rounded corners*
1,1,$1+$1,$2,$3*
1,1,$1+$1,$4,$5*
1,1,$1+$1,$6,$7*
1,1,$1+$1,$8,$9*
0 Add four rect primitives between the rounded corners*
20,1,$1+$1,$2,$3,$4,$5,0*
20,1,$1+$1,$4,$5,$6,$7,0*
20,1,$1+$1,$6,$7,$8,$9,0*
20,1,$1+$1,$8,$9,$2,$3,0*%
%AMFreePoly0*
4,1,9,0.275000,-0.800000,-0.275000,-0.800000,-0.275000,-0.400000,-0.725000,-0.400000,-0.725000,0.150000,-0.275000,0.150000,-0.275000,0.800000,0.275000,0.800000,0.275000,-0.800000,0.275000,-0.800000,$1*%
%AMFreePoly1*
4,1,9,0.275000,0.150000,0.725000,0.150000,0.725000,-0.400000,0.275000,-0.400000,0.275000,-0.800000,-0.275000,-0.800000,-0.275000,0.800000,0.275000,0.800000,0.275000,0.150000,0.275000,0.150000,$1*%
G04 Aperture macros list end*
%ADD10C,0.880000*%
%ADD11O,1.800000X1.800000*%
%ADD12O,1.500000X1.500000*%
%ADD13R,3.500000X1.700000*%
%ADD14R,1.700000X3.500000*%
%ADD15C,2.000000*%
%ADD16FreePoly0,90.000000*%
%ADD17R,1.600000X0.700000*%
%ADD18R,1.600000X0.450000*%
%ADD19FreePoly1,90.000000*%
%ADD20RoundRect,0.225000X-0.225000X-0.250000X0.225000X-0.250000X0.225000X0.250000X-0.225000X0.250000X0*%
%ADD21C,1.200000*%
%ADD22R,0.700000X1.600000*%
%ADD23R,1.200000X1.400000*%
%ADD24R,1.200000X2.200000*%
%ADD25R,1.600000X1.400000*%
%ADD26R,1.500000X1.500000*%
%ADD27RoundRect,0.150000X0.150000X0.200000X-0.150000X0.200000X-0.150000X-0.200000X0.150000X-0.200000X0*%
%ADD28RoundRect,0.250000X0.250000X0.475000X-0.250000X0.475000X-0.250000X-0.475000X0.250000X-0.475000X0*%
%ADD29FreePoly0,0.000000*%
%ADD30R,0.450000X1.600000*%
%ADD31FreePoly1,0.000000*%
%ADD32R,0.300000X1.300000*%
%ADD33R,1.800000X2.200000*%
%ADD34RoundRect,0.200000X-0.275000X0.200000X-0.275000X-0.200000X0.275000X-0.200000X0.275000X0.200000X0*%
%ADD35FreePoly0,270.000000*%
%ADD36FreePoly1,270.000000*%
%ADD37C,0.900000*%
%ADD38R,1.250000X2.500000*%
%ADD39O,3.200000X3.500000*%
%ADD40C,1.800000*%
%ADD41RoundRect,0.200000X-0.200000X-0.275000X0.200000X-0.275000X0.200000X0.275000X-0.200000X0.275000X0*%
%ADD42RoundRect,0.250000X-0.850000X0.375000X-0.850000X-0.375000X0.850000X-0.375000X0.850000X0.375000X0*%
%ADD43C,1.500000*%
%ADD44C,0.750000*%
%ADD45RoundRect,0.102000X-0.200000X-0.300000X0.200000X-0.300000X0.200000X0.300000X-0.200000X0.300000X0*%
%ADD46RoundRect,0.200000X0.200000X0.275000X-0.200000X0.275000X-0.200000X-0.275000X0.200000X-0.275000X0*%
%ADD47RoundRect,0.150000X-0.512500X-0.150000X0.512500X-0.150000X0.512500X0.150000X-0.512500X0.150000X0*%
%ADD48RoundRect,0.062500X-0.350000X-0.062500X0.350000X-0.062500X0.350000X0.062500X-0.350000X0.062500X0*%
%ADD49RoundRect,0.062500X-0.062500X-0.350000X0.062500X-0.350000X0.062500X0.350000X-0.062500X0.350000X0*%
%ADD50R,1.230000X1.230000*%
%ADD51RoundRect,0.225000X0.250000X-0.225000X0.250000X0.225000X-0.250000X0.225000X-0.250000X-0.225000X0*%
%ADD52C,0.800000*%
%ADD53C,6.400000*%
G04 APERTURE END LIST*
D10*
%TO.C,U2*%
X16830000Y65870000D02*
G75*
G02*
X15950000Y65870000I-440000J0D01*
G01*
X15950000Y65870000D02*
G75*
G02*
X16830000Y65870000I440000J0D01*
G01*
%TD*%
D11*
%TO.C,U3*%
X47185000Y98030000D03*
D12*
X47485000Y95000000D03*
X52335000Y95000000D03*
D11*
X52635000Y98030000D03*
D13*
X40120000Y98160000D03*
X40120000Y95620000D03*
X40120000Y93080000D03*
X40120000Y90540000D03*
X40120000Y88000000D03*
X40120000Y85460000D03*
X40120000Y82920000D03*
X40120000Y80380000D03*
X40120000Y77840000D03*
X40120000Y75300000D03*
X40120000Y72760000D03*
X40120000Y70220000D03*
X40120000Y67680000D03*
X40120000Y65140000D03*
X40120000Y62600000D03*
X40120000Y60060000D03*
X40120000Y57520000D03*
X40120000Y54980000D03*
X40120000Y52440000D03*
X40120000Y49900000D03*
X59700000Y49900000D03*
X59700000Y52440000D03*
X59700000Y54980000D03*
X59700000Y57520000D03*
X59700000Y60060000D03*
X59700000Y62600000D03*
X59700000Y65140000D03*
X59700000Y67680000D03*
X59700000Y70220000D03*
X59700000Y72760000D03*
X59700000Y75300000D03*
X59700000Y77840000D03*
X59700000Y80380000D03*
X59700000Y82920000D03*
X59700000Y85460000D03*
X59700000Y88000000D03*
X59700000Y90540000D03*
X59700000Y93080000D03*
X59700000Y95620000D03*
X59700000Y98160000D03*
D14*
X47370000Y49230000D03*
X49910000Y49230000D03*
X52450000Y49230000D03*
%TD*%
D15*
%TO.C,FID3*%
X9800000Y9100000D03*
%TD*%
D16*
%TO.C,D15*%
X97100000Y41375000D03*
D17*
X97100000Y42500000D03*
D18*
X97100000Y43525000D03*
D19*
X97100000Y44525000D03*
%TD*%
D20*
%TO.C,C5*%
X15800000Y60540000D03*
X17350000Y60540000D03*
%TD*%
D21*
%TO.C,J1*%
X28030000Y93600000D03*
X20050000Y93600000D03*
D22*
X20900000Y83100000D03*
X22000000Y83100000D03*
X23100000Y83100000D03*
X24200000Y83100000D03*
X25300000Y83100000D03*
X26400000Y83100000D03*
X27500000Y83100000D03*
X28600000Y83100000D03*
X29700000Y83100000D03*
D23*
X30850000Y83600000D03*
D24*
X30850000Y93200000D03*
D25*
X16250000Y83600000D03*
D24*
X15350000Y93200000D03*
%TD*%
D26*
%TO.C,TP3*%
X77912500Y75312500D03*
%TD*%
D16*
%TO.C,D17*%
X97100000Y68655000D03*
D17*
X97100000Y69780000D03*
D18*
X97100000Y70805000D03*
D19*
X97100000Y71805000D03*
%TD*%
D27*
%TO.C,D19*%
X66800000Y95600000D03*
X68200000Y95600000D03*
%TD*%
D28*
%TO.C,C1*%
X84150000Y83000000D03*
X82250000Y83000000D03*
%TD*%
D16*
%TO.C,D16*%
X97100000Y55015000D03*
D17*
X97100000Y56140000D03*
D18*
X97100000Y57165000D03*
D19*
X97100000Y58165000D03*
%TD*%
D16*
%TO.C,D18*%
X97100000Y82295000D03*
D17*
X97100000Y83420000D03*
D18*
X97100000Y84445000D03*
D19*
X97100000Y85445000D03*
%TD*%
D29*
%TO.C,D7*%
X14270000Y3000000D03*
D22*
X15395000Y3000000D03*
D30*
X16420000Y3000000D03*
D31*
X17420000Y3000000D03*
%TD*%
D32*
%TO.C,J2*%
X62350000Y22600000D03*
X61850000Y22600000D03*
X61350000Y22600000D03*
X60850000Y22600000D03*
X60350000Y22600000D03*
X59850000Y22600000D03*
X59350000Y22600000D03*
X58850000Y22600000D03*
X58350000Y22600000D03*
X57850000Y22600000D03*
X57350000Y22600000D03*
X56850000Y22600000D03*
X56350000Y22600000D03*
X55850000Y22600000D03*
X55350000Y22600000D03*
X54850000Y22600000D03*
X54350000Y22600000D03*
X53850000Y22600000D03*
X53350000Y22600000D03*
X52850000Y22600000D03*
X52350000Y22600000D03*
X51850000Y22600000D03*
X51350000Y22600000D03*
X50850000Y22600000D03*
X50350000Y22600000D03*
X49850000Y22600000D03*
X49350000Y22600000D03*
X48850000Y22600000D03*
X48350000Y22600000D03*
X47850000Y22600000D03*
X47350000Y22600000D03*
X46850000Y22600000D03*
X46350000Y22600000D03*
X45850000Y22600000D03*
X45350000Y22600000D03*
X44850000Y22600000D03*
X44350000Y22600000D03*
X43850000Y22600000D03*
X43350000Y22600000D03*
X42850000Y22600000D03*
X42350000Y22600000D03*
X41850000Y22600000D03*
X41350000Y22600000D03*
X40850000Y22600000D03*
X40350000Y22600000D03*
X39850000Y22600000D03*
X39350000Y22600000D03*
X38850000Y22600000D03*
X38350000Y22600000D03*
X37850000Y22600000D03*
D33*
X64250000Y25850000D03*
X35950000Y25850000D03*
%TD*%
D34*
%TO.C,R3*%
X22950000Y66890000D03*
X22950000Y65240000D03*
%TD*%
D35*
%TO.C,D6*%
X3000000Y17030000D03*
D17*
X3000000Y15905000D03*
D18*
X3000000Y14880000D03*
D36*
X3000000Y13880000D03*
%TD*%
D35*
%TO.C,D3*%
X3000000Y57950000D03*
D17*
X3000000Y56825000D03*
D18*
X3000000Y55800000D03*
D36*
X3000000Y54800000D03*
%TD*%
D29*
%TO.C,D11*%
X68830000Y3000000D03*
D22*
X69955000Y3000000D03*
D30*
X70980000Y3000000D03*
D31*
X71980000Y3000000D03*
%TD*%
D37*
%TO.C,SW1*%
X79800000Y97700000D03*
X73000000Y97700000D03*
D38*
X78900000Y94950000D03*
X76400000Y94950000D03*
X73900000Y94950000D03*
%TD*%
D15*
%TO.C,FID4*%
X90500000Y9100000D03*
%TD*%
D35*
%TO.C,D4*%
X3000000Y44310000D03*
D17*
X3000000Y43185000D03*
D18*
X3000000Y42160000D03*
D36*
X3000000Y41160000D03*
%TD*%
D39*
%TO.C,SW2*%
X69400000Y27400000D03*
X80600000Y27400000D03*
D40*
X72500000Y19900000D03*
X77500000Y19900000D03*
X75000000Y19900000D03*
X72500000Y34400000D03*
X77500000Y34400000D03*
%TD*%
D41*
%TO.C,R2*%
X60550000Y19500000D03*
X62200000Y19500000D03*
%TD*%
D15*
%TO.C,FID1*%
X10100000Y91400000D03*
%TD*%
D29*
%TO.C,D10*%
X55190000Y3000000D03*
D22*
X56315000Y3000000D03*
D30*
X57340000Y3000000D03*
D31*
X58340000Y3000000D03*
%TD*%
D42*
%TO.C,L1*%
X86200000Y87400000D03*
X86200000Y85250000D03*
%TD*%
D29*
%TO.C,D12*%
X82470000Y3000000D03*
D22*
X83595000Y3000000D03*
D30*
X84620000Y3000000D03*
D31*
X85620000Y3000000D03*
%TD*%
D43*
%TO.C,REF\u002A\u002A*%
X81400000Y50807696D03*
X87400000Y50807696D03*
X84400000Y52003848D03*
X82400000Y52539746D03*
X86400000Y52539746D03*
X79203848Y53003848D03*
X89596152Y53003848D03*
X80935898Y54003848D03*
X87864102Y54003848D03*
X83400000Y54271797D03*
X85400000Y54271797D03*
X80400000Y56003848D03*
X82400000Y56003848D03*
X84400000Y56003848D03*
X86400000Y56003848D03*
X88400000Y56003848D03*
X83400000Y57735899D03*
X85400000Y57735899D03*
X80935898Y58003848D03*
X87864102Y58003848D03*
X79203848Y59003848D03*
X89596152Y59003848D03*
X82400000Y59467950D03*
X86400000Y59467950D03*
X84400000Y60003848D03*
X81400000Y61200000D03*
X87400000Y61200000D03*
%TD*%
D44*
%TO.C,U2*%
X16390000Y65870000D03*
D45*
X19550000Y67200000D03*
X18500000Y67200000D03*
X17450000Y67200000D03*
X16400000Y67200000D03*
X16400000Y64540000D03*
X17450000Y64540000D03*
X18500000Y64540000D03*
X19550000Y64540000D03*
%TD*%
D20*
%TO.C,C4*%
X41050000Y19500000D03*
X42600000Y19500000D03*
%TD*%
%TO.C,C2*%
X80950000Y89400000D03*
X82500000Y89400000D03*
%TD*%
D29*
%TO.C,D9*%
X41550000Y3000000D03*
D22*
X42675000Y3000000D03*
D30*
X43700000Y3000000D03*
D31*
X44700000Y3000000D03*
%TD*%
D16*
%TO.C,D14*%
X97100000Y27735000D03*
D17*
X97100000Y28860000D03*
D18*
X97100000Y29885000D03*
D19*
X97100000Y30885000D03*
%TD*%
D35*
%TO.C,D1*%
X3000000Y85230000D03*
D17*
X3000000Y84105000D03*
D18*
X3000000Y83080000D03*
D36*
X3000000Y82080000D03*
%TD*%
D46*
%TO.C,R4*%
X82212500Y71312500D03*
X80562500Y71312500D03*
%TD*%
D47*
%TO.C,U1*%
X81225000Y87300000D03*
X81225000Y86350000D03*
X81225000Y85400000D03*
X83500000Y85400000D03*
X83500000Y87300000D03*
%TD*%
D26*
%TO.C,TP4*%
X88912500Y75712500D03*
%TD*%
D16*
%TO.C,D13*%
X97100000Y14095000D03*
D17*
X97100000Y15220000D03*
D18*
X97100000Y16245000D03*
D19*
X97100000Y17245000D03*
%TD*%
D26*
%TO.C,TP5*%
X88912500Y71812500D03*
%TD*%
D48*
%TO.C,U4*%
X81925000Y75800000D03*
X81925000Y75300000D03*
X81925000Y74800000D03*
X81925000Y74300000D03*
D49*
X82612500Y73612500D03*
X83112500Y73612500D03*
X83612500Y73612500D03*
X84112500Y73612500D03*
D48*
X84800000Y74300000D03*
X84800000Y74800000D03*
X84800000Y75300000D03*
X84800000Y75800000D03*
D49*
X84112500Y76487500D03*
X83612500Y76487500D03*
X83112500Y76487500D03*
X82612500Y76487500D03*
D50*
X83362500Y75050000D03*
%TD*%
D15*
%TO.C,FID2*%
X90100000Y91300000D03*
%TD*%
D20*
%TO.C,C6*%
X41050000Y17900000D03*
X42600000Y17900000D03*
%TD*%
D35*
%TO.C,D2*%
X3000000Y71590000D03*
D17*
X3000000Y70465000D03*
D18*
X3000000Y69440000D03*
D36*
X3000000Y68440000D03*
%TD*%
D51*
%TO.C,C3*%
X12750000Y65690000D03*
X12750000Y67240000D03*
%TD*%
D41*
%TO.C,R1*%
X7550000Y85200000D03*
X9200000Y85200000D03*
%TD*%
D35*
%TO.C,D5*%
X3000000Y30670000D03*
D17*
X3000000Y29545000D03*
D18*
X3000000Y28520000D03*
D36*
X3000000Y27520000D03*
%TD*%
D29*
%TO.C,D8*%
X27910000Y3000000D03*
D22*
X29035000Y3000000D03*
D30*
X30060000Y3000000D03*
D31*
X31060000Y3000000D03*
%TD*%
D52*
%TO.C,H4*%
X7400000Y5000000D03*
X6697056Y3302944D03*
X6697056Y6697056D03*
X5000000Y2600000D03*
D53*
X5000000Y5000000D03*
D52*
X5000000Y7400000D03*
X3302944Y3302944D03*
X3302944Y6697056D03*
X2600000Y5000000D03*
%TD*%
%TO.C,H1*%
X97400000Y95000000D03*
X96697056Y93302944D03*
X96697056Y96697056D03*
X95000000Y92600000D03*
D53*
X95000000Y95000000D03*
D52*
X95000000Y97400000D03*
X93302944Y93302944D03*
X93302944Y96697056D03*
X92600000Y95000000D03*
%TD*%
%TO.C,H3*%
X97400000Y5000000D03*
X96697056Y3302944D03*
X96697056Y6697056D03*
X95000000Y2600000D03*
D53*
X95000000Y5000000D03*
D52*
X95000000Y7400000D03*
X93302944Y3302944D03*
X93302944Y6697056D03*
X92600000Y5000000D03*
%TD*%
%TO.C,H2*%
X7400000Y95000000D03*
X6697056Y93302944D03*
X6697056Y96697056D03*
X5000000Y92600000D03*
D53*
X5000000Y95000000D03*
D52*
X5000000Y97400000D03*
X3302944Y93302944D03*
X3302944Y96697056D03*
X2600000Y95000000D03*
%TD*%
M02*
