%TF.GenerationSoftware,KiCad,Pcbnew,8.0.3*%
%TF.CreationDate,2024-06-20T00:15:16-06:00*%
%TF.ProjectId,dc32,64633332-2e6b-4696-9361-645f70636258,1.0*%
%TF.SameCoordinates,PX7bb10a0PY836a940*%
%TF.FileFunction,Drillmap*%
%TF.FilePolarity,Positive*%
%FSLAX45Y45*%
G04 Gerber Fmt 4.5, Leading zero omitted, Abs format (unit mm)*
G04 Created by KiCad (PCBNEW 8.0.3) date 2024-06-20 00:15:16*
%MOMM*%
%LPD*%
G01*
G04 APERTURE LIST*
%ADD10C,0.100000*%
%ADD11C,0.200000*%
%ADD12C,0.150000*%
%ADD13C,0.180000*%
G04 APERTURE END LIST*
D10*
X200000Y0D02*
X9800000Y0D01*
X8346297Y10122184D02*
G75*
G02*
X8198862Y10000289I-150147J31496D01*
G01*
X-460Y9800000D02*
G75*
G02*
X175642Y9998975I200460J0D01*
G01*
X8198862Y10000285D02*
X1850098Y10001935D01*
X10000000Y200000D02*
G75*
G02*
X9800000Y0I-200000J0D01*
G01*
X1200000Y10350000D02*
G75*
G02*
X800000Y10350000I-200000J0D01*
G01*
X800000Y10350000D02*
G75*
G02*
X1200000Y10350000I200000J0D01*
G01*
X290240Y10110927D02*
G75*
G02*
X1708475Y10118860I709760J-110927D01*
G01*
X290240Y10110927D02*
G75*
G02*
X175641Y9998980I-145380J34193D01*
G01*
X9871998Y9986591D02*
G75*
G02*
X10000000Y9800000I-71998J-186591D01*
G01*
X9871998Y9986591D02*
G75*
G02*
X9757400Y10098543I30782J146139D01*
G01*
X200000Y0D02*
G75*
G02*
X0Y200000I0J200000D01*
G01*
X10000000Y200000D02*
X10000000Y9800000D01*
X0Y9800000D02*
X0Y200000D01*
X1850098Y10001935D02*
G75*
G02*
X1708474Y10118859I2602J147385D01*
G01*
X9250000Y10350000D02*
G75*
G02*
X8850000Y10350000I-200000J0D01*
G01*
X8850000Y10350000D02*
G75*
G02*
X9250000Y10350000I200000J0D01*
G01*
X8346297Y10122184D02*
G75*
G02*
X9757401Y10098543I703703J-122184D01*
G01*
D11*
D10*
X1601500Y6624500D02*
X1676500Y6549500D01*
X1676500Y6624500D02*
X1601500Y6549500D01*
X7345000Y9770000D02*
G75*
G02*
X7255000Y9770000I-45000J0D01*
G01*
X7255000Y9770000D02*
G75*
G02*
X7345000Y9770000I45000J0D01*
G01*
X8025000Y9770000D02*
G75*
G02*
X7935000Y9770000I-45000J0D01*
G01*
X7935000Y9770000D02*
G75*
G02*
X8025000Y9770000I45000J0D01*
G01*
X2005000Y9410000D02*
X2005000Y9310000D01*
X1955000Y9360000D02*
X2055000Y9360000D01*
X2803000Y9410000D02*
X2803000Y9310000D01*
X2753000Y9360000D02*
X2853000Y9360000D01*
D12*
X4801534Y9446967D02*
X4801534Y9553034D01*
X4695467Y9553034D01*
X4695467Y9446967D01*
X4801534Y9446967D01*
X5286534Y9446967D02*
X5286534Y9553034D01*
X5180467Y9553034D01*
X5180467Y9446967D01*
X5286534Y9446967D01*
X7973418Y5847351D02*
X7973418Y5953418D01*
X7867351Y5953418D01*
X7867351Y5847351D01*
X7973418Y5847351D01*
X7973418Y5247351D02*
X7973418Y5353418D01*
X7867351Y5353418D01*
X7867351Y5247351D01*
X7973418Y5247351D01*
X8093033Y5547351D02*
X8093033Y5653418D01*
X7986966Y5653418D01*
X7986966Y5547351D01*
X8093033Y5547351D01*
X8146623Y5747351D02*
X8146623Y5853418D01*
X8040556Y5853418D01*
X8040556Y5747351D01*
X8146623Y5747351D01*
X8146623Y5347351D02*
X8146623Y5453418D01*
X8040556Y5453418D01*
X8040556Y5347351D01*
X8146623Y5347351D01*
X8193033Y6066966D02*
X8193033Y6173033D01*
X8086966Y6173033D01*
X8086966Y6066966D01*
X8193033Y6066966D01*
X8193033Y5027736D02*
X8193033Y5133803D01*
X8086966Y5133803D01*
X8086966Y5027736D01*
X8193033Y5027736D01*
X8293033Y5893761D02*
X8293033Y5999828D01*
X8186966Y5999828D01*
X8186966Y5893761D01*
X8293033Y5893761D01*
X8293033Y5547351D02*
X8293033Y5653418D01*
X8186966Y5653418D01*
X8186966Y5547351D01*
X8293033Y5547351D01*
X8293033Y5200941D02*
X8293033Y5307008D01*
X8186966Y5307008D01*
X8186966Y5200941D01*
X8293033Y5200941D01*
X8393034Y5720556D02*
X8393034Y5826623D01*
X8286966Y5826623D01*
X8286966Y5720556D01*
X8393034Y5720556D01*
X8393034Y5374146D02*
X8393034Y5480213D01*
X8286966Y5480213D01*
X8286966Y5374146D01*
X8393034Y5374146D01*
X8493034Y5947351D02*
X8493034Y6053418D01*
X8386966Y6053418D01*
X8386966Y5947351D01*
X8493034Y5947351D01*
X8493034Y5547351D02*
X8493034Y5653418D01*
X8386966Y5653418D01*
X8386966Y5547351D01*
X8493034Y5547351D01*
X8493034Y5147351D02*
X8493034Y5253418D01*
X8386966Y5253418D01*
X8386966Y5147351D01*
X8493034Y5147351D01*
X8593034Y5720556D02*
X8593034Y5826623D01*
X8486967Y5826623D01*
X8486967Y5720556D01*
X8593034Y5720556D01*
X8593034Y5374146D02*
X8593034Y5480213D01*
X8486967Y5480213D01*
X8486967Y5374146D01*
X8593034Y5374146D01*
X8693034Y5893761D02*
X8693034Y5999828D01*
X8586967Y5999828D01*
X8586967Y5893761D01*
X8693034Y5893761D01*
X8693034Y5547351D02*
X8693034Y5653418D01*
X8586967Y5653418D01*
X8586967Y5547351D01*
X8693034Y5547351D01*
X8693034Y5200941D02*
X8693034Y5307008D01*
X8586967Y5307008D01*
X8586967Y5200941D01*
X8693034Y5200941D01*
X8793034Y6066966D02*
X8793034Y6173033D01*
X8686967Y6173033D01*
X8686967Y6066966D01*
X8793034Y6066966D01*
X8793034Y5027736D02*
X8793034Y5133803D01*
X8686967Y5133803D01*
X8686967Y5027736D01*
X8793034Y5027736D01*
X8839444Y5747351D02*
X8839444Y5853418D01*
X8733377Y5853418D01*
X8733377Y5747351D01*
X8839444Y5747351D01*
X8839444Y5347351D02*
X8839444Y5453418D01*
X8733377Y5453418D01*
X8733377Y5347351D01*
X8839444Y5347351D01*
X8893034Y5547351D02*
X8893034Y5653418D01*
X8786967Y5653418D01*
X8786967Y5547351D01*
X8893034Y5547351D01*
X9012649Y5847351D02*
X9012649Y5953418D01*
X8906582Y5953418D01*
X8906582Y5847351D01*
X9012649Y5847351D01*
X9012649Y5247351D02*
X9012649Y5353418D01*
X8906582Y5353418D01*
X8906582Y5247351D01*
X9012649Y5247351D01*
D13*
X4718500Y9713000D02*
X4808500Y9803000D01*
X4718500Y9893000D01*
X4628500Y9803000D01*
X4718500Y9713000D01*
X5263500Y9713000D02*
X5353500Y9803000D01*
X5263500Y9893000D01*
X5173500Y9803000D01*
X5263500Y9713000D01*
D11*
X255317Y-316484D02*
X255317Y-116484D01*
X255317Y-116484D02*
X302936Y-116484D01*
X302936Y-116484D02*
X331507Y-126008D01*
X331507Y-126008D02*
X350555Y-145055D01*
X350555Y-145055D02*
X360079Y-164103D01*
X360079Y-164103D02*
X369602Y-202198D01*
X369602Y-202198D02*
X369602Y-230769D01*
X369602Y-230769D02*
X360079Y-268865D01*
X360079Y-268865D02*
X350555Y-287912D01*
X350555Y-287912D02*
X331507Y-306960D01*
X331507Y-306960D02*
X302936Y-316484D01*
X302936Y-316484D02*
X255317Y-316484D01*
X455317Y-316484D02*
X455317Y-183150D01*
X455317Y-221246D02*
X464840Y-202198D01*
X464840Y-202198D02*
X474364Y-192674D01*
X474364Y-192674D02*
X493412Y-183150D01*
X493412Y-183150D02*
X512460Y-183150D01*
X579126Y-316484D02*
X579126Y-183150D01*
X579126Y-116484D02*
X569602Y-126008D01*
X569602Y-126008D02*
X579126Y-135531D01*
X579126Y-135531D02*
X588650Y-126008D01*
X588650Y-126008D02*
X579126Y-116484D01*
X579126Y-116484D02*
X579126Y-135531D01*
X702936Y-316484D02*
X683888Y-306960D01*
X683888Y-306960D02*
X674364Y-287912D01*
X674364Y-287912D02*
X674364Y-116484D01*
X807698Y-316484D02*
X788650Y-306960D01*
X788650Y-306960D02*
X779126Y-287912D01*
X779126Y-287912D02*
X779126Y-116484D01*
X1036269Y-316484D02*
X1036269Y-116484D01*
X1036269Y-116484D02*
X1102936Y-259341D01*
X1102936Y-259341D02*
X1169602Y-116484D01*
X1169602Y-116484D02*
X1169602Y-316484D01*
X1350555Y-316484D02*
X1350555Y-211722D01*
X1350555Y-211722D02*
X1341031Y-192674D01*
X1341031Y-192674D02*
X1321983Y-183150D01*
X1321983Y-183150D02*
X1283888Y-183150D01*
X1283888Y-183150D02*
X1264841Y-192674D01*
X1350555Y-306960D02*
X1331507Y-316484D01*
X1331507Y-316484D02*
X1283888Y-316484D01*
X1283888Y-316484D02*
X1264841Y-306960D01*
X1264841Y-306960D02*
X1255317Y-287912D01*
X1255317Y-287912D02*
X1255317Y-268865D01*
X1255317Y-268865D02*
X1264841Y-249817D01*
X1264841Y-249817D02*
X1283888Y-240293D01*
X1283888Y-240293D02*
X1331507Y-240293D01*
X1331507Y-240293D02*
X1350555Y-230769D01*
X1445793Y-183150D02*
X1445793Y-383150D01*
X1445793Y-192674D02*
X1464840Y-183150D01*
X1464840Y-183150D02*
X1502936Y-183150D01*
X1502936Y-183150D02*
X1521983Y-192674D01*
X1521983Y-192674D02*
X1531507Y-202198D01*
X1531507Y-202198D02*
X1541031Y-221246D01*
X1541031Y-221246D02*
X1541031Y-278389D01*
X1541031Y-278389D02*
X1531507Y-297436D01*
X1531507Y-297436D02*
X1521983Y-306960D01*
X1521983Y-306960D02*
X1502936Y-316484D01*
X1502936Y-316484D02*
X1464840Y-316484D01*
X1464840Y-316484D02*
X1445793Y-306960D01*
X1626745Y-297436D02*
X1636269Y-306960D01*
X1636269Y-306960D02*
X1626745Y-316484D01*
X1626745Y-316484D02*
X1617221Y-306960D01*
X1617221Y-306960D02*
X1626745Y-297436D01*
X1626745Y-297436D02*
X1626745Y-316484D01*
X1626745Y-192674D02*
X1636269Y-202198D01*
X1636269Y-202198D02*
X1626745Y-211722D01*
X1626745Y-211722D02*
X1617221Y-202198D01*
X1617221Y-202198D02*
X1626745Y-192674D01*
X1626745Y-192674D02*
X1626745Y-211722D01*
D10*
X-80460Y-607500D02*
X-5460Y-682500D01*
X-5460Y-607500D02*
X-80460Y-682500D01*
D11*
X293412Y-536484D02*
X312460Y-536484D01*
X312460Y-536484D02*
X331507Y-546008D01*
X331507Y-546008D02*
X341031Y-555531D01*
X341031Y-555531D02*
X350555Y-574579D01*
X350555Y-574579D02*
X360079Y-612674D01*
X360079Y-612674D02*
X360079Y-660293D01*
X360079Y-660293D02*
X350555Y-698389D01*
X350555Y-698389D02*
X341031Y-717436D01*
X341031Y-717436D02*
X331507Y-726960D01*
X331507Y-726960D02*
X312460Y-736484D01*
X312460Y-736484D02*
X293412Y-736484D01*
X293412Y-736484D02*
X274364Y-726960D01*
X274364Y-726960D02*
X264841Y-717436D01*
X264841Y-717436D02*
X255317Y-698389D01*
X255317Y-698389D02*
X245793Y-660293D01*
X245793Y-660293D02*
X245793Y-612674D01*
X245793Y-612674D02*
X255317Y-574579D01*
X255317Y-574579D02*
X264841Y-555531D01*
X264841Y-555531D02*
X274364Y-546008D01*
X274364Y-546008D02*
X293412Y-536484D01*
X445793Y-717436D02*
X455317Y-726960D01*
X455317Y-726960D02*
X445793Y-736484D01*
X445793Y-736484D02*
X436269Y-726960D01*
X436269Y-726960D02*
X445793Y-717436D01*
X445793Y-717436D02*
X445793Y-736484D01*
X521983Y-536484D02*
X655317Y-536484D01*
X655317Y-536484D02*
X569602Y-736484D01*
X826745Y-536484D02*
X731507Y-536484D01*
X731507Y-536484D02*
X721983Y-631722D01*
X721983Y-631722D02*
X731507Y-622198D01*
X731507Y-622198D02*
X750555Y-612674D01*
X750555Y-612674D02*
X798174Y-612674D01*
X798174Y-612674D02*
X817221Y-622198D01*
X817221Y-622198D02*
X826745Y-631722D01*
X826745Y-631722D02*
X836269Y-650770D01*
X836269Y-650770D02*
X836269Y-698389D01*
X836269Y-698389D02*
X826745Y-717436D01*
X826745Y-717436D02*
X817221Y-726960D01*
X817221Y-726960D02*
X798174Y-736484D01*
X798174Y-736484D02*
X750555Y-736484D01*
X750555Y-736484D02*
X731507Y-726960D01*
X731507Y-726960D02*
X721983Y-717436D01*
X960079Y-536484D02*
X979126Y-536484D01*
X979126Y-536484D02*
X998174Y-546008D01*
X998174Y-546008D02*
X1007698Y-555531D01*
X1007698Y-555531D02*
X1017221Y-574579D01*
X1017221Y-574579D02*
X1026745Y-612674D01*
X1026745Y-612674D02*
X1026745Y-660293D01*
X1026745Y-660293D02*
X1017221Y-698389D01*
X1017221Y-698389D02*
X1007698Y-717436D01*
X1007698Y-717436D02*
X998174Y-726960D01*
X998174Y-726960D02*
X979126Y-736484D01*
X979126Y-736484D02*
X960079Y-736484D01*
X960079Y-736484D02*
X941031Y-726960D01*
X941031Y-726960D02*
X931507Y-717436D01*
X931507Y-717436D02*
X921983Y-698389D01*
X921983Y-698389D02*
X912460Y-660293D01*
X912460Y-660293D02*
X912460Y-612674D01*
X912460Y-612674D02*
X921983Y-574579D01*
X921983Y-574579D02*
X931507Y-555531D01*
X931507Y-555531D02*
X941031Y-546008D01*
X941031Y-546008D02*
X960079Y-536484D01*
X1112460Y-736484D02*
X1112460Y-603150D01*
X1112460Y-622198D02*
X1121983Y-612674D01*
X1121983Y-612674D02*
X1141031Y-603150D01*
X1141031Y-603150D02*
X1169603Y-603150D01*
X1169603Y-603150D02*
X1188650Y-612674D01*
X1188650Y-612674D02*
X1198174Y-631722D01*
X1198174Y-631722D02*
X1198174Y-736484D01*
X1198174Y-631722D02*
X1207698Y-612674D01*
X1207698Y-612674D02*
X1226745Y-603150D01*
X1226745Y-603150D02*
X1255317Y-603150D01*
X1255317Y-603150D02*
X1274364Y-612674D01*
X1274364Y-612674D02*
X1283888Y-631722D01*
X1283888Y-631722D02*
X1283888Y-736484D01*
X1379126Y-736484D02*
X1379126Y-603150D01*
X1379126Y-622198D02*
X1388650Y-612674D01*
X1388650Y-612674D02*
X1407698Y-603150D01*
X1407698Y-603150D02*
X1436269Y-603150D01*
X1436269Y-603150D02*
X1455317Y-612674D01*
X1455317Y-612674D02*
X1464841Y-631722D01*
X1464841Y-631722D02*
X1464841Y-736484D01*
X1464841Y-631722D02*
X1474364Y-612674D01*
X1474364Y-612674D02*
X1493412Y-603150D01*
X1493412Y-603150D02*
X1521983Y-603150D01*
X1521983Y-603150D02*
X1541031Y-612674D01*
X1541031Y-612674D02*
X1550555Y-631722D01*
X1550555Y-631722D02*
X1550555Y-736484D01*
X1941031Y-526960D02*
X1769603Y-784103D01*
X2198174Y-536484D02*
X2217222Y-536484D01*
X2217222Y-536484D02*
X2236269Y-546008D01*
X2236269Y-546008D02*
X2245793Y-555531D01*
X2245793Y-555531D02*
X2255317Y-574579D01*
X2255317Y-574579D02*
X2264841Y-612674D01*
X2264841Y-612674D02*
X2264841Y-660293D01*
X2264841Y-660293D02*
X2255317Y-698389D01*
X2255317Y-698389D02*
X2245793Y-717436D01*
X2245793Y-717436D02*
X2236269Y-726960D01*
X2236269Y-726960D02*
X2217222Y-736484D01*
X2217222Y-736484D02*
X2198174Y-736484D01*
X2198174Y-736484D02*
X2179126Y-726960D01*
X2179126Y-726960D02*
X2169603Y-717436D01*
X2169603Y-717436D02*
X2160079Y-698389D01*
X2160079Y-698389D02*
X2150555Y-660293D01*
X2150555Y-660293D02*
X2150555Y-612674D01*
X2150555Y-612674D02*
X2160079Y-574579D01*
X2160079Y-574579D02*
X2169603Y-555531D01*
X2169603Y-555531D02*
X2179126Y-546008D01*
X2179126Y-546008D02*
X2198174Y-536484D01*
X2350555Y-717436D02*
X2360079Y-726960D01*
X2360079Y-726960D02*
X2350555Y-736484D01*
X2350555Y-736484D02*
X2341031Y-726960D01*
X2341031Y-726960D02*
X2350555Y-717436D01*
X2350555Y-717436D02*
X2350555Y-736484D01*
X2483888Y-536484D02*
X2502936Y-536484D01*
X2502936Y-536484D02*
X2521984Y-546008D01*
X2521984Y-546008D02*
X2531507Y-555531D01*
X2531507Y-555531D02*
X2541031Y-574579D01*
X2541031Y-574579D02*
X2550555Y-612674D01*
X2550555Y-612674D02*
X2550555Y-660293D01*
X2550555Y-660293D02*
X2541031Y-698389D01*
X2541031Y-698389D02*
X2531507Y-717436D01*
X2531507Y-717436D02*
X2521984Y-726960D01*
X2521984Y-726960D02*
X2502936Y-736484D01*
X2502936Y-736484D02*
X2483888Y-736484D01*
X2483888Y-736484D02*
X2464841Y-726960D01*
X2464841Y-726960D02*
X2455317Y-717436D01*
X2455317Y-717436D02*
X2445793Y-698389D01*
X2445793Y-698389D02*
X2436269Y-660293D01*
X2436269Y-660293D02*
X2436269Y-612674D01*
X2436269Y-612674D02*
X2445793Y-574579D01*
X2445793Y-574579D02*
X2455317Y-555531D01*
X2455317Y-555531D02*
X2464841Y-546008D01*
X2464841Y-546008D02*
X2483888Y-536484D01*
X2626746Y-555531D02*
X2636269Y-546008D01*
X2636269Y-546008D02*
X2655317Y-536484D01*
X2655317Y-536484D02*
X2702936Y-536484D01*
X2702936Y-536484D02*
X2721984Y-546008D01*
X2721984Y-546008D02*
X2731507Y-555531D01*
X2731507Y-555531D02*
X2741031Y-574579D01*
X2741031Y-574579D02*
X2741031Y-593627D01*
X2741031Y-593627D02*
X2731507Y-622198D01*
X2731507Y-622198D02*
X2617222Y-736484D01*
X2617222Y-736484D02*
X2741031Y-736484D01*
X2836269Y-736484D02*
X2874364Y-736484D01*
X2874364Y-736484D02*
X2893412Y-726960D01*
X2893412Y-726960D02*
X2902936Y-717436D01*
X2902936Y-717436D02*
X2921984Y-688865D01*
X2921984Y-688865D02*
X2931507Y-650770D01*
X2931507Y-650770D02*
X2931507Y-574579D01*
X2931507Y-574579D02*
X2921984Y-555531D01*
X2921984Y-555531D02*
X2912460Y-546008D01*
X2912460Y-546008D02*
X2893412Y-536484D01*
X2893412Y-536484D02*
X2855317Y-536484D01*
X2855317Y-536484D02*
X2836269Y-546008D01*
X2836269Y-546008D02*
X2826745Y-555531D01*
X2826745Y-555531D02*
X2817222Y-574579D01*
X2817222Y-574579D02*
X2817222Y-622198D01*
X2817222Y-622198D02*
X2826745Y-641246D01*
X2826745Y-641246D02*
X2836269Y-650770D01*
X2836269Y-650770D02*
X2855317Y-660293D01*
X2855317Y-660293D02*
X2893412Y-660293D01*
X2893412Y-660293D02*
X2912460Y-650770D01*
X2912460Y-650770D02*
X2921984Y-641246D01*
X2921984Y-641246D02*
X2931507Y-622198D01*
X3112460Y-536484D02*
X3017222Y-536484D01*
X3017222Y-536484D02*
X3007698Y-631722D01*
X3007698Y-631722D02*
X3017222Y-622198D01*
X3017222Y-622198D02*
X3036269Y-612674D01*
X3036269Y-612674D02*
X3083888Y-612674D01*
X3083888Y-612674D02*
X3102936Y-622198D01*
X3102936Y-622198D02*
X3112460Y-631722D01*
X3112460Y-631722D02*
X3121984Y-650770D01*
X3121984Y-650770D02*
X3121984Y-698389D01*
X3121984Y-698389D02*
X3112460Y-717436D01*
X3112460Y-717436D02*
X3102936Y-726960D01*
X3102936Y-726960D02*
X3083888Y-736484D01*
X3083888Y-736484D02*
X3036269Y-736484D01*
X3036269Y-736484D02*
X3017222Y-726960D01*
X3017222Y-726960D02*
X3007698Y-717436D01*
X3198174Y-536484D02*
X3198174Y-574579D01*
X3274365Y-536484D02*
X3274365Y-574579D01*
X3569603Y-812674D02*
X3560079Y-803150D01*
X3560079Y-803150D02*
X3541031Y-774579D01*
X3541031Y-774579D02*
X3531507Y-755531D01*
X3531507Y-755531D02*
X3521984Y-726960D01*
X3521984Y-726960D02*
X3512460Y-679341D01*
X3512460Y-679341D02*
X3512460Y-641246D01*
X3512460Y-641246D02*
X3521984Y-593627D01*
X3521984Y-593627D02*
X3531507Y-565055D01*
X3531507Y-565055D02*
X3541031Y-546008D01*
X3541031Y-546008D02*
X3560079Y-517436D01*
X3560079Y-517436D02*
X3569603Y-507912D01*
X3750555Y-736484D02*
X3636269Y-736484D01*
X3693412Y-736484D02*
X3693412Y-536484D01*
X3693412Y-536484D02*
X3674365Y-565055D01*
X3674365Y-565055D02*
X3655317Y-584103D01*
X3655317Y-584103D02*
X3636269Y-593627D01*
X3988650Y-736484D02*
X3988650Y-536484D01*
X4074365Y-736484D02*
X4074365Y-631722D01*
X4074365Y-631722D02*
X4064841Y-612674D01*
X4064841Y-612674D02*
X4045793Y-603150D01*
X4045793Y-603150D02*
X4017222Y-603150D01*
X4017222Y-603150D02*
X3998174Y-612674D01*
X3998174Y-612674D02*
X3988650Y-622198D01*
X4198174Y-736484D02*
X4179127Y-726960D01*
X4179127Y-726960D02*
X4169603Y-717436D01*
X4169603Y-717436D02*
X4160079Y-698389D01*
X4160079Y-698389D02*
X4160079Y-641246D01*
X4160079Y-641246D02*
X4169603Y-622198D01*
X4169603Y-622198D02*
X4179127Y-612674D01*
X4179127Y-612674D02*
X4198174Y-603150D01*
X4198174Y-603150D02*
X4226746Y-603150D01*
X4226746Y-603150D02*
X4245793Y-612674D01*
X4245793Y-612674D02*
X4255317Y-622198D01*
X4255317Y-622198D02*
X4264841Y-641246D01*
X4264841Y-641246D02*
X4264841Y-698389D01*
X4264841Y-698389D02*
X4255317Y-717436D01*
X4255317Y-717436D02*
X4245793Y-726960D01*
X4245793Y-726960D02*
X4226746Y-736484D01*
X4226746Y-736484D02*
X4198174Y-736484D01*
X4379127Y-736484D02*
X4360079Y-726960D01*
X4360079Y-726960D02*
X4350555Y-707912D01*
X4350555Y-707912D02*
X4350555Y-536484D01*
X4531508Y-726960D02*
X4512460Y-736484D01*
X4512460Y-736484D02*
X4474365Y-736484D01*
X4474365Y-736484D02*
X4455317Y-726960D01*
X4455317Y-726960D02*
X4445793Y-707912D01*
X4445793Y-707912D02*
X4445793Y-631722D01*
X4445793Y-631722D02*
X4455317Y-612674D01*
X4455317Y-612674D02*
X4474365Y-603150D01*
X4474365Y-603150D02*
X4512460Y-603150D01*
X4512460Y-603150D02*
X4531508Y-612674D01*
X4531508Y-612674D02*
X4541031Y-631722D01*
X4541031Y-631722D02*
X4541031Y-650770D01*
X4541031Y-650770D02*
X4445793Y-669817D01*
X4607698Y-812674D02*
X4617222Y-803150D01*
X4617222Y-803150D02*
X4636270Y-774579D01*
X4636270Y-774579D02*
X4645793Y-755531D01*
X4645793Y-755531D02*
X4655317Y-726960D01*
X4655317Y-726960D02*
X4664841Y-679341D01*
X4664841Y-679341D02*
X4664841Y-641246D01*
X4664841Y-641246D02*
X4655317Y-593627D01*
X4655317Y-593627D02*
X4645793Y-565055D01*
X4645793Y-565055D02*
X4636270Y-546008D01*
X4636270Y-546008D02*
X4617222Y-517436D01*
X4617222Y-517436D02*
X4607698Y-507912D01*
X4969603Y-812674D02*
X4960079Y-803150D01*
X4960079Y-803150D02*
X4941031Y-774579D01*
X4941031Y-774579D02*
X4931508Y-755531D01*
X4931508Y-755531D02*
X4921984Y-726960D01*
X4921984Y-726960D02*
X4912460Y-679341D01*
X4912460Y-679341D02*
X4912460Y-641246D01*
X4912460Y-641246D02*
X4921984Y-593627D01*
X4921984Y-593627D02*
X4931508Y-565055D01*
X4931508Y-565055D02*
X4941031Y-546008D01*
X4941031Y-546008D02*
X4960079Y-517436D01*
X4960079Y-517436D02*
X4969603Y-507912D01*
X5045793Y-603150D02*
X5045793Y-736484D01*
X5045793Y-622198D02*
X5055317Y-612674D01*
X5055317Y-612674D02*
X5074365Y-603150D01*
X5074365Y-603150D02*
X5102936Y-603150D01*
X5102936Y-603150D02*
X5121984Y-612674D01*
X5121984Y-612674D02*
X5131508Y-631722D01*
X5131508Y-631722D02*
X5131508Y-736484D01*
X5255317Y-736484D02*
X5236270Y-726960D01*
X5236270Y-726960D02*
X5226746Y-717436D01*
X5226746Y-717436D02*
X5217222Y-698389D01*
X5217222Y-698389D02*
X5217222Y-641246D01*
X5217222Y-641246D02*
X5226746Y-622198D01*
X5226746Y-622198D02*
X5236270Y-612674D01*
X5236270Y-612674D02*
X5255317Y-603150D01*
X5255317Y-603150D02*
X5283889Y-603150D01*
X5283889Y-603150D02*
X5302936Y-612674D01*
X5302936Y-612674D02*
X5312460Y-622198D01*
X5312460Y-622198D02*
X5321984Y-641246D01*
X5321984Y-641246D02*
X5321984Y-698389D01*
X5321984Y-698389D02*
X5312460Y-717436D01*
X5312460Y-717436D02*
X5302936Y-726960D01*
X5302936Y-726960D02*
X5283889Y-736484D01*
X5283889Y-736484D02*
X5255317Y-736484D01*
X5379127Y-603150D02*
X5455317Y-603150D01*
X5407698Y-536484D02*
X5407698Y-707912D01*
X5407698Y-707912D02*
X5417222Y-726960D01*
X5417222Y-726960D02*
X5436270Y-736484D01*
X5436270Y-736484D02*
X5455317Y-736484D01*
X5674365Y-603150D02*
X5674365Y-803150D01*
X5674365Y-612674D02*
X5693412Y-603150D01*
X5693412Y-603150D02*
X5731508Y-603150D01*
X5731508Y-603150D02*
X5750555Y-612674D01*
X5750555Y-612674D02*
X5760079Y-622198D01*
X5760079Y-622198D02*
X5769603Y-641246D01*
X5769603Y-641246D02*
X5769603Y-698389D01*
X5769603Y-698389D02*
X5760079Y-717436D01*
X5760079Y-717436D02*
X5750555Y-726960D01*
X5750555Y-726960D02*
X5731508Y-736484D01*
X5731508Y-736484D02*
X5693412Y-736484D01*
X5693412Y-736484D02*
X5674365Y-726960D01*
X5883889Y-736484D02*
X5864841Y-726960D01*
X5864841Y-726960D02*
X5855317Y-707912D01*
X5855317Y-707912D02*
X5855317Y-536484D01*
X6045793Y-736484D02*
X6045793Y-631722D01*
X6045793Y-631722D02*
X6036270Y-612674D01*
X6036270Y-612674D02*
X6017222Y-603150D01*
X6017222Y-603150D02*
X5979127Y-603150D01*
X5979127Y-603150D02*
X5960079Y-612674D01*
X6045793Y-726960D02*
X6026746Y-736484D01*
X6026746Y-736484D02*
X5979127Y-736484D01*
X5979127Y-736484D02*
X5960079Y-726960D01*
X5960079Y-726960D02*
X5950555Y-707912D01*
X5950555Y-707912D02*
X5950555Y-688865D01*
X5950555Y-688865D02*
X5960079Y-669817D01*
X5960079Y-669817D02*
X5979127Y-660293D01*
X5979127Y-660293D02*
X6026746Y-660293D01*
X6026746Y-660293D02*
X6045793Y-650770D01*
X6112460Y-603150D02*
X6188650Y-603150D01*
X6141031Y-536484D02*
X6141031Y-707912D01*
X6141031Y-707912D02*
X6150555Y-726960D01*
X6150555Y-726960D02*
X6169603Y-736484D01*
X6169603Y-736484D02*
X6188650Y-736484D01*
X6331508Y-726960D02*
X6312460Y-736484D01*
X6312460Y-736484D02*
X6274365Y-736484D01*
X6274365Y-736484D02*
X6255317Y-726960D01*
X6255317Y-726960D02*
X6245793Y-707912D01*
X6245793Y-707912D02*
X6245793Y-631722D01*
X6245793Y-631722D02*
X6255317Y-612674D01*
X6255317Y-612674D02*
X6274365Y-603150D01*
X6274365Y-603150D02*
X6312460Y-603150D01*
X6312460Y-603150D02*
X6331508Y-612674D01*
X6331508Y-612674D02*
X6341031Y-631722D01*
X6341031Y-631722D02*
X6341031Y-650770D01*
X6341031Y-650770D02*
X6245793Y-669817D01*
X6512460Y-736484D02*
X6512460Y-536484D01*
X6512460Y-726960D02*
X6493412Y-736484D01*
X6493412Y-736484D02*
X6455317Y-736484D01*
X6455317Y-736484D02*
X6436270Y-726960D01*
X6436270Y-726960D02*
X6426746Y-717436D01*
X6426746Y-717436D02*
X6417222Y-698389D01*
X6417222Y-698389D02*
X6417222Y-641246D01*
X6417222Y-641246D02*
X6426746Y-622198D01*
X6426746Y-622198D02*
X6436270Y-612674D01*
X6436270Y-612674D02*
X6455317Y-603150D01*
X6455317Y-603150D02*
X6493412Y-603150D01*
X6493412Y-603150D02*
X6512460Y-612674D01*
X6588651Y-812674D02*
X6598174Y-803150D01*
X6598174Y-803150D02*
X6617222Y-774579D01*
X6617222Y-774579D02*
X6626746Y-755531D01*
X6626746Y-755531D02*
X6636270Y-726960D01*
X6636270Y-726960D02*
X6645793Y-679341D01*
X6645793Y-679341D02*
X6645793Y-641246D01*
X6645793Y-641246D02*
X6636270Y-593627D01*
X6636270Y-593627D02*
X6626746Y-565055D01*
X6626746Y-565055D02*
X6617222Y-546008D01*
X6617222Y-546008D02*
X6598174Y-517436D01*
X6598174Y-517436D02*
X6588651Y-507912D01*
D10*
X-5460Y-909000D02*
G75*
G02*
X-95460Y-909000I-45000J0D01*
G01*
X-95460Y-909000D02*
G75*
G02*
X-5460Y-909000I45000J0D01*
G01*
D11*
X293412Y-800484D02*
X312460Y-800484D01*
X312460Y-800484D02*
X331507Y-810008D01*
X331507Y-810008D02*
X341031Y-819531D01*
X341031Y-819531D02*
X350555Y-838579D01*
X350555Y-838579D02*
X360079Y-876674D01*
X360079Y-876674D02*
X360079Y-924293D01*
X360079Y-924293D02*
X350555Y-962388D01*
X350555Y-962388D02*
X341031Y-981436D01*
X341031Y-981436D02*
X331507Y-990960D01*
X331507Y-990960D02*
X312460Y-1000484D01*
X312460Y-1000484D02*
X293412Y-1000484D01*
X293412Y-1000484D02*
X274364Y-990960D01*
X274364Y-990960D02*
X264841Y-981436D01*
X264841Y-981436D02*
X255317Y-962388D01*
X255317Y-962388D02*
X245793Y-924293D01*
X245793Y-924293D02*
X245793Y-876674D01*
X245793Y-876674D02*
X255317Y-838579D01*
X255317Y-838579D02*
X264841Y-819531D01*
X264841Y-819531D02*
X274364Y-810008D01*
X274364Y-810008D02*
X293412Y-800484D01*
X445793Y-981436D02*
X455317Y-990960D01*
X455317Y-990960D02*
X445793Y-1000484D01*
X445793Y-1000484D02*
X436269Y-990960D01*
X436269Y-990960D02*
X445793Y-981436D01*
X445793Y-981436D02*
X445793Y-1000484D01*
X550555Y-1000484D02*
X588650Y-1000484D01*
X588650Y-1000484D02*
X607698Y-990960D01*
X607698Y-990960D02*
X617222Y-981436D01*
X617222Y-981436D02*
X636269Y-952865D01*
X636269Y-952865D02*
X645793Y-914769D01*
X645793Y-914769D02*
X645793Y-838579D01*
X645793Y-838579D02*
X636269Y-819531D01*
X636269Y-819531D02*
X626745Y-810008D01*
X626745Y-810008D02*
X607698Y-800484D01*
X607698Y-800484D02*
X569602Y-800484D01*
X569602Y-800484D02*
X550555Y-810008D01*
X550555Y-810008D02*
X541031Y-819531D01*
X541031Y-819531D02*
X531507Y-838579D01*
X531507Y-838579D02*
X531507Y-886198D01*
X531507Y-886198D02*
X541031Y-905246D01*
X541031Y-905246D02*
X550555Y-914769D01*
X550555Y-914769D02*
X569602Y-924293D01*
X569602Y-924293D02*
X607698Y-924293D01*
X607698Y-924293D02*
X626745Y-914769D01*
X626745Y-914769D02*
X636269Y-905246D01*
X636269Y-905246D02*
X645793Y-886198D01*
X769602Y-800484D02*
X788650Y-800484D01*
X788650Y-800484D02*
X807698Y-810008D01*
X807698Y-810008D02*
X817221Y-819531D01*
X817221Y-819531D02*
X826745Y-838579D01*
X826745Y-838579D02*
X836269Y-876674D01*
X836269Y-876674D02*
X836269Y-924293D01*
X836269Y-924293D02*
X826745Y-962388D01*
X826745Y-962388D02*
X817221Y-981436D01*
X817221Y-981436D02*
X807698Y-990960D01*
X807698Y-990960D02*
X788650Y-1000484D01*
X788650Y-1000484D02*
X769602Y-1000484D01*
X769602Y-1000484D02*
X750555Y-990960D01*
X750555Y-990960D02*
X741031Y-981436D01*
X741031Y-981436D02*
X731507Y-962388D01*
X731507Y-962388D02*
X721983Y-924293D01*
X721983Y-924293D02*
X721983Y-876674D01*
X721983Y-876674D02*
X731507Y-838579D01*
X731507Y-838579D02*
X741031Y-819531D01*
X741031Y-819531D02*
X750555Y-810008D01*
X750555Y-810008D02*
X769602Y-800484D01*
X960079Y-800484D02*
X979126Y-800484D01*
X979126Y-800484D02*
X998174Y-810008D01*
X998174Y-810008D02*
X1007698Y-819531D01*
X1007698Y-819531D02*
X1017221Y-838579D01*
X1017221Y-838579D02*
X1026745Y-876674D01*
X1026745Y-876674D02*
X1026745Y-924293D01*
X1026745Y-924293D02*
X1017221Y-962388D01*
X1017221Y-962388D02*
X1007698Y-981436D01*
X1007698Y-981436D02*
X998174Y-990960D01*
X998174Y-990960D02*
X979126Y-1000484D01*
X979126Y-1000484D02*
X960079Y-1000484D01*
X960079Y-1000484D02*
X941031Y-990960D01*
X941031Y-990960D02*
X931507Y-981436D01*
X931507Y-981436D02*
X921983Y-962388D01*
X921983Y-962388D02*
X912460Y-924293D01*
X912460Y-924293D02*
X912460Y-876674D01*
X912460Y-876674D02*
X921983Y-838579D01*
X921983Y-838579D02*
X931507Y-819531D01*
X931507Y-819531D02*
X941031Y-810008D01*
X941031Y-810008D02*
X960079Y-800484D01*
X1112460Y-1000484D02*
X1112460Y-867150D01*
X1112460Y-886198D02*
X1121983Y-876674D01*
X1121983Y-876674D02*
X1141031Y-867150D01*
X1141031Y-867150D02*
X1169603Y-867150D01*
X1169603Y-867150D02*
X1188650Y-876674D01*
X1188650Y-876674D02*
X1198174Y-895722D01*
X1198174Y-895722D02*
X1198174Y-1000484D01*
X1198174Y-895722D02*
X1207698Y-876674D01*
X1207698Y-876674D02*
X1226745Y-867150D01*
X1226745Y-867150D02*
X1255317Y-867150D01*
X1255317Y-867150D02*
X1274364Y-876674D01*
X1274364Y-876674D02*
X1283888Y-895722D01*
X1283888Y-895722D02*
X1283888Y-1000484D01*
X1379126Y-1000484D02*
X1379126Y-867150D01*
X1379126Y-886198D02*
X1388650Y-876674D01*
X1388650Y-876674D02*
X1407698Y-867150D01*
X1407698Y-867150D02*
X1436269Y-867150D01*
X1436269Y-867150D02*
X1455317Y-876674D01*
X1455317Y-876674D02*
X1464841Y-895722D01*
X1464841Y-895722D02*
X1464841Y-1000484D01*
X1464841Y-895722D02*
X1474364Y-876674D01*
X1474364Y-876674D02*
X1493412Y-867150D01*
X1493412Y-867150D02*
X1521983Y-867150D01*
X1521983Y-867150D02*
X1541031Y-876674D01*
X1541031Y-876674D02*
X1550555Y-895722D01*
X1550555Y-895722D02*
X1550555Y-1000484D01*
X1941031Y-790960D02*
X1769603Y-1048103D01*
X2198174Y-800484D02*
X2217222Y-800484D01*
X2217222Y-800484D02*
X2236269Y-810008D01*
X2236269Y-810008D02*
X2245793Y-819531D01*
X2245793Y-819531D02*
X2255317Y-838579D01*
X2255317Y-838579D02*
X2264841Y-876674D01*
X2264841Y-876674D02*
X2264841Y-924293D01*
X2264841Y-924293D02*
X2255317Y-962388D01*
X2255317Y-962388D02*
X2245793Y-981436D01*
X2245793Y-981436D02*
X2236269Y-990960D01*
X2236269Y-990960D02*
X2217222Y-1000484D01*
X2217222Y-1000484D02*
X2198174Y-1000484D01*
X2198174Y-1000484D02*
X2179126Y-990960D01*
X2179126Y-990960D02*
X2169603Y-981436D01*
X2169603Y-981436D02*
X2160079Y-962388D01*
X2160079Y-962388D02*
X2150555Y-924293D01*
X2150555Y-924293D02*
X2150555Y-876674D01*
X2150555Y-876674D02*
X2160079Y-838579D01*
X2160079Y-838579D02*
X2169603Y-819531D01*
X2169603Y-819531D02*
X2179126Y-810008D01*
X2179126Y-810008D02*
X2198174Y-800484D01*
X2350555Y-981436D02*
X2360079Y-990960D01*
X2360079Y-990960D02*
X2350555Y-1000484D01*
X2350555Y-1000484D02*
X2341031Y-990960D01*
X2341031Y-990960D02*
X2350555Y-981436D01*
X2350555Y-981436D02*
X2350555Y-1000484D01*
X2483888Y-800484D02*
X2502936Y-800484D01*
X2502936Y-800484D02*
X2521984Y-810008D01*
X2521984Y-810008D02*
X2531507Y-819531D01*
X2531507Y-819531D02*
X2541031Y-838579D01*
X2541031Y-838579D02*
X2550555Y-876674D01*
X2550555Y-876674D02*
X2550555Y-924293D01*
X2550555Y-924293D02*
X2541031Y-962388D01*
X2541031Y-962388D02*
X2531507Y-981436D01*
X2531507Y-981436D02*
X2521984Y-990960D01*
X2521984Y-990960D02*
X2502936Y-1000484D01*
X2502936Y-1000484D02*
X2483888Y-1000484D01*
X2483888Y-1000484D02*
X2464841Y-990960D01*
X2464841Y-990960D02*
X2455317Y-981436D01*
X2455317Y-981436D02*
X2445793Y-962388D01*
X2445793Y-962388D02*
X2436269Y-924293D01*
X2436269Y-924293D02*
X2436269Y-876674D01*
X2436269Y-876674D02*
X2445793Y-838579D01*
X2445793Y-838579D02*
X2455317Y-819531D01*
X2455317Y-819531D02*
X2464841Y-810008D01*
X2464841Y-810008D02*
X2483888Y-800484D01*
X2617222Y-800484D02*
X2741031Y-800484D01*
X2741031Y-800484D02*
X2674365Y-876674D01*
X2674365Y-876674D02*
X2702936Y-876674D01*
X2702936Y-876674D02*
X2721984Y-886198D01*
X2721984Y-886198D02*
X2731507Y-895722D01*
X2731507Y-895722D02*
X2741031Y-914769D01*
X2741031Y-914769D02*
X2741031Y-962388D01*
X2741031Y-962388D02*
X2731507Y-981436D01*
X2731507Y-981436D02*
X2721984Y-990960D01*
X2721984Y-990960D02*
X2702936Y-1000484D01*
X2702936Y-1000484D02*
X2645793Y-1000484D01*
X2645793Y-1000484D02*
X2626746Y-990960D01*
X2626746Y-990960D02*
X2617222Y-981436D01*
X2921984Y-800484D02*
X2826745Y-800484D01*
X2826745Y-800484D02*
X2817222Y-895722D01*
X2817222Y-895722D02*
X2826745Y-886198D01*
X2826745Y-886198D02*
X2845793Y-876674D01*
X2845793Y-876674D02*
X2893412Y-876674D01*
X2893412Y-876674D02*
X2912460Y-886198D01*
X2912460Y-886198D02*
X2921984Y-895722D01*
X2921984Y-895722D02*
X2931507Y-914769D01*
X2931507Y-914769D02*
X2931507Y-962388D01*
X2931507Y-962388D02*
X2921984Y-981436D01*
X2921984Y-981436D02*
X2912460Y-990960D01*
X2912460Y-990960D02*
X2893412Y-1000484D01*
X2893412Y-1000484D02*
X2845793Y-1000484D01*
X2845793Y-1000484D02*
X2826745Y-990960D01*
X2826745Y-990960D02*
X2817222Y-981436D01*
X3102936Y-867150D02*
X3102936Y-1000484D01*
X3055317Y-790960D02*
X3007698Y-933817D01*
X3007698Y-933817D02*
X3131507Y-933817D01*
X3198174Y-800484D02*
X3198174Y-838579D01*
X3274365Y-800484D02*
X3274365Y-838579D01*
X3569603Y-1076674D02*
X3560079Y-1067150D01*
X3560079Y-1067150D02*
X3541031Y-1038579D01*
X3541031Y-1038579D02*
X3531507Y-1019531D01*
X3531507Y-1019531D02*
X3521984Y-990960D01*
X3521984Y-990960D02*
X3512460Y-943341D01*
X3512460Y-943341D02*
X3512460Y-905246D01*
X3512460Y-905246D02*
X3521984Y-857627D01*
X3521984Y-857627D02*
X3531507Y-829055D01*
X3531507Y-829055D02*
X3541031Y-810008D01*
X3541031Y-810008D02*
X3560079Y-781436D01*
X3560079Y-781436D02*
X3569603Y-771912D01*
X3636269Y-819531D02*
X3645793Y-810008D01*
X3645793Y-810008D02*
X3664841Y-800484D01*
X3664841Y-800484D02*
X3712460Y-800484D01*
X3712460Y-800484D02*
X3731507Y-810008D01*
X3731507Y-810008D02*
X3741031Y-819531D01*
X3741031Y-819531D02*
X3750555Y-838579D01*
X3750555Y-838579D02*
X3750555Y-857627D01*
X3750555Y-857627D02*
X3741031Y-886198D01*
X3741031Y-886198D02*
X3626746Y-1000484D01*
X3626746Y-1000484D02*
X3750555Y-1000484D01*
X3988650Y-1000484D02*
X3988650Y-800484D01*
X4074365Y-1000484D02*
X4074365Y-895722D01*
X4074365Y-895722D02*
X4064841Y-876674D01*
X4064841Y-876674D02*
X4045793Y-867150D01*
X4045793Y-867150D02*
X4017222Y-867150D01*
X4017222Y-867150D02*
X3998174Y-876674D01*
X3998174Y-876674D02*
X3988650Y-886198D01*
X4198174Y-1000484D02*
X4179127Y-990960D01*
X4179127Y-990960D02*
X4169603Y-981436D01*
X4169603Y-981436D02*
X4160079Y-962388D01*
X4160079Y-962388D02*
X4160079Y-905246D01*
X4160079Y-905246D02*
X4169603Y-886198D01*
X4169603Y-886198D02*
X4179127Y-876674D01*
X4179127Y-876674D02*
X4198174Y-867150D01*
X4198174Y-867150D02*
X4226746Y-867150D01*
X4226746Y-867150D02*
X4245793Y-876674D01*
X4245793Y-876674D02*
X4255317Y-886198D01*
X4255317Y-886198D02*
X4264841Y-905246D01*
X4264841Y-905246D02*
X4264841Y-962388D01*
X4264841Y-962388D02*
X4255317Y-981436D01*
X4255317Y-981436D02*
X4245793Y-990960D01*
X4245793Y-990960D02*
X4226746Y-1000484D01*
X4226746Y-1000484D02*
X4198174Y-1000484D01*
X4379127Y-1000484D02*
X4360079Y-990960D01*
X4360079Y-990960D02*
X4350555Y-971912D01*
X4350555Y-971912D02*
X4350555Y-800484D01*
X4531508Y-990960D02*
X4512460Y-1000484D01*
X4512460Y-1000484D02*
X4474365Y-1000484D01*
X4474365Y-1000484D02*
X4455317Y-990960D01*
X4455317Y-990960D02*
X4445793Y-971912D01*
X4445793Y-971912D02*
X4445793Y-895722D01*
X4445793Y-895722D02*
X4455317Y-876674D01*
X4455317Y-876674D02*
X4474365Y-867150D01*
X4474365Y-867150D02*
X4512460Y-867150D01*
X4512460Y-867150D02*
X4531508Y-876674D01*
X4531508Y-876674D02*
X4541031Y-895722D01*
X4541031Y-895722D02*
X4541031Y-914769D01*
X4541031Y-914769D02*
X4445793Y-933817D01*
X4617222Y-990960D02*
X4636270Y-1000484D01*
X4636270Y-1000484D02*
X4674365Y-1000484D01*
X4674365Y-1000484D02*
X4693412Y-990960D01*
X4693412Y-990960D02*
X4702936Y-971912D01*
X4702936Y-971912D02*
X4702936Y-962388D01*
X4702936Y-962388D02*
X4693412Y-943341D01*
X4693412Y-943341D02*
X4674365Y-933817D01*
X4674365Y-933817D02*
X4645793Y-933817D01*
X4645793Y-933817D02*
X4626746Y-924293D01*
X4626746Y-924293D02*
X4617222Y-905246D01*
X4617222Y-905246D02*
X4617222Y-895722D01*
X4617222Y-895722D02*
X4626746Y-876674D01*
X4626746Y-876674D02*
X4645793Y-867150D01*
X4645793Y-867150D02*
X4674365Y-867150D01*
X4674365Y-867150D02*
X4693412Y-876674D01*
X4769603Y-1076674D02*
X4779127Y-1067150D01*
X4779127Y-1067150D02*
X4798174Y-1038579D01*
X4798174Y-1038579D02*
X4807698Y-1019531D01*
X4807698Y-1019531D02*
X4817222Y-990960D01*
X4817222Y-990960D02*
X4826746Y-943341D01*
X4826746Y-943341D02*
X4826746Y-905246D01*
X4826746Y-905246D02*
X4817222Y-857627D01*
X4817222Y-857627D02*
X4807698Y-829055D01*
X4807698Y-829055D02*
X4798174Y-810008D01*
X4798174Y-810008D02*
X4779127Y-781436D01*
X4779127Y-781436D02*
X4769603Y-771912D01*
X5131508Y-1076674D02*
X5121984Y-1067150D01*
X5121984Y-1067150D02*
X5102936Y-1038579D01*
X5102936Y-1038579D02*
X5093412Y-1019531D01*
X5093412Y-1019531D02*
X5083889Y-990960D01*
X5083889Y-990960D02*
X5074365Y-943341D01*
X5074365Y-943341D02*
X5074365Y-905246D01*
X5074365Y-905246D02*
X5083889Y-857627D01*
X5083889Y-857627D02*
X5093412Y-829055D01*
X5093412Y-829055D02*
X5102936Y-810008D01*
X5102936Y-810008D02*
X5121984Y-781436D01*
X5121984Y-781436D02*
X5131508Y-771912D01*
X5207698Y-867150D02*
X5207698Y-1000484D01*
X5207698Y-886198D02*
X5217222Y-876674D01*
X5217222Y-876674D02*
X5236270Y-867150D01*
X5236270Y-867150D02*
X5264841Y-867150D01*
X5264841Y-867150D02*
X5283889Y-876674D01*
X5283889Y-876674D02*
X5293412Y-895722D01*
X5293412Y-895722D02*
X5293412Y-1000484D01*
X5417222Y-1000484D02*
X5398174Y-990960D01*
X5398174Y-990960D02*
X5388651Y-981436D01*
X5388651Y-981436D02*
X5379127Y-962388D01*
X5379127Y-962388D02*
X5379127Y-905246D01*
X5379127Y-905246D02*
X5388651Y-886198D01*
X5388651Y-886198D02*
X5398174Y-876674D01*
X5398174Y-876674D02*
X5417222Y-867150D01*
X5417222Y-867150D02*
X5445793Y-867150D01*
X5445793Y-867150D02*
X5464841Y-876674D01*
X5464841Y-876674D02*
X5474365Y-886198D01*
X5474365Y-886198D02*
X5483889Y-905246D01*
X5483889Y-905246D02*
X5483889Y-962388D01*
X5483889Y-962388D02*
X5474365Y-981436D01*
X5474365Y-981436D02*
X5464841Y-990960D01*
X5464841Y-990960D02*
X5445793Y-1000484D01*
X5445793Y-1000484D02*
X5417222Y-1000484D01*
X5541032Y-867150D02*
X5617222Y-867150D01*
X5569603Y-800484D02*
X5569603Y-971912D01*
X5569603Y-971912D02*
X5579127Y-990960D01*
X5579127Y-990960D02*
X5598174Y-1000484D01*
X5598174Y-1000484D02*
X5617222Y-1000484D01*
X5836270Y-867150D02*
X5836270Y-1067150D01*
X5836270Y-876674D02*
X5855317Y-867150D01*
X5855317Y-867150D02*
X5893412Y-867150D01*
X5893412Y-867150D02*
X5912460Y-876674D01*
X5912460Y-876674D02*
X5921984Y-886198D01*
X5921984Y-886198D02*
X5931508Y-905246D01*
X5931508Y-905246D02*
X5931508Y-962388D01*
X5931508Y-962388D02*
X5921984Y-981436D01*
X5921984Y-981436D02*
X5912460Y-990960D01*
X5912460Y-990960D02*
X5893412Y-1000484D01*
X5893412Y-1000484D02*
X5855317Y-1000484D01*
X5855317Y-1000484D02*
X5836270Y-990960D01*
X6045793Y-1000484D02*
X6026746Y-990960D01*
X6026746Y-990960D02*
X6017222Y-971912D01*
X6017222Y-971912D02*
X6017222Y-800484D01*
X6207698Y-1000484D02*
X6207698Y-895722D01*
X6207698Y-895722D02*
X6198174Y-876674D01*
X6198174Y-876674D02*
X6179127Y-867150D01*
X6179127Y-867150D02*
X6141031Y-867150D01*
X6141031Y-867150D02*
X6121984Y-876674D01*
X6207698Y-990960D02*
X6188651Y-1000484D01*
X6188651Y-1000484D02*
X6141031Y-1000484D01*
X6141031Y-1000484D02*
X6121984Y-990960D01*
X6121984Y-990960D02*
X6112460Y-971912D01*
X6112460Y-971912D02*
X6112460Y-952865D01*
X6112460Y-952865D02*
X6121984Y-933817D01*
X6121984Y-933817D02*
X6141031Y-924293D01*
X6141031Y-924293D02*
X6188651Y-924293D01*
X6188651Y-924293D02*
X6207698Y-914769D01*
X6274365Y-867150D02*
X6350555Y-867150D01*
X6302936Y-800484D02*
X6302936Y-971912D01*
X6302936Y-971912D02*
X6312460Y-990960D01*
X6312460Y-990960D02*
X6331508Y-1000484D01*
X6331508Y-1000484D02*
X6350555Y-1000484D01*
X6493412Y-990960D02*
X6474365Y-1000484D01*
X6474365Y-1000484D02*
X6436270Y-1000484D01*
X6436270Y-1000484D02*
X6417222Y-990960D01*
X6417222Y-990960D02*
X6407698Y-971912D01*
X6407698Y-971912D02*
X6407698Y-895722D01*
X6407698Y-895722D02*
X6417222Y-876674D01*
X6417222Y-876674D02*
X6436270Y-867150D01*
X6436270Y-867150D02*
X6474365Y-867150D01*
X6474365Y-867150D02*
X6493412Y-876674D01*
X6493412Y-876674D02*
X6502936Y-895722D01*
X6502936Y-895722D02*
X6502936Y-914769D01*
X6502936Y-914769D02*
X6407698Y-933817D01*
X6674365Y-1000484D02*
X6674365Y-800484D01*
X6674365Y-990960D02*
X6655317Y-1000484D01*
X6655317Y-1000484D02*
X6617222Y-1000484D01*
X6617222Y-1000484D02*
X6598174Y-990960D01*
X6598174Y-990960D02*
X6588651Y-981436D01*
X6588651Y-981436D02*
X6579127Y-962388D01*
X6579127Y-962388D02*
X6579127Y-905246D01*
X6579127Y-905246D02*
X6588651Y-886198D01*
X6588651Y-886198D02*
X6598174Y-876674D01*
X6598174Y-876674D02*
X6617222Y-867150D01*
X6617222Y-867150D02*
X6655317Y-867150D01*
X6655317Y-867150D02*
X6674365Y-876674D01*
X6750555Y-1076674D02*
X6760079Y-1067150D01*
X6760079Y-1067150D02*
X6779127Y-1038579D01*
X6779127Y-1038579D02*
X6788651Y-1019531D01*
X6788651Y-1019531D02*
X6798174Y-990960D01*
X6798174Y-990960D02*
X6807698Y-943341D01*
X6807698Y-943341D02*
X6807698Y-905246D01*
X6807698Y-905246D02*
X6798174Y-857627D01*
X6798174Y-857627D02*
X6788651Y-829055D01*
X6788651Y-829055D02*
X6779127Y-810008D01*
X6779127Y-810008D02*
X6760079Y-781436D01*
X6760079Y-781436D02*
X6750555Y-771912D01*
D10*
X-55460Y-1123000D02*
X-55460Y-1223000D01*
X-105460Y-1173000D02*
X-5460Y-1173000D01*
D11*
X360079Y-1264484D02*
X245793Y-1264484D01*
X302936Y-1264484D02*
X302936Y-1064484D01*
X302936Y-1064484D02*
X283888Y-1093055D01*
X283888Y-1093055D02*
X264841Y-1112103D01*
X264841Y-1112103D02*
X245793Y-1121627D01*
X445793Y-1245436D02*
X455317Y-1254960D01*
X455317Y-1254960D02*
X445793Y-1264484D01*
X445793Y-1264484D02*
X436269Y-1254960D01*
X436269Y-1254960D02*
X445793Y-1245436D01*
X445793Y-1245436D02*
X445793Y-1264484D01*
X579126Y-1064484D02*
X598174Y-1064484D01*
X598174Y-1064484D02*
X617222Y-1074008D01*
X617222Y-1074008D02*
X626745Y-1083531D01*
X626745Y-1083531D02*
X636269Y-1102579D01*
X636269Y-1102579D02*
X645793Y-1140674D01*
X645793Y-1140674D02*
X645793Y-1188293D01*
X645793Y-1188293D02*
X636269Y-1226389D01*
X636269Y-1226389D02*
X626745Y-1245436D01*
X626745Y-1245436D02*
X617222Y-1254960D01*
X617222Y-1254960D02*
X598174Y-1264484D01*
X598174Y-1264484D02*
X579126Y-1264484D01*
X579126Y-1264484D02*
X560079Y-1254960D01*
X560079Y-1254960D02*
X550555Y-1245436D01*
X550555Y-1245436D02*
X541031Y-1226389D01*
X541031Y-1226389D02*
X531507Y-1188293D01*
X531507Y-1188293D02*
X531507Y-1140674D01*
X531507Y-1140674D02*
X541031Y-1102579D01*
X541031Y-1102579D02*
X550555Y-1083531D01*
X550555Y-1083531D02*
X560079Y-1074008D01*
X560079Y-1074008D02*
X579126Y-1064484D01*
X769602Y-1064484D02*
X788650Y-1064484D01*
X788650Y-1064484D02*
X807698Y-1074008D01*
X807698Y-1074008D02*
X817221Y-1083531D01*
X817221Y-1083531D02*
X826745Y-1102579D01*
X826745Y-1102579D02*
X836269Y-1140674D01*
X836269Y-1140674D02*
X836269Y-1188293D01*
X836269Y-1188293D02*
X826745Y-1226389D01*
X826745Y-1226389D02*
X817221Y-1245436D01*
X817221Y-1245436D02*
X807698Y-1254960D01*
X807698Y-1254960D02*
X788650Y-1264484D01*
X788650Y-1264484D02*
X769602Y-1264484D01*
X769602Y-1264484D02*
X750555Y-1254960D01*
X750555Y-1254960D02*
X741031Y-1245436D01*
X741031Y-1245436D02*
X731507Y-1226389D01*
X731507Y-1226389D02*
X721983Y-1188293D01*
X721983Y-1188293D02*
X721983Y-1140674D01*
X721983Y-1140674D02*
X731507Y-1102579D01*
X731507Y-1102579D02*
X741031Y-1083531D01*
X741031Y-1083531D02*
X750555Y-1074008D01*
X750555Y-1074008D02*
X769602Y-1064484D01*
X960079Y-1064484D02*
X979126Y-1064484D01*
X979126Y-1064484D02*
X998174Y-1074008D01*
X998174Y-1074008D02*
X1007698Y-1083531D01*
X1007698Y-1083531D02*
X1017221Y-1102579D01*
X1017221Y-1102579D02*
X1026745Y-1140674D01*
X1026745Y-1140674D02*
X1026745Y-1188293D01*
X1026745Y-1188293D02*
X1017221Y-1226389D01*
X1017221Y-1226389D02*
X1007698Y-1245436D01*
X1007698Y-1245436D02*
X998174Y-1254960D01*
X998174Y-1254960D02*
X979126Y-1264484D01*
X979126Y-1264484D02*
X960079Y-1264484D01*
X960079Y-1264484D02*
X941031Y-1254960D01*
X941031Y-1254960D02*
X931507Y-1245436D01*
X931507Y-1245436D02*
X921983Y-1226389D01*
X921983Y-1226389D02*
X912460Y-1188293D01*
X912460Y-1188293D02*
X912460Y-1140674D01*
X912460Y-1140674D02*
X921983Y-1102579D01*
X921983Y-1102579D02*
X931507Y-1083531D01*
X931507Y-1083531D02*
X941031Y-1074008D01*
X941031Y-1074008D02*
X960079Y-1064484D01*
X1112460Y-1264484D02*
X1112460Y-1131150D01*
X1112460Y-1150198D02*
X1121983Y-1140674D01*
X1121983Y-1140674D02*
X1141031Y-1131150D01*
X1141031Y-1131150D02*
X1169603Y-1131150D01*
X1169603Y-1131150D02*
X1188650Y-1140674D01*
X1188650Y-1140674D02*
X1198174Y-1159722D01*
X1198174Y-1159722D02*
X1198174Y-1264484D01*
X1198174Y-1159722D02*
X1207698Y-1140674D01*
X1207698Y-1140674D02*
X1226745Y-1131150D01*
X1226745Y-1131150D02*
X1255317Y-1131150D01*
X1255317Y-1131150D02*
X1274364Y-1140674D01*
X1274364Y-1140674D02*
X1283888Y-1159722D01*
X1283888Y-1159722D02*
X1283888Y-1264484D01*
X1379126Y-1264484D02*
X1379126Y-1131150D01*
X1379126Y-1150198D02*
X1388650Y-1140674D01*
X1388650Y-1140674D02*
X1407698Y-1131150D01*
X1407698Y-1131150D02*
X1436269Y-1131150D01*
X1436269Y-1131150D02*
X1455317Y-1140674D01*
X1455317Y-1140674D02*
X1464841Y-1159722D01*
X1464841Y-1159722D02*
X1464841Y-1264484D01*
X1464841Y-1159722D02*
X1474364Y-1140674D01*
X1474364Y-1140674D02*
X1493412Y-1131150D01*
X1493412Y-1131150D02*
X1521983Y-1131150D01*
X1521983Y-1131150D02*
X1541031Y-1140674D01*
X1541031Y-1140674D02*
X1550555Y-1159722D01*
X1550555Y-1159722D02*
X1550555Y-1264484D01*
X1941031Y-1054960D02*
X1769603Y-1312103D01*
X2198174Y-1064484D02*
X2217222Y-1064484D01*
X2217222Y-1064484D02*
X2236269Y-1074008D01*
X2236269Y-1074008D02*
X2245793Y-1083531D01*
X2245793Y-1083531D02*
X2255317Y-1102579D01*
X2255317Y-1102579D02*
X2264841Y-1140674D01*
X2264841Y-1140674D02*
X2264841Y-1188293D01*
X2264841Y-1188293D02*
X2255317Y-1226389D01*
X2255317Y-1226389D02*
X2245793Y-1245436D01*
X2245793Y-1245436D02*
X2236269Y-1254960D01*
X2236269Y-1254960D02*
X2217222Y-1264484D01*
X2217222Y-1264484D02*
X2198174Y-1264484D01*
X2198174Y-1264484D02*
X2179126Y-1254960D01*
X2179126Y-1254960D02*
X2169603Y-1245436D01*
X2169603Y-1245436D02*
X2160079Y-1226389D01*
X2160079Y-1226389D02*
X2150555Y-1188293D01*
X2150555Y-1188293D02*
X2150555Y-1140674D01*
X2150555Y-1140674D02*
X2160079Y-1102579D01*
X2160079Y-1102579D02*
X2169603Y-1083531D01*
X2169603Y-1083531D02*
X2179126Y-1074008D01*
X2179126Y-1074008D02*
X2198174Y-1064484D01*
X2350555Y-1245436D02*
X2360079Y-1254960D01*
X2360079Y-1254960D02*
X2350555Y-1264484D01*
X2350555Y-1264484D02*
X2341031Y-1254960D01*
X2341031Y-1254960D02*
X2350555Y-1245436D01*
X2350555Y-1245436D02*
X2350555Y-1264484D01*
X2483888Y-1064484D02*
X2502936Y-1064484D01*
X2502936Y-1064484D02*
X2521984Y-1074008D01*
X2521984Y-1074008D02*
X2531507Y-1083531D01*
X2531507Y-1083531D02*
X2541031Y-1102579D01*
X2541031Y-1102579D02*
X2550555Y-1140674D01*
X2550555Y-1140674D02*
X2550555Y-1188293D01*
X2550555Y-1188293D02*
X2541031Y-1226389D01*
X2541031Y-1226389D02*
X2531507Y-1245436D01*
X2531507Y-1245436D02*
X2521984Y-1254960D01*
X2521984Y-1254960D02*
X2502936Y-1264484D01*
X2502936Y-1264484D02*
X2483888Y-1264484D01*
X2483888Y-1264484D02*
X2464841Y-1254960D01*
X2464841Y-1254960D02*
X2455317Y-1245436D01*
X2455317Y-1245436D02*
X2445793Y-1226389D01*
X2445793Y-1226389D02*
X2436269Y-1188293D01*
X2436269Y-1188293D02*
X2436269Y-1140674D01*
X2436269Y-1140674D02*
X2445793Y-1102579D01*
X2445793Y-1102579D02*
X2455317Y-1083531D01*
X2455317Y-1083531D02*
X2464841Y-1074008D01*
X2464841Y-1074008D02*
X2483888Y-1064484D01*
X2617222Y-1064484D02*
X2741031Y-1064484D01*
X2741031Y-1064484D02*
X2674365Y-1140674D01*
X2674365Y-1140674D02*
X2702936Y-1140674D01*
X2702936Y-1140674D02*
X2721984Y-1150198D01*
X2721984Y-1150198D02*
X2731507Y-1159722D01*
X2731507Y-1159722D02*
X2741031Y-1178770D01*
X2741031Y-1178770D02*
X2741031Y-1226389D01*
X2741031Y-1226389D02*
X2731507Y-1245436D01*
X2731507Y-1245436D02*
X2721984Y-1254960D01*
X2721984Y-1254960D02*
X2702936Y-1264484D01*
X2702936Y-1264484D02*
X2645793Y-1264484D01*
X2645793Y-1264484D02*
X2626746Y-1254960D01*
X2626746Y-1254960D02*
X2617222Y-1245436D01*
X2836269Y-1264484D02*
X2874364Y-1264484D01*
X2874364Y-1264484D02*
X2893412Y-1254960D01*
X2893412Y-1254960D02*
X2902936Y-1245436D01*
X2902936Y-1245436D02*
X2921984Y-1216865D01*
X2921984Y-1216865D02*
X2931507Y-1178770D01*
X2931507Y-1178770D02*
X2931507Y-1102579D01*
X2931507Y-1102579D02*
X2921984Y-1083531D01*
X2921984Y-1083531D02*
X2912460Y-1074008D01*
X2912460Y-1074008D02*
X2893412Y-1064484D01*
X2893412Y-1064484D02*
X2855317Y-1064484D01*
X2855317Y-1064484D02*
X2836269Y-1074008D01*
X2836269Y-1074008D02*
X2826745Y-1083531D01*
X2826745Y-1083531D02*
X2817222Y-1102579D01*
X2817222Y-1102579D02*
X2817222Y-1150198D01*
X2817222Y-1150198D02*
X2826745Y-1169246D01*
X2826745Y-1169246D02*
X2836269Y-1178770D01*
X2836269Y-1178770D02*
X2855317Y-1188293D01*
X2855317Y-1188293D02*
X2893412Y-1188293D01*
X2893412Y-1188293D02*
X2912460Y-1178770D01*
X2912460Y-1178770D02*
X2921984Y-1169246D01*
X2921984Y-1169246D02*
X2931507Y-1150198D01*
X3102936Y-1131150D02*
X3102936Y-1264484D01*
X3055317Y-1054960D02*
X3007698Y-1197817D01*
X3007698Y-1197817D02*
X3131507Y-1197817D01*
X3198174Y-1064484D02*
X3198174Y-1102579D01*
X3274365Y-1064484D02*
X3274365Y-1102579D01*
X3569603Y-1340674D02*
X3560079Y-1331150D01*
X3560079Y-1331150D02*
X3541031Y-1302579D01*
X3541031Y-1302579D02*
X3531507Y-1283531D01*
X3531507Y-1283531D02*
X3521984Y-1254960D01*
X3521984Y-1254960D02*
X3512460Y-1207341D01*
X3512460Y-1207341D02*
X3512460Y-1169246D01*
X3512460Y-1169246D02*
X3521984Y-1121627D01*
X3521984Y-1121627D02*
X3531507Y-1093055D01*
X3531507Y-1093055D02*
X3541031Y-1074008D01*
X3541031Y-1074008D02*
X3560079Y-1045436D01*
X3560079Y-1045436D02*
X3569603Y-1035912D01*
X3636269Y-1083531D02*
X3645793Y-1074008D01*
X3645793Y-1074008D02*
X3664841Y-1064484D01*
X3664841Y-1064484D02*
X3712460Y-1064484D01*
X3712460Y-1064484D02*
X3731507Y-1074008D01*
X3731507Y-1074008D02*
X3741031Y-1083531D01*
X3741031Y-1083531D02*
X3750555Y-1102579D01*
X3750555Y-1102579D02*
X3750555Y-1121627D01*
X3750555Y-1121627D02*
X3741031Y-1150198D01*
X3741031Y-1150198D02*
X3626746Y-1264484D01*
X3626746Y-1264484D02*
X3750555Y-1264484D01*
X3988650Y-1264484D02*
X3988650Y-1064484D01*
X4074365Y-1264484D02*
X4074365Y-1159722D01*
X4074365Y-1159722D02*
X4064841Y-1140674D01*
X4064841Y-1140674D02*
X4045793Y-1131150D01*
X4045793Y-1131150D02*
X4017222Y-1131150D01*
X4017222Y-1131150D02*
X3998174Y-1140674D01*
X3998174Y-1140674D02*
X3988650Y-1150198D01*
X4198174Y-1264484D02*
X4179127Y-1254960D01*
X4179127Y-1254960D02*
X4169603Y-1245436D01*
X4169603Y-1245436D02*
X4160079Y-1226389D01*
X4160079Y-1226389D02*
X4160079Y-1169246D01*
X4160079Y-1169246D02*
X4169603Y-1150198D01*
X4169603Y-1150198D02*
X4179127Y-1140674D01*
X4179127Y-1140674D02*
X4198174Y-1131150D01*
X4198174Y-1131150D02*
X4226746Y-1131150D01*
X4226746Y-1131150D02*
X4245793Y-1140674D01*
X4245793Y-1140674D02*
X4255317Y-1150198D01*
X4255317Y-1150198D02*
X4264841Y-1169246D01*
X4264841Y-1169246D02*
X4264841Y-1226389D01*
X4264841Y-1226389D02*
X4255317Y-1245436D01*
X4255317Y-1245436D02*
X4245793Y-1254960D01*
X4245793Y-1254960D02*
X4226746Y-1264484D01*
X4226746Y-1264484D02*
X4198174Y-1264484D01*
X4379127Y-1264484D02*
X4360079Y-1254960D01*
X4360079Y-1254960D02*
X4350555Y-1235912D01*
X4350555Y-1235912D02*
X4350555Y-1064484D01*
X4531508Y-1254960D02*
X4512460Y-1264484D01*
X4512460Y-1264484D02*
X4474365Y-1264484D01*
X4474365Y-1264484D02*
X4455317Y-1254960D01*
X4455317Y-1254960D02*
X4445793Y-1235912D01*
X4445793Y-1235912D02*
X4445793Y-1159722D01*
X4445793Y-1159722D02*
X4455317Y-1140674D01*
X4455317Y-1140674D02*
X4474365Y-1131150D01*
X4474365Y-1131150D02*
X4512460Y-1131150D01*
X4512460Y-1131150D02*
X4531508Y-1140674D01*
X4531508Y-1140674D02*
X4541031Y-1159722D01*
X4541031Y-1159722D02*
X4541031Y-1178770D01*
X4541031Y-1178770D02*
X4445793Y-1197817D01*
X4617222Y-1254960D02*
X4636270Y-1264484D01*
X4636270Y-1264484D02*
X4674365Y-1264484D01*
X4674365Y-1264484D02*
X4693412Y-1254960D01*
X4693412Y-1254960D02*
X4702936Y-1235912D01*
X4702936Y-1235912D02*
X4702936Y-1226389D01*
X4702936Y-1226389D02*
X4693412Y-1207341D01*
X4693412Y-1207341D02*
X4674365Y-1197817D01*
X4674365Y-1197817D02*
X4645793Y-1197817D01*
X4645793Y-1197817D02*
X4626746Y-1188293D01*
X4626746Y-1188293D02*
X4617222Y-1169246D01*
X4617222Y-1169246D02*
X4617222Y-1159722D01*
X4617222Y-1159722D02*
X4626746Y-1140674D01*
X4626746Y-1140674D02*
X4645793Y-1131150D01*
X4645793Y-1131150D02*
X4674365Y-1131150D01*
X4674365Y-1131150D02*
X4693412Y-1140674D01*
X4769603Y-1340674D02*
X4779127Y-1331150D01*
X4779127Y-1331150D02*
X4798174Y-1302579D01*
X4798174Y-1302579D02*
X4807698Y-1283531D01*
X4807698Y-1283531D02*
X4817222Y-1254960D01*
X4817222Y-1254960D02*
X4826746Y-1207341D01*
X4826746Y-1207341D02*
X4826746Y-1169246D01*
X4826746Y-1169246D02*
X4817222Y-1121627D01*
X4817222Y-1121627D02*
X4807698Y-1093055D01*
X4807698Y-1093055D02*
X4798174Y-1074008D01*
X4798174Y-1074008D02*
X4779127Y-1045436D01*
X4779127Y-1045436D02*
X4769603Y-1035912D01*
X5131508Y-1340674D02*
X5121984Y-1331150D01*
X5121984Y-1331150D02*
X5102936Y-1302579D01*
X5102936Y-1302579D02*
X5093412Y-1283531D01*
X5093412Y-1283531D02*
X5083889Y-1254960D01*
X5083889Y-1254960D02*
X5074365Y-1207341D01*
X5074365Y-1207341D02*
X5074365Y-1169246D01*
X5074365Y-1169246D02*
X5083889Y-1121627D01*
X5083889Y-1121627D02*
X5093412Y-1093055D01*
X5093412Y-1093055D02*
X5102936Y-1074008D01*
X5102936Y-1074008D02*
X5121984Y-1045436D01*
X5121984Y-1045436D02*
X5131508Y-1035912D01*
X5207698Y-1131150D02*
X5207698Y-1264484D01*
X5207698Y-1150198D02*
X5217222Y-1140674D01*
X5217222Y-1140674D02*
X5236270Y-1131150D01*
X5236270Y-1131150D02*
X5264841Y-1131150D01*
X5264841Y-1131150D02*
X5283889Y-1140674D01*
X5283889Y-1140674D02*
X5293412Y-1159722D01*
X5293412Y-1159722D02*
X5293412Y-1264484D01*
X5417222Y-1264484D02*
X5398174Y-1254960D01*
X5398174Y-1254960D02*
X5388651Y-1245436D01*
X5388651Y-1245436D02*
X5379127Y-1226389D01*
X5379127Y-1226389D02*
X5379127Y-1169246D01*
X5379127Y-1169246D02*
X5388651Y-1150198D01*
X5388651Y-1150198D02*
X5398174Y-1140674D01*
X5398174Y-1140674D02*
X5417222Y-1131150D01*
X5417222Y-1131150D02*
X5445793Y-1131150D01*
X5445793Y-1131150D02*
X5464841Y-1140674D01*
X5464841Y-1140674D02*
X5474365Y-1150198D01*
X5474365Y-1150198D02*
X5483889Y-1169246D01*
X5483889Y-1169246D02*
X5483889Y-1226389D01*
X5483889Y-1226389D02*
X5474365Y-1245436D01*
X5474365Y-1245436D02*
X5464841Y-1254960D01*
X5464841Y-1254960D02*
X5445793Y-1264484D01*
X5445793Y-1264484D02*
X5417222Y-1264484D01*
X5541032Y-1131150D02*
X5617222Y-1131150D01*
X5569603Y-1064484D02*
X5569603Y-1235912D01*
X5569603Y-1235912D02*
X5579127Y-1254960D01*
X5579127Y-1254960D02*
X5598174Y-1264484D01*
X5598174Y-1264484D02*
X5617222Y-1264484D01*
X5836270Y-1131150D02*
X5836270Y-1331150D01*
X5836270Y-1140674D02*
X5855317Y-1131150D01*
X5855317Y-1131150D02*
X5893412Y-1131150D01*
X5893412Y-1131150D02*
X5912460Y-1140674D01*
X5912460Y-1140674D02*
X5921984Y-1150198D01*
X5921984Y-1150198D02*
X5931508Y-1169246D01*
X5931508Y-1169246D02*
X5931508Y-1226389D01*
X5931508Y-1226389D02*
X5921984Y-1245436D01*
X5921984Y-1245436D02*
X5912460Y-1254960D01*
X5912460Y-1254960D02*
X5893412Y-1264484D01*
X5893412Y-1264484D02*
X5855317Y-1264484D01*
X5855317Y-1264484D02*
X5836270Y-1254960D01*
X6045793Y-1264484D02*
X6026746Y-1254960D01*
X6026746Y-1254960D02*
X6017222Y-1235912D01*
X6017222Y-1235912D02*
X6017222Y-1064484D01*
X6207698Y-1264484D02*
X6207698Y-1159722D01*
X6207698Y-1159722D02*
X6198174Y-1140674D01*
X6198174Y-1140674D02*
X6179127Y-1131150D01*
X6179127Y-1131150D02*
X6141031Y-1131150D01*
X6141031Y-1131150D02*
X6121984Y-1140674D01*
X6207698Y-1254960D02*
X6188651Y-1264484D01*
X6188651Y-1264484D02*
X6141031Y-1264484D01*
X6141031Y-1264484D02*
X6121984Y-1254960D01*
X6121984Y-1254960D02*
X6112460Y-1235912D01*
X6112460Y-1235912D02*
X6112460Y-1216865D01*
X6112460Y-1216865D02*
X6121984Y-1197817D01*
X6121984Y-1197817D02*
X6141031Y-1188293D01*
X6141031Y-1188293D02*
X6188651Y-1188293D01*
X6188651Y-1188293D02*
X6207698Y-1178770D01*
X6274365Y-1131150D02*
X6350555Y-1131150D01*
X6302936Y-1064484D02*
X6302936Y-1235912D01*
X6302936Y-1235912D02*
X6312460Y-1254960D01*
X6312460Y-1254960D02*
X6331508Y-1264484D01*
X6331508Y-1264484D02*
X6350555Y-1264484D01*
X6493412Y-1254960D02*
X6474365Y-1264484D01*
X6474365Y-1264484D02*
X6436270Y-1264484D01*
X6436270Y-1264484D02*
X6417222Y-1254960D01*
X6417222Y-1254960D02*
X6407698Y-1235912D01*
X6407698Y-1235912D02*
X6407698Y-1159722D01*
X6407698Y-1159722D02*
X6417222Y-1140674D01*
X6417222Y-1140674D02*
X6436270Y-1131150D01*
X6436270Y-1131150D02*
X6474365Y-1131150D01*
X6474365Y-1131150D02*
X6493412Y-1140674D01*
X6493412Y-1140674D02*
X6502936Y-1159722D01*
X6502936Y-1159722D02*
X6502936Y-1178770D01*
X6502936Y-1178770D02*
X6407698Y-1197817D01*
X6674365Y-1264484D02*
X6674365Y-1064484D01*
X6674365Y-1254960D02*
X6655317Y-1264484D01*
X6655317Y-1264484D02*
X6617222Y-1264484D01*
X6617222Y-1264484D02*
X6598174Y-1254960D01*
X6598174Y-1254960D02*
X6588651Y-1245436D01*
X6588651Y-1245436D02*
X6579127Y-1226389D01*
X6579127Y-1226389D02*
X6579127Y-1169246D01*
X6579127Y-1169246D02*
X6588651Y-1150198D01*
X6588651Y-1150198D02*
X6598174Y-1140674D01*
X6598174Y-1140674D02*
X6617222Y-1131150D01*
X6617222Y-1131150D02*
X6655317Y-1131150D01*
X6655317Y-1131150D02*
X6674365Y-1140674D01*
X6750555Y-1340674D02*
X6760079Y-1331150D01*
X6760079Y-1331150D02*
X6779127Y-1302579D01*
X6779127Y-1302579D02*
X6788651Y-1283531D01*
X6788651Y-1283531D02*
X6798174Y-1254960D01*
X6798174Y-1254960D02*
X6807698Y-1207341D01*
X6807698Y-1207341D02*
X6807698Y-1169246D01*
X6807698Y-1169246D02*
X6798174Y-1121627D01*
X6798174Y-1121627D02*
X6788651Y-1093055D01*
X6788651Y-1093055D02*
X6779127Y-1074008D01*
X6779127Y-1074008D02*
X6760079Y-1045436D01*
X6760079Y-1045436D02*
X6750555Y-1035912D01*
D12*
X-27427Y-1490033D02*
X-27427Y-1383967D01*
X-133494Y-1383967D01*
X-133494Y-1490033D01*
X-27427Y-1490033D01*
D11*
X360079Y-1528484D02*
X245793Y-1528484D01*
X302936Y-1528484D02*
X302936Y-1328484D01*
X302936Y-1328484D02*
X283888Y-1357055D01*
X283888Y-1357055D02*
X264841Y-1376103D01*
X264841Y-1376103D02*
X245793Y-1385627D01*
X445793Y-1509436D02*
X455317Y-1518960D01*
X455317Y-1518960D02*
X445793Y-1528484D01*
X445793Y-1528484D02*
X436269Y-1518960D01*
X436269Y-1518960D02*
X445793Y-1509436D01*
X445793Y-1509436D02*
X445793Y-1528484D01*
X636269Y-1328484D02*
X541031Y-1328484D01*
X541031Y-1328484D02*
X531507Y-1423722D01*
X531507Y-1423722D02*
X541031Y-1414198D01*
X541031Y-1414198D02*
X560079Y-1404674D01*
X560079Y-1404674D02*
X607698Y-1404674D01*
X607698Y-1404674D02*
X626745Y-1414198D01*
X626745Y-1414198D02*
X636269Y-1423722D01*
X636269Y-1423722D02*
X645793Y-1442769D01*
X645793Y-1442769D02*
X645793Y-1490388D01*
X645793Y-1490388D02*
X636269Y-1509436D01*
X636269Y-1509436D02*
X626745Y-1518960D01*
X626745Y-1518960D02*
X607698Y-1528484D01*
X607698Y-1528484D02*
X560079Y-1528484D01*
X560079Y-1528484D02*
X541031Y-1518960D01*
X541031Y-1518960D02*
X531507Y-1509436D01*
X769602Y-1328484D02*
X788650Y-1328484D01*
X788650Y-1328484D02*
X807698Y-1338008D01*
X807698Y-1338008D02*
X817221Y-1347531D01*
X817221Y-1347531D02*
X826745Y-1366579D01*
X826745Y-1366579D02*
X836269Y-1404674D01*
X836269Y-1404674D02*
X836269Y-1452293D01*
X836269Y-1452293D02*
X826745Y-1490388D01*
X826745Y-1490388D02*
X817221Y-1509436D01*
X817221Y-1509436D02*
X807698Y-1518960D01*
X807698Y-1518960D02*
X788650Y-1528484D01*
X788650Y-1528484D02*
X769602Y-1528484D01*
X769602Y-1528484D02*
X750555Y-1518960D01*
X750555Y-1518960D02*
X741031Y-1509436D01*
X741031Y-1509436D02*
X731507Y-1490388D01*
X731507Y-1490388D02*
X721983Y-1452293D01*
X721983Y-1452293D02*
X721983Y-1404674D01*
X721983Y-1404674D02*
X731507Y-1366579D01*
X731507Y-1366579D02*
X741031Y-1347531D01*
X741031Y-1347531D02*
X750555Y-1338008D01*
X750555Y-1338008D02*
X769602Y-1328484D01*
X960079Y-1328484D02*
X979126Y-1328484D01*
X979126Y-1328484D02*
X998174Y-1338008D01*
X998174Y-1338008D02*
X1007698Y-1347531D01*
X1007698Y-1347531D02*
X1017221Y-1366579D01*
X1017221Y-1366579D02*
X1026745Y-1404674D01*
X1026745Y-1404674D02*
X1026745Y-1452293D01*
X1026745Y-1452293D02*
X1017221Y-1490388D01*
X1017221Y-1490388D02*
X1007698Y-1509436D01*
X1007698Y-1509436D02*
X998174Y-1518960D01*
X998174Y-1518960D02*
X979126Y-1528484D01*
X979126Y-1528484D02*
X960079Y-1528484D01*
X960079Y-1528484D02*
X941031Y-1518960D01*
X941031Y-1518960D02*
X931507Y-1509436D01*
X931507Y-1509436D02*
X921983Y-1490388D01*
X921983Y-1490388D02*
X912460Y-1452293D01*
X912460Y-1452293D02*
X912460Y-1404674D01*
X912460Y-1404674D02*
X921983Y-1366579D01*
X921983Y-1366579D02*
X931507Y-1347531D01*
X931507Y-1347531D02*
X941031Y-1338008D01*
X941031Y-1338008D02*
X960079Y-1328484D01*
X1112460Y-1528484D02*
X1112460Y-1395150D01*
X1112460Y-1414198D02*
X1121983Y-1404674D01*
X1121983Y-1404674D02*
X1141031Y-1395150D01*
X1141031Y-1395150D02*
X1169603Y-1395150D01*
X1169603Y-1395150D02*
X1188650Y-1404674D01*
X1188650Y-1404674D02*
X1198174Y-1423722D01*
X1198174Y-1423722D02*
X1198174Y-1528484D01*
X1198174Y-1423722D02*
X1207698Y-1404674D01*
X1207698Y-1404674D02*
X1226745Y-1395150D01*
X1226745Y-1395150D02*
X1255317Y-1395150D01*
X1255317Y-1395150D02*
X1274364Y-1404674D01*
X1274364Y-1404674D02*
X1283888Y-1423722D01*
X1283888Y-1423722D02*
X1283888Y-1528484D01*
X1379126Y-1528484D02*
X1379126Y-1395150D01*
X1379126Y-1414198D02*
X1388650Y-1404674D01*
X1388650Y-1404674D02*
X1407698Y-1395150D01*
X1407698Y-1395150D02*
X1436269Y-1395150D01*
X1436269Y-1395150D02*
X1455317Y-1404674D01*
X1455317Y-1404674D02*
X1464841Y-1423722D01*
X1464841Y-1423722D02*
X1464841Y-1528484D01*
X1464841Y-1423722D02*
X1474364Y-1404674D01*
X1474364Y-1404674D02*
X1493412Y-1395150D01*
X1493412Y-1395150D02*
X1521983Y-1395150D01*
X1521983Y-1395150D02*
X1541031Y-1404674D01*
X1541031Y-1404674D02*
X1550555Y-1423722D01*
X1550555Y-1423722D02*
X1550555Y-1528484D01*
X1941031Y-1318960D02*
X1769603Y-1576103D01*
X2198174Y-1328484D02*
X2217222Y-1328484D01*
X2217222Y-1328484D02*
X2236269Y-1338008D01*
X2236269Y-1338008D02*
X2245793Y-1347531D01*
X2245793Y-1347531D02*
X2255317Y-1366579D01*
X2255317Y-1366579D02*
X2264841Y-1404674D01*
X2264841Y-1404674D02*
X2264841Y-1452293D01*
X2264841Y-1452293D02*
X2255317Y-1490388D01*
X2255317Y-1490388D02*
X2245793Y-1509436D01*
X2245793Y-1509436D02*
X2236269Y-1518960D01*
X2236269Y-1518960D02*
X2217222Y-1528484D01*
X2217222Y-1528484D02*
X2198174Y-1528484D01*
X2198174Y-1528484D02*
X2179126Y-1518960D01*
X2179126Y-1518960D02*
X2169603Y-1509436D01*
X2169603Y-1509436D02*
X2160079Y-1490388D01*
X2160079Y-1490388D02*
X2150555Y-1452293D01*
X2150555Y-1452293D02*
X2150555Y-1404674D01*
X2150555Y-1404674D02*
X2160079Y-1366579D01*
X2160079Y-1366579D02*
X2169603Y-1347531D01*
X2169603Y-1347531D02*
X2179126Y-1338008D01*
X2179126Y-1338008D02*
X2198174Y-1328484D01*
X2350555Y-1509436D02*
X2360079Y-1518960D01*
X2360079Y-1518960D02*
X2350555Y-1528484D01*
X2350555Y-1528484D02*
X2341031Y-1518960D01*
X2341031Y-1518960D02*
X2350555Y-1509436D01*
X2350555Y-1509436D02*
X2350555Y-1528484D01*
X2483888Y-1328484D02*
X2502936Y-1328484D01*
X2502936Y-1328484D02*
X2521984Y-1338008D01*
X2521984Y-1338008D02*
X2531507Y-1347531D01*
X2531507Y-1347531D02*
X2541031Y-1366579D01*
X2541031Y-1366579D02*
X2550555Y-1404674D01*
X2550555Y-1404674D02*
X2550555Y-1452293D01*
X2550555Y-1452293D02*
X2541031Y-1490388D01*
X2541031Y-1490388D02*
X2531507Y-1509436D01*
X2531507Y-1509436D02*
X2521984Y-1518960D01*
X2521984Y-1518960D02*
X2502936Y-1528484D01*
X2502936Y-1528484D02*
X2483888Y-1528484D01*
X2483888Y-1528484D02*
X2464841Y-1518960D01*
X2464841Y-1518960D02*
X2455317Y-1509436D01*
X2455317Y-1509436D02*
X2445793Y-1490388D01*
X2445793Y-1490388D02*
X2436269Y-1452293D01*
X2436269Y-1452293D02*
X2436269Y-1404674D01*
X2436269Y-1404674D02*
X2445793Y-1366579D01*
X2445793Y-1366579D02*
X2455317Y-1347531D01*
X2455317Y-1347531D02*
X2464841Y-1338008D01*
X2464841Y-1338008D02*
X2483888Y-1328484D01*
X2731507Y-1328484D02*
X2636269Y-1328484D01*
X2636269Y-1328484D02*
X2626746Y-1423722D01*
X2626746Y-1423722D02*
X2636269Y-1414198D01*
X2636269Y-1414198D02*
X2655317Y-1404674D01*
X2655317Y-1404674D02*
X2702936Y-1404674D01*
X2702936Y-1404674D02*
X2721984Y-1414198D01*
X2721984Y-1414198D02*
X2731507Y-1423722D01*
X2731507Y-1423722D02*
X2741031Y-1442769D01*
X2741031Y-1442769D02*
X2741031Y-1490388D01*
X2741031Y-1490388D02*
X2731507Y-1509436D01*
X2731507Y-1509436D02*
X2721984Y-1518960D01*
X2721984Y-1518960D02*
X2702936Y-1528484D01*
X2702936Y-1528484D02*
X2655317Y-1528484D01*
X2655317Y-1528484D02*
X2636269Y-1518960D01*
X2636269Y-1518960D02*
X2626746Y-1509436D01*
X2836269Y-1528484D02*
X2874364Y-1528484D01*
X2874364Y-1528484D02*
X2893412Y-1518960D01*
X2893412Y-1518960D02*
X2902936Y-1509436D01*
X2902936Y-1509436D02*
X2921984Y-1480865D01*
X2921984Y-1480865D02*
X2931507Y-1442769D01*
X2931507Y-1442769D02*
X2931507Y-1366579D01*
X2931507Y-1366579D02*
X2921984Y-1347531D01*
X2921984Y-1347531D02*
X2912460Y-1338008D01*
X2912460Y-1338008D02*
X2893412Y-1328484D01*
X2893412Y-1328484D02*
X2855317Y-1328484D01*
X2855317Y-1328484D02*
X2836269Y-1338008D01*
X2836269Y-1338008D02*
X2826745Y-1347531D01*
X2826745Y-1347531D02*
X2817222Y-1366579D01*
X2817222Y-1366579D02*
X2817222Y-1414198D01*
X2817222Y-1414198D02*
X2826745Y-1433246D01*
X2826745Y-1433246D02*
X2836269Y-1442769D01*
X2836269Y-1442769D02*
X2855317Y-1452293D01*
X2855317Y-1452293D02*
X2893412Y-1452293D01*
X2893412Y-1452293D02*
X2912460Y-1442769D01*
X2912460Y-1442769D02*
X2921984Y-1433246D01*
X2921984Y-1433246D02*
X2931507Y-1414198D01*
X3121984Y-1528484D02*
X3007698Y-1528484D01*
X3064841Y-1528484D02*
X3064841Y-1328484D01*
X3064841Y-1328484D02*
X3045793Y-1357055D01*
X3045793Y-1357055D02*
X3026745Y-1376103D01*
X3026745Y-1376103D02*
X3007698Y-1385627D01*
X3198174Y-1328484D02*
X3198174Y-1366579D01*
X3274365Y-1328484D02*
X3274365Y-1366579D01*
X3569603Y-1604674D02*
X3560079Y-1595150D01*
X3560079Y-1595150D02*
X3541031Y-1566579D01*
X3541031Y-1566579D02*
X3531507Y-1547531D01*
X3531507Y-1547531D02*
X3521984Y-1518960D01*
X3521984Y-1518960D02*
X3512460Y-1471341D01*
X3512460Y-1471341D02*
X3512460Y-1433246D01*
X3512460Y-1433246D02*
X3521984Y-1385627D01*
X3521984Y-1385627D02*
X3531507Y-1357055D01*
X3531507Y-1357055D02*
X3541031Y-1338008D01*
X3541031Y-1338008D02*
X3560079Y-1309436D01*
X3560079Y-1309436D02*
X3569603Y-1299912D01*
X3636269Y-1347531D02*
X3645793Y-1338008D01*
X3645793Y-1338008D02*
X3664841Y-1328484D01*
X3664841Y-1328484D02*
X3712460Y-1328484D01*
X3712460Y-1328484D02*
X3731507Y-1338008D01*
X3731507Y-1338008D02*
X3741031Y-1347531D01*
X3741031Y-1347531D02*
X3750555Y-1366579D01*
X3750555Y-1366579D02*
X3750555Y-1385627D01*
X3750555Y-1385627D02*
X3741031Y-1414198D01*
X3741031Y-1414198D02*
X3626746Y-1528484D01*
X3626746Y-1528484D02*
X3750555Y-1528484D01*
X3845793Y-1528484D02*
X3883888Y-1528484D01*
X3883888Y-1528484D02*
X3902936Y-1518960D01*
X3902936Y-1518960D02*
X3912460Y-1509436D01*
X3912460Y-1509436D02*
X3931507Y-1480865D01*
X3931507Y-1480865D02*
X3941031Y-1442769D01*
X3941031Y-1442769D02*
X3941031Y-1366579D01*
X3941031Y-1366579D02*
X3931507Y-1347531D01*
X3931507Y-1347531D02*
X3921984Y-1338008D01*
X3921984Y-1338008D02*
X3902936Y-1328484D01*
X3902936Y-1328484D02*
X3864841Y-1328484D01*
X3864841Y-1328484D02*
X3845793Y-1338008D01*
X3845793Y-1338008D02*
X3836269Y-1347531D01*
X3836269Y-1347531D02*
X3826746Y-1366579D01*
X3826746Y-1366579D02*
X3826746Y-1414198D01*
X3826746Y-1414198D02*
X3836269Y-1433246D01*
X3836269Y-1433246D02*
X3845793Y-1442769D01*
X3845793Y-1442769D02*
X3864841Y-1452293D01*
X3864841Y-1452293D02*
X3902936Y-1452293D01*
X3902936Y-1452293D02*
X3921984Y-1442769D01*
X3921984Y-1442769D02*
X3931507Y-1433246D01*
X3931507Y-1433246D02*
X3941031Y-1414198D01*
X4179127Y-1528484D02*
X4179127Y-1328484D01*
X4264841Y-1528484D02*
X4264841Y-1423722D01*
X4264841Y-1423722D02*
X4255317Y-1404674D01*
X4255317Y-1404674D02*
X4236270Y-1395150D01*
X4236270Y-1395150D02*
X4207698Y-1395150D01*
X4207698Y-1395150D02*
X4188650Y-1404674D01*
X4188650Y-1404674D02*
X4179127Y-1414198D01*
X4388650Y-1528484D02*
X4369603Y-1518960D01*
X4369603Y-1518960D02*
X4360079Y-1509436D01*
X4360079Y-1509436D02*
X4350555Y-1490388D01*
X4350555Y-1490388D02*
X4350555Y-1433246D01*
X4350555Y-1433246D02*
X4360079Y-1414198D01*
X4360079Y-1414198D02*
X4369603Y-1404674D01*
X4369603Y-1404674D02*
X4388650Y-1395150D01*
X4388650Y-1395150D02*
X4417222Y-1395150D01*
X4417222Y-1395150D02*
X4436270Y-1404674D01*
X4436270Y-1404674D02*
X4445793Y-1414198D01*
X4445793Y-1414198D02*
X4455317Y-1433246D01*
X4455317Y-1433246D02*
X4455317Y-1490388D01*
X4455317Y-1490388D02*
X4445793Y-1509436D01*
X4445793Y-1509436D02*
X4436270Y-1518960D01*
X4436270Y-1518960D02*
X4417222Y-1528484D01*
X4417222Y-1528484D02*
X4388650Y-1528484D01*
X4569603Y-1528484D02*
X4550555Y-1518960D01*
X4550555Y-1518960D02*
X4541031Y-1499912D01*
X4541031Y-1499912D02*
X4541031Y-1328484D01*
X4721984Y-1518960D02*
X4702936Y-1528484D01*
X4702936Y-1528484D02*
X4664841Y-1528484D01*
X4664841Y-1528484D02*
X4645793Y-1518960D01*
X4645793Y-1518960D02*
X4636270Y-1499912D01*
X4636270Y-1499912D02*
X4636270Y-1423722D01*
X4636270Y-1423722D02*
X4645793Y-1404674D01*
X4645793Y-1404674D02*
X4664841Y-1395150D01*
X4664841Y-1395150D02*
X4702936Y-1395150D01*
X4702936Y-1395150D02*
X4721984Y-1404674D01*
X4721984Y-1404674D02*
X4731508Y-1423722D01*
X4731508Y-1423722D02*
X4731508Y-1442769D01*
X4731508Y-1442769D02*
X4636270Y-1461817D01*
X4807698Y-1518960D02*
X4826746Y-1528484D01*
X4826746Y-1528484D02*
X4864841Y-1528484D01*
X4864841Y-1528484D02*
X4883889Y-1518960D01*
X4883889Y-1518960D02*
X4893412Y-1499912D01*
X4893412Y-1499912D02*
X4893412Y-1490388D01*
X4893412Y-1490388D02*
X4883889Y-1471341D01*
X4883889Y-1471341D02*
X4864841Y-1461817D01*
X4864841Y-1461817D02*
X4836270Y-1461817D01*
X4836270Y-1461817D02*
X4817222Y-1452293D01*
X4817222Y-1452293D02*
X4807698Y-1433246D01*
X4807698Y-1433246D02*
X4807698Y-1423722D01*
X4807698Y-1423722D02*
X4817222Y-1404674D01*
X4817222Y-1404674D02*
X4836270Y-1395150D01*
X4836270Y-1395150D02*
X4864841Y-1395150D01*
X4864841Y-1395150D02*
X4883889Y-1404674D01*
X4960079Y-1604674D02*
X4969603Y-1595150D01*
X4969603Y-1595150D02*
X4988651Y-1566579D01*
X4988651Y-1566579D02*
X4998174Y-1547531D01*
X4998174Y-1547531D02*
X5007698Y-1518960D01*
X5007698Y-1518960D02*
X5017222Y-1471341D01*
X5017222Y-1471341D02*
X5017222Y-1433246D01*
X5017222Y-1433246D02*
X5007698Y-1385627D01*
X5007698Y-1385627D02*
X4998174Y-1357055D01*
X4998174Y-1357055D02*
X4988651Y-1338008D01*
X4988651Y-1338008D02*
X4969603Y-1309436D01*
X4969603Y-1309436D02*
X4960079Y-1299912D01*
X5321984Y-1604674D02*
X5312460Y-1595150D01*
X5312460Y-1595150D02*
X5293412Y-1566579D01*
X5293412Y-1566579D02*
X5283889Y-1547531D01*
X5283889Y-1547531D02*
X5274365Y-1518960D01*
X5274365Y-1518960D02*
X5264841Y-1471341D01*
X5264841Y-1471341D02*
X5264841Y-1433246D01*
X5264841Y-1433246D02*
X5274365Y-1385627D01*
X5274365Y-1385627D02*
X5283889Y-1357055D01*
X5283889Y-1357055D02*
X5293412Y-1338008D01*
X5293412Y-1338008D02*
X5312460Y-1309436D01*
X5312460Y-1309436D02*
X5321984Y-1299912D01*
X5398174Y-1395150D02*
X5398174Y-1528484D01*
X5398174Y-1414198D02*
X5407698Y-1404674D01*
X5407698Y-1404674D02*
X5426746Y-1395150D01*
X5426746Y-1395150D02*
X5455317Y-1395150D01*
X5455317Y-1395150D02*
X5474365Y-1404674D01*
X5474365Y-1404674D02*
X5483889Y-1423722D01*
X5483889Y-1423722D02*
X5483889Y-1528484D01*
X5607698Y-1528484D02*
X5588651Y-1518960D01*
X5588651Y-1518960D02*
X5579127Y-1509436D01*
X5579127Y-1509436D02*
X5569603Y-1490388D01*
X5569603Y-1490388D02*
X5569603Y-1433246D01*
X5569603Y-1433246D02*
X5579127Y-1414198D01*
X5579127Y-1414198D02*
X5588651Y-1404674D01*
X5588651Y-1404674D02*
X5607698Y-1395150D01*
X5607698Y-1395150D02*
X5636270Y-1395150D01*
X5636270Y-1395150D02*
X5655317Y-1404674D01*
X5655317Y-1404674D02*
X5664841Y-1414198D01*
X5664841Y-1414198D02*
X5674365Y-1433246D01*
X5674365Y-1433246D02*
X5674365Y-1490388D01*
X5674365Y-1490388D02*
X5664841Y-1509436D01*
X5664841Y-1509436D02*
X5655317Y-1518960D01*
X5655317Y-1518960D02*
X5636270Y-1528484D01*
X5636270Y-1528484D02*
X5607698Y-1528484D01*
X5731508Y-1395150D02*
X5807698Y-1395150D01*
X5760079Y-1328484D02*
X5760079Y-1499912D01*
X5760079Y-1499912D02*
X5769603Y-1518960D01*
X5769603Y-1518960D02*
X5788650Y-1528484D01*
X5788650Y-1528484D02*
X5807698Y-1528484D01*
X6026746Y-1395150D02*
X6026746Y-1595150D01*
X6026746Y-1404674D02*
X6045793Y-1395150D01*
X6045793Y-1395150D02*
X6083889Y-1395150D01*
X6083889Y-1395150D02*
X6102936Y-1404674D01*
X6102936Y-1404674D02*
X6112460Y-1414198D01*
X6112460Y-1414198D02*
X6121984Y-1433246D01*
X6121984Y-1433246D02*
X6121984Y-1490388D01*
X6121984Y-1490388D02*
X6112460Y-1509436D01*
X6112460Y-1509436D02*
X6102936Y-1518960D01*
X6102936Y-1518960D02*
X6083889Y-1528484D01*
X6083889Y-1528484D02*
X6045793Y-1528484D01*
X6045793Y-1528484D02*
X6026746Y-1518960D01*
X6236270Y-1528484D02*
X6217222Y-1518960D01*
X6217222Y-1518960D02*
X6207698Y-1499912D01*
X6207698Y-1499912D02*
X6207698Y-1328484D01*
X6398174Y-1528484D02*
X6398174Y-1423722D01*
X6398174Y-1423722D02*
X6388651Y-1404674D01*
X6388651Y-1404674D02*
X6369603Y-1395150D01*
X6369603Y-1395150D02*
X6331508Y-1395150D01*
X6331508Y-1395150D02*
X6312460Y-1404674D01*
X6398174Y-1518960D02*
X6379127Y-1528484D01*
X6379127Y-1528484D02*
X6331508Y-1528484D01*
X6331508Y-1528484D02*
X6312460Y-1518960D01*
X6312460Y-1518960D02*
X6302936Y-1499912D01*
X6302936Y-1499912D02*
X6302936Y-1480865D01*
X6302936Y-1480865D02*
X6312460Y-1461817D01*
X6312460Y-1461817D02*
X6331508Y-1452293D01*
X6331508Y-1452293D02*
X6379127Y-1452293D01*
X6379127Y-1452293D02*
X6398174Y-1442769D01*
X6464841Y-1395150D02*
X6541031Y-1395150D01*
X6493412Y-1328484D02*
X6493412Y-1499912D01*
X6493412Y-1499912D02*
X6502936Y-1518960D01*
X6502936Y-1518960D02*
X6521984Y-1528484D01*
X6521984Y-1528484D02*
X6541031Y-1528484D01*
X6683889Y-1518960D02*
X6664841Y-1528484D01*
X6664841Y-1528484D02*
X6626746Y-1528484D01*
X6626746Y-1528484D02*
X6607698Y-1518960D01*
X6607698Y-1518960D02*
X6598174Y-1499912D01*
X6598174Y-1499912D02*
X6598174Y-1423722D01*
X6598174Y-1423722D02*
X6607698Y-1404674D01*
X6607698Y-1404674D02*
X6626746Y-1395150D01*
X6626746Y-1395150D02*
X6664841Y-1395150D01*
X6664841Y-1395150D02*
X6683889Y-1404674D01*
X6683889Y-1404674D02*
X6693412Y-1423722D01*
X6693412Y-1423722D02*
X6693412Y-1442769D01*
X6693412Y-1442769D02*
X6598174Y-1461817D01*
X6864841Y-1528484D02*
X6864841Y-1328484D01*
X6864841Y-1518960D02*
X6845793Y-1528484D01*
X6845793Y-1528484D02*
X6807698Y-1528484D01*
X6807698Y-1528484D02*
X6788651Y-1518960D01*
X6788651Y-1518960D02*
X6779127Y-1509436D01*
X6779127Y-1509436D02*
X6769603Y-1490388D01*
X6769603Y-1490388D02*
X6769603Y-1433246D01*
X6769603Y-1433246D02*
X6779127Y-1414198D01*
X6779127Y-1414198D02*
X6788651Y-1404674D01*
X6788651Y-1404674D02*
X6807698Y-1395150D01*
X6807698Y-1395150D02*
X6845793Y-1395150D01*
X6845793Y-1395150D02*
X6864841Y-1404674D01*
X6941032Y-1604674D02*
X6950555Y-1595150D01*
X6950555Y-1595150D02*
X6969603Y-1566579D01*
X6969603Y-1566579D02*
X6979127Y-1547531D01*
X6979127Y-1547531D02*
X6988651Y-1518960D01*
X6988651Y-1518960D02*
X6998174Y-1471341D01*
X6998174Y-1471341D02*
X6998174Y-1433246D01*
X6998174Y-1433246D02*
X6988651Y-1385627D01*
X6988651Y-1385627D02*
X6979127Y-1357055D01*
X6979127Y-1357055D02*
X6969603Y-1338008D01*
X6969603Y-1338008D02*
X6950555Y-1309436D01*
X6950555Y-1309436D02*
X6941032Y-1299912D01*
D13*
X-95460Y-1797000D02*
X-5460Y-1707000D01*
X-95460Y-1617000D01*
X-185460Y-1707000D01*
X-95460Y-1797000D01*
D11*
X360079Y-1798484D02*
X245793Y-1798484D01*
X302936Y-1798484D02*
X302936Y-1598484D01*
X302936Y-1598484D02*
X283888Y-1627055D01*
X283888Y-1627055D02*
X264841Y-1646103D01*
X264841Y-1646103D02*
X245793Y-1655627D01*
X445793Y-1779436D02*
X455317Y-1788960D01*
X455317Y-1788960D02*
X445793Y-1798484D01*
X445793Y-1798484D02*
X436269Y-1788960D01*
X436269Y-1788960D02*
X445793Y-1779436D01*
X445793Y-1779436D02*
X445793Y-1798484D01*
X569602Y-1684198D02*
X550555Y-1674674D01*
X550555Y-1674674D02*
X541031Y-1665150D01*
X541031Y-1665150D02*
X531507Y-1646103D01*
X531507Y-1646103D02*
X531507Y-1636579D01*
X531507Y-1636579D02*
X541031Y-1617531D01*
X541031Y-1617531D02*
X550555Y-1608008D01*
X550555Y-1608008D02*
X569602Y-1598484D01*
X569602Y-1598484D02*
X607698Y-1598484D01*
X607698Y-1598484D02*
X626745Y-1608008D01*
X626745Y-1608008D02*
X636269Y-1617531D01*
X636269Y-1617531D02*
X645793Y-1636579D01*
X645793Y-1636579D02*
X645793Y-1646103D01*
X645793Y-1646103D02*
X636269Y-1665150D01*
X636269Y-1665150D02*
X626745Y-1674674D01*
X626745Y-1674674D02*
X607698Y-1684198D01*
X607698Y-1684198D02*
X569602Y-1684198D01*
X569602Y-1684198D02*
X550555Y-1693722D01*
X550555Y-1693722D02*
X541031Y-1703246D01*
X541031Y-1703246D02*
X531507Y-1722293D01*
X531507Y-1722293D02*
X531507Y-1760388D01*
X531507Y-1760388D02*
X541031Y-1779436D01*
X541031Y-1779436D02*
X550555Y-1788960D01*
X550555Y-1788960D02*
X569602Y-1798484D01*
X569602Y-1798484D02*
X607698Y-1798484D01*
X607698Y-1798484D02*
X626745Y-1788960D01*
X626745Y-1788960D02*
X636269Y-1779436D01*
X636269Y-1779436D02*
X645793Y-1760388D01*
X645793Y-1760388D02*
X645793Y-1722293D01*
X645793Y-1722293D02*
X636269Y-1703246D01*
X636269Y-1703246D02*
X626745Y-1693722D01*
X626745Y-1693722D02*
X607698Y-1684198D01*
X769602Y-1598484D02*
X788650Y-1598484D01*
X788650Y-1598484D02*
X807698Y-1608008D01*
X807698Y-1608008D02*
X817221Y-1617531D01*
X817221Y-1617531D02*
X826745Y-1636579D01*
X826745Y-1636579D02*
X836269Y-1674674D01*
X836269Y-1674674D02*
X836269Y-1722293D01*
X836269Y-1722293D02*
X826745Y-1760388D01*
X826745Y-1760388D02*
X817221Y-1779436D01*
X817221Y-1779436D02*
X807698Y-1788960D01*
X807698Y-1788960D02*
X788650Y-1798484D01*
X788650Y-1798484D02*
X769602Y-1798484D01*
X769602Y-1798484D02*
X750555Y-1788960D01*
X750555Y-1788960D02*
X741031Y-1779436D01*
X741031Y-1779436D02*
X731507Y-1760388D01*
X731507Y-1760388D02*
X721983Y-1722293D01*
X721983Y-1722293D02*
X721983Y-1674674D01*
X721983Y-1674674D02*
X731507Y-1636579D01*
X731507Y-1636579D02*
X741031Y-1617531D01*
X741031Y-1617531D02*
X750555Y-1608008D01*
X750555Y-1608008D02*
X769602Y-1598484D01*
X960079Y-1598484D02*
X979126Y-1598484D01*
X979126Y-1598484D02*
X998174Y-1608008D01*
X998174Y-1608008D02*
X1007698Y-1617531D01*
X1007698Y-1617531D02*
X1017221Y-1636579D01*
X1017221Y-1636579D02*
X1026745Y-1674674D01*
X1026745Y-1674674D02*
X1026745Y-1722293D01*
X1026745Y-1722293D02*
X1017221Y-1760388D01*
X1017221Y-1760388D02*
X1007698Y-1779436D01*
X1007698Y-1779436D02*
X998174Y-1788960D01*
X998174Y-1788960D02*
X979126Y-1798484D01*
X979126Y-1798484D02*
X960079Y-1798484D01*
X960079Y-1798484D02*
X941031Y-1788960D01*
X941031Y-1788960D02*
X931507Y-1779436D01*
X931507Y-1779436D02*
X921983Y-1760388D01*
X921983Y-1760388D02*
X912460Y-1722293D01*
X912460Y-1722293D02*
X912460Y-1674674D01*
X912460Y-1674674D02*
X921983Y-1636579D01*
X921983Y-1636579D02*
X931507Y-1617531D01*
X931507Y-1617531D02*
X941031Y-1608008D01*
X941031Y-1608008D02*
X960079Y-1598484D01*
X1112460Y-1798484D02*
X1112460Y-1665150D01*
X1112460Y-1684198D02*
X1121983Y-1674674D01*
X1121983Y-1674674D02*
X1141031Y-1665150D01*
X1141031Y-1665150D02*
X1169603Y-1665150D01*
X1169603Y-1665150D02*
X1188650Y-1674674D01*
X1188650Y-1674674D02*
X1198174Y-1693722D01*
X1198174Y-1693722D02*
X1198174Y-1798484D01*
X1198174Y-1693722D02*
X1207698Y-1674674D01*
X1207698Y-1674674D02*
X1226745Y-1665150D01*
X1226745Y-1665150D02*
X1255317Y-1665150D01*
X1255317Y-1665150D02*
X1274364Y-1674674D01*
X1274364Y-1674674D02*
X1283888Y-1693722D01*
X1283888Y-1693722D02*
X1283888Y-1798484D01*
X1379126Y-1798484D02*
X1379126Y-1665150D01*
X1379126Y-1684198D02*
X1388650Y-1674674D01*
X1388650Y-1674674D02*
X1407698Y-1665150D01*
X1407698Y-1665150D02*
X1436269Y-1665150D01*
X1436269Y-1665150D02*
X1455317Y-1674674D01*
X1455317Y-1674674D02*
X1464841Y-1693722D01*
X1464841Y-1693722D02*
X1464841Y-1798484D01*
X1464841Y-1693722D02*
X1474364Y-1674674D01*
X1474364Y-1674674D02*
X1493412Y-1665150D01*
X1493412Y-1665150D02*
X1521983Y-1665150D01*
X1521983Y-1665150D02*
X1541031Y-1674674D01*
X1541031Y-1674674D02*
X1550555Y-1693722D01*
X1550555Y-1693722D02*
X1550555Y-1798484D01*
X1941031Y-1588960D02*
X1769603Y-1846103D01*
X2198174Y-1598484D02*
X2217222Y-1598484D01*
X2217222Y-1598484D02*
X2236269Y-1608008D01*
X2236269Y-1608008D02*
X2245793Y-1617531D01*
X2245793Y-1617531D02*
X2255317Y-1636579D01*
X2255317Y-1636579D02*
X2264841Y-1674674D01*
X2264841Y-1674674D02*
X2264841Y-1722293D01*
X2264841Y-1722293D02*
X2255317Y-1760388D01*
X2255317Y-1760388D02*
X2245793Y-1779436D01*
X2245793Y-1779436D02*
X2236269Y-1788960D01*
X2236269Y-1788960D02*
X2217222Y-1798484D01*
X2217222Y-1798484D02*
X2198174Y-1798484D01*
X2198174Y-1798484D02*
X2179126Y-1788960D01*
X2179126Y-1788960D02*
X2169603Y-1779436D01*
X2169603Y-1779436D02*
X2160079Y-1760388D01*
X2160079Y-1760388D02*
X2150555Y-1722293D01*
X2150555Y-1722293D02*
X2150555Y-1674674D01*
X2150555Y-1674674D02*
X2160079Y-1636579D01*
X2160079Y-1636579D02*
X2169603Y-1617531D01*
X2169603Y-1617531D02*
X2179126Y-1608008D01*
X2179126Y-1608008D02*
X2198174Y-1598484D01*
X2350555Y-1779436D02*
X2360079Y-1788960D01*
X2360079Y-1788960D02*
X2350555Y-1798484D01*
X2350555Y-1798484D02*
X2341031Y-1788960D01*
X2341031Y-1788960D02*
X2350555Y-1779436D01*
X2350555Y-1779436D02*
X2350555Y-1798484D01*
X2483888Y-1598484D02*
X2502936Y-1598484D01*
X2502936Y-1598484D02*
X2521984Y-1608008D01*
X2521984Y-1608008D02*
X2531507Y-1617531D01*
X2531507Y-1617531D02*
X2541031Y-1636579D01*
X2541031Y-1636579D02*
X2550555Y-1674674D01*
X2550555Y-1674674D02*
X2550555Y-1722293D01*
X2550555Y-1722293D02*
X2541031Y-1760388D01*
X2541031Y-1760388D02*
X2531507Y-1779436D01*
X2531507Y-1779436D02*
X2521984Y-1788960D01*
X2521984Y-1788960D02*
X2502936Y-1798484D01*
X2502936Y-1798484D02*
X2483888Y-1798484D01*
X2483888Y-1798484D02*
X2464841Y-1788960D01*
X2464841Y-1788960D02*
X2455317Y-1779436D01*
X2455317Y-1779436D02*
X2445793Y-1760388D01*
X2445793Y-1760388D02*
X2436269Y-1722293D01*
X2436269Y-1722293D02*
X2436269Y-1674674D01*
X2436269Y-1674674D02*
X2445793Y-1636579D01*
X2445793Y-1636579D02*
X2455317Y-1617531D01*
X2455317Y-1617531D02*
X2464841Y-1608008D01*
X2464841Y-1608008D02*
X2483888Y-1598484D01*
X2617222Y-1598484D02*
X2750555Y-1598484D01*
X2750555Y-1598484D02*
X2664841Y-1798484D01*
X2864841Y-1598484D02*
X2883888Y-1598484D01*
X2883888Y-1598484D02*
X2902936Y-1608008D01*
X2902936Y-1608008D02*
X2912460Y-1617531D01*
X2912460Y-1617531D02*
X2921984Y-1636579D01*
X2921984Y-1636579D02*
X2931507Y-1674674D01*
X2931507Y-1674674D02*
X2931507Y-1722293D01*
X2931507Y-1722293D02*
X2921984Y-1760388D01*
X2921984Y-1760388D02*
X2912460Y-1779436D01*
X2912460Y-1779436D02*
X2902936Y-1788960D01*
X2902936Y-1788960D02*
X2883888Y-1798484D01*
X2883888Y-1798484D02*
X2864841Y-1798484D01*
X2864841Y-1798484D02*
X2845793Y-1788960D01*
X2845793Y-1788960D02*
X2836269Y-1779436D01*
X2836269Y-1779436D02*
X2826745Y-1760388D01*
X2826745Y-1760388D02*
X2817222Y-1722293D01*
X2817222Y-1722293D02*
X2817222Y-1674674D01*
X2817222Y-1674674D02*
X2826745Y-1636579D01*
X2826745Y-1636579D02*
X2836269Y-1617531D01*
X2836269Y-1617531D02*
X2845793Y-1608008D01*
X2845793Y-1608008D02*
X2864841Y-1598484D01*
X3026745Y-1798484D02*
X3064841Y-1798484D01*
X3064841Y-1798484D02*
X3083888Y-1788960D01*
X3083888Y-1788960D02*
X3093412Y-1779436D01*
X3093412Y-1779436D02*
X3112460Y-1750865D01*
X3112460Y-1750865D02*
X3121984Y-1712769D01*
X3121984Y-1712769D02*
X3121984Y-1636579D01*
X3121984Y-1636579D02*
X3112460Y-1617531D01*
X3112460Y-1617531D02*
X3102936Y-1608008D01*
X3102936Y-1608008D02*
X3083888Y-1598484D01*
X3083888Y-1598484D02*
X3045793Y-1598484D01*
X3045793Y-1598484D02*
X3026745Y-1608008D01*
X3026745Y-1608008D02*
X3017222Y-1617531D01*
X3017222Y-1617531D02*
X3007698Y-1636579D01*
X3007698Y-1636579D02*
X3007698Y-1684198D01*
X3007698Y-1684198D02*
X3017222Y-1703246D01*
X3017222Y-1703246D02*
X3026745Y-1712769D01*
X3026745Y-1712769D02*
X3045793Y-1722293D01*
X3045793Y-1722293D02*
X3083888Y-1722293D01*
X3083888Y-1722293D02*
X3102936Y-1712769D01*
X3102936Y-1712769D02*
X3112460Y-1703246D01*
X3112460Y-1703246D02*
X3121984Y-1684198D01*
X3198174Y-1598484D02*
X3198174Y-1636579D01*
X3274365Y-1598484D02*
X3274365Y-1636579D01*
X3569603Y-1874674D02*
X3560079Y-1865150D01*
X3560079Y-1865150D02*
X3541031Y-1836579D01*
X3541031Y-1836579D02*
X3531507Y-1817531D01*
X3531507Y-1817531D02*
X3521984Y-1788960D01*
X3521984Y-1788960D02*
X3512460Y-1741341D01*
X3512460Y-1741341D02*
X3512460Y-1703246D01*
X3512460Y-1703246D02*
X3521984Y-1655627D01*
X3521984Y-1655627D02*
X3531507Y-1627055D01*
X3531507Y-1627055D02*
X3541031Y-1608008D01*
X3541031Y-1608008D02*
X3560079Y-1579436D01*
X3560079Y-1579436D02*
X3569603Y-1569912D01*
X3636269Y-1617531D02*
X3645793Y-1608008D01*
X3645793Y-1608008D02*
X3664841Y-1598484D01*
X3664841Y-1598484D02*
X3712460Y-1598484D01*
X3712460Y-1598484D02*
X3731507Y-1608008D01*
X3731507Y-1608008D02*
X3741031Y-1617531D01*
X3741031Y-1617531D02*
X3750555Y-1636579D01*
X3750555Y-1636579D02*
X3750555Y-1655627D01*
X3750555Y-1655627D02*
X3741031Y-1684198D01*
X3741031Y-1684198D02*
X3626746Y-1798484D01*
X3626746Y-1798484D02*
X3750555Y-1798484D01*
X3988650Y-1798484D02*
X3988650Y-1598484D01*
X4074365Y-1798484D02*
X4074365Y-1693722D01*
X4074365Y-1693722D02*
X4064841Y-1674674D01*
X4064841Y-1674674D02*
X4045793Y-1665150D01*
X4045793Y-1665150D02*
X4017222Y-1665150D01*
X4017222Y-1665150D02*
X3998174Y-1674674D01*
X3998174Y-1674674D02*
X3988650Y-1684198D01*
X4198174Y-1798484D02*
X4179127Y-1788960D01*
X4179127Y-1788960D02*
X4169603Y-1779436D01*
X4169603Y-1779436D02*
X4160079Y-1760388D01*
X4160079Y-1760388D02*
X4160079Y-1703246D01*
X4160079Y-1703246D02*
X4169603Y-1684198D01*
X4169603Y-1684198D02*
X4179127Y-1674674D01*
X4179127Y-1674674D02*
X4198174Y-1665150D01*
X4198174Y-1665150D02*
X4226746Y-1665150D01*
X4226746Y-1665150D02*
X4245793Y-1674674D01*
X4245793Y-1674674D02*
X4255317Y-1684198D01*
X4255317Y-1684198D02*
X4264841Y-1703246D01*
X4264841Y-1703246D02*
X4264841Y-1760388D01*
X4264841Y-1760388D02*
X4255317Y-1779436D01*
X4255317Y-1779436D02*
X4245793Y-1788960D01*
X4245793Y-1788960D02*
X4226746Y-1798484D01*
X4226746Y-1798484D02*
X4198174Y-1798484D01*
X4379127Y-1798484D02*
X4360079Y-1788960D01*
X4360079Y-1788960D02*
X4350555Y-1769912D01*
X4350555Y-1769912D02*
X4350555Y-1598484D01*
X4531508Y-1788960D02*
X4512460Y-1798484D01*
X4512460Y-1798484D02*
X4474365Y-1798484D01*
X4474365Y-1798484D02*
X4455317Y-1788960D01*
X4455317Y-1788960D02*
X4445793Y-1769912D01*
X4445793Y-1769912D02*
X4445793Y-1693722D01*
X4445793Y-1693722D02*
X4455317Y-1674674D01*
X4455317Y-1674674D02*
X4474365Y-1665150D01*
X4474365Y-1665150D02*
X4512460Y-1665150D01*
X4512460Y-1665150D02*
X4531508Y-1674674D01*
X4531508Y-1674674D02*
X4541031Y-1693722D01*
X4541031Y-1693722D02*
X4541031Y-1712769D01*
X4541031Y-1712769D02*
X4445793Y-1731817D01*
X4617222Y-1788960D02*
X4636270Y-1798484D01*
X4636270Y-1798484D02*
X4674365Y-1798484D01*
X4674365Y-1798484D02*
X4693412Y-1788960D01*
X4693412Y-1788960D02*
X4702936Y-1769912D01*
X4702936Y-1769912D02*
X4702936Y-1760388D01*
X4702936Y-1760388D02*
X4693412Y-1741341D01*
X4693412Y-1741341D02*
X4674365Y-1731817D01*
X4674365Y-1731817D02*
X4645793Y-1731817D01*
X4645793Y-1731817D02*
X4626746Y-1722293D01*
X4626746Y-1722293D02*
X4617222Y-1703246D01*
X4617222Y-1703246D02*
X4617222Y-1693722D01*
X4617222Y-1693722D02*
X4626746Y-1674674D01*
X4626746Y-1674674D02*
X4645793Y-1665150D01*
X4645793Y-1665150D02*
X4674365Y-1665150D01*
X4674365Y-1665150D02*
X4693412Y-1674674D01*
X4769603Y-1874674D02*
X4779127Y-1865150D01*
X4779127Y-1865150D02*
X4798174Y-1836579D01*
X4798174Y-1836579D02*
X4807698Y-1817531D01*
X4807698Y-1817531D02*
X4817222Y-1788960D01*
X4817222Y-1788960D02*
X4826746Y-1741341D01*
X4826746Y-1741341D02*
X4826746Y-1703246D01*
X4826746Y-1703246D02*
X4817222Y-1655627D01*
X4817222Y-1655627D02*
X4807698Y-1627055D01*
X4807698Y-1627055D02*
X4798174Y-1608008D01*
X4798174Y-1608008D02*
X4779127Y-1579436D01*
X4779127Y-1579436D02*
X4769603Y-1569912D01*
X5131508Y-1874674D02*
X5121984Y-1865150D01*
X5121984Y-1865150D02*
X5102936Y-1836579D01*
X5102936Y-1836579D02*
X5093412Y-1817531D01*
X5093412Y-1817531D02*
X5083889Y-1788960D01*
X5083889Y-1788960D02*
X5074365Y-1741341D01*
X5074365Y-1741341D02*
X5074365Y-1703246D01*
X5074365Y-1703246D02*
X5083889Y-1655627D01*
X5083889Y-1655627D02*
X5093412Y-1627055D01*
X5093412Y-1627055D02*
X5102936Y-1608008D01*
X5102936Y-1608008D02*
X5121984Y-1579436D01*
X5121984Y-1579436D02*
X5131508Y-1569912D01*
X5207698Y-1665150D02*
X5207698Y-1798484D01*
X5207698Y-1684198D02*
X5217222Y-1674674D01*
X5217222Y-1674674D02*
X5236270Y-1665150D01*
X5236270Y-1665150D02*
X5264841Y-1665150D01*
X5264841Y-1665150D02*
X5283889Y-1674674D01*
X5283889Y-1674674D02*
X5293412Y-1693722D01*
X5293412Y-1693722D02*
X5293412Y-1798484D01*
X5417222Y-1798484D02*
X5398174Y-1788960D01*
X5398174Y-1788960D02*
X5388651Y-1779436D01*
X5388651Y-1779436D02*
X5379127Y-1760388D01*
X5379127Y-1760388D02*
X5379127Y-1703246D01*
X5379127Y-1703246D02*
X5388651Y-1684198D01*
X5388651Y-1684198D02*
X5398174Y-1674674D01*
X5398174Y-1674674D02*
X5417222Y-1665150D01*
X5417222Y-1665150D02*
X5445793Y-1665150D01*
X5445793Y-1665150D02*
X5464841Y-1674674D01*
X5464841Y-1674674D02*
X5474365Y-1684198D01*
X5474365Y-1684198D02*
X5483889Y-1703246D01*
X5483889Y-1703246D02*
X5483889Y-1760388D01*
X5483889Y-1760388D02*
X5474365Y-1779436D01*
X5474365Y-1779436D02*
X5464841Y-1788960D01*
X5464841Y-1788960D02*
X5445793Y-1798484D01*
X5445793Y-1798484D02*
X5417222Y-1798484D01*
X5541032Y-1665150D02*
X5617222Y-1665150D01*
X5569603Y-1598484D02*
X5569603Y-1769912D01*
X5569603Y-1769912D02*
X5579127Y-1788960D01*
X5579127Y-1788960D02*
X5598174Y-1798484D01*
X5598174Y-1798484D02*
X5617222Y-1798484D01*
X5836270Y-1665150D02*
X5836270Y-1865150D01*
X5836270Y-1674674D02*
X5855317Y-1665150D01*
X5855317Y-1665150D02*
X5893412Y-1665150D01*
X5893412Y-1665150D02*
X5912460Y-1674674D01*
X5912460Y-1674674D02*
X5921984Y-1684198D01*
X5921984Y-1684198D02*
X5931508Y-1703246D01*
X5931508Y-1703246D02*
X5931508Y-1760388D01*
X5931508Y-1760388D02*
X5921984Y-1779436D01*
X5921984Y-1779436D02*
X5912460Y-1788960D01*
X5912460Y-1788960D02*
X5893412Y-1798484D01*
X5893412Y-1798484D02*
X5855317Y-1798484D01*
X5855317Y-1798484D02*
X5836270Y-1788960D01*
X6045793Y-1798484D02*
X6026746Y-1788960D01*
X6026746Y-1788960D02*
X6017222Y-1769912D01*
X6017222Y-1769912D02*
X6017222Y-1598484D01*
X6207698Y-1798484D02*
X6207698Y-1693722D01*
X6207698Y-1693722D02*
X6198174Y-1674674D01*
X6198174Y-1674674D02*
X6179127Y-1665150D01*
X6179127Y-1665150D02*
X6141031Y-1665150D01*
X6141031Y-1665150D02*
X6121984Y-1674674D01*
X6207698Y-1788960D02*
X6188651Y-1798484D01*
X6188651Y-1798484D02*
X6141031Y-1798484D01*
X6141031Y-1798484D02*
X6121984Y-1788960D01*
X6121984Y-1788960D02*
X6112460Y-1769912D01*
X6112460Y-1769912D02*
X6112460Y-1750865D01*
X6112460Y-1750865D02*
X6121984Y-1731817D01*
X6121984Y-1731817D02*
X6141031Y-1722293D01*
X6141031Y-1722293D02*
X6188651Y-1722293D01*
X6188651Y-1722293D02*
X6207698Y-1712769D01*
X6274365Y-1665150D02*
X6350555Y-1665150D01*
X6302936Y-1598484D02*
X6302936Y-1769912D01*
X6302936Y-1769912D02*
X6312460Y-1788960D01*
X6312460Y-1788960D02*
X6331508Y-1798484D01*
X6331508Y-1798484D02*
X6350555Y-1798484D01*
X6493412Y-1788960D02*
X6474365Y-1798484D01*
X6474365Y-1798484D02*
X6436270Y-1798484D01*
X6436270Y-1798484D02*
X6417222Y-1788960D01*
X6417222Y-1788960D02*
X6407698Y-1769912D01*
X6407698Y-1769912D02*
X6407698Y-1693722D01*
X6407698Y-1693722D02*
X6417222Y-1674674D01*
X6417222Y-1674674D02*
X6436270Y-1665150D01*
X6436270Y-1665150D02*
X6474365Y-1665150D01*
X6474365Y-1665150D02*
X6493412Y-1674674D01*
X6493412Y-1674674D02*
X6502936Y-1693722D01*
X6502936Y-1693722D02*
X6502936Y-1712769D01*
X6502936Y-1712769D02*
X6407698Y-1731817D01*
X6674365Y-1798484D02*
X6674365Y-1598484D01*
X6674365Y-1788960D02*
X6655317Y-1798484D01*
X6655317Y-1798484D02*
X6617222Y-1798484D01*
X6617222Y-1798484D02*
X6598174Y-1788960D01*
X6598174Y-1788960D02*
X6588651Y-1779436D01*
X6588651Y-1779436D02*
X6579127Y-1760388D01*
X6579127Y-1760388D02*
X6579127Y-1703246D01*
X6579127Y-1703246D02*
X6588651Y-1684198D01*
X6588651Y-1684198D02*
X6598174Y-1674674D01*
X6598174Y-1674674D02*
X6617222Y-1665150D01*
X6617222Y-1665150D02*
X6655317Y-1665150D01*
X6655317Y-1665150D02*
X6674365Y-1674674D01*
X6750555Y-1874674D02*
X6760079Y-1865150D01*
X6760079Y-1865150D02*
X6779127Y-1836579D01*
X6779127Y-1836579D02*
X6788651Y-1817531D01*
X6788651Y-1817531D02*
X6798174Y-1788960D01*
X6798174Y-1788960D02*
X6807698Y-1741341D01*
X6807698Y-1741341D02*
X6807698Y-1703246D01*
X6807698Y-1703246D02*
X6798174Y-1655627D01*
X6798174Y-1655627D02*
X6788651Y-1627055D01*
X6788651Y-1627055D02*
X6779127Y-1608008D01*
X6779127Y-1608008D02*
X6760079Y-1579436D01*
X6760079Y-1579436D02*
X6750555Y-1569912D01*
M02*
