%TF.GenerationSoftware,KiCad,Pcbnew,8.0.3*%
%TF.CreationDate,2024-06-20T00:24:59-06:00*%
%TF.ProjectId,dc32,64633332-2e6b-4696-9361-645f70636258,1.0*%
%TF.SameCoordinates,PX7bb10a0PY836a940*%
%TF.FileFunction,Legend,Top*%
%TF.FilePolarity,Positive*%
%FSLAX46Y46*%
G04 Gerber Fmt 4.6, Leading zero omitted, Abs format (unit mm)*
G04 Created by KiCad (PCBNEW 8.0.3) date 2024-06-20 00:24:59*
%MOMM*%
%LPD*%
G01*
G04 APERTURE LIST*
G04 Aperture macros list*
%AMRoundRect*
0 Rectangle with rounded corners*
0 $1 Rounding radius*
0 $2 $3 $4 $5 $6 $7 $8 $9 X,Y pos of 4 corners*
0 Add a 4 corners polygon primitive as box body*
4,1,4,$2,$3,$4,$5,$6,$7,$8,$9,$2,$3,0*
0 Add four circle primitives for the rounded corners*
1,1,$1+$1,$2,$3*
1,1,$1+$1,$4,$5*
1,1,$1+$1,$6,$7*
1,1,$1+$1,$8,$9*
0 Add four rect primitives between the rounded corners*
20,1,$1+$1,$2,$3,$4,$5,0*
20,1,$1+$1,$4,$5,$6,$7,0*
20,1,$1+$1,$6,$7,$8,$9,0*
20,1,$1+$1,$8,$9,$2,$3,0*%
%AMFreePoly0*
4,1,9,0.275000,-0.800000,-0.275000,-0.800000,-0.275000,-0.400000,-0.725000,-0.400000,-0.725000,0.150000,-0.275000,0.150000,-0.275000,0.800000,0.275000,0.800000,0.275000,-0.800000,0.275000,-0.800000,$1*%
%AMFreePoly1*
4,1,9,0.275000,0.150000,0.725000,0.150000,0.725000,-0.400000,0.275000,-0.400000,0.275000,-0.800000,-0.275000,-0.800000,-0.275000,0.800000,0.275000,0.800000,0.275000,0.150000,0.275000,0.150000,$1*%
G04 Aperture macros list end*
%ADD10C,0.150000*%
%ADD11C,0.120000*%
%ADD12C,0.127000*%
%ADD13C,0.200000*%
%ADD14C,0.880000*%
%ADD15C,2.000000*%
%ADD16FreePoly0,90.000000*%
%ADD17R,1.600000X0.700000*%
%ADD18R,1.600000X0.450000*%
%ADD19FreePoly1,90.000000*%
%ADD20RoundRect,0.225000X-0.225000X-0.250000X0.225000X-0.250000X0.225000X0.250000X-0.225000X0.250000X0*%
%ADD21C,1.200000*%
%ADD22R,0.700000X1.600000*%
%ADD23R,1.200000X1.400000*%
%ADD24R,1.200000X2.200000*%
%ADD25R,1.600000X1.400000*%
%ADD26R,1.500000X1.500000*%
%ADD27RoundRect,0.150000X0.150000X0.200000X-0.150000X0.200000X-0.150000X-0.200000X0.150000X-0.200000X0*%
%ADD28RoundRect,0.250000X0.250000X0.475000X-0.250000X0.475000X-0.250000X-0.475000X0.250000X-0.475000X0*%
%ADD29FreePoly0,0.000000*%
%ADD30R,0.450000X1.600000*%
%ADD31FreePoly1,0.000000*%
%ADD32R,0.300000X1.300000*%
%ADD33R,1.800000X2.200000*%
%ADD34RoundRect,0.200000X-0.275000X0.200000X-0.275000X-0.200000X0.275000X-0.200000X0.275000X0.200000X0*%
%ADD35FreePoly0,270.000000*%
%ADD36FreePoly1,270.000000*%
%ADD37C,0.900000*%
%ADD38R,1.250000X2.500000*%
%ADD39O,3.200000X3.500000*%
%ADD40C,1.800000*%
%ADD41RoundRect,0.200000X-0.200000X-0.275000X0.200000X-0.275000X0.200000X0.275000X-0.200000X0.275000X0*%
%ADD42RoundRect,0.250000X-0.850000X0.375000X-0.850000X-0.375000X0.850000X-0.375000X0.850000X0.375000X0*%
%ADD43C,1.500000*%
%ADD44C,0.750000*%
%ADD45RoundRect,0.102000X-0.200000X-0.300000X0.200000X-0.300000X0.200000X0.300000X-0.200000X0.300000X0*%
%ADD46RoundRect,0.200000X0.200000X0.275000X-0.200000X0.275000X-0.200000X-0.275000X0.200000X-0.275000X0*%
%ADD47RoundRect,0.150000X-0.512500X-0.150000X0.512500X-0.150000X0.512500X0.150000X-0.512500X0.150000X0*%
%ADD48RoundRect,0.062500X-0.350000X-0.062500X0.350000X-0.062500X0.350000X0.062500X-0.350000X0.062500X0*%
%ADD49RoundRect,0.062500X-0.062500X-0.350000X0.062500X-0.350000X0.062500X0.350000X-0.062500X0.350000X0*%
%ADD50R,1.230000X1.230000*%
%ADD51O,1.800000X1.800000*%
%ADD52O,1.500000X1.500000*%
%ADD53R,3.500000X1.700000*%
%ADD54R,1.700000X3.500000*%
%ADD55RoundRect,0.225000X0.250000X-0.225000X0.250000X0.225000X-0.250000X0.225000X-0.250000X-0.225000X0*%
%ADD56C,0.800000*%
%ADD57C,6.400000*%
G04 APERTURE END LIST*
D10*
X26500000Y40000000D02*
X26500000Y81000000D01*
X73500000Y40000000D02*
X26500000Y40000000D01*
X73500000Y81000000D02*
X73500000Y40000000D01*
X73500000Y81000000D02*
X65300000Y81000000D01*
X26500000Y81000000D02*
X35800000Y81000000D01*
X8728571Y11168991D02*
X8395238Y11168991D01*
X8395238Y10645181D02*
X8395238Y11645181D01*
X8395238Y11645181D02*
X8871428Y11645181D01*
X9252381Y10645181D02*
X9252381Y11645181D01*
X9728571Y10645181D02*
X9728571Y11645181D01*
X9728571Y11645181D02*
X9966666Y11645181D01*
X9966666Y11645181D02*
X10109523Y11597562D01*
X10109523Y11597562D02*
X10204761Y11502324D01*
X10204761Y11502324D02*
X10252380Y11407086D01*
X10252380Y11407086D02*
X10299999Y11216610D01*
X10299999Y11216610D02*
X10299999Y11073753D01*
X10299999Y11073753D02*
X10252380Y10883277D01*
X10252380Y10883277D02*
X10204761Y10788039D01*
X10204761Y10788039D02*
X10109523Y10692800D01*
X10109523Y10692800D02*
X9966666Y10645181D01*
X9966666Y10645181D02*
X9728571Y10645181D01*
X10633333Y11645181D02*
X11252380Y11645181D01*
X11252380Y11645181D02*
X10919047Y11264229D01*
X10919047Y11264229D02*
X11061904Y11264229D01*
X11061904Y11264229D02*
X11157142Y11216610D01*
X11157142Y11216610D02*
X11204761Y11168991D01*
X11204761Y11168991D02*
X11252380Y11073753D01*
X11252380Y11073753D02*
X11252380Y10835658D01*
X11252380Y10835658D02*
X11204761Y10740420D01*
X11204761Y10740420D02*
X11157142Y10692800D01*
X11157142Y10692800D02*
X11061904Y10645181D01*
X11061904Y10645181D02*
X10776190Y10645181D01*
X10776190Y10645181D02*
X10680952Y10692800D01*
X10680952Y10692800D02*
X10633333Y10740420D01*
X93385714Y42145181D02*
X93385714Y43145181D01*
X93385714Y43145181D02*
X93623809Y43145181D01*
X93623809Y43145181D02*
X93766666Y43097562D01*
X93766666Y43097562D02*
X93861904Y43002324D01*
X93861904Y43002324D02*
X93909523Y42907086D01*
X93909523Y42907086D02*
X93957142Y42716610D01*
X93957142Y42716610D02*
X93957142Y42573753D01*
X93957142Y42573753D02*
X93909523Y42383277D01*
X93909523Y42383277D02*
X93861904Y42288039D01*
X93861904Y42288039D02*
X93766666Y42192800D01*
X93766666Y42192800D02*
X93623809Y42145181D01*
X93623809Y42145181D02*
X93385714Y42145181D01*
X94909523Y42145181D02*
X94338095Y42145181D01*
X94623809Y42145181D02*
X94623809Y43145181D01*
X94623809Y43145181D02*
X94528571Y43002324D01*
X94528571Y43002324D02*
X94433333Y42907086D01*
X94433333Y42907086D02*
X94338095Y42859467D01*
X95814285Y43145181D02*
X95338095Y43145181D01*
X95338095Y43145181D02*
X95290476Y42668991D01*
X95290476Y42668991D02*
X95338095Y42716610D01*
X95338095Y42716610D02*
X95433333Y42764229D01*
X95433333Y42764229D02*
X95671428Y42764229D01*
X95671428Y42764229D02*
X95766666Y42716610D01*
X95766666Y42716610D02*
X95814285Y42668991D01*
X95814285Y42668991D02*
X95861904Y42573753D01*
X95861904Y42573753D02*
X95861904Y42335658D01*
X95861904Y42335658D02*
X95814285Y42240420D01*
X95814285Y42240420D02*
X95766666Y42192800D01*
X95766666Y42192800D02*
X95671428Y42145181D01*
X95671428Y42145181D02*
X95433333Y42145181D01*
X95433333Y42145181D02*
X95338095Y42192800D01*
X95338095Y42192800D02*
X95290476Y42240420D01*
X16408333Y61610420D02*
X16360714Y61562800D01*
X16360714Y61562800D02*
X16217857Y61515181D01*
X16217857Y61515181D02*
X16122619Y61515181D01*
X16122619Y61515181D02*
X15979762Y61562800D01*
X15979762Y61562800D02*
X15884524Y61658039D01*
X15884524Y61658039D02*
X15836905Y61753277D01*
X15836905Y61753277D02*
X15789286Y61943753D01*
X15789286Y61943753D02*
X15789286Y62086610D01*
X15789286Y62086610D02*
X15836905Y62277086D01*
X15836905Y62277086D02*
X15884524Y62372324D01*
X15884524Y62372324D02*
X15979762Y62467562D01*
X15979762Y62467562D02*
X16122619Y62515181D01*
X16122619Y62515181D02*
X16217857Y62515181D01*
X16217857Y62515181D02*
X16360714Y62467562D01*
X16360714Y62467562D02*
X16408333Y62419943D01*
X17313095Y62515181D02*
X16836905Y62515181D01*
X16836905Y62515181D02*
X16789286Y62038991D01*
X16789286Y62038991D02*
X16836905Y62086610D01*
X16836905Y62086610D02*
X16932143Y62134229D01*
X16932143Y62134229D02*
X17170238Y62134229D01*
X17170238Y62134229D02*
X17265476Y62086610D01*
X17265476Y62086610D02*
X17313095Y62038991D01*
X17313095Y62038991D02*
X17360714Y61943753D01*
X17360714Y61943753D02*
X17360714Y61705658D01*
X17360714Y61705658D02*
X17313095Y61610420D01*
X17313095Y61610420D02*
X17265476Y61562800D01*
X17265476Y61562800D02*
X17170238Y61515181D01*
X17170238Y61515181D02*
X16932143Y61515181D01*
X16932143Y61515181D02*
X16836905Y61562800D01*
X16836905Y61562800D02*
X16789286Y61610420D01*
X14166666Y81345181D02*
X14166666Y80630896D01*
X14166666Y80630896D02*
X14119047Y80488039D01*
X14119047Y80488039D02*
X14023809Y80392800D01*
X14023809Y80392800D02*
X13880952Y80345181D01*
X13880952Y80345181D02*
X13785714Y80345181D01*
X15166666Y80345181D02*
X14595238Y80345181D01*
X14880952Y80345181D02*
X14880952Y81345181D01*
X14880952Y81345181D02*
X14785714Y81202324D01*
X14785714Y81202324D02*
X14690476Y81107086D01*
X14690476Y81107086D02*
X14595238Y81059467D01*
X77019047Y77797562D02*
X76923809Y77845181D01*
X76923809Y77845181D02*
X76780952Y77845181D01*
X76780952Y77845181D02*
X76638095Y77797562D01*
X76638095Y77797562D02*
X76542857Y77702324D01*
X76542857Y77702324D02*
X76495238Y77607086D01*
X76495238Y77607086D02*
X76447619Y77416610D01*
X76447619Y77416610D02*
X76447619Y77273753D01*
X76447619Y77273753D02*
X76495238Y77083277D01*
X76495238Y77083277D02*
X76542857Y76988039D01*
X76542857Y76988039D02*
X76638095Y76892800D01*
X76638095Y76892800D02*
X76780952Y76845181D01*
X76780952Y76845181D02*
X76876190Y76845181D01*
X76876190Y76845181D02*
X77019047Y76892800D01*
X77019047Y76892800D02*
X77066666Y76940420D01*
X77066666Y76940420D02*
X77066666Y77273753D01*
X77066666Y77273753D02*
X76876190Y77273753D01*
X77923809Y76845181D02*
X77923809Y77368991D01*
X77923809Y77368991D02*
X77876190Y77464229D01*
X77876190Y77464229D02*
X77780952Y77511848D01*
X77780952Y77511848D02*
X77590476Y77511848D01*
X77590476Y77511848D02*
X77495238Y77464229D01*
X77923809Y76892800D02*
X77828571Y76845181D01*
X77828571Y76845181D02*
X77590476Y76845181D01*
X77590476Y76845181D02*
X77495238Y76892800D01*
X77495238Y76892800D02*
X77447619Y76988039D01*
X77447619Y76988039D02*
X77447619Y77083277D01*
X77447619Y77083277D02*
X77495238Y77178515D01*
X77495238Y77178515D02*
X77590476Y77226134D01*
X77590476Y77226134D02*
X77828571Y77226134D01*
X77828571Y77226134D02*
X77923809Y77273753D01*
X78400000Y76845181D02*
X78400000Y77511848D01*
X78400000Y77845181D02*
X78352381Y77797562D01*
X78352381Y77797562D02*
X78400000Y77749943D01*
X78400000Y77749943D02*
X78447619Y77797562D01*
X78447619Y77797562D02*
X78400000Y77845181D01*
X78400000Y77845181D02*
X78400000Y77749943D01*
X78876190Y77511848D02*
X78876190Y76845181D01*
X78876190Y77416610D02*
X78923809Y77464229D01*
X78923809Y77464229D02*
X79019047Y77511848D01*
X79019047Y77511848D02*
X79161904Y77511848D01*
X79161904Y77511848D02*
X79257142Y77464229D01*
X79257142Y77464229D02*
X79304761Y77368991D01*
X79304761Y77368991D02*
X79304761Y76845181D01*
X93285714Y69245181D02*
X93285714Y70245181D01*
X93285714Y70245181D02*
X93523809Y70245181D01*
X93523809Y70245181D02*
X93666666Y70197562D01*
X93666666Y70197562D02*
X93761904Y70102324D01*
X93761904Y70102324D02*
X93809523Y70007086D01*
X93809523Y70007086D02*
X93857142Y69816610D01*
X93857142Y69816610D02*
X93857142Y69673753D01*
X93857142Y69673753D02*
X93809523Y69483277D01*
X93809523Y69483277D02*
X93761904Y69388039D01*
X93761904Y69388039D02*
X93666666Y69292800D01*
X93666666Y69292800D02*
X93523809Y69245181D01*
X93523809Y69245181D02*
X93285714Y69245181D01*
X94809523Y69245181D02*
X94238095Y69245181D01*
X94523809Y69245181D02*
X94523809Y70245181D01*
X94523809Y70245181D02*
X94428571Y70102324D01*
X94428571Y70102324D02*
X94333333Y70007086D01*
X94333333Y70007086D02*
X94238095Y69959467D01*
X95142857Y70245181D02*
X95809523Y70245181D01*
X95809523Y70245181D02*
X95380952Y69245181D01*
X66285714Y96445181D02*
X66285714Y97445181D01*
X66285714Y97445181D02*
X66523809Y97445181D01*
X66523809Y97445181D02*
X66666666Y97397562D01*
X66666666Y97397562D02*
X66761904Y97302324D01*
X66761904Y97302324D02*
X66809523Y97207086D01*
X66809523Y97207086D02*
X66857142Y97016610D01*
X66857142Y97016610D02*
X66857142Y96873753D01*
X66857142Y96873753D02*
X66809523Y96683277D01*
X66809523Y96683277D02*
X66761904Y96588039D01*
X66761904Y96588039D02*
X66666666Y96492800D01*
X66666666Y96492800D02*
X66523809Y96445181D01*
X66523809Y96445181D02*
X66285714Y96445181D01*
X67809523Y96445181D02*
X67238095Y96445181D01*
X67523809Y96445181D02*
X67523809Y97445181D01*
X67523809Y97445181D02*
X67428571Y97302324D01*
X67428571Y97302324D02*
X67333333Y97207086D01*
X67333333Y97207086D02*
X67238095Y97159467D01*
X68285714Y96445181D02*
X68476190Y96445181D01*
X68476190Y96445181D02*
X68571428Y96492800D01*
X68571428Y96492800D02*
X68619047Y96540420D01*
X68619047Y96540420D02*
X68714285Y96683277D01*
X68714285Y96683277D02*
X68761904Y96873753D01*
X68761904Y96873753D02*
X68761904Y97254705D01*
X68761904Y97254705D02*
X68714285Y97349943D01*
X68714285Y97349943D02*
X68666666Y97397562D01*
X68666666Y97397562D02*
X68571428Y97445181D01*
X68571428Y97445181D02*
X68380952Y97445181D01*
X68380952Y97445181D02*
X68285714Y97397562D01*
X68285714Y97397562D02*
X68238095Y97349943D01*
X68238095Y97349943D02*
X68190476Y97254705D01*
X68190476Y97254705D02*
X68190476Y97016610D01*
X68190476Y97016610D02*
X68238095Y96921372D01*
X68238095Y96921372D02*
X68285714Y96873753D01*
X68285714Y96873753D02*
X68380952Y96826134D01*
X68380952Y96826134D02*
X68571428Y96826134D01*
X68571428Y96826134D02*
X68666666Y96873753D01*
X68666666Y96873753D02*
X68714285Y96921372D01*
X68714285Y96921372D02*
X68761904Y97016610D01*
X83033333Y80960420D02*
X82985714Y80912800D01*
X82985714Y80912800D02*
X82842857Y80865181D01*
X82842857Y80865181D02*
X82747619Y80865181D01*
X82747619Y80865181D02*
X82604762Y80912800D01*
X82604762Y80912800D02*
X82509524Y81008039D01*
X82509524Y81008039D02*
X82461905Y81103277D01*
X82461905Y81103277D02*
X82414286Y81293753D01*
X82414286Y81293753D02*
X82414286Y81436610D01*
X82414286Y81436610D02*
X82461905Y81627086D01*
X82461905Y81627086D02*
X82509524Y81722324D01*
X82509524Y81722324D02*
X82604762Y81817562D01*
X82604762Y81817562D02*
X82747619Y81865181D01*
X82747619Y81865181D02*
X82842857Y81865181D01*
X82842857Y81865181D02*
X82985714Y81817562D01*
X82985714Y81817562D02*
X83033333Y81769943D01*
X83985714Y80865181D02*
X83414286Y80865181D01*
X83700000Y80865181D02*
X83700000Y81865181D01*
X83700000Y81865181D02*
X83604762Y81722324D01*
X83604762Y81722324D02*
X83509524Y81627086D01*
X83509524Y81627086D02*
X83414286Y81579467D01*
X93385714Y55945181D02*
X93385714Y56945181D01*
X93385714Y56945181D02*
X93623809Y56945181D01*
X93623809Y56945181D02*
X93766666Y56897562D01*
X93766666Y56897562D02*
X93861904Y56802324D01*
X93861904Y56802324D02*
X93909523Y56707086D01*
X93909523Y56707086D02*
X93957142Y56516610D01*
X93957142Y56516610D02*
X93957142Y56373753D01*
X93957142Y56373753D02*
X93909523Y56183277D01*
X93909523Y56183277D02*
X93861904Y56088039D01*
X93861904Y56088039D02*
X93766666Y55992800D01*
X93766666Y55992800D02*
X93623809Y55945181D01*
X93623809Y55945181D02*
X93385714Y55945181D01*
X94909523Y55945181D02*
X94338095Y55945181D01*
X94623809Y55945181D02*
X94623809Y56945181D01*
X94623809Y56945181D02*
X94528571Y56802324D01*
X94528571Y56802324D02*
X94433333Y56707086D01*
X94433333Y56707086D02*
X94338095Y56659467D01*
X95766666Y56945181D02*
X95576190Y56945181D01*
X95576190Y56945181D02*
X95480952Y56897562D01*
X95480952Y56897562D02*
X95433333Y56849943D01*
X95433333Y56849943D02*
X95338095Y56707086D01*
X95338095Y56707086D02*
X95290476Y56516610D01*
X95290476Y56516610D02*
X95290476Y56135658D01*
X95290476Y56135658D02*
X95338095Y56040420D01*
X95338095Y56040420D02*
X95385714Y55992800D01*
X95385714Y55992800D02*
X95480952Y55945181D01*
X95480952Y55945181D02*
X95671428Y55945181D01*
X95671428Y55945181D02*
X95766666Y55992800D01*
X95766666Y55992800D02*
X95814285Y56040420D01*
X95814285Y56040420D02*
X95861904Y56135658D01*
X95861904Y56135658D02*
X95861904Y56373753D01*
X95861904Y56373753D02*
X95814285Y56468991D01*
X95814285Y56468991D02*
X95766666Y56516610D01*
X95766666Y56516610D02*
X95671428Y56564229D01*
X95671428Y56564229D02*
X95480952Y56564229D01*
X95480952Y56564229D02*
X95385714Y56516610D01*
X95385714Y56516610D02*
X95338095Y56468991D01*
X95338095Y56468991D02*
X95290476Y56373753D01*
X93285714Y83345181D02*
X93285714Y84345181D01*
X93285714Y84345181D02*
X93523809Y84345181D01*
X93523809Y84345181D02*
X93666666Y84297562D01*
X93666666Y84297562D02*
X93761904Y84202324D01*
X93761904Y84202324D02*
X93809523Y84107086D01*
X93809523Y84107086D02*
X93857142Y83916610D01*
X93857142Y83916610D02*
X93857142Y83773753D01*
X93857142Y83773753D02*
X93809523Y83583277D01*
X93809523Y83583277D02*
X93761904Y83488039D01*
X93761904Y83488039D02*
X93666666Y83392800D01*
X93666666Y83392800D02*
X93523809Y83345181D01*
X93523809Y83345181D02*
X93285714Y83345181D01*
X94809523Y83345181D02*
X94238095Y83345181D01*
X94523809Y83345181D02*
X94523809Y84345181D01*
X94523809Y84345181D02*
X94428571Y84202324D01*
X94428571Y84202324D02*
X94333333Y84107086D01*
X94333333Y84107086D02*
X94238095Y84059467D01*
X95380952Y83916610D02*
X95285714Y83964229D01*
X95285714Y83964229D02*
X95238095Y84011848D01*
X95238095Y84011848D02*
X95190476Y84107086D01*
X95190476Y84107086D02*
X95190476Y84154705D01*
X95190476Y84154705D02*
X95238095Y84249943D01*
X95238095Y84249943D02*
X95285714Y84297562D01*
X95285714Y84297562D02*
X95380952Y84345181D01*
X95380952Y84345181D02*
X95571428Y84345181D01*
X95571428Y84345181D02*
X95666666Y84297562D01*
X95666666Y84297562D02*
X95714285Y84249943D01*
X95714285Y84249943D02*
X95761904Y84154705D01*
X95761904Y84154705D02*
X95761904Y84107086D01*
X95761904Y84107086D02*
X95714285Y84011848D01*
X95714285Y84011848D02*
X95666666Y83964229D01*
X95666666Y83964229D02*
X95571428Y83916610D01*
X95571428Y83916610D02*
X95380952Y83916610D01*
X95380952Y83916610D02*
X95285714Y83868991D01*
X95285714Y83868991D02*
X95238095Y83821372D01*
X95238095Y83821372D02*
X95190476Y83726134D01*
X95190476Y83726134D02*
X95190476Y83535658D01*
X95190476Y83535658D02*
X95238095Y83440420D01*
X95238095Y83440420D02*
X95285714Y83392800D01*
X95285714Y83392800D02*
X95380952Y83345181D01*
X95380952Y83345181D02*
X95571428Y83345181D01*
X95571428Y83345181D02*
X95666666Y83392800D01*
X95666666Y83392800D02*
X95714285Y83440420D01*
X95714285Y83440420D02*
X95761904Y83535658D01*
X95761904Y83535658D02*
X95761904Y83726134D01*
X95761904Y83726134D02*
X95714285Y83821372D01*
X95714285Y83821372D02*
X95666666Y83868991D01*
X95666666Y83868991D02*
X95571428Y83916610D01*
X15086905Y4155181D02*
X15086905Y5155181D01*
X15086905Y5155181D02*
X15325000Y5155181D01*
X15325000Y5155181D02*
X15467857Y5107562D01*
X15467857Y5107562D02*
X15563095Y5012324D01*
X15563095Y5012324D02*
X15610714Y4917086D01*
X15610714Y4917086D02*
X15658333Y4726610D01*
X15658333Y4726610D02*
X15658333Y4583753D01*
X15658333Y4583753D02*
X15610714Y4393277D01*
X15610714Y4393277D02*
X15563095Y4298039D01*
X15563095Y4298039D02*
X15467857Y4202800D01*
X15467857Y4202800D02*
X15325000Y4155181D01*
X15325000Y4155181D02*
X15086905Y4155181D01*
X15991667Y5155181D02*
X16658333Y5155181D01*
X16658333Y5155181D02*
X16229762Y4155181D01*
X34966666Y21145181D02*
X34966666Y20430896D01*
X34966666Y20430896D02*
X34919047Y20288039D01*
X34919047Y20288039D02*
X34823809Y20192800D01*
X34823809Y20192800D02*
X34680952Y20145181D01*
X34680952Y20145181D02*
X34585714Y20145181D01*
X35395238Y21049943D02*
X35442857Y21097562D01*
X35442857Y21097562D02*
X35538095Y21145181D01*
X35538095Y21145181D02*
X35776190Y21145181D01*
X35776190Y21145181D02*
X35871428Y21097562D01*
X35871428Y21097562D02*
X35919047Y21049943D01*
X35919047Y21049943D02*
X35966666Y20954705D01*
X35966666Y20954705D02*
X35966666Y20859467D01*
X35966666Y20859467D02*
X35919047Y20716610D01*
X35919047Y20716610D02*
X35347619Y20145181D01*
X35347619Y20145181D02*
X35966666Y20145181D01*
X24533333Y65610181D02*
X24200000Y66086372D01*
X23961905Y65610181D02*
X23961905Y66610181D01*
X23961905Y66610181D02*
X24342857Y66610181D01*
X24342857Y66610181D02*
X24438095Y66562562D01*
X24438095Y66562562D02*
X24485714Y66514943D01*
X24485714Y66514943D02*
X24533333Y66419705D01*
X24533333Y66419705D02*
X24533333Y66276848D01*
X24533333Y66276848D02*
X24485714Y66181610D01*
X24485714Y66181610D02*
X24438095Y66133991D01*
X24438095Y66133991D02*
X24342857Y66086372D01*
X24342857Y66086372D02*
X23961905Y66086372D01*
X24866667Y66610181D02*
X25485714Y66610181D01*
X25485714Y66610181D02*
X25152381Y66229229D01*
X25152381Y66229229D02*
X25295238Y66229229D01*
X25295238Y66229229D02*
X25390476Y66181610D01*
X25390476Y66181610D02*
X25438095Y66133991D01*
X25438095Y66133991D02*
X25485714Y66038753D01*
X25485714Y66038753D02*
X25485714Y65800658D01*
X25485714Y65800658D02*
X25438095Y65705420D01*
X25438095Y65705420D02*
X25390476Y65657800D01*
X25390476Y65657800D02*
X25295238Y65610181D01*
X25295238Y65610181D02*
X25009524Y65610181D01*
X25009524Y65610181D02*
X24914286Y65657800D01*
X24914286Y65657800D02*
X24866667Y65705420D01*
X4461905Y15345181D02*
X4461905Y16345181D01*
X4461905Y16345181D02*
X4700000Y16345181D01*
X4700000Y16345181D02*
X4842857Y16297562D01*
X4842857Y16297562D02*
X4938095Y16202324D01*
X4938095Y16202324D02*
X4985714Y16107086D01*
X4985714Y16107086D02*
X5033333Y15916610D01*
X5033333Y15916610D02*
X5033333Y15773753D01*
X5033333Y15773753D02*
X4985714Y15583277D01*
X4985714Y15583277D02*
X4938095Y15488039D01*
X4938095Y15488039D02*
X4842857Y15392800D01*
X4842857Y15392800D02*
X4700000Y15345181D01*
X4700000Y15345181D02*
X4461905Y15345181D01*
X5890476Y16345181D02*
X5700000Y16345181D01*
X5700000Y16345181D02*
X5604762Y16297562D01*
X5604762Y16297562D02*
X5557143Y16249943D01*
X5557143Y16249943D02*
X5461905Y16107086D01*
X5461905Y16107086D02*
X5414286Y15916610D01*
X5414286Y15916610D02*
X5414286Y15535658D01*
X5414286Y15535658D02*
X5461905Y15440420D01*
X5461905Y15440420D02*
X5509524Y15392800D01*
X5509524Y15392800D02*
X5604762Y15345181D01*
X5604762Y15345181D02*
X5795238Y15345181D01*
X5795238Y15345181D02*
X5890476Y15392800D01*
X5890476Y15392800D02*
X5938095Y15440420D01*
X5938095Y15440420D02*
X5985714Y15535658D01*
X5985714Y15535658D02*
X5985714Y15773753D01*
X5985714Y15773753D02*
X5938095Y15868991D01*
X5938095Y15868991D02*
X5890476Y15916610D01*
X5890476Y15916610D02*
X5795238Y15964229D01*
X5795238Y15964229D02*
X5604762Y15964229D01*
X5604762Y15964229D02*
X5509524Y15916610D01*
X5509524Y15916610D02*
X5461905Y15868991D01*
X5461905Y15868991D02*
X5414286Y15773753D01*
X4361905Y56045181D02*
X4361905Y57045181D01*
X4361905Y57045181D02*
X4600000Y57045181D01*
X4600000Y57045181D02*
X4742857Y56997562D01*
X4742857Y56997562D02*
X4838095Y56902324D01*
X4838095Y56902324D02*
X4885714Y56807086D01*
X4885714Y56807086D02*
X4933333Y56616610D01*
X4933333Y56616610D02*
X4933333Y56473753D01*
X4933333Y56473753D02*
X4885714Y56283277D01*
X4885714Y56283277D02*
X4838095Y56188039D01*
X4838095Y56188039D02*
X4742857Y56092800D01*
X4742857Y56092800D02*
X4600000Y56045181D01*
X4600000Y56045181D02*
X4361905Y56045181D01*
X5266667Y57045181D02*
X5885714Y57045181D01*
X5885714Y57045181D02*
X5552381Y56664229D01*
X5552381Y56664229D02*
X5695238Y56664229D01*
X5695238Y56664229D02*
X5790476Y56616610D01*
X5790476Y56616610D02*
X5838095Y56568991D01*
X5838095Y56568991D02*
X5885714Y56473753D01*
X5885714Y56473753D02*
X5885714Y56235658D01*
X5885714Y56235658D02*
X5838095Y56140420D01*
X5838095Y56140420D02*
X5790476Y56092800D01*
X5790476Y56092800D02*
X5695238Y56045181D01*
X5695238Y56045181D02*
X5409524Y56045181D01*
X5409524Y56045181D02*
X5314286Y56092800D01*
X5314286Y56092800D02*
X5266667Y56140420D01*
X69170714Y4155181D02*
X69170714Y5155181D01*
X69170714Y5155181D02*
X69408809Y5155181D01*
X69408809Y5155181D02*
X69551666Y5107562D01*
X69551666Y5107562D02*
X69646904Y5012324D01*
X69646904Y5012324D02*
X69694523Y4917086D01*
X69694523Y4917086D02*
X69742142Y4726610D01*
X69742142Y4726610D02*
X69742142Y4583753D01*
X69742142Y4583753D02*
X69694523Y4393277D01*
X69694523Y4393277D02*
X69646904Y4298039D01*
X69646904Y4298039D02*
X69551666Y4202800D01*
X69551666Y4202800D02*
X69408809Y4155181D01*
X69408809Y4155181D02*
X69170714Y4155181D01*
X70694523Y4155181D02*
X70123095Y4155181D01*
X70408809Y4155181D02*
X70408809Y5155181D01*
X70408809Y5155181D02*
X70313571Y5012324D01*
X70313571Y5012324D02*
X70218333Y4917086D01*
X70218333Y4917086D02*
X70123095Y4869467D01*
X71646904Y4155181D02*
X71075476Y4155181D01*
X71361190Y4155181D02*
X71361190Y5155181D01*
X71361190Y5155181D02*
X71265952Y5012324D01*
X71265952Y5012324D02*
X71170714Y4917086D01*
X71170714Y4917086D02*
X71075476Y4869467D01*
X75066667Y92492800D02*
X75209524Y92445181D01*
X75209524Y92445181D02*
X75447619Y92445181D01*
X75447619Y92445181D02*
X75542857Y92492800D01*
X75542857Y92492800D02*
X75590476Y92540420D01*
X75590476Y92540420D02*
X75638095Y92635658D01*
X75638095Y92635658D02*
X75638095Y92730896D01*
X75638095Y92730896D02*
X75590476Y92826134D01*
X75590476Y92826134D02*
X75542857Y92873753D01*
X75542857Y92873753D02*
X75447619Y92921372D01*
X75447619Y92921372D02*
X75257143Y92968991D01*
X75257143Y92968991D02*
X75161905Y93016610D01*
X75161905Y93016610D02*
X75114286Y93064229D01*
X75114286Y93064229D02*
X75066667Y93159467D01*
X75066667Y93159467D02*
X75066667Y93254705D01*
X75066667Y93254705D02*
X75114286Y93349943D01*
X75114286Y93349943D02*
X75161905Y93397562D01*
X75161905Y93397562D02*
X75257143Y93445181D01*
X75257143Y93445181D02*
X75495238Y93445181D01*
X75495238Y93445181D02*
X75638095Y93397562D01*
X75971429Y93445181D02*
X76209524Y92445181D01*
X76209524Y92445181D02*
X76400000Y93159467D01*
X76400000Y93159467D02*
X76590476Y92445181D01*
X76590476Y92445181D02*
X76828572Y93445181D01*
X77733333Y92445181D02*
X77161905Y92445181D01*
X77447619Y92445181D02*
X77447619Y93445181D01*
X77447619Y93445181D02*
X77352381Y93302324D01*
X77352381Y93302324D02*
X77257143Y93207086D01*
X77257143Y93207086D02*
X77161905Y93159467D01*
X89428571Y11168991D02*
X89095238Y11168991D01*
X89095238Y10645181D02*
X89095238Y11645181D01*
X89095238Y11645181D02*
X89571428Y11645181D01*
X89952381Y10645181D02*
X89952381Y11645181D01*
X90428571Y10645181D02*
X90428571Y11645181D01*
X90428571Y11645181D02*
X90666666Y11645181D01*
X90666666Y11645181D02*
X90809523Y11597562D01*
X90809523Y11597562D02*
X90904761Y11502324D01*
X90904761Y11502324D02*
X90952380Y11407086D01*
X90952380Y11407086D02*
X90999999Y11216610D01*
X90999999Y11216610D02*
X90999999Y11073753D01*
X90999999Y11073753D02*
X90952380Y10883277D01*
X90952380Y10883277D02*
X90904761Y10788039D01*
X90904761Y10788039D02*
X90809523Y10692800D01*
X90809523Y10692800D02*
X90666666Y10645181D01*
X90666666Y10645181D02*
X90428571Y10645181D01*
X91857142Y11311848D02*
X91857142Y10645181D01*
X91619047Y11692800D02*
X91380952Y10978515D01*
X91380952Y10978515D02*
X91999999Y10978515D01*
X4461905Y42300181D02*
X4461905Y43300181D01*
X4461905Y43300181D02*
X4700000Y43300181D01*
X4700000Y43300181D02*
X4842857Y43252562D01*
X4842857Y43252562D02*
X4938095Y43157324D01*
X4938095Y43157324D02*
X4985714Y43062086D01*
X4985714Y43062086D02*
X5033333Y42871610D01*
X5033333Y42871610D02*
X5033333Y42728753D01*
X5033333Y42728753D02*
X4985714Y42538277D01*
X4985714Y42538277D02*
X4938095Y42443039D01*
X4938095Y42443039D02*
X4842857Y42347800D01*
X4842857Y42347800D02*
X4700000Y42300181D01*
X4700000Y42300181D02*
X4461905Y42300181D01*
X5890476Y42966848D02*
X5890476Y42300181D01*
X5652381Y43347800D02*
X5414286Y42633515D01*
X5414286Y42633515D02*
X6033333Y42633515D01*
X73766667Y17292800D02*
X73909524Y17245181D01*
X73909524Y17245181D02*
X74147619Y17245181D01*
X74147619Y17245181D02*
X74242857Y17292800D01*
X74242857Y17292800D02*
X74290476Y17340420D01*
X74290476Y17340420D02*
X74338095Y17435658D01*
X74338095Y17435658D02*
X74338095Y17530896D01*
X74338095Y17530896D02*
X74290476Y17626134D01*
X74290476Y17626134D02*
X74242857Y17673753D01*
X74242857Y17673753D02*
X74147619Y17721372D01*
X74147619Y17721372D02*
X73957143Y17768991D01*
X73957143Y17768991D02*
X73861905Y17816610D01*
X73861905Y17816610D02*
X73814286Y17864229D01*
X73814286Y17864229D02*
X73766667Y17959467D01*
X73766667Y17959467D02*
X73766667Y18054705D01*
X73766667Y18054705D02*
X73814286Y18149943D01*
X73814286Y18149943D02*
X73861905Y18197562D01*
X73861905Y18197562D02*
X73957143Y18245181D01*
X73957143Y18245181D02*
X74195238Y18245181D01*
X74195238Y18245181D02*
X74338095Y18197562D01*
X74671429Y18245181D02*
X74909524Y17245181D01*
X74909524Y17245181D02*
X75100000Y17959467D01*
X75100000Y17959467D02*
X75290476Y17245181D01*
X75290476Y17245181D02*
X75528572Y18245181D01*
X75861905Y18149943D02*
X75909524Y18197562D01*
X75909524Y18197562D02*
X76004762Y18245181D01*
X76004762Y18245181D02*
X76242857Y18245181D01*
X76242857Y18245181D02*
X76338095Y18197562D01*
X76338095Y18197562D02*
X76385714Y18149943D01*
X76385714Y18149943D02*
X76433333Y18054705D01*
X76433333Y18054705D02*
X76433333Y17959467D01*
X76433333Y17959467D02*
X76385714Y17816610D01*
X76385714Y17816610D02*
X75814286Y17245181D01*
X75814286Y17245181D02*
X76433333Y17245181D01*
X63833333Y19045181D02*
X63500000Y19521372D01*
X63261905Y19045181D02*
X63261905Y20045181D01*
X63261905Y20045181D02*
X63642857Y20045181D01*
X63642857Y20045181D02*
X63738095Y19997562D01*
X63738095Y19997562D02*
X63785714Y19949943D01*
X63785714Y19949943D02*
X63833333Y19854705D01*
X63833333Y19854705D02*
X63833333Y19711848D01*
X63833333Y19711848D02*
X63785714Y19616610D01*
X63785714Y19616610D02*
X63738095Y19568991D01*
X63738095Y19568991D02*
X63642857Y19521372D01*
X63642857Y19521372D02*
X63261905Y19521372D01*
X64214286Y19949943D02*
X64261905Y19997562D01*
X64261905Y19997562D02*
X64357143Y20045181D01*
X64357143Y20045181D02*
X64595238Y20045181D01*
X64595238Y20045181D02*
X64690476Y19997562D01*
X64690476Y19997562D02*
X64738095Y19949943D01*
X64738095Y19949943D02*
X64785714Y19854705D01*
X64785714Y19854705D02*
X64785714Y19759467D01*
X64785714Y19759467D02*
X64738095Y19616610D01*
X64738095Y19616610D02*
X64166667Y19045181D01*
X64166667Y19045181D02*
X64785714Y19045181D01*
X9028571Y93468991D02*
X8695238Y93468991D01*
X8695238Y92945181D02*
X8695238Y93945181D01*
X8695238Y93945181D02*
X9171428Y93945181D01*
X9552381Y92945181D02*
X9552381Y93945181D01*
X10028571Y92945181D02*
X10028571Y93945181D01*
X10028571Y93945181D02*
X10266666Y93945181D01*
X10266666Y93945181D02*
X10409523Y93897562D01*
X10409523Y93897562D02*
X10504761Y93802324D01*
X10504761Y93802324D02*
X10552380Y93707086D01*
X10552380Y93707086D02*
X10599999Y93516610D01*
X10599999Y93516610D02*
X10599999Y93373753D01*
X10599999Y93373753D02*
X10552380Y93183277D01*
X10552380Y93183277D02*
X10504761Y93088039D01*
X10504761Y93088039D02*
X10409523Y92992800D01*
X10409523Y92992800D02*
X10266666Y92945181D01*
X10266666Y92945181D02*
X10028571Y92945181D01*
X11552380Y92945181D02*
X10980952Y92945181D01*
X11266666Y92945181D02*
X11266666Y93945181D01*
X11266666Y93945181D02*
X11171428Y93802324D01*
X11171428Y93802324D02*
X11076190Y93707086D01*
X11076190Y93707086D02*
X10980952Y93659467D01*
X55530714Y4155181D02*
X55530714Y5155181D01*
X55530714Y5155181D02*
X55768809Y5155181D01*
X55768809Y5155181D02*
X55911666Y5107562D01*
X55911666Y5107562D02*
X56006904Y5012324D01*
X56006904Y5012324D02*
X56054523Y4917086D01*
X56054523Y4917086D02*
X56102142Y4726610D01*
X56102142Y4726610D02*
X56102142Y4583753D01*
X56102142Y4583753D02*
X56054523Y4393277D01*
X56054523Y4393277D02*
X56006904Y4298039D01*
X56006904Y4298039D02*
X55911666Y4202800D01*
X55911666Y4202800D02*
X55768809Y4155181D01*
X55768809Y4155181D02*
X55530714Y4155181D01*
X57054523Y4155181D02*
X56483095Y4155181D01*
X56768809Y4155181D02*
X56768809Y5155181D01*
X56768809Y5155181D02*
X56673571Y5012324D01*
X56673571Y5012324D02*
X56578333Y4917086D01*
X56578333Y4917086D02*
X56483095Y4869467D01*
X57673571Y5155181D02*
X57768809Y5155181D01*
X57768809Y5155181D02*
X57864047Y5107562D01*
X57864047Y5107562D02*
X57911666Y5059943D01*
X57911666Y5059943D02*
X57959285Y4964705D01*
X57959285Y4964705D02*
X58006904Y4774229D01*
X58006904Y4774229D02*
X58006904Y4536134D01*
X58006904Y4536134D02*
X57959285Y4345658D01*
X57959285Y4345658D02*
X57911666Y4250420D01*
X57911666Y4250420D02*
X57864047Y4202800D01*
X57864047Y4202800D02*
X57768809Y4155181D01*
X57768809Y4155181D02*
X57673571Y4155181D01*
X57673571Y4155181D02*
X57578333Y4202800D01*
X57578333Y4202800D02*
X57530714Y4250420D01*
X57530714Y4250420D02*
X57483095Y4345658D01*
X57483095Y4345658D02*
X57435476Y4536134D01*
X57435476Y4536134D02*
X57435476Y4774229D01*
X57435476Y4774229D02*
X57483095Y4964705D01*
X57483095Y4964705D02*
X57530714Y5059943D01*
X57530714Y5059943D02*
X57578333Y5107562D01*
X57578333Y5107562D02*
X57673571Y5155181D01*
X88433333Y85845181D02*
X87957143Y85845181D01*
X87957143Y85845181D02*
X87957143Y86845181D01*
X89290476Y85845181D02*
X88719048Y85845181D01*
X89004762Y85845181D02*
X89004762Y86845181D01*
X89004762Y86845181D02*
X88909524Y86702324D01*
X88909524Y86702324D02*
X88814286Y86607086D01*
X88814286Y86607086D02*
X88719048Y86559467D01*
X82810714Y4155181D02*
X82810714Y5155181D01*
X82810714Y5155181D02*
X83048809Y5155181D01*
X83048809Y5155181D02*
X83191666Y5107562D01*
X83191666Y5107562D02*
X83286904Y5012324D01*
X83286904Y5012324D02*
X83334523Y4917086D01*
X83334523Y4917086D02*
X83382142Y4726610D01*
X83382142Y4726610D02*
X83382142Y4583753D01*
X83382142Y4583753D02*
X83334523Y4393277D01*
X83334523Y4393277D02*
X83286904Y4298039D01*
X83286904Y4298039D02*
X83191666Y4202800D01*
X83191666Y4202800D02*
X83048809Y4155181D01*
X83048809Y4155181D02*
X82810714Y4155181D01*
X84334523Y4155181D02*
X83763095Y4155181D01*
X84048809Y4155181D02*
X84048809Y5155181D01*
X84048809Y5155181D02*
X83953571Y5012324D01*
X83953571Y5012324D02*
X83858333Y4917086D01*
X83858333Y4917086D02*
X83763095Y4869467D01*
X84715476Y5059943D02*
X84763095Y5107562D01*
X84763095Y5107562D02*
X84858333Y5155181D01*
X84858333Y5155181D02*
X85096428Y5155181D01*
X85096428Y5155181D02*
X85191666Y5107562D01*
X85191666Y5107562D02*
X85239285Y5059943D01*
X85239285Y5059943D02*
X85286904Y4964705D01*
X85286904Y4964705D02*
X85286904Y4869467D01*
X85286904Y4869467D02*
X85239285Y4726610D01*
X85239285Y4726610D02*
X84667857Y4155181D01*
X84667857Y4155181D02*
X85286904Y4155181D01*
X15090476Y69237705D02*
X15090476Y68590086D01*
X15090476Y68590086D02*
X15128571Y68513896D01*
X15128571Y68513896D02*
X15166666Y68475800D01*
X15166666Y68475800D02*
X15242857Y68437705D01*
X15242857Y68437705D02*
X15395238Y68437705D01*
X15395238Y68437705D02*
X15471428Y68475800D01*
X15471428Y68475800D02*
X15509523Y68513896D01*
X15509523Y68513896D02*
X15547619Y68590086D01*
X15547619Y68590086D02*
X15547619Y69237705D01*
X15890475Y69161515D02*
X15928571Y69199610D01*
X15928571Y69199610D02*
X16004761Y69237705D01*
X16004761Y69237705D02*
X16195237Y69237705D01*
X16195237Y69237705D02*
X16271428Y69199610D01*
X16271428Y69199610D02*
X16309523Y69161515D01*
X16309523Y69161515D02*
X16347618Y69085324D01*
X16347618Y69085324D02*
X16347618Y69009134D01*
X16347618Y69009134D02*
X16309523Y68894848D01*
X16309523Y68894848D02*
X15852380Y68437705D01*
X15852380Y68437705D02*
X16347618Y68437705D01*
X44233333Y19040420D02*
X44185714Y18992800D01*
X44185714Y18992800D02*
X44042857Y18945181D01*
X44042857Y18945181D02*
X43947619Y18945181D01*
X43947619Y18945181D02*
X43804762Y18992800D01*
X43804762Y18992800D02*
X43709524Y19088039D01*
X43709524Y19088039D02*
X43661905Y19183277D01*
X43661905Y19183277D02*
X43614286Y19373753D01*
X43614286Y19373753D02*
X43614286Y19516610D01*
X43614286Y19516610D02*
X43661905Y19707086D01*
X43661905Y19707086D02*
X43709524Y19802324D01*
X43709524Y19802324D02*
X43804762Y19897562D01*
X43804762Y19897562D02*
X43947619Y19945181D01*
X43947619Y19945181D02*
X44042857Y19945181D01*
X44042857Y19945181D02*
X44185714Y19897562D01*
X44185714Y19897562D02*
X44233333Y19849943D01*
X45090476Y19611848D02*
X45090476Y18945181D01*
X44852381Y19992800D02*
X44614286Y19278515D01*
X44614286Y19278515D02*
X45233333Y19278515D01*
X81558333Y90470420D02*
X81510714Y90422800D01*
X81510714Y90422800D02*
X81367857Y90375181D01*
X81367857Y90375181D02*
X81272619Y90375181D01*
X81272619Y90375181D02*
X81129762Y90422800D01*
X81129762Y90422800D02*
X81034524Y90518039D01*
X81034524Y90518039D02*
X80986905Y90613277D01*
X80986905Y90613277D02*
X80939286Y90803753D01*
X80939286Y90803753D02*
X80939286Y90946610D01*
X80939286Y90946610D02*
X80986905Y91137086D01*
X80986905Y91137086D02*
X81034524Y91232324D01*
X81034524Y91232324D02*
X81129762Y91327562D01*
X81129762Y91327562D02*
X81272619Y91375181D01*
X81272619Y91375181D02*
X81367857Y91375181D01*
X81367857Y91375181D02*
X81510714Y91327562D01*
X81510714Y91327562D02*
X81558333Y91279943D01*
X81939286Y91279943D02*
X81986905Y91327562D01*
X81986905Y91327562D02*
X82082143Y91375181D01*
X82082143Y91375181D02*
X82320238Y91375181D01*
X82320238Y91375181D02*
X82415476Y91327562D01*
X82415476Y91327562D02*
X82463095Y91279943D01*
X82463095Y91279943D02*
X82510714Y91184705D01*
X82510714Y91184705D02*
X82510714Y91089467D01*
X82510714Y91089467D02*
X82463095Y90946610D01*
X82463095Y90946610D02*
X81891667Y90375181D01*
X81891667Y90375181D02*
X82510714Y90375181D01*
X42366905Y4155181D02*
X42366905Y5155181D01*
X42366905Y5155181D02*
X42605000Y5155181D01*
X42605000Y5155181D02*
X42747857Y5107562D01*
X42747857Y5107562D02*
X42843095Y5012324D01*
X42843095Y5012324D02*
X42890714Y4917086D01*
X42890714Y4917086D02*
X42938333Y4726610D01*
X42938333Y4726610D02*
X42938333Y4583753D01*
X42938333Y4583753D02*
X42890714Y4393277D01*
X42890714Y4393277D02*
X42843095Y4298039D01*
X42843095Y4298039D02*
X42747857Y4202800D01*
X42747857Y4202800D02*
X42605000Y4155181D01*
X42605000Y4155181D02*
X42366905Y4155181D01*
X43414524Y4155181D02*
X43605000Y4155181D01*
X43605000Y4155181D02*
X43700238Y4202800D01*
X43700238Y4202800D02*
X43747857Y4250420D01*
X43747857Y4250420D02*
X43843095Y4393277D01*
X43843095Y4393277D02*
X43890714Y4583753D01*
X43890714Y4583753D02*
X43890714Y4964705D01*
X43890714Y4964705D02*
X43843095Y5059943D01*
X43843095Y5059943D02*
X43795476Y5107562D01*
X43795476Y5107562D02*
X43700238Y5155181D01*
X43700238Y5155181D02*
X43509762Y5155181D01*
X43509762Y5155181D02*
X43414524Y5107562D01*
X43414524Y5107562D02*
X43366905Y5059943D01*
X43366905Y5059943D02*
X43319286Y4964705D01*
X43319286Y4964705D02*
X43319286Y4726610D01*
X43319286Y4726610D02*
X43366905Y4631372D01*
X43366905Y4631372D02*
X43414524Y4583753D01*
X43414524Y4583753D02*
X43509762Y4536134D01*
X43509762Y4536134D02*
X43700238Y4536134D01*
X43700238Y4536134D02*
X43795476Y4583753D01*
X43795476Y4583753D02*
X43843095Y4631372D01*
X43843095Y4631372D02*
X43890714Y4726610D01*
X93385714Y28645181D02*
X93385714Y29645181D01*
X93385714Y29645181D02*
X93623809Y29645181D01*
X93623809Y29645181D02*
X93766666Y29597562D01*
X93766666Y29597562D02*
X93861904Y29502324D01*
X93861904Y29502324D02*
X93909523Y29407086D01*
X93909523Y29407086D02*
X93957142Y29216610D01*
X93957142Y29216610D02*
X93957142Y29073753D01*
X93957142Y29073753D02*
X93909523Y28883277D01*
X93909523Y28883277D02*
X93861904Y28788039D01*
X93861904Y28788039D02*
X93766666Y28692800D01*
X93766666Y28692800D02*
X93623809Y28645181D01*
X93623809Y28645181D02*
X93385714Y28645181D01*
X94909523Y28645181D02*
X94338095Y28645181D01*
X94623809Y28645181D02*
X94623809Y29645181D01*
X94623809Y29645181D02*
X94528571Y29502324D01*
X94528571Y29502324D02*
X94433333Y29407086D01*
X94433333Y29407086D02*
X94338095Y29359467D01*
X95766666Y29311848D02*
X95766666Y28645181D01*
X95528571Y29692800D02*
X95290476Y28978515D01*
X95290476Y28978515D02*
X95909523Y28978515D01*
X4661905Y82345181D02*
X4661905Y83345181D01*
X4661905Y83345181D02*
X4900000Y83345181D01*
X4900000Y83345181D02*
X5042857Y83297562D01*
X5042857Y83297562D02*
X5138095Y83202324D01*
X5138095Y83202324D02*
X5185714Y83107086D01*
X5185714Y83107086D02*
X5233333Y82916610D01*
X5233333Y82916610D02*
X5233333Y82773753D01*
X5233333Y82773753D02*
X5185714Y82583277D01*
X5185714Y82583277D02*
X5138095Y82488039D01*
X5138095Y82488039D02*
X5042857Y82392800D01*
X5042857Y82392800D02*
X4900000Y82345181D01*
X4900000Y82345181D02*
X4661905Y82345181D01*
X6185714Y82345181D02*
X5614286Y82345181D01*
X5900000Y82345181D02*
X5900000Y83345181D01*
X5900000Y83345181D02*
X5804762Y83202324D01*
X5804762Y83202324D02*
X5709524Y83107086D01*
X5709524Y83107086D02*
X5614286Y83059467D01*
X81220833Y69427681D02*
X80887500Y69903872D01*
X80649405Y69427681D02*
X80649405Y70427681D01*
X80649405Y70427681D02*
X81030357Y70427681D01*
X81030357Y70427681D02*
X81125595Y70380062D01*
X81125595Y70380062D02*
X81173214Y70332443D01*
X81173214Y70332443D02*
X81220833Y70237205D01*
X81220833Y70237205D02*
X81220833Y70094348D01*
X81220833Y70094348D02*
X81173214Y69999110D01*
X81173214Y69999110D02*
X81125595Y69951491D01*
X81125595Y69951491D02*
X81030357Y69903872D01*
X81030357Y69903872D02*
X80649405Y69903872D01*
X82077976Y70094348D02*
X82077976Y69427681D01*
X81839881Y70475300D02*
X81601786Y69761015D01*
X81601786Y69761015D02*
X82220833Y69761015D01*
X83638095Y89645181D02*
X83638095Y88835658D01*
X83638095Y88835658D02*
X83685714Y88740420D01*
X83685714Y88740420D02*
X83733333Y88692800D01*
X83733333Y88692800D02*
X83828571Y88645181D01*
X83828571Y88645181D02*
X84019047Y88645181D01*
X84019047Y88645181D02*
X84114285Y88692800D01*
X84114285Y88692800D02*
X84161904Y88740420D01*
X84161904Y88740420D02*
X84209523Y88835658D01*
X84209523Y88835658D02*
X84209523Y89645181D01*
X85209523Y88645181D02*
X84638095Y88645181D01*
X84923809Y88645181D02*
X84923809Y89645181D01*
X84923809Y89645181D02*
X84828571Y89502324D01*
X84828571Y89502324D02*
X84733333Y89407086D01*
X84733333Y89407086D02*
X84638095Y89359467D01*
X90595238Y75292800D02*
X90738095Y75245181D01*
X90738095Y75245181D02*
X90976190Y75245181D01*
X90976190Y75245181D02*
X91071428Y75292800D01*
X91071428Y75292800D02*
X91119047Y75340420D01*
X91119047Y75340420D02*
X91166666Y75435658D01*
X91166666Y75435658D02*
X91166666Y75530896D01*
X91166666Y75530896D02*
X91119047Y75626134D01*
X91119047Y75626134D02*
X91071428Y75673753D01*
X91071428Y75673753D02*
X90976190Y75721372D01*
X90976190Y75721372D02*
X90785714Y75768991D01*
X90785714Y75768991D02*
X90690476Y75816610D01*
X90690476Y75816610D02*
X90642857Y75864229D01*
X90642857Y75864229D02*
X90595238Y75959467D01*
X90595238Y75959467D02*
X90595238Y76054705D01*
X90595238Y76054705D02*
X90642857Y76149943D01*
X90642857Y76149943D02*
X90690476Y76197562D01*
X90690476Y76197562D02*
X90785714Y76245181D01*
X90785714Y76245181D02*
X91023809Y76245181D01*
X91023809Y76245181D02*
X91166666Y76197562D01*
X91595238Y75245181D02*
X91595238Y76245181D01*
X91595238Y76245181D02*
X91976190Y76245181D01*
X91976190Y76245181D02*
X92071428Y76197562D01*
X92071428Y76197562D02*
X92119047Y76149943D01*
X92119047Y76149943D02*
X92166666Y76054705D01*
X92166666Y76054705D02*
X92166666Y75911848D01*
X92166666Y75911848D02*
X92119047Y75816610D01*
X92119047Y75816610D02*
X92071428Y75768991D01*
X92071428Y75768991D02*
X91976190Y75721372D01*
X91976190Y75721372D02*
X91595238Y75721372D01*
X92595238Y75626134D02*
X93357143Y75626134D01*
X93085714Y14945181D02*
X93085714Y15945181D01*
X93085714Y15945181D02*
X93323809Y15945181D01*
X93323809Y15945181D02*
X93466666Y15897562D01*
X93466666Y15897562D02*
X93561904Y15802324D01*
X93561904Y15802324D02*
X93609523Y15707086D01*
X93609523Y15707086D02*
X93657142Y15516610D01*
X93657142Y15516610D02*
X93657142Y15373753D01*
X93657142Y15373753D02*
X93609523Y15183277D01*
X93609523Y15183277D02*
X93561904Y15088039D01*
X93561904Y15088039D02*
X93466666Y14992800D01*
X93466666Y14992800D02*
X93323809Y14945181D01*
X93323809Y14945181D02*
X93085714Y14945181D01*
X94609523Y14945181D02*
X94038095Y14945181D01*
X94323809Y14945181D02*
X94323809Y15945181D01*
X94323809Y15945181D02*
X94228571Y15802324D01*
X94228571Y15802324D02*
X94133333Y15707086D01*
X94133333Y15707086D02*
X94038095Y15659467D01*
X94942857Y15945181D02*
X95561904Y15945181D01*
X95561904Y15945181D02*
X95228571Y15564229D01*
X95228571Y15564229D02*
X95371428Y15564229D01*
X95371428Y15564229D02*
X95466666Y15516610D01*
X95466666Y15516610D02*
X95514285Y15468991D01*
X95514285Y15468991D02*
X95561904Y15373753D01*
X95561904Y15373753D02*
X95561904Y15135658D01*
X95561904Y15135658D02*
X95514285Y15040420D01*
X95514285Y15040420D02*
X95466666Y14992800D01*
X95466666Y14992800D02*
X95371428Y14945181D01*
X95371428Y14945181D02*
X95085714Y14945181D01*
X95085714Y14945181D02*
X94990476Y14992800D01*
X94990476Y14992800D02*
X94942857Y15040420D01*
X90595238Y71292800D02*
X90738095Y71245181D01*
X90738095Y71245181D02*
X90976190Y71245181D01*
X90976190Y71245181D02*
X91071428Y71292800D01*
X91071428Y71292800D02*
X91119047Y71340420D01*
X91119047Y71340420D02*
X91166666Y71435658D01*
X91166666Y71435658D02*
X91166666Y71530896D01*
X91166666Y71530896D02*
X91119047Y71626134D01*
X91119047Y71626134D02*
X91071428Y71673753D01*
X91071428Y71673753D02*
X90976190Y71721372D01*
X90976190Y71721372D02*
X90785714Y71768991D01*
X90785714Y71768991D02*
X90690476Y71816610D01*
X90690476Y71816610D02*
X90642857Y71864229D01*
X90642857Y71864229D02*
X90595238Y71959467D01*
X90595238Y71959467D02*
X90595238Y72054705D01*
X90595238Y72054705D02*
X90642857Y72149943D01*
X90642857Y72149943D02*
X90690476Y72197562D01*
X90690476Y72197562D02*
X90785714Y72245181D01*
X90785714Y72245181D02*
X91023809Y72245181D01*
X91023809Y72245181D02*
X91166666Y72197562D01*
X91595238Y71245181D02*
X91595238Y72245181D01*
X91595238Y72245181D02*
X91976190Y72245181D01*
X91976190Y72245181D02*
X92071428Y72197562D01*
X92071428Y72197562D02*
X92119047Y72149943D01*
X92119047Y72149943D02*
X92166666Y72054705D01*
X92166666Y72054705D02*
X92166666Y71911848D01*
X92166666Y71911848D02*
X92119047Y71816610D01*
X92119047Y71816610D02*
X92071428Y71768991D01*
X92071428Y71768991D02*
X91976190Y71721372D01*
X91976190Y71721372D02*
X91595238Y71721372D01*
X92595238Y71626134D02*
X93357143Y71626134D01*
X92976190Y71245181D02*
X92976190Y72007086D01*
X82600595Y78395181D02*
X82600595Y77585658D01*
X82600595Y77585658D02*
X82648214Y77490420D01*
X82648214Y77490420D02*
X82695833Y77442800D01*
X82695833Y77442800D02*
X82791071Y77395181D01*
X82791071Y77395181D02*
X82981547Y77395181D01*
X82981547Y77395181D02*
X83076785Y77442800D01*
X83076785Y77442800D02*
X83124404Y77490420D01*
X83124404Y77490420D02*
X83172023Y77585658D01*
X83172023Y77585658D02*
X83172023Y78395181D01*
X84076785Y78061848D02*
X84076785Y77395181D01*
X83838690Y78442800D02*
X83600595Y77728515D01*
X83600595Y77728515D02*
X84219642Y77728515D01*
X89028571Y93368991D02*
X88695238Y93368991D01*
X88695238Y92845181D02*
X88695238Y93845181D01*
X88695238Y93845181D02*
X89171428Y93845181D01*
X89552381Y92845181D02*
X89552381Y93845181D01*
X90028571Y92845181D02*
X90028571Y93845181D01*
X90028571Y93845181D02*
X90266666Y93845181D01*
X90266666Y93845181D02*
X90409523Y93797562D01*
X90409523Y93797562D02*
X90504761Y93702324D01*
X90504761Y93702324D02*
X90552380Y93607086D01*
X90552380Y93607086D02*
X90599999Y93416610D01*
X90599999Y93416610D02*
X90599999Y93273753D01*
X90599999Y93273753D02*
X90552380Y93083277D01*
X90552380Y93083277D02*
X90504761Y92988039D01*
X90504761Y92988039D02*
X90409523Y92892800D01*
X90409523Y92892800D02*
X90266666Y92845181D01*
X90266666Y92845181D02*
X90028571Y92845181D01*
X90980952Y93749943D02*
X91028571Y93797562D01*
X91028571Y93797562D02*
X91123809Y93845181D01*
X91123809Y93845181D02*
X91361904Y93845181D01*
X91361904Y93845181D02*
X91457142Y93797562D01*
X91457142Y93797562D02*
X91504761Y93749943D01*
X91504761Y93749943D02*
X91552380Y93654705D01*
X91552380Y93654705D02*
X91552380Y93559467D01*
X91552380Y93559467D02*
X91504761Y93416610D01*
X91504761Y93416610D02*
X90933333Y92845181D01*
X90933333Y92845181D02*
X91552380Y92845181D01*
X44233333Y17440420D02*
X44185714Y17392800D01*
X44185714Y17392800D02*
X44042857Y17345181D01*
X44042857Y17345181D02*
X43947619Y17345181D01*
X43947619Y17345181D02*
X43804762Y17392800D01*
X43804762Y17392800D02*
X43709524Y17488039D01*
X43709524Y17488039D02*
X43661905Y17583277D01*
X43661905Y17583277D02*
X43614286Y17773753D01*
X43614286Y17773753D02*
X43614286Y17916610D01*
X43614286Y17916610D02*
X43661905Y18107086D01*
X43661905Y18107086D02*
X43709524Y18202324D01*
X43709524Y18202324D02*
X43804762Y18297562D01*
X43804762Y18297562D02*
X43947619Y18345181D01*
X43947619Y18345181D02*
X44042857Y18345181D01*
X44042857Y18345181D02*
X44185714Y18297562D01*
X44185714Y18297562D02*
X44233333Y18249943D01*
X45090476Y18345181D02*
X44900000Y18345181D01*
X44900000Y18345181D02*
X44804762Y18297562D01*
X44804762Y18297562D02*
X44757143Y18249943D01*
X44757143Y18249943D02*
X44661905Y18107086D01*
X44661905Y18107086D02*
X44614286Y17916610D01*
X44614286Y17916610D02*
X44614286Y17535658D01*
X44614286Y17535658D02*
X44661905Y17440420D01*
X44661905Y17440420D02*
X44709524Y17392800D01*
X44709524Y17392800D02*
X44804762Y17345181D01*
X44804762Y17345181D02*
X44995238Y17345181D01*
X44995238Y17345181D02*
X45090476Y17392800D01*
X45090476Y17392800D02*
X45138095Y17440420D01*
X45138095Y17440420D02*
X45185714Y17535658D01*
X45185714Y17535658D02*
X45185714Y17773753D01*
X45185714Y17773753D02*
X45138095Y17868991D01*
X45138095Y17868991D02*
X45090476Y17916610D01*
X45090476Y17916610D02*
X44995238Y17964229D01*
X44995238Y17964229D02*
X44804762Y17964229D01*
X44804762Y17964229D02*
X44709524Y17916610D01*
X44709524Y17916610D02*
X44661905Y17868991D01*
X44661905Y17868991D02*
X44614286Y17773753D01*
X4361905Y69745181D02*
X4361905Y70745181D01*
X4361905Y70745181D02*
X4600000Y70745181D01*
X4600000Y70745181D02*
X4742857Y70697562D01*
X4742857Y70697562D02*
X4838095Y70602324D01*
X4838095Y70602324D02*
X4885714Y70507086D01*
X4885714Y70507086D02*
X4933333Y70316610D01*
X4933333Y70316610D02*
X4933333Y70173753D01*
X4933333Y70173753D02*
X4885714Y69983277D01*
X4885714Y69983277D02*
X4838095Y69888039D01*
X4838095Y69888039D02*
X4742857Y69792800D01*
X4742857Y69792800D02*
X4600000Y69745181D01*
X4600000Y69745181D02*
X4361905Y69745181D01*
X5314286Y70649943D02*
X5361905Y70697562D01*
X5361905Y70697562D02*
X5457143Y70745181D01*
X5457143Y70745181D02*
X5695238Y70745181D01*
X5695238Y70745181D02*
X5790476Y70697562D01*
X5790476Y70697562D02*
X5838095Y70649943D01*
X5838095Y70649943D02*
X5885714Y70554705D01*
X5885714Y70554705D02*
X5885714Y70459467D01*
X5885714Y70459467D02*
X5838095Y70316610D01*
X5838095Y70316610D02*
X5266667Y69745181D01*
X5266667Y69745181D02*
X5885714Y69745181D01*
X39138095Y47345181D02*
X39138095Y46535658D01*
X39138095Y46535658D02*
X39185714Y46440420D01*
X39185714Y46440420D02*
X39233333Y46392800D01*
X39233333Y46392800D02*
X39328571Y46345181D01*
X39328571Y46345181D02*
X39519047Y46345181D01*
X39519047Y46345181D02*
X39614285Y46392800D01*
X39614285Y46392800D02*
X39661904Y46440420D01*
X39661904Y46440420D02*
X39709523Y46535658D01*
X39709523Y46535658D02*
X39709523Y47345181D01*
X40090476Y47345181D02*
X40709523Y47345181D01*
X40709523Y47345181D02*
X40376190Y46964229D01*
X40376190Y46964229D02*
X40519047Y46964229D01*
X40519047Y46964229D02*
X40614285Y46916610D01*
X40614285Y46916610D02*
X40661904Y46868991D01*
X40661904Y46868991D02*
X40709523Y46773753D01*
X40709523Y46773753D02*
X40709523Y46535658D01*
X40709523Y46535658D02*
X40661904Y46440420D01*
X40661904Y46440420D02*
X40614285Y46392800D01*
X40614285Y46392800D02*
X40519047Y46345181D01*
X40519047Y46345181D02*
X40233333Y46345181D01*
X40233333Y46345181D02*
X40138095Y46392800D01*
X40138095Y46392800D02*
X40090476Y46440420D01*
X36423372Y70098506D02*
X36342560Y70071569D01*
X36342560Y70071569D02*
X36261748Y69990757D01*
X36261748Y69990757D02*
X36207873Y69883007D01*
X36207873Y69883007D02*
X36207873Y69775258D01*
X36207873Y69775258D02*
X36234810Y69694445D01*
X36234810Y69694445D02*
X36315623Y69559758D01*
X36315623Y69559758D02*
X36396435Y69478946D01*
X36396435Y69478946D02*
X36531122Y69398134D01*
X36531122Y69398134D02*
X36611934Y69371197D01*
X36611934Y69371197D02*
X36719684Y69371197D01*
X36719684Y69371197D02*
X36827433Y69425071D01*
X36827433Y69425071D02*
X36881308Y69478946D01*
X36881308Y69478946D02*
X36935183Y69586696D01*
X36935183Y69586696D02*
X36935183Y69640571D01*
X36935183Y69640571D02*
X36746621Y69829132D01*
X36746621Y69829132D02*
X36638871Y69721383D01*
X37231494Y69829132D02*
X36665809Y70394818D01*
X36665809Y70394818D02*
X36881308Y70610317D01*
X36881308Y70610317D02*
X36962120Y70637254D01*
X36962120Y70637254D02*
X37015995Y70637254D01*
X37015995Y70637254D02*
X37096807Y70610317D01*
X37096807Y70610317D02*
X37177619Y70529505D01*
X37177619Y70529505D02*
X37204557Y70448693D01*
X37204557Y70448693D02*
X37204557Y70394818D01*
X37204557Y70394818D02*
X37177619Y70314006D01*
X37177619Y70314006D02*
X36962120Y70098506D01*
X37824117Y70421755D02*
X37931867Y70529505D01*
X37931867Y70529505D02*
X37958804Y70610317D01*
X37958804Y70610317D02*
X37958804Y70664192D01*
X37958804Y70664192D02*
X37931867Y70798879D01*
X37931867Y70798879D02*
X37851054Y70933566D01*
X37851054Y70933566D02*
X37635555Y71149065D01*
X37635555Y71149065D02*
X37554743Y71176002D01*
X37554743Y71176002D02*
X37500868Y71176002D01*
X37500868Y71176002D02*
X37420056Y71149065D01*
X37420056Y71149065D02*
X37312306Y71041315D01*
X37312306Y71041315D02*
X37285369Y70960503D01*
X37285369Y70960503D02*
X37285369Y70906628D01*
X37285369Y70906628D02*
X37312306Y70825816D01*
X37312306Y70825816D02*
X37446993Y70691129D01*
X37446993Y70691129D02*
X37527806Y70664192D01*
X37527806Y70664192D02*
X37581680Y70664192D01*
X37581680Y70664192D02*
X37662493Y70691129D01*
X37662493Y70691129D02*
X37770242Y70798879D01*
X37770242Y70798879D02*
X37797180Y70879691D01*
X37797180Y70879691D02*
X37797180Y70933566D01*
X37797180Y70933566D02*
X37770242Y71014378D01*
X36423372Y85338506D02*
X36342560Y85311569D01*
X36342560Y85311569D02*
X36261748Y85230757D01*
X36261748Y85230757D02*
X36207873Y85123007D01*
X36207873Y85123007D02*
X36207873Y85015258D01*
X36207873Y85015258D02*
X36234810Y84934445D01*
X36234810Y84934445D02*
X36315623Y84799758D01*
X36315623Y84799758D02*
X36396435Y84718946D01*
X36396435Y84718946D02*
X36531122Y84638134D01*
X36531122Y84638134D02*
X36611934Y84611197D01*
X36611934Y84611197D02*
X36719684Y84611197D01*
X36719684Y84611197D02*
X36827433Y84665071D01*
X36827433Y84665071D02*
X36881308Y84718946D01*
X36881308Y84718946D02*
X36935183Y84826696D01*
X36935183Y84826696D02*
X36935183Y84880571D01*
X36935183Y84880571D02*
X36746621Y85069132D01*
X36746621Y85069132D02*
X36638871Y84961383D01*
X37231494Y85069132D02*
X36665809Y85634818D01*
X36665809Y85634818D02*
X36881308Y85850317D01*
X36881308Y85850317D02*
X36962120Y85877254D01*
X36962120Y85877254D02*
X37015995Y85877254D01*
X37015995Y85877254D02*
X37096807Y85850317D01*
X37096807Y85850317D02*
X37177619Y85769505D01*
X37177619Y85769505D02*
X37204557Y85688693D01*
X37204557Y85688693D02*
X37204557Y85634818D01*
X37204557Y85634818D02*
X37177619Y85554006D01*
X37177619Y85554006D02*
X36962120Y85338506D01*
X37662493Y86254378D02*
X38039616Y85877254D01*
X37312306Y86335190D02*
X37581680Y85796442D01*
X37581680Y85796442D02*
X37931867Y86146628D01*
X36523372Y75208506D02*
X36442560Y75181569D01*
X36442560Y75181569D02*
X36361748Y75100757D01*
X36361748Y75100757D02*
X36307873Y74993007D01*
X36307873Y74993007D02*
X36307873Y74885258D01*
X36307873Y74885258D02*
X36334810Y74804445D01*
X36334810Y74804445D02*
X36415623Y74669758D01*
X36415623Y74669758D02*
X36496435Y74588946D01*
X36496435Y74588946D02*
X36631122Y74508134D01*
X36631122Y74508134D02*
X36711934Y74481197D01*
X36711934Y74481197D02*
X36819684Y74481197D01*
X36819684Y74481197D02*
X36927433Y74535071D01*
X36927433Y74535071D02*
X36981308Y74588946D01*
X36981308Y74588946D02*
X37035183Y74696696D01*
X37035183Y74696696D02*
X37035183Y74750571D01*
X37035183Y74750571D02*
X36846621Y74939132D01*
X36846621Y74939132D02*
X36738871Y74831383D01*
X37331494Y74939132D02*
X36765809Y75504818D01*
X36765809Y75504818D02*
X36981308Y75720317D01*
X36981308Y75720317D02*
X37062120Y75747254D01*
X37062120Y75747254D02*
X37115995Y75747254D01*
X37115995Y75747254D02*
X37196807Y75720317D01*
X37196807Y75720317D02*
X37277619Y75639505D01*
X37277619Y75639505D02*
X37304557Y75558693D01*
X37304557Y75558693D02*
X37304557Y75504818D01*
X37304557Y75504818D02*
X37277619Y75424006D01*
X37277619Y75424006D02*
X37062120Y75208506D01*
X37277619Y76016628D02*
X37654743Y76393752D01*
X37654743Y76393752D02*
X37977992Y75585630D01*
X62748651Y72086290D02*
X62290716Y72167102D01*
X62425403Y71763041D02*
X61859717Y72328726D01*
X61859717Y72328726D02*
X62075216Y72544225D01*
X62075216Y72544225D02*
X62156029Y72571163D01*
X62156029Y72571163D02*
X62209903Y72571163D01*
X62209903Y72571163D02*
X62290716Y72544225D01*
X62290716Y72544225D02*
X62371528Y72463413D01*
X62371528Y72463413D02*
X62398465Y72382601D01*
X62398465Y72382601D02*
X62398465Y72328726D01*
X62398465Y72328726D02*
X62371528Y72247914D01*
X62371528Y72247914D02*
X62156029Y72032415D01*
X62425403Y72894412D02*
X62883338Y72436476D01*
X62883338Y72436476D02*
X62964151Y72409538D01*
X62964151Y72409538D02*
X63018025Y72409538D01*
X63018025Y72409538D02*
X63098838Y72436476D01*
X63098838Y72436476D02*
X63206587Y72544225D01*
X63206587Y72544225D02*
X63233525Y72625038D01*
X63233525Y72625038D02*
X63233525Y72678912D01*
X63233525Y72678912D02*
X63206587Y72759725D01*
X63206587Y72759725D02*
X62748651Y73217660D01*
X63583711Y72921349D02*
X63018025Y73487034D01*
X63018025Y73487034D02*
X63906959Y73244598D01*
X63906959Y73244598D02*
X63341274Y73810283D01*
X62007998Y57129132D02*
X61927185Y57102195D01*
X61927185Y57102195D02*
X61846373Y57021382D01*
X61846373Y57021382D02*
X61792498Y56913633D01*
X61792498Y56913633D02*
X61792498Y56805883D01*
X61792498Y56805883D02*
X61819436Y56725071D01*
X61819436Y56725071D02*
X61900248Y56590384D01*
X61900248Y56590384D02*
X61981060Y56509572D01*
X61981060Y56509572D02*
X62115747Y56428759D01*
X62115747Y56428759D02*
X62196560Y56401822D01*
X62196560Y56401822D02*
X62304309Y56401822D01*
X62304309Y56401822D02*
X62412059Y56455697D01*
X62412059Y56455697D02*
X62465934Y56509572D01*
X62465934Y56509572D02*
X62519808Y56617321D01*
X62519808Y56617321D02*
X62519808Y56671196D01*
X62519808Y56671196D02*
X62331247Y56859758D01*
X62331247Y56859758D02*
X62223497Y56752008D01*
X62816120Y56859758D02*
X62250434Y57425443D01*
X62250434Y57425443D02*
X62465934Y57640943D01*
X62465934Y57640943D02*
X62546746Y57667880D01*
X62546746Y57667880D02*
X62600621Y57667880D01*
X62600621Y57667880D02*
X62681433Y57640943D01*
X62681433Y57640943D02*
X62762245Y57560130D01*
X62762245Y57560130D02*
X62789182Y57479318D01*
X62789182Y57479318D02*
X62789182Y57425443D01*
X62789182Y57425443D02*
X62762245Y57344631D01*
X62762245Y57344631D02*
X62546746Y57129132D01*
X63678117Y57721755D02*
X63354868Y57398506D01*
X63516492Y57560130D02*
X62950807Y58125816D01*
X62950807Y58125816D02*
X62977744Y57991129D01*
X62977744Y57991129D02*
X62977744Y57883379D01*
X62977744Y57883379D02*
X62950807Y57802567D01*
X63678117Y58368253D02*
X63597305Y58341315D01*
X63597305Y58341315D02*
X63543430Y58341315D01*
X63543430Y58341315D02*
X63462618Y58368253D01*
X63462618Y58368253D02*
X63435680Y58395190D01*
X63435680Y58395190D02*
X63408743Y58476002D01*
X63408743Y58476002D02*
X63408743Y58529877D01*
X63408743Y58529877D02*
X63435680Y58610689D01*
X63435680Y58610689D02*
X63543430Y58718439D01*
X63543430Y58718439D02*
X63624242Y58745376D01*
X63624242Y58745376D02*
X63678117Y58745376D01*
X63678117Y58745376D02*
X63758929Y58718439D01*
X63758929Y58718439D02*
X63785866Y58691501D01*
X63785866Y58691501D02*
X63812804Y58610689D01*
X63812804Y58610689D02*
X63812804Y58556814D01*
X63812804Y58556814D02*
X63785866Y58476002D01*
X63785866Y58476002D02*
X63678117Y58368253D01*
X63678117Y58368253D02*
X63651179Y58287440D01*
X63651179Y58287440D02*
X63651179Y58233566D01*
X63651179Y58233566D02*
X63678117Y58152753D01*
X63678117Y58152753D02*
X63785866Y58045004D01*
X63785866Y58045004D02*
X63866679Y58018066D01*
X63866679Y58018066D02*
X63920553Y58018066D01*
X63920553Y58018066D02*
X64001366Y58045004D01*
X64001366Y58045004D02*
X64109115Y58152753D01*
X64109115Y58152753D02*
X64136053Y58233566D01*
X64136053Y58233566D02*
X64136053Y58287440D01*
X64136053Y58287440D02*
X64109115Y58368253D01*
X64109115Y58368253D02*
X64001366Y58476002D01*
X64001366Y58476002D02*
X63920553Y58502940D01*
X63920553Y58502940D02*
X63866679Y58502940D01*
X63866679Y58502940D02*
X63785866Y58476002D01*
X35753998Y62209132D02*
X35673185Y62182195D01*
X35673185Y62182195D02*
X35592373Y62101382D01*
X35592373Y62101382D02*
X35538498Y61993633D01*
X35538498Y61993633D02*
X35538498Y61885883D01*
X35538498Y61885883D02*
X35565436Y61805071D01*
X35565436Y61805071D02*
X35646248Y61670384D01*
X35646248Y61670384D02*
X35727060Y61589572D01*
X35727060Y61589572D02*
X35861747Y61508759D01*
X35861747Y61508759D02*
X35942560Y61481822D01*
X35942560Y61481822D02*
X36050309Y61481822D01*
X36050309Y61481822D02*
X36158059Y61535697D01*
X36158059Y61535697D02*
X36211934Y61589572D01*
X36211934Y61589572D02*
X36265808Y61697321D01*
X36265808Y61697321D02*
X36265808Y61751196D01*
X36265808Y61751196D02*
X36077247Y61939758D01*
X36077247Y61939758D02*
X35969497Y61832008D01*
X36562120Y61939758D02*
X35996434Y62505443D01*
X35996434Y62505443D02*
X36211934Y62720943D01*
X36211934Y62720943D02*
X36292746Y62747880D01*
X36292746Y62747880D02*
X36346621Y62747880D01*
X36346621Y62747880D02*
X36427433Y62720943D01*
X36427433Y62720943D02*
X36508245Y62640130D01*
X36508245Y62640130D02*
X36535182Y62559318D01*
X36535182Y62559318D02*
X36535182Y62505443D01*
X36535182Y62505443D02*
X36508245Y62424631D01*
X36508245Y62424631D02*
X36292746Y62209132D01*
X37424117Y62801755D02*
X37100868Y62478506D01*
X37262492Y62640130D02*
X36696807Y63205816D01*
X36696807Y63205816D02*
X36723744Y63071129D01*
X36723744Y63071129D02*
X36723744Y62963379D01*
X36723744Y62963379D02*
X36696807Y62882567D01*
X37962865Y63340503D02*
X37639616Y63017254D01*
X37801240Y63178879D02*
X37235555Y63744564D01*
X37235555Y63744564D02*
X37262492Y63609877D01*
X37262492Y63609877D02*
X37262492Y63502127D01*
X37262492Y63502127D02*
X37235555Y63421315D01*
X36396435Y54831569D02*
X36315623Y54804632D01*
X36315623Y54804632D02*
X36234811Y54723820D01*
X36234811Y54723820D02*
X36180936Y54616070D01*
X36180936Y54616070D02*
X36180936Y54508320D01*
X36180936Y54508320D02*
X36207873Y54427508D01*
X36207873Y54427508D02*
X36288685Y54292821D01*
X36288685Y54292821D02*
X36369498Y54212009D01*
X36369498Y54212009D02*
X36504185Y54131197D01*
X36504185Y54131197D02*
X36584997Y54104259D01*
X36584997Y54104259D02*
X36692746Y54104259D01*
X36692746Y54104259D02*
X36800496Y54158134D01*
X36800496Y54158134D02*
X36854371Y54212009D01*
X36854371Y54212009D02*
X36908246Y54319759D01*
X36908246Y54319759D02*
X36908246Y54373633D01*
X36908246Y54373633D02*
X36719684Y54562195D01*
X36719684Y54562195D02*
X36611934Y54454446D01*
X37204557Y54562195D02*
X36638872Y55127881D01*
X36638872Y55127881D02*
X37527806Y54885444D01*
X37527806Y54885444D02*
X36962120Y55451129D01*
X37797180Y55154818D02*
X37231494Y55720503D01*
X37231494Y55720503D02*
X37366181Y55855190D01*
X37366181Y55855190D02*
X37473931Y55909065D01*
X37473931Y55909065D02*
X37581680Y55909065D01*
X37581680Y55909065D02*
X37662493Y55882128D01*
X37662493Y55882128D02*
X37797180Y55801315D01*
X37797180Y55801315D02*
X37877992Y55720503D01*
X37877992Y55720503D02*
X37958804Y55585816D01*
X37958804Y55585816D02*
X37985741Y55505004D01*
X37985741Y55505004D02*
X37985741Y55397254D01*
X37985741Y55397254D02*
X37931867Y55289505D01*
X37931867Y55289505D02*
X37797180Y55154818D01*
X36423372Y87878506D02*
X36342560Y87851569D01*
X36342560Y87851569D02*
X36261748Y87770757D01*
X36261748Y87770757D02*
X36207873Y87663007D01*
X36207873Y87663007D02*
X36207873Y87555258D01*
X36207873Y87555258D02*
X36234810Y87474445D01*
X36234810Y87474445D02*
X36315623Y87339758D01*
X36315623Y87339758D02*
X36396435Y87258946D01*
X36396435Y87258946D02*
X36531122Y87178134D01*
X36531122Y87178134D02*
X36611934Y87151197D01*
X36611934Y87151197D02*
X36719684Y87151197D01*
X36719684Y87151197D02*
X36827433Y87205071D01*
X36827433Y87205071D02*
X36881308Y87258946D01*
X36881308Y87258946D02*
X36935183Y87366696D01*
X36935183Y87366696D02*
X36935183Y87420571D01*
X36935183Y87420571D02*
X36746621Y87609132D01*
X36746621Y87609132D02*
X36638871Y87501383D01*
X37231494Y87609132D02*
X36665809Y88174818D01*
X36665809Y88174818D02*
X36881308Y88390317D01*
X36881308Y88390317D02*
X36962120Y88417254D01*
X36962120Y88417254D02*
X37015995Y88417254D01*
X37015995Y88417254D02*
X37096807Y88390317D01*
X37096807Y88390317D02*
X37177619Y88309505D01*
X37177619Y88309505D02*
X37204557Y88228693D01*
X37204557Y88228693D02*
X37204557Y88174818D01*
X37204557Y88174818D02*
X37177619Y88094006D01*
X37177619Y88094006D02*
X36962120Y87878506D01*
X37177619Y88686628D02*
X37527806Y89036815D01*
X37527806Y89036815D02*
X37554743Y88632754D01*
X37554743Y88632754D02*
X37635555Y88713566D01*
X37635555Y88713566D02*
X37716367Y88740503D01*
X37716367Y88740503D02*
X37770242Y88740503D01*
X37770242Y88740503D02*
X37851054Y88713566D01*
X37851054Y88713566D02*
X37985741Y88578879D01*
X37985741Y88578879D02*
X38012679Y88498067D01*
X38012679Y88498067D02*
X38012679Y88444192D01*
X38012679Y88444192D02*
X37985741Y88363380D01*
X37985741Y88363380D02*
X37824117Y88201755D01*
X37824117Y88201755D02*
X37743305Y88174818D01*
X37743305Y88174818D02*
X37689430Y88174818D01*
X62007998Y82783132D02*
X61927185Y82756195D01*
X61927185Y82756195D02*
X61846373Y82675382D01*
X61846373Y82675382D02*
X61792498Y82567633D01*
X61792498Y82567633D02*
X61792498Y82459883D01*
X61792498Y82459883D02*
X61819436Y82379071D01*
X61819436Y82379071D02*
X61900248Y82244384D01*
X61900248Y82244384D02*
X61981060Y82163572D01*
X61981060Y82163572D02*
X62115747Y82082759D01*
X62115747Y82082759D02*
X62196560Y82055822D01*
X62196560Y82055822D02*
X62304309Y82055822D01*
X62304309Y82055822D02*
X62412059Y82109697D01*
X62412059Y82109697D02*
X62465934Y82163572D01*
X62465934Y82163572D02*
X62519808Y82271321D01*
X62519808Y82271321D02*
X62519808Y82325196D01*
X62519808Y82325196D02*
X62331247Y82513758D01*
X62331247Y82513758D02*
X62223497Y82406008D01*
X62816120Y82513758D02*
X62250434Y83079443D01*
X62250434Y83079443D02*
X62465934Y83294943D01*
X62465934Y83294943D02*
X62546746Y83321880D01*
X62546746Y83321880D02*
X62600621Y83321880D01*
X62600621Y83321880D02*
X62681433Y83294943D01*
X62681433Y83294943D02*
X62762245Y83214130D01*
X62762245Y83214130D02*
X62789182Y83133318D01*
X62789182Y83133318D02*
X62789182Y83079443D01*
X62789182Y83079443D02*
X62762245Y82998631D01*
X62762245Y82998631D02*
X62546746Y82783132D01*
X62843057Y83564317D02*
X62843057Y83618191D01*
X62843057Y83618191D02*
X62869995Y83699004D01*
X62869995Y83699004D02*
X63004682Y83833691D01*
X63004682Y83833691D02*
X63085494Y83860628D01*
X63085494Y83860628D02*
X63139369Y83860628D01*
X63139369Y83860628D02*
X63220181Y83833691D01*
X63220181Y83833691D02*
X63274056Y83779816D01*
X63274056Y83779816D02*
X63327930Y83672066D01*
X63327930Y83672066D02*
X63327930Y83025569D01*
X63327930Y83025569D02*
X63678117Y83375755D01*
X63678117Y84022253D02*
X63597305Y83995315D01*
X63597305Y83995315D02*
X63543430Y83995315D01*
X63543430Y83995315D02*
X63462618Y84022253D01*
X63462618Y84022253D02*
X63435680Y84049190D01*
X63435680Y84049190D02*
X63408743Y84130002D01*
X63408743Y84130002D02*
X63408743Y84183877D01*
X63408743Y84183877D02*
X63435680Y84264689D01*
X63435680Y84264689D02*
X63543430Y84372439D01*
X63543430Y84372439D02*
X63624242Y84399376D01*
X63624242Y84399376D02*
X63678117Y84399376D01*
X63678117Y84399376D02*
X63758929Y84372439D01*
X63758929Y84372439D02*
X63785866Y84345501D01*
X63785866Y84345501D02*
X63812804Y84264689D01*
X63812804Y84264689D02*
X63812804Y84210814D01*
X63812804Y84210814D02*
X63785866Y84130002D01*
X63785866Y84130002D02*
X63678117Y84022253D01*
X63678117Y84022253D02*
X63651179Y83941440D01*
X63651179Y83941440D02*
X63651179Y83887566D01*
X63651179Y83887566D02*
X63678117Y83806753D01*
X63678117Y83806753D02*
X63785866Y83699004D01*
X63785866Y83699004D02*
X63866679Y83672066D01*
X63866679Y83672066D02*
X63920553Y83672066D01*
X63920553Y83672066D02*
X64001366Y83699004D01*
X64001366Y83699004D02*
X64109115Y83806753D01*
X64109115Y83806753D02*
X64136053Y83887566D01*
X64136053Y83887566D02*
X64136053Y83941440D01*
X64136053Y83941440D02*
X64109115Y84022253D01*
X64109115Y84022253D02*
X64001366Y84130002D01*
X64001366Y84130002D02*
X63920553Y84156940D01*
X63920553Y84156940D02*
X63866679Y84156940D01*
X63866679Y84156940D02*
X63785866Y84130002D01*
X62007998Y62209132D02*
X61927185Y62182195D01*
X61927185Y62182195D02*
X61846373Y62101382D01*
X61846373Y62101382D02*
X61792498Y61993633D01*
X61792498Y61993633D02*
X61792498Y61885883D01*
X61792498Y61885883D02*
X61819436Y61805071D01*
X61819436Y61805071D02*
X61900248Y61670384D01*
X61900248Y61670384D02*
X61981060Y61589572D01*
X61981060Y61589572D02*
X62115747Y61508759D01*
X62115747Y61508759D02*
X62196560Y61481822D01*
X62196560Y61481822D02*
X62304309Y61481822D01*
X62304309Y61481822D02*
X62412059Y61535697D01*
X62412059Y61535697D02*
X62465934Y61589572D01*
X62465934Y61589572D02*
X62519808Y61697321D01*
X62519808Y61697321D02*
X62519808Y61751196D01*
X62519808Y61751196D02*
X62331247Y61939758D01*
X62331247Y61939758D02*
X62223497Y61832008D01*
X62816120Y61939758D02*
X62250434Y62505443D01*
X62250434Y62505443D02*
X62465934Y62720943D01*
X62465934Y62720943D02*
X62546746Y62747880D01*
X62546746Y62747880D02*
X62600621Y62747880D01*
X62600621Y62747880D02*
X62681433Y62720943D01*
X62681433Y62720943D02*
X62762245Y62640130D01*
X62762245Y62640130D02*
X62789182Y62559318D01*
X62789182Y62559318D02*
X62789182Y62505443D01*
X62789182Y62505443D02*
X62762245Y62424631D01*
X62762245Y62424631D02*
X62546746Y62209132D01*
X62843057Y62990317D02*
X62843057Y63044191D01*
X62843057Y63044191D02*
X62869995Y63125004D01*
X62869995Y63125004D02*
X63004682Y63259691D01*
X63004682Y63259691D02*
X63085494Y63286628D01*
X63085494Y63286628D02*
X63139369Y63286628D01*
X63139369Y63286628D02*
X63220181Y63259691D01*
X63220181Y63259691D02*
X63274056Y63205816D01*
X63274056Y63205816D02*
X63327930Y63098066D01*
X63327930Y63098066D02*
X63327930Y62451569D01*
X63327930Y62451569D02*
X63678117Y62801755D01*
X63462618Y63717627D02*
X63516492Y63771501D01*
X63516492Y63771501D02*
X63597305Y63798439D01*
X63597305Y63798439D02*
X63651179Y63798439D01*
X63651179Y63798439D02*
X63731992Y63771501D01*
X63731992Y63771501D02*
X63866679Y63690689D01*
X63866679Y63690689D02*
X64001366Y63556002D01*
X64001366Y63556002D02*
X64082178Y63421315D01*
X64082178Y63421315D02*
X64109115Y63340503D01*
X64109115Y63340503D02*
X64109115Y63286628D01*
X64109115Y63286628D02*
X64082178Y63205816D01*
X64082178Y63205816D02*
X64028303Y63151941D01*
X64028303Y63151941D02*
X63947491Y63125004D01*
X63947491Y63125004D02*
X63893616Y63125004D01*
X63893616Y63125004D02*
X63812804Y63151941D01*
X63812804Y63151941D02*
X63678117Y63232753D01*
X63678117Y63232753D02*
X63543430Y63367440D01*
X63543430Y63367440D02*
X63462618Y63502127D01*
X63462618Y63502127D02*
X63435680Y63582940D01*
X63435680Y63582940D02*
X63435680Y63636814D01*
X63435680Y63636814D02*
X63462618Y63717627D01*
X35899998Y64749132D02*
X35819185Y64722195D01*
X35819185Y64722195D02*
X35738373Y64641382D01*
X35738373Y64641382D02*
X35684498Y64533633D01*
X35684498Y64533633D02*
X35684498Y64425883D01*
X35684498Y64425883D02*
X35711436Y64345071D01*
X35711436Y64345071D02*
X35792248Y64210384D01*
X35792248Y64210384D02*
X35873060Y64129572D01*
X35873060Y64129572D02*
X36007747Y64048759D01*
X36007747Y64048759D02*
X36088560Y64021822D01*
X36088560Y64021822D02*
X36196309Y64021822D01*
X36196309Y64021822D02*
X36304059Y64075697D01*
X36304059Y64075697D02*
X36357934Y64129572D01*
X36357934Y64129572D02*
X36411808Y64237321D01*
X36411808Y64237321D02*
X36411808Y64291196D01*
X36411808Y64291196D02*
X36223247Y64479758D01*
X36223247Y64479758D02*
X36115497Y64372008D01*
X36708120Y64479758D02*
X36142434Y65045443D01*
X36142434Y65045443D02*
X36357934Y65260943D01*
X36357934Y65260943D02*
X36438746Y65287880D01*
X36438746Y65287880D02*
X36492621Y65287880D01*
X36492621Y65287880D02*
X36573433Y65260943D01*
X36573433Y65260943D02*
X36654245Y65180130D01*
X36654245Y65180130D02*
X36681182Y65099318D01*
X36681182Y65099318D02*
X36681182Y65045443D01*
X36681182Y65045443D02*
X36654245Y64964631D01*
X36654245Y64964631D02*
X36438746Y64749132D01*
X37570117Y65341755D02*
X37246868Y65018506D01*
X37408492Y65180130D02*
X36842807Y65745816D01*
X36842807Y65745816D02*
X36869744Y65611129D01*
X36869744Y65611129D02*
X36869744Y65503379D01*
X36869744Y65503379D02*
X36842807Y65422567D01*
X37354618Y66257627D02*
X37408492Y66311501D01*
X37408492Y66311501D02*
X37489305Y66338439D01*
X37489305Y66338439D02*
X37543179Y66338439D01*
X37543179Y66338439D02*
X37623992Y66311501D01*
X37623992Y66311501D02*
X37758679Y66230689D01*
X37758679Y66230689D02*
X37893366Y66096002D01*
X37893366Y66096002D02*
X37974178Y65961315D01*
X37974178Y65961315D02*
X38001115Y65880503D01*
X38001115Y65880503D02*
X38001115Y65826628D01*
X38001115Y65826628D02*
X37974178Y65745816D01*
X37974178Y65745816D02*
X37920303Y65691941D01*
X37920303Y65691941D02*
X37839491Y65665004D01*
X37839491Y65665004D02*
X37785616Y65665004D01*
X37785616Y65665004D02*
X37704804Y65691941D01*
X37704804Y65691941D02*
X37570117Y65772753D01*
X37570117Y65772753D02*
X37435430Y65907440D01*
X37435430Y65907440D02*
X37354618Y66042127D01*
X37354618Y66042127D02*
X37327680Y66122940D01*
X37327680Y66122940D02*
X37327680Y66176814D01*
X37327680Y66176814D02*
X37354618Y66257627D01*
X61863406Y97502415D02*
X62617653Y97125291D01*
X62617653Y97125291D02*
X62240529Y97879538D01*
X62887027Y97987288D02*
X62994776Y98041162D01*
X62994776Y98041162D02*
X63048651Y98041162D01*
X63048651Y98041162D02*
X63129463Y98014225D01*
X63129463Y98014225D02*
X63210276Y97933413D01*
X63210276Y97933413D02*
X63237213Y97852601D01*
X63237213Y97852601D02*
X63237213Y97798726D01*
X63237213Y97798726D02*
X63210276Y97717914D01*
X63210276Y97717914D02*
X62994776Y97502414D01*
X62994776Y97502414D02*
X62429091Y98068100D01*
X62429091Y98068100D02*
X62617653Y98256662D01*
X62617653Y98256662D02*
X62698465Y98283599D01*
X62698465Y98283599D02*
X62752340Y98283599D01*
X62752340Y98283599D02*
X62833152Y98256662D01*
X62833152Y98256662D02*
X62887027Y98202787D01*
X62887027Y98202787D02*
X62913964Y98121975D01*
X62913964Y98121975D02*
X62913964Y98068100D01*
X62913964Y98068100D02*
X62887027Y97987288D01*
X62887027Y97987288D02*
X62698465Y97798726D01*
X62994776Y98633785D02*
X63452712Y98175849D01*
X63452712Y98175849D02*
X63533524Y98148912D01*
X63533524Y98148912D02*
X63587399Y98148912D01*
X63587399Y98148912D02*
X63668211Y98175849D01*
X63668211Y98175849D02*
X63775961Y98283599D01*
X63775961Y98283599D02*
X63802898Y98364411D01*
X63802898Y98364411D02*
X63802898Y98418286D01*
X63802898Y98418286D02*
X63775961Y98499098D01*
X63775961Y98499098D02*
X63318025Y98957034D01*
X64099210Y98660723D02*
X64206959Y98714597D01*
X64206959Y98714597D02*
X64341646Y98849284D01*
X64341646Y98849284D02*
X64368584Y98930097D01*
X64368584Y98930097D02*
X64368584Y98983971D01*
X64368584Y98983971D02*
X64341646Y99064784D01*
X64341646Y99064784D02*
X64287771Y99118658D01*
X64287771Y99118658D02*
X64206959Y99145596D01*
X64206959Y99145596D02*
X64153084Y99145596D01*
X64153084Y99145596D02*
X64072272Y99118658D01*
X64072272Y99118658D02*
X63937585Y99037846D01*
X63937585Y99037846D02*
X63856773Y99010909D01*
X63856773Y99010909D02*
X63802898Y99010909D01*
X63802898Y99010909D02*
X63722086Y99037846D01*
X63722086Y99037846D02*
X63668211Y99091721D01*
X63668211Y99091721D02*
X63641274Y99172533D01*
X63641274Y99172533D02*
X63641274Y99226408D01*
X63641274Y99226408D02*
X63668211Y99307220D01*
X63668211Y99307220D02*
X63802898Y99441907D01*
X63802898Y99441907D02*
X63910648Y99495782D01*
X61800123Y87539132D02*
X62150309Y87889318D01*
X62150309Y87889318D02*
X62177247Y87485257D01*
X62177247Y87485257D02*
X62258059Y87566069D01*
X62258059Y87566069D02*
X62338871Y87593007D01*
X62338871Y87593007D02*
X62392746Y87593007D01*
X62392746Y87593007D02*
X62473558Y87566069D01*
X62473558Y87566069D02*
X62608245Y87431382D01*
X62608245Y87431382D02*
X62635182Y87350570D01*
X62635182Y87350570D02*
X62635182Y87296695D01*
X62635182Y87296695D02*
X62608245Y87215883D01*
X62608245Y87215883D02*
X62446621Y87054259D01*
X62446621Y87054259D02*
X62365808Y87027321D01*
X62365808Y87027321D02*
X62311934Y87027321D01*
X62311934Y88050943D02*
X63066181Y87673819D01*
X63066181Y87673819D02*
X62689057Y88428066D01*
X62823744Y88562753D02*
X63173930Y88912939D01*
X63173930Y88912939D02*
X63200868Y88508878D01*
X63200868Y88508878D02*
X63281680Y88589691D01*
X63281680Y88589691D02*
X63362492Y88616628D01*
X63362492Y88616628D02*
X63416367Y88616628D01*
X63416367Y88616628D02*
X63497179Y88589691D01*
X63497179Y88589691D02*
X63631866Y88455004D01*
X63631866Y88455004D02*
X63658804Y88374191D01*
X63658804Y88374191D02*
X63658804Y88320317D01*
X63658804Y88320317D02*
X63631866Y88239504D01*
X63631866Y88239504D02*
X63470242Y88077880D01*
X63470242Y88077880D02*
X63389430Y88050943D01*
X63389430Y88050943D02*
X63335555Y88050943D01*
X35899998Y49509132D02*
X35819185Y49482195D01*
X35819185Y49482195D02*
X35738373Y49401382D01*
X35738373Y49401382D02*
X35684498Y49293633D01*
X35684498Y49293633D02*
X35684498Y49185883D01*
X35684498Y49185883D02*
X35711436Y49105071D01*
X35711436Y49105071D02*
X35792248Y48970384D01*
X35792248Y48970384D02*
X35873060Y48889572D01*
X35873060Y48889572D02*
X36007747Y48808759D01*
X36007747Y48808759D02*
X36088560Y48781822D01*
X36088560Y48781822D02*
X36196309Y48781822D01*
X36196309Y48781822D02*
X36304059Y48835697D01*
X36304059Y48835697D02*
X36357934Y48889572D01*
X36357934Y48889572D02*
X36411808Y48997321D01*
X36411808Y48997321D02*
X36411808Y49051196D01*
X36411808Y49051196D02*
X36223247Y49239758D01*
X36223247Y49239758D02*
X36115497Y49132008D01*
X36708120Y49239758D02*
X36142434Y49805443D01*
X36142434Y49805443D02*
X36357934Y50020943D01*
X36357934Y50020943D02*
X36438746Y50047880D01*
X36438746Y50047880D02*
X36492621Y50047880D01*
X36492621Y50047880D02*
X36573433Y50020943D01*
X36573433Y50020943D02*
X36654245Y49940130D01*
X36654245Y49940130D02*
X36681182Y49859318D01*
X36681182Y49859318D02*
X36681182Y49805443D01*
X36681182Y49805443D02*
X36654245Y49724631D01*
X36654245Y49724631D02*
X36438746Y49509132D01*
X37570117Y50101755D02*
X37246868Y49778506D01*
X37408492Y49940130D02*
X36842807Y50505816D01*
X36842807Y50505816D02*
X36869744Y50371129D01*
X36869744Y50371129D02*
X36869744Y50263379D01*
X36869744Y50263379D02*
X36842807Y50182567D01*
X37516242Y51179251D02*
X37246868Y50909877D01*
X37246868Y50909877D02*
X37489305Y50613566D01*
X37489305Y50613566D02*
X37489305Y50667440D01*
X37489305Y50667440D02*
X37516242Y50748253D01*
X37516242Y50748253D02*
X37650929Y50882940D01*
X37650929Y50882940D02*
X37731741Y50909877D01*
X37731741Y50909877D02*
X37785616Y50909877D01*
X37785616Y50909877D02*
X37866428Y50882940D01*
X37866428Y50882940D02*
X38001115Y50748253D01*
X38001115Y50748253D02*
X38028053Y50667440D01*
X38028053Y50667440D02*
X38028053Y50613566D01*
X38028053Y50613566D02*
X38001115Y50532753D01*
X38001115Y50532753D02*
X37866428Y50398066D01*
X37866428Y50398066D02*
X37785616Y50371129D01*
X37785616Y50371129D02*
X37731741Y50371129D01*
X36423372Y82798506D02*
X36342560Y82771569D01*
X36342560Y82771569D02*
X36261748Y82690757D01*
X36261748Y82690757D02*
X36207873Y82583007D01*
X36207873Y82583007D02*
X36207873Y82475258D01*
X36207873Y82475258D02*
X36234810Y82394445D01*
X36234810Y82394445D02*
X36315623Y82259758D01*
X36315623Y82259758D02*
X36396435Y82178946D01*
X36396435Y82178946D02*
X36531122Y82098134D01*
X36531122Y82098134D02*
X36611934Y82071197D01*
X36611934Y82071197D02*
X36719684Y82071197D01*
X36719684Y82071197D02*
X36827433Y82125071D01*
X36827433Y82125071D02*
X36881308Y82178946D01*
X36881308Y82178946D02*
X36935183Y82286696D01*
X36935183Y82286696D02*
X36935183Y82340571D01*
X36935183Y82340571D02*
X36746621Y82529132D01*
X36746621Y82529132D02*
X36638871Y82421383D01*
X37231494Y82529132D02*
X36665809Y83094818D01*
X36665809Y83094818D02*
X36881308Y83310317D01*
X36881308Y83310317D02*
X36962120Y83337254D01*
X36962120Y83337254D02*
X37015995Y83337254D01*
X37015995Y83337254D02*
X37096807Y83310317D01*
X37096807Y83310317D02*
X37177619Y83229505D01*
X37177619Y83229505D02*
X37204557Y83148693D01*
X37204557Y83148693D02*
X37204557Y83094818D01*
X37204557Y83094818D02*
X37177619Y83014006D01*
X37177619Y83014006D02*
X36962120Y82798506D01*
X37500868Y83929877D02*
X37231494Y83660503D01*
X37231494Y83660503D02*
X37473931Y83364192D01*
X37473931Y83364192D02*
X37473931Y83418067D01*
X37473931Y83418067D02*
X37500868Y83498879D01*
X37500868Y83498879D02*
X37635555Y83633566D01*
X37635555Y83633566D02*
X37716367Y83660503D01*
X37716367Y83660503D02*
X37770242Y83660503D01*
X37770242Y83660503D02*
X37851054Y83633566D01*
X37851054Y83633566D02*
X37985741Y83498879D01*
X37985741Y83498879D02*
X38012679Y83418067D01*
X38012679Y83418067D02*
X38012679Y83364192D01*
X38012679Y83364192D02*
X37985741Y83283380D01*
X37985741Y83283380D02*
X37851054Y83148693D01*
X37851054Y83148693D02*
X37770242Y83121755D01*
X37770242Y83121755D02*
X37716367Y83121755D01*
X62065064Y84495951D02*
X62334438Y84765325D01*
X62172813Y84280451D02*
X61795690Y85034699D01*
X61795690Y85034699D02*
X62549937Y84657575D01*
X62738499Y84846137D02*
X62172813Y85411822D01*
X62172813Y85411822D02*
X62307500Y85546509D01*
X62307500Y85546509D02*
X62415250Y85600384D01*
X62415250Y85600384D02*
X62522999Y85600384D01*
X62522999Y85600384D02*
X62603812Y85573447D01*
X62603812Y85573447D02*
X62738499Y85492634D01*
X62738499Y85492634D02*
X62819311Y85411822D01*
X62819311Y85411822D02*
X62900123Y85277135D01*
X62900123Y85277135D02*
X62927060Y85196323D01*
X62927060Y85196323D02*
X62927060Y85088573D01*
X62927060Y85088573D02*
X62873186Y84980824D01*
X62873186Y84980824D02*
X62738499Y84846137D01*
X63573558Y85788946D02*
X63573558Y85735071D01*
X63573558Y85735071D02*
X63519683Y85627321D01*
X63519683Y85627321D02*
X63465808Y85573447D01*
X63465808Y85573447D02*
X63358059Y85519572D01*
X63358059Y85519572D02*
X63250309Y85519572D01*
X63250309Y85519572D02*
X63169497Y85546509D01*
X63169497Y85546509D02*
X63034810Y85627321D01*
X63034810Y85627321D02*
X62953998Y85708134D01*
X62953998Y85708134D02*
X62873186Y85842821D01*
X62873186Y85842821D02*
X62846248Y85923633D01*
X62846248Y85923633D02*
X62846248Y86031382D01*
X62846248Y86031382D02*
X62900123Y86139132D01*
X62900123Y86139132D02*
X62953998Y86193007D01*
X62953998Y86193007D02*
X63061747Y86246882D01*
X63061747Y86246882D02*
X63115622Y86246882D01*
X63789057Y85788946D02*
X64220056Y86219944D01*
X63654370Y86893379D02*
X64408618Y86516256D01*
X64408618Y86516256D02*
X64031494Y87270503D01*
X65108990Y87216628D02*
X64651054Y87297440D01*
X64785741Y86893379D02*
X64220056Y87459065D01*
X64220056Y87459065D02*
X64435555Y87674564D01*
X64435555Y87674564D02*
X64516367Y87701501D01*
X64516367Y87701501D02*
X64570242Y87701501D01*
X64570242Y87701501D02*
X64651054Y87674564D01*
X64651054Y87674564D02*
X64731866Y87593752D01*
X64731866Y87593752D02*
X64758804Y87512939D01*
X64758804Y87512939D02*
X64758804Y87459065D01*
X64758804Y87459065D02*
X64731866Y87378252D01*
X64731866Y87378252D02*
X64516367Y87162753D01*
X65055115Y87755376D02*
X65243677Y87943938D01*
X65620800Y87728439D02*
X65351426Y87459065D01*
X65351426Y87459065D02*
X64785741Y88024750D01*
X64785741Y88024750D02*
X65055115Y88294124D01*
X65755488Y88455749D02*
X65566926Y88267187D01*
X65863237Y87970875D02*
X65297552Y88536561D01*
X65297552Y88536561D02*
X65566926Y88805935D01*
X36423372Y72638506D02*
X36342560Y72611569D01*
X36342560Y72611569D02*
X36261748Y72530757D01*
X36261748Y72530757D02*
X36207873Y72423007D01*
X36207873Y72423007D02*
X36207873Y72315258D01*
X36207873Y72315258D02*
X36234810Y72234445D01*
X36234810Y72234445D02*
X36315623Y72099758D01*
X36315623Y72099758D02*
X36396435Y72018946D01*
X36396435Y72018946D02*
X36531122Y71938134D01*
X36531122Y71938134D02*
X36611934Y71911197D01*
X36611934Y71911197D02*
X36719684Y71911197D01*
X36719684Y71911197D02*
X36827433Y71965071D01*
X36827433Y71965071D02*
X36881308Y72018946D01*
X36881308Y72018946D02*
X36935183Y72126696D01*
X36935183Y72126696D02*
X36935183Y72180571D01*
X36935183Y72180571D02*
X36746621Y72369132D01*
X36746621Y72369132D02*
X36638871Y72261383D01*
X37231494Y72369132D02*
X36665809Y72934818D01*
X36665809Y72934818D02*
X36881308Y73150317D01*
X36881308Y73150317D02*
X36962120Y73177254D01*
X36962120Y73177254D02*
X37015995Y73177254D01*
X37015995Y73177254D02*
X37096807Y73150317D01*
X37096807Y73150317D02*
X37177619Y73069505D01*
X37177619Y73069505D02*
X37204557Y72988693D01*
X37204557Y72988693D02*
X37204557Y72934818D01*
X37204557Y72934818D02*
X37177619Y72854006D01*
X37177619Y72854006D02*
X36962120Y72638506D01*
X37554743Y73338879D02*
X37473931Y73311941D01*
X37473931Y73311941D02*
X37420056Y73311941D01*
X37420056Y73311941D02*
X37339244Y73338879D01*
X37339244Y73338879D02*
X37312306Y73365816D01*
X37312306Y73365816D02*
X37285369Y73446628D01*
X37285369Y73446628D02*
X37285369Y73500503D01*
X37285369Y73500503D02*
X37312306Y73581315D01*
X37312306Y73581315D02*
X37420056Y73689065D01*
X37420056Y73689065D02*
X37500868Y73716002D01*
X37500868Y73716002D02*
X37554743Y73716002D01*
X37554743Y73716002D02*
X37635555Y73689065D01*
X37635555Y73689065D02*
X37662493Y73662128D01*
X37662493Y73662128D02*
X37689430Y73581315D01*
X37689430Y73581315D02*
X37689430Y73527441D01*
X37689430Y73527441D02*
X37662493Y73446628D01*
X37662493Y73446628D02*
X37554743Y73338879D01*
X37554743Y73338879D02*
X37527806Y73258067D01*
X37527806Y73258067D02*
X37527806Y73204192D01*
X37527806Y73204192D02*
X37554743Y73123380D01*
X37554743Y73123380D02*
X37662493Y73015630D01*
X37662493Y73015630D02*
X37743305Y72988693D01*
X37743305Y72988693D02*
X37797180Y72988693D01*
X37797180Y72988693D02*
X37877992Y73015630D01*
X37877992Y73015630D02*
X37985741Y73123380D01*
X37985741Y73123380D02*
X38012679Y73204192D01*
X38012679Y73204192D02*
X38012679Y73258067D01*
X38012679Y73258067D02*
X37985741Y73338879D01*
X37985741Y73338879D02*
X37877992Y73446628D01*
X37877992Y73446628D02*
X37797180Y73473566D01*
X37797180Y73473566D02*
X37743305Y73473566D01*
X37743305Y73473566D02*
X37662493Y73446628D01*
X62007998Y74909132D02*
X61927185Y74882195D01*
X61927185Y74882195D02*
X61846373Y74801382D01*
X61846373Y74801382D02*
X61792498Y74693633D01*
X61792498Y74693633D02*
X61792498Y74585883D01*
X61792498Y74585883D02*
X61819436Y74505071D01*
X61819436Y74505071D02*
X61900248Y74370384D01*
X61900248Y74370384D02*
X61981060Y74289572D01*
X61981060Y74289572D02*
X62115747Y74208759D01*
X62115747Y74208759D02*
X62196560Y74181822D01*
X62196560Y74181822D02*
X62304309Y74181822D01*
X62304309Y74181822D02*
X62412059Y74235697D01*
X62412059Y74235697D02*
X62465934Y74289572D01*
X62465934Y74289572D02*
X62519808Y74397321D01*
X62519808Y74397321D02*
X62519808Y74451196D01*
X62519808Y74451196D02*
X62331247Y74639758D01*
X62331247Y74639758D02*
X62223497Y74532008D01*
X62816120Y74639758D02*
X62250434Y75205443D01*
X62250434Y75205443D02*
X62465934Y75420943D01*
X62465934Y75420943D02*
X62546746Y75447880D01*
X62546746Y75447880D02*
X62600621Y75447880D01*
X62600621Y75447880D02*
X62681433Y75420943D01*
X62681433Y75420943D02*
X62762245Y75340130D01*
X62762245Y75340130D02*
X62789182Y75259318D01*
X62789182Y75259318D02*
X62789182Y75205443D01*
X62789182Y75205443D02*
X62762245Y75124631D01*
X62762245Y75124631D02*
X62546746Y74909132D01*
X62843057Y75690317D02*
X62843057Y75744191D01*
X62843057Y75744191D02*
X62869995Y75825004D01*
X62869995Y75825004D02*
X63004682Y75959691D01*
X63004682Y75959691D02*
X63085494Y75986628D01*
X63085494Y75986628D02*
X63139369Y75986628D01*
X63139369Y75986628D02*
X63220181Y75959691D01*
X63220181Y75959691D02*
X63274056Y75905816D01*
X63274056Y75905816D02*
X63327930Y75798066D01*
X63327930Y75798066D02*
X63327930Y75151569D01*
X63327930Y75151569D02*
X63678117Y75501755D01*
X63597305Y76552314D02*
X63489555Y76444564D01*
X63489555Y76444564D02*
X63462618Y76363752D01*
X63462618Y76363752D02*
X63462618Y76309877D01*
X63462618Y76309877D02*
X63489555Y76175190D01*
X63489555Y76175190D02*
X63570367Y76040503D01*
X63570367Y76040503D02*
X63785866Y75825004D01*
X63785866Y75825004D02*
X63866679Y75798066D01*
X63866679Y75798066D02*
X63920553Y75798066D01*
X63920553Y75798066D02*
X64001366Y75825004D01*
X64001366Y75825004D02*
X64109115Y75932753D01*
X64109115Y75932753D02*
X64136053Y76013566D01*
X64136053Y76013566D02*
X64136053Y76067440D01*
X64136053Y76067440D02*
X64109115Y76148253D01*
X64109115Y76148253D02*
X63974428Y76282940D01*
X63974428Y76282940D02*
X63893616Y76309877D01*
X63893616Y76309877D02*
X63839741Y76309877D01*
X63839741Y76309877D02*
X63758929Y76282940D01*
X63758929Y76282940D02*
X63651179Y76175190D01*
X63651179Y76175190D02*
X63624242Y76094378D01*
X63624242Y76094378D02*
X63624242Y76040503D01*
X63624242Y76040503D02*
X63651179Y75959691D01*
X35753998Y59669132D02*
X35673185Y59642195D01*
X35673185Y59642195D02*
X35592373Y59561382D01*
X35592373Y59561382D02*
X35538498Y59453633D01*
X35538498Y59453633D02*
X35538498Y59345883D01*
X35538498Y59345883D02*
X35565436Y59265071D01*
X35565436Y59265071D02*
X35646248Y59130384D01*
X35646248Y59130384D02*
X35727060Y59049572D01*
X35727060Y59049572D02*
X35861747Y58968759D01*
X35861747Y58968759D02*
X35942560Y58941822D01*
X35942560Y58941822D02*
X36050309Y58941822D01*
X36050309Y58941822D02*
X36158059Y58995697D01*
X36158059Y58995697D02*
X36211934Y59049572D01*
X36211934Y59049572D02*
X36265808Y59157321D01*
X36265808Y59157321D02*
X36265808Y59211196D01*
X36265808Y59211196D02*
X36077247Y59399758D01*
X36077247Y59399758D02*
X35969497Y59292008D01*
X36562120Y59399758D02*
X35996434Y59965443D01*
X35996434Y59965443D02*
X36211934Y60180943D01*
X36211934Y60180943D02*
X36292746Y60207880D01*
X36292746Y60207880D02*
X36346621Y60207880D01*
X36346621Y60207880D02*
X36427433Y60180943D01*
X36427433Y60180943D02*
X36508245Y60100130D01*
X36508245Y60100130D02*
X36535182Y60019318D01*
X36535182Y60019318D02*
X36535182Y59965443D01*
X36535182Y59965443D02*
X36508245Y59884631D01*
X36508245Y59884631D02*
X36292746Y59669132D01*
X37424117Y60261755D02*
X37100868Y59938506D01*
X37262492Y60100130D02*
X36696807Y60665816D01*
X36696807Y60665816D02*
X36723744Y60531129D01*
X36723744Y60531129D02*
X36723744Y60423379D01*
X36723744Y60423379D02*
X36696807Y60342567D01*
X37127805Y60989065D02*
X37127805Y61042940D01*
X37127805Y61042940D02*
X37154743Y61123752D01*
X37154743Y61123752D02*
X37289430Y61258439D01*
X37289430Y61258439D02*
X37370242Y61285376D01*
X37370242Y61285376D02*
X37424117Y61285376D01*
X37424117Y61285376D02*
X37504929Y61258439D01*
X37504929Y61258439D02*
X37558804Y61204564D01*
X37558804Y61204564D02*
X37612679Y61096814D01*
X37612679Y61096814D02*
X37612679Y60450317D01*
X37612679Y60450317D02*
X37962865Y60800503D01*
X42400475Y47505800D02*
X42514761Y47467705D01*
X42514761Y47467705D02*
X42705237Y47467705D01*
X42705237Y47467705D02*
X42781428Y47505800D01*
X42781428Y47505800D02*
X42819523Y47543896D01*
X42819523Y47543896D02*
X42857618Y47620086D01*
X42857618Y47620086D02*
X42857618Y47696277D01*
X42857618Y47696277D02*
X42819523Y47772467D01*
X42819523Y47772467D02*
X42781428Y47810562D01*
X42781428Y47810562D02*
X42705237Y47848658D01*
X42705237Y47848658D02*
X42552856Y47886753D01*
X42552856Y47886753D02*
X42476666Y47924848D01*
X42476666Y47924848D02*
X42438571Y47962943D01*
X42438571Y47962943D02*
X42400475Y48039134D01*
X42400475Y48039134D02*
X42400475Y48115324D01*
X42400475Y48115324D02*
X42438571Y48191515D01*
X42438571Y48191515D02*
X42476666Y48229610D01*
X42476666Y48229610D02*
X42552856Y48267705D01*
X42552856Y48267705D02*
X42743333Y48267705D01*
X42743333Y48267705D02*
X42857618Y48229610D01*
X43124285Y48267705D02*
X43314761Y47467705D01*
X43314761Y47467705D02*
X43467142Y48039134D01*
X43467142Y48039134D02*
X43619523Y47467705D01*
X43619523Y47467705D02*
X43810000Y48267705D01*
X44571905Y47543896D02*
X44533809Y47505800D01*
X44533809Y47505800D02*
X44419524Y47467705D01*
X44419524Y47467705D02*
X44343333Y47467705D01*
X44343333Y47467705D02*
X44229047Y47505800D01*
X44229047Y47505800D02*
X44152857Y47581991D01*
X44152857Y47581991D02*
X44114762Y47658181D01*
X44114762Y47658181D02*
X44076666Y47810562D01*
X44076666Y47810562D02*
X44076666Y47924848D01*
X44076666Y47924848D02*
X44114762Y48077229D01*
X44114762Y48077229D02*
X44152857Y48153420D01*
X44152857Y48153420D02*
X44229047Y48229610D01*
X44229047Y48229610D02*
X44343333Y48267705D01*
X44343333Y48267705D02*
X44419524Y48267705D01*
X44419524Y48267705D02*
X44533809Y48229610D01*
X44533809Y48229610D02*
X44571905Y48191515D01*
X45295714Y47467705D02*
X44914762Y47467705D01*
X44914762Y47467705D02*
X44914762Y48267705D01*
X45562381Y47467705D02*
X45562381Y48267705D01*
X46019524Y47467705D02*
X45676666Y47924848D01*
X46019524Y48267705D02*
X45562381Y47810562D01*
X53814761Y47505800D02*
X53929047Y47467705D01*
X53929047Y47467705D02*
X54119523Y47467705D01*
X54119523Y47467705D02*
X54195714Y47505800D01*
X54195714Y47505800D02*
X54233809Y47543896D01*
X54233809Y47543896D02*
X54271904Y47620086D01*
X54271904Y47620086D02*
X54271904Y47696277D01*
X54271904Y47696277D02*
X54233809Y47772467D01*
X54233809Y47772467D02*
X54195714Y47810562D01*
X54195714Y47810562D02*
X54119523Y47848658D01*
X54119523Y47848658D02*
X53967142Y47886753D01*
X53967142Y47886753D02*
X53890952Y47924848D01*
X53890952Y47924848D02*
X53852857Y47962943D01*
X53852857Y47962943D02*
X53814761Y48039134D01*
X53814761Y48039134D02*
X53814761Y48115324D01*
X53814761Y48115324D02*
X53852857Y48191515D01*
X53852857Y48191515D02*
X53890952Y48229610D01*
X53890952Y48229610D02*
X53967142Y48267705D01*
X53967142Y48267705D02*
X54157619Y48267705D01*
X54157619Y48267705D02*
X54271904Y48229610D01*
X54538571Y48267705D02*
X54729047Y47467705D01*
X54729047Y47467705D02*
X54881428Y48039134D01*
X54881428Y48039134D02*
X55033809Y47467705D01*
X55033809Y47467705D02*
X55224286Y48267705D01*
X55529048Y47467705D02*
X55529048Y48267705D01*
X55529048Y48267705D02*
X55719524Y48267705D01*
X55719524Y48267705D02*
X55833810Y48229610D01*
X55833810Y48229610D02*
X55910000Y48153420D01*
X55910000Y48153420D02*
X55948095Y48077229D01*
X55948095Y48077229D02*
X55986191Y47924848D01*
X55986191Y47924848D02*
X55986191Y47810562D01*
X55986191Y47810562D02*
X55948095Y47658181D01*
X55948095Y47658181D02*
X55910000Y47581991D01*
X55910000Y47581991D02*
X55833810Y47505800D01*
X55833810Y47505800D02*
X55719524Y47467705D01*
X55719524Y47467705D02*
X55529048Y47467705D01*
X56329048Y47467705D02*
X56329048Y48267705D01*
X56862381Y48267705D02*
X57014762Y48267705D01*
X57014762Y48267705D02*
X57090952Y48229610D01*
X57090952Y48229610D02*
X57167143Y48153420D01*
X57167143Y48153420D02*
X57205238Y48001039D01*
X57205238Y48001039D02*
X57205238Y47734372D01*
X57205238Y47734372D02*
X57167143Y47581991D01*
X57167143Y47581991D02*
X57090952Y47505800D01*
X57090952Y47505800D02*
X57014762Y47467705D01*
X57014762Y47467705D02*
X56862381Y47467705D01*
X56862381Y47467705D02*
X56786190Y47505800D01*
X56786190Y47505800D02*
X56710000Y47581991D01*
X56710000Y47581991D02*
X56671904Y47734372D01*
X56671904Y47734372D02*
X56671904Y48001039D01*
X56671904Y48001039D02*
X56710000Y48153420D01*
X56710000Y48153420D02*
X56786190Y48229610D01*
X56786190Y48229610D02*
X56862381Y48267705D01*
X62061873Y79288760D02*
X62331247Y79558134D01*
X62169623Y79073261D02*
X61792499Y79827508D01*
X61792499Y79827508D02*
X62546746Y79450385D01*
X62492871Y80474006D02*
X62412059Y80447068D01*
X62412059Y80447068D02*
X62331247Y80366256D01*
X62331247Y80366256D02*
X62277372Y80258506D01*
X62277372Y80258506D02*
X62277372Y80150757D01*
X62277372Y80150757D02*
X62304310Y80069945D01*
X62304310Y80069945D02*
X62385122Y79935258D01*
X62385122Y79935258D02*
X62465934Y79854445D01*
X62465934Y79854445D02*
X62600621Y79773633D01*
X62600621Y79773633D02*
X62681433Y79746696D01*
X62681433Y79746696D02*
X62789183Y79746696D01*
X62789183Y79746696D02*
X62896932Y79800571D01*
X62896932Y79800571D02*
X62950807Y79854445D01*
X62950807Y79854445D02*
X63004682Y79962195D01*
X63004682Y79962195D02*
X63004682Y80016070D01*
X63004682Y80016070D02*
X62816120Y80204632D01*
X62816120Y80204632D02*
X62708371Y80096882D01*
X63300993Y80204632D02*
X62735308Y80770317D01*
X62735308Y80770317D02*
X63624242Y80527880D01*
X63624242Y80527880D02*
X63058557Y81093566D01*
X63893616Y80797254D02*
X63327931Y81362940D01*
X63327931Y81362940D02*
X63462618Y81497627D01*
X63462618Y81497627D02*
X63570367Y81551502D01*
X63570367Y81551502D02*
X63678117Y81551502D01*
X63678117Y81551502D02*
X63758929Y81524564D01*
X63758929Y81524564D02*
X63893616Y81443752D01*
X63893616Y81443752D02*
X63974428Y81362940D01*
X63974428Y81362940D02*
X64055241Y81228253D01*
X64055241Y81228253D02*
X64082178Y81147440D01*
X64082178Y81147440D02*
X64082178Y81039691D01*
X64082178Y81039691D02*
X64028303Y80931941D01*
X64028303Y80931941D02*
X63893616Y80797254D01*
X62007998Y49509132D02*
X61927185Y49482195D01*
X61927185Y49482195D02*
X61846373Y49401382D01*
X61846373Y49401382D02*
X61792498Y49293633D01*
X61792498Y49293633D02*
X61792498Y49185883D01*
X61792498Y49185883D02*
X61819436Y49105071D01*
X61819436Y49105071D02*
X61900248Y48970384D01*
X61900248Y48970384D02*
X61981060Y48889572D01*
X61981060Y48889572D02*
X62115747Y48808759D01*
X62115747Y48808759D02*
X62196560Y48781822D01*
X62196560Y48781822D02*
X62304309Y48781822D01*
X62304309Y48781822D02*
X62412059Y48835697D01*
X62412059Y48835697D02*
X62465934Y48889572D01*
X62465934Y48889572D02*
X62519808Y48997321D01*
X62519808Y48997321D02*
X62519808Y49051196D01*
X62519808Y49051196D02*
X62331247Y49239758D01*
X62331247Y49239758D02*
X62223497Y49132008D01*
X62816120Y49239758D02*
X62250434Y49805443D01*
X62250434Y49805443D02*
X62465934Y50020943D01*
X62465934Y50020943D02*
X62546746Y50047880D01*
X62546746Y50047880D02*
X62600621Y50047880D01*
X62600621Y50047880D02*
X62681433Y50020943D01*
X62681433Y50020943D02*
X62762245Y49940130D01*
X62762245Y49940130D02*
X62789182Y49859318D01*
X62789182Y49859318D02*
X62789182Y49805443D01*
X62789182Y49805443D02*
X62762245Y49724631D01*
X62762245Y49724631D02*
X62546746Y49509132D01*
X63678117Y50101755D02*
X63354868Y49778506D01*
X63516492Y49940130D02*
X62950807Y50505816D01*
X62950807Y50505816D02*
X62977744Y50371129D01*
X62977744Y50371129D02*
X62977744Y50263379D01*
X62977744Y50263379D02*
X62950807Y50182567D01*
X63597305Y51152314D02*
X63489555Y51044564D01*
X63489555Y51044564D02*
X63462618Y50963752D01*
X63462618Y50963752D02*
X63462618Y50909877D01*
X63462618Y50909877D02*
X63489555Y50775190D01*
X63489555Y50775190D02*
X63570367Y50640503D01*
X63570367Y50640503D02*
X63785866Y50425004D01*
X63785866Y50425004D02*
X63866679Y50398066D01*
X63866679Y50398066D02*
X63920553Y50398066D01*
X63920553Y50398066D02*
X64001366Y50425004D01*
X64001366Y50425004D02*
X64109115Y50532753D01*
X64109115Y50532753D02*
X64136053Y50613566D01*
X64136053Y50613566D02*
X64136053Y50667440D01*
X64136053Y50667440D02*
X64109115Y50748253D01*
X64109115Y50748253D02*
X63974428Y50882940D01*
X63974428Y50882940D02*
X63893616Y50909877D01*
X63893616Y50909877D02*
X63839741Y50909877D01*
X63839741Y50909877D02*
X63758929Y50882940D01*
X63758929Y50882940D02*
X63651179Y50775190D01*
X63651179Y50775190D02*
X63624242Y50694378D01*
X63624242Y50694378D02*
X63624242Y50640503D01*
X63624242Y50640503D02*
X63651179Y50559691D01*
X61830749Y94959758D02*
X62584996Y94582634D01*
X62584996Y94582634D02*
X62207873Y95336882D01*
X62908245Y94959758D02*
X63015995Y95013633D01*
X63015995Y95013633D02*
X63150682Y95148320D01*
X63150682Y95148320D02*
X63177619Y95229132D01*
X63177619Y95229132D02*
X63177619Y95283007D01*
X63177619Y95283007D02*
X63150682Y95363819D01*
X63150682Y95363819D02*
X63096807Y95417694D01*
X63096807Y95417694D02*
X63015995Y95444631D01*
X63015995Y95444631D02*
X62962120Y95444631D01*
X62962120Y95444631D02*
X62881308Y95417694D01*
X62881308Y95417694D02*
X62746621Y95336882D01*
X62746621Y95336882D02*
X62665808Y95309944D01*
X62665808Y95309944D02*
X62611934Y95309944D01*
X62611934Y95309944D02*
X62531121Y95336882D01*
X62531121Y95336882D02*
X62477247Y95390756D01*
X62477247Y95390756D02*
X62450309Y95471569D01*
X62450309Y95471569D02*
X62450309Y95525443D01*
X62450309Y95525443D02*
X62477247Y95606256D01*
X62477247Y95606256D02*
X62611934Y95740943D01*
X62611934Y95740943D02*
X62719683Y95794817D01*
X63339244Y95875630D02*
X63608618Y95606256D01*
X62854370Y95983379D02*
X63339244Y95875630D01*
X63339244Y95875630D02*
X63231494Y96360503D01*
X63931866Y95983379D02*
X64039616Y96037254D01*
X64039616Y96037254D02*
X64174303Y96171941D01*
X64174303Y96171941D02*
X64201240Y96252753D01*
X64201240Y96252753D02*
X64201240Y96306628D01*
X64201240Y96306628D02*
X64174303Y96387440D01*
X64174303Y96387440D02*
X64120428Y96441315D01*
X64120428Y96441315D02*
X64039616Y96468252D01*
X64039616Y96468252D02*
X63985741Y96468252D01*
X63985741Y96468252D02*
X63904929Y96441315D01*
X63904929Y96441315D02*
X63770242Y96360503D01*
X63770242Y96360503D02*
X63689430Y96333565D01*
X63689430Y96333565D02*
X63635555Y96333565D01*
X63635555Y96333565D02*
X63554743Y96360503D01*
X63554743Y96360503D02*
X63500868Y96414378D01*
X63500868Y96414378D02*
X63473930Y96495190D01*
X63473930Y96495190D02*
X63473930Y96549065D01*
X63473930Y96549065D02*
X63500868Y96629877D01*
X63500868Y96629877D02*
X63635555Y96764564D01*
X63635555Y96764564D02*
X63743304Y96818439D01*
X35853998Y52049132D02*
X35773185Y52022195D01*
X35773185Y52022195D02*
X35692373Y51941382D01*
X35692373Y51941382D02*
X35638498Y51833633D01*
X35638498Y51833633D02*
X35638498Y51725883D01*
X35638498Y51725883D02*
X35665436Y51645071D01*
X35665436Y51645071D02*
X35746248Y51510384D01*
X35746248Y51510384D02*
X35827060Y51429572D01*
X35827060Y51429572D02*
X35961747Y51348759D01*
X35961747Y51348759D02*
X36042560Y51321822D01*
X36042560Y51321822D02*
X36150309Y51321822D01*
X36150309Y51321822D02*
X36258059Y51375697D01*
X36258059Y51375697D02*
X36311934Y51429572D01*
X36311934Y51429572D02*
X36365808Y51537321D01*
X36365808Y51537321D02*
X36365808Y51591196D01*
X36365808Y51591196D02*
X36177247Y51779758D01*
X36177247Y51779758D02*
X36069497Y51672008D01*
X36662120Y51779758D02*
X36096434Y52345443D01*
X36096434Y52345443D02*
X36311934Y52560943D01*
X36311934Y52560943D02*
X36392746Y52587880D01*
X36392746Y52587880D02*
X36446621Y52587880D01*
X36446621Y52587880D02*
X36527433Y52560943D01*
X36527433Y52560943D02*
X36608245Y52480130D01*
X36608245Y52480130D02*
X36635182Y52399318D01*
X36635182Y52399318D02*
X36635182Y52345443D01*
X36635182Y52345443D02*
X36608245Y52264631D01*
X36608245Y52264631D02*
X36392746Y52049132D01*
X37524117Y52641755D02*
X37200868Y52318506D01*
X37362492Y52480130D02*
X36796807Y53045816D01*
X36796807Y53045816D02*
X36823744Y52911129D01*
X36823744Y52911129D02*
X36823744Y52803379D01*
X36823744Y52803379D02*
X36796807Y52722567D01*
X37631866Y53503752D02*
X38008990Y53126628D01*
X37281680Y53584564D02*
X37551054Y53045816D01*
X37551054Y53045816D02*
X37901240Y53396002D01*
X61996435Y67531569D02*
X61915623Y67504632D01*
X61915623Y67504632D02*
X61834811Y67423820D01*
X61834811Y67423820D02*
X61780936Y67316070D01*
X61780936Y67316070D02*
X61780936Y67208320D01*
X61780936Y67208320D02*
X61807873Y67127508D01*
X61807873Y67127508D02*
X61888685Y66992821D01*
X61888685Y66992821D02*
X61969498Y66912009D01*
X61969498Y66912009D02*
X62104185Y66831197D01*
X62104185Y66831197D02*
X62184997Y66804259D01*
X62184997Y66804259D02*
X62292746Y66804259D01*
X62292746Y66804259D02*
X62400496Y66858134D01*
X62400496Y66858134D02*
X62454371Y66912009D01*
X62454371Y66912009D02*
X62508246Y67019759D01*
X62508246Y67019759D02*
X62508246Y67073633D01*
X62508246Y67073633D02*
X62319684Y67262195D01*
X62319684Y67262195D02*
X62211934Y67154446D01*
X62804557Y67262195D02*
X62238872Y67827881D01*
X62238872Y67827881D02*
X63127806Y67585444D01*
X63127806Y67585444D02*
X62562120Y68151129D01*
X63397180Y67854818D02*
X62831494Y68420503D01*
X62831494Y68420503D02*
X62966181Y68555190D01*
X62966181Y68555190D02*
X63073931Y68609065D01*
X63073931Y68609065D02*
X63181680Y68609065D01*
X63181680Y68609065D02*
X63262493Y68582128D01*
X63262493Y68582128D02*
X63397180Y68501315D01*
X63397180Y68501315D02*
X63477992Y68420503D01*
X63477992Y68420503D02*
X63558804Y68285816D01*
X63558804Y68285816D02*
X63585741Y68205004D01*
X63585741Y68205004D02*
X63585741Y68097254D01*
X63585741Y68097254D02*
X63531867Y67989505D01*
X63531867Y67989505D02*
X63397180Y67854818D01*
X36396435Y67531569D02*
X36315623Y67504632D01*
X36315623Y67504632D02*
X36234811Y67423820D01*
X36234811Y67423820D02*
X36180936Y67316070D01*
X36180936Y67316070D02*
X36180936Y67208320D01*
X36180936Y67208320D02*
X36207873Y67127508D01*
X36207873Y67127508D02*
X36288685Y66992821D01*
X36288685Y66992821D02*
X36369498Y66912009D01*
X36369498Y66912009D02*
X36504185Y66831197D01*
X36504185Y66831197D02*
X36584997Y66804259D01*
X36584997Y66804259D02*
X36692746Y66804259D01*
X36692746Y66804259D02*
X36800496Y66858134D01*
X36800496Y66858134D02*
X36854371Y66912009D01*
X36854371Y66912009D02*
X36908246Y67019759D01*
X36908246Y67019759D02*
X36908246Y67073633D01*
X36908246Y67073633D02*
X36719684Y67262195D01*
X36719684Y67262195D02*
X36611934Y67154446D01*
X37204557Y67262195D02*
X36638872Y67827881D01*
X36638872Y67827881D02*
X37527806Y67585444D01*
X37527806Y67585444D02*
X36962120Y68151129D01*
X37797180Y67854818D02*
X37231494Y68420503D01*
X37231494Y68420503D02*
X37366181Y68555190D01*
X37366181Y68555190D02*
X37473931Y68609065D01*
X37473931Y68609065D02*
X37581680Y68609065D01*
X37581680Y68609065D02*
X37662493Y68582128D01*
X37662493Y68582128D02*
X37797180Y68501315D01*
X37797180Y68501315D02*
X37877992Y68420503D01*
X37877992Y68420503D02*
X37958804Y68285816D01*
X37958804Y68285816D02*
X37985741Y68205004D01*
X37985741Y68205004D02*
X37985741Y68097254D01*
X37985741Y68097254D02*
X37931867Y67989505D01*
X37931867Y67989505D02*
X37797180Y67854818D01*
X36396435Y92931569D02*
X36315623Y92904632D01*
X36315623Y92904632D02*
X36234811Y92823820D01*
X36234811Y92823820D02*
X36180936Y92716070D01*
X36180936Y92716070D02*
X36180936Y92608320D01*
X36180936Y92608320D02*
X36207873Y92527508D01*
X36207873Y92527508D02*
X36288685Y92392821D01*
X36288685Y92392821D02*
X36369498Y92312009D01*
X36369498Y92312009D02*
X36504185Y92231197D01*
X36504185Y92231197D02*
X36584997Y92204259D01*
X36584997Y92204259D02*
X36692746Y92204259D01*
X36692746Y92204259D02*
X36800496Y92258134D01*
X36800496Y92258134D02*
X36854371Y92312009D01*
X36854371Y92312009D02*
X36908246Y92419759D01*
X36908246Y92419759D02*
X36908246Y92473633D01*
X36908246Y92473633D02*
X36719684Y92662195D01*
X36719684Y92662195D02*
X36611934Y92554446D01*
X37204557Y92662195D02*
X36638872Y93227881D01*
X36638872Y93227881D02*
X37527806Y92985444D01*
X37527806Y92985444D02*
X36962120Y93551129D01*
X37797180Y93254818D02*
X37231494Y93820503D01*
X37231494Y93820503D02*
X37366181Y93955190D01*
X37366181Y93955190D02*
X37473931Y94009065D01*
X37473931Y94009065D02*
X37581680Y94009065D01*
X37581680Y94009065D02*
X37662493Y93982128D01*
X37662493Y93982128D02*
X37797180Y93901315D01*
X37797180Y93901315D02*
X37877992Y93820503D01*
X37877992Y93820503D02*
X37958804Y93685816D01*
X37958804Y93685816D02*
X37985741Y93605004D01*
X37985741Y93605004D02*
X37985741Y93497254D01*
X37985741Y93497254D02*
X37931867Y93389505D01*
X37931867Y93389505D02*
X37797180Y93254818D01*
X62007998Y52049132D02*
X61927185Y52022195D01*
X61927185Y52022195D02*
X61846373Y51941382D01*
X61846373Y51941382D02*
X61792498Y51833633D01*
X61792498Y51833633D02*
X61792498Y51725883D01*
X61792498Y51725883D02*
X61819436Y51645071D01*
X61819436Y51645071D02*
X61900248Y51510384D01*
X61900248Y51510384D02*
X61981060Y51429572D01*
X61981060Y51429572D02*
X62115747Y51348759D01*
X62115747Y51348759D02*
X62196560Y51321822D01*
X62196560Y51321822D02*
X62304309Y51321822D01*
X62304309Y51321822D02*
X62412059Y51375697D01*
X62412059Y51375697D02*
X62465934Y51429572D01*
X62465934Y51429572D02*
X62519808Y51537321D01*
X62519808Y51537321D02*
X62519808Y51591196D01*
X62519808Y51591196D02*
X62331247Y51779758D01*
X62331247Y51779758D02*
X62223497Y51672008D01*
X62816120Y51779758D02*
X62250434Y52345443D01*
X62250434Y52345443D02*
X62465934Y52560943D01*
X62465934Y52560943D02*
X62546746Y52587880D01*
X62546746Y52587880D02*
X62600621Y52587880D01*
X62600621Y52587880D02*
X62681433Y52560943D01*
X62681433Y52560943D02*
X62762245Y52480130D01*
X62762245Y52480130D02*
X62789182Y52399318D01*
X62789182Y52399318D02*
X62789182Y52345443D01*
X62789182Y52345443D02*
X62762245Y52264631D01*
X62762245Y52264631D02*
X62546746Y52049132D01*
X63678117Y52641755D02*
X63354868Y52318506D01*
X63516492Y52480130D02*
X62950807Y53045816D01*
X62950807Y53045816D02*
X62977744Y52911129D01*
X62977744Y52911129D02*
X62977744Y52803379D01*
X62977744Y52803379D02*
X62950807Y52722567D01*
X63300993Y53396002D02*
X63678117Y53773126D01*
X63678117Y53773126D02*
X64001366Y52965004D01*
X62007998Y64739132D02*
X61927185Y64712195D01*
X61927185Y64712195D02*
X61846373Y64631382D01*
X61846373Y64631382D02*
X61792498Y64523633D01*
X61792498Y64523633D02*
X61792498Y64415883D01*
X61792498Y64415883D02*
X61819436Y64335071D01*
X61819436Y64335071D02*
X61900248Y64200384D01*
X61900248Y64200384D02*
X61981060Y64119572D01*
X61981060Y64119572D02*
X62115747Y64038759D01*
X62115747Y64038759D02*
X62196560Y64011822D01*
X62196560Y64011822D02*
X62304309Y64011822D01*
X62304309Y64011822D02*
X62412059Y64065697D01*
X62412059Y64065697D02*
X62465934Y64119572D01*
X62465934Y64119572D02*
X62519808Y64227321D01*
X62519808Y64227321D02*
X62519808Y64281196D01*
X62519808Y64281196D02*
X62331247Y64469758D01*
X62331247Y64469758D02*
X62223497Y64362008D01*
X62816120Y64469758D02*
X62250434Y65035443D01*
X62250434Y65035443D02*
X62465934Y65250943D01*
X62465934Y65250943D02*
X62546746Y65277880D01*
X62546746Y65277880D02*
X62600621Y65277880D01*
X62600621Y65277880D02*
X62681433Y65250943D01*
X62681433Y65250943D02*
X62762245Y65170130D01*
X62762245Y65170130D02*
X62789182Y65089318D01*
X62789182Y65089318D02*
X62789182Y65035443D01*
X62789182Y65035443D02*
X62762245Y64954631D01*
X62762245Y64954631D02*
X62546746Y64739132D01*
X62843057Y65520317D02*
X62843057Y65574191D01*
X62843057Y65574191D02*
X62869995Y65655004D01*
X62869995Y65655004D02*
X63004682Y65789691D01*
X63004682Y65789691D02*
X63085494Y65816628D01*
X63085494Y65816628D02*
X63139369Y65816628D01*
X63139369Y65816628D02*
X63220181Y65789691D01*
X63220181Y65789691D02*
X63274056Y65735816D01*
X63274056Y65735816D02*
X63327930Y65628066D01*
X63327930Y65628066D02*
X63327930Y64981569D01*
X63327930Y64981569D02*
X63678117Y65331755D01*
X64216865Y65870503D02*
X63893616Y65547254D01*
X64055240Y65708879D02*
X63489555Y66274564D01*
X63489555Y66274564D02*
X63516492Y66139877D01*
X63516492Y66139877D02*
X63516492Y66032127D01*
X63516492Y66032127D02*
X63489555Y65951315D01*
X61996435Y54831569D02*
X61915623Y54804632D01*
X61915623Y54804632D02*
X61834811Y54723820D01*
X61834811Y54723820D02*
X61780936Y54616070D01*
X61780936Y54616070D02*
X61780936Y54508320D01*
X61780936Y54508320D02*
X61807873Y54427508D01*
X61807873Y54427508D02*
X61888685Y54292821D01*
X61888685Y54292821D02*
X61969498Y54212009D01*
X61969498Y54212009D02*
X62104185Y54131197D01*
X62104185Y54131197D02*
X62184997Y54104259D01*
X62184997Y54104259D02*
X62292746Y54104259D01*
X62292746Y54104259D02*
X62400496Y54158134D01*
X62400496Y54158134D02*
X62454371Y54212009D01*
X62454371Y54212009D02*
X62508246Y54319759D01*
X62508246Y54319759D02*
X62508246Y54373633D01*
X62508246Y54373633D02*
X62319684Y54562195D01*
X62319684Y54562195D02*
X62211934Y54454446D01*
X62804557Y54562195D02*
X62238872Y55127881D01*
X62238872Y55127881D02*
X63127806Y54885444D01*
X63127806Y54885444D02*
X62562120Y55451129D01*
X63397180Y55154818D02*
X62831494Y55720503D01*
X62831494Y55720503D02*
X62966181Y55855190D01*
X62966181Y55855190D02*
X63073931Y55909065D01*
X63073931Y55909065D02*
X63181680Y55909065D01*
X63181680Y55909065D02*
X63262493Y55882128D01*
X63262493Y55882128D02*
X63397180Y55801315D01*
X63397180Y55801315D02*
X63477992Y55720503D01*
X63477992Y55720503D02*
X63558804Y55585816D01*
X63558804Y55585816D02*
X63585741Y55505004D01*
X63585741Y55505004D02*
X63585741Y55397254D01*
X63585741Y55397254D02*
X63531867Y55289505D01*
X63531867Y55289505D02*
X63397180Y55154818D01*
X61996435Y92931569D02*
X61915623Y92904632D01*
X61915623Y92904632D02*
X61834811Y92823820D01*
X61834811Y92823820D02*
X61780936Y92716070D01*
X61780936Y92716070D02*
X61780936Y92608320D01*
X61780936Y92608320D02*
X61807873Y92527508D01*
X61807873Y92527508D02*
X61888685Y92392821D01*
X61888685Y92392821D02*
X61969498Y92312009D01*
X61969498Y92312009D02*
X62104185Y92231197D01*
X62104185Y92231197D02*
X62184997Y92204259D01*
X62184997Y92204259D02*
X62292746Y92204259D01*
X62292746Y92204259D02*
X62400496Y92258134D01*
X62400496Y92258134D02*
X62454371Y92312009D01*
X62454371Y92312009D02*
X62508246Y92419759D01*
X62508246Y92419759D02*
X62508246Y92473633D01*
X62508246Y92473633D02*
X62319684Y92662195D01*
X62319684Y92662195D02*
X62211934Y92554446D01*
X62804557Y92662195D02*
X62238872Y93227881D01*
X62238872Y93227881D02*
X63127806Y92985444D01*
X63127806Y92985444D02*
X62562120Y93551129D01*
X63397180Y93254818D02*
X62831494Y93820503D01*
X62831494Y93820503D02*
X62966181Y93955190D01*
X62966181Y93955190D02*
X63073931Y94009065D01*
X63073931Y94009065D02*
X63181680Y94009065D01*
X63181680Y94009065D02*
X63262493Y93982128D01*
X63262493Y93982128D02*
X63397180Y93901315D01*
X63397180Y93901315D02*
X63477992Y93820503D01*
X63477992Y93820503D02*
X63558804Y93685816D01*
X63558804Y93685816D02*
X63585741Y93605004D01*
X63585741Y93605004D02*
X63585741Y93497254D01*
X63585741Y93497254D02*
X63531867Y93389505D01*
X63531867Y93389505D02*
X63397180Y93254818D01*
X61832407Y90071416D02*
X62182593Y90421602D01*
X62182593Y90421602D02*
X62209531Y90017541D01*
X62209531Y90017541D02*
X62290343Y90098354D01*
X62290343Y90098354D02*
X62371155Y90125291D01*
X62371155Y90125291D02*
X62425030Y90125291D01*
X62425030Y90125291D02*
X62505842Y90098354D01*
X62505842Y90098354D02*
X62640529Y89963667D01*
X62640529Y89963667D02*
X62667467Y89882854D01*
X62667467Y89882854D02*
X62667467Y89828980D01*
X62667467Y89828980D02*
X62640529Y89748167D01*
X62640529Y89748167D02*
X62478905Y89586543D01*
X62478905Y89586543D02*
X62398093Y89559606D01*
X62398093Y89559606D02*
X62344218Y89559606D01*
X62344218Y90583227D02*
X63098465Y90206103D01*
X63098465Y90206103D02*
X62721342Y90960351D01*
X62856028Y91095037D02*
X63206215Y91445224D01*
X63206215Y91445224D02*
X63233152Y91041163D01*
X63233152Y91041163D02*
X63313964Y91121975D01*
X63313964Y91121975D02*
X63394776Y91148912D01*
X63394776Y91148912D02*
X63448651Y91148912D01*
X63448651Y91148912D02*
X63529464Y91121975D01*
X63529464Y91121975D02*
X63664151Y90987288D01*
X63664151Y90987288D02*
X63691088Y90906476D01*
X63691088Y90906476D02*
X63691088Y90852601D01*
X63691088Y90852601D02*
X63664151Y90771789D01*
X63664151Y90771789D02*
X63502526Y90610164D01*
X63502526Y90610164D02*
X63421714Y90583227D01*
X63421714Y90583227D02*
X63367839Y90583227D01*
X63933525Y90933413D02*
X64364523Y91364412D01*
X64149024Y91849285D02*
X64337586Y92037847D01*
X64714709Y91822348D02*
X64445335Y91552974D01*
X64445335Y91552974D02*
X63879650Y92118659D01*
X63879650Y92118659D02*
X64149024Y92388033D01*
X64957146Y92064785D02*
X64391461Y92630470D01*
X64391461Y92630470D02*
X65280395Y92388033D01*
X65280395Y92388033D02*
X64714710Y92953719D01*
X62007998Y69829132D02*
X61927185Y69802195D01*
X61927185Y69802195D02*
X61846373Y69721382D01*
X61846373Y69721382D02*
X61792498Y69613633D01*
X61792498Y69613633D02*
X61792498Y69505883D01*
X61792498Y69505883D02*
X61819436Y69425071D01*
X61819436Y69425071D02*
X61900248Y69290384D01*
X61900248Y69290384D02*
X61981060Y69209572D01*
X61981060Y69209572D02*
X62115747Y69128759D01*
X62115747Y69128759D02*
X62196560Y69101822D01*
X62196560Y69101822D02*
X62304309Y69101822D01*
X62304309Y69101822D02*
X62412059Y69155697D01*
X62412059Y69155697D02*
X62465934Y69209572D01*
X62465934Y69209572D02*
X62519808Y69317321D01*
X62519808Y69317321D02*
X62519808Y69371196D01*
X62519808Y69371196D02*
X62331247Y69559758D01*
X62331247Y69559758D02*
X62223497Y69452008D01*
X62816120Y69559758D02*
X62250434Y70125443D01*
X62250434Y70125443D02*
X62465934Y70340943D01*
X62465934Y70340943D02*
X62546746Y70367880D01*
X62546746Y70367880D02*
X62600621Y70367880D01*
X62600621Y70367880D02*
X62681433Y70340943D01*
X62681433Y70340943D02*
X62762245Y70260130D01*
X62762245Y70260130D02*
X62789182Y70179318D01*
X62789182Y70179318D02*
X62789182Y70125443D01*
X62789182Y70125443D02*
X62762245Y70044631D01*
X62762245Y70044631D02*
X62546746Y69829132D01*
X62843057Y70610317D02*
X62843057Y70664191D01*
X62843057Y70664191D02*
X62869995Y70745004D01*
X62869995Y70745004D02*
X63004682Y70879691D01*
X63004682Y70879691D02*
X63085494Y70906628D01*
X63085494Y70906628D02*
X63139369Y70906628D01*
X63139369Y70906628D02*
X63220181Y70879691D01*
X63220181Y70879691D02*
X63274056Y70825816D01*
X63274056Y70825816D02*
X63327930Y70718066D01*
X63327930Y70718066D02*
X63327930Y70071569D01*
X63327930Y70071569D02*
X63678117Y70421755D01*
X63381805Y71149065D02*
X63381805Y71202940D01*
X63381805Y71202940D02*
X63408743Y71283752D01*
X63408743Y71283752D02*
X63543430Y71418439D01*
X63543430Y71418439D02*
X63624242Y71445376D01*
X63624242Y71445376D02*
X63678117Y71445376D01*
X63678117Y71445376D02*
X63758929Y71418439D01*
X63758929Y71418439D02*
X63812804Y71364564D01*
X63812804Y71364564D02*
X63866679Y71256814D01*
X63866679Y71256814D02*
X63866679Y70610317D01*
X63866679Y70610317D02*
X64216865Y70960503D01*
X35899998Y57129132D02*
X35819185Y57102195D01*
X35819185Y57102195D02*
X35738373Y57021382D01*
X35738373Y57021382D02*
X35684498Y56913633D01*
X35684498Y56913633D02*
X35684498Y56805883D01*
X35684498Y56805883D02*
X35711436Y56725071D01*
X35711436Y56725071D02*
X35792248Y56590384D01*
X35792248Y56590384D02*
X35873060Y56509572D01*
X35873060Y56509572D02*
X36007747Y56428759D01*
X36007747Y56428759D02*
X36088560Y56401822D01*
X36088560Y56401822D02*
X36196309Y56401822D01*
X36196309Y56401822D02*
X36304059Y56455697D01*
X36304059Y56455697D02*
X36357934Y56509572D01*
X36357934Y56509572D02*
X36411808Y56617321D01*
X36411808Y56617321D02*
X36411808Y56671196D01*
X36411808Y56671196D02*
X36223247Y56859758D01*
X36223247Y56859758D02*
X36115497Y56752008D01*
X36708120Y56859758D02*
X36142434Y57425443D01*
X36142434Y57425443D02*
X36357934Y57640943D01*
X36357934Y57640943D02*
X36438746Y57667880D01*
X36438746Y57667880D02*
X36492621Y57667880D01*
X36492621Y57667880D02*
X36573433Y57640943D01*
X36573433Y57640943D02*
X36654245Y57560130D01*
X36654245Y57560130D02*
X36681182Y57479318D01*
X36681182Y57479318D02*
X36681182Y57425443D01*
X36681182Y57425443D02*
X36654245Y57344631D01*
X36654245Y57344631D02*
X36438746Y57129132D01*
X37570117Y57721755D02*
X37246868Y57398506D01*
X37408492Y57560130D02*
X36842807Y58125816D01*
X36842807Y58125816D02*
X36869744Y57991129D01*
X36869744Y57991129D02*
X36869744Y57883379D01*
X36869744Y57883379D02*
X36842807Y57802567D01*
X37192993Y58476002D02*
X37543179Y58826188D01*
X37543179Y58826188D02*
X37570117Y58422127D01*
X37570117Y58422127D02*
X37650929Y58502940D01*
X37650929Y58502940D02*
X37731741Y58529877D01*
X37731741Y58529877D02*
X37785616Y58529877D01*
X37785616Y58529877D02*
X37866428Y58502940D01*
X37866428Y58502940D02*
X38001115Y58368253D01*
X38001115Y58368253D02*
X38028053Y58287440D01*
X38028053Y58287440D02*
X38028053Y58233566D01*
X38028053Y58233566D02*
X38001115Y58152753D01*
X38001115Y58152753D02*
X37839491Y57991129D01*
X37839491Y57991129D02*
X37758679Y57964192D01*
X37758679Y57964192D02*
X37704804Y57964192D01*
X36423372Y77718506D02*
X36342560Y77691569D01*
X36342560Y77691569D02*
X36261748Y77610757D01*
X36261748Y77610757D02*
X36207873Y77503007D01*
X36207873Y77503007D02*
X36207873Y77395258D01*
X36207873Y77395258D02*
X36234810Y77314445D01*
X36234810Y77314445D02*
X36315623Y77179758D01*
X36315623Y77179758D02*
X36396435Y77098946D01*
X36396435Y77098946D02*
X36531122Y77018134D01*
X36531122Y77018134D02*
X36611934Y76991197D01*
X36611934Y76991197D02*
X36719684Y76991197D01*
X36719684Y76991197D02*
X36827433Y77045071D01*
X36827433Y77045071D02*
X36881308Y77098946D01*
X36881308Y77098946D02*
X36935183Y77206696D01*
X36935183Y77206696D02*
X36935183Y77260571D01*
X36935183Y77260571D02*
X36746621Y77449132D01*
X36746621Y77449132D02*
X36638871Y77341383D01*
X37231494Y77449132D02*
X36665809Y78014818D01*
X36665809Y78014818D02*
X36881308Y78230317D01*
X36881308Y78230317D02*
X36962120Y78257254D01*
X36962120Y78257254D02*
X37015995Y78257254D01*
X37015995Y78257254D02*
X37096807Y78230317D01*
X37096807Y78230317D02*
X37177619Y78149505D01*
X37177619Y78149505D02*
X37204557Y78068693D01*
X37204557Y78068693D02*
X37204557Y78014818D01*
X37204557Y78014818D02*
X37177619Y77934006D01*
X37177619Y77934006D02*
X36962120Y77718506D01*
X37473931Y78822940D02*
X37366181Y78715190D01*
X37366181Y78715190D02*
X37339244Y78634378D01*
X37339244Y78634378D02*
X37339244Y78580503D01*
X37339244Y78580503D02*
X37366181Y78445816D01*
X37366181Y78445816D02*
X37446993Y78311129D01*
X37446993Y78311129D02*
X37662493Y78095630D01*
X37662493Y78095630D02*
X37743305Y78068693D01*
X37743305Y78068693D02*
X37797180Y78068693D01*
X37797180Y78068693D02*
X37877992Y78095630D01*
X37877992Y78095630D02*
X37985741Y78203380D01*
X37985741Y78203380D02*
X38012679Y78284192D01*
X38012679Y78284192D02*
X38012679Y78338067D01*
X38012679Y78338067D02*
X37985741Y78418879D01*
X37985741Y78418879D02*
X37851054Y78553566D01*
X37851054Y78553566D02*
X37770242Y78580503D01*
X37770242Y78580503D02*
X37716367Y78580503D01*
X37716367Y78580503D02*
X37635555Y78553566D01*
X37635555Y78553566D02*
X37527806Y78445816D01*
X37527806Y78445816D02*
X37500868Y78365004D01*
X37500868Y78365004D02*
X37500868Y78311129D01*
X37500868Y78311129D02*
X37527806Y78230317D01*
X62007998Y77439132D02*
X61927185Y77412195D01*
X61927185Y77412195D02*
X61846373Y77331382D01*
X61846373Y77331382D02*
X61792498Y77223633D01*
X61792498Y77223633D02*
X61792498Y77115883D01*
X61792498Y77115883D02*
X61819436Y77035071D01*
X61819436Y77035071D02*
X61900248Y76900384D01*
X61900248Y76900384D02*
X61981060Y76819572D01*
X61981060Y76819572D02*
X62115747Y76738759D01*
X62115747Y76738759D02*
X62196560Y76711822D01*
X62196560Y76711822D02*
X62304309Y76711822D01*
X62304309Y76711822D02*
X62412059Y76765697D01*
X62412059Y76765697D02*
X62465934Y76819572D01*
X62465934Y76819572D02*
X62519808Y76927321D01*
X62519808Y76927321D02*
X62519808Y76981196D01*
X62519808Y76981196D02*
X62331247Y77169758D01*
X62331247Y77169758D02*
X62223497Y77062008D01*
X62816120Y77169758D02*
X62250434Y77735443D01*
X62250434Y77735443D02*
X62465934Y77950943D01*
X62465934Y77950943D02*
X62546746Y77977880D01*
X62546746Y77977880D02*
X62600621Y77977880D01*
X62600621Y77977880D02*
X62681433Y77950943D01*
X62681433Y77950943D02*
X62762245Y77870130D01*
X62762245Y77870130D02*
X62789182Y77789318D01*
X62789182Y77789318D02*
X62789182Y77735443D01*
X62789182Y77735443D02*
X62762245Y77654631D01*
X62762245Y77654631D02*
X62546746Y77439132D01*
X62843057Y78220317D02*
X62843057Y78274191D01*
X62843057Y78274191D02*
X62869995Y78355004D01*
X62869995Y78355004D02*
X63004682Y78489691D01*
X63004682Y78489691D02*
X63085494Y78516628D01*
X63085494Y78516628D02*
X63139369Y78516628D01*
X63139369Y78516628D02*
X63220181Y78489691D01*
X63220181Y78489691D02*
X63274056Y78435816D01*
X63274056Y78435816D02*
X63327930Y78328066D01*
X63327930Y78328066D02*
X63327930Y77681569D01*
X63327930Y77681569D02*
X63678117Y78031755D01*
X63300993Y78786002D02*
X63678117Y79163126D01*
X63678117Y79163126D02*
X64001366Y78355004D01*
X36396435Y80231569D02*
X36315623Y80204632D01*
X36315623Y80204632D02*
X36234811Y80123820D01*
X36234811Y80123820D02*
X36180936Y80016070D01*
X36180936Y80016070D02*
X36180936Y79908320D01*
X36180936Y79908320D02*
X36207873Y79827508D01*
X36207873Y79827508D02*
X36288685Y79692821D01*
X36288685Y79692821D02*
X36369498Y79612009D01*
X36369498Y79612009D02*
X36504185Y79531197D01*
X36504185Y79531197D02*
X36584997Y79504259D01*
X36584997Y79504259D02*
X36692746Y79504259D01*
X36692746Y79504259D02*
X36800496Y79558134D01*
X36800496Y79558134D02*
X36854371Y79612009D01*
X36854371Y79612009D02*
X36908246Y79719759D01*
X36908246Y79719759D02*
X36908246Y79773633D01*
X36908246Y79773633D02*
X36719684Y79962195D01*
X36719684Y79962195D02*
X36611934Y79854446D01*
X37204557Y79962195D02*
X36638872Y80527881D01*
X36638872Y80527881D02*
X37527806Y80285444D01*
X37527806Y80285444D02*
X36962120Y80851129D01*
X37797180Y80554818D02*
X37231494Y81120503D01*
X37231494Y81120503D02*
X37366181Y81255190D01*
X37366181Y81255190D02*
X37473931Y81309065D01*
X37473931Y81309065D02*
X37581680Y81309065D01*
X37581680Y81309065D02*
X37662493Y81282128D01*
X37662493Y81282128D02*
X37797180Y81201315D01*
X37797180Y81201315D02*
X37877992Y81120503D01*
X37877992Y81120503D02*
X37958804Y80985816D01*
X37958804Y80985816D02*
X37985741Y80905004D01*
X37985741Y80905004D02*
X37985741Y80797254D01*
X37985741Y80797254D02*
X37931867Y80689505D01*
X37931867Y80689505D02*
X37797180Y80554818D01*
X36323372Y90418506D02*
X36242560Y90391569D01*
X36242560Y90391569D02*
X36161748Y90310757D01*
X36161748Y90310757D02*
X36107873Y90203007D01*
X36107873Y90203007D02*
X36107873Y90095258D01*
X36107873Y90095258D02*
X36134810Y90014445D01*
X36134810Y90014445D02*
X36215623Y89879758D01*
X36215623Y89879758D02*
X36296435Y89798946D01*
X36296435Y89798946D02*
X36431122Y89718134D01*
X36431122Y89718134D02*
X36511934Y89691197D01*
X36511934Y89691197D02*
X36619684Y89691197D01*
X36619684Y89691197D02*
X36727433Y89745071D01*
X36727433Y89745071D02*
X36781308Y89798946D01*
X36781308Y89798946D02*
X36835183Y89906696D01*
X36835183Y89906696D02*
X36835183Y89960571D01*
X36835183Y89960571D02*
X36646621Y90149132D01*
X36646621Y90149132D02*
X36538871Y90041383D01*
X37131494Y90149132D02*
X36565809Y90714818D01*
X36565809Y90714818D02*
X36781308Y90930317D01*
X36781308Y90930317D02*
X36862120Y90957254D01*
X36862120Y90957254D02*
X36915995Y90957254D01*
X36915995Y90957254D02*
X36996807Y90930317D01*
X36996807Y90930317D02*
X37077619Y90849505D01*
X37077619Y90849505D02*
X37104557Y90768693D01*
X37104557Y90768693D02*
X37104557Y90714818D01*
X37104557Y90714818D02*
X37077619Y90634006D01*
X37077619Y90634006D02*
X36862120Y90418506D01*
X37158432Y91199691D02*
X37158432Y91253566D01*
X37158432Y91253566D02*
X37185369Y91334378D01*
X37185369Y91334378D02*
X37320056Y91469065D01*
X37320056Y91469065D02*
X37400868Y91496002D01*
X37400868Y91496002D02*
X37454743Y91496002D01*
X37454743Y91496002D02*
X37535555Y91469065D01*
X37535555Y91469065D02*
X37589430Y91415190D01*
X37589430Y91415190D02*
X37643305Y91307441D01*
X37643305Y91307441D02*
X37643305Y90660943D01*
X37643305Y90660943D02*
X37993491Y91011129D01*
X62007998Y59669132D02*
X61927185Y59642195D01*
X61927185Y59642195D02*
X61846373Y59561382D01*
X61846373Y59561382D02*
X61792498Y59453633D01*
X61792498Y59453633D02*
X61792498Y59345883D01*
X61792498Y59345883D02*
X61819436Y59265071D01*
X61819436Y59265071D02*
X61900248Y59130384D01*
X61900248Y59130384D02*
X61981060Y59049572D01*
X61981060Y59049572D02*
X62115747Y58968759D01*
X62115747Y58968759D02*
X62196560Y58941822D01*
X62196560Y58941822D02*
X62304309Y58941822D01*
X62304309Y58941822D02*
X62412059Y58995697D01*
X62412059Y58995697D02*
X62465934Y59049572D01*
X62465934Y59049572D02*
X62519808Y59157321D01*
X62519808Y59157321D02*
X62519808Y59211196D01*
X62519808Y59211196D02*
X62331247Y59399758D01*
X62331247Y59399758D02*
X62223497Y59292008D01*
X62816120Y59399758D02*
X62250434Y59965443D01*
X62250434Y59965443D02*
X62465934Y60180943D01*
X62465934Y60180943D02*
X62546746Y60207880D01*
X62546746Y60207880D02*
X62600621Y60207880D01*
X62600621Y60207880D02*
X62681433Y60180943D01*
X62681433Y60180943D02*
X62762245Y60100130D01*
X62762245Y60100130D02*
X62789182Y60019318D01*
X62789182Y60019318D02*
X62789182Y59965443D01*
X62789182Y59965443D02*
X62762245Y59884631D01*
X62762245Y59884631D02*
X62546746Y59669132D01*
X63678117Y60261755D02*
X63354868Y59938506D01*
X63516492Y60100130D02*
X62950807Y60665816D01*
X62950807Y60665816D02*
X62977744Y60531129D01*
X62977744Y60531129D02*
X62977744Y60423379D01*
X62977744Y60423379D02*
X62950807Y60342567D01*
X63947491Y60531129D02*
X64055240Y60638879D01*
X64055240Y60638879D02*
X64082178Y60719691D01*
X64082178Y60719691D02*
X64082178Y60773566D01*
X64082178Y60773566D02*
X64055240Y60908253D01*
X64055240Y60908253D02*
X63974428Y61042940D01*
X63974428Y61042940D02*
X63758929Y61258439D01*
X63758929Y61258439D02*
X63678117Y61285376D01*
X63678117Y61285376D02*
X63624242Y61285376D01*
X63624242Y61285376D02*
X63543430Y61258439D01*
X63543430Y61258439D02*
X63435680Y61150689D01*
X63435680Y61150689D02*
X63408743Y61069877D01*
X63408743Y61069877D02*
X63408743Y61016002D01*
X63408743Y61016002D02*
X63435680Y60935190D01*
X63435680Y60935190D02*
X63570367Y60800503D01*
X63570367Y60800503D02*
X63651179Y60773566D01*
X63651179Y60773566D02*
X63705054Y60773566D01*
X63705054Y60773566D02*
X63785866Y60800503D01*
X63785866Y60800503D02*
X63893616Y60908253D01*
X63893616Y60908253D02*
X63920553Y60989065D01*
X63920553Y60989065D02*
X63920553Y61042940D01*
X63920553Y61042940D02*
X63893616Y61123752D01*
X36423372Y98038506D02*
X36342560Y98011569D01*
X36342560Y98011569D02*
X36261748Y97930757D01*
X36261748Y97930757D02*
X36207873Y97823007D01*
X36207873Y97823007D02*
X36207873Y97715258D01*
X36207873Y97715258D02*
X36234810Y97634445D01*
X36234810Y97634445D02*
X36315623Y97499758D01*
X36315623Y97499758D02*
X36396435Y97418946D01*
X36396435Y97418946D02*
X36531122Y97338134D01*
X36531122Y97338134D02*
X36611934Y97311197D01*
X36611934Y97311197D02*
X36719684Y97311197D01*
X36719684Y97311197D02*
X36827433Y97365071D01*
X36827433Y97365071D02*
X36881308Y97418946D01*
X36881308Y97418946D02*
X36935183Y97526696D01*
X36935183Y97526696D02*
X36935183Y97580571D01*
X36935183Y97580571D02*
X36746621Y97769132D01*
X36746621Y97769132D02*
X36638871Y97661383D01*
X37231494Y97769132D02*
X36665809Y98334818D01*
X36665809Y98334818D02*
X36881308Y98550317D01*
X36881308Y98550317D02*
X36962120Y98577254D01*
X36962120Y98577254D02*
X37015995Y98577254D01*
X37015995Y98577254D02*
X37096807Y98550317D01*
X37096807Y98550317D02*
X37177619Y98469505D01*
X37177619Y98469505D02*
X37204557Y98388693D01*
X37204557Y98388693D02*
X37204557Y98334818D01*
X37204557Y98334818D02*
X37177619Y98254006D01*
X37177619Y98254006D02*
X36962120Y98038506D01*
X37339244Y99008253D02*
X37393119Y99062128D01*
X37393119Y99062128D02*
X37473931Y99089065D01*
X37473931Y99089065D02*
X37527806Y99089065D01*
X37527806Y99089065D02*
X37608618Y99062128D01*
X37608618Y99062128D02*
X37743305Y98981315D01*
X37743305Y98981315D02*
X37877992Y98846628D01*
X37877992Y98846628D02*
X37958804Y98711941D01*
X37958804Y98711941D02*
X37985741Y98631129D01*
X37985741Y98631129D02*
X37985741Y98577254D01*
X37985741Y98577254D02*
X37958804Y98496442D01*
X37958804Y98496442D02*
X37904929Y98442567D01*
X37904929Y98442567D02*
X37824117Y98415630D01*
X37824117Y98415630D02*
X37770242Y98415630D01*
X37770242Y98415630D02*
X37689430Y98442567D01*
X37689430Y98442567D02*
X37554743Y98523380D01*
X37554743Y98523380D02*
X37420056Y98658067D01*
X37420056Y98658067D02*
X37339244Y98792754D01*
X37339244Y98792754D02*
X37312306Y98873566D01*
X37312306Y98873566D02*
X37312306Y98927441D01*
X37312306Y98927441D02*
X37339244Y99008253D01*
X36323372Y95508506D02*
X36242560Y95481569D01*
X36242560Y95481569D02*
X36161748Y95400757D01*
X36161748Y95400757D02*
X36107873Y95293007D01*
X36107873Y95293007D02*
X36107873Y95185258D01*
X36107873Y95185258D02*
X36134810Y95104445D01*
X36134810Y95104445D02*
X36215623Y94969758D01*
X36215623Y94969758D02*
X36296435Y94888946D01*
X36296435Y94888946D02*
X36431122Y94808134D01*
X36431122Y94808134D02*
X36511934Y94781197D01*
X36511934Y94781197D02*
X36619684Y94781197D01*
X36619684Y94781197D02*
X36727433Y94835071D01*
X36727433Y94835071D02*
X36781308Y94888946D01*
X36781308Y94888946D02*
X36835183Y94996696D01*
X36835183Y94996696D02*
X36835183Y95050571D01*
X36835183Y95050571D02*
X36646621Y95239132D01*
X36646621Y95239132D02*
X36538871Y95131383D01*
X37131494Y95239132D02*
X36565809Y95804818D01*
X36565809Y95804818D02*
X36781308Y96020317D01*
X36781308Y96020317D02*
X36862120Y96047254D01*
X36862120Y96047254D02*
X36915995Y96047254D01*
X36915995Y96047254D02*
X36996807Y96020317D01*
X36996807Y96020317D02*
X37077619Y95939505D01*
X37077619Y95939505D02*
X37104557Y95858693D01*
X37104557Y95858693D02*
X37104557Y95804818D01*
X37104557Y95804818D02*
X37077619Y95724006D01*
X37077619Y95724006D02*
X36862120Y95508506D01*
X37993491Y96101129D02*
X37670242Y95777880D01*
X37831867Y95939505D02*
X37266181Y96505190D01*
X37266181Y96505190D02*
X37293119Y96370503D01*
X37293119Y96370503D02*
X37293119Y96262754D01*
X37293119Y96262754D02*
X37266181Y96181941D01*
X12533333Y63840420D02*
X12485714Y63792800D01*
X12485714Y63792800D02*
X12342857Y63745181D01*
X12342857Y63745181D02*
X12247619Y63745181D01*
X12247619Y63745181D02*
X12104762Y63792800D01*
X12104762Y63792800D02*
X12009524Y63888039D01*
X12009524Y63888039D02*
X11961905Y63983277D01*
X11961905Y63983277D02*
X11914286Y64173753D01*
X11914286Y64173753D02*
X11914286Y64316610D01*
X11914286Y64316610D02*
X11961905Y64507086D01*
X11961905Y64507086D02*
X12009524Y64602324D01*
X12009524Y64602324D02*
X12104762Y64697562D01*
X12104762Y64697562D02*
X12247619Y64745181D01*
X12247619Y64745181D02*
X12342857Y64745181D01*
X12342857Y64745181D02*
X12485714Y64697562D01*
X12485714Y64697562D02*
X12533333Y64649943D01*
X12866667Y64745181D02*
X13485714Y64745181D01*
X13485714Y64745181D02*
X13152381Y64364229D01*
X13152381Y64364229D02*
X13295238Y64364229D01*
X13295238Y64364229D02*
X13390476Y64316610D01*
X13390476Y64316610D02*
X13438095Y64268991D01*
X13438095Y64268991D02*
X13485714Y64173753D01*
X13485714Y64173753D02*
X13485714Y63935658D01*
X13485714Y63935658D02*
X13438095Y63840420D01*
X13438095Y63840420D02*
X13390476Y63792800D01*
X13390476Y63792800D02*
X13295238Y63745181D01*
X13295238Y63745181D02*
X13009524Y63745181D01*
X13009524Y63745181D02*
X12914286Y63792800D01*
X12914286Y63792800D02*
X12866667Y63840420D01*
X8208333Y86175181D02*
X7875000Y86651372D01*
X7636905Y86175181D02*
X7636905Y87175181D01*
X7636905Y87175181D02*
X8017857Y87175181D01*
X8017857Y87175181D02*
X8113095Y87127562D01*
X8113095Y87127562D02*
X8160714Y87079943D01*
X8160714Y87079943D02*
X8208333Y86984705D01*
X8208333Y86984705D02*
X8208333Y86841848D01*
X8208333Y86841848D02*
X8160714Y86746610D01*
X8160714Y86746610D02*
X8113095Y86698991D01*
X8113095Y86698991D02*
X8017857Y86651372D01*
X8017857Y86651372D02*
X7636905Y86651372D01*
X9160714Y86175181D02*
X8589286Y86175181D01*
X8875000Y86175181D02*
X8875000Y87175181D01*
X8875000Y87175181D02*
X8779762Y87032324D01*
X8779762Y87032324D02*
X8684524Y86937086D01*
X8684524Y86937086D02*
X8589286Y86889467D01*
X4461905Y28660181D02*
X4461905Y29660181D01*
X4461905Y29660181D02*
X4700000Y29660181D01*
X4700000Y29660181D02*
X4842857Y29612562D01*
X4842857Y29612562D02*
X4938095Y29517324D01*
X4938095Y29517324D02*
X4985714Y29422086D01*
X4985714Y29422086D02*
X5033333Y29231610D01*
X5033333Y29231610D02*
X5033333Y29088753D01*
X5033333Y29088753D02*
X4985714Y28898277D01*
X4985714Y28898277D02*
X4938095Y28803039D01*
X4938095Y28803039D02*
X4842857Y28707800D01*
X4842857Y28707800D02*
X4700000Y28660181D01*
X4700000Y28660181D02*
X4461905Y28660181D01*
X5938095Y29660181D02*
X5461905Y29660181D01*
X5461905Y29660181D02*
X5414286Y29183991D01*
X5414286Y29183991D02*
X5461905Y29231610D01*
X5461905Y29231610D02*
X5557143Y29279229D01*
X5557143Y29279229D02*
X5795238Y29279229D01*
X5795238Y29279229D02*
X5890476Y29231610D01*
X5890476Y29231610D02*
X5938095Y29183991D01*
X5938095Y29183991D02*
X5985714Y29088753D01*
X5985714Y29088753D02*
X5985714Y28850658D01*
X5985714Y28850658D02*
X5938095Y28755420D01*
X5938095Y28755420D02*
X5890476Y28707800D01*
X5890476Y28707800D02*
X5795238Y28660181D01*
X5795238Y28660181D02*
X5557143Y28660181D01*
X5557143Y28660181D02*
X5461905Y28707800D01*
X5461905Y28707800D02*
X5414286Y28755420D01*
X28726905Y4155181D02*
X28726905Y5155181D01*
X28726905Y5155181D02*
X28965000Y5155181D01*
X28965000Y5155181D02*
X29107857Y5107562D01*
X29107857Y5107562D02*
X29203095Y5012324D01*
X29203095Y5012324D02*
X29250714Y4917086D01*
X29250714Y4917086D02*
X29298333Y4726610D01*
X29298333Y4726610D02*
X29298333Y4583753D01*
X29298333Y4583753D02*
X29250714Y4393277D01*
X29250714Y4393277D02*
X29203095Y4298039D01*
X29203095Y4298039D02*
X29107857Y4202800D01*
X29107857Y4202800D02*
X28965000Y4155181D01*
X28965000Y4155181D02*
X28726905Y4155181D01*
X29869762Y4726610D02*
X29774524Y4774229D01*
X29774524Y4774229D02*
X29726905Y4821848D01*
X29726905Y4821848D02*
X29679286Y4917086D01*
X29679286Y4917086D02*
X29679286Y4964705D01*
X29679286Y4964705D02*
X29726905Y5059943D01*
X29726905Y5059943D02*
X29774524Y5107562D01*
X29774524Y5107562D02*
X29869762Y5155181D01*
X29869762Y5155181D02*
X30060238Y5155181D01*
X30060238Y5155181D02*
X30155476Y5107562D01*
X30155476Y5107562D02*
X30203095Y5059943D01*
X30203095Y5059943D02*
X30250714Y4964705D01*
X30250714Y4964705D02*
X30250714Y4917086D01*
X30250714Y4917086D02*
X30203095Y4821848D01*
X30203095Y4821848D02*
X30155476Y4774229D01*
X30155476Y4774229D02*
X30060238Y4726610D01*
X30060238Y4726610D02*
X29869762Y4726610D01*
X29869762Y4726610D02*
X29774524Y4678991D01*
X29774524Y4678991D02*
X29726905Y4631372D01*
X29726905Y4631372D02*
X29679286Y4536134D01*
X29679286Y4536134D02*
X29679286Y4345658D01*
X29679286Y4345658D02*
X29726905Y4250420D01*
X29726905Y4250420D02*
X29774524Y4202800D01*
X29774524Y4202800D02*
X29869762Y4155181D01*
X29869762Y4155181D02*
X30060238Y4155181D01*
X30060238Y4155181D02*
X30155476Y4202800D01*
X30155476Y4202800D02*
X30203095Y4250420D01*
X30203095Y4250420D02*
X30250714Y4345658D01*
X30250714Y4345658D02*
X30250714Y4536134D01*
X30250714Y4536134D02*
X30203095Y4631372D01*
X30203095Y4631372D02*
X30155476Y4678991D01*
X30155476Y4678991D02*
X30060238Y4726610D01*
D11*
%TO.C,D15*%
X97582600Y44932800D02*
X98344600Y44932800D01*
X98344600Y44932800D02*
X98725600Y44424800D01*
X98725500Y40945000D02*
X97582600Y40945000D01*
X98725600Y44424800D02*
X98725500Y40945000D01*
%TO.C,C5*%
X16434420Y61050000D02*
X16715580Y61050000D01*
X16434420Y60030000D02*
X16715580Y60030000D01*
%TO.C,TP3*%
X76962500Y76262500D02*
X78862500Y76262500D01*
X76962500Y74362500D02*
X76962500Y76262500D01*
X78862500Y76262500D02*
X78862500Y74362500D01*
X78862500Y74362500D02*
X76962500Y74362500D01*
%TO.C,D17*%
X97582600Y72212800D02*
X98344600Y72212800D01*
X98344600Y72212800D02*
X98725600Y71704800D01*
X98725500Y68225000D02*
X97582600Y68225000D01*
X98725600Y71704800D02*
X98725500Y68225000D01*
%TO.C,D19*%
X66240000Y96200000D02*
X66240000Y95000000D01*
X68200000Y96200000D02*
X66240000Y96200000D01*
X68200000Y95000000D02*
X66240000Y95000000D01*
%TO.C,C1*%
X83461252Y83735000D02*
X82938748Y83735000D01*
X83461252Y82265000D02*
X82938748Y82265000D01*
%TO.C,D16*%
X97582600Y58572800D02*
X98344600Y58572800D01*
X98344600Y58572800D02*
X98725600Y58064800D01*
X98725500Y54585000D02*
X97582600Y54585000D01*
X98725600Y58064800D02*
X98725500Y54585000D01*
%TO.C,D18*%
X97582600Y85852800D02*
X98344600Y85852800D01*
X98344600Y85852800D02*
X98725600Y85344800D01*
X98725500Y81865000D02*
X97582600Y81865000D01*
X98725600Y85344800D02*
X98725500Y81865000D01*
%TO.C,D7*%
X13840000Y1374500D02*
X13840000Y2517400D01*
X17319800Y1374400D02*
X13840000Y1374500D01*
X17827800Y2517400D02*
X17827800Y1755400D01*
X17827800Y1755400D02*
X17319800Y1374400D01*
%TO.C,J2*%
X35950000Y28950000D02*
X35950000Y27210000D01*
X35950000Y23150000D02*
X35950000Y24490000D01*
X37440000Y23150000D02*
X35950000Y23150000D01*
X62760000Y23150000D02*
X62760000Y21950000D01*
X62760000Y23150000D02*
X64250000Y23150000D01*
X64250000Y28950000D02*
X35950000Y28950000D01*
X64250000Y27210000D02*
X64250000Y28950000D01*
X64250000Y23150000D02*
X64250000Y24490000D01*
%TO.C,R3*%
X22427500Y66302258D02*
X22427500Y65827742D01*
X23472500Y66302258D02*
X23472500Y65827742D01*
%TO.C,D6*%
X1374400Y13980200D02*
X1374500Y17460000D01*
X1374500Y17460000D02*
X2517400Y17460000D01*
X1755400Y13472200D02*
X1374400Y13980200D01*
X2517400Y13472200D02*
X1755400Y13472200D01*
%TO.C,D3*%
X1374400Y54900200D02*
X1374500Y58380000D01*
X1374500Y58380000D02*
X2517400Y58380000D01*
X1755400Y54392200D02*
X1374400Y54900200D01*
X2517400Y54392200D02*
X1755400Y54392200D01*
%TO.C,D11*%
X68400000Y1374500D02*
X68400000Y2517400D01*
X71879800Y1374400D02*
X68400000Y1374500D01*
X72387800Y2517400D02*
X72387800Y1755400D01*
X72387800Y1755400D02*
X71879800Y1374400D01*
%TO.C,SW1*%
X71800000Y99600000D02*
X73500000Y99600000D01*
X71800000Y95800000D02*
X71800000Y99600000D01*
X73200000Y95800000D02*
X71800000Y95800000D01*
X73500000Y99900000D02*
X74300000Y99900000D01*
X73500000Y99600000D02*
X73500000Y99900000D01*
X74300000Y99900000D02*
X74300000Y99600000D01*
X74300000Y99600000D02*
X76000000Y99600000D01*
X74400000Y101500000D02*
X74400000Y101000000D01*
X74400000Y101500000D02*
X74900000Y101500000D01*
X74400000Y101000000D02*
X74400000Y101000000D01*
X74400000Y100700000D02*
X74400000Y100200000D01*
X74400000Y100200000D02*
X74400000Y100200000D01*
X74600000Y95800000D02*
X75700000Y95800000D01*
X74900000Y101500000D02*
X74900000Y101500000D01*
X75200000Y101500000D02*
X75700000Y101500000D01*
X75700000Y101500000D02*
X75700000Y101500000D01*
X75700000Y95800000D02*
X75700000Y95800000D01*
X76000000Y101500000D02*
X76800000Y101500000D01*
X76000000Y99900000D02*
X76800000Y99900000D01*
X76000000Y99600000D02*
X76000000Y99900000D01*
X76800000Y101500000D02*
X76800000Y101500000D01*
X76800000Y99900000D02*
X76800000Y99600000D01*
X76800000Y99600000D02*
X78500000Y99600000D01*
X77100000Y101500000D02*
X77100000Y101500000D01*
X77100000Y95800000D02*
X78200000Y95800000D01*
X77600000Y101500000D02*
X77100000Y101500000D01*
X77900000Y101500000D02*
X77900000Y101500000D01*
X78200000Y95800000D02*
X78200000Y95800000D01*
X78400000Y101500000D02*
X77900000Y101500000D01*
X78400000Y101500000D02*
X78400000Y101000000D01*
X78400000Y101000000D02*
X78400000Y101000000D01*
X78400000Y100700000D02*
X78400000Y100200000D01*
X78400000Y100200000D02*
X78400000Y100200000D01*
X78500000Y99900000D02*
X79300000Y99900000D01*
X78500000Y99600000D02*
X78500000Y99900000D01*
X79300000Y99900000D02*
X79300000Y99600000D01*
X79300000Y99600000D02*
X81000000Y99600000D01*
X81000000Y99600000D02*
X81000000Y99600000D01*
X81000000Y99600000D02*
X81000000Y95800000D01*
X81000000Y95800000D02*
X79600000Y95800000D01*
%TO.C,D4*%
X1374400Y41260200D02*
X1374500Y44740000D01*
X1374500Y44740000D02*
X2517400Y44740000D01*
X1755400Y40752200D02*
X1374400Y41260200D01*
X2517400Y40752200D02*
X1755400Y40752200D01*
%TO.C,R2*%
X61137742Y20022500D02*
X61612258Y20022500D01*
X61137742Y18977500D02*
X61612258Y18977500D01*
%TO.C,D10*%
X54760000Y1374500D02*
X54760000Y2517400D01*
X58239800Y1374400D02*
X54760000Y1374500D01*
X58747800Y2517400D02*
X58747800Y1755400D01*
X58747800Y1755400D02*
X58239800Y1374400D01*
%TO.C,L1*%
X85090000Y86586252D02*
X85090000Y86063748D01*
X87310000Y86586252D02*
X87310000Y86063748D01*
%TO.C,D12*%
X82040000Y1374500D02*
X82040000Y2517400D01*
X85519800Y1374400D02*
X82040000Y1374500D01*
X86027800Y2517400D02*
X86027800Y1755400D01*
X86027800Y1755400D02*
X85519800Y1374400D01*
D10*
%TO.C,REF\u002A\u002A*%
X76870000Y51463848D02*
X76870000Y60473848D01*
X91870000Y60473848D02*
X91870000Y51463848D01*
X76870000Y60473848D02*
G75*
G02*
X91870000Y60473848I7500000J0D01*
G01*
X91870000Y51463848D02*
G75*
G02*
X76870000Y51463848I-7500000J0D01*
G01*
D12*
%TO.C,U2*%
X15320000Y67750000D02*
X15320000Y66620000D01*
X15320000Y65120000D02*
X15320000Y63990000D01*
X20040000Y67750000D02*
X15320000Y67750000D01*
X20040000Y67750000D02*
X20040000Y63990000D01*
X20040000Y63990000D02*
X15320000Y63990000D01*
D13*
X19650000Y68270000D02*
G75*
G02*
X19450000Y68270000I-100000J0D01*
G01*
X19450000Y68270000D02*
G75*
G02*
X19650000Y68270000I100000J0D01*
G01*
D11*
%TO.C,C4*%
X41684420Y20010000D02*
X41965580Y20010000D01*
X41684420Y18990000D02*
X41965580Y18990000D01*
%TO.C,C2*%
X81584420Y89910000D02*
X81865580Y89910000D01*
X81584420Y88890000D02*
X81865580Y88890000D01*
%TO.C,D9*%
X41120000Y1374500D02*
X41120000Y2517400D01*
X44599800Y1374400D02*
X41120000Y1374500D01*
X45107800Y2517400D02*
X45107800Y1755400D01*
X45107800Y1755400D02*
X44599800Y1374400D01*
%TO.C,D14*%
X97582600Y31292800D02*
X98344600Y31292800D01*
X98344600Y31292800D02*
X98725600Y30784800D01*
X98725500Y27305000D02*
X97582600Y27305000D01*
X98725600Y30784800D02*
X98725500Y27305000D01*
%TO.C,D1*%
X1374400Y82180200D02*
X1374500Y85660000D01*
X1374500Y85660000D02*
X2517400Y85660000D01*
X1755400Y81672200D02*
X1374400Y82180200D01*
X2517400Y81672200D02*
X1755400Y81672200D01*
%TO.C,R4*%
X81624758Y71835000D02*
X81150242Y71835000D01*
X81624758Y70790000D02*
X81150242Y70790000D01*
%TO.C,U1*%
X82362500Y87910000D02*
X81562500Y87910000D01*
X82362500Y87910000D02*
X83162500Y87910000D01*
X82362500Y84790000D02*
X81562500Y84790000D01*
X82362500Y84790000D02*
X83162500Y84790000D01*
X81062500Y87860000D02*
X80822500Y88190000D01*
X81302500Y88190000D01*
X81062500Y87860000D01*
G36*
X81062500Y87860000D02*
G01*
X80822500Y88190000D01*
X81302500Y88190000D01*
X81062500Y87860000D01*
G37*
%TO.C,TP4*%
X87962500Y76662500D02*
X89862500Y76662500D01*
X87962500Y74762500D02*
X87962500Y76662500D01*
X89862500Y76662500D02*
X89862500Y74762500D01*
X89862500Y74762500D02*
X87962500Y74762500D01*
%TO.C,D13*%
X97582600Y17652800D02*
X98344600Y17652800D01*
X98344600Y17652800D02*
X98725600Y17144800D01*
X98725500Y13665000D02*
X97582600Y13665000D01*
X98725600Y17144800D02*
X98725500Y13665000D01*
%TO.C,TP5*%
X87962500Y72762500D02*
X89862500Y72762500D01*
X87962500Y70862500D02*
X87962500Y72762500D01*
X89862500Y72762500D02*
X89862500Y70862500D01*
X89862500Y70862500D02*
X87962500Y70862500D01*
%TO.C,U4*%
X81752500Y76185000D02*
X81752500Y76420000D01*
X81752500Y73440000D02*
X81752500Y73915000D01*
X82227500Y76660000D02*
X82052500Y76660000D01*
X82227500Y73440000D02*
X81752500Y73440000D01*
X84497500Y76660000D02*
X84972500Y76660000D01*
X84497500Y73440000D02*
X84972500Y73440000D01*
X84972500Y76660000D02*
X84972500Y76185000D01*
X84972500Y73440000D02*
X84972500Y73915000D01*
X81752500Y76660000D02*
X81512500Y76990000D01*
X81992500Y76990000D01*
X81752500Y76660000D01*
G36*
X81752500Y76660000D02*
G01*
X81512500Y76990000D01*
X81992500Y76990000D01*
X81752500Y76660000D01*
G37*
%TO.C,C6*%
X41684420Y18410000D02*
X41965580Y18410000D01*
X41684420Y17390000D02*
X41965580Y17390000D01*
%TO.C,D2*%
X1374400Y68540200D02*
X1374500Y72020000D01*
X1374500Y72020000D02*
X2517400Y72020000D01*
X1755400Y68032200D02*
X1374400Y68540200D01*
X2517400Y68032200D02*
X1755400Y68032200D01*
%TO.C,U3*%
X39410000Y99530000D02*
X39410000Y99230000D01*
X39410000Y99530000D02*
X60410000Y99530000D01*
X39410000Y97130000D02*
X39410000Y96730000D01*
X39410000Y96863000D02*
X42417000Y96863000D01*
X39410000Y94530000D02*
X39410000Y94130000D01*
X39410000Y92030000D02*
X39410000Y91630000D01*
X39410000Y89430000D02*
X39410000Y89030000D01*
X39410000Y86930000D02*
X39410000Y86530000D01*
X39410000Y84430000D02*
X39410000Y84030000D01*
X39410000Y81830000D02*
X39410000Y81430000D01*
X39410000Y79330000D02*
X39410000Y78930000D01*
X39410000Y76730000D02*
X39410000Y76330000D01*
X39410000Y74230000D02*
X39410000Y73830000D01*
X39410000Y71730000D02*
X39410000Y71330000D01*
X39410000Y69130000D02*
X39410000Y68730000D01*
X39410000Y66630000D02*
X39410000Y66230000D01*
X39410000Y64030000D02*
X39410000Y63630000D01*
X39410000Y61530000D02*
X39410000Y61130000D01*
X39410000Y58930000D02*
X39410000Y58530000D01*
X39410000Y56430000D02*
X39410000Y56030000D01*
X39410000Y53930000D02*
X39410000Y53530000D01*
X39410000Y51330000D02*
X39410000Y50930000D01*
X42417000Y96863000D02*
X42417000Y99530000D01*
X46210000Y48530000D02*
X39410000Y48530000D01*
X48410000Y48530000D02*
X48810000Y48530000D01*
X51010000Y48530000D02*
X51410000Y48530000D01*
X60410000Y99530000D02*
X60410000Y99230000D01*
X60410000Y97130000D02*
X60410000Y96730000D01*
X60410000Y94530000D02*
X60410000Y94130000D01*
X60410000Y92030000D02*
X60410000Y91630000D01*
X60410000Y89430000D02*
X60410000Y89030000D01*
X60410000Y86930000D02*
X60410000Y86530000D01*
X60410000Y84430000D02*
X60410000Y84030000D01*
X60410000Y81830000D02*
X60410000Y81430000D01*
X60410000Y79330000D02*
X60410000Y78930000D01*
X60410000Y76730000D02*
X60410000Y76330000D01*
X60410000Y74230000D02*
X60410000Y73830000D01*
X60410000Y71730000D02*
X60410000Y71330000D01*
X60410000Y69130000D02*
X60410000Y68730000D01*
X60410000Y66630000D02*
X60410000Y66230000D01*
X60410000Y64030000D02*
X60410000Y63630000D01*
X60410000Y61530000D02*
X60410000Y61130000D01*
X60410000Y58930000D02*
X60410000Y58530000D01*
X60410000Y56430000D02*
X60410000Y56030000D01*
X60410000Y53930000D02*
X60410000Y53530000D01*
X60410000Y51330000D02*
X60410000Y50930000D01*
X60410000Y48530000D02*
X53610000Y48530000D01*
%TO.C,C3*%
X12240000Y66324420D02*
X12240000Y66605580D01*
X13260000Y66324420D02*
X13260000Y66605580D01*
%TO.C,R1*%
X8137742Y85722500D02*
X8612258Y85722500D01*
X8137742Y84677500D02*
X8612258Y84677500D01*
%TO.C,D5*%
X1374400Y27620200D02*
X1374500Y31100000D01*
X1374500Y31100000D02*
X2517400Y31100000D01*
X1755400Y27112200D02*
X1374400Y27620200D01*
X2517400Y27112200D02*
X1755400Y27112200D01*
%TO.C,D8*%
X27480000Y1374500D02*
X27480000Y2517400D01*
X30959800Y1374400D02*
X27480000Y1374500D01*
X31467800Y2517400D02*
X31467800Y1755400D01*
X31467800Y1755400D02*
X30959800Y1374400D01*
%TD*%
%LPC*%
D14*
%TO.C,U2*%
X16830000Y65870000D02*
G75*
G02*
X15950000Y65870000I-440000J0D01*
G01*
X15950000Y65870000D02*
G75*
G02*
X16830000Y65870000I440000J0D01*
G01*
%TD*%
D15*
%TO.C,FID3*%
X9800000Y9100000D03*
%TD*%
D16*
%TO.C,D15*%
X97100000Y41375000D03*
D17*
X97100000Y42500000D03*
D18*
X97100000Y43525000D03*
D19*
X97100000Y44525000D03*
%TD*%
D20*
%TO.C,C5*%
X15800000Y60540000D03*
X17350000Y60540000D03*
%TD*%
D21*
%TO.C,J1*%
X28030000Y93600000D03*
X20050000Y93600000D03*
D22*
X20900000Y83100000D03*
X22000000Y83100000D03*
X23100000Y83100000D03*
X24200000Y83100000D03*
X25300000Y83100000D03*
X26400000Y83100000D03*
X27500000Y83100000D03*
X28600000Y83100000D03*
X29700000Y83100000D03*
D23*
X30850000Y83600000D03*
D24*
X30850000Y93200000D03*
D25*
X16250000Y83600000D03*
D24*
X15350000Y93200000D03*
%TD*%
D26*
%TO.C,TP3*%
X77912500Y75312500D03*
%TD*%
D16*
%TO.C,D17*%
X97100000Y68655000D03*
D17*
X97100000Y69780000D03*
D18*
X97100000Y70805000D03*
D19*
X97100000Y71805000D03*
%TD*%
D27*
%TO.C,D19*%
X66800000Y95600000D03*
X68200000Y95600000D03*
%TD*%
D28*
%TO.C,C1*%
X84150000Y83000000D03*
X82250000Y83000000D03*
%TD*%
D16*
%TO.C,D16*%
X97100000Y55015000D03*
D17*
X97100000Y56140000D03*
D18*
X97100000Y57165000D03*
D19*
X97100000Y58165000D03*
%TD*%
D16*
%TO.C,D18*%
X97100000Y82295000D03*
D17*
X97100000Y83420000D03*
D18*
X97100000Y84445000D03*
D19*
X97100000Y85445000D03*
%TD*%
D29*
%TO.C,D7*%
X14270000Y3000000D03*
D22*
X15395000Y3000000D03*
D30*
X16420000Y3000000D03*
D31*
X17420000Y3000000D03*
%TD*%
D32*
%TO.C,J2*%
X62350000Y22600000D03*
X61850000Y22600000D03*
X61350000Y22600000D03*
X60850000Y22600000D03*
X60350000Y22600000D03*
X59850000Y22600000D03*
X59350000Y22600000D03*
X58850000Y22600000D03*
X58350000Y22600000D03*
X57850000Y22600000D03*
X57350000Y22600000D03*
X56850000Y22600000D03*
X56350000Y22600000D03*
X55850000Y22600000D03*
X55350000Y22600000D03*
X54850000Y22600000D03*
X54350000Y22600000D03*
X53850000Y22600000D03*
X53350000Y22600000D03*
X52850000Y22600000D03*
X52350000Y22600000D03*
X51850000Y22600000D03*
X51350000Y22600000D03*
X50850000Y22600000D03*
X50350000Y22600000D03*
X49850000Y22600000D03*
X49350000Y22600000D03*
X48850000Y22600000D03*
X48350000Y22600000D03*
X47850000Y22600000D03*
X47350000Y22600000D03*
X46850000Y22600000D03*
X46350000Y22600000D03*
X45850000Y22600000D03*
X45350000Y22600000D03*
X44850000Y22600000D03*
X44350000Y22600000D03*
X43850000Y22600000D03*
X43350000Y22600000D03*
X42850000Y22600000D03*
X42350000Y22600000D03*
X41850000Y22600000D03*
X41350000Y22600000D03*
X40850000Y22600000D03*
X40350000Y22600000D03*
X39850000Y22600000D03*
X39350000Y22600000D03*
X38850000Y22600000D03*
X38350000Y22600000D03*
X37850000Y22600000D03*
D33*
X64250000Y25850000D03*
X35950000Y25850000D03*
%TD*%
D34*
%TO.C,R3*%
X22950000Y66890000D03*
X22950000Y65240000D03*
%TD*%
D35*
%TO.C,D6*%
X3000000Y17030000D03*
D17*
X3000000Y15905000D03*
D18*
X3000000Y14880000D03*
D36*
X3000000Y13880000D03*
%TD*%
D35*
%TO.C,D3*%
X3000000Y57950000D03*
D17*
X3000000Y56825000D03*
D18*
X3000000Y55800000D03*
D36*
X3000000Y54800000D03*
%TD*%
D29*
%TO.C,D11*%
X68830000Y3000000D03*
D22*
X69955000Y3000000D03*
D30*
X70980000Y3000000D03*
D31*
X71980000Y3000000D03*
%TD*%
D37*
%TO.C,SW1*%
X79800000Y97700000D03*
X73000000Y97700000D03*
D38*
X78900000Y94950000D03*
X76400000Y94950000D03*
X73900000Y94950000D03*
%TD*%
D15*
%TO.C,FID4*%
X90500000Y9100000D03*
%TD*%
D35*
%TO.C,D4*%
X3000000Y44310000D03*
D17*
X3000000Y43185000D03*
D18*
X3000000Y42160000D03*
D36*
X3000000Y41160000D03*
%TD*%
D39*
%TO.C,SW2*%
X69400000Y27400000D03*
X80600000Y27400000D03*
D40*
X72500000Y19900000D03*
X77500000Y19900000D03*
X75000000Y19900000D03*
X72500000Y34400000D03*
X77500000Y34400000D03*
%TD*%
D41*
%TO.C,R2*%
X60550000Y19500000D03*
X62200000Y19500000D03*
%TD*%
D15*
%TO.C,FID1*%
X10100000Y91400000D03*
%TD*%
D29*
%TO.C,D10*%
X55190000Y3000000D03*
D22*
X56315000Y3000000D03*
D30*
X57340000Y3000000D03*
D31*
X58340000Y3000000D03*
%TD*%
D42*
%TO.C,L1*%
X86200000Y87400000D03*
X86200000Y85250000D03*
%TD*%
D29*
%TO.C,D12*%
X82470000Y3000000D03*
D22*
X83595000Y3000000D03*
D30*
X84620000Y3000000D03*
D31*
X85620000Y3000000D03*
%TD*%
D43*
%TO.C,REF\u002A\u002A*%
X81400000Y50807696D03*
X87400000Y50807696D03*
X84400000Y52003848D03*
X82400000Y52539746D03*
X86400000Y52539746D03*
X79203848Y53003848D03*
X89596152Y53003848D03*
X80935898Y54003848D03*
X87864102Y54003848D03*
X83400000Y54271797D03*
X85400000Y54271797D03*
X80400000Y56003848D03*
X82400000Y56003848D03*
X84400000Y56003848D03*
X86400000Y56003848D03*
X88400000Y56003848D03*
X83400000Y57735899D03*
X85400000Y57735899D03*
X80935898Y58003848D03*
X87864102Y58003848D03*
X79203848Y59003848D03*
X89596152Y59003848D03*
X82400000Y59467950D03*
X86400000Y59467950D03*
X84400000Y60003848D03*
X81400000Y61200000D03*
X87400000Y61200000D03*
%TD*%
D44*
%TO.C,U2*%
X16390000Y65870000D03*
D45*
X19550000Y67200000D03*
X18500000Y67200000D03*
X17450000Y67200000D03*
X16400000Y67200000D03*
X16400000Y64540000D03*
X17450000Y64540000D03*
X18500000Y64540000D03*
X19550000Y64540000D03*
%TD*%
D20*
%TO.C,C4*%
X41050000Y19500000D03*
X42600000Y19500000D03*
%TD*%
%TO.C,C2*%
X80950000Y89400000D03*
X82500000Y89400000D03*
%TD*%
D29*
%TO.C,D9*%
X41550000Y3000000D03*
D22*
X42675000Y3000000D03*
D30*
X43700000Y3000000D03*
D31*
X44700000Y3000000D03*
%TD*%
D16*
%TO.C,D14*%
X97100000Y27735000D03*
D17*
X97100000Y28860000D03*
D18*
X97100000Y29885000D03*
D19*
X97100000Y30885000D03*
%TD*%
D35*
%TO.C,D1*%
X3000000Y85230000D03*
D17*
X3000000Y84105000D03*
D18*
X3000000Y83080000D03*
D36*
X3000000Y82080000D03*
%TD*%
D46*
%TO.C,R4*%
X82212500Y71312500D03*
X80562500Y71312500D03*
%TD*%
D47*
%TO.C,U1*%
X81225000Y87300000D03*
X81225000Y86350000D03*
X81225000Y85400000D03*
X83500000Y85400000D03*
X83500000Y87300000D03*
%TD*%
D26*
%TO.C,TP4*%
X88912500Y75712500D03*
%TD*%
D16*
%TO.C,D13*%
X97100000Y14095000D03*
D17*
X97100000Y15220000D03*
D18*
X97100000Y16245000D03*
D19*
X97100000Y17245000D03*
%TD*%
D26*
%TO.C,TP5*%
X88912500Y71812500D03*
%TD*%
D48*
%TO.C,U4*%
X81925000Y75800000D03*
X81925000Y75300000D03*
X81925000Y74800000D03*
X81925000Y74300000D03*
D49*
X82612500Y73612500D03*
X83112500Y73612500D03*
X83612500Y73612500D03*
X84112500Y73612500D03*
D48*
X84800000Y74300000D03*
X84800000Y74800000D03*
X84800000Y75300000D03*
X84800000Y75800000D03*
D49*
X84112500Y76487500D03*
X83612500Y76487500D03*
X83112500Y76487500D03*
X82612500Y76487500D03*
D50*
X83362500Y75050000D03*
%TD*%
D15*
%TO.C,FID2*%
X90100000Y91300000D03*
%TD*%
D20*
%TO.C,C6*%
X41050000Y17900000D03*
X42600000Y17900000D03*
%TD*%
D35*
%TO.C,D2*%
X3000000Y71590000D03*
D17*
X3000000Y70465000D03*
D18*
X3000000Y69440000D03*
D36*
X3000000Y68440000D03*
%TD*%
D51*
%TO.C,U3*%
X47185000Y98030000D03*
D52*
X47485000Y95000000D03*
X52335000Y95000000D03*
D51*
X52635000Y98030000D03*
D53*
X40120000Y98160000D03*
X40120000Y95620000D03*
X40120000Y93080000D03*
X40120000Y90540000D03*
X40120000Y88000000D03*
X40120000Y85460000D03*
X40120000Y82920000D03*
X40120000Y80380000D03*
X40120000Y77840000D03*
X40120000Y75300000D03*
X40120000Y72760000D03*
X40120000Y70220000D03*
X40120000Y67680000D03*
X40120000Y65140000D03*
X40120000Y62600000D03*
X40120000Y60060000D03*
X40120000Y57520000D03*
X40120000Y54980000D03*
X40120000Y52440000D03*
X40120000Y49900000D03*
X59700000Y49900000D03*
X59700000Y52440000D03*
X59700000Y54980000D03*
X59700000Y57520000D03*
X59700000Y60060000D03*
X59700000Y62600000D03*
X59700000Y65140000D03*
X59700000Y67680000D03*
X59700000Y70220000D03*
X59700000Y72760000D03*
X59700000Y75300000D03*
X59700000Y77840000D03*
X59700000Y80380000D03*
X59700000Y82920000D03*
X59700000Y85460000D03*
X59700000Y88000000D03*
X59700000Y90540000D03*
X59700000Y93080000D03*
X59700000Y95620000D03*
X59700000Y98160000D03*
D54*
X47370000Y49230000D03*
X49910000Y49230000D03*
X52450000Y49230000D03*
%TD*%
D55*
%TO.C,C3*%
X12750000Y65690000D03*
X12750000Y67240000D03*
%TD*%
D41*
%TO.C,R1*%
X7550000Y85200000D03*
X9200000Y85200000D03*
%TD*%
D35*
%TO.C,D5*%
X3000000Y30670000D03*
D17*
X3000000Y29545000D03*
D18*
X3000000Y28520000D03*
D36*
X3000000Y27520000D03*
%TD*%
D29*
%TO.C,D8*%
X27910000Y3000000D03*
D22*
X29035000Y3000000D03*
D30*
X30060000Y3000000D03*
D31*
X31060000Y3000000D03*
%TD*%
D56*
%TO.C,H4*%
X7400000Y5000000D03*
X6697056Y3302944D03*
X6697056Y6697056D03*
X5000000Y2600000D03*
D57*
X5000000Y5000000D03*
D56*
X5000000Y7400000D03*
X3302944Y3302944D03*
X3302944Y6697056D03*
X2600000Y5000000D03*
%TD*%
%TO.C,H1*%
X97400000Y95000000D03*
X96697056Y93302944D03*
X96697056Y96697056D03*
X95000000Y92600000D03*
D57*
X95000000Y95000000D03*
D56*
X95000000Y97400000D03*
X93302944Y93302944D03*
X93302944Y96697056D03*
X92600000Y95000000D03*
%TD*%
%TO.C,H3*%
X97400000Y5000000D03*
X96697056Y3302944D03*
X96697056Y6697056D03*
X95000000Y2600000D03*
D57*
X95000000Y5000000D03*
D56*
X95000000Y7400000D03*
X93302944Y3302944D03*
X93302944Y6697056D03*
X92600000Y5000000D03*
%TD*%
%TO.C,H2*%
X7400000Y95000000D03*
X6697056Y93302944D03*
X6697056Y96697056D03*
X5000000Y92600000D03*
D57*
X5000000Y95000000D03*
D56*
X5000000Y97400000D03*
X3302944Y93302944D03*
X3302944Y96697056D03*
X2600000Y95000000D03*
%TD*%
%LPD*%
M02*
