M48
; DRILL file {KiCad 8.0.3} date 2024-06-20T00:15:20-0600
; FORMAT={-:-/ absolute / metric / decimal}
; #@! TF.CreationDate,2024-06-20T00:15:20-06:00
; #@! TF.GenerationSoftware,Kicad,Pcbnew,8.0.3
; #@! TF.FileFunction,Plated,1,2,PTH
FMAT,2
METRIC
; #@! TA.AperFunction,Plated,PTH,ViaDrill
T1C0.400
; #@! TA.AperFunction,Plated,PTH,ComponentDrill
T2C0.500
; #@! TA.AperFunction,Plated,PTH,ComponentDrill
T3C1.000
; #@! TA.AperFunction,Plated,PTH,ComponentDrill
T4C2.000
; #@! TA.AperFunction,Plated,PTH,ComponentDrill
T5C3.200
%
G90
G05
T1
X3.6Y80.5
X3.6Y66.9
X3.6Y53.2
X3.6Y39.6
X3.6Y25.9
X4.9Y13.6
X6.0Y84.0
X12.7Y84.0
X14.2Y65.7
X16.2Y88.5
X17.3Y95.6
X19.0Y3.7
X19.4Y95.6
X21.5Y64.6
X22.0Y80.0
X24.2Y85.9
X26.4Y85.9
X30.8Y91.0
X30.8Y85.8
X32.8Y3.7
X35.1Y55.0
X35.2Y93.1
X35.2Y67.7
X35.4Y82.9
X35.4Y80.0
X38.3Y20.1
X42.9Y62.6
X43.9Y70.2
X45.8Y70.2
X45.8Y62.6
X46.5Y3.6
X52.2Y19.9
X53.0Y86.3
X53.2Y83.3
X55.6Y85.3
X60.0Y3.6
X61.4Y20.9
X65.4Y93.3
X65.4Y80.4
X65.4Y67.7
X65.4Y55.0
X73.6Y3.6
X74.6Y88.0
X76.4Y81.0
X79.8Y74.2
X80.0Y83.0
X80.0Y81.6
X80.0Y80.2
X82.4Y86.4
X85.9Y4.8
X86.4Y76.1
X92.25Y87.15
X96.6Y87.0
X96.6Y73.4
X96.6Y59.8
X96.6Y46.1
X96.6Y32.5
X96.6Y18.8
T2
X2.6Y95.0
X2.6Y5.0
X3.303Y96.697
X3.303Y93.303
X3.303Y6.697
X3.303Y3.303
X5.0Y97.4
X5.0Y92.6
X5.0Y7.4
X5.0Y2.6
X6.697Y96.697
X6.697Y93.303
X6.697Y6.697
X6.697Y3.303
X7.4Y95.0
X7.4Y5.0
X92.6Y95.0
X92.6Y5.0
X93.303Y96.697
X93.303Y93.303
X93.303Y6.697
X93.303Y3.303
X95.0Y97.4
X95.0Y92.6
X95.0Y7.4
X95.0Y2.6
X96.697Y96.697
X96.697Y93.303
X96.697Y6.697
X96.697Y3.303
X97.4Y95.0
X97.4Y5.0
T3
X72.5Y34.4
X72.5Y19.9
X75.0Y19.9
X77.5Y34.4
X77.5Y19.9
T5
X5.0Y95.0
X5.0Y5.0
X95.0Y95.0
X95.0Y5.0
T4
G00X69.4Y27.65
M15
G01X69.4Y27.15
M16
G05
G00X80.6Y27.65
M15
G01X80.6Y27.15
M16
G05
M30
