M48
; DRILL file {KiCad 8.0.3} date 2024-06-20T00:15:20-0600
; FORMAT={-:-/ absolute / metric / decimal}
; #@! TF.CreationDate,2024-06-20T00:15:20-06:00
; #@! TF.GenerationSoftware,Kicad,Pcbnew,8.0.3
; #@! TF.FileFunction,NonPlated,1,2,NPTH
FMAT,2
METRIC
; #@! TA.AperFunction,NonPlated,NPTH,ComponentDrill
T1C0.750
; #@! TA.AperFunction,NonPlated,NPTH,ComponentDrill
T2C0.900
; #@! TA.AperFunction,NonPlated,NPTH,ComponentDrill
T3C1.000
; #@! TA.AperFunction,NonPlated,NPTH,ComponentDrill
T4C1.500
; #@! TA.AperFunction,NonPlated,NPTH,ComponentDrill
T5C1.800
%
G90
G05
T1
X16.39Y65.87
T2
X73.0Y97.7
X79.8Y97.7
T3
X20.05Y93.6
X28.03Y93.6
T4
X47.485Y95.0
X52.335Y95.0
X79.204Y59.004
X79.204Y53.004
X80.4Y56.004
X80.936Y58.004
X80.936Y54.004
X81.4Y61.2
X81.4Y50.808
X82.4Y59.468
X82.4Y56.004
X82.4Y52.54
X83.4Y57.736
X83.4Y54.272
X84.4Y60.004
X84.4Y56.004
X84.4Y52.004
X85.4Y57.736
X85.4Y54.272
X86.4Y59.468
X86.4Y56.004
X86.4Y52.54
X87.4Y61.2
X87.4Y50.808
X87.864Y58.004
X87.864Y54.004
X88.4Y56.004
X89.596Y59.004
X89.596Y53.004
T5
X47.185Y98.03
X52.635Y98.03
M30
