%TF.GenerationSoftware,KiCad,Pcbnew,8.0.3*%
%TF.CreationDate,2024-06-20T00:24:59-06:00*%
%TF.ProjectId,dc32,64633332-2e6b-4696-9361-645f70636258,1.0*%
%TF.SameCoordinates,PX7bb10a0PY836a940*%
%TF.FileFunction,Paste,Top*%
%TF.FilePolarity,Positive*%
%FSLAX46Y46*%
G04 Gerber Fmt 4.6, Leading zero omitted, Abs format (unit mm)*
G04 Created by KiCad (PCBNEW 8.0.3) date 2024-06-20 00:24:59*
%MOMM*%
%LPD*%
G01*
G04 APERTURE LIST*
G04 Aperture macros list*
%AMRoundRect*
0 Rectangle with rounded corners*
0 $1 Rounding radius*
0 $2 $3 $4 $5 $6 $7 $8 $9 X,Y pos of 4 corners*
0 Add a 4 corners polygon primitive as box body*
4,1,4,$2,$3,$4,$5,$6,$7,$8,$9,$2,$3,0*
0 Add four circle primitives for the rounded corners*
1,1,$1+$1,$2,$3*
1,1,$1+$1,$4,$5*
1,1,$1+$1,$6,$7*
1,1,$1+$1,$8,$9*
0 Add four rect primitives between the rounded corners*
20,1,$1+$1,$2,$3,$4,$5,0*
20,1,$1+$1,$4,$5,$6,$7,0*
20,1,$1+$1,$6,$7,$8,$9,0*
20,1,$1+$1,$8,$9,$2,$3,0*%
%AMFreePoly0*
4,1,9,0.275000,-0.800000,-0.275000,-0.800000,-0.275000,-0.400000,-0.725000,-0.400000,-0.725000,0.150000,-0.275000,0.150000,-0.275000,0.800000,0.275000,0.800000,0.275000,-0.800000,0.275000,-0.800000,$1*%
%AMFreePoly1*
4,1,9,0.275000,0.150000,0.725000,0.150000,0.725000,-0.400000,0.275000,-0.400000,0.275000,-0.800000,-0.275000,-0.800000,-0.275000,0.800000,0.275000,0.800000,0.275000,0.150000,0.275000,0.150000,$1*%
G04 Aperture macros list end*
%ADD10C,0.010000*%
%ADD11FreePoly0,90.000000*%
%ADD12R,1.600000X0.700000*%
%ADD13R,1.600000X0.450000*%
%ADD14FreePoly1,90.000000*%
%ADD15RoundRect,0.225000X-0.225000X-0.250000X0.225000X-0.250000X0.225000X0.250000X-0.225000X0.250000X0*%
%ADD16R,0.700000X1.600000*%
%ADD17R,1.200000X1.400000*%
%ADD18R,1.200000X2.200000*%
%ADD19R,1.600000X1.400000*%
%ADD20RoundRect,0.150000X0.150000X0.200000X-0.150000X0.200000X-0.150000X-0.200000X0.150000X-0.200000X0*%
%ADD21RoundRect,0.250000X0.250000X0.475000X-0.250000X0.475000X-0.250000X-0.475000X0.250000X-0.475000X0*%
%ADD22FreePoly0,0.000000*%
%ADD23R,0.450000X1.600000*%
%ADD24FreePoly1,0.000000*%
%ADD25R,0.300000X1.300000*%
%ADD26R,1.800000X2.200000*%
%ADD27RoundRect,0.200000X-0.275000X0.200000X-0.275000X-0.200000X0.275000X-0.200000X0.275000X0.200000X0*%
%ADD28FreePoly0,270.000000*%
%ADD29FreePoly1,270.000000*%
%ADD30R,1.250000X2.500000*%
%ADD31RoundRect,0.200000X-0.200000X-0.275000X0.200000X-0.275000X0.200000X0.275000X-0.200000X0.275000X0*%
%ADD32RoundRect,0.250000X-0.850000X0.375000X-0.850000X-0.375000X0.850000X-0.375000X0.850000X0.375000X0*%
%ADD33RoundRect,0.200000X0.200000X0.275000X-0.200000X0.275000X-0.200000X-0.275000X0.200000X-0.275000X0*%
%ADD34RoundRect,0.150000X-0.512500X-0.150000X0.512500X-0.150000X0.512500X0.150000X-0.512500X0.150000X0*%
%ADD35RoundRect,0.125000X-0.125000X-0.125000X0.125000X-0.125000X0.125000X0.125000X-0.125000X0.125000X0*%
%ADD36RoundRect,0.062500X-0.350000X-0.062500X0.350000X-0.062500X0.350000X0.062500X-0.350000X0.062500X0*%
%ADD37RoundRect,0.062500X-0.062500X-0.350000X0.062500X-0.350000X0.062500X0.350000X-0.062500X0.350000X0*%
%ADD38RoundRect,0.225000X0.250000X-0.225000X0.250000X0.225000X-0.250000X0.225000X-0.250000X-0.225000X0*%
G04 APERTURE END LIST*
D10*
%TO.C,U2*%
X16575000Y66925000D02*
X16225000Y66925000D01*
X16225000Y67475000D01*
X16575000Y67475000D01*
X16575000Y66925000D01*
G36*
X16575000Y66925000D02*
G01*
X16225000Y66925000D01*
X16225000Y67475000D01*
X16575000Y67475000D01*
X16575000Y66925000D01*
G37*
X16575000Y64265000D02*
X16225000Y64265000D01*
X16225000Y64815000D01*
X16575000Y64815000D01*
X16575000Y64265000D01*
G36*
X16575000Y64265000D02*
G01*
X16225000Y64265000D01*
X16225000Y64815000D01*
X16575000Y64815000D01*
X16575000Y64265000D01*
G37*
X17625000Y66925000D02*
X17275000Y66925000D01*
X17275000Y67475000D01*
X17625000Y67475000D01*
X17625000Y66925000D01*
G36*
X17625000Y66925000D02*
G01*
X17275000Y66925000D01*
X17275000Y67475000D01*
X17625000Y67475000D01*
X17625000Y66925000D01*
G37*
X17625000Y64265000D02*
X17275000Y64265000D01*
X17275000Y64815000D01*
X17625000Y64815000D01*
X17625000Y64265000D01*
G36*
X17625000Y64265000D02*
G01*
X17275000Y64265000D01*
X17275000Y64815000D01*
X17625000Y64815000D01*
X17625000Y64265000D01*
G37*
X18675000Y66925000D02*
X18325000Y66925000D01*
X18325000Y67475000D01*
X18675000Y67475000D01*
X18675000Y66925000D01*
G36*
X18675000Y66925000D02*
G01*
X18325000Y66925000D01*
X18325000Y67475000D01*
X18675000Y67475000D01*
X18675000Y66925000D01*
G37*
X18675000Y64265000D02*
X18325000Y64265000D01*
X18325000Y64815000D01*
X18675000Y64815000D01*
X18675000Y64265000D01*
G36*
X18675000Y64265000D02*
G01*
X18325000Y64265000D01*
X18325000Y64815000D01*
X18675000Y64815000D01*
X18675000Y64265000D01*
G37*
X19725000Y66925000D02*
X19375000Y66925000D01*
X19375000Y67475000D01*
X19725000Y67475000D01*
X19725000Y66925000D01*
G36*
X19725000Y66925000D02*
G01*
X19375000Y66925000D01*
X19375000Y67475000D01*
X19725000Y67475000D01*
X19725000Y66925000D01*
G37*
X19725000Y64265000D02*
X19375000Y64265000D01*
X19375000Y64815000D01*
X19725000Y64815000D01*
X19725000Y64265000D01*
G36*
X19725000Y64265000D02*
G01*
X19375000Y64265000D01*
X19375000Y64815000D01*
X19725000Y64815000D01*
X19725000Y64265000D01*
G37*
X15955000Y66164000D02*
X15944000Y66147000D01*
X15931000Y66127000D01*
X15920000Y66105000D01*
X15910000Y66084000D01*
X15900000Y66061000D01*
X15892000Y66039000D01*
X15884000Y66016000D01*
X15878000Y65992000D01*
X15873000Y65969000D01*
X15869000Y65945000D01*
X15866000Y65921000D01*
X15864000Y65897000D01*
X15863000Y65872000D01*
X15864000Y65848000D01*
X15865000Y65824000D01*
X15868000Y65800000D01*
X15872000Y65776000D01*
X15877000Y65753000D01*
X15883000Y65729000D01*
X15890000Y65706000D01*
X15898000Y65683000D01*
X15907000Y65661000D01*
X15917000Y65639000D01*
X15929000Y65617000D01*
X15941000Y65597000D01*
X15954000Y65576000D01*
X15968000Y65557000D01*
X15983000Y65538000D01*
X15999000Y65519000D01*
X16019000Y65499000D01*
X16018770Y65498772D01*
X16039000Y65479000D01*
X16058000Y65463000D01*
X16077000Y65448000D01*
X16096000Y65434000D01*
X16117000Y65421000D01*
X16137000Y65409000D01*
X16159000Y65397000D01*
X16181000Y65387000D01*
X16203000Y65378000D01*
X16226000Y65370000D01*
X16249000Y65363000D01*
X16273000Y65357000D01*
X16296000Y65352000D01*
X16320000Y65348000D01*
X16344000Y65345000D01*
X16368000Y65344000D01*
X16392000Y65343000D01*
X16417000Y65344000D01*
X16441000Y65346000D01*
X16465000Y65349000D01*
X16489000Y65353000D01*
X16512000Y65358000D01*
X16536000Y65364000D01*
X16559000Y65372000D01*
X16581000Y65380000D01*
X16604000Y65390000D01*
X16625000Y65400000D01*
X16647000Y65411000D01*
X16667000Y65424000D01*
X16684000Y65435000D01*
X16881000Y65238000D01*
X16851000Y65216000D01*
X16819000Y65194000D01*
X16786000Y65174000D01*
X16752000Y65156000D01*
X16717000Y65139000D01*
X16681000Y65125000D01*
X16645000Y65111000D01*
X16608000Y65100000D01*
X16571000Y65090000D01*
X16533000Y65082000D01*
X16495000Y65076000D01*
X16457000Y65072000D01*
X16418000Y65070000D01*
X16380000Y65070000D01*
X16341000Y65071000D01*
X16303000Y65074000D01*
X16265000Y65079000D01*
X16227000Y65086000D01*
X16189000Y65095000D01*
X16152000Y65106000D01*
X16115000Y65118000D01*
X16080000Y65132000D01*
X16044000Y65148000D01*
X16010000Y65166000D01*
X15977000Y65185000D01*
X15944000Y65206000D01*
X15913000Y65228000D01*
X15882000Y65252000D01*
X15853000Y65277000D01*
X15824000Y65304000D01*
X15797000Y65333000D01*
X15772000Y65362000D01*
X15748000Y65393000D01*
X15726000Y65424000D01*
X15705000Y65457000D01*
X15686000Y65490000D01*
X15668000Y65524000D01*
X15652000Y65560000D01*
X15638000Y65595000D01*
X15626000Y65632000D01*
X15615000Y65669000D01*
X15606000Y65707000D01*
X15599000Y65745000D01*
X15594000Y65783000D01*
X15591000Y65821000D01*
X15590000Y65860000D01*
X15590000Y65898000D01*
X15592000Y65937000D01*
X15596000Y65975000D01*
X15602000Y66013000D01*
X15610000Y66051000D01*
X15620000Y66088000D01*
X15631000Y66125000D01*
X15645000Y66161000D01*
X15659000Y66197000D01*
X15676000Y66232000D01*
X15694000Y66266000D01*
X15714000Y66299000D01*
X15736000Y66331000D01*
X15758000Y66361000D01*
X15955000Y66164000D01*
G36*
X15955000Y66164000D02*
G01*
X15944000Y66147000D01*
X15931000Y66127000D01*
X15920000Y66105000D01*
X15910000Y66084000D01*
X15900000Y66061000D01*
X15892000Y66039000D01*
X15884000Y66016000D01*
X15878000Y65992000D01*
X15873000Y65969000D01*
X15869000Y65945000D01*
X15866000Y65921000D01*
X15864000Y65897000D01*
X15863000Y65872000D01*
X15864000Y65848000D01*
X15865000Y65824000D01*
X15868000Y65800000D01*
X15872000Y65776000D01*
X15877000Y65753000D01*
X15883000Y65729000D01*
X15890000Y65706000D01*
X15898000Y65683000D01*
X15907000Y65661000D01*
X15917000Y65639000D01*
X15929000Y65617000D01*
X15941000Y65597000D01*
X15954000Y65576000D01*
X15968000Y65557000D01*
X15983000Y65538000D01*
X15999000Y65519000D01*
X16019000Y65499000D01*
X16018770Y65498772D01*
X16039000Y65479000D01*
X16058000Y65463000D01*
X16077000Y65448000D01*
X16096000Y65434000D01*
X16117000Y65421000D01*
X16137000Y65409000D01*
X16159000Y65397000D01*
X16181000Y65387000D01*
X16203000Y65378000D01*
X16226000Y65370000D01*
X16249000Y65363000D01*
X16273000Y65357000D01*
X16296000Y65352000D01*
X16320000Y65348000D01*
X16344000Y65345000D01*
X16368000Y65344000D01*
X16392000Y65343000D01*
X16417000Y65344000D01*
X16441000Y65346000D01*
X16465000Y65349000D01*
X16489000Y65353000D01*
X16512000Y65358000D01*
X16536000Y65364000D01*
X16559000Y65372000D01*
X16581000Y65380000D01*
X16604000Y65390000D01*
X16625000Y65400000D01*
X16647000Y65411000D01*
X16667000Y65424000D01*
X16684000Y65435000D01*
X16881000Y65238000D01*
X16851000Y65216000D01*
X16819000Y65194000D01*
X16786000Y65174000D01*
X16752000Y65156000D01*
X16717000Y65139000D01*
X16681000Y65125000D01*
X16645000Y65111000D01*
X16608000Y65100000D01*
X16571000Y65090000D01*
X16533000Y65082000D01*
X16495000Y65076000D01*
X16457000Y65072000D01*
X16418000Y65070000D01*
X16380000Y65070000D01*
X16341000Y65071000D01*
X16303000Y65074000D01*
X16265000Y65079000D01*
X16227000Y65086000D01*
X16189000Y65095000D01*
X16152000Y65106000D01*
X16115000Y65118000D01*
X16080000Y65132000D01*
X16044000Y65148000D01*
X16010000Y65166000D01*
X15977000Y65185000D01*
X15944000Y65206000D01*
X15913000Y65228000D01*
X15882000Y65252000D01*
X15853000Y65277000D01*
X15824000Y65304000D01*
X15797000Y65333000D01*
X15772000Y65362000D01*
X15748000Y65393000D01*
X15726000Y65424000D01*
X15705000Y65457000D01*
X15686000Y65490000D01*
X15668000Y65524000D01*
X15652000Y65560000D01*
X15638000Y65595000D01*
X15626000Y65632000D01*
X15615000Y65669000D01*
X15606000Y65707000D01*
X15599000Y65745000D01*
X15594000Y65783000D01*
X15591000Y65821000D01*
X15590000Y65860000D01*
X15590000Y65898000D01*
X15592000Y65937000D01*
X15596000Y65975000D01*
X15602000Y66013000D01*
X15610000Y66051000D01*
X15620000Y66088000D01*
X15631000Y66125000D01*
X15645000Y66161000D01*
X15659000Y66197000D01*
X15676000Y66232000D01*
X15694000Y66266000D01*
X15714000Y66299000D01*
X15736000Y66331000D01*
X15758000Y66361000D01*
X15955000Y66164000D01*
G37*
X16439000Y66669000D02*
X16477000Y66666000D01*
X16515000Y66661000D01*
X16553000Y66654000D01*
X16591000Y66645000D01*
X16628000Y66634000D01*
X16665000Y66622000D01*
X16700000Y66608000D01*
X16736000Y66592000D01*
X16770000Y66574000D01*
X16803000Y66555000D01*
X16836000Y66534000D01*
X16867000Y66512000D01*
X16898000Y66488000D01*
X16927000Y66463000D01*
X16956000Y66436000D01*
X16983000Y66407000D01*
X17008000Y66378000D01*
X17032000Y66347000D01*
X17054000Y66316000D01*
X17075000Y66283000D01*
X17094000Y66250000D01*
X17112000Y66216000D01*
X17128000Y66180000D01*
X17142000Y66145000D01*
X17154000Y66108000D01*
X17165000Y66071000D01*
X17174000Y66033000D01*
X17181000Y65995000D01*
X17186000Y65957000D01*
X17189000Y65919000D01*
X17190000Y65880000D01*
X17190000Y65842000D01*
X17188000Y65803000D01*
X17184000Y65765000D01*
X17178000Y65727000D01*
X17170000Y65689000D01*
X17160000Y65652000D01*
X17149000Y65615000D01*
X17135000Y65579000D01*
X17121000Y65543000D01*
X17104000Y65508000D01*
X17086000Y65474000D01*
X17066000Y65441000D01*
X17044000Y65409000D01*
X17022000Y65379000D01*
X16825000Y65576000D01*
X16836000Y65593000D01*
X16849000Y65613000D01*
X16860000Y65635000D01*
X16870000Y65656000D01*
X16880000Y65679000D01*
X16888000Y65701000D01*
X16896000Y65724000D01*
X16902000Y65748000D01*
X16907000Y65771000D01*
X16911000Y65795000D01*
X16914000Y65819000D01*
X16916000Y65843000D01*
X16917000Y65868000D01*
X16916000Y65892000D01*
X16915000Y65916000D01*
X16912000Y65940000D01*
X16908000Y65964000D01*
X16903000Y65987000D01*
X16897000Y66011000D01*
X16890000Y66034000D01*
X16882000Y66057000D01*
X16873000Y66079000D01*
X16863000Y66101000D01*
X16851000Y66123000D01*
X16839000Y66143000D01*
X16826000Y66164000D01*
X16812000Y66183000D01*
X16797000Y66202000D01*
X16781000Y66221000D01*
X16761000Y66241000D01*
X16761228Y66241228D01*
X16741000Y66261000D01*
X16722000Y66277000D01*
X16703000Y66292000D01*
X16684000Y66306000D01*
X16663000Y66319000D01*
X16643000Y66331000D01*
X16621000Y66343000D01*
X16599000Y66353000D01*
X16577000Y66362000D01*
X16554000Y66370000D01*
X16531000Y66377000D01*
X16507000Y66383000D01*
X16484000Y66388000D01*
X16460000Y66392000D01*
X16436000Y66395000D01*
X16412000Y66396000D01*
X16388000Y66397000D01*
X16363000Y66396000D01*
X16339000Y66394000D01*
X16315000Y66391000D01*
X16291000Y66387000D01*
X16268000Y66382000D01*
X16244000Y66376000D01*
X16221000Y66368000D01*
X16199000Y66360000D01*
X16176000Y66350000D01*
X16155000Y66340000D01*
X16133000Y66329000D01*
X16113000Y66316000D01*
X16096000Y66305000D01*
X15899000Y66502000D01*
X15929000Y66524000D01*
X15961000Y66546000D01*
X15994000Y66566000D01*
X16028000Y66584000D01*
X16063000Y66601000D01*
X16099000Y66615000D01*
X16135000Y66629000D01*
X16172000Y66640000D01*
X16209000Y66650000D01*
X16247000Y66658000D01*
X16285000Y66664000D01*
X16323000Y66668000D01*
X16362000Y66670000D01*
X16400000Y66670000D01*
X16439000Y66669000D01*
G36*
X16439000Y66669000D02*
G01*
X16477000Y66666000D01*
X16515000Y66661000D01*
X16553000Y66654000D01*
X16591000Y66645000D01*
X16628000Y66634000D01*
X16665000Y66622000D01*
X16700000Y66608000D01*
X16736000Y66592000D01*
X16770000Y66574000D01*
X16803000Y66555000D01*
X16836000Y66534000D01*
X16867000Y66512000D01*
X16898000Y66488000D01*
X16927000Y66463000D01*
X16956000Y66436000D01*
X16983000Y66407000D01*
X17008000Y66378000D01*
X17032000Y66347000D01*
X17054000Y66316000D01*
X17075000Y66283000D01*
X17094000Y66250000D01*
X17112000Y66216000D01*
X17128000Y66180000D01*
X17142000Y66145000D01*
X17154000Y66108000D01*
X17165000Y66071000D01*
X17174000Y66033000D01*
X17181000Y65995000D01*
X17186000Y65957000D01*
X17189000Y65919000D01*
X17190000Y65880000D01*
X17190000Y65842000D01*
X17188000Y65803000D01*
X17184000Y65765000D01*
X17178000Y65727000D01*
X17170000Y65689000D01*
X17160000Y65652000D01*
X17149000Y65615000D01*
X17135000Y65579000D01*
X17121000Y65543000D01*
X17104000Y65508000D01*
X17086000Y65474000D01*
X17066000Y65441000D01*
X17044000Y65409000D01*
X17022000Y65379000D01*
X16825000Y65576000D01*
X16836000Y65593000D01*
X16849000Y65613000D01*
X16860000Y65635000D01*
X16870000Y65656000D01*
X16880000Y65679000D01*
X16888000Y65701000D01*
X16896000Y65724000D01*
X16902000Y65748000D01*
X16907000Y65771000D01*
X16911000Y65795000D01*
X16914000Y65819000D01*
X16916000Y65843000D01*
X16917000Y65868000D01*
X16916000Y65892000D01*
X16915000Y65916000D01*
X16912000Y65940000D01*
X16908000Y65964000D01*
X16903000Y65987000D01*
X16897000Y66011000D01*
X16890000Y66034000D01*
X16882000Y66057000D01*
X16873000Y66079000D01*
X16863000Y66101000D01*
X16851000Y66123000D01*
X16839000Y66143000D01*
X16826000Y66164000D01*
X16812000Y66183000D01*
X16797000Y66202000D01*
X16781000Y66221000D01*
X16761000Y66241000D01*
X16761228Y66241228D01*
X16741000Y66261000D01*
X16722000Y66277000D01*
X16703000Y66292000D01*
X16684000Y66306000D01*
X16663000Y66319000D01*
X16643000Y66331000D01*
X16621000Y66343000D01*
X16599000Y66353000D01*
X16577000Y66362000D01*
X16554000Y66370000D01*
X16531000Y66377000D01*
X16507000Y66383000D01*
X16484000Y66388000D01*
X16460000Y66392000D01*
X16436000Y66395000D01*
X16412000Y66396000D01*
X16388000Y66397000D01*
X16363000Y66396000D01*
X16339000Y66394000D01*
X16315000Y66391000D01*
X16291000Y66387000D01*
X16268000Y66382000D01*
X16244000Y66376000D01*
X16221000Y66368000D01*
X16199000Y66360000D01*
X16176000Y66350000D01*
X16155000Y66340000D01*
X16133000Y66329000D01*
X16113000Y66316000D01*
X16096000Y66305000D01*
X15899000Y66502000D01*
X15929000Y66524000D01*
X15961000Y66546000D01*
X15994000Y66566000D01*
X16028000Y66584000D01*
X16063000Y66601000D01*
X16099000Y66615000D01*
X16135000Y66629000D01*
X16172000Y66640000D01*
X16209000Y66650000D01*
X16247000Y66658000D01*
X16285000Y66664000D01*
X16323000Y66668000D01*
X16362000Y66670000D01*
X16400000Y66670000D01*
X16439000Y66669000D01*
G37*
%TD*%
D11*
%TO.C,D15*%
X97100000Y41375000D03*
D12*
X97100000Y42500000D03*
D13*
X97100000Y43525000D03*
D14*
X97100000Y44525000D03*
%TD*%
D15*
%TO.C,C5*%
X15800000Y60540000D03*
X17350000Y60540000D03*
%TD*%
D16*
%TO.C,J1*%
X20900000Y83100000D03*
X22000000Y83100000D03*
X23100000Y83100000D03*
X24200000Y83100000D03*
X25300000Y83100000D03*
X26400000Y83100000D03*
X27500000Y83100000D03*
X28600000Y83100000D03*
X29700000Y83100000D03*
D17*
X30850000Y83600000D03*
D18*
X30850000Y93200000D03*
D19*
X16250000Y83600000D03*
D18*
X15350000Y93200000D03*
%TD*%
D11*
%TO.C,D17*%
X97100000Y68655000D03*
D12*
X97100000Y69780000D03*
D13*
X97100000Y70805000D03*
D14*
X97100000Y71805000D03*
%TD*%
D20*
%TO.C,D19*%
X66800000Y95600000D03*
X68200000Y95600000D03*
%TD*%
D21*
%TO.C,C1*%
X84150000Y83000000D03*
X82250000Y83000000D03*
%TD*%
D11*
%TO.C,D16*%
X97100000Y55015000D03*
D12*
X97100000Y56140000D03*
D13*
X97100000Y57165000D03*
D14*
X97100000Y58165000D03*
%TD*%
D11*
%TO.C,D18*%
X97100000Y82295000D03*
D12*
X97100000Y83420000D03*
D13*
X97100000Y84445000D03*
D14*
X97100000Y85445000D03*
%TD*%
D22*
%TO.C,D7*%
X14270000Y3000000D03*
D16*
X15395000Y3000000D03*
D23*
X16420000Y3000000D03*
D24*
X17420000Y3000000D03*
%TD*%
D25*
%TO.C,J2*%
X62350000Y22600000D03*
X61850000Y22600000D03*
X61350000Y22600000D03*
X60850000Y22600000D03*
X60350000Y22600000D03*
X59850000Y22600000D03*
X59350000Y22600000D03*
X58850000Y22600000D03*
X58350000Y22600000D03*
X57850000Y22600000D03*
X57350000Y22600000D03*
X56850000Y22600000D03*
X56350000Y22600000D03*
X55850000Y22600000D03*
X55350000Y22600000D03*
X54850000Y22600000D03*
X54350000Y22600000D03*
X53850000Y22600000D03*
X53350000Y22600000D03*
X52850000Y22600000D03*
X52350000Y22600000D03*
X51850000Y22600000D03*
X51350000Y22600000D03*
X50850000Y22600000D03*
X50350000Y22600000D03*
X49850000Y22600000D03*
X49350000Y22600000D03*
X48850000Y22600000D03*
X48350000Y22600000D03*
X47850000Y22600000D03*
X47350000Y22600000D03*
X46850000Y22600000D03*
X46350000Y22600000D03*
X45850000Y22600000D03*
X45350000Y22600000D03*
X44850000Y22600000D03*
X44350000Y22600000D03*
X43850000Y22600000D03*
X43350000Y22600000D03*
X42850000Y22600000D03*
X42350000Y22600000D03*
X41850000Y22600000D03*
X41350000Y22600000D03*
X40850000Y22600000D03*
X40350000Y22600000D03*
X39850000Y22600000D03*
X39350000Y22600000D03*
X38850000Y22600000D03*
X38350000Y22600000D03*
X37850000Y22600000D03*
D26*
X64250000Y25850000D03*
X35950000Y25850000D03*
%TD*%
D27*
%TO.C,R3*%
X22950000Y66890000D03*
X22950000Y65240000D03*
%TD*%
D28*
%TO.C,D6*%
X3000000Y17030000D03*
D12*
X3000000Y15905000D03*
D13*
X3000000Y14880000D03*
D29*
X3000000Y13880000D03*
%TD*%
D28*
%TO.C,D3*%
X3000000Y57950000D03*
D12*
X3000000Y56825000D03*
D13*
X3000000Y55800000D03*
D29*
X3000000Y54800000D03*
%TD*%
D22*
%TO.C,D11*%
X68830000Y3000000D03*
D16*
X69955000Y3000000D03*
D23*
X70980000Y3000000D03*
D24*
X71980000Y3000000D03*
%TD*%
D30*
%TO.C,SW1*%
X78900000Y94950000D03*
X76400000Y94950000D03*
X73900000Y94950000D03*
%TD*%
D28*
%TO.C,D4*%
X3000000Y44310000D03*
D12*
X3000000Y43185000D03*
D13*
X3000000Y42160000D03*
D29*
X3000000Y41160000D03*
%TD*%
D31*
%TO.C,R2*%
X60550000Y19500000D03*
X62200000Y19500000D03*
%TD*%
D22*
%TO.C,D10*%
X55190000Y3000000D03*
D16*
X56315000Y3000000D03*
D23*
X57340000Y3000000D03*
D24*
X58340000Y3000000D03*
%TD*%
D32*
%TO.C,L1*%
X86200000Y87400000D03*
X86200000Y85250000D03*
%TD*%
D22*
%TO.C,D12*%
X82470000Y3000000D03*
D16*
X83595000Y3000000D03*
D23*
X84620000Y3000000D03*
D24*
X85620000Y3000000D03*
%TD*%
D15*
%TO.C,C4*%
X41050000Y19500000D03*
X42600000Y19500000D03*
%TD*%
%TO.C,C2*%
X80950000Y89400000D03*
X82500000Y89400000D03*
%TD*%
D22*
%TO.C,D9*%
X41550000Y3000000D03*
D16*
X42675000Y3000000D03*
D23*
X43700000Y3000000D03*
D24*
X44700000Y3000000D03*
%TD*%
D11*
%TO.C,D14*%
X97100000Y27735000D03*
D12*
X97100000Y28860000D03*
D13*
X97100000Y29885000D03*
D14*
X97100000Y30885000D03*
%TD*%
D28*
%TO.C,D1*%
X3000000Y85230000D03*
D12*
X3000000Y84105000D03*
D13*
X3000000Y83080000D03*
D29*
X3000000Y82080000D03*
%TD*%
D33*
%TO.C,R4*%
X82212500Y71312500D03*
X80562500Y71312500D03*
%TD*%
D34*
%TO.C,U1*%
X81225000Y87300000D03*
X81225000Y86350000D03*
X81225000Y85400000D03*
X83500000Y85400000D03*
X83500000Y87300000D03*
%TD*%
D11*
%TO.C,D13*%
X97100000Y14095000D03*
D12*
X97100000Y15220000D03*
D13*
X97100000Y16245000D03*
D14*
X97100000Y17245000D03*
%TD*%
D35*
%TO.C,U4*%
X83052500Y75360000D03*
X83052500Y74740000D03*
X83672500Y75360000D03*
X83672500Y74740000D03*
D36*
X81925000Y75800000D03*
X81925000Y75300000D03*
X81925000Y74800000D03*
X81925000Y74300000D03*
D37*
X82612500Y73612500D03*
X83112500Y73612500D03*
X83612500Y73612500D03*
X84112500Y73612500D03*
D36*
X84800000Y74300000D03*
X84800000Y74800000D03*
X84800000Y75300000D03*
X84800000Y75800000D03*
D37*
X84112500Y76487500D03*
X83612500Y76487500D03*
X83112500Y76487500D03*
X82612500Y76487500D03*
%TD*%
D15*
%TO.C,C6*%
X41050000Y17900000D03*
X42600000Y17900000D03*
%TD*%
D28*
%TO.C,D2*%
X3000000Y71590000D03*
D12*
X3000000Y70465000D03*
D13*
X3000000Y69440000D03*
D29*
X3000000Y68440000D03*
%TD*%
D38*
%TO.C,C3*%
X12750000Y65690000D03*
X12750000Y67240000D03*
%TD*%
D31*
%TO.C,R1*%
X7550000Y85200000D03*
X9200000Y85200000D03*
%TD*%
D28*
%TO.C,D5*%
X3000000Y30670000D03*
D12*
X3000000Y29545000D03*
D13*
X3000000Y28520000D03*
D29*
X3000000Y27520000D03*
%TD*%
D22*
%TO.C,D8*%
X27910000Y3000000D03*
D16*
X29035000Y3000000D03*
D23*
X30060000Y3000000D03*
D24*
X31060000Y3000000D03*
%TD*%
M02*
